  0
SECTION
  2
HEADER
  9
$ACADVER
  1
AC1024
  9
$ACADMAINTVER
 70
6
  9
$DWGCODEPAGE
  3
ANSI_1252
  9
$LASTSAVEDBY
  1
ezdxf
  9
$INSBASE
 10
0.0
 20
0.0
 30
0.0
  9
$EXTMIN
 10
1e+20
 20
1e+20
 30
1e+20
  9
$EXTMAX
 10
-1e+20
 20
-1e+20
 30
-1e+20
  9
$LIMMIN
 10
0.0
 20
0.0
  9
$LIMMAX
 10
420.0
 20
297.0
  9
$ORTHOMODE
 70
0
  9
$REGENMODE
 70
1
  9
$FILLMODE
 70
1
  9
$QTEXTMODE
 70
0
  9
$MIRRTEXT
 70
1
  9
$LTSCALE
 40
1.0
  9
$ATTMODE
 70
1
  9
$TEXTSIZE
 40
2.5
  9
$TRACEWID
 40
1.0
  9
$TEXTSTYLE
  7
Standard
  9
$CLAYER
  8
0
  9
$CELTYPE
  6
ByLayer
  9
$CECOLOR
 62
256
  9
$CELTSCALE
 40
1.0
  9
$DISPSILH
 70
0
  9
$DIMSCALE
 40
1.0
  9
$DIMASZ
 40
2.5
  9
$DIMEXO
 40
0.625
  9
$DIMDLI
 40
3.75
  9
$DIMRND
 40
0.0
  9
$DIMDLE
 40
0.0
  9
$DIMEXE
 40
1.25
  9
$DIMTP
 40
0.0
  9
$DIMTM
 40
0.0
  9
$DIMTXT
 40
2.5
  9
$DIMCEN
 40
2.5
  9
$DIMTSZ
 40
0.0
  9
$DIMTOL
 70
0
  9
$DIMLIM
 70
0
  9
$DIMTIH
 70
0
  9
$DIMTOH
 70
0
  9
$DIMSE1
 70
0
  9
$DIMSE2
 70
0
  9
$DIMTAD
 70
1
  9
$DIMZIN
 70
8
  9
$DIMBLK
  1

  9
$DIMASO
 70
1
  9
$DIMSHO
 70
1
  9
$DIMPOST
  1

  9
$DIMAPOST
  1

  9
$DIMALT
 70
0
  9
$DIMALTD
 70
3
  9
$DIMALTF
 40
0.03937007874
  9
$DIMLFAC
 40
1.0
  9
$DIMTOFL
 70
1
  9
$DIMTVP
 40
0.0
  9
$DIMTIX
 70
0
  9
$DIMSOXD
 70
0
  9
$DIMSAH
 70
0
  9
$DIMBLK1
  1

  9
$DIMBLK2
  1

  9
$DIMSTYLE
  2
ISO-25
  9
$DIMCLRD
 70
0
  9
$DIMCLRE
 70
0
  9
$DIMCLRT
 70
0
  9
$DIMTFAC
 40
1.0
  9
$DIMGAP
 40
0.625
  9
$DIMJUST
 70
0
  9
$DIMSD1
 70
0
  9
$DIMSD2
 70
0
  9
$DIMTOLJ
 70
0
  9
$DIMTZIN
 70
8
  9
$DIMALTZ
 70
0
  9
$DIMALTTZ
 70
0
  9
$DIMUPT
 70
0
  9
$DIMDEC
 70
2
  9
$DIMTDEC
 70
2
  9
$DIMALTU
 70
2
  9
$DIMALTTD
 70
3
  9
$DIMTXSTY
  7
Standard
  9
$DIMAUNIT
 70
0
  9
$DIMADEC
 70
0
  9
$DIMALTRND
 40
0.0
  9
$DIMAZIN
 70
0
  9
$DIMDSEP
 70
44
  9
$DIMATFIT
 70
3
  9
$DIMFRAC
 70
0
  9
$DIMLDRBLK
  1

  9
$DIMLUNIT
 70
2
  9
$DIMLWD
 70
-2
  9
$DIMLWE
 70
-2
  9
$DIMTMOVE
 70
0
  9
$DIMFXL
 40
1.0
  9
$DIMFXLON
 70
0
  9
$DIMJOGANG
 40
0.785398163397
  9
$DIMTFILL
 70
0
  9
$DIMTFILLCLR
 70
0
  9
$DIMARCSYM
 70
0
  9
$DIMLTYPE
  6

  9
$DIMLTEX1
  6

  9
$DIMLTEX2
  6

  9
$DIMTXTDIRECTION
 70
0
  9
$LUNITS
 70
2
  9
$LUPREC
 70
4
  9
$SKETCHINC
 40
1.0
  9
$FILLETRAD
 40
10.0
  9
$AUNITS
 70
0
  9
$AUPREC
 70
2
  9
$MENU
  1
.
  9
$ELEVATION
 40
0.0
  9
$PELEVATION
 40
0.0
  9
$THICKNESS
 40
0.0
  9
$LIMCHECK
 70
0
  9
$CHAMFERA
 40
0.0
  9
$CHAMFERB
 40
0.0
  9
$CHAMFERC
 40
0.0
  9
$CHAMFERD
 40
0.0
  9
$SKPOLY
 70
0
  9
$TDCREATE
 40
2461305.4442592594
  9
$TDUCREATE
 40
2458532.153996898
  9
$TDUPDATE
 40
2461305.4442592594
  9
$TDUUPDATE
 40
2458532.1544311
  9
$TDINDWG
 40
0.0
  9
$TDUSRTIMER
 40
0.0
  9
$USRTIMER
 70
1
  9
$ANGBASE
 50
0.0
  9
$ANGDIR
 70
0
  9
$PDMODE
 70
0
  9
$PDSIZE
 40
0.0
  9
$PLINEWID
 40
0.0
  9
$SPLFRAME
 70
0
  9
$SPLINETYPE
 70
6
  9
$SPLINESEGS
 70
8
  9
$HANDSEED
  5
9F
  9
$SURFTAB1
 70
6
  9
$SURFTAB2
 70
6
  9
$SURFTYPE
 70
6
  9
$SURFU
 70
6
  9
$SURFV
 70
6
  9
$UCSBASE
  2

  9
$UCSNAME
  2

  9
$UCSORG
 10
0.0
 20
0.0
 30
0.0
  9
$UCSXDIR
 10
1.0
 20
0.0
 30
0.0
  9
$UCSYDIR
 10
0.0
 20
1.0
 30
0.0
  9
$UCSORTHOREF
  2

  9
$UCSORTHOVIEW
 70
0
  9
$UCSORGTOP
 10
0.0
 20
0.0
 30
0.0
  9
$UCSORGBOTTOM
 10
0.0
 20
0.0
 30
0.0
  9
$UCSORGLEFT
 10
0.0
 20
0.0
 30
0.0
  9
$UCSORGRIGHT
 10
0.0
 20
0.0
 30
0.0
  9
$UCSORGFRONT
 10
0.0
 20
0.0
 30
0.0
  9
$UCSORGBACK
 10
0.0
 20
0.0
 30
0.0
  9
$PUCSBASE
  2

  9
$PUCSNAME
  2

  9
$PUCSORG
 10
0.0
 20
0.0
 30
0.0
  9
$PUCSXDIR
 10
1.0
 20
0.0
 30
0.0
  9
$PUCSYDIR
 10
0.0
 20
1.0
 30
0.0
  9
$PUCSORTHOREF
  2

  9
$PUCSORTHOVIEW
 70
0
  9
$PUCSORGTOP
 10
0.0
 20
0.0
 30
0.0
  9
$PUCSORGBOTTOM
 10
0.0
 20
0.0
 30
0.0
  9
$PUCSORGLEFT
 10
0.0
 20
0.0
 30
0.0
  9
$PUCSORGRIGHT
 10
0.0
 20
0.0
 30
0.0
  9
$PUCSORGFRONT
 10
0.0
 20
0.0
 30
0.0
  9
$PUCSORGBACK
 10
0.0
 20
0.0
 30
0.0
  9
$USERI1
 70
0
  9
$USERI2
 70
0
  9
$USERI3
 70
0
  9
$USERI4
 70
0
  9
$USERI5
 70
0
  9
$USERR1
 40
0.0
  9
$USERR2
 40
0.0
  9
$USERR3
 40
0.0
  9
$USERR4
 40
0.0
  9
$USERR5
 40
0.0
  9
$WORLDVIEW
 70
1
  9
$SHADEDGE
 70
3
  9
$SHADEDIF
 70
70
  9
$TILEMODE
 70
1
  9
$MAXACTVP
 70
64
  9
$PINSBASE
 10
0.0
 20
0.0
 30
0.0
  9
$PLIMCHECK
 70
0
  9
$PEXTMIN
 10
1e+20
 20
1e+20
 30
1e+20
  9
$PEXTMAX
 10
-1e+20
 20
-1e+20
 30
-1e+20
  9
$PLIMMIN
 10
0.0
 20
0.0
  9
$PLIMMAX
 10
420.0
 20
297.0
  9
$UNITMODE
 70
0
  9
$VISRETAIN
 70
1
  9
$PLINEGEN
 70
0
  9
$PSLTSCALE
 70
1
  9
$TREEDEPTH
 70
3020
  9
$CMLSTYLE
  2
Standard
  9
$CMLJUST
 70
0
  9
$CMLSCALE
 40
20.0
  9
$PROXYGRAPHICS
 70
1
  9
$MEASUREMENT
 70
1
  9
$CELWEIGHT
370
-1
  9
$ENDCAPS
280
0
  9
$JOINSTYLE
280
0
  9
$LWDISPLAY
290
0
  9
$INSUNITS
 70
6
  9
$HYPERLINKBASE
  1

  9
$STYLESHEET
  1

  9
$XEDIT
290
1
  9
$CEPSNTYPE
380
0
  9
$PSTYLEMODE
290
1
  9
$FINGERPRINTGUID
  2
{5B06FF8D-89CE-44B1-9226-4480A472751A}
  9
$VERSIONGUID
  2
{E992F963-6E37-4397-9ED3-C9D97F6457B7}
  9
$EXTNAMES
290
1
  9
$PSVPSCALE
 40
0.0
  9
$OLESTARTUP
290
0
  9
$SORTENTS
280
127
  9
$INDEXCTL
280
0
  9
$HIDETEXT
280
1
  9
$XCLIPFRAME
280
1
  9
$HALOGAP
280
0
  9
$OBSCOLOR
 70
257
  9
$OBSLTYPE
280
0
  9
$INTERSECTIONDISPLAY
280
0
  9
$INTERSECTIONCOLOR
 70
257
  9
$DIMASSOC
280
2
  9
$PROJECTNAME
  1

  9
$CAMERADISPLAY
290
0
  9
$LENSLENGTH
 40
50.0
  9
$CAMERAHEIGHT
 40
0.0
  9
$STEPSPERSEC
 40
24.0
  9
$STEPSIZE
 40
100.0
  9
$3DDWFPREC
 40
2.0
  9
$PSOLWIDTH
 40
0.005
  9
$PSOLHEIGHT
 40
0.08
  9
$LOFTANG1
 40
1.570796326795
  9
$LOFTANG2
 40
1.570796326795
  9
$LOFTMAG1
 40
0.0
  9
$LOFTMAG2
 40
0.0
  9
$LOFTPARAM
 70
7
  9
$LOFTNORMALS
280
1
  9
$LATITUDE
 40
37.795
  9
$LONGITUDE
 40
-122.394
  9
$NORTHDIRECTION
 40
0.0
  9
$TIMEZONE
 70
-8000
  9
$LIGHTGLYPHDISPLAY
280
1
  9
$TILEMODELIGHTSYNCH
280
1
  9
$CMATERIAL
347
20
  9
$SOLIDHIST
280
0
  9
$SHOWHIST
280
1
  9
$DWFFRAME
280
2
  9
$DGNFRAME
280
2
  9
$REALWORLDSCALE
290
1
  9
$INTERFERECOLOR
 62
256
  9
$CSHADOW
280
0
  9
$SHADOWPLANELOCATION
 40
0.0
  0
ENDSEC
  0
SECTION
  2
CLASSES
  0
CLASS
  1
ACDBDICTIONARYWDFLT
  2
AcDbDictionaryWithDefault
  3
ObjectDBX Classes
 90
0
 91
0
280
0
281
0
  0
CLASS
  1
SUN
  2
AcDbSun
  3
SCENEOE
 90
1153
 91
0
280
0
281
0
  0
CLASS
  1
VISUALSTYLE
  2
AcDbVisualStyle
  3
ObjectDBX Classes
 90
4095
 91
0
280
0
281
0
  0
CLASS
  1
MATERIAL
  2
AcDbMaterial
  3
ObjectDBX Classes
 90
1153
 91
0
280
0
281
0
  0
CLASS
  1
SCALE
  2
AcDbScale
  3
ObjectDBX Classes
 90
1153
 91
0
280
0
281
0
  0
CLASS
  1
TABLESTYLE
  2
AcDbTableStyle
  3
ObjectDBX Classes
 90
4095
 91
0
280
0
281
0
  0
CLASS
  1
MLEADERSTYLE
  2
AcDbMLeaderStyle
  3
ACDB_MLEADERSTYLE_CLASS
 90
4095
 91
0
280
0
281
0
  0
CLASS
  1
DICTIONARYVAR
  2
AcDbDictionaryVar
  3
ObjectDBX Classes
 90
0
 91
0
280
0
281
0
  0
CLASS
  1
CELLSTYLEMAP
  2
AcDbCellStyleMap
  3
ObjectDBX Classes
 90
1152
 91
0
280
0
281
0
  0
CLASS
  1
MENTALRAYRENDERSETTINGS
  2
AcDbMentalRayRenderSettings
  3
SCENEOE
 90
1024
 91
0
280
0
281
0
  0
CLASS
  1
ACDBDETAILVIEWSTYLE
  2
AcDbDetailViewStyle
  3
ObjectDBX Classes
 90
1025
 91
0
280
0
281
0
  0
CLASS
  1
ACDBSECTIONVIEWSTYLE
  2
AcDbSectionViewStyle
  3
ObjectDBX Classes
 90
1025
 91
0
280
0
281
0
  0
CLASS
  1
RASTERVARIABLES
  2
AcDbRasterVariables
  3
ISM
 90
0
 91
0
280
0
281
0
  0
CLASS
  1
ACDBPLACEHOLDER
  2
AcDbPlaceHolder
  3
ObjectDBX Classes
 90
0
 91
0
280
0
281
0
  0
CLASS
  1
LAYOUT
  2
AcDbLayout
  3
ObjectDBX Classes
 90
0
 91
0
280
0
281
0
  0
ENDSEC
  0
SECTION
  2
TABLES
  0
TABLE
  2
VPORT
  5
8
330
0
100
AcDbSymbolTable
 70
1
  0
VPORT
  5
23
330
8
100
AcDbSymbolTableRecord
100
AcDbViewportTableRecord
  2
*Active
 70
0
 10
0.0
 20
0.0
 11
1.0
 21
1.0
 12
0.0
 22
0.0
 13
0.0
 23
0.0
 14
0.5
 24
0.5
 15
0.5
 25
0.5
 16
0.0
 26
0.0
 36
1.0
 17
0.0
 27
0.0
 37
0.0
 40
1000.0
 41
1.34
 42
50.0
 43
0.0
 44
0.0
 50
0.0
 51
0.0
 71
0
 72
1000
 73
1
 74
3
 75
0
 76
0
 77
0
 78
0
281
0
 65
0
146
0.0
  0
ENDTAB
  0
TABLE
  2
LTYPE
  5
2
330
0
100
AcDbSymbolTable
 70
3
  0
LTYPE
  5
24
330
2
100
AcDbSymbolTableRecord
100
AcDbLinetypeTableRecord
  2
ByBlock
 70
0
  3

 72
65
 73
0
 40
0.0
  0
LTYPE
  5
25
330
2
100
AcDbSymbolTableRecord
100
AcDbLinetypeTableRecord
  2
ByLayer
 70
0
  3

 72
65
 73
0
 40
0.0
  0
LTYPE
  5
26
330
2
100
AcDbSymbolTableRecord
100
AcDbLinetypeTableRecord
  2
Continuous
 70
0
  3

 72
65
 73
0
 40
0.0
  0
ENDTAB
  0
TABLE
  2
LAYER
  5
1
330
0
100
AcDbSymbolTable
 70
4
  0
LAYER
  5
27
330
1
100
AcDbSymbolTableRecord
100
AcDbLayerTableRecord
  2
0
 70
0
 62
7
  6
Continuous
370
-3
390
13
347
21
  0
LAYER
  5
28
330
1
100
AcDbSymbolTableRecord
100
AcDbLayerTableRecord
  2
Defpoints
 70
0
 62
7
  6
Continuous
290
0
370
-3
390
13
347
21
  0
LAYER
  5
2F
330
1
100
AcDbSymbolTableRecord
100
AcDbLayerTableRecord
  2
GORUNEN
 70
0
 62
7
  6
Continuous
370
-3
390
13
347
21
  0
LAYER
  5
30
330
1
100
AcDbSymbolTableRecord
100
AcDbLayerTableRecord
  2
YAZI
 70
0
 62
7
  6
Continuous
370
-3
390
13
347
21
  0
ENDTAB
  0
TABLE
  2
STYLE
  5
5
330
0
100
AcDbSymbolTable
 70
1
  0
STYLE
  5
29
330
5
100
AcDbSymbolTableRecord
100
AcDbTextStyleTableRecord
  2
Standard
 70
0
 40
0.0
 41
1.0
 50
0.0
 71
0
 42
2.5
  3
txt
  4

  0
ENDTAB
  0
TABLE
  2
VIEW
  5
7
330
0
100
AcDbSymbolTable
 70
0
  0
ENDTAB
  0
TABLE
  2
UCS
  5
6
330
0
100
AcDbSymbolTable
 70
0
  0
ENDTAB
  0
TABLE
  2
APPID
  5
3
330
0
100
AcDbSymbolTable
 70
3
  0
APPID
  5
2A
330
3
100
AcDbSymbolTableRecord
100
AcDbRegAppTableRecord
  2
ACAD
 70
0
  0
APPID
  5
9C
330
3
100
AcDbSymbolTableRecord
100
AcDbRegAppTableRecord
  2
HATCHBACKGROUNDCOLOR
 70
0
  0
APPID
  5
9D
330
3
100
AcDbSymbolTableRecord
100
AcDbRegAppTableRecord
  2
EZDXF
 70
0
  0
ENDTAB
  0
TABLE
  2
DIMSTYLE
  5
4
330
0
100
AcDbSymbolTable
 70
1
100
AcDbDimStyleTable
  0
DIMSTYLE
105
2B
330
4
100
AcDbSymbolTableRecord
100
AcDbDimStyleTableRecord
  2
Standard
 70
0
 40
1.0
 41
2.5
 42
0.625
 43
3.75
 44
1.25
 45
0.0
 46
0.0
 47
0.0
 48
0.0
 49
2.5
140
2.5
141
2.5
142
0.0
143
0.03937007874
144
1.0
145
0.0
146
1.0
147
0.625
148
0.0
 69
0
 70
0
 71
0
 72
0
 73
0
 74
0
 75
0
 76
0
 77
1
 78
8
 79
3
170
0
171
3
172
1
173
0
174
0
175
0
176
0
177
0
178
0
179
2
271
2
272
2
273
2
274
3
275
0
276
0
277
2
278
44
279
0
280
0
281
0
282
0
283
0
284
8
285
0
286
0
288
0
289
3
290
0
371
-2
372
-2
  0
ENDTAB
  0
TABLE
  2
BLOCK_RECORD
  5
9
330
0
100
AcDbSymbolTable
 70
2
  0
BLOCK_RECORD
  5
17
330
9
100
AcDbSymbolTableRecord
100
AcDbBlockTableRecord
  2
*Model_Space
340
1A
 70
0
280
1
281
0
  0
BLOCK_RECORD
  5
1B
330
9
100
AcDbSymbolTableRecord
100
AcDbBlockTableRecord
  2
*Paper_Space
340
1E
 70
0
280
1
281
0
  0
ENDTAB
  0
ENDSEC
  0
SECTION
  2
BLOCKS
  0
BLOCK
  5
18
330
17
100
AcDbEntity
  8
0
100
AcDbBlockBegin
  2
*Model_Space
 70
0
 10
0.0
 20
0.0
 30
0.0
  3
*Model_Space
  1

  0
ENDBLK
  5
19
330
17
100
AcDbEntity
  8
0
100
AcDbBlockEnd
  0
BLOCK
  5
1C
330
1B
100
AcDbEntity
  8
0
100
AcDbBlockBegin
  2
*Paper_Space
 70
0
 10
0.0
 20
0.0
 30
0.0
  3
*Paper_Space
  1

  0
ENDBLK
  5
1D
330
1B
100
AcDbEntity
  8
0
100
AcDbBlockEnd
  0
ENDSEC
  0
SECTION
  2
ENTITIES
  0
LWPOLYLINE
  5
31
330
17
100
AcDbEntity
  8
GORUNEN
100
AcDbPolyline
 90
2
 70
0
 10
112.0
 20
0.0
 10
112.0
 20
24.0
  0
LWPOLYLINE
  5
32
330
17
100
AcDbEntity
  8
GORUNEN
100
AcDbPolyline
 90
2
 70
0
 10
40.0
 20
24.0
 10
112.0
 20
24.0
  0
LWPOLYLINE
  5
33
330
17
100
AcDbEntity
  8
GORUNEN
100
AcDbPolyline
 90
2
 70
0
 10
40.0
 20
14.0
 10
40.0
 20
24.0
  0
LWPOLYLINE
  5
34
330
17
100
AcDbEntity
  8
GORUNEN
100
AcDbPolyline
 90
2
 70
0
 10
0.0
 20
14.0
 10
40.0
 20
14.0
  0
LWPOLYLINE
  5
35
330
17
100
AcDbEntity
  8
GORUNEN
100
AcDbPolyline
 90
2
 70
0
 10
0.0
 20
0.0
 10
0.0
 20
14.0
  0
LWPOLYLINE
  5
36
330
17
100
AcDbEntity
  8
GORUNEN
100
AcDbPolyline
 90
2
 70
0
 10
0.0
 20
0.0
 10
112.0
 20
0.0
  0
LWPOLYLINE
  5
37
330
17
100
AcDbEntity
  8
GORUNEN
100
AcDbPolyline
 90
2
 70
0
 10
112.00000000000001
 20
0.0
 10
120.00000000000001
 20
0.0
  0
LWPOLYLINE
  5
38
330
17
100
AcDbEntity
  8
GORUNEN
100
AcDbPolyline
 90
2
 70
0
 10
120.0
 20
0.0
 10
120.0
 20
24.0
  0
LWPOLYLINE
  5
39
330
17
100
AcDbEntity
  8
GORUNEN
100
AcDbPolyline
 90
2
 70
0
 10
112.00000000000001
 20
24.000000000000004
 10
120.00000000000001
 20
24.000000000000004
  0
LWPOLYLINE
  5
3A
330
17
100
AcDbEntity
  8
GORUNEN
100
AcDbPolyline
 90
2
 70
0
 10
33.316624790355654
 20
24.0
 10
40.0
 20
24.0
  0
LWPOLYLINE
  5
3B
330
17
100
AcDbEntity
  8
GORUNEN
100
AcDbPolyline
 90
2
 70
0
 10
26.683375209644566
 20
24.0
 10
33.31662479035562
 20
24.0
  0
LWPOLYLINE
  5
3C
330
17
100
AcDbEntity
  8
GORUNEN
100
AcDbPolyline
 90
2
 70
0
 10
0.0
 20
24.0
 10
26.683375209644563
 20
24.0
  0
LWPOLYLINE
  5
3D
330
17
100
AcDbEntity
  8
GORUNEN
100
AcDbPolyline
 90
2
 70
0
 10
0.0
 20
14.0
 10
0.0
 20
24.0
  0
LWPOLYLINE
  5
3E
330
17
100
AcDbEntity
  8
GORUNEN
100
AcDbPolyline
 90
2
 70
0
 10
33.3166247903554
 20
24.0
 10
33.3166247903554
 20
14.0
  0
LWPOLYLINE
  5
3F
330
17
100
AcDbEntity
  8
GORUNEN
100
AcDbPolyline
 90
2
 70
0
 10
26.683375209644602
 20
24.0
 10
26.683375209644602
 20
14.0
  0
LWPOLYLINE
  5
40
330
17
100
AcDbEntity
  8
GORUNEN
100
AcDbPolyline
 90
2
 70
0
 10
112.0
 20
24.000000000000004
 10
120.0
 20
24.000000000000004
  0
LWPOLYLINE
  5
41
330
17
100
AcDbEntity
  8
GORUNEN
100
AcDbPolyline
 90
2
 70
0
 10
0.0
 20
24.0
 10
112.0
 20
24.0
  0
LWPOLYLINE
  5
42
330
17
100
AcDbEntity
  8
GORUNEN
100
AcDbPolyline
 90
2
 70
0
 10
84.0
 20
24.0
 10
96.0
 20
24.0
  0
LWPOLYLINE
  5
43
330
17
100
AcDbEntity
  8
GORUNEN
100
AcDbPolyline
 90
2
 70
0
 10
96.0
 20
24.0
 10
84.0
 20
24.0
  0
LWPOLYLINE
  5
44
330
17
100
AcDbEntity
  8
GORUNEN
100
AcDbPolyline
 90
2
 70
0
 10
40.0
 20
14.0
 10
40.0
 20
24.0
  0
LWPOLYLINE
  5
45
330
17
100
AcDbEntity
  8
GORUNEN
100
AcDbPolyline
 90
2
 70
0
 10
0.0
 20
14.0
 10
26.683375209644602
 20
14.0
  0
LWPOLYLINE
  5
46
330
17
100
AcDbEntity
  8
GORUNEN
100
AcDbPolyline
 90
2
 70
0
 10
24.0
 20
14.0
 10
26.683375209644602
 20
14.0
  0
LWPOLYLINE
  5
47
330
17
100
AcDbEntity
  8
GORUNEN
100
AcDbPolyline
 90
2
 70
0
 10
33.3166247903554
 20
14.0
 10
36.0
 20
14.0
  0
LWPOLYLINE
  5
48
330
17
100
AcDbEntity
  8
GORUNEN
100
AcDbPolyline
 90
2
 70
0
 10
36.0
 20
14.0
 10
24.0
 20
14.0
  0
LWPOLYLINE
  5
49
330
17
100
AcDbEntity
  8
GORUNEN
100
AcDbPolyline
 90
2
 70
0
 10
33.3166247903554
 20
14.0
 10
40.0
 20
14.0
  0
LWPOLYLINE
  5
4A
330
17
100
AcDbEntity
  8
GORUNEN
100
AcDbPolyline
 90
2
 70
0
 10
0.0
 20
0.0
 10
0.0
 20
24.0
  0
LWPOLYLINE
  5
4B
330
17
100
AcDbEntity
  8
GORUNEN
100
AcDbPolyline
 90
2
 70
0
 10
0.0
 20
0.0
 10
112.0
 20
0.0
  0
LWPOLYLINE
  5
4C
330
17
100
AcDbEntity
  8
GORUNEN
100
AcDbPolyline
 90
2
 70
0
 10
112.0
 20
0.0
 10
120.0
 20
0.0
  0
LWPOLYLINE
  5
4D
330
17
100
AcDbEntity
  8
GORUNEN
100
AcDbPolyline
 90
2
 70
0
 10
24.0
 20
0.0
 10
36.0
 20
0.0
  0
LWPOLYLINE
  5
4E
330
17
100
AcDbEntity
  8
GORUNEN
100
AcDbPolyline
 90
2
 70
0
 10
36.0
 20
0.0
 10
24.0
 20
0.0
  0
LWPOLYLINE
  5
4F
330
17
100
AcDbEntity
  8
GORUNEN
100
AcDbPolyline
 90
2
 70
0
 10
84.0
 20
0.0
 10
96.0
 20
0.0
  0
LWPOLYLINE
  5
50
330
17
100
AcDbEntity
  8
GORUNEN
100
AcDbPolyline
 90
2
 70
0
 10
96.0
 20
0.0
 10
84.0
 20
0.0
  0
LWPOLYLINE
  5
51
330
17
100
AcDbEntity
  8
GORUNEN
100
AcDbPolyline
 90
2
 70
0
 10
120.0
 20
0.0
 10
120.0
 20
24.0
  0
LWPOLYLINE
  5
52
330
17
100
AcDbEntity
  8
GORUNEN
100
AcDbPolyline
 90
2
 70
0
 10
112.0
 20
0.0
 10
112.0
 20
24.0
  0
LWPOLYLINE
  5
53
330
17
100
AcDbEntity
  8
GORUNEN
100
AcDbPolyline
 90
2
 70
0
 10
24.0
 20
14.0
 10
24.0
 20
0.0
  0
LWPOLYLINE
  5
54
330
17
100
AcDbEntity
  8
GORUNEN
100
AcDbPolyline
 90
2
 70
0
 10
84.0
 20
24.0
 10
84.0
 20
0.0
  0
LWPOLYLINE
  5
55
330
17
100
AcDbEntity
  8
GORUNEN
100
AcDbPolyline
 90
2
 70
0
 10
36.0
 20
14.0
 10
36.0
 20
0.0
  0
LWPOLYLINE
  5
56
330
17
100
AcDbEntity
  8
GORUNEN
100
AcDbPolyline
 90
2
 70
0
 10
96.0
 20
24.0
 10
96.0
 20
0.0
  0
TEXT
  5
57
330
17
100
AcDbEntity
  8
YAZI
100
AcDbText
 10
60.00000000000001
 20
-14.0
 30
0.0
 40
6.0
  1
ON
 11
60.00000000000001
 21
-14.0
 31
0.0
100
AcDbText
  0
LWPOLYLINE
  5
58
330
17
100
AcDbEntity
  8
GORUNEN
100
AcDbPolyline
 90
2
 70
0
 10
40.0
 20
84.0
 10
112.0
 20
84.0
  0
LWPOLYLINE
  5
59
330
17
100
AcDbEntity
  8
GORUNEN
100
AcDbPolyline
 90
2
 70
0
 10
0.0
 20
84.0
 10
40.0
 20
84.0
  0
LWPOLYLINE
  5
5A
330
17
100
AcDbEntity
  8
GORUNEN
100
AcDbPolyline
 90
2
 70
0
 10
112.00000000000001
 20
84.0
 10
120.00000000000001
 20
92.0
  0
LWPOLYLINE
  5
5B
330
17
100
AcDbEntity
  8
GORUNEN
100
AcDbPolyline
 90
2
 70
0
 10
112.0
 20
164.0
 10
120.0
 20
156.0
  0
LWPOLYLINE
  5
5C
330
17
100
AcDbEntity
  8
GORUNEN
100
AcDbPolyline
 90
2
 70
0
 10
120.0
 20
92.0
 10
120.0
 20
156.0
  0
LWPOLYLINE
  5
5D
330
17
100
AcDbEntity
  8
GORUNEN
100
AcDbPolyline
 90
2
 70
0
 10
40.0
 20
84.0
 10
40.0
 20
114.0
  0
LWPOLYLINE
  5
5E
330
17
100
AcDbEntity
  8
GORUNEN
100
AcDbPolyline
 90
2
 70
0
 10
33.316624790355654
 20
114.0
 10
40.0
 20
114.0
  0
LWPOLYLINE
  5
5F
330
17
100
AcDbEntity
  8
GORUNEN
100
AcDbPolyline
 90
60
 70
0
 10
26.683375209644566
 20
113.99999999999997
 10
26.783291062118927
 20
114.06485770865837
 10
26.88447480722242
 20
114.12771906145103
 10
26.986886562538867
 20
114.18855928105202
 10
27.09048596162162
 20
114.2473543867819
 10
27.195232169904358
 20
114.30408120405981
 10
27.30108390079635
 20
114.35871737353813
 10
27.407999431955915
 20
114.41124135991541
 10
27.515936621735648
 20
114.4616324604248
 10
27.624852925792865
 20
114.5098708129942
 10
27.73470541385885
 20
114.555937404075
 10
27.84545078666015
 20
114.59981407613651
 10
27.95704539298536
 20
114.64148353482288
 10
28.069445246890602
 20
114.68092935576976
 10
28.182606045036955
 20
114.71813599107819
 10
28.296483184152983
 20
114.75308877544285
 10
28.411031778615495
 20
114.78577393193254
 10
28.526206678141577
 20
114.81617857742053
 10
28.641962485584955
 20
114.84429072766247
 10
28.758253574829663
 20
114.8700993020201
 10
28.875034108773946
 20
114.89359412782879
 10
28.99225805739735
 20
114.91476594440722
 10
29.109879215903828
 20
114.93360640670747
 10
29.227851222933747
 20
114.95010808860437
 10
29.346127578837606
 20
114.96426448582247
 10
29.46466166400426
 20
114.9760700184999
 10
29.583406757236432
 20
114.98552003338756
 10
29.702316054166243
 20
114.99261080568334
 10
29.821342685703577
 20
114.9973395405003
 10
29.940439736509894
 20
114.99970437396819
 10
30.059560263490315
 20
114.99970437396819
 10
30.178657314296633
 20
114.99733954050029
 10
30.297683945833967
 20
114.99261080568334
 10
30.41659324276378
 20
114.98552003338753
 10
30.53533833599595
 20
114.97607001849988
 10
30.653872421162603
 20
114.96426448582245
 10
30.772148777066462
 20
114.95010808860434
 10
30.89012078409638
 20
114.93360640670744
 10
31.007741942602856
 20
114.91476594440718
 10
31.12496589122626
 20
114.89359412782875
 10
31.241746425170543
 20
114.87009930202004
 10
31.35803751441525
 20
114.84429072766241
 10
31.473793321858626
 20
114.81617857742049
 10
31.588968221384707
 20
114.78577393193248
 10
31.70351681584722
 20
114.75308877544279
 10
31.817393954963247
 20
114.71813599107813
 10
31.930554753109597
 20
114.6809293557697
 10
32.042954607014835
 20
114.64148353482281
 10
32.15454921334005
 20
114.59981407613644
 10
32.265294586141344
 20
114.55593740407491
 10
32.37514707420733
 20
114.50987081299411
 10
32.484063378264544
 20
114.46163246042471
 10
32.59200056804428
 20
114.41124135991532
 10
32.69891609920384
 20
114.35871737353803
 10
32.804767830095834
 20
114.30408120405971
 10
32.90951403837857
 20
114.24735438678178
 10
33.01311343746132
 20
114.18855928105192
 10
33.11552519277777
 20
114.12771906145092
 10
33.21670893788126
 20
114.06485770865825
 10
33.31662479035562
 20
113.99999999999986
  0
LWPOLYLINE
  5
60
330
17
100
AcDbEntity
  8
GORUNEN
100
AcDbPolyline
 90
2
 70
0
 10
0.0
 20
114.0
 10
26.683375209644563
 20
114.0
  0
LWPOLYLINE
  5
61
330
17
100
AcDbEntity
  8
GORUNEN
100
AcDbPolyline
 90
2
 70
0
 10
0.0
 20
114.0
 10
0.0
 20
164.0
  0
LWPOLYLINE
  5
62
330
17
100
AcDbEntity
  8
GORUNEN
100
AcDbPolyline
 90
2
 70
0
 10
0.0
 20
164.0
 10
112.0
 20
164.0
  0
LWPOLYLINE
  5
63
330
17
100
AcDbEntity
  8
GORUNEN
100
AcDbPolyline
 90
316
 70
0
 10
84.0
 20
139.0
 10
84.00119356337686
 20
139.1196717841798
 10
84.00477377864293
 20
139.23929595640664
 10
84.01073922139359
 20
139.3588249236702
 10
84.01908751825086
 20
139.4782111308379
 10
84.02981534780758
 20
139.5974070795749
 10
84.04291844194897
 20
139.71636534724146
 10
84.05839158755057
 20
139.8350386057604
 10
84.07622862855243
 20
139.95337964044663
 10
84.09642246840822
 20
140.07134136879182
 10
84.11896507290874
 20
140.1888768591964
 10
84.14384747337826
 20
140.30593934964136
 10
84.17105977024279
 20
140.422482266293
 10
84.20059113696871
 20
140.53845924203216
 10
84.23242982437009
 20
140.65382413490198
 10
84.26656316528316
 20
140.76853104646543
 10
84.30297757960604
 20
140.88253434006623
 10
84.34165857970163
 20
140.9957886589857
 10
84.38259077616158
 20
141.10824894448805
 10
84.42575788392898
 20
141.21987045374726
 10
84.47114272877755
 20
141.33060877764817
 10
84.5187272541444
 20
141.4404198584548
 10
84.56849252831391
 20
141.54926000733903
 10
84.62041875194987
 20
141.6570859217623
 10
84.67448526597268
 20
141.76385470270378
 10
84.73067055977863
 20
141.8695238717279
 10
84.78895227979807
 20
141.97405138788457
 10
84.8493072383888
 20
142.07739566443544
 10
84.91171142306145
 20
142.17951558539923
 10
84.97614000603286
 20
142.28037052191007
 10
85.04256735410404
 20
142.37992034838175
 10
85.11096703885833
 20
142.47812545847188
 10
85.18131184717619
 20
142.5749467808396
 10
85.25357379206196
 20
142.67034579469004
 10
85.32772412377864
 20
142.76428454510017
 10
85.40373334128613
 20
142.85672565811925
 10
85.48157120397833
 20
142.9476323556383
 10
85.5612067437145
 20
143.03696847002232
 10
85.64260827714004
 20
143.1246984584999
 10
85.72574341829193
 20
143.21078741730395
 10
85.81057909148356
 20
143.2952010955583
 10
85.89708154446409
 20
143.37790590890472
 10
85.98521636184685
 20
143.45886895286435
 10
86.0749484788018
 20
143.53805801592924
 10
86.16624219500606
 20
143.6154415923775
 10
86.2590611888476
 20
143.69098889480819
 10
86.35336853187582
 20
143.76466986639016
 10
86.44912670349379
 20
143.83645519282038
 10
86.54629760588597
 20
143.9063163139866
 10
86.64484257917552
 20
143.97422543533025
 10
86.74472241680544
 20
144.04015553890463
 10
86.84589738113698
 20
144.10408039412403
 10
86.94832721925941
 20
144.16597456819977
 10
87.05197117900494
 20
144.22581343625876
 10
87.15678802516202
 20
144.28357319114042
 10
87.26273605588102
 20
144.3392308528688
 10
87.36977311926553
 20
144.392764277795
 10
87.47785663014261
 20
144.4441521674072
 10
87.58694358700549
 20
144.49337407680434
 10
87.696990589122
 20
144.54041042283035
 10
87.80795385380162
 20
144.58524249186522
 10
87.91978923381475
 20
144.62785244727036
 10
88.03245223495676
 20
144.66822333648503
 10
88.14589803375031
 20
144.70633909777092
 10
88.26008149527848
 20
144.74218456660248
 10
88.37495719114196
 20
144.77574548170008
 10
88.49047941753294
 20
144.807008490704
 10
88.60660221341854
 20
144.83596115548673
 10
88.72327937882662
 20
144.86259195710147
 10
88.84046449322668
 20
144.88689030036502
 10
88.95811093399841
 20
144.90884651807323
 10
89.07617189498079
 20
144.92845187484698
 10
89.19460040509406
 20
144.9456985706076
 10
89.3133493470274
 20
144.96057974368034
 10
89.43237147598477
 20
144.97308947352408
 10
89.55161943848144
 20
144.9832227830871
 10
89.67104579118383
 20
144.9909756407869
 10
89.79060301978498
 20
144.99634496211456
 10
89.9102435579084
 20
144.99932861086165
 10
90.02991980603254
 20
144.99992539997015
 10
90.14958415042842
 20
144.9981350920049
 10
90.26918898210307
 20
144.9939583992479
 10
90.38868671574089
 20
144.98739698341495
 10
90.50802980863573
 20
144.97845345499465
 10
90.6271707796059
 20
144.96713137220965
 10
90.74606222788489
 20
144.95343523960105
 10
90.86465685197986
 20
144.93737050623628
 10
90.98290746849081
 20
144.91894356354112
 10
91.10076703088268
 20
144.89816174275694
 10
91.21818864820304
 20
144.8750333120238
 10
91.33512560373786
 20
144.84956747309093
 10
91.45153137359799
 20
144.82177435765598
 10
91.5673596452288
 20
144.7916650233338
 10
91.68256433583599
 20
144.75925144925733
 10
91.7970996107197
 20
144.72454653131155
 10
91.91091990151008
 20
144.6875640770028
 10
92.02397992429695
 20
144.6483187999654
 10
92.13623469764612
 20
144.6068263141079
 10
92.24763956049544
 20
144.56310312740072
 10
92.35815018992352
 20
144.5171666353087
 10
92.46772261878364
 20
144.46903511387006
 10
92.57631325319643
 20
144.41872771242515
 10
92.68387888989378
 20
144.36626444599804
 10
92.79037673340748
 20
144.31166618733315
 10
92.89576441309563
 20
144.25495465859115
 10
92.99999999999997
 20
144.19615242270663
 10
93.10304202352745
 20
144.13528287441136
 10
93.20484948794955
 20
144.0723702309265
 10
93.30538188871259
 20
144.00743952232784
 10
93.40459922855267
 20
143.94051658158725
 10
93.50246203340872
 20
143.87162803429516
 10
93.59893136812745
 20
143.80080128806725
 10
93.69396885195393
 20
143.72806452164036
 10
93.78753667380141
 20
143.65344667366128
 10
93.87959760729477
 20
143.57697743117362
 10
93.97011502558114
 20
143.49868721780643
 10
94.059052915902
 20
143.4186071816702
 10
94.14637589392116
 20
143.33676918296436
 10
94.23204921780243
 20
143.25320578130166
 10
94.31603880203188
 20
143.167950222754
 10
94.39831123097893
 20
143.08103642662553
 10
94.47883377219088
 20
142.9924989719576
 10
94.55757438941565
 20
142.9023730837713
 10
94.63450175534757
 20
142.8106946190531
 10
94.70958526409112
 20
142.71750005248902
 10
94.78279504333752
 20
142.6228264619529
 10
94.85410196624966
 20
142.52671151375486
 10
94.92347766305032
 20
142.42919344765565
 10
94.99089453230918
 20
142.33031106165268
 10
95.0563257519242
 20
142.23010369654412
 10
95.11974528979292
 20
142.12861122027704
 10
95.18112791416937
 20
142.0258740120856
 10
95.24044920370275
 20
141.92193294642624
 10
95.29768555715354
 20
141.8168293767154
 10
95.35281420278328
 20
141.71060511887688
 10
95.4058132074145
 20
141.6033024347054
 10
95.45666148515687
 20
141.49496401505223
 10
95.50533880579638
 20
141.38563296284076
 10
95.55182580284396
 20
141.2753527759176
 10
95.59610398124055
 20
141.16416732974687
 10
95.63815572471543
 20
141.05212085995407
 10
95.67796430279498
 20
140.93925794472682
 10
95.71551387745886
 20
140.82562348707918
 10
95.7507895094414
 20
140.71126269698686
 10
95.7837771641751
 20
140.5962210734001
 10
95.81446371737445
 20
140.48054438614182
 10
95.84283696025743
 20
140.3642786576978
 10
95.86888560440282
 20
140.2474701449066
 10
95.89259928624142
 20
140.13016532055582
 10
95.91396857117917
 20
140.01241085489292
 10
95.93298495735077
 20
139.89425359705712
 10
95.94964087900217
 20
139.77574055644027
 10
95.9639297095007
 20
139.65691888398405
 10
95.97584576397144
 20
139.53783585342066
 10
95.98538430155894
 20
139.4185388424648
 10
95.99254152731353
 20
139.29907531396424
 10
95.99731459370102
 20
139.17949279701645
 10
95.99970160173565
 20
139.05983886805902
 10
95.99970160173567
 20
138.9401611319411
 10
95.99731459370102
 20
138.82050720298366
 10
95.99254152731353
 20
138.70092468603588
 10
95.98538430155895
 20
138.5814611575353
 10
95.97584576397144
 20
138.46216414657945
 10
95.96392970950072
 20
138.3430811160161
 10
95.94964087900219
 20
138.22425944355987
 10
95.93298495735078
 20
138.10574640294303
 10
95.91396857117918
 20
137.9875891451072
 10
95.89259928624145
 20
137.8698346794443
 10
95.86888560440285
 20
137.7525298550935
 10
95.84283696025746
 20
137.6357213423023
 10
95.81446371737448
 20
137.5194556138583
 10
95.78377716417513
 20
137.4037789266
 10
95.75078950944143
 20
137.28873730301325
 10
95.7155138774589
 20
137.17437651292093
 10
95.677964302795
 20
137.0607420552733
 10
95.63815572471547
 20
136.94787914004604
 10
95.59610398124059
 20
136.83583267025324
 10
95.55182580284401
 20
136.7246472240825
 10
95.50533880579643
 20
136.61436703715933
 10
95.45666148515693
 20
136.50503598494788
 10
95.40581320741455
 20
136.39669756529472
 10
95.35281420278334
 20
136.2893948811232
 10
95.2976855571536
 20
136.18317062328472
 10
95.24044920370281
 20
136.07806705357388
 10
95.18112791416942
 20
135.9741259879145
 10
95.11974528979297
 20
135.87138877972308
 10
95.05632575192428
 20
135.76989630345597
 10
94.99089453230926
 20
135.6696889383474
 10
94.92347766305039
 20
135.57080655234444
 10
94.85410196624973
 20
135.47328848624522
 10
94.78279504333759
 20
135.3771735380472
 10
94.70958526409119
 20
135.28249994751107
 10
94.63450175534764
 20
135.189305380947
 10
94.55757438941572
 20
135.09762691622882
 10
94.47883377219095
 20
135.0075010280425
 10
94.39831123097902
 20
134.91896357337453
 10
94.31603880203197
 20
134.83204977724608
 10
94.23204921780251
 20
134.74679421869843
 10
94.14637589392125
 20
134.6632308170357
 10
94.0590529159021
 20
134.5813928183299
 10
93.97011502558122
 20
134.50131278219365
 10
93.87959760729485
 20
134.42302256882647
 10
93.7875366738015
 20
134.34655332633878
 10
93.69396885195401
 20
134.27193547835972
 10
93.59893136812755
 20
134.1991987119328
 10
93.5024620334088
 20
134.1283719657049
 10
93.40459922855275
 20
134.0594834184128
 10
93.30538188871269
 20
133.9925604776722
 10
93.20484948794964
 20
133.92762976907355
 10
93.10304202352755
 20
133.8647171255887
 10
93.00000000000007
 20
133.80384757729342
 10
92.89576441309575
 20
133.7450453414089
 10
92.79037673340758
 20
133.6883338126669
 10
92.68387888989388
 20
133.63373555400202
 10
92.57631325319653
 20
133.5812722875749
 10
92.46772261878375
 20
133.53096488613
 10
92.35815018992362
 20
133.48283336469132
 10
92.24763956049556
 20
133.4368968725993
 10
92.13623469764623
 20
133.39317368589212
 10
92.02397992429707
 20
133.35168120003462
 10
91.9109199015102
 20
133.31243592299722
 10
91.79709961071981
 20
133.27545346868848
 10
91.6825643358361
 20
133.2407485507427
 10
91.56735964522892
 20
133.2083349766662
 10
91.4515313735981
 20
133.17822564234405
 10
91.33512560373798
 20
133.15043252690907
 10
91.21818864820315
 20
133.12496668797624
 10
91.10076703088279
 20
133.10183825724306
 10
90.98290746849092
 20
133.08105643645888
 10
90.86465685197997
 20
133.06262949376375
 10
90.746062227885
 20
133.04656476039898
 10
90.62717077960602
 20
133.03286862779038
 10
90.50802980863584
 20
133.02154654500535
 10
90.38868671574102
 20
133.01260301658505
 10
90.26918898210319
 20
133.0060416007521
 10
90.14958415042854
 20
133.0018649079951
 10
90.02991980603265
 20
133.00007460002985
 10
89.91024355790853
 20
133.00067138913835
 10
89.7906030197851
 20
133.00365503788544
 10
89.67104579118394
 20
133.00902435921307
 10
89.55161943848157
 20
133.0167772169129
 10
89.43237147598488
 20
133.0269105264759
 10
89.31334934702751
 20
133.03942025631966
 10
89.19460040509418
 20
133.05430142939238
 10
89.0761718949809
 20
133.07154812515302
 10
88.95811093399853
 20
133.09115348192674
 10
88.84046449322679
 20
133.11310969963495
 10
88.72327937882673
 20
133.13740804289853
 10
88.60660221341865
 20
133.16403884451324
 10
88.49047941753305
 20
133.19299150929598
 10
88.37495719114207
 20
133.22425451829992
 10
88.2600814952786
 20
133.2578154333975
 10
88.14589803375043
 20
133.29366090222905
 10
88.03245223495688
 20
133.33177666351494
 10
87.91978923381487
 20
133.3721475527296
 10
87.80795385380173
 20
133.41475750813473
 10
87.69699058912211
 20
133.4595895771696
 10
87.5869435870056
 20
133.5066259231956
 10
87.47785663014271
 20
133.55584783259275
 10
87.36977311926564
 20
133.60723572220496
 10
87.26273605588112
 20
133.66076914713113
 10
87.15678802516211
 20
133.71642680885952
 10
87.05197117900504
 20
133.77418656374118
 10
86.94832721925951
 20
133.83402543180014
 10
86.84589738113708
 20
133.89591960587592
 10
86.74472241680554
 20
133.95984446109532
 10
86.64484257917562
 20
134.0257745646697
 10
86.54629760588605
 20
134.09368368601335
 10
86.44912670349389
 20
134.16354480717956
 10
86.35336853187592
 20
134.23533013360975
 10
86.2590611888477
 20
134.30901110519176
 10
86.16624219500616
 20
134.38455840762242
 10
86.07494847880189
 20
134.46194198407068
 10
85.98521636184694
 20
134.54113104713554
 10
85.89708154446417
 20
134.62209409109522
 10
85.81057909148365
 20
134.7047989044416
 10
85.72574341829203
 20
134.78921258269597
 10
85.64260827714013
 20
134.8753015415
 10
85.56120674371458
 20
134.96303152997757
 10
85.48157120397842
 20
135.05236764436162
 10
85.40373334128621
 20
135.14327434188067
 10
85.32772412377872
 20
135.23571545489975
 10
85.25357379206203
 20
135.32965420530985
 10
85.18131184717626
 20
135.4250532191603
 10
85.1109670388584
 20
135.521874541528
 10
85.04256735410411
 20
135.62007965161814
 10
84.97614000603294
 20
135.71962947808981
 10
84.91171142306152
 20
135.82048441460066
 10
84.84930723838887
 20
135.92260433556444
 10
84.78895227979814
 20
136.02594861211531
 10
84.7306705597787
 20
136.13047612827197
 10
84.67448526597273
 20
136.23614529729608
 10
84.62041875194994
 20
136.34291407823758
 10
84.56849252831397
 20
136.45073999266083
 10
84.51872725414445
 20
136.55958014154507
 10
84.47114272877761
 20
136.6693912223517
 10
84.42575788392904
 20
136.7801295462526
 10
84.38259077616162
 20
136.8917510555118
 10
84.34165857970169
 20
137.00421134101418
 10
84.30297757960608
 20
137.11746565993366
 10
84.2665631652832
 20
137.23146895353443
 10
84.23242982437013
 20
137.34617586509788
 10
84.20059113696875
 20
137.4615407579677
 10
84.17105977024283
 20
137.57751773370688
 10
84.14384747337829
 20
137.6940606503585
 10
84.11896507290876
 20
137.8111231408035
 10
84.09642246840825
 20
137.92865863120804
 10
84.07622862855244
 20
138.04662035955323
 10
84.0583915875506
 20
138.16496139423947
 10
84.042918441949
 20
138.2836346527584
 10
84.02981534780761
 20
138.40259292042495
 10
84.01908751825087
 20
138.52178886916192
 10
84.01073922139359
 20
138.64117507632966
 10
84.00477377864293
 20
138.76070404359322
 10
84.00119356337686
 20
138.88032821582007
 10
84.0
 20
139.0
  0
LWPOLYLINE
  5
64
330
17
100
AcDbEntity
  8
GORUNEN
100
AcDbPolyline
 90
51
 70
0
 10
24.0
 20
109.0
 10
24.00116449423662
 20
109.11820564619605
 10
24.004657524930874
 20
109.2363654091275
 10
24.010477736211392
 20
109.35443342334008
 10
24.018622868877337
 20
109.47236385899308
 10
24.02908976127537
 20
109.59011093964895
 10
24.041874350526857
 20
109.70762896004209
 10
24.05697167410497
 20
109.82487230382
 10
24.074375871760942
 20
109.94179546125001
 10
24.094080187798824
 20
110.05835304688446
 10
24.116076973697787
 20
110.17449981717776
 10
24.140357691081032
 20
110.2901906880484
 10
24.16691291503008
 20
110.4053807523789
 10
24.195732337743173
 20
110.52002529744729
 10
24.22680477253644
 20
110.63407982228286
 10
24.260118158186128
 20
110.74750005494002
 10
24.295659563610375
 20
110.86024196968305
 10
24.333415192888587
 20
110.97226180407525
 10
24.373370390616536
 20
111.08351607596613
 10
24.415509647595062
 20
111.19396160036956
 10
24.459816606850197
 20
111.30355550622666
 10
24.506274069982386
 20
111.41225525304685
 10
24.554864003842265
 20
111.52001864742056
 10
24.605567547530526
 20
111.62680385939723
 10
24.658365019719035
 20
111.73256943872224
 10
24.71323592629043
 20
111.83727433092639
 10
24.77015896829323
 20
111.94087789326186
 10
24.82911205020932
 20
112.04333991047821
 10
24.890072288530657
 20
112.14462061043264
 10
24.953016020641847
 20
112.24468067952797
 10
25.017918814005128
 20
112.343481277973
 10
25.084755475644236
 20
112.44098405485853
 10
25.153500061923406
 20
112.537151163044
 10
25.224125888617802
 20
112.63194527384834
 10
25.296605541271376
 20
112.72532959153963
 10
25.370910885838192
 20
112.81726786761797
 10
25.447013079603096
 20
112.90772441488582
 10
25.524882582377405
 20
112.99666412130051
 10
25.604489167965383
 20
113.08405246360357
 10
25.685801935897
 20
113.16985552072131
 10
25.768789323422382
 20
113.2540399869319
 10
25.853419117763366
 20
113.33657318479345
 10
25.93965846861736
 20
113.41742307782822
 10
26.027473900908696
 20
113.49655828295802
 10
26.116831327782435
 20
113.57394808268612
 10
26.207696063835712
 20
113.64956243702059
 10
26.300032838581387
 20
113.72337199513481
 10
26.39380581013878
 20
113.79534810676046
 10
26.48897857914625
 20
113.86546283330847
 10
26.58551420289013
 20
113.93368895871384
 10
26.683375209644602
 20
114.0
  0
LWPOLYLINE
  5
65
330
17
100
AcDbEntity
  8
GORUNEN
100
AcDbPolyline
 90
208
 70
0
 10
33.3166247903554
 20
114.0
 10
33.41563796569644
 20
113.93289137193321
 10
33.513293692803096
 20
113.86382230638722
 10
33.60955316118207
 20
113.79282025289918
 10
33.70437811524343
 20
113.71991342921727
 10
33.797730869504186
 20
113.64513081008651
 10
33.889574323565306
 20
113.56850211573351
 10
33.97987197685624
 20
113.49005780005497
 10
34.06858794314101
 20
113.40982903851472
 10
34.1556869647802
 20
113.32784771575386
 10
34.24113442674309
 20
113.24414641291916
 10
34.324896370364385
 20
113.15875839471458
 10
34.40693950684018
 20
113.07171759618114
 10
34.487231230457624
 20
112.98305860921049
 10
34.5657396315531
 20
112.8928166687972
 10
34.64243350919388
 20
112.80102763903577
 10
34.71728238357798
 20
112.70772799886734
 10
34.79025650814754
 20
112.61295482758229
 10
34.86132688141075
 20
112.51674579008396
 10
34.930465258467606
 20
112.41913912192001
 10
34.99764416223513
 20
112.32017361408664
 10
35.062836894367294
 20
112.21988859761225
 10
35.12601754586553
 20
112.11832392792647
 10
35.18716100737555
 20
112.01551996902072
 10
35.246242979166325
 20
111.91151757740668
 10
35.30323998078731
 20
111.8063580858791
 10
35.35812936040013
 20
111.70008328708914
 10
35.410889303780834
 20
111.5927354169352
 10
35.46149884298942
 20
111.48435713777735
 10
35.509937864702884
 20
111.37499152148243
 10
35.556187118208726
 20
111.26468203230641
 10
35.600228223055566
 20
111.15347250962066
 10
35.642043676357986
 20
111.0414071504893
 10
35.68161685975248
 20
110.92853049210437
 10
35.718932046002024
 20
110.81488739408567
 10
35.75397440524635
 20
110.70052302065271
 10
35.78673001089573
 20
110.58548282267537
 10
35.817185845165625
 20
110.4698125196108
 10
35.845329804250284
 20
110.35355808133353
 10
35.87115070313305
 20
110.236765709866
 10
35.894638280031494
 20
110.11948182101692
 10
35.91578320047573
 20
110.00175302593462
 10
35.934577061018075
 20
109.88362611258276
 10
35.95101239257279
 20
109.76514802714578
 10
35.96508266338446
 20
109.64636585537153
 10
35.976782281623834
 20
109.52732680385826
 10
35.98610659761016
 20
109.40807818129385
 10
35.99305190565905
 20
109.28866737965417
 10
35.99761544555521
 20
109.1691418553686
 10
35.999795403649415
 20
109.04954911045976
 10
35.99959091357927
 20
108.9299366736652
 10
35.99700205661354
 20
108.81035208154842
 10
35.99202986161985
 20
108.69084285960689
 10
35.984676304655785
 20
108.57145650338433
 10
35.974944308183574
 20
108.45224045959496
 10
35.962837739908615
 20
108.33324210726718
 10
35.9483614112424
 20
108.21450873891409
 10
35.93152107539032
 20
108.09608754173844
 10
35.91232342506525
 20
107.97802557887944
 10
35.890776089827696
 20
107.86036977070881
 10
35.866887633053665
 20
107.74316687618364
 10
35.84066754853136
 20
107.62646347426336
 10
35.81212625668819
 20
107.51030594539826
 10
35.78127510044942
 20
107.3947404530969
 10
35.748126340730295
 20
107.27981292557973
 10
35.71269315156325
 20
107.16556903752627
 10
35.67498961486228
 20
107.05205419192286
 10
35.63503071482648
 20
106.93931350201876
 10
35.59283233198501
 20
106.82739177339698
 10
35.54841123688582
 20
106.71633348616766
 10
35.50178508343067
 20
106.60618277729067
 10
35.4529724018591
 20
106.49698342303472
 10
35.401992591384115
 20
106.38877882157962
 10
35.348865912482495
 20
106.28161197576895
 10
35.29361347884287
 20
106.17552547601981
 10
35.236257248974674
 20
106.07056148339649
 10
35.176820017481354
 20
105.96676171285466
 10
35.115325406001325
 20
105.8641674166631
 10
35.05179785382019
 20
105.76281936800899
 10
34.98626260815806
 20
105.66275784479387
 10
34.91874571413576
 20
105.56402261362635
 10
34.84927400442394
 20
105.4666529140179
 10
34.77787508857918
 20
105.37068744278831
 10
34.704577342071374
 20
105.27616433868671
 10
34.6294098950067
 20
105.1831211672344
 10
34.552402620550666
 20
105.09159490579553
 10
34.4735861230559
 20
105.00162192888146
 10
34.39299172589931
 20
104.91323799369474
 10
34.31065145903349
 20
104.82647822591849
 10
34.22659804625732
 20
104.74137710575663
 10
34.140864892210864
 20
104.65796845423073
 10
34.05348606909958
 20
104.57628541973878
 10
33.964496303153346
 20
104.49636046488138
 10
33.87393096082548
 20
104.41822535356029
 10
33.78182603473735
 20
104.34191113835483
 10
33.68821812937414
 20
104.26744814818096
 10
33.59314444653742
 20
104.19486597623779
 10
33.496642770560385
 20
104.12419346824673
 10
33.398751453291474
 20
104.05545871098752
 10
33.2995093988526
 20
103.98868902113595
 10
33.19895604817777
 20
103.92391093440759
 10
33.0971313633384
 20
103.86115019501196
 10
32.99407581166154
 20
103.80043174542124
 10
32.88983034964728
 20
103.74177971645753
 10
32.78443640669178
 20
103.68521741770283
 10
32.67793586862228
 20
103.63076732823524
 10
32.5703710610508
 20
103.57845108769527
 10
32.46178473255304
 20
103.5282894876859
 10
32.35222003767916
 20
103.48030246350937
 10
32.24172051980322
 20
103.43450908624467
 10
32.13033009381812
 20
103.39092755516806
 10
32.018093028682856
 20
103.34957519052048
 10
31.90505392982911
 20
103.31046842662397
 10
31.79125772143406
 20
103.27362280535041
 10
31.67674962856656
 20
103.2390529699448
 10
31.56157515921371
 20
103.2067726592057
 10
31.445780086195004
 20
103.17679470202518
 10
31.329410428971233
 20
103.14913101229035
 10
31.212512435355336
 20
103.12379258414846
 10
31.09513256313255
 20
103.10078948763763
 10
30.977317461597067
 20
103.0801308646848
 10
30.85911395301259
 20
103.06182492547255
 10
30.74056901400417
 20
103.04587894517613
 10
30.621729756888676
 20
103.03229926107223
 10
30.50264341095135
 20
103.02109127002032
 10
30.383357303675858
 20
103.01225942631794
 10
30.263918841935332
 20
103.00580723993033
 10
30.144375493151855
 20
103.00173727509564
 10
30.02477476643189
 20
103.00005114930568
 10
29.90516419368512
 20
103.00074953266322
 10
29.78559131073427
 20
103.00383214761567
 10
29.6661036384233
 20
103.00929776906531
 10
29.54674866373165
 20
103.01714422485625
 10
29.427573820901845
 20
103.02736839663763
 10
29.308626472588127
 20
103.03996622110293
 10
29.189953891033507
 20
103.05493269160489
 10
29.07160323928276
 20
103.07226186014516
 10
28.953621552438804
 20
103.0919468397382
 10
28.836055718969945
 20
103.11397980714835
 10
28.718952462075386
 20
103.13835200599888
 10
28.602358321116412
 20
103.16505375025207
 10
28.486319633120647
 20
103.19407442805851
 10
28.370882514366734
 20
103.22540250597464
 10
28.256092842056706
 20
103.25902553354624
 10
28.141996236083408
 20
103.29493014825657
 10
28.028638040900177
 20
103.333102080837
 10
27.916063307499954
 20
103.37352616093774
 10
27.80431677551107
 20
103.41618632315709
 10
27.69344285541674
 20
103.461065613426
 10
27.583485610905388
 20
103.50814619574604
 10
27.474488741358773
 20
103.55740935927784
 10
27.366495564484914
 20
103.60883552577717
 10
27.25954899910272
 20
103.6624042573757
 10
27.153691548085092
 20
103.71809426470352
 10
27.048965281467385
 20
103.77588341535
 10
26.94541181972787
 20
103.8357487426596
 10
26.843072317246843
 20
103.89766645485943
 10
26.741987445950993
 20
103.96161194451449
 10
26.642197379149515
 20
104.02755979830732
 10
26.54374177556834
 20
104.0954838071377
 10
26.446659763588933
 20
104.16535697653879
 10
26.350989925697803
 20
104.23715153740525
 10
26.256770283153013
 20
104.31083895702935
 10
26.1640382808737
 20
104.38638995044037
 10
26.07283077255865
 20
104.46377449204323
 10
25.983184006039856
 20
104.54296182755118
 10
25.89513360887684
 20
104.62392048620829
 10
25.808714574197495
 20
104.70661829329659
 10
25.723961246791056
 20
104.79102238292299
 10
25.64090730945875
 20
104.87709921108089
 10
25.55958576962751
 20
104.96481456898131
 10
25.480028946232117
 20
105.0541335966482
 10
25.40226845687097
 20
105.14502079677253
 10
25.32633520524055
 20
105.23744004881968
 10
25.252259368853633
 20
105.33135462338456
 10
25.1800703870461
 20
105.42672719678862
 10
25.109796949277104
 20
105.52351986591316
 10
25.041466983727258
 20
105.62169416326273
 10
24.975107646199383
 20
105.72121107225303
 10
24.910745309326195
 20
105.82203104271696
 10
24.84840555208926
 20
105.9241140066226
 10
24.788113149653338
 20
106.02741939399726
 10
24.72989206352023
 20
106.13190614905074
 10
24.673765432005926
 20
106.23753274649184
 10
24.61975556104496
 20
106.34425720803137
 10
24.567883915325545
 20
106.4520371190653
 10
24.518171109759038
 20
106.56082964553119
 10
24.470636901287133
 20
106.67059155093135
 10
24.425300181030032
 20
106.781279213516
 10
24.382178966778696
 20
106.89284864361946
 10
24.34129039583419
 20
107.00525550114267
 10
24.30265071819695
 20
107.11845511317475
 10
24.266275290108684
 20
107.23240249174714
 10
24.232178567949468
 20
107.34705235171269
 10
24.20037410249247
 20
107.462359128743
 10
24.170874533518578
 20
107.57827699743665
 10
24.14369158479308
 20
107.6947598895312
 10
24.118836059406384
 20
107.81176151221172
 10
24.096317835480647
 20
107.92923536650855
 10
24.076145862243976
 20
108.04713476577702
 10
24.058328156473834
 20
108.16541285425164
 10
24.04287179931099
 20
108.28402262566775
 10
24.02978293344531
 20
108.40291694194264
 10
24.019066760674544
 20
108.52204855190938
 10
24.010727539836992
 20
108.64137011009544
 10
24.004768585118974
 20
108.76083419553868
 10
24.001192264737675
 20
108.88039333063364
 10
24.0
 20
109.0
  0
LWPOLYLINE
  5
66
330
17
100
AcDbEntity
  8
GORUNEN
100
AcDbPolyline
 90
2
 70
0
 10
0.0
 20
84.0
 10
0.0
 20
114.0
  0
LWPOLYLINE
  5
67
330
17
100
AcDbEntity
  8
GORUNEN
100
AcDbPolyline
 90
2
 70
0
 10
0.0
 20
84.0
 10
112.0
 20
84.0
  0
LWPOLYLINE
  5
68
330
17
100
AcDbEntity
  8
GORUNEN
100
AcDbPolyline
 90
2
 70
0
 10
112.00000000000001
 20
84.0
 10
120.00000000000001
 20
92.0
  0
LWPOLYLINE
  5
69
330
17
100
AcDbEntity
  8
GORUNEN
100
AcDbPolyline
 90
2
 70
0
 10
40.0
 20
84.0
 10
40.0
 20
114.0
  0
LWPOLYLINE
  5
6A
330
17
100
AcDbEntity
  8
GORUNEN
100
AcDbPolyline
 90
2
 70
0
 10
0.0
 20
114.0
 10
26.683375209644602
 20
114.0
  0
LWPOLYLINE
  5
6B
330
17
100
AcDbEntity
  8
GORUNEN
100
AcDbPolyline
 90
2
 70
0
 10
33.3166247903554
 20
114.0
 10
40.0
 20
114.0
  0
LWPOLYLINE
  5
6C
330
17
100
AcDbEntity
  8
GORUNEN
100
AcDbPolyline
 90
2
 70
0
 10
0.0
 20
84.0
 10
0.0
 20
164.0
  0
LWPOLYLINE
  5
6D
330
17
100
AcDbEntity
  8
GORUNEN
100
AcDbPolyline
 90
2
 70
0
 10
0.0
 20
164.0
 10
112.0
 20
164.0
  0
LWPOLYLINE
  5
6E
330
17
100
AcDbEntity
  8
GORUNEN
100
AcDbPolyline
 90
2
 70
0
 10
112.0
 20
164.0
 10
120.0
 20
156.0
  0
LWPOLYLINE
  5
6F
330
17
100
AcDbEntity
  8
GORUNEN
100
AcDbPolyline
 90
2
 70
0
 10
120.0
 20
92.0
 10
120.0
 20
156.0
  0
LWPOLYLINE
  5
70
330
17
100
AcDbEntity
  8
GORUNEN
100
AcDbPolyline
 90
316
 70
0
 10
24.0
 20
109.0
 10
24.00119356337686
 20
109.11967178417979
 10
24.004773778642924
 20
109.23929595640664
 10
24.01073922139359
 20
109.3588249236702
 10
24.019087518250856
 20
109.47821113083792
 10
24.02981534780759
 20
109.59740707957491
 10
24.042918441948977
 20
109.71636534724146
 10
24.058391587550577
 20
109.83503860576039
 10
24.076228628552425
 20
109.95337964044663
 10
24.09642246840822
 20
110.07134136879182
 10
24.118965072908736
 20
110.18887685919638
 10
24.14384747337825
 20
110.30593934964138
 10
24.171059770242795
 20
110.42248226629299
 10
24.20059113696872
 20
110.53845924203218
 10
24.232429824370087
 20
110.653824134902
 10
24.266563165283156
 20
110.76853104646543
 10
24.302977579606043
 20
110.88253434006623
 10
24.341658579701637
 20
110.99578865898569
 10
24.382590776161578
 20
111.10824894448805
 10
24.425757883928984
 20
111.21987045374728
 10
24.471142728777554
 20
111.33060877764817
 10
24.518727254144395
 20
111.4404198584548
 10
24.56849252831391
 20
111.54926000733903
 10
24.620418751949877
 20
111.6570859217623
 10
24.674485265972677
 20
111.7638547027038
 10
24.73067055977863
 20
111.8695238717279
 10
24.788952279798067
 20
111.97405138788459
 10
24.849307238388803
 20
112.07739566443544
 10
24.911711423061444
 20
112.17951558539923
 10
24.97614000603286
 20
112.28037052191006
 10
25.04256735410403
 20
112.37992034838173
 10
25.11096703885833
 20
112.4781254584719
 10
25.18131184717619
 20
112.57494678083961
 10
25.253573792061953
 20
112.67034579469004
 10
25.327724123778637
 20
112.76428454510015
 10
25.403733341286134
 20
112.85672565811925
 10
25.481571203978334
 20
112.94763235563828
 10
25.561206743714497
 20
113.03696847002232
 10
25.64260827714004
 20
113.1246984584999
 10
25.725743418291934
 20
113.21078741730395
 10
25.810579091483564
 20
113.29520109555831
 10
25.89708154446408
 20
113.37790590890471
 10
25.985216361846852
 20
113.45886895286436
 10
26.074948478801794
 20
113.53805801592924
 10
26.166242195006067
 20
113.6154415923775
 10
26.2590611888476
 20
113.69098889480819
 10
26.353368531875823
 20
113.76466986639016
 10
26.449126703493796
 20
113.83645519282038
 10
26.54629760588596
 20
113.9063163139866
 10
26.64484257917552
 20
113.97422543533025
 10
26.744722416805445
 20
114.04015553890463
 10
26.845897381136975
 20
114.10408039412404
 10
26.94832721925941
 20
114.16597456819979
 10
27.051971179004934
 20
114.22581343625875
 10
27.156788025162008
 20
114.28357319114042
 10
27.26273605588102
 20
114.33923085286881
 10
27.369773119265535
 20
114.39276427779501
 10
27.477856630142607
 20
114.4441521674072
 10
27.586943587005493
 20
114.49337407680436
 10
27.696990589121995
 20
114.54041042283036
 10
27.807953853801628
 20
114.58524249186522
 10
27.919789233814754
 20
114.62785244727036
 10
28.03245223495677
 20
114.66822333648503
 10
28.14589803375031
 20
114.70633909777092
 10
28.260081495278477
 20
114.74218456660248
 10
28.374957191141963
 20
114.77574548170007
 10
28.490479417532942
 20
114.80700849070399
 10
28.606602213418537
 20
114.83596115548673
 10
28.72327937882662
 20
114.86259195710146
 10
28.840464493226673
 20
114.88689030036502
 10
28.95811093399841
 20
114.90884651807325
 10
29.07617189498079
 20
114.92845187484697
 10
29.194600405094057
 20
114.9456985706076
 10
29.313349347027398
 20
114.96057974368034
 10
29.432371475984766
 20
114.97308947352408
 10
29.551619438481442
 20
114.98322278308709
 10
29.67104579118383
 20
114.99097564078691
 10
29.79060301978498
 20
114.99634496211458
 10
29.910243557908405
 20
114.99932861086164
 10
30.029919806032535
 20
114.99992539997015
 10
30.149584150428424
 20
114.9981350920049
 10
30.269188982103074
 20
114.99395839924789
 10
30.388686715740896
 20
114.98739698341495
 10
30.508029808635722
 20
114.97845345499465
 10
30.627170779605905
 20
114.96713137220965
 10
30.746062227884895
 20
114.95343523960103
 10
30.864656851979863
 20
114.93737050623626
 10
30.982907468490808
 20
114.91894356354113
 10
31.100767030882675
 20
114.89816174275695
 10
31.21818864820304
 20
114.87503331202379
 10
31.335125603737865
 20
114.84956747309094
 10
31.451531373597987
 20
114.82177435765598
 10
31.56735964522881
 20
114.7916650233338
 10
31.682564335835995
 20
114.75925144925733
 10
31.797099610719695
 20
114.72454653131155
 10
31.910919901510084
 20
114.6875640770028
 10
32.02397992429696
 20
114.64831879996542
 10
32.13623469764612
 20
114.6068263141079
 10
32.24763956049545
 20
114.56310312740074
 10
32.35815018992352
 20
114.51716663530871
 10
32.46772261878365
 20
114.46903511387005
 10
32.57631325319643
 20
114.41872771242515
 10
32.68387888989377
 20
114.36626444599804
 10
32.79037673340748
 20
114.31166618733315
 10
32.89576441309564
 20
114.25495465859115
 10
32.99999999999998
 20
114.19615242270665
 10
33.10304202352745
 20
114.13528287441136
 10
33.204849487949545
 20
114.07237023092651
 10
33.30538188871259
 20
114.00743952232783
 10
33.40459922855267
 20
113.94051658158725
 10
33.50246203340871
 20
113.87162803429516
 10
33.59893136812746
 20
113.80080128806725
 10
33.693968851953926
 20
113.72806452164035
 10
33.787536673801405
 20
113.65344667366129
 10
33.87959760729477
 20
113.57697743117362
 10
33.97011502558113
 20
113.49868721780643
 10
34.05905291590201
 20
113.4186071816702
 10
34.14637589392116
 20
113.33676918296437
 10
34.23204921780243
 20
113.25320578130166
 10
34.31603880203188
 20
113.167950222754
 10
34.39831123097893
 20
113.08103642662554
 10
34.478833772190875
 20
112.99249897195759
 10
34.55757438941564
 20
112.9023730837713
 10
34.63450175534757
 20
112.8106946190531
 10
34.70958526409111
 20
112.71750005248902
 10
34.782795043337515
 20
112.6228264619529
 10
34.85410196624966
 20
112.52671151375488
 10
34.92347766305033
 20
112.42919344765566
 10
34.99089453230919
 20
112.33031106165268
 10
35.05632575192421
 20
112.23010369654413
 10
35.11974528979291
 20
112.12861122027702
 10
35.181127914169366
 20
112.02587401208561
 10
35.24044920370276
 20
111.92193294642624
 10
35.29768555715354
 20
111.81682937671539
 10
35.35281420278328
 20
111.71060511887688
 10
35.405813207414496
 20
111.6033024347054
 10
35.45666148515687
 20
111.49496401505223
 10
35.505338805796384
 20
111.38563296284077
 10
35.551825802843965
 20
111.27535277591761
 10
35.596103981240546
 20
111.16416732974687
 10
35.63815572471543
 20
111.05212085995406
 10
35.67796430279497
 20
110.9392579447268
 10
35.71551387745886
 20
110.82562348707918
 10
35.7507895094414
 20
110.71126269698686
 10
35.783777164175106
 20
110.5962210734001
 10
35.81446371737445
 20
110.48054438614182
 10
35.84283696025743
 20
110.36427865769782
 10
35.86888560440282
 20
110.2474701449066
 10
35.89259928624142
 20
110.13016532055583
 10
35.91396857117917
 20
110.01241085489292
 10
35.93298495735076
 20
109.8942535970571
 10
35.949640879002175
 20
109.77574055644025
 10
35.963929709500704
 20
109.65691888398403
 10
35.97584576397143
 20
109.53783585342066
 10
35.98538430155894
 20
109.41853884246481
 10
35.992541527313534
 20
109.29907531396424
 10
35.99731459370102
 20
109.17949279701645
 10
35.99970160173566
 20
109.05983886805902
 10
35.99970160173566
 20
108.9401611319411
 10
35.99731459370102
 20
108.82050720298366
 10
35.992541527313534
 20
108.70092468603588
 10
35.98538430155895
 20
108.5814611575353
 10
35.97584576397144
 20
108.46216414657945
 10
35.96392970950072
 20
108.34308111601608
 10
35.94964087900219
 20
108.22425944355986
 10
35.93298495735078
 20
108.10574640294301
 10
35.91396857117919
 20
107.9875891451072
 10
35.89259928624145
 20
107.86983467944428
 10
35.86888560440285
 20
107.75252985509351
 10
35.84283696025745
 20
107.6357213423023
 10
35.81446371737449
 20
107.5194556138583
 10
35.783777164175135
 20
107.40377892660001
 10
35.75078950944143
 20
107.28873730301325
 10
35.715513877458896
 20
107.17437651292093
 10
35.677964302795004
 20
107.06074205527331
 10
35.638155724715475
 20
106.94787914004606
 10
35.59610398124059
 20
106.83583267025324
 10
35.55182580284401
 20
106.7246472240825
 10
35.505338805796434
 20
106.61436703715934
 10
35.45666148515692
 20
106.50503598494787
 10
35.405813207414546
 20
106.39669756529472
 10
35.352814202783335
 20
106.28939488112321
 10
35.2976855571536
 20
106.18317062328472
 10
35.240449203702816
 20
106.07806705357386
 10
35.18112791416942
 20
105.9741259879145
 10
35.119745289792974
 20
105.87138877972308
 10
35.05632575192428
 20
105.76989630345597
 10
34.990894532309255
 20
105.66968893834742
 10
34.92347766305039
 20
105.57080655234444
 10
34.85410196624973
 20
105.47328848624522
 10
34.782795043337586
 20
105.3771735380472
 10
34.70958526409118
 20
105.28249994751107
 10
34.63450175534765
 20
105.18930538094699
 10
34.55757438941572
 20
105.0976269162288
 10
34.47883377219095
 20
105.0075010280425
 10
34.39831123097901
 20
104.91896357337454
 10
34.31603880203196
 20
104.83204977724608
 10
34.23204921780251
 20
104.74679421869843
 10
34.146375893921245
 20
104.66323081703571
 10
34.05905291590209
 20
104.58139281832989
 10
33.97011502558122
 20
104.50131278219365
 10
33.87959760729486
 20
104.42302256882645
 10
33.7875366738015
 20
104.34655332633878
 10
33.69396885195402
 20
104.27193547835972
 10
33.59893136812755
 20
104.19919871193281
 10
33.50246203340881
 20
104.12837196570491
 10
33.40459922855276
 20
104.05948341841281
 10
33.30538188871269
 20
103.99256047767223
 10
33.204849487949645
 20
103.92762976907355
 10
33.10304202352755
 20
103.8647171255887
 10
33.00000000000008
 20
103.80384757729341
 10
32.89576441309574
 20
103.74504534140891
 10
32.790376733407584
 20
103.68833381266691
 10
32.683878889893876
 20
103.63373555400202
 10
32.57631325319654
 20
103.58127228757489
 10
32.46772261878375
 20
103.53096488613
 10
32.35815018992363
 20
103.48283336469133
 10
32.24763956049556
 20
103.4368968725993
 10
32.13623469764623
 20
103.39317368589214
 10
32.023979924297066
 20
103.35168120003462
 10
31.910919901510194
 20
103.31243592299724
 10
31.797099610719805
 20
103.27545346868848
 10
31.68256433583611
 20
103.2407485507427
 10
31.567359645228922
 20
103.20833497666622
 10
31.4515313735981
 20
103.17822564234405
 10
31.335125603737982
 20
103.15043252690907
 10
31.218188648203153
 20
103.12496668797624
 10
31.100767030882793
 20
103.10183825724306
 10
30.982907468490925
 20
103.08105643645888
 10
30.86465685197998
 20
103.06262949376375
 10
30.74606222788501
 20
103.04656476039898
 10
30.627170779606022
 20
103.03286862779038
 10
30.50802980863584
 20
103.02154654500535
 10
30.388686715741013
 20
103.01260301658505
 10
30.26918898210319
 20
103.00604160075211
 10
30.14958415042854
 20
103.0018649079951
 10
30.02991980603265
 20
103.00007460002985
 10
29.910243557908522
 20
103.00067138913836
 10
29.7906030197851
 20
103.00365503788542
 10
29.671045791183946
 20
103.00902435921309
 10
29.55161943848156
 20
103.01677721691291
 10
29.432371475984883
 20
103.0269105264759
 10
29.313349347027515
 20
103.03942025631966
 10
29.194600405094175
 20
103.05430142939238
 10
29.076171894980906
 20
103.07154812515302
 10
28.958110933998526
 20
103.09115348192674
 10
28.840464493226786
 20
103.11310969963495
 10
28.723279378826735
 20
103.13740804289853
 10
28.606602213418654
 20
103.16403884451326
 10
28.490479417533056
 20
103.19299150929598
 10
28.374957191142077
 20
103.2242545182999
 10
28.26008149527859
 20
103.2578154333975
 10
28.145898033750424
 20
103.29366090222905
 10
28.03245223495688
 20
103.33177666351494
 10
27.919789233814864
 20
103.3721475527296
 10
27.807953853801738
 20
103.41475750813473
 10
27.696990589122105
 20
103.4595895771696
 10
27.5869435870056
 20
103.5066259231956
 10
27.477856630142714
 20
103.55584783259276
 10
27.36977311926564
 20
103.60723572220495
 10
27.262736055881128
 20
103.66076914713113
 10
27.15678802516211
 20
103.71642680885952
 10
27.051971179005037
 20
103.7741865637412
 10
26.948327219259514
 20
103.83402543180014
 10
26.845897381137075
 20
103.8959196058759
 10
26.744722416805544
 20
103.9598444610953
 10
26.64484257917562
 20
104.02577456466969
 10
26.546297605886057
 20
104.09368368601335
 10
26.449126703493892
 20
104.16354480717956
 10
26.35336853187592
 20
104.23533013360975
 10
26.259061188847696
 20
104.30901110519174
 10
26.16624219500616
 20
104.38455840762242
 10
26.074948478801886
 20
104.46194198407068
 10
25.985216361846945
 20
104.54113104713555
 10
25.89708154446417
 20
104.6220940910952
 10
25.810579091483653
 20
104.7047989044416
 10
25.72574341829202
 20
104.78921258269597
 10
25.642608277140127
 20
104.8753015415
 10
25.561206743714582
 20
104.96303152997758
 10
25.48157120397842
 20
105.05236764436162
 10
25.403733341286216
 20
105.14327434188067
 10
25.32772412377872
 20
105.23571545489975
 10
25.253573792062035
 20
105.32965420530985
 10
25.181311847176268
 20
105.42505321916029
 10
25.11096703885841
 20
105.521874541528
 10
25.042567354104108
 20
105.62007965161816
 10
24.976140006032935
 20
105.71962947808983
 10
24.911711423061515
 20
105.82048441460066
 10
24.84930723838887
 20
105.92260433556444
 10
24.78895227979813
 20
106.0259486121153
 10
24.730670559778694
 20
106.13047612827197
 10
24.674485265972738
 20
106.23614529729608
 10
24.620418751949934
 20
106.34291407823757
 10
24.56849252831397
 20
106.45073999266084
 10
24.51872725414445
 20
106.55958014154507
 10
24.471142728777608
 20
106.6693912223517
 10
24.425757883929037
 20
106.7801295462526
 10
24.382590776161628
 20
106.8917510555118
 10
24.341658579701683
 20
107.00421134101418
 10
24.302977579606086
 20
107.11746565993364
 10
24.2665631652832
 20
107.23146895353443
 10
24.232429824370126
 20
107.34617586509788
 10
24.200591136968754
 20
107.4615407579677
 10
24.171059770242827
 20
107.57751773370688
 10
24.143847473378287
 20
107.6940606503585
 10
24.118965072908765
 20
107.81112314080347
 10
24.09642246840825
 20
107.92865863120804
 10
24.07622862855245
 20
108.04662035955323
 10
24.0583915875506
 20
108.16496139423947
 10
24.042918441948995
 20
108.2836346527584
 10
24.029815347807606
 20
108.40259292042495
 10
24.019087518250867
 20
108.52178886916194
 10
24.0107392213936
 20
108.64117507632965
 10
24.00477377864293
 20
108.76070404359322
 10
24.001193563376862
 20
108.88032821582006
 10
24.0
 20
109.0
  0
LWPOLYLINE
  5
71
330
17
100
AcDbEntity
  8
GORUNEN
100
AcDbPolyline
 90
316
 70
0
 10
84.0
 20
139.0
 10
84.00119356337686
 20
139.1196717841798
 10
84.00477377864293
 20
139.23929595640664
 10
84.01073922139359
 20
139.3588249236702
 10
84.01908751825086
 20
139.4782111308379
 10
84.02981534780758
 20
139.5974070795749
 10
84.04291844194897
 20
139.71636534724146
 10
84.05839158755057
 20
139.8350386057604
 10
84.07622862855243
 20
139.95337964044663
 10
84.09642246840822
 20
140.07134136879182
 10
84.11896507290874
 20
140.1888768591964
 10
84.14384747337826
 20
140.30593934964136
 10
84.17105977024279
 20
140.422482266293
 10
84.20059113696871
 20
140.53845924203216
 10
84.23242982437009
 20
140.65382413490198
 10
84.26656316528316
 20
140.76853104646543
 10
84.30297757960604
 20
140.88253434006623
 10
84.34165857970163
 20
140.9957886589857
 10
84.38259077616158
 20
141.10824894448805
 10
84.42575788392898
 20
141.21987045374726
 10
84.47114272877755
 20
141.33060877764817
 10
84.5187272541444
 20
141.4404198584548
 10
84.56849252831391
 20
141.54926000733903
 10
84.62041875194987
 20
141.6570859217623
 10
84.67448526597268
 20
141.76385470270378
 10
84.73067055977863
 20
141.8695238717279
 10
84.78895227979807
 20
141.97405138788457
 10
84.8493072383888
 20
142.07739566443544
 10
84.91171142306145
 20
142.17951558539923
 10
84.97614000603286
 20
142.28037052191007
 10
85.04256735410404
 20
142.37992034838175
 10
85.11096703885833
 20
142.47812545847188
 10
85.18131184717619
 20
142.5749467808396
 10
85.25357379206196
 20
142.67034579469004
 10
85.32772412377864
 20
142.76428454510017
 10
85.40373334128613
 20
142.85672565811925
 10
85.48157120397833
 20
142.9476323556383
 10
85.5612067437145
 20
143.03696847002232
 10
85.64260827714004
 20
143.1246984584999
 10
85.72574341829193
 20
143.21078741730395
 10
85.81057909148356
 20
143.2952010955583
 10
85.89708154446409
 20
143.37790590890472
 10
85.98521636184685
 20
143.45886895286435
 10
86.0749484788018
 20
143.53805801592924
 10
86.16624219500606
 20
143.6154415923775
 10
86.2590611888476
 20
143.69098889480819
 10
86.35336853187582
 20
143.76466986639016
 10
86.44912670349379
 20
143.83645519282038
 10
86.54629760588597
 20
143.9063163139866
 10
86.64484257917552
 20
143.97422543533025
 10
86.74472241680544
 20
144.04015553890463
 10
86.84589738113698
 20
144.10408039412403
 10
86.94832721925941
 20
144.16597456819977
 10
87.05197117900494
 20
144.22581343625876
 10
87.15678802516202
 20
144.28357319114042
 10
87.26273605588102
 20
144.3392308528688
 10
87.36977311926553
 20
144.392764277795
 10
87.47785663014261
 20
144.4441521674072
 10
87.58694358700549
 20
144.49337407680434
 10
87.696990589122
 20
144.54041042283035
 10
87.80795385380162
 20
144.58524249186522
 10
87.91978923381475
 20
144.62785244727036
 10
88.03245223495676
 20
144.66822333648503
 10
88.14589803375031
 20
144.70633909777092
 10
88.26008149527848
 20
144.74218456660248
 10
88.37495719114196
 20
144.77574548170008
 10
88.49047941753294
 20
144.807008490704
 10
88.60660221341854
 20
144.83596115548673
 10
88.72327937882662
 20
144.86259195710147
 10
88.84046449322668
 20
144.88689030036502
 10
88.95811093399841
 20
144.90884651807323
 10
89.07617189498079
 20
144.92845187484698
 10
89.19460040509406
 20
144.9456985706076
 10
89.3133493470274
 20
144.96057974368034
 10
89.43237147598477
 20
144.97308947352408
 10
89.55161943848144
 20
144.9832227830871
 10
89.67104579118383
 20
144.9909756407869
 10
89.79060301978498
 20
144.99634496211456
 10
89.9102435579084
 20
144.99932861086165
 10
90.02991980603254
 20
144.99992539997015
 10
90.14958415042842
 20
144.9981350920049
 10
90.26918898210307
 20
144.9939583992479
 10
90.38868671574089
 20
144.98739698341495
 10
90.50802980863573
 20
144.97845345499465
 10
90.6271707796059
 20
144.96713137220965
 10
90.74606222788489
 20
144.95343523960105
 10
90.86465685197986
 20
144.93737050623628
 10
90.98290746849081
 20
144.91894356354112
 10
91.10076703088268
 20
144.89816174275694
 10
91.21818864820304
 20
144.8750333120238
 10
91.33512560373786
 20
144.84956747309093
 10
91.45153137359799
 20
144.82177435765598
 10
91.5673596452288
 20
144.7916650233338
 10
91.68256433583599
 20
144.75925144925733
 10
91.7970996107197
 20
144.72454653131155
 10
91.91091990151008
 20
144.6875640770028
 10
92.02397992429695
 20
144.6483187999654
 10
92.13623469764612
 20
144.6068263141079
 10
92.24763956049544
 20
144.56310312740072
 10
92.35815018992352
 20
144.5171666353087
 10
92.46772261878364
 20
144.46903511387006
 10
92.57631325319643
 20
144.41872771242515
 10
92.68387888989378
 20
144.36626444599804
 10
92.79037673340748
 20
144.31166618733315
 10
92.89576441309563
 20
144.25495465859115
 10
92.99999999999997
 20
144.19615242270663
 10
93.10304202352745
 20
144.13528287441136
 10
93.20484948794955
 20
144.0723702309265
 10
93.30538188871259
 20
144.00743952232784
 10
93.40459922855267
 20
143.94051658158725
 10
93.50246203340872
 20
143.87162803429516
 10
93.59893136812745
 20
143.80080128806725
 10
93.69396885195393
 20
143.72806452164036
 10
93.78753667380141
 20
143.65344667366128
 10
93.87959760729477
 20
143.57697743117362
 10
93.97011502558114
 20
143.49868721780643
 10
94.059052915902
 20
143.4186071816702
 10
94.14637589392116
 20
143.33676918296436
 10
94.23204921780243
 20
143.25320578130166
 10
94.31603880203188
 20
143.167950222754
 10
94.39831123097893
 20
143.08103642662553
 10
94.47883377219088
 20
142.9924989719576
 10
94.55757438941565
 20
142.9023730837713
 10
94.63450175534757
 20
142.8106946190531
 10
94.70958526409112
 20
142.71750005248902
 10
94.78279504333752
 20
142.6228264619529
 10
94.85410196624966
 20
142.52671151375486
 10
94.92347766305032
 20
142.42919344765565
 10
94.99089453230918
 20
142.33031106165268
 10
95.0563257519242
 20
142.23010369654412
 10
95.11974528979292
 20
142.12861122027704
 10
95.18112791416937
 20
142.0258740120856
 10
95.24044920370275
 20
141.92193294642624
 10
95.29768555715354
 20
141.8168293767154
 10
95.35281420278328
 20
141.71060511887688
 10
95.4058132074145
 20
141.6033024347054
 10
95.45666148515687
 20
141.49496401505223
 10
95.50533880579638
 20
141.38563296284076
 10
95.55182580284396
 20
141.2753527759176
 10
95.59610398124055
 20
141.16416732974687
 10
95.63815572471543
 20
141.05212085995407
 10
95.67796430279498
 20
140.93925794472682
 10
95.71551387745886
 20
140.82562348707918
 10
95.7507895094414
 20
140.71126269698686
 10
95.7837771641751
 20
140.5962210734001
 10
95.81446371737445
 20
140.48054438614182
 10
95.84283696025743
 20
140.3642786576978
 10
95.86888560440282
 20
140.2474701449066
 10
95.89259928624142
 20
140.13016532055582
 10
95.91396857117917
 20
140.01241085489292
 10
95.93298495735077
 20
139.89425359705712
 10
95.94964087900217
 20
139.77574055644027
 10
95.9639297095007
 20
139.65691888398405
 10
95.97584576397144
 20
139.53783585342066
 10
95.98538430155894
 20
139.4185388424648
 10
95.99254152731353
 20
139.29907531396424
 10
95.99731459370102
 20
139.17949279701645
 10
95.99970160173565
 20
139.05983886805902
 10
95.99970160173567
 20
138.9401611319411
 10
95.99731459370102
 20
138.82050720298366
 10
95.99254152731353
 20
138.70092468603588
 10
95.98538430155895
 20
138.5814611575353
 10
95.97584576397144
 20
138.46216414657945
 10
95.96392970950072
 20
138.3430811160161
 10
95.94964087900219
 20
138.22425944355987
 10
95.93298495735078
 20
138.10574640294303
 10
95.91396857117918
 20
137.9875891451072
 10
95.89259928624145
 20
137.8698346794443
 10
95.86888560440285
 20
137.7525298550935
 10
95.84283696025746
 20
137.6357213423023
 10
95.81446371737448
 20
137.5194556138583
 10
95.78377716417513
 20
137.4037789266
 10
95.75078950944143
 20
137.28873730301325
 10
95.7155138774589
 20
137.17437651292093
 10
95.677964302795
 20
137.0607420552733
 10
95.63815572471547
 20
136.94787914004604
 10
95.59610398124059
 20
136.83583267025324
 10
95.55182580284401
 20
136.7246472240825
 10
95.50533880579643
 20
136.61436703715933
 10
95.45666148515693
 20
136.50503598494788
 10
95.40581320741455
 20
136.39669756529472
 10
95.35281420278334
 20
136.2893948811232
 10
95.2976855571536
 20
136.18317062328472
 10
95.24044920370281
 20
136.07806705357388
 10
95.18112791416942
 20
135.9741259879145
 10
95.11974528979297
 20
135.87138877972308
 10
95.05632575192428
 20
135.76989630345597
 10
94.99089453230926
 20
135.6696889383474
 10
94.92347766305039
 20
135.57080655234444
 10
94.85410196624973
 20
135.47328848624522
 10
94.78279504333759
 20
135.3771735380472
 10
94.70958526409119
 20
135.28249994751107
 10
94.63450175534764
 20
135.189305380947
 10
94.55757438941572
 20
135.09762691622882
 10
94.47883377219095
 20
135.0075010280425
 10
94.39831123097902
 20
134.91896357337453
 10
94.31603880203197
 20
134.83204977724608
 10
94.23204921780251
 20
134.74679421869843
 10
94.14637589392125
 20
134.6632308170357
 10
94.0590529159021
 20
134.5813928183299
 10
93.97011502558122
 20
134.50131278219365
 10
93.87959760729485
 20
134.42302256882647
 10
93.7875366738015
 20
134.34655332633878
 10
93.69396885195401
 20
134.27193547835972
 10
93.59893136812755
 20
134.1991987119328
 10
93.5024620334088
 20
134.1283719657049
 10
93.40459922855275
 20
134.0594834184128
 10
93.30538188871269
 20
133.9925604776722
 10
93.20484948794964
 20
133.92762976907355
 10
93.10304202352755
 20
133.8647171255887
 10
93.00000000000007
 20
133.80384757729342
 10
92.89576441309575
 20
133.7450453414089
 10
92.79037673340758
 20
133.6883338126669
 10
92.68387888989388
 20
133.63373555400202
 10
92.57631325319653
 20
133.5812722875749
 10
92.46772261878375
 20
133.53096488613
 10
92.35815018992362
 20
133.48283336469132
 10
92.24763956049556
 20
133.4368968725993
 10
92.13623469764623
 20
133.39317368589212
 10
92.02397992429707
 20
133.35168120003462
 10
91.9109199015102
 20
133.31243592299722
 10
91.79709961071981
 20
133.27545346868848
 10
91.6825643358361
 20
133.2407485507427
 10
91.56735964522892
 20
133.2083349766662
 10
91.4515313735981
 20
133.17822564234405
 10
91.33512560373798
 20
133.15043252690907
 10
91.21818864820315
 20
133.12496668797624
 10
91.10076703088279
 20
133.10183825724306
 10
90.98290746849092
 20
133.08105643645888
 10
90.86465685197997
 20
133.06262949376375
 10
90.746062227885
 20
133.04656476039898
 10
90.62717077960602
 20
133.03286862779038
 10
90.50802980863584
 20
133.02154654500535
 10
90.38868671574102
 20
133.01260301658505
 10
90.26918898210319
 20
133.0060416007521
 10
90.14958415042854
 20
133.0018649079951
 10
90.02991980603265
 20
133.00007460002985
 10
89.91024355790853
 20
133.00067138913835
 10
89.7906030197851
 20
133.00365503788544
 10
89.67104579118394
 20
133.00902435921307
 10
89.55161943848157
 20
133.0167772169129
 10
89.43237147598488
 20
133.0269105264759
 10
89.31334934702751
 20
133.03942025631966
 10
89.19460040509418
 20
133.05430142939238
 10
89.0761718949809
 20
133.07154812515302
 10
88.95811093399853
 20
133.09115348192674
 10
88.84046449322679
 20
133.11310969963495
 10
88.72327937882673
 20
133.13740804289853
 10
88.60660221341865
 20
133.16403884451324
 10
88.49047941753305
 20
133.19299150929598
 10
88.37495719114207
 20
133.22425451829992
 10
88.2600814952786
 20
133.2578154333975
 10
88.14589803375043
 20
133.29366090222905
 10
88.03245223495688
 20
133.33177666351494
 10
87.91978923381487
 20
133.3721475527296
 10
87.80795385380173
 20
133.41475750813473
 10
87.69699058912211
 20
133.4595895771696
 10
87.5869435870056
 20
133.5066259231956
 10
87.47785663014271
 20
133.55584783259275
 10
87.36977311926564
 20
133.60723572220496
 10
87.26273605588112
 20
133.66076914713113
 10
87.15678802516211
 20
133.71642680885952
 10
87.05197117900504
 20
133.77418656374118
 10
86.94832721925951
 20
133.83402543180014
 10
86.84589738113708
 20
133.89591960587592
 10
86.74472241680554
 20
133.95984446109532
 10
86.64484257917562
 20
134.0257745646697
 10
86.54629760588605
 20
134.09368368601335
 10
86.44912670349389
 20
134.16354480717956
 10
86.35336853187592
 20
134.23533013360975
 10
86.2590611888477
 20
134.30901110519176
 10
86.16624219500616
 20
134.38455840762242
 10
86.07494847880189
 20
134.46194198407068
 10
85.98521636184694
 20
134.54113104713554
 10
85.89708154446417
 20
134.62209409109522
 10
85.81057909148365
 20
134.7047989044416
 10
85.72574341829203
 20
134.78921258269597
 10
85.64260827714013
 20
134.8753015415
 10
85.56120674371458
 20
134.96303152997757
 10
85.48157120397842
 20
135.05236764436162
 10
85.40373334128621
 20
135.14327434188067
 10
85.32772412377872
 20
135.23571545489975
 10
85.25357379206203
 20
135.32965420530985
 10
85.18131184717626
 20
135.4250532191603
 10
85.1109670388584
 20
135.521874541528
 10
85.04256735410411
 20
135.62007965161814
 10
84.97614000603294
 20
135.71962947808981
 10
84.91171142306152
 20
135.82048441460066
 10
84.84930723838887
 20
135.92260433556444
 10
84.78895227979814
 20
136.02594861211531
 10
84.7306705597787
 20
136.13047612827197
 10
84.67448526597273
 20
136.23614529729608
 10
84.62041875194994
 20
136.34291407823758
 10
84.56849252831397
 20
136.45073999266083
 10
84.51872725414445
 20
136.55958014154507
 10
84.47114272877761
 20
136.6693912223517
 10
84.42575788392904
 20
136.7801295462526
 10
84.38259077616162
 20
136.8917510555118
 10
84.34165857970169
 20
137.00421134101418
 10
84.30297757960608
 20
137.11746565993366
 10
84.2665631652832
 20
137.23146895353443
 10
84.23242982437013
 20
137.34617586509788
 10
84.20059113696875
 20
137.4615407579677
 10
84.17105977024283
 20
137.57751773370688
 10
84.14384747337829
 20
137.6940606503585
 10
84.11896507290876
 20
137.8111231408035
 10
84.09642246840825
 20
137.92865863120804
 10
84.07622862855244
 20
138.04662035955323
 10
84.0583915875506
 20
138.16496139423947
 10
84.042918441949
 20
138.2836346527584
 10
84.02981534780761
 20
138.40259292042495
 10
84.01908751825087
 20
138.52178886916192
 10
84.01073922139359
 20
138.64117507632966
 10
84.00477377864293
 20
138.76070404359322
 10
84.00119356337686
 20
138.88032821582007
 10
84.0
 20
139.0
  0
TEXT
  5
72
330
17
100
AcDbEntity
  8
YAZI
100
AcDbText
 10
60.00000000000001
 20
70.0
 30
0.0
 40
6.0
  1
UST
 11
60.00000000000001
 21
70.0
 31
0.0
100
AcDbText
  0
LWPOLYLINE
  5
73
330
17
100
AcDbEntity
  8
GORUNEN
100
AcDbPolyline
 90
2
 70
0
 10
180.0
 20
0.0
 10
180.0
 20
24.0
  0
LWPOLYLINE
  5
74
330
17
100
AcDbEntity
  8
GORUNEN
100
AcDbPolyline
 90
2
 70
0
 10
180.0
 20
0.0
 10
188.0
 20
0.0
  0
LWPOLYLINE
  5
75
330
17
100
AcDbEntity
  8
GORUNEN
100
AcDbPolyline
 90
2
 70
0
 10
188.0
 20
0.0
 10
188.0
 20
24.0
  0
LWPOLYLINE
  5
76
330
17
100
AcDbEntity
  8
GORUNEN
100
AcDbPolyline
 90
2
 70
0
 10
180.0
 20
24.000000000000004
 10
188.0
 20
24.000000000000004
  0
LWPOLYLINE
  5
77
330
17
100
AcDbEntity
  8
GORUNEN
100
AcDbPolyline
 90
2
 70
0
 10
260.0
 20
24.000000000000004
 10
252.0
 20
24.000000000000004
  0
LWPOLYLINE
  5
78
330
17
100
AcDbEntity
  8
GORUNEN
100
AcDbPolyline
 90
2
 70
0
 10
188.0
 20
24.0
 10
252.0
 20
24.0
  0
LWPOLYLINE
  5
79
330
17
100
AcDbEntity
  8
GORUNEN
100
AcDbPolyline
 90
2
 70
0
 10
260.0
 20
0.0
 10
252.0
 20
0.0
  0
LWPOLYLINE
  5
7A
330
17
100
AcDbEntity
  8
GORUNEN
100
AcDbPolyline
 90
2
 70
0
 10
188.0
 20
0.0
 10
252.0
 20
0.0
  0
LWPOLYLINE
  5
7B
330
17
100
AcDbEntity
  8
GORUNEN
100
AcDbPolyline
 90
2
 70
0
 10
252.0
 20
0.0
 10
252.0
 20
24.0
  0
LWPOLYLINE
  5
7C
330
17
100
AcDbEntity
  8
GORUNEN
100
AcDbPolyline
 90
2
 70
0
 10
260.0
 20
0.0
 10
260.0
 20
24.0
  0
LWPOLYLINE
  5
7D
330
17
100
AcDbEntity
  8
GORUNEN
100
AcDbPolyline
 90
2
 70
0
 10
180.0
 20
14.0
 10
180.0
 20
24.0
  0
LWPOLYLINE
  5
7E
330
17
100
AcDbEntity
  8
GORUNEN
100
AcDbPolyline
 90
2
 70
0
 10
180.0
 20
0.0
 10
180.0
 20
14.0
  0
LWPOLYLINE
  5
7F
330
17
100
AcDbEntity
  8
GORUNEN
100
AcDbPolyline
 90
2
 70
0
 10
180.0
 20
24.0
 10
210.0
 20
24.0
  0
LWPOLYLINE
  5
80
330
17
100
AcDbEntity
  8
GORUNEN
100
AcDbPolyline
 90
2
 70
0
 10
209.99999999999997
 20
24.0
 10
211.0
 20
24.0
  0
LWPOLYLINE
  5
81
330
17
100
AcDbEntity
  8
GORUNEN
100
AcDbPolyline
 90
2
 70
0
 10
211.0
 20
24.0
 10
209.99999999999986
 20
24.0
  0
LWPOLYLINE
  5
82
330
17
100
AcDbEntity
  8
GORUNEN
100
AcDbPolyline
 90
2
 70
0
 10
210.0
 20
24.0
 10
260.0
 20
24.0
  0
LWPOLYLINE
  5
83
330
17
100
AcDbEntity
  8
GORUNEN
100
AcDbPolyline
 90
2
 70
0
 10
235.0
 20
24.0
 10
241.0
 20
24.0
  0
LWPOLYLINE
  5
84
330
17
100
AcDbEntity
  8
GORUNEN
100
AcDbPolyline
 90
2
 70
0
 10
241.0
 20
24.0
 10
229.0
 20
24.0
  0
LWPOLYLINE
  5
85
330
17
100
AcDbEntity
  8
GORUNEN
100
AcDbPolyline
 90
2
 70
0
 10
229.0
 20
24.0
 10
235.0
 20
24.0
  0
LWPOLYLINE
  5
86
330
17
100
AcDbEntity
  8
GORUNEN
100
AcDbPolyline
 90
2
 70
0
 10
210.0
 20
14.0
 10
210.0
 20
24.0
  0
LWPOLYLINE
  5
87
330
17
100
AcDbEntity
  8
GORUNEN
100
AcDbPolyline
 90
2
 70
0
 10
180.0
 20
14.0
 10
210.0
 20
14.0
  0
LWPOLYLINE
  5
88
330
17
100
AcDbEntity
  8
GORUNEN
100
AcDbPolyline
 90
2
 70
0
 10
205.0
 20
14.0
 10
210.0
 20
14.0
  0
LWPOLYLINE
  5
89
330
17
100
AcDbEntity
  8
GORUNEN
100
AcDbPolyline
 90
2
 70
0
 10
210.0
 20
14.0
 10
199.0
 20
14.0
  0
LWPOLYLINE
  5
8A
330
17
100
AcDbEntity
  8
GORUNEN
100
AcDbPolyline
 90
2
 70
0
 10
199.0
 20
14.0
 10
205.0
 20
14.0
  0
LWPOLYLINE
  5
8B
330
17
100
AcDbEntity
  8
GORUNEN
100
AcDbPolyline
 90
2
 70
0
 10
180.0
 20
14.0
 10
210.0
 20
14.0
  0
LWPOLYLINE
  5
8C
330
17
100
AcDbEntity
  8
GORUNEN
100
AcDbPolyline
 90
2
 70
0
 10
210.0
 20
14.0
 10
210.0
 20
24.0
  0
LWPOLYLINE
  5
8D
330
17
100
AcDbEntity
  8
GORUNEN
100
AcDbPolyline
 90
2
 70
0
 10
260.0
 20
0.0
 10
260.0
 20
24.0
  0
LWPOLYLINE
  5
8E
330
17
100
AcDbEntity
  8
GORUNEN
100
AcDbPolyline
 90
2
 70
0
 10
180.0
 20
0.0
 10
260.0
 20
0.0
  0
LWPOLYLINE
  5
8F
330
17
100
AcDbEntity
  8
GORUNEN
100
AcDbPolyline
 90
2
 70
0
 10
205.0
 20
0.0
 10
211.0
 20
0.0
  0
LWPOLYLINE
  5
90
330
17
100
AcDbEntity
  8
GORUNEN
100
AcDbPolyline
 90
2
 70
0
 10
211.0
 20
0.0
 10
199.0
 20
0.0
  0
LWPOLYLINE
  5
91
330
17
100
AcDbEntity
  8
GORUNEN
100
AcDbPolyline
 90
2
 70
0
 10
199.0
 20
0.0
 10
205.0
 20
0.0
  0
LWPOLYLINE
  5
92
330
17
100
AcDbEntity
  8
GORUNEN
100
AcDbPolyline
 90
2
 70
0
 10
235.0
 20
0.0
 10
241.0
 20
0.0
  0
LWPOLYLINE
  5
93
330
17
100
AcDbEntity
  8
GORUNEN
100
AcDbPolyline
 90
2
 70
0
 10
241.0
 20
0.0
 10
229.0
 20
0.0
  0
LWPOLYLINE
  5
94
330
17
100
AcDbEntity
  8
GORUNEN
100
AcDbPolyline
 90
2
 70
0
 10
229.0
 20
0.0
 10
235.0
 20
0.0
  0
LWPOLYLINE
  5
95
330
17
100
AcDbEntity
  8
GORUNEN
100
AcDbPolyline
 90
2
 70
0
 10
210.0
 20
24.0
 10
210.0
 20
14.0
  0
LWPOLYLINE
  5
96
330
17
100
AcDbEntity
  8
GORUNEN
100
AcDbPolyline
 90
2
 70
0
 10
210.0
 20
24.0
 10
210.0
 20
14.0
  0
LWPOLYLINE
  5
97
330
17
100
AcDbEntity
  8
GORUNEN
100
AcDbPolyline
 90
2
 70
0
 10
199.0
 20
14.0
 10
199.0
 20
0.0
  0
LWPOLYLINE
  5
98
330
17
100
AcDbEntity
  8
GORUNEN
100
AcDbPolyline
 90
2
 70
0
 10
211.0
 20
24.0
 10
211.0
 20
0.0
  0
LWPOLYLINE
  5
99
330
17
100
AcDbEntity
  8
GORUNEN
100
AcDbPolyline
 90
2
 70
0
 10
229.0
 20
24.0
 10
229.0
 20
0.0
  0
LWPOLYLINE
  5
9A
330
17
100
AcDbEntity
  8
GORUNEN
100
AcDbPolyline
 90
2
 70
0
 10
241.0
 20
24.0
 10
241.0
 20
0.0
  0
TEXT
  5
9B
330
17
100
AcDbEntity
  8
YAZI
100
AcDbText
 10
220.0
 20
-14.0
 30
0.0
 40
6.0
  1
SAG
 11
220.0
 21
-14.0
 31
0.0
100
AcDbText
  0
ENDSEC
  0
SECTION
  2
OBJECTS
  0
DICTIONARY
  5
A
330
0
100
AcDbDictionary
281
1
  3
ACAD_COLOR
350
B
  3
ACAD_GROUP
350
C
  3
ACAD_LAYOUT
350
D
  3
ACAD_MATERIAL
350
E
  3
ACAD_MLEADERSTYLE
350
F
  3
ACAD_MLINESTYLE
350
10
  3
ACAD_PLOTSETTINGS
350
11
  3
ACAD_PLOTSTYLENAME
350
12
  3
ACAD_SCALELIST
350
14
  3
ACAD_TABLESTYLE
350
15
  3
ACAD_VISUALSTYLE
350
16
  3
EZDXF_META
350
2D
  0
DICTIONARY
  5
B
330
A
100
AcDbDictionary
281
1
  0
DICTIONARY
  5
C
330
A
100
AcDbDictionary
281
1
  0
DICTIONARY
  5
D
330
A
100
AcDbDictionary
281
1
  3
Model
350
1A
  3
Layout1
350
1E
  0
DICTIONARY
  5
E
330
A
100
AcDbDictionary
281
1
  3
ByBlock
350
1F
  3
ByLayer
350
20
  3
Global
350
21
  0
DICTIONARY
  5
F
330
A
100
AcDbDictionary
281
1
  3
Standard
350
2C
  0
DICTIONARY
  5
10
330
A
100
AcDbDictionary
281
1
  3
Standard
350
22
  0
DICTIONARY
  5
11
330
A
100
AcDbDictionary
281
1
  0
ACDBDICTIONARYWDFLT
  5
12
330
A
100
AcDbDictionary
281
1
  3
Normal
350
13
100
AcDbDictionaryWithDefault
340
13
  0
ACDBPLACEHOLDER
  5
13
330
12
  0
DICTIONARY
  5
14
330
A
100
AcDbDictionary
281
1
  0
DICTIONARY
  5
15
330
A
100
AcDbDictionary
281
1
  0
DICTIONARY
  5
16
330
A
100
AcDbDictionary
281
1
  0
LAYOUT
  5
1A
330
D
100
AcDbPlotSettings
  1

  4
A3
  6

 40
7.5
 41
20.0
 42
7.5
 43
20.0
 44
420.0
 45
297.0
 46
0.0
 47
0.0
 48
0.0
 49
0.0
140
0.0
141
0.0
142
1.0
143
1.0
 70
1024
 72
1
 73
0
 74
5
  7

 75
16
 76
0
 77
2
 78
300
147
1.0
148
0.0
149
0.0
100
AcDbLayout
  1
Model
 70
1
 71
0
 10
0.0
 20
0.0
 11
420.0
 21
297.0
 12
0.0
 22
0.0
 32
0.0
 14
1e+20
 24
1e+20
 34
1e+20
 15
-1e+20
 25
-1e+20
 35
-1e+20
146
0.0
 13
0.0
 23
0.0
 33
0.0
 16
1.0
 26
0.0
 36
0.0
 17
0.0
 27
1.0
 37
0.0
 76
1
330
17
  0
LAYOUT
  5
1E
330
D
100
AcDbPlotSettings
  1

  4
A3
  6

 40
7.5
 41
20.0
 42
7.5
 43
20.0
 44
420.0
 45
297.0
 46
0.0
 47
0.0
 48
0.0
 49
0.0
140
0.0
141
0.0
142
1.0
143
1.0
 70
0
 72
1
 73
0
 74
5
  7

 75
16
 76
0
 77
2
 78
300
147
1.0
148
0.0
149
0.0
100
AcDbLayout
  1
Layout1
 70
1
 71
1
 10
0.0
 20
0.0
 11
420.0
 21
297.0
 12
0.0
 22
0.0
 32
0.0
 14
1e+20
 24
1e+20
 34
1e+20
 15
-1e+20
 25
-1e+20
 35
-1e+20
146
0.0
 13
0.0
 23
0.0
 33
0.0
 16
1.0
 26
0.0
 36
0.0
 17
0.0
 27
1.0
 37
0.0
 76
1
330
1B
  0
MATERIAL
  5
1F
102
{ACAD_REACTORS
330
E
102
}
330
E
100
AcDbMaterial
  1
ByBlock
  2

 70
0
 40
1.0
 71
1
 41
1.0
 91
-1023410177
 42
1.0
 72
1
  3

 73
1
 74
1
 75
1
 44
0.5
 73
0
 45
1.0
 46
1.0
 77
1
  4

 78
1
 79
1
170
1
 48
1.0
171
1
  6

172
1
173
1
174
1
140
1.0
141
1.0
175
1
  7

176
1
177
1
178
1
143
1.0
179
1
  8

270
1
271
1
272
1
145
1.0
146
1.0
273
1
  9

274
1
275
1
276
1
 42
1.0
 72
1
  3

 73
1
 74
1
 75
1
 94
63
  0
MATERIAL
  5
20
102
{ACAD_REACTORS
330
E
102
}
330
E
100
AcDbMaterial
  1
ByLayer
  2

 70
0
 40
1.0
 71
1
 41
1.0
 91
-1023410177
 42
1.0
 72
1
  3

 73
1
 74
1
 75
1
 44
0.5
 73
0
 45
1.0
 46
1.0
 77
1
  4

 78
1
 79
1
170
1
 48
1.0
171
1
  6

172
1
173
1
174
1
140
1.0
141
1.0
175
1
  7

176
1
177
1
178
1
143
1.0
179
1
  8

270
1
271
1
272
1
145
1.0
146
1.0
273
1
  9

274
1
275
1
276
1
 42
1.0
 72
1
  3

 73
1
 74
1
 75
1
 94
63
  0
MATERIAL
  5
21
102
{ACAD_REACTORS
330
E
102
}
330
E
100
AcDbMaterial
  1
Global
  2

 70
0
 40
1.0
 71
1
 41
1.0
 91
-1023410177
 42
1.0
 72
1
  3

 73
1
 74
1
 75
1
 44
0.5
 73
0
 45
1.0
 46
1.0
 77
1
  4

 78
1
 79
1
170
1
 48
1.0
171
1
  6

172
1
173
1
174
1
140
1.0
141
1.0
175
1
  7

176
1
177
1
178
1
143
1.0
179
1
  8

270
1
271
1
272
1
145
1.0
146
1.0
273
1
  9

274
1
275
1
276
1
 42
1.0
 72
1
  3

 73
1
 74
1
 75
1
 94
63
  0
MLINESTYLE
  5
22
102
{ACAD_REACTORS
330
10
102
}
330
10
100
AcDbMlineStyle
  2
Standard
 70
0
  3

 62
256
 51
90.0
 52
90.0
 71
2
 49
0.5
 62
256
  6
BYLAYER
 49
-0.5
 62
256
  6
BYLAYER
  0
MLEADERSTYLE
  5
2C
102
{ACAD_REACTORS
330
F
102
}
330
F
100
AcDbMLeaderStyle
179
2
170
2
171
1
172
0
 90
2
 40
0.0
 41
0.0
173
1
 91
-1056964608
 92
-2
290
1
 42
2.0
291
1
 43
8.0
  3
Standard
 44
4.0
300

342
29
174
1
175
1
176
0
178
1
 93
-1056964608
 45
4.0
292
0
297
0
 46
4.0
 94
-1056964608
 47
1.0
 49
1.0
140
1.0
294
1
141
0.0
177
0
142
1.0
295
0
296
0
143
3.75
271
0
272
9
273
9
  0
DICTIONARY
  5
2D
330
A
100
AcDbDictionary
280
1
281
1
  3
CREATED_BY_EZDXF
350
2E
  3
WRITTEN_BY_EZDXF
350
9E
  0
DICTIONARYVAR
  5
2E
330
2D
100
DictionaryVariables
280
0
  1
1.4.4 @ 2026-09-21T10:39:44.941673+00:00
  0
DICTIONARYVAR
  5
9E
330
2D
100
DictionaryVariables
280
0
  1
1.4.4 @ 2026-09-21T10:39:44.964822+00:00
  0
ENDSEC
  0
EOF
