  0
SECTION
  2
HEADER
  9
$ACADVER
  1
AC1024
  9
$ACADMAINTVER
 70
6
  9
$DWGCODEPAGE
  3
ANSI_1252
  9
$LASTSAVEDBY
  1
ezdxf
  9
$INSBASE
 10
0.0
 20
0.0
 30
0.0
  9
$EXTMIN
 10
1e+20
 20
1e+20
 30
1e+20
  9
$EXTMAX
 10
-1e+20
 20
-1e+20
 30
-1e+20
  9
$LIMMIN
 10
0.0
 20
0.0
  9
$LIMMAX
 10
420.0
 20
297.0
  9
$ORTHOMODE
 70
0
  9
$REGENMODE
 70
1
  9
$FILLMODE
 70
1
  9
$QTEXTMODE
 70
0
  9
$MIRRTEXT
 70
1
  9
$LTSCALE
 40
1.0
  9
$ATTMODE
 70
1
  9
$TEXTSIZE
 40
2.5
  9
$TRACEWID
 40
1.0
  9
$TEXTSTYLE
  7
OpenSans
  9
$CLAYER
  8
0
  9
$CELTYPE
  6
ByLayer
  9
$CECOLOR
 62
256
  9
$CELTSCALE
 40
1.0
  9
$DISPSILH
 70
0
  9
$DIMSCALE
 40
1.0
  9
$DIMASZ
 40
0.175
  9
$DIMEXO
 40
0.125
  9
$DIMDLI
 40
3.75
  9
$DIMRND
 40
0.0
  9
$DIMDLE
 40
0.0
  9
$DIMEXE
 40
0.375
  9
$DIMTP
 40
0.0
  9
$DIMTM
 40
0.0
  9
$DIMTXT
 40
0.25
  9
$DIMCEN
 40
2.5
  9
$DIMTSZ
 40
0.0
  9
$DIMTOL
 70
0
  9
$DIMLIM
 70
0
  9
$DIMTIH
 70
0
  9
$DIMTOH
 70
0
  9
$DIMSE1
 70
0
  9
$DIMSE2
 70
0
  9
$DIMTAD
 70
1
  9
$DIMZIN
 70
12
  9
$DIMBLK
  1
ARCHTICK
  9
$DIMASO
 70
1
  9
$DIMSHO
 70
1
  9
$DIMPOST
  1

  9
$DIMAPOST
  1

  9
$DIMALT
 70
0
  9
$DIMALTD
 70
3
  9
$DIMALTF
 40
0.03937007874
  9
$DIMLFAC
 40
100.0
  9
$DIMTOFL
 70
1
  9
$DIMTVP
 40
0.0
  9
$DIMTIX
 70
0
  9
$DIMSOXD
 70
0
  9
$DIMSAH
 70
0
  9
$DIMBLK1
  1

  9
$DIMBLK2
  1

  9
$DIMSTYLE
  2
EZDXF
  9
$DIMCLRD
 70
0
  9
$DIMCLRE
 70
0
  9
$DIMCLRT
 70
0
  9
$DIMTFAC
 40
0.5
  9
$DIMGAP
 40
0.1
  9
$DIMJUST
 70
0
  9
$DIMSD1
 70
0
  9
$DIMSD2
 70
0
  9
$DIMTOLJ
 70
0
  9
$DIMTZIN
 70
8
  9
$DIMALTZ
 70
0
  9
$DIMALTTZ
 70
0
  9
$DIMUPT
 70
1
  9
$DIMDEC
 70
2
  9
$DIMTDEC
 70
2
  9
$DIMALTU
 70
2
  9
$DIMALTTD
 70
3
  9
$DIMTXSTY
  7
OpenSansCondensed-Light
  9
$DIMAUNIT
 70
0
  9
$DIMADEC
 70
2
  9
$DIMALTRND
 40
0.0
  9
$DIMAZIN
 70
3
  9
$DIMDSEP
 70
46
  9
$DIMATFIT
 70
3
  9
$DIMFRAC
 70
0
  9
$DIMLDRBLK
  1

  9
$DIMLUNIT
 70
2
  9
$DIMLWD
 70
-2
  9
$DIMLWE
 70
-2
  9
$DIMTMOVE
 70
2
  9
$DIMFXL
 40
1.0
  9
$DIMFXLON
 70
0
  9
$DIMJOGANG
 40
0.785398163397
  9
$DIMTFILL
 70
0
  9
$DIMTFILLCLR
 70
0
  9
$DIMARCSYM
 70
0
  9
$DIMLTYPE
  6

  9
$DIMLTEX1
  6

  9
$DIMLTEX2
  6

  9
$DIMTXTDIRECTION
 70
0
  9
$LUNITS
 70
2
  9
$LUPREC
 70
4
  9
$SKETCHINC
 40
1.0
  9
$FILLETRAD
 40
10.0
  9
$AUNITS
 70
0
  9
$AUPREC
 70
2
  9
$MENU
  1
.
  9
$ELEVATION
 40
0.0
  9
$PELEVATION
 40
0.0
  9
$THICKNESS
 40
0.0
  9
$LIMCHECK
 70
0
  9
$CHAMFERA
 40
0.0
  9
$CHAMFERB
 40
0.0
  9
$CHAMFERC
 40
0.0
  9
$CHAMFERD
 40
0.0
  9
$SKPOLY
 70
0
  9
$TDCREATE
 40
2461305.6994560184
  9
$TDUCREATE
 40
2458532.153996898
  9
$TDUPDATE
 40
2461305.6994560184
  9
$TDUUPDATE
 40
2458532.1544311
  9
$TDINDWG
 40
0.0
  9
$TDUSRTIMER
 40
0.0
  9
$USRTIMER
 70
1
  9
$ANGBASE
 50
0.0
  9
$ANGDIR
 70
0
  9
$PDMODE
 70
0
  9
$PDSIZE
 40
0.0
  9
$PLINEWID
 40
0.0
  9
$SPLFRAME
 70
0
  9
$SPLINETYPE
 70
6
  9
$SPLINESEGS
 70
8
  9
$HANDSEED
  5
1E9
  9
$SURFTAB1
 70
6
  9
$SURFTAB2
 70
6
  9
$SURFTYPE
 70
6
  9
$SURFU
 70
6
  9
$SURFV
 70
6
  9
$UCSBASE
  2

  9
$UCSNAME
  2

  9
$UCSORG
 10
0.0
 20
0.0
 30
0.0
  9
$UCSXDIR
 10
1.0
 20
0.0
 30
0.0
  9
$UCSYDIR
 10
0.0
 20
1.0
 30
0.0
  9
$UCSORTHOREF
  2

  9
$UCSORTHOVIEW
 70
0
  9
$UCSORGTOP
 10
0.0
 20
0.0
 30
0.0
  9
$UCSORGBOTTOM
 10
0.0
 20
0.0
 30
0.0
  9
$UCSORGLEFT
 10
0.0
 20
0.0
 30
0.0
  9
$UCSORGRIGHT
 10
0.0
 20
0.0
 30
0.0
  9
$UCSORGFRONT
 10
0.0
 20
0.0
 30
0.0
  9
$UCSORGBACK
 10
0.0
 20
0.0
 30
0.0
  9
$PUCSBASE
  2

  9
$PUCSNAME
  2

  9
$PUCSORG
 10
0.0
 20
0.0
 30
0.0
  9
$PUCSXDIR
 10
1.0
 20
0.0
 30
0.0
  9
$PUCSYDIR
 10
0.0
 20
1.0
 30
0.0
  9
$PUCSORTHOREF
  2

  9
$PUCSORTHOVIEW
 70
0
  9
$PUCSORGTOP
 10
0.0
 20
0.0
 30
0.0
  9
$PUCSORGBOTTOM
 10
0.0
 20
0.0
 30
0.0
  9
$PUCSORGLEFT
 10
0.0
 20
0.0
 30
0.0
  9
$PUCSORGRIGHT
 10
0.0
 20
0.0
 30
0.0
  9
$PUCSORGFRONT
 10
0.0
 20
0.0
 30
0.0
  9
$PUCSORGBACK
 10
0.0
 20
0.0
 30
0.0
  9
$USERI1
 70
0
  9
$USERI2
 70
0
  9
$USERI3
 70
0
  9
$USERI4
 70
0
  9
$USERI5
 70
0
  9
$USERR1
 40
0.0
  9
$USERR2
 40
0.0
  9
$USERR3
 40
0.0
  9
$USERR4
 40
0.0
  9
$USERR5
 40
0.0
  9
$WORLDVIEW
 70
1
  9
$SHADEDGE
 70
3
  9
$SHADEDIF
 70
70
  9
$TILEMODE
 70
1
  9
$MAXACTVP
 70
64
  9
$PINSBASE
 10
0.0
 20
0.0
 30
0.0
  9
$PLIMCHECK
 70
0
  9
$PEXTMIN
 10
1e+20
 20
1e+20
 30
1e+20
  9
$PEXTMAX
 10
-1e+20
 20
-1e+20
 30
-1e+20
  9
$PLIMMIN
 10
0.0
 20
0.0
  9
$PLIMMAX
 10
420.0
 20
297.0
  9
$UNITMODE
 70
0
  9
$VISRETAIN
 70
1
  9
$PLINEGEN
 70
0
  9
$PSLTSCALE
 70
1
  9
$TREEDEPTH
 70
3020
  9
$CMLSTYLE
  2
Standard
  9
$CMLJUST
 70
0
  9
$CMLSCALE
 40
20.0
  9
$PROXYGRAPHICS
 70
1
  9
$MEASUREMENT
 70
1
  9
$CELWEIGHT
370
-1
  9
$ENDCAPS
280
0
  9
$JOINSTYLE
280
0
  9
$LWDISPLAY
290
1
  9
$INSUNITS
 70
6
  9
$HYPERLINKBASE
  1

  9
$STYLESHEET
  1

  9
$XEDIT
290
1
  9
$CEPSNTYPE
380
0
  9
$PSTYLEMODE
290
1
  9
$FINGERPRINTGUID
  2
{E4E7B7DE-6F43-469A-A305-A05BAC94AC33}
  9
$VERSIONGUID
  2
{F4D1A5A8-3479-4C69-A462-C50FE6D37F06}
  9
$EXTNAMES
290
1
  9
$PSVPSCALE
 40
0.0
  9
$OLESTARTUP
290
0
  9
$SORTENTS
280
127
  9
$INDEXCTL
280
0
  9
$HIDETEXT
280
1
  9
$XCLIPFRAME
280
1
  9
$HALOGAP
280
0
  9
$OBSCOLOR
 70
257
  9
$OBSLTYPE
280
0
  9
$INTERSECTIONDISPLAY
280
0
  9
$INTERSECTIONCOLOR
 70
257
  9
$DIMASSOC
280
2
  9
$PROJECTNAME
  1

  9
$CAMERADISPLAY
290
0
  9
$LENSLENGTH
 40
50.0
  9
$CAMERAHEIGHT
 40
0.0
  9
$STEPSPERSEC
 40
24.0
  9
$STEPSIZE
 40
100.0
  9
$3DDWFPREC
 40
2.0
  9
$PSOLWIDTH
 40
0.005
  9
$PSOLHEIGHT
 40
0.08
  9
$LOFTANG1
 40
1.570796326795
  9
$LOFTANG2
 40
1.570796326795
  9
$LOFTMAG1
 40
0.0
  9
$LOFTMAG2
 40
0.0
  9
$LOFTPARAM
 70
7
  9
$LOFTNORMALS
280
1
  9
$LATITUDE
 40
37.795
  9
$LONGITUDE
 40
-122.394
  9
$NORTHDIRECTION
 40
0.0
  9
$TIMEZONE
 70
-8000
  9
$LIGHTGLYPHDISPLAY
280
1
  9
$TILEMODELIGHTSYNCH
280
1
  9
$CMATERIAL
347
20
  9
$SOLIDHIST
280
0
  9
$SHOWHIST
280
1
  9
$DWFFRAME
280
2
  9
$DGNFRAME
280
2
  9
$REALWORLDSCALE
290
1
  9
$INTERFERECOLOR
 62
256
  9
$CSHADOW
280
0
  9
$SHADOWPLANELOCATION
 40
0.0
  0
ENDSEC
  0
SECTION
  2
CLASSES
  0
CLASS
  1
ACDBDICTIONARYWDFLT
  2
AcDbDictionaryWithDefault
  3
ObjectDBX Classes
 90
0
 91
0
280
0
281
0
  0
CLASS
  1
SUN
  2
AcDbSun
  3
SCENEOE
 90
1153
 91
0
280
0
281
0
  0
CLASS
  1
VISUALSTYLE
  2
AcDbVisualStyle
  3
ObjectDBX Classes
 90
4095
 91
0
280
0
281
0
  0
CLASS
  1
MATERIAL
  2
AcDbMaterial
  3
ObjectDBX Classes
 90
1153
 91
0
280
0
281
0
  0
CLASS
  1
SCALE
  2
AcDbScale
  3
ObjectDBX Classes
 90
1153
 91
0
280
0
281
0
  0
CLASS
  1
TABLESTYLE
  2
AcDbTableStyle
  3
ObjectDBX Classes
 90
4095
 91
0
280
0
281
0
  0
CLASS
  1
MLEADERSTYLE
  2
AcDbMLeaderStyle
  3
ACDB_MLEADERSTYLE_CLASS
 90
4095
 91
0
280
0
281
0
  0
CLASS
  1
DICTIONARYVAR
  2
AcDbDictionaryVar
  3
ObjectDBX Classes
 90
0
 91
0
280
0
281
0
  0
CLASS
  1
CELLSTYLEMAP
  2
AcDbCellStyleMap
  3
ObjectDBX Classes
 90
1152
 91
0
280
0
281
0
  0
CLASS
  1
MENTALRAYRENDERSETTINGS
  2
AcDbMentalRayRenderSettings
  3
SCENEOE
 90
1024
 91
0
280
0
281
0
  0
CLASS
  1
ACDBDETAILVIEWSTYLE
  2
AcDbDetailViewStyle
  3
ObjectDBX Classes
 90
1025
 91
0
280
0
281
0
  0
CLASS
  1
ACDBSECTIONVIEWSTYLE
  2
AcDbSectionViewStyle
  3
ObjectDBX Classes
 90
1025
 91
0
280
0
281
0
  0
CLASS
  1
RASTERVARIABLES
  2
AcDbRasterVariables
  3
ISM
 90
0
 91
0
280
0
281
0
  0
CLASS
  1
LAYOUT
  2
AcDbLayout
  3
ObjectDBX Classes
 90
0
 91
0
280
0
281
0
  0
CLASS
  1
ACDBPLACEHOLDER
  2
AcDbPlaceHolder
  3
ObjectDBX Classes
 90
0
 91
0
280
0
281
0
  0
ENDSEC
  0
SECTION
  2
TABLES
  0
TABLE
  2
VPORT
  5
8
330
0
100
AcDbSymbolTable
 70
1
  0
VPORT
  5
23
330
8
100
AcDbSymbolTableRecord
100
AcDbViewportTableRecord
  2
*Active
 70
0
 10
0.0
 20
0.0
 11
1.0
 21
1.0
 12
0.0
 22
0.0
 13
0.0
 23
0.0
 14
0.5
 24
0.5
 15
0.5
 25
0.5
 16
0.0
 26
0.0
 36
1.0
 17
0.0
 27
0.0
 37
0.0
 40
1000.0
 41
1.34
 42
50.0
 43
0.0
 44
0.0
 50
0.0
 51
0.0
 71
0
 72
1000
 73
1
 74
3
 75
0
 76
0
 77
0
 78
0
281
0
 65
0
146
0.0
  0
ENDTAB
  0
TABLE
  2
LTYPE
  5
2
330
0
100
AcDbSymbolTable
 70
23
  0
LTYPE
  5
24
330
2
100
AcDbSymbolTableRecord
100
AcDbLinetypeTableRecord
  2
ByBlock
 70
0
  3

 72
65
 73
0
 40
0.0
  0
LTYPE
  5
25
330
2
100
AcDbSymbolTableRecord
100
AcDbLinetypeTableRecord
  2
ByLayer
 70
0
  3

 72
65
 73
0
 40
0.0
  0
LTYPE
  5
26
330
2
100
AcDbSymbolTableRecord
100
AcDbLinetypeTableRecord
  2
Continuous
 70
0
  3

 72
65
 73
0
 40
0.0
  0
LTYPE
  5
2F
330
2
100
AcDbSymbolTableRecord
100
AcDbLinetypeTableRecord
  2
CENTER
 70
0
  3
Center ____ _ ____ _ ____ _ ____ _ ____ _ ____
 72
65
 73
4
 40
5.08
 49
3.175
 74
0
 49
-0.635
 74
0
 49
0.635
 74
0
 49
-0.635
 74
0
  0
LTYPE
  5
30
330
2
100
AcDbSymbolTableRecord
100
AcDbLinetypeTableRecord
  2
CENTERX2
 70
0
  3
Center (2x) ________  __  ________  __  ________
 72
65
 73
4
 40
8.89
 49
6.35
 74
0
 49
-0.635
 74
0
 49
1.27
 74
0
 49
-0.635
 74
0
  0
LTYPE
  5
31
330
2
100
AcDbSymbolTableRecord
100
AcDbLinetypeTableRecord
  2
CENTER2
 70
0
  3
Center (.5x) ____ _ ____ _ ____ _ ____ _ ____
 72
65
 73
4
 40
2.54
 49
1.587
 74
0
 49
-0.318
 74
0
 49
0.318
 74
0
 49
-0.318
 74
0
  0
LTYPE
  5
32
330
2
100
AcDbSymbolTableRecord
100
AcDbLinetypeTableRecord
  2
DASHED
 70
0
  3
Dashed __ __ __ __ __ __ __ __ __ __ __ __ __ _
 72
65
 73
2
 40
1.524
 49
1.27
 74
0
 49
-0.254
 74
0
  0
LTYPE
  5
33
330
2
100
AcDbSymbolTableRecord
100
AcDbLinetypeTableRecord
  2
DASHEDX2
 70
0
  3
Dashed (2x) ____  ____  ____  ____  ____  ____
 72
65
 73
2
 40
3.048
 49
2.54
 74
0
 49
-0.508
 74
0
  0
LTYPE
  5
34
330
2
100
AcDbSymbolTableRecord
100
AcDbLinetypeTableRecord
  2
DASHED2
 70
0
  3
Dashed (.5x) _ _ _ _ _ _ _ _ _ _ _ _ _ _
 72
65
 73
2
 40
0.762
 49
0.635
 74
0
 49
-0.127
 74
0
  0
LTYPE
  5
35
330
2
100
AcDbSymbolTableRecord
100
AcDbLinetypeTableRecord
  2
PHANTOM
 70
0
  3
Phantom ______  __  __  ______  __  __  ______
 72
65
 73
6
 40
6.35
 49
3.175
 74
0
 49
-0.635
 74
0
 49
0.635
 74
0
 49
-0.635
 74
0
 49
0.635
 74
0
 49
-0.635
 74
0
  0
LTYPE
  5
36
330
2
100
AcDbSymbolTableRecord
100
AcDbLinetypeTableRecord
  2
PHANTOMX2
 70
0
  3
Phantom (2x)____________    ____    ____    ____________
 72
65
 73
6
 40
10.795
 49
6.35
 74
0
 49
-0.635
 74
0
 49
1.27
 74
0
 49
-0.635
 74
0
 49
1.27
 74
0
 49
-0.635
 74
0
  0
LTYPE
  5
37
330
2
100
AcDbSymbolTableRecord
100
AcDbLinetypeTableRecord
  2
PHANTOM2
 70
0
  3
Phantom (.5x) ___ _ _ ___ _ _ ___ _ _ ___ _ _ ___
 72
65
 73
6
 40
3.175
 49
1.587
 74
0
 49
-0.318
 74
0
 49
0.318
 74
0
 49
-0.318
 74
0
 49
0.318
 74
0
 49
-0.318
 74
0
  0
LTYPE
  5
38
330
2
100
AcDbSymbolTableRecord
100
AcDbLinetypeTableRecord
  2
DASHDOT
 70
0
  3
Dash dot __ . __ . __ . __ . __ . __ . __ . __
 72
65
 73
4
 40
3.556
 49
2.54
 74
0
 49
-0.508
 74
0
 49
0.0
 74
0
 49
-0.508
 74
0
  0
LTYPE
  5
39
330
2
100
AcDbSymbolTableRecord
100
AcDbLinetypeTableRecord
  2
DASHDOTX2
 70
0
  3
Dash dot (2x) ____  .  ____  .  ____  .  ____
 72
65
 73
4
 40
6.096
 49
5.08
 74
0
 49
-0.508
 74
0
 49
0.0
 74
0
 49
-0.508
 74
0
  0
LTYPE
  5
3A
330
2
100
AcDbSymbolTableRecord
100
AcDbLinetypeTableRecord
  2
DASHDOT2
 70
0
  3
Dash dot (.5x) _ . _ . _ . _ . _ . _ . _ . _
 72
65
 73
4
 40
1.778
 49
1.27
 74
0
 49
-0.254
 74
0
 49
0.0
 74
0
 49
-0.254
 74
0
  0
LTYPE
  5
3B
330
2
100
AcDbSymbolTableRecord
100
AcDbLinetypeTableRecord
  2
DOT
 70
0
  3
Dot .  .  .  .  .  .  .  .  .  .  .  .  .  .  .  .
 72
65
 73
2
 40
0.508
 49
0.0
 74
0
 49
-0.508
 74
0
  0
LTYPE
  5
3C
330
2
100
AcDbSymbolTableRecord
100
AcDbLinetypeTableRecord
  2
DOTX2
 70
0
  3
Dot (2x) .    .    .    .    .    .    .    . 
 72
65
 73
2
 40
1.016
 49
0.0
 74
0
 49
-1.016
 74
0
  0
LTYPE
  5
3D
330
2
100
AcDbSymbolTableRecord
100
AcDbLinetypeTableRecord
  2
DOT2
 70
0
  3
Dot (.5) . . . . . . . . . . . . . . . . . . . 
 72
65
 73
2
 40
0.254
 49
0.0
 74
0
 49
-0.254
 74
0
  0
LTYPE
  5
3E
330
2
100
AcDbSymbolTableRecord
100
AcDbLinetypeTableRecord
  2
DIVIDE
 70
0
  3
Divide __ . . __ . . __ . . __ . . __ . . __
 72
65
 73
6
 40
4.064
 49
2.54
 74
0
 49
-0.508
 74
0
 49
0.0
 74
0
 49
-0.508
 74
0
 49
0.0
 74
0
 49
-0.508
 74
0
  0
LTYPE
  5
3F
330
2
100
AcDbSymbolTableRecord
100
AcDbLinetypeTableRecord
  2
DIVIDEX2
 70
0
  3
Divide (2x) ____  . .  ____  . .  ____  . .  ____
 72
65
 73
6
 40
6.604
 49
5.08
 74
0
 49
-0.508
 74
0
 49
0.0
 74
0
 49
-0.508
 74
0
 49
0.0
 74
0
 49
-0.508
 74
0
  0
LTYPE
  5
40
330
2
100
AcDbSymbolTableRecord
100
AcDbLinetypeTableRecord
  2
DIVIDE2
 70
0
  3
Divide(.5x) _ . _ . _ . _ . _ . _ . _ . _
 72
65
 73
6
 40
2.032
 49
1.27
 74
0
 49
-0.254
 74
0
 49
0.0
 74
0
 49
-0.254
 74
0
 49
0.0
 74
0
 49
-0.254
 74
0
  0
LTYPE
  5
90
330
2
100
AcDbSymbolTableRecord
100
AcDbLinetypeTableRecord
  2
KESIK
 70
0
  3

 72
65
 73
2
 40
3.0
 49
2.0
 74
0
 49
-1.0
 74
0
  0
LTYPE
  5
91
330
2
100
AcDbSymbolTableRecord
100
AcDbLinetypeTableRecord
  2
EKSENCIZGI
 70
0
  3

 72
65
 73
4
 40
12.0
 49
8.0
 74
0
 49
-2.0
 74
0
 49
0.0
 74
0
 49
-2.0
 74
0
  0
ENDTAB
  0
TABLE
  2
LAYER
  5
1
330
0
100
AcDbSymbolTable
 70
8
  0
LAYER
  5
27
330
1
100
AcDbSymbolTableRecord
100
AcDbLayerTableRecord
  2
0
 70
0
 62
7
  6
Continuous
370
-3
390
13
347
21
  0
LAYER
  5
28
330
1
100
AcDbSymbolTableRecord
100
AcDbLayerTableRecord
  2
Defpoints
 70
0
 62
7
  6
Continuous
290
0
370
-3
390
13
347
21
  0
LAYER
  5
8A
330
1
100
AcDbSymbolTableRecord
100
AcDbLayerTableRecord
  2
GORUNEN
 70
0
 62
7
  6
Continuous
370
50
390
13
347
21
  0
LAYER
  5
8B
330
1
100
AcDbSymbolTableRecord
100
AcDbLayerTableRecord
  2
GIZLI
 70
0
 62
8
  6
KESIK
370
35
390
13
347
21
  0
LAYER
  5
8C
330
1
100
AcDbSymbolTableRecord
100
AcDbLayerTableRecord
  2
EKSEN
 70
0
 62
1
  6
EKSENCIZGI
370
20
390
13
347
21
  0
LAYER
  5
8D
330
1
100
AcDbSymbolTableRecord
100
AcDbLayerTableRecord
  2
OLCU
 70
0
 62
4
  6
Continuous
370
25
390
13
347
21
  0
LAYER
  5
8E
330
1
100
AcDbSymbolTableRecord
100
AcDbLayerTableRecord
  2
YAZI
 70
0
 62
3
  6
Continuous
370
25
390
13
347
21
  0
LAYER
  5
8F
330
1
100
AcDbSymbolTableRecord
100
AcDbLayerTableRecord
  2
CERCEVE
 70
0
 62
5
  6
Continuous
370
50
390
13
347
21
  0
ENDTAB
  0
TABLE
  2
STYLE
  5
5
330
0
100
AcDbSymbolTable
 70
26
  0
STYLE
  5
29
330
5
100
AcDbSymbolTableRecord
100
AcDbTextStyleTableRecord
  2
Standard
 70
0
 40
0.0
 41
1.0
 50
0.0
 71
0
 42
2.5
  3
txt
  4

  0
STYLE
  5
41
330
5
100
AcDbSymbolTableRecord
100
AcDbTextStyleTableRecord
  2
OpenSans-Light
 70
0
 40
0.0
 41
1.0
 50
0.0
 71
0
 42
2.5
  3
OpenSans-Light.ttf
  4

  0
STYLE
  5
42
330
5
100
AcDbSymbolTableRecord
100
AcDbTextStyleTableRecord
  2
OpenSans-Light-Italic
 70
0
 40
0.0
 41
1.0
 50
0.0
 71
0
 42
2.5
  3
OpenSans-LightItalic.ttf
  4

  0
STYLE
  5
43
330
5
100
AcDbSymbolTableRecord
100
AcDbTextStyleTableRecord
  2
OpenSans
 70
0
 40
0.0
 41
1.0
 50
0.0
 71
0
 42
2.5
  3
OpenSans-Regular.ttf
  4

  0
STYLE
  5
44
330
5
100
AcDbSymbolTableRecord
100
AcDbTextStyleTableRecord
  2
OpenSans-Italic
 70
0
 40
0.0
 41
1.0
 50
0.0
 71
0
 42
2.5
  3
OpenSans-Italic.ttf
  4

  0
STYLE
  5
45
330
5
100
AcDbSymbolTableRecord
100
AcDbTextStyleTableRecord
  2
OpenSans-SemiBold
 70
0
 40
0.0
 41
1.0
 50
0.0
 71
0
 42
2.5
  3
OpenSans-SemiBold.ttf
  4

  0
STYLE
  5
46
330
5
100
AcDbSymbolTableRecord
100
AcDbTextStyleTableRecord
  2
OpenSans-SemiBoldItalic
 70
0
 40
0.0
 41
1.0
 50
0.0
 71
0
 42
2.5
  3
OpenSans-SemiBoldItalic.ttf
  4

  0
STYLE
  5
47
330
5
100
AcDbSymbolTableRecord
100
AcDbTextStyleTableRecord
  2
OpenSans-Bold
 70
0
 40
0.0
 41
1.0
 50
0.0
 71
0
 42
2.5
  3
OpenSans-Bold.ttf
  4

  0
STYLE
  5
48
330
5
100
AcDbSymbolTableRecord
100
AcDbTextStyleTableRecord
  2
OpenSans-BoldItalic
 70
0
 40
0.0
 41
1.0
 50
0.0
 71
0
 42
2.5
  3
OpenSans-BoldItalic.ttf
  4

  0
STYLE
  5
49
330
5
100
AcDbSymbolTableRecord
100
AcDbTextStyleTableRecord
  2
OpenSans-ExtraBold
 70
0
 40
0.0
 41
1.0
 50
0.0
 71
0
 42
2.5
  3
OpenSans-ExtraBold.ttf
  4

  0
STYLE
  5
4A
330
5
100
AcDbSymbolTableRecord
100
AcDbTextStyleTableRecord
  2
OpenSans-ExtraBoldItalic
 70
0
 40
0.0
 41
1.0
 50
0.0
 71
0
 42
2.5
  3
OpenSans-ExtraBoldItalic.ttf
  4

  0
STYLE
  5
4B
330
5
100
AcDbSymbolTableRecord
100
AcDbTextStyleTableRecord
  2
OpenSansCondensed-Bold
 70
0
 40
0.0
 41
1.0
 50
0.0
 71
0
 42
2.5
  3
OpenSansCondensed-Bold.ttf
  4

  0
STYLE
  5
4C
330
5
100
AcDbSymbolTableRecord
100
AcDbTextStyleTableRecord
  2
OpenSansCondensed-Light
 70
0
 40
0.0
 41
1.0
 50
0.0
 71
0
 42
2.5
  3
OpenSansCondensed-Light.ttf
  4

  0
STYLE
  5
4D
330
5
100
AcDbSymbolTableRecord
100
AcDbTextStyleTableRecord
  2
OpenSansCondensed-Italic
 70
0
 40
0.0
 41
1.0
 50
0.0
 71
0
 42
2.5
  3
OpenSansCondensed-LightItalic.ttf
  4

  0
STYLE
  5
4E
330
5
100
AcDbSymbolTableRecord
100
AcDbTextStyleTableRecord
  2
LiberationSans
 70
0
 40
0.0
 41
1.0
 50
0.0
 71
0
 42
2.5
  3
LiberationSans-Regular.ttf
  4

  0
STYLE
  5
4F
330
5
100
AcDbSymbolTableRecord
100
AcDbTextStyleTableRecord
  2
LiberationSans-Bold
 70
0
 40
0.0
 41
1.0
 50
0.0
 71
0
 42
2.5
  3
LiberationSans-Bold.ttf
  4

  0
STYLE
  5
50
330
5
100
AcDbSymbolTableRecord
100
AcDbTextStyleTableRecord
  2
LiberationSans-BoldItalic
 70
0
 40
0.0
 41
1.0
 50
0.0
 71
0
 42
2.5
  3
LiberationSans-BoldItalic.ttf
  4

  0
STYLE
  5
51
330
5
100
AcDbSymbolTableRecord
100
AcDbTextStyleTableRecord
  2
LiberationSans-Italic
 70
0
 40
0.0
 41
1.0
 50
0.0
 71
0
 42
2.5
  3
LiberationSans-Italic.ttf
  4

  0
STYLE
  5
52
330
5
100
AcDbSymbolTableRecord
100
AcDbTextStyleTableRecord
  2
LiberationSerif
 70
0
 40
0.0
 41
1.0
 50
0.0
 71
0
 42
2.5
  3
LiberationSerif-Regular.ttf
  4

  0
STYLE
  5
53
330
5
100
AcDbSymbolTableRecord
100
AcDbTextStyleTableRecord
  2
LiberationSerif-Bold
 70
0
 40
0.0
 41
1.0
 50
0.0
 71
0
 42
2.5
  3
LiberationSerif-Bold.ttf
  4

  0
STYLE
  5
54
330
5
100
AcDbSymbolTableRecord
100
AcDbTextStyleTableRecord
  2
LiberationSerif-BoldItalic
 70
0
 40
0.0
 41
1.0
 50
0.0
 71
0
 42
2.5
  3
LiberationSerif-BoldItalic.ttf
  4

  0
STYLE
  5
55
330
5
100
AcDbSymbolTableRecord
100
AcDbTextStyleTableRecord
  2
LiberationSerif-Italic
 70
0
 40
0.0
 41
1.0
 50
0.0
 71
0
 42
2.5
  3
LiberationSerif-Italic.ttf
  4

  0
STYLE
  5
56
330
5
100
AcDbSymbolTableRecord
100
AcDbTextStyleTableRecord
  2
LiberationMono
 70
0
 40
0.0
 41
1.0
 50
0.0
 71
0
 42
2.5
  3
LiberationMono-Regular.ttf
  4

  0
STYLE
  5
57
330
5
100
AcDbSymbolTableRecord
100
AcDbTextStyleTableRecord
  2
LiberationMono-Bold
 70
0
 40
0.0
 41
1.0
 50
0.0
 71
0
 42
2.5
  3
LiberationMono-Bold.ttf
  4

  0
STYLE
  5
58
330
5
100
AcDbSymbolTableRecord
100
AcDbTextStyleTableRecord
  2
LiberationMono-BoldItalic
 70
0
 40
0.0
 41
1.0
 50
0.0
 71
0
 42
2.5
  3
LiberationMono-BoldItalic.ttf
  4

  0
STYLE
  5
59
330
5
100
AcDbSymbolTableRecord
100
AcDbTextStyleTableRecord
  2
LiberationMono-Italic
 70
0
 40
0.0
 41
1.0
 50
0.0
 71
0
 42
2.5
  3
LiberationMono-Italic.ttf
  4

  0
ENDTAB
  0
TABLE
  2
VIEW
  5
7
330
0
100
AcDbSymbolTable
 70
0
  0
ENDTAB
  0
TABLE
  2
UCS
  5
6
330
0
100
AcDbSymbolTable
 70
0
  0
ENDTAB
  0
TABLE
  2
APPID
  5
3
330
0
100
AcDbSymbolTable
 70
3
  0
APPID
  5
2A
330
3
100
AcDbSymbolTableRecord
100
AcDbRegAppTableRecord
  2
ACAD
 70
0
  0
APPID
  5
1E6
330
3
100
AcDbSymbolTableRecord
100
AcDbRegAppTableRecord
  2
HATCHBACKGROUNDCOLOR
 70
0
  0
APPID
  5
1E7
330
3
100
AcDbSymbolTableRecord
100
AcDbRegAppTableRecord
  2
EZDXF
 70
0
  0
ENDTAB
  0
TABLE
  2
DIMSTYLE
  5
4
330
0
100
AcDbSymbolTable
 70
13
100
AcDbDimStyleTable
  0
DIMSTYLE
105
2B
330
4
100
AcDbSymbolTableRecord
100
AcDbDimStyleTableRecord
  2
Standard
 70
0
 40
1.0
 41
2.5
 42
0.625
 43
3.75
 44
1.25
 45
0.0
 46
0.0
 47
0.0
 48
0.0
 49
2.5
140
2.5
141
2.5
142
0.0
143
0.03937007874
144
1.0
145
0.0
146
1.0
147
0.625
148
0.0
 69
0
 70
0
 71
0
 72
0
 73
0
 74
0
 75
0
 76
0
 77
1
 78
8
 79
3
170
0
171
3
172
1
173
0
174
0
175
0
176
0
177
0
178
0
179
2
271
2
272
2
273
2
274
3
275
0
276
0
277
2
278
44
279
0
280
0
281
0
282
0
283
0
284
8
285
0
286
0
288
0
289
3
290
0
371
-2
372
-2
  0
DIMSTYLE
105
73
330
4
100
AcDbSymbolTableRecord
100
AcDbDimStyleTableRecord
  2
EZDXF
 70
0
 40
1.0
 41
0.175
 42
0.125
 43
3.75
 44
0.375
 45
0.0
 46
0.0
 47
0.0
 48
0.0
 49
2.5
140
0.25
141
2.5
142
0.0
143
0.03937007874
144
100.0
145
0.0
146
0.5
147
0.1
148
0.0
 69
0
 70
0
 71
0
 72
0
 73
0
 74
0
 75
0
 76
0
 77
1
 78
12
 79
3
170
0
171
3
172
1
173
0
174
0
175
0
176
0
177
0
178
0
179
2
271
2
272
2
273
2
274
3
275
0
276
0
277
2
278
46
279
2
280
0
281
0
282
0
283
0
284
8
285
0
286
0
288
1
289
3
290
0
340
4C
342
74
371
-2
372
-2
  0
DIMSTYLE
105
7C
330
4
100
AcDbSymbolTableRecord
100
AcDbDimStyleTableRecord
  2
EZ_M_100_H25_CM
 70
0
 40
1.0
 41
0.25
 42
0.125
 43
3.75
 44
0.375
 45
0.0
 46
0.0
 47
0.0
 48
0.0
 49
2.5
140
0.25
141
2.5
142
0.125
143
0.03937007874
144
100.0
145
0.0
146
0.5
147
0.1
148
0.0
 69
0
 70
0
 71
0
 72
0
 73
0
 74
0
 75
0
 76
0
 77
1
 78
12
 79
3
170
0
171
3
172
1
173
0
174
0
175
0
176
0
177
0
178
0
179
2
271
2
272
2
273
2
274
3
275
0
276
0
277
2
278
46
279
2
280
0
281
0
282
0
283
0
284
8
285
0
286
0
288
1
289
3
290
0
340
4C
371
-2
372
-2
  0
DIMSTYLE
105
7D
330
4
100
AcDbSymbolTableRecord
100
AcDbDimStyleTableRecord
  2
EZ_M_50_H25_CM
 70
0
 40
1.0
 41
0.125
 42
0.0625
 43
3.75
 44
0.1875
 45
0.0
 46
0.0
 47
0.0
 48
0.0
 49
2.5
140
0.125
141
2.5
142
0.0625
143
0.03937007874
144
100.0
145
0.0
146
0.5
147
0.05
148
0.0
 69
0
 70
0
 71
0
 72
0
 73
0
 74
0
 75
0
 76
0
 77
1
 78
12
 79
3
170
0
171
3
172
1
173
0
174
0
175
0
176
0
177
0
178
0
179
2
271
2
272
2
273
2
274
3
275
0
276
0
277
2
278
46
279
2
280
0
281
0
282
0
283
0
284
8
285
0
286
0
288
1
289
3
290
0
340
4C
371
-2
372
-2
  0
DIMSTYLE
105
7E
330
4
100
AcDbSymbolTableRecord
100
AcDbDimStyleTableRecord
  2
EZ_M_25_H25_CM
 70
0
 40
1.0
 41
0.0625
 42
0.03125
 43
3.75
 44
0.09375
 45
0.0
 46
0.0
 47
0.0
 48
0.0
 49
2.5
140
0.0625
141
2.5
142
0.03125
143
0.03937007874
144
100.0
145
0.0
146
0.5
147
0.025
148
0.0
 69
0
 70
0
 71
0
 72
0
 73
0
 74
0
 75
0
 76
0
 77
1
 78
12
 79
3
170
0
171
3
172
1
173
0
174
0
175
0
176
0
177
0
178
0
179
2
271
2
272
2
273
2
274
3
275
0
276
0
277
2
278
46
279
2
280
0
281
0
282
0
283
0
284
8
285
0
286
0
288
1
289
3
290
0
340
4C
371
-2
372
-2
  0
DIMSTYLE
105
7F
330
4
100
AcDbSymbolTableRecord
100
AcDbDimStyleTableRecord
  2
EZ_M_20_H25_CM
 70
0
 40
1.0
 41
0.05
 42
0.025
 43
3.75
 44
0.07500000000000001
 45
0.0
 46
0.0
 47
0.0
 48
0.0
 49
2.5
140
0.05
141
2.5
142
0.025
143
0.03937007874
144
100.0
145
0.0
146
0.5
147
0.020000000000000004
148
0.0
 69
0
 70
0
 71
0
 72
0
 73
0
 74
0
 75
0
 76
0
 77
1
 78
12
 79
3
170
0
171
3
172
1
173
0
174
0
175
0
176
0
177
0
178
0
179
2
271
2
272
2
273
2
274
3
275
0
276
0
277
2
278
46
279
2
280
0
281
0
282
0
283
0
284
8
285
0
286
0
288
1
289
3
290
0
340
4C
371
-2
372
-2
  0
DIMSTYLE
105
80
330
4
100
AcDbSymbolTableRecord
100
AcDbDimStyleTableRecord
  2
EZ_M_10_H25_CM
 70
0
 40
1.0
 41
0.025
 42
0.0125
 43
3.75
 44
0.037500000000000006
 45
0.0
 46
0.0
 47
0.0
 48
0.0
 49
2.5
140
0.025
141
2.5
142
0.0125
143
0.03937007874
144
100.0
145
0.0
146
0.5
147
0.010000000000000002
148
0.0
 69
0
 70
0
 71
0
 72
0
 73
0
 74
0
 75
0
 76
0
 77
1
 78
12
 79
3
170
0
171
3
172
1
173
0
174
0
175
0
176
0
177
0
178
0
179
2
271
2
272
2
273
2
274
3
275
0
276
0
277
2
278
46
279
2
280
0
281
0
282
0
283
0
284
8
285
0
286
0
288
1
289
3
290
0
340
4C
371
-2
372
-2
  0
DIMSTYLE
105
81
330
4
100
AcDbSymbolTableRecord
100
AcDbDimStyleTableRecord
  2
EZ_M_5_H25_CM
 70
0
 40
1.0
 41
0.0125
 42
0.00625
 43
3.75
 44
0.018750000000000003
 45
0.0
 46
0.0
 47
0.0
 48
0.0
 49
2.5
140
0.0125
141
2.5
142
0.00625
143
0.03937007874
144
100.0
145
0.0
146
0.5
147
0.005000000000000001
148
0.0
 69
0
 70
0
 71
0
 72
0
 73
0
 74
0
 75
0
 76
0
 77
1
 78
12
 79
3
170
0
171
3
172
1
173
0
174
0
175
0
176
0
177
0
178
0
179
2
271
2
272
2
273
2
274
3
275
0
276
0
277
2
278
46
279
2
280
0
281
0
282
0
283
0
284
8
285
0
286
0
288
1
289
3
290
0
340
4C
371
-2
372
-2
  0
DIMSTYLE
105
82
330
4
100
AcDbSymbolTableRecord
100
AcDbDimStyleTableRecord
  2
EZ_M_1_H25_CM
 70
0
 40
1.0
 41
0.0025
 42
0.00125
 43
3.75
 44
0.00375
 45
0.0
 46
0.0
 47
0.0
 48
0.0
 49
2.5
140
0.0025
141
2.5
142
0.00125
143
0.03937007874
144
100.0
145
0.0
146
0.5
147
0.001
148
0.0
 69
0
 70
0
 71
0
 72
0
 73
0
 74
0
 75
0
 76
0
 77
1
 78
12
 79
3
170
0
171
3
172
1
173
0
174
0
175
0
176
0
177
0
178
0
179
2
271
2
272
2
273
2
274
3
275
0
276
0
277
2
278
46
279
2
280
0
281
0
282
0
283
0
284
8
285
0
286
0
288
1
289
3
290
0
340
4C
371
-2
372
-2
  0
DIMSTYLE
105
83
330
4
100
AcDbSymbolTableRecord
100
AcDbDimStyleTableRecord
  2
EZ_RADIUS
 70
0
 40
1.0
 41
0.25
 42
0.125
 43
3.75
 44
0.375
 45
0.0
 46
0.0
 47
0.0
 48
0.0
 49
2.5
140
0.25
141
0.0
142
0.0
143
0.03937007874
144
100.0
145
0.0
146
0.5
147
0.1
148
0.0
 69
0
 70
0
 71
0
 72
0
 73
0
 74
0
 75
0
 76
0
 77
1
 78
12
 79
3
170
0
171
3
172
0
173
0
174
0
175
0
176
0
177
0
178
0
179
2
271
2
272
2
273
2
274
3
275
0
276
0
277
2
278
46
279
1
280
0
281
0
282
0
283
0
284
8
285
0
286
0
288
1
289
3
290
0
340
4C
342
84
371
-2
372
-2
  0
DIMSTYLE
105
88
330
4
100
AcDbSymbolTableRecord
100
AcDbDimStyleTableRecord
  2
EZ_RADIUS_INSIDE
 70
0
 40
1.0
 41
0.25
 42
0.125
 43
3.75
 44
0.375
 45
0.0
 46
0.0
 47
0.0
 48
0.0
 49
2.5
140
0.25
141
0.0
142
0.0
143
0.03937007874
144
100.0
145
0.0
146
0.5
147
0.1
148
0.0
 69
0
 70
0
 71
0
 72
0
 73
0
 74
0
 75
0
 76
0
 77
0
 78
12
 79
3
170
0
171
3
172
0
173
0
174
1
175
0
176
0
177
0
178
0
179
2
271
2
272
2
273
2
274
3
275
0
276
0
277
2
278
46
279
0
280
0
281
0
282
0
283
0
284
8
285
0
286
0
288
1
289
0
290
0
340
4C
342
84
371
-2
372
-2
  0
DIMSTYLE
105
89
330
4
100
AcDbSymbolTableRecord
100
AcDbDimStyleTableRecord
  2
EZ_CURVED
 70
0
 40
1.0
 41
0.25
 42
0.125
 43
3.75
 44
0.375
 45
0.0
 46
0.0
 47
0.0
 48
0.0
 49
2.5
140
0.25
141
2.5
142
0.0
143
0.03937007874
144
100.0
145
0.0
146
0.5
147
0.1
148
0.0
 69
0
 70
0
 71
0
 72
0
 73
0
 74
0
 75
0
 76
0
 77
1
 78
12
 79
2
 90
2
170
0
171
3
172
1
173
0
174
0
175
0
176
0
177
0
178
0
179
2
271
2
272
2
273
2
274
3
275
0
276
0
277
2
278
46
279
2
280
0
281
0
282
0
283
0
284
8
285
0
286
0
288
1
289
3
290
0
340
4C
371
-2
372
-2
  0
DIMSTYLE
105
92
330
4
100
AcDbSymbolTableRecord
100
AcDbDimStyleTableRecord
  2
PF_MM
 70
0
 40
1.0
 41
3.4666912058339636
 42
2.166682003646227
 43
3.75
 44
2.6000184043754726
 45
0.0
 46
0.0
 47
0.0
 48
0.0
 49
2.5
140
4.333364007292454
141
2.5
142
0.0
143
0.03937007874
144
1.0
145
0.0
146
1.0
147
1.5166774025523588
148
0.0
 69
0
 70
0
 71
0
 72
0
 73
0
 74
0
 75
0
 76
0
 77
1
 78
8
 79
3
170
0
171
3
172
1
173
0
174
0
175
0
176
4
177
4
178
3
179
2
271
1
272
2
273
2
274
3
275
0
276
0
277
2
278
44
279
0
280
0
281
0
282
0
283
0
284
8
285
0
286
0
288
0
289
3
290
0
371
-2
372
-2
  0
ENDTAB
  0
TABLE
  2
BLOCK_RECORD
  5
9
330
0
100
AcDbSymbolTable
 70
12
  0
BLOCK_RECORD
  5
17
330
9
100
AcDbSymbolTableRecord
100
AcDbBlockTableRecord
  2
*Model_Space
340
1A
 70
0
280
1
281
0
  0
BLOCK_RECORD
  5
1B
330
9
100
AcDbSymbolTableRecord
100
AcDbBlockTableRecord
  2
*Paper_Space
340
1E
 70
0
280
1
281
0
  0
BLOCK_RECORD
  5
74
330
9
100
AcDbSymbolTableRecord
100
AcDbBlockTableRecord
  2
_ARCHTICK
340
0
 70
0
280
1
281
0
  0
BLOCK_RECORD
  5
78
330
9
100
AcDbSymbolTableRecord
100
AcDbBlockTableRecord
  2
_CLOSEDFILLED
340
0
 70
0
280
1
281
0
  0
BLOCK_RECORD
  5
84
330
9
100
AcDbSymbolTableRecord
100
AcDbBlockTableRecord
  2
_CLOSEDBLANK
340
0
 70
0
280
1
281
0
  0
BLOCK_RECORD
  5
DB
330
9
100
AcDbSymbolTableRecord
100
AcDbBlockTableRecord
  2
*D1
340
0
 70
0
280
1
281
0
  0
BLOCK_RECORD
  5
EA
330
9
100
AcDbSymbolTableRecord
100
AcDbBlockTableRecord
  2
*D2
340
0
 70
0
280
1
281
0
  0
BLOCK_RECORD
  5
13C
330
9
100
AcDbSymbolTableRecord
100
AcDbBlockTableRecord
  2
*D3
340
0
 70
0
280
1
281
0
  0
BLOCK_RECORD
  5
14B
330
9
100
AcDbSymbolTableRecord
100
AcDbBlockTableRecord
  2
*D4
340
0
 70
0
280
1
281
0
  0
BLOCK_RECORD
  5
1A9
330
9
100
AcDbSymbolTableRecord
100
AcDbBlockTableRecord
  2
*D5
340
0
 70
0
280
1
281
0
  0
BLOCK_RECORD
  5
1B8
330
9
100
AcDbSymbolTableRecord
100
AcDbBlockTableRecord
  2
*D6
340
0
 70
0
280
1
281
0
  0
BLOCK_RECORD
  5
1CD
330
9
100
AcDbSymbolTableRecord
100
AcDbBlockTableRecord
  2
*D7
340
0
 70
0
280
1
281
0
  0
ENDTAB
  0
ENDSEC
  0
SECTION
  2
BLOCKS
  0
BLOCK
  5
18
330
17
100
AcDbEntity
  8
0
100
AcDbBlockBegin
  2
*Model_Space
 70
0
 10
0.0
 20
0.0
 30
0.0
  3
*Model_Space
  1

  0
ENDBLK
  5
19
330
17
100
AcDbEntity
  8
0
100
AcDbBlockEnd
  0
BLOCK
  5
1C
330
1B
100
AcDbEntity
  8
0
100
AcDbBlockBegin
  2
*Paper_Space
 70
0
 10
0.0
 20
0.0
 30
0.0
  3
*Paper_Space
  1

  0
ENDBLK
  5
1D
330
1B
100
AcDbEntity
  8
0
100
AcDbBlockEnd
  0
BLOCK
  5
75
330
74
100
AcDbEntity
  8
0
100
AcDbBlockBegin
  2
_ARCHTICK
 70
0
 10
0.0
 20
0.0
 30
0.0
  3
_ARCHTICK
  1

  0
LWPOLYLINE
  5
77
330
74
100
AcDbEntity
  8
0
  6
BYBLOCK
 62
0
100
AcDbPolyline
 90
2
 70
0
 43
0.15
 10
-0.5
 20
-0.5
 10
0.5
 20
0.5
  0
ENDBLK
  5
76
330
74
100
AcDbEntity
  8
0
100
AcDbBlockEnd
  0
BLOCK
  5
79
330
78
100
AcDbEntity
  8
0
100
AcDbBlockBegin
  2
_CLOSEDFILLED
 70
0
 10
0.0
 20
0.0
 30
0.0
  3
_CLOSEDFILLED
  1

  0
SOLID
  5
7B
330
78
100
AcDbEntity
  8
0
  6
BYBLOCK
 62
0
100
AcDbTrace
 10
-1.0
 20
0.16439898372402537
 30
0.0
 11
0.0
 21
0.0
 31
0.0
 12
-1.0
 22
-0.16439898372402537
 32
0.0
 13
-1.0
 23
-0.16439898372402537
 33
0.0
  0
ENDBLK
  5
7A
330
78
100
AcDbEntity
  8
0
100
AcDbBlockEnd
  0
BLOCK
  5
85
330
84
100
AcDbEntity
  8
0
100
AcDbBlockBegin
  2
_CLOSEDBLANK
 70
0
 10
0.0
 20
0.0
 30
0.0
  3
_CLOSEDBLANK
  1

  0
LWPOLYLINE
  5
87
330
84
100
AcDbEntity
  8
0
  6
BYBLOCK
 62
0
100
AcDbPolyline
 90
3
 70
1
 10
-1.0
 20
0.16439898372402537
 10
0.0
 20
0.0
 10
-1.0
 20
-0.16439898372402537
  0
ENDBLK
  5
86
330
84
100
AcDbEntity
  8
0
100
AcDbBlockEnd
  0
BLOCK
  5
DC
330
DB
100
AcDbEntity
  8
0
100
AcDbBlockBegin
  2
*D1
 70
1
 10
0.0
 20
0.0
 30
0.0
  3
*D1
  1

  0
LINE
  5
DE
330
DB
100
AcDbEntity
  8
0
 62
4
100
AcDbLine
 10
0.0
 20
-2.166682003646227
 30
0.0
 11
0.0
 21
-19.93347443354529
 31
0.0
  0
LINE
  5
DF
330
DB
100
AcDbEntity
  8
0
 62
4
100
AcDbLine
 10
195.0
 20
-2.166682003646227
 30
0.0
 11
195.0
 21
-19.93347443354529
 31
0.0
  0
INSERT
  5
E0
330
DB
100
AcDbEntity
  8
OLCU
 62
4
100
AcDbBlockReference
  2
_CLOSEDFILLED
 10
0.0
 20
-17.333456029169817
 30
0.0
 41
3.4666912058339636
 42
3.4666912058339636
 50
180.0
  0
INSERT
  5
E2
330
DB
100
AcDbEntity
  8
OLCU
 62
4
100
AcDbBlockReference
  2
_CLOSEDFILLED
 10
195.0
 20
-17.333456029169817
 30
0.0
 41
3.4666912058339636
 42
3.4666912058339636
  0
LINE
  5
E4
330
DB
100
AcDbEntity
  8
0
 62
4
100
AcDbLine
 10
3.4666912058339636
 20
-17.333456029169817
 30
0.0
 11
191.53330879416603
 21
-17.333456029169817
 31
0.0
  0
MTEXT
  5
E5
330
DB
100
AcDbEntity
  8
OLCU
 62
3
100
AcDbMText
 10
97.5
 20
-13.65009662297123
 30
0.0
 40
4.333364007292454
 71
5
  1
195
  7
OpenSansCondensed-Light
  0
POINT
  5
E6
330
DB
100
AcDbEntity
  8
Defpoints
100
AcDbPoint
 10
0.0
 20
-17.333456029169817
 30
0.0
  0
POINT
  5
E7
330
DB
100
AcDbEntity
  8
Defpoints
100
AcDbPoint
 10
0.0
 20
0.0
 30
0.0
  0
POINT
  5
E8
330
DB
100
AcDbEntity
  8
Defpoints
100
AcDbPoint
 10
195.0
 20
0.0
 30
0.0
  0
ENDBLK
  5
DD
330
DB
100
AcDbEntity
  8
0
100
AcDbBlockEnd
  0
BLOCK
  5
EB
330
EA
100
AcDbEntity
  8
0
100
AcDbBlockBegin
  2
*D2
 70
1
 10
0.0
 20
0.0
 30
0.0
  3
*D2
  1

  0
LINE
  5
ED
330
EA
100
AcDbEntity
  8
0
 62
4
100
AcDbLine
 10
-2.166682003646227
 20
0.0
 30
0.0
 11
-19.93347443354529
 21
0.0
 31
0.0
  0
LINE
  5
EE
330
EA
100
AcDbEntity
  8
0
 62
4
100
AcDbLine
 10
-2.166682003646227
 20
8.0
 30
0.0
 11
-19.93347443354529
 21
8.0
 31
0.0
  0
INSERT
  5
EF
330
EA
100
AcDbEntity
  8
OLCU
 62
4
100
AcDbBlockReference
  2
_CLOSEDFILLED
 10
-17.333456029169817
 20
0.0
 30
0.0
 41
3.4666912058339636
 42
3.4666912058339636
 50
90.0
  0
INSERT
  5
F1
330
EA
100
AcDbEntity
  8
OLCU
 62
4
100
AcDbBlockReference
  2
_CLOSEDFILLED
 10
-17.333456029169817
 20
8.0
 30
0.0
 41
3.4666912058339636
 42
3.4666912058339636
 50
270.0
  0
LINE
  5
F3
330
EA
100
AcDbEntity
  8
0
 62
4
100
AcDbLine
 10
-17.333456029169817
 20
-3.4666912058339636
 30
0.0
 11
-17.333456029169817
 21
-6.933382411667927
 31
0.0
  0
LINE
  5
F4
330
EA
100
AcDbEntity
  8
0
 62
4
100
AcDbLine
 10
-17.333456029169817
 20
11.466691205833964
 30
0.0
 11
-17.333456029169817
 21
14.933382411667928
 31
0.0
  0
LINE
  5
F5
330
EA
100
AcDbEntity
  8
0
 62
4
100
AcDbLine
 10
-17.333456029169817
 20
0.0
 30
0.0
 11
-17.333456029169817
 21
8.0
 31
0.0
  0
MTEXT
  5
F6
330
EA
100
AcDbEntity
  8
OLCU
 62
3
100
AcDbMText
 10
-21.016815435368404
 20
4.0
 30
0.0
 40
4.333364007292454
 71
5
  1
8
  7
OpenSansCondensed-Light
 50
90.0
  0
POINT
  5
F7
330
EA
100
AcDbEntity
  8
Defpoints
100
AcDbPoint
 10
-17.333456029169817
 20
0.0
 30
0.0
  0
POINT
  5
F8
330
EA
100
AcDbEntity
  8
Defpoints
100
AcDbPoint
 10
0.0
 20
0.0
 30
0.0
  0
POINT
  5
F9
330
EA
100
AcDbEntity
  8
Defpoints
100
AcDbPoint
 10
0.0
 20
8.0
 30
0.0
  0
ENDBLK
  5
EC
330
EA
100
AcDbEntity
  8
0
100
AcDbBlockEnd
  0
BLOCK
  5
13D
330
13C
100
AcDbEntity
  8
0
100
AcDbBlockBegin
  2
*D3
 70
1
 10
0.0
 20
0.0
 30
0.0
  3
*D3
  1

  0
LINE
  5
13F
330
13C
100
AcDbEntity
  8
0
 62
4
100
AcDbLine
 10
0.0
 20
-102.00174841566988
 30
0.0
 11
0.0
 21
-119.76854084556894
 31
0.0
  0
LINE
  5
140
330
13C
100
AcDbEntity
  8
0
 62
4
100
AcDbLine
 10
195.0
 20
-102.00174841566988
 30
0.0
 11
195.0
 21
-119.76854084556894
 31
0.0
  0
INSERT
  5
141
330
13C
100
AcDbEntity
  8
OLCU
 62
4
100
AcDbBlockReference
  2
_CLOSEDFILLED
 10
0.0
 20
-117.16852244119346
 30
0.0
 41
3.4666912058339636
 42
3.4666912058339636
 50
180.0
  0
INSERT
  5
143
330
13C
100
AcDbEntity
  8
OLCU
 62
4
100
AcDbBlockReference
  2
_CLOSEDFILLED
 10
195.0
 20
-117.16852244119346
 30
0.0
 41
3.4666912058339636
 42
3.4666912058339636
  0
LINE
  5
145
330
13C
100
AcDbEntity
  8
0
 62
4
100
AcDbLine
 10
3.4666912058339636
 20
-117.16852244119346
 30
0.0
 11
191.53330879416603
 21
-117.16852244119346
 31
0.0
  0
MTEXT
  5
146
330
13C
100
AcDbEntity
  8
OLCU
 62
3
100
AcDbMText
 10
97.5
 20
-113.48516303499487
 30
0.0
 40
4.333364007292454
 71
5
  1
195
  7
OpenSansCondensed-Light
  0
POINT
  5
147
330
13C
100
AcDbEntity
  8
Defpoints
100
AcDbPoint
 10
0.0
 20
-117.16852244119346
 30
0.0
  0
POINT
  5
148
330
13C
100
AcDbEntity
  8
Defpoints
100
AcDbPoint
 10
0.0
 20
-99.83506641202365
 30
0.0
  0
POINT
  5
149
330
13C
100
AcDbEntity
  8
Defpoints
100
AcDbPoint
 10
195.0
 20
-99.83506641202365
 30
0.0
  0
ENDBLK
  5
13E
330
13C
100
AcDbEntity
  8
0
100
AcDbBlockEnd
  0
BLOCK
  5
14C
330
14B
100
AcDbEntity
  8
0
100
AcDbBlockBegin
  2
*D4
 70
1
 10
0.0
 20
0.0
 30
0.0
  3
*D4
  1

  0
LINE
  5
14E
330
14B
100
AcDbEntity
  8
0
 62
4
100
AcDbLine
 10
-2.166682003646227
 20
-99.83506641202365
 30
0.0
 11
-19.93347443354529
 21
-99.83506641202365
 31
0.0
  0
LINE
  5
14F
330
14B
100
AcDbEntity
  8
0
 62
4
100
AcDbLine
 10
-2.166682003646227
 20
-49.83506641202364
 30
0.0
 11
-19.93347443354529
 21
-49.83506641202364
 31
0.0
  0
INSERT
  5
150
330
14B
100
AcDbEntity
  8
OLCU
 62
4
100
AcDbBlockReference
  2
_CLOSEDFILLED
 10
-17.333456029169817
 20
-99.83506641202365
 30
0.0
 41
3.4666912058339636
 42
3.4666912058339636
 50
270.0
  0
INSERT
  5
152
330
14B
100
AcDbEntity
  8
OLCU
 62
4
100
AcDbBlockReference
  2
_CLOSEDFILLED
 10
-17.333456029169817
 20
-49.83506641202364
 30
0.0
 41
3.4666912058339636
 42
3.4666912058339636
 50
90.0
  0
LINE
  5
154
330
14B
100
AcDbEntity
  8
0
 62
4
100
AcDbLine
 10
-17.333456029169817
 20
-96.36837520618968
 30
0.0
 11
-17.333456029169817
 21
-53.301757617857604
 31
0.0
  0
MTEXT
  5
155
330
14B
100
AcDbEntity
  8
OLCU
 62
3
100
AcDbMText
 10
-21.016815435368404
 20
-74.83506641202365
 30
0.0
 40
4.333364007292454
 71
5
  1
50
  7
OpenSansCondensed-Light
 50
90.0
  0
POINT
  5
156
330
14B
100
AcDbEntity
  8
Defpoints
100
AcDbPoint
 10
-17.333456029169817
 20
-99.83506641202365
 30
0.0
  0
POINT
  5
157
330
14B
100
AcDbEntity
  8
Defpoints
100
AcDbPoint
 10
0.0
 20
-99.83506641202365
 30
0.0
  0
POINT
  5
158
330
14B
100
AcDbEntity
  8
Defpoints
100
AcDbPoint
 10
0.0
 20
-49.83506641202364
 30
0.0
  0
ENDBLK
  5
14D
330
14B
100
AcDbEntity
  8
0
100
AcDbBlockEnd
  0
BLOCK
  5
1AA
330
1A9
100
AcDbEntity
  8
0
100
AcDbBlockBegin
  2
*D5
 70
1
 10
0.0
 20
0.0
 30
0.0
  3
*D5
  1

  0
LINE
  5
1AC
330
1A9
100
AcDbEntity
  8
0
 62
4
100
AcDbLine
 10
244.83506641202365
 20
-2.166682003646227
 30
0.0
 11
244.83506641202365
 21
-19.93347443354529
 31
0.0
  0
LINE
  5
1AD
330
1A9
100
AcDbEntity
  8
0
 62
4
100
AcDbLine
 10
294.83506641202365
 20
-2.166682003646227
 30
0.0
 11
294.83506641202365
 21
-19.93347443354529
 31
0.0
  0
INSERT
  5
1AE
330
1A9
100
AcDbEntity
  8
OLCU
 62
4
100
AcDbBlockReference
  2
_CLOSEDFILLED
 10
244.83506641202365
 20
-17.333456029169817
 30
0.0
 41
3.4666912058339636
 42
3.4666912058339636
 50
180.0
  0
INSERT
  5
1B0
330
1A9
100
AcDbEntity
  8
OLCU
 62
4
100
AcDbBlockReference
  2
_CLOSEDFILLED
 10
294.83506641202365
 20
-17.333456029169817
 30
0.0
 41
3.4666912058339636
 42
3.4666912058339636
  0
LINE
  5
1B2
330
1A9
100
AcDbEntity
  8
0
 62
4
100
AcDbLine
 10
248.30175761785762
 20
-17.333456029169817
 30
0.0
 11
291.3683752061897
 21
-17.333456029169817
 31
0.0
  0
MTEXT
  5
1B3
330
1A9
100
AcDbEntity
  8
OLCU
 62
3
100
AcDbMText
 10
269.83506641202365
 20
-13.65009662297123
 30
0.0
 40
4.333364007292454
 71
5
  1
50
  7
OpenSansCondensed-Light
  0
POINT
  5
1B4
330
1A9
100
AcDbEntity
  8
Defpoints
100
AcDbPoint
 10
244.83506641202365
 20
-17.333456029169817
 30
0.0
  0
POINT
  5
1B5
330
1A9
100
AcDbEntity
  8
Defpoints
100
AcDbPoint
 10
244.83506641202365
 20
0.0
 30
0.0
  0
POINT
  5
1B6
330
1A9
100
AcDbEntity
  8
Defpoints
100
AcDbPoint
 10
294.83506641202365
 20
0.0
 30
0.0
  0
ENDBLK
  5
1AB
330
1A9
100
AcDbEntity
  8
0
100
AcDbBlockEnd
  0
BLOCK
  5
1B9
330
1B8
100
AcDbEntity
  8
0
100
AcDbBlockBegin
  2
*D6
 70
1
 10
0.0
 20
0.0
 30
0.0
  3
*D6
  1

  0
LINE
  5
1BB
330
1B8
100
AcDbEntity
  8
0
 62
4
100
AcDbLine
 10
242.66838440837742
 20
0.0
 30
0.0
 11
224.90159197847836
 21
0.0
 31
0.0
  0
LINE
  5
1BC
330
1B8
100
AcDbEntity
  8
0
 62
4
100
AcDbLine
 10
242.66838440837742
 20
8.0
 30
0.0
 11
224.90159197847836
 21
8.0
 31
0.0
  0
INSERT
  5
1BD
330
1B8
100
AcDbEntity
  8
OLCU
 62
4
100
AcDbBlockReference
  2
_CLOSEDFILLED
 10
227.50161038285384
 20
0.0
 30
0.0
 41
3.4666912058339636
 42
3.4666912058339636
 50
90.0
  0
INSERT
  5
1BF
330
1B8
100
AcDbEntity
  8
OLCU
 62
4
100
AcDbBlockReference
  2
_CLOSEDFILLED
 10
227.50161038285384
 20
8.0
 30
0.0
 41
3.4666912058339636
 42
3.4666912058339636
 50
270.0
  0
LINE
  5
1C1
330
1B8
100
AcDbEntity
  8
0
 62
4
100
AcDbLine
 10
227.50161038285384
 20
-3.4666912058339636
 30
0.0
 11
227.50161038285384
 21
-6.933382411667927
 31
0.0
  0
LINE
  5
1C2
330
1B8
100
AcDbEntity
  8
0
 62
4
100
AcDbLine
 10
227.50161038285384
 20
11.466691205833964
 30
0.0
 11
227.50161038285384
 21
14.933382411667928
 31
0.0
  0
LINE
  5
1C3
330
1B8
100
AcDbEntity
  8
0
 62
4
100
AcDbLine
 10
227.50161038285384
 20
0.0
 30
0.0
 11
227.50161038285384
 21
8.0
 31
0.0
  0
MTEXT
  5
1C4
330
1B8
100
AcDbEntity
  8
OLCU
 62
3
100
AcDbMText
 10
223.81825097665526
 20
4.0
 30
0.0
 40
4.333364007292454
 71
5
  1
8
  7
OpenSansCondensed-Light
 50
90.0
  0
POINT
  5
1C5
330
1B8
100
AcDbEntity
  8
Defpoints
100
AcDbPoint
 10
227.50161038285384
 20
0.0
 30
0.0
  0
POINT
  5
1C6
330
1B8
100
AcDbEntity
  8
Defpoints
100
AcDbPoint
 10
244.83506641202365
 20
0.0
 30
0.0
  0
POINT
  5
1C7
330
1B8
100
AcDbEntity
  8
Defpoints
100
AcDbPoint
 10
244.83506641202365
 20
8.0
 30
0.0
  0
ENDBLK
  5
1BA
330
1B8
100
AcDbEntity
  8
0
100
AcDbBlockEnd
  0
BLOCK
  5
1CE
330
1CD
100
AcDbEntity
  8
0
100
AcDbBlockBegin
  2
*D7
 70
1
 10
0.0
 20
0.0
 30
0.0
  3
*D7
  1

  0
INSERT
  5
1D0
330
1CD
100
AcDbEntity
  8
OLCU
 62
4
100
AcDbBlockReference
  2
_CLOSEDFILLED
 10
58.67157287525381
 20
-73.66349353676983
 30
0.0
 41
3.4666912058339636
 42
3.4666912058339636
 50
44.999999999999915
  0
INSERT
  5
1D2
330
1CD
100
AcDbEntity
  8
OLCU
 62
4
100
AcDbBlockReference
  2
_CLOSEDFILLED
 10
64.32842712474618
 20
-68.00663928727747
 30
0.0
 41
3.4666912058339636
 42
3.4666912058339636
 50
44.999999999999915
  0
LINE
  5
1D4
330
1CD
100
AcDbEntity
  8
0
 62
4
100
AcDbLine
 10
56.22025201532884
 20
-76.1148143966948
 30
0.0
 11
61.877106264821215
 21
-70.45796014720243
 31
0.0
  0
LINE
  5
1D5
330
1CD
100
AcDbEntity
  8
0
 62
4
100
AcDbLine
 10
56.22025201532884
 20
-76.1148143966948
 30
0.0
 11
33.698741614768196
 21
-98.63632479725538
 31
0.0
  0
MTEXT
  5
1D6
330
1CD
100
AcDbEntity
  8
OLCU
 62
3
100
AcDbMText
 10
41.81874196326966
 20
-85.30726762141339
 30
0.0
 40
4.333364007292454
 71
5
  1
2x %%c8
  7
OpenSansCondensed-Light
 50
44.999999999999915
  0
POINT
  5
1D7
330
1CD
100
AcDbEntity
  8
Defpoints
100
AcDbPoint
 10
61.5
 20
-70.83506641202365
 30
0.0
  0
POINT
  5
1D8
330
1CD
100
AcDbEntity
  8
Defpoints
100
AcDbPoint
 10
58.67157287525381
 20
-73.66349353676983
 30
0.0
  0
ENDBLK
  5
1CF
330
1CD
100
AcDbEntity
  8
0
100
AcDbBlockEnd
  0
ENDSEC
  0
SECTION
  2
ENTITIES
  0
LWPOLYLINE
  5
93
330
17
100
AcDbEntity
  8
GORUNEN
100
AcDbPolyline
 90
2
 70
0
 10
195.0
 20
0.0
 10
190.0
 20
0.0
  0
LWPOLYLINE
  5
94
330
17
100
AcDbEntity
  8
GORUNEN
100
AcDbPolyline
 90
2
 70
0
 10
190.0
 20
0.0
 10
4.999999999999986
 20
0.0
  0
LWPOLYLINE
  5
95
330
17
100
AcDbEntity
  8
GORUNEN
100
AcDbPolyline
 90
2
 70
0
 10
0.0
 20
0.0
 10
5.0
 20
0.0
  0
LWPOLYLINE
  5
96
330
17
100
AcDbEntity
  8
GORUNEN
100
AcDbPolyline
 90
2
 70
0
 10
4.440892098500626e-16
 20
8.0
 10
5.0
 20
8.0
  0
LWPOLYLINE
  5
97
330
17
100
AcDbEntity
  8
GORUNEN
100
AcDbPolyline
 90
2
 70
0
 10
5.0
 20
8.0
 10
190.0
 20
8.0
  0
LWPOLYLINE
  5
98
330
17
100
AcDbEntity
  8
GORUNEN
100
AcDbPolyline
 90
2
 70
0
 10
195.0
 20
8.0
 10
190.0
 20
8.0
  0
LWPOLYLINE
  5
99
330
17
100
AcDbEntity
  8
GORUNEN
100
AcDbPolyline
 90
2
 70
0
 10
4.440892098500626e-16
 20
8.0
 10
4.440892098500626e-16
 20
0.0
  0
LWPOLYLINE
  5
9A
330
17
100
AcDbEntity
  8
GORUNEN
100
AcDbPolyline
 90
2
 70
0
 10
5.0
 20
8.0
 10
5.0
 20
0.0
  0
LWPOLYLINE
  5
9B
330
17
100
AcDbEntity
  8
GORUNEN
100
AcDbPolyline
 90
2
 70
0
 10
190.0
 20
8.0
 10
190.0
 20
0.0
  0
LWPOLYLINE
  5
9C
330
17
100
AcDbEntity
  8
GORUNEN
100
AcDbPolyline
 90
2
 70
0
 10
195.0
 20
8.0
 10
195.0
 20
0.0
  0
LWPOLYLINE
  5
9D
330
17
100
AcDbEntity
  8
GIZLI
100
AcDbPolyline
 90
2
 70
0
 10
57.49999999999999
 20
0.0
 10
57.49999999999999
 20
8.0
  0
LWPOLYLINE
  5
9E
330
17
100
AcDbEntity
  8
GIZLI
100
AcDbPolyline
 90
2
 70
0
 10
65.49999999999999
 20
8.0
 10
57.49999999999999
 20
8.0
  0
LWPOLYLINE
  5
9F
330
17
100
AcDbEntity
  8
GIZLI
100
AcDbPolyline
 90
2
 70
0
 10
65.49999999999999
 20
0.0
 10
65.49999999999999
 20
8.0
  0
LWPOLYLINE
  5
A0
330
17
100
AcDbEntity
  8
GIZLI
100
AcDbPolyline
 90
2
 70
0
 10
65.49999999999999
 20
0.0
 10
57.49999999999999
 20
0.0
  0
LWPOLYLINE
  5
A1
330
17
100
AcDbEntity
  8
GIZLI
100
AcDbPolyline
 90
2
 70
0
 10
3.790369850507281
 20
0.0
 10
4.440892098500626e-16
 20
0.0
  0
LWPOLYLINE
  5
A2
330
17
100
AcDbEntity
  8
GIZLI
100
AcDbPolyline
 90
2
 70
0
 10
3.7903698504979526
 20
0.0
 10
17.671116632786564
 20
0.0
  0
LWPOLYLINE
  5
A3
330
17
100
AcDbEntity
  8
GIZLI
100
AcDbPolyline
 90
2
 70
0
 10
22.509595885699994
 20
0.0
 10
17.67111663279566
 20
0.0
  0
LWPOLYLINE
  5
A4
330
17
100
AcDbEntity
  8
GIZLI
100
AcDbPolyline
 90
2
 70
0
 10
22.50959588569998
 20
0.0
 10
172.49040411430002
 20
0.0
  0
LWPOLYLINE
  5
A5
330
17
100
AcDbEntity
  8
GIZLI
100
AcDbPolyline
 90
2
 70
0
 10
177.32888337089108
 20
0.0
 10
172.49040411430002
 20
0.0
  0
LWPOLYLINE
  5
A6
330
17
100
AcDbEntity
  8
GIZLI
100
AcDbPolyline
 90
2
 70
0
 10
191.20963015041593
 20
0.0
 10
177.32888337090333
 20
0.0
  0
LWPOLYLINE
  5
A7
330
17
100
AcDbEntity
  8
GIZLI
100
AcDbPolyline
 90
2
 70
0
 10
195.0
 20
0.0
 10
191.20963015040343
 20
0.0
  0
LWPOLYLINE
  5
A8
330
17
100
AcDbEntity
  8
GIZLI
100
AcDbPolyline
 90
2
 70
0
 10
57.49999999999999
 20
0.0
 10
65.49999999999999
 20
0.0
  0
LWPOLYLINE
  5
A9
330
17
100
AcDbEntity
  8
GIZLI
100
AcDbPolyline
 90
2
 70
0
 10
137.5
 20
0.0
 10
129.5
 20
0.0
  0
LWPOLYLINE
  5
AA
330
17
100
AcDbEntity
  8
GIZLI
100
AcDbPolyline
 90
2
 70
0
 10
129.5
 20
0.0
 10
137.5
 20
0.0
  0
LWPOLYLINE
  5
AB
330
17
100
AcDbEntity
  8
GIZLI
100
AcDbPolyline
 90
2
 70
0
 10
41.49999999999999
 20
0.0
 10
42.49999999999999
 20
0.0
  0
LWPOLYLINE
  5
AC
330
17
100
AcDbEntity
  8
GIZLI
100
AcDbPolyline
 90
2
 70
0
 10
42.49999999999999
 20
0.0
 10
41.49999999999999
 20
0.0
  0
LWPOLYLINE
  5
AD
330
17
100
AcDbEntity
  8
GIZLI
100
AcDbPolyline
 90
2
 70
0
 10
41.499999999999986
 20
0.0
 10
8.499999999999986
 20
0.0
  0
LWPOLYLINE
  5
AE
330
17
100
AcDbEntity
  8
GIZLI
100
AcDbPolyline
 90
2
 70
0
 10
8.499999999999986
 20
0.0
 10
7.499999999999986
 20
0.0
  0
LWPOLYLINE
  5
AF
330
17
100
AcDbEntity
  8
GIZLI
100
AcDbPolyline
 90
2
 70
0
 10
7.5
 20
0.0
 10
8.5
 20
0.0
  0
LWPOLYLINE
  5
B0
330
17
100
AcDbEntity
  8
GIZLI
100
AcDbPolyline
 90
2
 70
0
 10
8.5
 20
0.0
 10
41.5
 20
0.0
  0
LWPOLYLINE
  5
B1
330
17
100
AcDbEntity
  8
GIZLI
100
AcDbPolyline
 90
2
 70
0
 10
153.5
 20
0.0
 10
186.5
 20
0.0
  0
LWPOLYLINE
  5
B2
330
17
100
AcDbEntity
  8
GIZLI
100
AcDbPolyline
 90
2
 70
0
 10
186.5
 20
0.0
 10
187.5
 20
0.0
  0
LWPOLYLINE
  5
B3
330
17
100
AcDbEntity
  8
GIZLI
100
AcDbPolyline
 90
2
 70
0
 10
187.5
 20
0.0
 10
186.5
 20
0.0
  0
LWPOLYLINE
  5
B4
330
17
100
AcDbEntity
  8
GIZLI
100
AcDbPolyline
 90
2
 70
0
 10
186.5
 20
0.0
 10
153.5
 20
0.0
  0
LWPOLYLINE
  5
B5
330
17
100
AcDbEntity
  8
GIZLI
100
AcDbPolyline
 90
2
 70
0
 10
153.5
 20
0.0
 10
152.5
 20
0.0
  0
LWPOLYLINE
  5
B6
330
17
100
AcDbEntity
  8
GIZLI
100
AcDbPolyline
 90
2
 70
0
 10
152.5
 20
0.0
 10
153.5
 20
0.0
  0
LWPOLYLINE
  5
B7
330
17
100
AcDbEntity
  8
GIZLI
100
AcDbPolyline
 90
2
 70
0
 10
57.49999999999999
 20
8.0
 10
65.49999999999999
 20
8.0
  0
LWPOLYLINE
  5
B8
330
17
100
AcDbEntity
  8
GIZLI
100
AcDbPolyline
 90
2
 70
0
 10
3.7903698505
 20
8.0
 10
17.671116632799993
 20
8.0
  0
LWPOLYLINE
  5
B9
330
17
100
AcDbEntity
  8
GIZLI
100
AcDbPolyline
 90
2
 70
0
 10
3.7903698505
 20
8.0
 10
4.440892098500626e-16
 20
8.0
  0
LWPOLYLINE
  5
BA
330
17
100
AcDbEntity
  8
GIZLI
100
AcDbPolyline
 90
2
 70
0
 10
195.0
 20
8.0
 10
191.20963015040002
 20
8.0
  0
LWPOLYLINE
  5
BB
330
17
100
AcDbEntity
  8
GIZLI
100
AcDbPolyline
 90
2
 70
0
 10
191.20963015040002
 20
8.0
 10
177.32888337090003
 20
8.0
  0
LWPOLYLINE
  5
BC
330
17
100
AcDbEntity
  8
GIZLI
100
AcDbPolyline
 90
2
 70
0
 10
177.32888337090003
 20
8.0
 10
172.49040411430002
 20
8.0
  0
LWPOLYLINE
  5
BD
330
17
100
AcDbEntity
  8
GIZLI
100
AcDbPolyline
 90
2
 70
0
 10
22.509595885699994
 20
8.0
 10
172.49040411430002
 20
8.0
  0
LWPOLYLINE
  5
BE
330
17
100
AcDbEntity
  8
GIZLI
100
AcDbPolyline
 90
2
 70
0
 10
22.509595885699994
 20
8.0
 10
17.671116632799993
 20
8.0
  0
LWPOLYLINE
  5
BF
330
17
100
AcDbEntity
  8
GIZLI
100
AcDbPolyline
 90
2
 70
0
 10
153.5
 20
8.0
 10
186.5
 20
8.0
  0
LWPOLYLINE
  5
C0
330
17
100
AcDbEntity
  8
GIZLI
100
AcDbPolyline
 90
2
 70
0
 10
187.5
 20
8.0
 10
186.5
 20
8.0
  0
LWPOLYLINE
  5
C1
330
17
100
AcDbEntity
  8
GIZLI
100
AcDbPolyline
 90
2
 70
0
 10
186.5
 20
8.0
 10
187.5
 20
8.0
  0
LWPOLYLINE
  5
C2
330
17
100
AcDbEntity
  8
GIZLI
100
AcDbPolyline
 90
2
 70
0
 10
153.5
 20
8.0
 10
186.5
 20
8.0
  0
LWPOLYLINE
  5
C3
330
17
100
AcDbEntity
  8
GIZLI
100
AcDbPolyline
 90
2
 70
0
 10
152.5
 20
8.0
 10
153.5
 20
8.0
  0
LWPOLYLINE
  5
C4
330
17
100
AcDbEntity
  8
GIZLI
100
AcDbPolyline
 90
2
 70
0
 10
153.5
 20
8.0
 10
152.5
 20
8.0
  0
LWPOLYLINE
  5
C5
330
17
100
AcDbEntity
  8
GIZLI
100
AcDbPolyline
 90
2
 70
0
 10
8.499999999999986
 20
8.0
 10
7.499999999999986
 20
8.0
  0
LWPOLYLINE
  5
C6
330
17
100
AcDbEntity
  8
GIZLI
100
AcDbPolyline
 90
2
 70
0
 10
8.5
 20
8.0
 10
41.5
 20
8.0
  0
LWPOLYLINE
  5
C7
330
17
100
AcDbEntity
  8
GIZLI
100
AcDbPolyline
 90
2
 70
0
 10
42.49999999999999
 20
8.0
 10
41.49999999999999
 20
8.0
  0
LWPOLYLINE
  5
C8
330
17
100
AcDbEntity
  8
GIZLI
100
AcDbPolyline
 90
2
 70
0
 10
41.49999999999999
 20
8.0
 10
42.49999999999999
 20
8.0
  0
LWPOLYLINE
  5
C9
330
17
100
AcDbEntity
  8
GIZLI
100
AcDbPolyline
 90
2
 70
0
 10
8.5
 20
8.0
 10
41.5
 20
8.0
  0
LWPOLYLINE
  5
CA
330
17
100
AcDbEntity
  8
GIZLI
100
AcDbPolyline
 90
2
 70
0
 10
7.5
 20
8.0
 10
8.5
 20
8.0
  0
LWPOLYLINE
  5
CB
330
17
100
AcDbEntity
  8
GIZLI
100
AcDbPolyline
 90
2
 70
0
 10
137.5
 20
8.0
 10
129.5
 20
8.0
  0
LWPOLYLINE
  5
CC
330
17
100
AcDbEntity
  8
GIZLI
100
AcDbPolyline
 90
2
 70
0
 10
129.5
 20
8.0
 10
137.5
 20
8.0
  0
LWPOLYLINE
  5
CD
330
17
100
AcDbEntity
  8
GIZLI
100
AcDbPolyline
 90
2
 70
0
 10
195.0
 20
0.0
 10
195.0
 20
8.0
  0
LWPOLYLINE
  5
CE
330
17
100
AcDbEntity
  8
GIZLI
100
AcDbPolyline
 90
2
 70
0
 10
4.440892098500626e-16
 20
0.0
 10
4.440892098500626e-16
 20
8.0
  0
LWPOLYLINE
  5
CF
330
17
100
AcDbEntity
  8
GIZLI
100
AcDbPolyline
 90
2
 70
0
 10
137.5
 20
0.0
 10
137.5
 20
8.0
  0
LWPOLYLINE
  5
D0
330
17
100
AcDbEntity
  8
GIZLI
100
AcDbPolyline
 90
2
 70
0
 10
129.5
 20
0.0
 10
129.5
 20
8.0
  0
LWPOLYLINE
  5
D1
330
17
100
AcDbEntity
  8
GIZLI
100
AcDbPolyline
 90
2
 70
0
 10
7.5
 20
0.0
 10
7.5
 20
8.0
  0
LWPOLYLINE
  5
D2
330
17
100
AcDbEntity
  8
GIZLI
100
AcDbPolyline
 90
2
 70
0
 10
7.499999999999986
 20
0.0
 10
7.499999999999986
 20
8.0
  0
LWPOLYLINE
  5
D3
330
17
100
AcDbEntity
  8
GIZLI
100
AcDbPolyline
 90
2
 70
0
 10
42.49999999999999
 20
0.0
 10
42.49999999999999
 20
8.0
  0
LWPOLYLINE
  5
D4
330
17
100
AcDbEntity
  8
GIZLI
100
AcDbPolyline
 90
2
 70
0
 10
42.49999999999999
 20
0.0
 10
42.49999999999999
 20
8.0
  0
LWPOLYLINE
  5
D5
330
17
100
AcDbEntity
  8
GIZLI
100
AcDbPolyline
 90
2
 70
0
 10
152.5
 20
0.0
 10
152.5
 20
8.0
  0
LWPOLYLINE
  5
D6
330
17
100
AcDbEntity
  8
GIZLI
100
AcDbPolyline
 90
2
 70
0
 10
152.5
 20
0.0
 10
152.5
 20
8.0
  0
LWPOLYLINE
  5
D7
330
17
100
AcDbEntity
  8
GIZLI
100
AcDbPolyline
 90
2
 70
0
 10
187.5
 20
0.0
 10
187.5
 20
8.0
  0
LWPOLYLINE
  5
D8
330
17
100
AcDbEntity
  8
GIZLI
100
AcDbPolyline
 90
2
 70
0
 10
187.5
 20
0.0
 10
187.5
 20
8.0
  0
TEXT
  5
D9
330
17
100
AcDbEntity
  8
YAZI
100
AcDbText
 10
0.0
 20
-13.866764823335854
 30
0.0
 40
5.63337320948019
  1
ON
 11
0.0
 21
-13.866764823335854
 31
0.0
100
AcDbText
  0
DIMENSION
  5
DA
330
17
100
AcDbEntity
  8
OLCU
100
AcDbDimension
280
0
  2
*D1
  3
PF_MM
 10
0.0
 20
-17.333456029169817
 30
0.0
 11
97.5
 21
-13.65009662297123
 31
0.0
 70
32
 71
5
  1
<>
100
AcDbAlignedDimension
 13
0.0
 23
0.0
 33
0.0
 14
195.0
 24
0.0
 34
0.0
 50
0.0
100
AcDbRotatedDimension
  0
DIMENSION
  5
E9
330
17
100
AcDbEntity
  8
OLCU
100
AcDbDimension
280
0
  2
*D2
  3
PF_MM
 10
-17.333456029169817
 20
0.0
 30
0.0
 11
-21.016815435368404
 21
4.0
 31
0.0
 70
32
 71
5
  1
<>
100
AcDbAlignedDimension
 13
0.0
 23
0.0
 33
0.0
 14
0.0
 24
8.0
 34
0.0
 50
90.0
100
AcDbRotatedDimension
  0
LWPOLYLINE
  5
FA
330
17
100
AcDbEntity
  8
GORUNEN
100
AcDbPolyline
 90
64
 70
0
 10
65.49999999999999
 20
-70.83506641202365
 10
65.49502768487568
 20
-70.63568286938086
 10
65.4801231014616
 20
-70.43679502564038
 10
65.4553233049005
 20
-70.23889734731895
 10
65.42068995139417
 20
-70.04248183922606
 10
65.3763091449163
 20
-69.84803682126247
 10
65.32229122314456
 20
-69.65604571438004
 10
65.25877048314362
 20
-69.46698583872097
 10
65.18590484748162
 20
-69.28132722692487
 10
65.10387547160967
 20
-69.09953145555342
 10
65.0128862934809
 20
-68.92205049753838
 10
64.91316352652862
 20
-68.74932559850566
 10
64.80495509726397
 20
-68.58178617976915
 10
64.68853002889168
 20
-68.41984877072174
 10
64.5641777724759
 20
-68.26391597327749
 10
64.4322074873193
 20
-68.11437546093998
 10
64.29294727234428
 20
-67.97159901498478
 10
64.14674335038742
 20
-67.83594160015272
 10
63.993959207434926
 20
-67.70774048215154
 10
63.834974688939155
 20
-67.58731438916023
 10
63.67018505546303
 20
-67.47496271942057
 10
63.49999999999999
 20
-67.37096479688589
 10
63.32484262941264
 20
-67.27557917677777
 10
63.14514841252244
 20
-67.18904300277696
 10
62.96136409746558
 20
-67.11157141744684
 10
62.773946601006735
 20
-67.04335702735511
 10
62.58336187257201
 20
-66.9845694242236
 10
62.39008373582525
 20
-66.93535476329636
 10
62.19459271066771
 20
-66.89583539997483
 10
61.99737481858993
 20
-66.86610958562297
 10
61.79892037434569
 20
-66.84625122329894
 10
61.59972276695229
 20
-66.83630968402039
 10
61.4002772330477
 20
-66.83630968402039
 10
61.2010796256543
 20
-66.84625122329894
 10
61.00262518141005
 20
-66.86610958562297
 10
60.80540728933227
 20
-66.89583539997481
 10
60.609916264174736
 20
-66.93535476329635
 10
60.41663812742797
 20
-66.9845694242236
 10
60.22605339899326
 20
-67.04335702735511
 10
60.038635902534416
 20
-67.11157141744684
 10
59.85485158747755
 20
-67.18904300277696
 10
59.67515737058734
 20
-67.27557917677777
 10
59.49999999999999
 20
-67.37096479688589
 10
59.329814944536956
 20
-67.47496271942056
 10
59.16502531106084
 20
-67.58731438916023
 10
59.00604079256506
 20
-67.70774048215154
 10
58.853256649612554
 20
-67.83594160015272
 10
58.7070527276557
 20
-67.97159901498478
 10
58.56779251268068
 20
-68.11437546093998
 10
58.43582222752408
 20
-68.26391597327749
 10
58.3114699711083
 20
-68.41984877072174
 10
58.19504490273601
 20
-68.58178617976917
 10
58.086836473471365
 20
-68.74932559850566
 10
57.987113706519075
 20
-68.92205049753838
 10
57.89612452839032
 20
-69.09953145555343
 10
57.81409515251836
 20
-69.28132722692487
 10
57.74122951685636
 20
-69.46698583872099
 10
57.677708776855425
 20
-69.65604571438004
 10
57.62369085508368
 20
-69.84803682126248
 10
57.57931004860581
 20
-70.04248183922607
 10
57.544676695099476
 20
-70.23889734731897
 10
57.519876898538385
 20
-70.4367950256404
 10
57.504972315124306
 20
-70.63568286938087
 10
57.49999999999999
 20
-70.83506641202365
  0
LWPOLYLINE
  5
FB
330
17
100
AcDbEntity
  8
GORUNEN
100
AcDbPolyline
 90
64
 70
0
 10
57.49999999999999
 20
-70.83506641202365
 10
57.504972315124306
 20
-71.03444995466644
 10
57.519876898538385
 20
-71.23333779840692
 10
57.544676695099476
 20
-71.43123547672835
 10
57.57931004860582
 20
-71.62765098482124
 10
57.62369085508368
 20
-71.82209600278483
 10
57.67770877685543
 20
-72.01408710966727
 10
57.741229516856365
 20
-72.20314698532633
 10
57.81409515251836
 20
-72.38880559712243
 10
57.89612452839032
 20
-72.5706013684939
 10
57.98711370651908
 20
-72.74808232650892
 10
58.08683647347137
 20
-72.92080722554165
 10
58.195044902736015
 20
-73.08834664427815
 10
58.31146997110831
 20
-73.25028405332557
 10
58.435822227524085
 20
-73.40621685076982
 10
58.5677925126807
 20
-73.55575736310733
 10
58.70705272765571
 20
-73.69853380906252
 10
58.85325664961256
 20
-73.83419122389459
 10
59.00604079256507
 20
-73.96239234189578
 10
59.165025311060845
 20
-74.08281843488709
 10
59.32981494453697
 20
-74.19517010462674
 10
59.50000000000001
 20
-74.29916802716141
 10
59.67515737058736
 20
-74.39455364726953
 10
59.85485158747756
 20
-74.48108982127034
 10
60.03863590253443
 20
-74.55856140660048
 10
60.22605339899327
 20
-74.62677579669219
 10
60.416638127427994
 20
-74.6855633998237
 10
60.60991626417476
 20
-74.73477806075095
 10
60.805407289332294
 20
-74.77429742407249
 10
61.002625181410075
 20
-74.80402323842435
 10
61.201079625654316
 20
-74.82388160074836
 10
61.400277233047724
 20
-74.83382314002691
 10
61.59972276695231
 20
-74.83382314002691
 10
61.79892037434571
 20
-74.82388160074836
 10
61.99737481858996
 20
-74.80402323842434
 10
62.19459271066774
 20
-74.77429742407247
 10
62.39008373582528
 20
-74.73477806075094
 10
62.58336187257204
 20
-74.68556339982369
 10
62.773946601006756
 20
-74.62677579669217
 10
62.9613640974656
 20
-74.55856140660046
 10
63.14514841252247
 20
-74.48108982127033
 10
63.32484262941267
 20
-74.3945536472695
 10
63.50000000000002
 20
-74.29916802716139
 10
63.67018505546306
 20
-74.19517010462673
 10
63.83497468893918
 20
-74.08281843488706
 10
63.993959207434955
 20
-73.96239234189575
 10
64.14674335038745
 20
-73.83419122389456
 10
64.2929472723443
 20
-73.6985338090625
 10
64.43220748731932
 20
-73.5557573631073
 10
64.56417777247593
 20
-73.40621685076978
 10
64.6885300288917
 20
-73.25028405332553
 10
64.804955097264
 20
-73.0883466442781
 10
64.91316352652863
 20
-72.92080722554161
 10
65.01288629348093
 20
-72.7480823265089
 10
65.10387547160968
 20
-72.57060136849384
 10
65.18590484748164
 20
-72.38880559712238
 10
65.25877048314364
 20
-72.20314698532628
 10
65.32229122314457
 20
-72.01408710966723
 10
65.37630914491632
 20
-71.82209600278478
 10
65.42068995139418
 20
-71.6276509848212
 10
65.45532330490052
 20
-71.4312354767283
 10
65.4801231014616
 20
-71.23333779840686
 10
65.49502768487568
 20
-71.0344499546664
 10
65.49999999999999
 20
-70.83506641202365
  0
LWPOLYLINE
  5
FC
330
17
100
AcDbEntity
  8
GORUNEN
100
AcDbPolyline
 90
2
 70
0
 10
3.7903698505
 20
-53.890021067173656
 10
17.671116632799993
 20
-50.42916219397066
  0
LWPOLYLINE
  5
FD
330
17
100
AcDbEntity
  8
GORUNEN
100
AcDbPolyline
 90
34
 70
0
 10
3.7903698505
 20
-53.890021067213645
 10
3.549210678239515
 20
-53.95659221885527
 10
3.335249191023529
 20
-54.02674792175771
 10
3.145557410729928
 20
-54.09806695256935
 10
2.9589139641908786
 20
-54.17701570289025
 10
2.7756270334498963
 20
-54.2634657785395
 10
2.595998441561865
 20
-54.35727566859379
 10
2.420323323623665
 20
-54.458291166450906
 10
2.2488897978048024
 20
-54.56634579089309
 10
2.08197863637804
 20
-54.68126120715058
 10
1.919862936750025
 20
-54.80284764796497
 10
1.7628077924919214
 20
-54.9309043346527
 10
1.6110699643700377
 20
-55.065219898168515
 10
1.4648975513764562
 20
-55.205572800168845
 10
1.324529661759664
 20
-55.35173175407532
 10
1.1901960840551817
 20
-55.50345614613814
 10
1.0621169581161936
 20
-55.660496456499615
 10
0.940502446144178
 20
-55.82259468025751
 10
0.8255524037195343
 20
-55.98948474852854
 10
0.7174560508322148
 20
-56.160892949511826
 10
0.6163916429123533
 20
-56.33653834955229
 10
0.5225261418608973
 20
-56.516133214204146
 10
0.43601488708023384
 20
-56.69938342929433
 10
0.3570012665048212
 20
-56.88598892198591
 10
0.28561638763181874
 20
-57.075644081841595
 10
0.22197874855171396
 20
-57.26803818188712
 10
0.16619390897895725
 20
-57.46285579967471
 10
0.11835416128258736
 20
-57.65977723834654
 10
0.07853820151685964
 20
-57.85847894769815
 10
0.046810800451882795
 20
-58.05863394524192
 10
0.023222474604240873
 20
-58.259912237270484
 10
0.0078091572676251
 20
-58.461981239920185
 10
0.0019523005454100684
 20
-58.60168457350835
 10
4.440892098500626e-16
 20
-58.74149454455365
  0
LWPOLYLINE
  5
FE
330
17
100
AcDbEntity
  8
GORUNEN
100
AcDbPolyline
 90
2
 70
0
 10
5.708324438136181e-16
 20
-94.83506641202365
 10
3.4206578541917665e-16
 20
-58.741494544553646
  0
LWPOLYLINE
  5
FF
330
17
100
AcDbEntity
  8
GORUNEN
100
AcDbPolyline
 90
2
 70
0
 10
4.440892098500626e-16
 20
-94.83506641202365
 10
5.0
 20
-99.83506641202365
  0
LWPOLYLINE
  5
100
330
17
100
AcDbEntity
  8
GORUNEN
100
AcDbPolyline
 90
2
 70
0
 10
5.0
 20
-99.83506641202365
 10
190.0
 20
-99.83506641202365
  0
LWPOLYLINE
  5
101
330
17
100
AcDbEntity
  8
GORUNEN
100
AcDbPolyline
 90
2
 70
0
 10
195.0
 20
-94.83506641202365
 10
190.0
 20
-99.83506641202365
  0
LWPOLYLINE
  5
102
330
17
100
AcDbEntity
  8
GORUNEN
100
AcDbPolyline
 90
2
 70
0
 10
195.0
 20
-94.83506641202365
 10
195.0
 20
-58.741494544553646
  0
LWPOLYLINE
  5
103
330
17
100
AcDbEntity
  8
GORUNEN
100
AcDbPolyline
 90
34
 70
0
 10
195.0
 20
-58.74149454455365
 10
194.9937490458082
 20
-58.4913937845449
 10
194.97744019257755
 20
-58.26681559780458
 10
194.95413109460551
 20
-58.06550473964597
 10
194.9226814489832
 20
-57.86530583580801
 10
194.88314127864518
 20
-57.666548975587226
 10
194.83557487203635
 20
-57.46956125146861
 10
194.78006045414264
 20
-57.27466633806219
 10
194.7166898575217
 20
-57.082184071039606
 10
194.64556819333342
 20
-56.89243002607064
 10
194.56681352237067
 20
-56.70571509775978
 10
194.4805565260898
 20
-56.52234507858279
 10
194.38694017764143
 20
-56.34262023782325
 10
194.28611941290094
 20
-56.16683490050911
 10
194.17826080149914
 20
-55.99527702634927
 10
194.0635422178529
 20
-55.828227788670105
 10
193.9421525121959
 20
-55.66596115335206
 10
193.81429118160895
 20
-55.508743457766144
 10
193.68016804105105
 20
-55.35683298971057
 10
193.54000289438957
 20
-55.21047956634723
 10
193.39402520543126
 20
-55.06992411313832
 10
193.2424737689526
 20
-54.93539824278284
 10
193.08559638173065
 20
-54.80712383415318
 10
192.92364951357345
 20
-54.68531261123168
 10
192.7568979783509
 20
-54.57016572204717
 10
192.58561460502514
 20
-54.461873317611534
 10
192.41007990868138
 20
-54.36061413085627
 10
192.23058176155845
 20
-54.266555055569036
 10
192.0474150640794
 20
-54.17985072533022
 10
191.86088141588215
 20
-54.10064309244949
 10
191.67128878685014
 20
-54.029061006902324
 10
191.478951188143
 20
-53.96521979526664
 10
191.34481471103598
 20
-53.92573904547917
 10
191.20963015040002
 20
-53.89002106744365
  0
LWPOLYLINE
  5
104
330
17
100
AcDbEntity
  8
GORUNEN
100
AcDbPolyline
 90
2
 70
0
 10
191.20963015040002
 20
-53.890021067393654
 10
177.32888337090003
 20
-50.429162194880654
  0
LWPOLYLINE
  5
105
330
17
100
AcDbEntity
  8
GORUNEN
100
AcDbPolyline
 90
7
 70
0
 10
177.32888337090003
 20
-50.42916219492465
 10
176.53478243496437
 20
-50.2483178519887
 10
175.73397156251485
 20
-50.09998568500069
 10
174.92778952388753
 20
-49.98433007573541
 10
174.11757508941855
 20
-49.90151540596762
 10
173.304667029444
 20
-49.851706057472114
 10
172.49040411430002
 20
-49.83506641202366
  0
LWPOLYLINE
  5
106
330
17
100
AcDbEntity
  8
GORUNEN
100
AcDbPolyline
 90
2
 70
0
 10
22.509595885699994
 20
-49.83506641202364
 10
172.49040411430002
 20
-49.83506641202364
  0
LWPOLYLINE
  5
107
330
17
100
AcDbEntity
  8
GORUNEN
100
AcDbPolyline
 90
7
 70
0
 10
22.509595885699994
 20
-49.83506641202364
 10
21.69533297116342
 20
-49.851706057446364
 10
20.8824249118074
 20
-49.90151540586503
 10
20.072210477962493
 20
-49.98433007550541
 10
19.266028439959253
 20
-50.09998568459329
 10
18.46521756812824
 20
-50.24831785135445
 10
17.671116632799993
 20
-50.42916219401466
  0
LWPOLYLINE
  5
108
330
17
100
AcDbEntity
  8
GORUNEN
100
AcDbPolyline
 90
2
 70
0
 10
153.5
 20
-61.83506641202364
 10
186.5
 20
-61.83506641202364
  0
LWPOLYLINE
  5
109
330
17
100
AcDbEntity
  8
GORUNEN
100
AcDbPolyline
 90
34
 70
0
 10
187.5
 20
-62.83506641202365
 10
187.498842403801
 20
-62.787347124605496
 10
187.4953809688334
 20
-62.739700013755865
 10
187.48963535782227
 20
-62.69224975902128
 10
187.4816287432009
 20
-62.645117530240164
 10
187.47138780711063
 20
-62.59842098754284
 10
187.45894274140088
 20
-62.55227428135152
 10
187.44432724762916
 20
-62.506788052380344
 10
187.42757853706118
 20
-62.46206943163532
 10
187.40873733067062
 20
-62.41822204041438
 10
187.38784785913933
 20
-62.37534599030734
 10
187.36495786285727
 20
-62.33353788319591
 10
187.34011859192245
 20
-62.29289081125373
 10
187.31338480614102
 20
-62.253494356946305
 10
187.28481477502723
 20
-62.21543459303107
 10
187.2544702778034
 20
-62.178794082557324
 10
187.22241660339998
 20
-62.14365187886631
 10
187.1887225504555
 20
-62.11008352559113
 10
187.15346042731665
 20
-62.07816105665681
 10
187.1167060520381
 20
-62.04795299628027
 10
187.07853875238274
 20
-62.01952435897033
 10
187.03904136582148
 20
-61.99293664952771
 10
186.99830023953336
 20
-61.968247863045015
 10
186.95640523040555
 20
-61.94551248490677
 10
186.9134497050333
 20
-61.92478149078941
 10
186.8695305397199
 20
-61.90610234666123
 10
186.8247481204768
 20
-61.88951900878245
 10
186.77920634302362
 20
-61.87507192370519
 10
186.73301261278792
 20
-61.86279802827348
 10
186.68627784490545
 20
-61.85273074962322
 10
186.63911646422008
 20
-61.84490000518223
 10
186.59164640528377
 20
-61.839332202670235
 10
186.54585425148812
 20
-61.83613536282061
 10
186.5
 20
-61.83506641202364
  0
LWPOLYLINE
  5
10A
330
17
100
AcDbEntity
  8
GORUNEN
100
AcDbPolyline
 90
2
 70
0
 10
187.5
 20
-67.83506641202365
 10
187.5
 20
-62.83506641202364
  0
LWPOLYLINE
  5
10B
330
17
100
AcDbEntity
  8
GORUNEN
100
AcDbPolyline
 90
34
 70
0
 10
186.5
 20
-68.83506641202365
 10
186.54771928741815
 20
-68.83390881582464
 10
186.5953663982678
 20
-68.83044738085702
 10
186.64281665300237
 20
-68.8247017698459
 10
186.6899488817835
 20
-68.81669515522455
 10
186.73664542448083
 20
-68.80645421913427
 10
186.78279213067214
 20
-68.79400915342451
 10
186.82827835964332
 20
-68.77939365965281
 10
186.87299698038834
 20
-68.76264494908483
 10
186.91684437160927
 20
-68.74380374269427
 10
186.95972042171633
 20
-68.72291427116298
 10
187.00152852882775
 20
-68.70002427488092
 10
187.04217560076992
 20
-68.6751850039461
 10
187.08157205507734
 20
-68.64845121816467
 10
187.1196318189926
 20
-68.61988118705088
 10
187.15627232946633
 20
-68.58953668982704
 10
187.19141453315734
 20
-68.55748301542363
 10
187.2249828864325
 20
-68.52378896247917
 10
187.25690535536685
 20
-68.4885268393403
 10
187.2871134157434
 20
-68.45177246406175
 10
187.31554205305332
 20
-68.41360516440638
 10
187.34212976249594
 20
-68.37410777784513
 10
187.36681854897864
 20
-68.33336665155701
 10
187.38955392711688
 20
-68.2914716424292
 10
187.41028492123425
 20
-68.24851611705694
 10
187.42896406536244
 20
-68.20459695174354
 10
187.4455474032412
 20
-68.15981453250046
 10
187.45999448831844
 20
-68.11427275504725
 10
187.47226838375016
 20
-68.06807902481155
 10
187.48233566240043
 20
-68.0213442569291
 10
187.4901664068414
 20
-67.97418287624373
 10
187.4957342093534
 20
-67.9267128173074
 10
187.49893104920304
 20
-67.88092066351177
 10
187.5
 20
-67.83506641202365
  0
LWPOLYLINE
  5
10C
330
17
100
AcDbEntity
  8
GORUNEN
100
AcDbPolyline
 90
2
 70
0
 10
153.5
 20
-68.83506641202365
 10
186.5
 20
-68.83506641202365
  0
LWPOLYLINE
  5
10D
330
17
100
AcDbEntity
  8
GORUNEN
100
AcDbPolyline
 90
34
 70
0
 10
152.5
 20
-67.83506641202365
 10
152.50115759619953
 20
-67.8827856994418
 10
152.50461903116857
 20
-67.93043281029144
 10
152.51036464218186
 20
-67.97788306502602
 10
152.51837125680595
 20
-68.02501529380714
 10
152.52861219289935
 20
-68.07171183650446
 10
152.54105725861245
 20
-68.11785854269577
 10
152.55567275238764
 20
-68.16334477166694
 10
152.5724214629591
 20
-68.20806339241197
 10
152.59126266935306
 20
-68.25191078363292
 10
152.6121521408875
 20
-68.29478683373996
 10
152.63504213717243
 20
-68.33659494085138
 10
152.65988140810975
 20
-68.37724201279357
 10
152.68661519389323
 20
-68.416638467101
 10
152.7151852250086
 20
-68.45469823101624
 10
152.74552972223353
 20
-68.49133874148997
 10
152.77758339663745
 20
-68.52648094518099
 10
152.8112774495819
 20
-68.56004929845616
 10
152.84653957272022
 20
-68.59197176739048
 10
152.88329394799763
 20
-68.62217982776703
 10
152.9214612476514
 20
-68.65060846507697
 10
152.96095863421056
 20
-68.6771961745196
 10
153.00169976049614
 20
-68.70188496100228
 10
153.04359476962105
 20
-68.72462033914053
 10
153.08655029499013
 20
-68.74535133325789
 10
153.13046946030016
 20
-68.76403047738607
 10
153.17525187953973
 20
-68.78061381526484
 10
153.22079365698946
 20
-68.7950609003421
 10
153.2669873872218
 20
-68.80733479577381
 10
153.31372215510117
 20
-68.81740207442408
 10
153.36088353578384
 20
-68.82523281886506
 10
153.40835359471805
 20
-68.83080062137705
 10
153.45414574851236
 20
-68.83399746122669
 10
153.5
 20
-68.83506641202365
  0
LWPOLYLINE
  5
10E
330
17
100
AcDbEntity
  8
GORUNEN
100
AcDbPolyline
 90
2
 70
0
 10
152.5
 20
-67.83506641202365
 10
152.5
 20
-62.83506641202365
  0
LWPOLYLINE
  5
10F
330
17
100
AcDbEntity
  8
GORUNEN
100
AcDbPolyline
 90
34
 70
0
 10
153.5
 20
-61.83506641202365
 10
153.45228071258236
 20
-61.83622400822265
 10
153.40463360173416
 20
-61.83968544319028
 10
153.35718334700175
 20
-61.845431054201384
 10
153.31005111822336
 20
-61.85343766882275
 10
153.26335457552915
 20
-61.86367860491303
 10
153.2172078693412
 20
-61.87612367062278
 10
153.17172164037353
 20
-61.89073916439448
 10
153.12700301963199
 20
-61.90748787496248
 10
153.0831556284144
 20
-61.92632908135303
 10
153.04027957831053
 20
-61.947218552884316
 10
152.99847147120198
 20
-61.97010854916639
 10
152.95782439926228
 20
-61.9949478201012
 10
152.91842794495693
 20
-62.021681605882634
 10
152.88036818104328
 20
-62.05025163699643
 10
152.8437276705706
 20
-62.08059613422025
 10
152.80858546688012
 20
-62.112649808623665
 10
152.77501711360492
 20
-62.146343861568134
 10
152.74309464467
 20
-62.181605984707005
 10
152.71288658429236
 20
-62.21836035998555
 10
152.6844579469808
 20
-62.25652765964092
 10
152.6578702375361
 20
-62.29602504620218
 10
152.63318145105086
 20
-62.336766172490286
 10
152.61044607290972
 20
-62.3786611816181
 10
152.58971507878917
 20
-62.42161670699037
 10
152.5710359346576
 20
-62.46553587230377
 10
152.55445259677535
 20
-62.51031829154684
 10
152.5400055116946
 20
-62.55586006900005
 10
152.52773161625953
 20
-62.602053799235755
 10
152.5176643376062
 20
-62.64878856711821
 10
152.5098335931625
 20
-62.69594994780357
 10
152.5042657906484
 20
-62.743420006739896
 10
152.50106895079745
 20
-62.78921216053552
 10
152.5
 20
-62.83506641202365
  0
LWPOLYLINE
  5
110
330
17
100
AcDbEntity
  8
GORUNEN
100
AcDbPolyline
 90
34
 70
0
 10
8.499999999999986
 20
-61.83506641202365
 10
8.452280712581832
 20
-61.83622400822265
 10
8.4046336017322
 20
-61.83968544319027
 10
8.357183346997614
 20
-61.845431054201384
 10
8.310051118216498
 20
-61.85343766882275
 10
8.263354575519172
 20
-61.86367860491303
 10
8.21720786932786
 20
-61.87612367062278
 10
8.171721640356681
 20
-61.890739164394475
 10
8.127003019611662
 20
-61.90748787496247
 10
8.083155628390719
 20
-61.92632908135303
 10
8.040279578283673
 20
-61.947218552884316
 10
7.99847147117225
 20
-61.97010854916638
 10
7.957824399230068
 20
-61.9949478201012
 10
7.918427944922646
 20
-62.02168160588263
 10
7.880368181007405
 20
-62.05025163699642
 10
7.843727670533665
 20
-62.080596134220244
 10
7.808585466842647
 20
-62.112649808623665
 10
7.775017113567468
 20
-62.14634386156813
 10
7.7430946446331514
 20
-62.181605984707
 10
7.712886584256612
 20
-62.218360359985546
 10
7.6844579469466705
 20
-62.256527659640916
 10
7.657870237504044
 20
-62.296025046202175
 10
7.633181451021352
 20
-62.33676617249028
 10
7.610446072883114
 20
-62.37866118161809
 10
7.589715078765746
 20
-62.42161670699036
 10
7.571035934637564
 20
-62.46553587230376
 10
7.554452596758788
 20
-62.51031829154683
 10
7.540005511681535
 20
-62.55586006900005
 10
7.52773161624982
 20
-62.60205379923575
 10
7.517664337599561
 20
-62.6487885671182
 10
7.509833593158575
 20
-62.69594994780356
 10
7.504265790646576
 20
-62.743420006739896
 10
7.501068950796954
 20
-62.78921216053551
 10
7.499999999999986
 20
-62.83506641202364
  0
LWPOLYLINE
  5
111
330
17
100
AcDbEntity
  8
GORUNEN
100
AcDbPolyline
 90
2
 70
0
 10
8.5
 20
-61.83506641202364
 10
41.5
 20
-61.83506641202364
  0
LWPOLYLINE
  5
112
330
17
100
AcDbEntity
  8
GORUNEN
100
AcDbPolyline
 90
34
 70
0
 10
42.49999999999999
 20
-62.83506641202364
 10
42.498842403800474
 20
-62.78734712460549
 10
42.49538096883141
 20
-62.73970001375586
 10
42.48963535781814
 20
-62.69224975902127
 10
42.48162874319406
 20
-62.64511753024016
 10
42.47138780710066
 20
-62.59842098754283
 10
42.45894274138753
 20
-62.552274281351515
 10
42.44432724761235
 20
-62.50678805238034
 10
42.427578537040866
 20
-62.462069431635314
 10
42.408737330646936
 20
-62.41822204041437
 10
42.38784785911249
 20
-62.37534599030733
 10
42.36495786282756
 20
-62.3335378831959
 10
42.340118591890246
 20
-62.29289081125372
 10
42.313384806106754
 20
-62.2534943569463
 10
42.284814774991375
 20
-62.21543459303106
 10
42.25447027776648
 20
-62.17879408255732
 10
42.22241660336254
 20
-62.1436518788663
 10
42.18872255041809
 20
-62.11008352559112
 10
42.15346042727979
 20
-62.0781610566568
 10
42.11670605200236
 20
-62.047952996280266
 10
42.078538752348614
 20
-62.01952435897032
 10
42.03904136578945
 20
-61.9929366495277
 10
41.99830023950387
 20
-61.96824786304501
 10
41.95640523037895
 20
-61.94551248490677
 10
41.91344970500986
 20
-61.9247814907894
 10
41.869530539699845
 20
-61.90610234666122
 10
41.824748120460264
 20
-61.88951900878244
 10
41.77920634301054
 20
-61.87507192370519
 10
41.7330126127782
 20
-61.862798028273474
 10
41.68627784489883
 20
-61.85273074962322
 10
41.63911646421615
 20
-61.84490000518223
 10
41.591646405281935
 20
-61.839332202670235
 10
41.54585425148764
 20
-61.83613536282061
 10
41.49999999999999
 20
-61.83506641202364
  0
LWPOLYLINE
  5
113
330
17
100
AcDbEntity
  8
GORUNEN
100
AcDbPolyline
 90
2
 70
0
 10
42.5
 20
-67.83506641202365
 10
42.5
 20
-62.83506641202364
  0
LWPOLYLINE
  5
114
330
17
100
AcDbEntity
  8
GORUNEN
100
AcDbPolyline
 90
34
 70
0
 10
41.49999999999999
 20
-68.83506641202365
 10
41.54771928741763
 20
-68.83390881582464
 10
41.595366398265824
 20
-68.83044738085702
 10
41.64281665299825
 20
-68.8247017698459
 10
41.689948881776644
 20
-68.81669515522455
 10
41.73664542447085
 20
-68.80645421913427
 10
41.78279213065879
 20
-68.79400915342451
 10
41.828278359626474
 20
-68.77939365965281
 10
41.87299698036801
 20
-68.76264494908483
 10
41.91684437158558
 20
-68.74380374269427
 10
41.95972042168946
 20
-68.72291427116298
 10
42.001528528798026
 20
-68.70002427488092
 10
42.042175600737714
 20
-68.6751850039461
 10
42.08157205504307
 20
-68.64845121816467
 10
42.11963181895673
 20
-68.61988118705088
 10
42.1562723294294
 20
-68.58953668982704
 10
42.19141453311988
 20
-68.55748301542363
 10
42.22498288639508
 20
-68.52378896247917
 10
42.25690535532998
 20
-68.4885268393403
 10
42.28711341570762
 20
-68.45177246406175
 10
42.31554205301919
 20
-68.41360516440638
 10
42.34212976246391
 20
-68.37410777784513
 10
42.366818548949134
 20
-68.33336665155701
 10
42.38955392709026
 20
-68.2914716424292
 10
42.41028492121081
 20
-68.24851611705694
 10
42.42896406534238
 20
-68.20459695174354
 10
42.445547403224644
 20
-68.15981453250046
 10
42.459994488305384
 20
-68.11427275504725
 10
42.472268383740456
 20
-68.06807902481155
 10
42.48233566239381
 20
-68.0213442569291
 10
42.49016640683748
 20
-67.97418287624373
 10
42.49573420935159
 20
-67.9267128173074
 10
42.49893104920254
 20
-67.88092066351177
 10
42.49999999999999
 20
-67.83506641202365
  0
LWPOLYLINE
  5
115
330
17
100
AcDbEntity
  8
GORUNEN
100
AcDbPolyline
 90
2
 70
0
 10
8.5
 20
-68.83506641202365
 10
41.5
 20
-68.83506641202365
  0
LWPOLYLINE
  5
116
330
17
100
AcDbEntity
  8
GORUNEN
100
AcDbPolyline
 90
34
 70
0
 10
7.5
 20
-67.83506641202365
 10
7.5011575961990005
 20
-67.8827856994418
 10
7.504619031166625
 20
-67.93043281029144
 10
7.510364642177738
 20
-67.97788306502602
 10
7.518371256799101
 20
-68.02501529380714
 10
7.52861219288938
 20
-68.07171183650446
 10
7.541057258599135
 20
-68.11785854269577
 10
7.55567275237083
 20
-68.16334477166694
 10
7.572421462938827
 20
-68.20806339241197
 10
7.591262669329385
 20
-68.25191078363292
 10
7.612152140860669
 20
-68.29478683373996
 10
7.63504213714274
 20
-68.33659494085138
 10
7.659881408077558
 20
-68.37724201279357
 10
7.686615193858984
 20
-68.416638467101
 10
7.71518522497278
 20
-68.45469823101624
 10
7.745529722196604
 20
-68.49133874148997
 10
7.77758339660002
 20
-68.52648094518099
 10
7.811277449544484
 20
-68.56004929845616
 10
7.846539572683358
 20
-68.59197176739048
 10
7.883293947961903
 20
-68.62217982776703
 10
7.921461247617273
 20
-68.65060846507697
 10
7.960958634178532
 20
-68.6771961745196
 10
8.001699760466638
 20
-68.70188496100228
 10
8.043594769594446
 20
-68.72462033914053
 10
8.086550294966719
 20
-68.74535133325789
 10
8.130469460280112
 20
-68.76403047738607
 10
8.175251879523186
 20
-68.78061381526484
 10
8.220793656976396
 20
-68.7950609003421
 10
8.2669873872121
 20
-68.80733479577381
 10
8.313722155094553
 20
-68.81740207442408
 10
8.360883535779916
 20
-68.82523281886506
 10
8.408353594716242
 20
-68.83080062137705
 10
8.454145748511868
 20
-68.83399746122669
 10
8.5
 20
-68.83506641202365
  0
LWPOLYLINE
  5
117
330
17
100
AcDbEntity
  8
GORUNEN
100
AcDbPolyline
 90
2
 70
0
 10
7.5
 20
-67.83506641202365
 10
7.5
 20
-62.83506641202365
  0
LWPOLYLINE
  5
118
330
17
100
AcDbEntity
  8
GORUNEN
100
AcDbPolyline
 90
71
 70
0
 10
137.5
 20
-70.83506641202365
 10
137.49589988046117
 20
-70.65400686179075
 10
137.48360741810245
 20
-70.4733188072918
 10
137.4631475450601
 20
-70.29337277128894
 10
137.43456241326112
 20
-70.1145375826459
 10
137.3979111062458
 20
-69.93717968060591
 10
137.3532693509902
 20
-69.76166241906967
 10
137.3007292297285
 20
-69.58834537087313
 10
137.24039889177573
 20
-69.41758363206556
 10
137.17240226535012
 20
-69.24972712618734
 10
137.0968787693955
 20
-69.08511990854792
 10
137.01398302540397
 20
-68.92409947050375
 10
136.9238845692383
 20
-68.76699604373613
 10
136.82676756295444
 20
-68.61413190452919
 10
136.72283050662392
 20
-68.46582067804775
 10
136.61228595015646
 20
-68.3223666426153
 10
136.4953602051224
 20
-68.1840640339918
 10
136.37229305657522
 20
-68.05119634965172
 10
136.2433373784311
 20
-67.9240357429527
 10
136.10875765450078
 20
-67.80284328369247
 10
135.96882957543366
 20
-67.68786787755997
 10
135.82384003716328
 20
-67.57934516959546
 10
135.6740864585431
 20
-67.4774972421488
 10
135.5198760856245
 20
-67.38253232670183
 10
135.36152529593477
 20
-67.29464451569098
 10
135.1993589027548
 20
-67.21401347432962
 10
135.03370945939713
 20
-67.14080415243069
 10
134.86491656348397
 20
-67.0751664962291
 10
134.69332616122483
 20
-67.01723516020422
 10
134.51928985169468
 20
-66.96712921890241
 10
134.34316419111178
 20
-66.92495187875946
 10
134.16530999711557
 20
-66.89079018992317
 10
133.98609165304453
 20
-66.86471475807565
 10
133.80587641221427
 20
-66.84677945625606
 10
133.62503370219528
 20
-66.83702113668289
 10
133.44393442885942
 20
-66.83545935645155
 10
133.2629502076882
 20
-66.84209708791781
 10
133.08245231924874
 20
-66.85692130184779
 10
132.9028108362941
 20
-66.87990170480415
 10
132.7243939223134
 20
-66.91099087276612
 10
132.5475671358097
 20
-66.95012453930696
 10
132.37269273457784
 20
-66.99722188377153
 10
132.20012897998257
 20
-67.05218581945381
 10
132.0302294412362
 20
-67.11490328177436
 10
131.8633422996767
 20
-67.18524551645791
 10
131.69980965304546
 20
-67.26306836771074
 10
131.5399668197654
 20
-67.34821256639836
 10
131.38414164321867
 20
-67.4405040182229
 10
131.23265379602464
 20
-67.53975409190068
 10
131.0858140843179
 20
-67.64575990733965
 10
130.943923752026
 20
-67.75830462381704
 10
130.80727378514757
 20
-67.87715772815673
 10
130.67614421603002
 20
-68.00207532290683
 10
130.55080371138183
 20
-68.1328007290766
 10
130.43150979632188
 20
-68.26906607066798
 10
130.31850731196775
 20
-68.41059212321781
 10
130.21202773573188
 20
-68.55708865900138
 10
130.11228889312878
 20
-68.70825514273957
 10
130.01949466959772
 20
-68.86378142732096
 10
129.93383472232517
 20
-69.02334844952381
 10
129.85548419206728
 20
-69.1866289257383
 10
129.78460341497234
 20
-69.35328804768851
 10
129.72133763440337
 20
-69.52298417815453
 10
129.66581671276046
 20
-69.69536954669456
 10
129.61815484330336
 20
-69.87009094536702
 10
129.57845026197393
 20
-70.04679042445257
 10
129.54678495921868
 20
-70.22510598817627
 10
129.5232243918112
 20
-70.4046722904296
 10
129.50781719467466
 20
-70.58512133049264
 10
129.50195472465987
 20
-70.71003270980998
 10
129.5
 20
-70.83506641202365
  0
LWPOLYLINE
  5
119
330
17
100
AcDbEntity
  8
GORUNEN
100
AcDbPolyline
 90
71
 70
0
 10
129.5
 20
-70.83506641202365
 10
129.50410011953883
 20
-71.01612596225654
 10
129.51639258189755
 20
-71.19681401675548
 10
129.5368524549399
 20
-71.37676005275833
 10
129.5654375867388
 20
-71.5555952414013
 10
129.60208889375403
 20
-71.73295314344115
 10
129.64673064900947
 20
-71.90847040497717
 10
129.6992707702709
 20
-72.08178745317335
 10
129.75960110822328
 20
-72.2525491919804
 10
129.82759773464838
 20
-72.42040569785794
 10
129.9031212306023
 20
-72.58501291549649
 10
129.9860169745929
 20
-72.7460333535396
 10
130.07611543075743
 20
-72.90313678030594
 10
130.17323243703999
 20
-73.05600091951143
 10
130.27716949336892
 20
-73.20431214599124
 10
130.38771404983456
 20
-73.34776618142196
 10
130.50463979486656
 20
-73.48606879004367
 10
130.62770694341148
 20
-73.61893647438202
 10
130.75666262155315
 20
-73.74609708107943
 10
130.89124234548075
 20
-73.86728954033822
 10
131.03117042454483
 20
-73.98226494646948
 10
131.17615996281182
 20
-74.09078765443294
 10
131.3259135414282
 20
-74.19263558187878
 10
131.48012391434258
 20
-74.28760049732513
 10
131.63847470402774
 20
-74.37548830833565
 10
131.80064109720274
 20
-74.45611934969695
 10
131.96629054055506
 20
-74.52932867159615
 10
132.13508343646262
 20
-74.59496632779836
 10
132.3066738387159
 20
-74.65289766382425
 10
132.48071014824004
 20
-74.70300360512749
 10
132.6568358088168
 20
-74.74518094527232
 10
132.83469000280684
 20
-74.779342634111
 10
133.0139083468717
 20
-74.80541806596136
 10
133.19412358769583
 20
-74.82335336778432
 10
133.37496629770885
 20
-74.83311168736138
 10
133.5560655710389
 20
-74.83467346759716
 10
133.73704979220454
 20
-74.82803573613585
 10
133.91754768063868
 20
-74.8132115222113
 10
134.0971891635883
 20
-74.79023111926087
 10
134.2756060775643
 20
-74.75914195130531
 10
134.45243286406372
 20
-74.72000828477132
 10
134.62730726529168
 20
-74.672910940314
 10
134.79987101988354
 20
-74.61794700463935
 10
134.969770558627
 20
-74.55522954232676
 10
135.13665770018414
 20
-74.4848873076515
 10
135.3001903468136
 20
-74.40706445640723
 10
135.46003318009247
 20
-74.32192025772841
 10
135.61585835663868
 20
-74.22962880591287
 10
135.7673462038328
 20
-74.13037873224427
 10
135.9141859155403
 20
-74.02437291681458
 10
136.05607624783357
 20
-73.91182820034659
 10
136.19272621471404
 20
-73.79297509601636
 10
136.32385578383426
 20
-73.66805750127574
 10
136.44919628848572
 20
-73.53733209511546
 10
136.56849020354954
 20
-73.4010667535335
 10
136.6814926879081
 20
-73.25954070099297
 10
136.78797226414903
 20
-73.1130441652185
 10
136.8877111067578
 20
-72.96187768148914
 10
136.9805053302951
 20
-72.80635139691636
 10
137.0661652775745
 20
-72.64678437472175
 10
137.14451580783978
 20
-72.48350389851517
 10
137.21539658494265
 20
-72.3168447765725
 10
137.27866236552012
 20
-72.14714864611362
 10
137.334183287172
 20
-71.97476327758031
 10
137.38184515663858
 20
-71.80004187891414
 10
137.42154973797793
 20
-71.62334239983444
 10
137.45321504074352
 20
-71.44502683611614
 10
137.47677560816174
 20
-71.2654605338677
 10
137.49218280530943
 20
-71.08501149380909
 10
137.49804527533618
 20
-70.96010011436472
 10
137.5
 20
-70.83506641202365
  0
LWPOLYLINE
  5
11A
330
17
100
AcDbEntity
  8
GIZLI
100
AcDbPolyline
 90
64
 70
0
 10
65.49999999999999
 20
-70.83506641202365
 10
65.49502768487568
 20
-70.63568286938086
 10
65.4801231014616
 20
-70.43679502564038
 10
65.4553233049005
 20
-70.23889734731895
 10
65.42068995139417
 20
-70.04248183922606
 10
65.3763091449163
 20
-69.84803682126247
 10
65.32229122314456
 20
-69.65604571438004
 10
65.25877048314362
 20
-69.46698583872097
 10
65.18590484748162
 20
-69.28132722692487
 10
65.10387547160967
 20
-69.09953145555342
 10
65.0128862934809
 20
-68.92205049753838
 10
64.91316352652862
 20
-68.74932559850566
 10
64.80495509726397
 20
-68.58178617976915
 10
64.68853002889168
 20
-68.41984877072174
 10
64.5641777724759
 20
-68.26391597327749
 10
64.4322074873193
 20
-68.11437546093998
 10
64.29294727234428
 20
-67.97159901498478
 10
64.14674335038742
 20
-67.83594160015272
 10
63.993959207434926
 20
-67.70774048215154
 10
63.834974688939155
 20
-67.58731438916023
 10
63.67018505546303
 20
-67.47496271942057
 10
63.49999999999999
 20
-67.37096479688589
 10
63.32484262941264
 20
-67.27557917677777
 10
63.14514841252244
 20
-67.18904300277696
 10
62.96136409746558
 20
-67.11157141744684
 10
62.773946601006735
 20
-67.04335702735511
 10
62.58336187257201
 20
-66.9845694242236
 10
62.39008373582525
 20
-66.93535476329636
 10
62.19459271066771
 20
-66.89583539997483
 10
61.99737481858993
 20
-66.86610958562297
 10
61.79892037434569
 20
-66.84625122329894
 10
61.59972276695229
 20
-66.83630968402039
 10
61.4002772330477
 20
-66.83630968402039
 10
61.2010796256543
 20
-66.84625122329894
 10
61.00262518141005
 20
-66.86610958562297
 10
60.80540728933227
 20
-66.89583539997481
 10
60.609916264174736
 20
-66.93535476329635
 10
60.41663812742797
 20
-66.9845694242236
 10
60.22605339899326
 20
-67.04335702735511
 10
60.038635902534416
 20
-67.11157141744684
 10
59.85485158747755
 20
-67.18904300277696
 10
59.67515737058734
 20
-67.27557917677777
 10
59.49999999999999
 20
-67.37096479688589
 10
59.329814944536956
 20
-67.47496271942056
 10
59.16502531106084
 20
-67.58731438916023
 10
59.00604079256506
 20
-67.70774048215154
 10
58.853256649612554
 20
-67.83594160015272
 10
58.7070527276557
 20
-67.97159901498478
 10
58.56779251268068
 20
-68.11437546093998
 10
58.43582222752408
 20
-68.26391597327749
 10
58.3114699711083
 20
-68.41984877072174
 10
58.19504490273601
 20
-68.58178617976917
 10
58.086836473471365
 20
-68.74932559850566
 10
57.987113706519075
 20
-68.92205049753838
 10
57.89612452839032
 20
-69.09953145555343
 10
57.81409515251836
 20
-69.28132722692487
 10
57.74122951685636
 20
-69.46698583872099
 10
57.677708776855425
 20
-69.65604571438004
 10
57.62369085508368
 20
-69.84803682126248
 10
57.57931004860581
 20
-70.04248183922607
 10
57.544676695099476
 20
-70.23889734731897
 10
57.519876898538385
 20
-70.4367950256404
 10
57.504972315124306
 20
-70.63568286938087
 10
57.49999999999999
 20
-70.83506641202365
  0
LWPOLYLINE
  5
11B
330
17
100
AcDbEntity
  8
GIZLI
100
AcDbPolyline
 90
2
 70
0
 10
195.0
 20
-58.741494544553646
 10
195.0
 20
-94.83506641202365
  0
LWPOLYLINE
  5
11C
330
17
100
AcDbEntity
  8
GIZLI
100
AcDbPolyline
 90
2
 70
0
 10
195.0
 20
-94.83506641202365
 10
190.0
 20
-99.83506641202365
  0
LWPOLYLINE
  5
11D
330
17
100
AcDbEntity
  8
GIZLI
100
AcDbPolyline
 90
2
 70
0
 10
190.0
 20
-99.83506641202365
 10
4.999999999999986
 20
-99.83506641202365
  0
LWPOLYLINE
  5
11E
330
17
100
AcDbEntity
  8
GIZLI
100
AcDbPolyline
 90
2
 70
0
 10
0.0
 20
-94.83506641202365
 10
5.0
 20
-99.83506641202365
  0
LWPOLYLINE
  5
11F
330
17
100
AcDbEntity
  8
GIZLI
100
AcDbPolyline
 90
2
 70
0
 10
3.297058806528419e-16
 20
-58.741494544553646
 10
5.584725390472833e-16
 20
-94.83506641202365
  0
LWPOLYLINE
  5
120
330
17
100
AcDbEntity
  8
GIZLI
100
AcDbPolyline
 90
28
 70
0
 10
3.790369850507281
 20
-53.890021067202845
 10
3.553583767891721
 20
-53.955276822438016
 10
3.3202879433319414
 20
-54.032081905308274
 10
3.091045328634605
 20
-54.120250982191635
 10
2.866409095054924
 20
-54.21957129771103
 10
2.646921298473127
 20
-54.32980318812121
 10
2.4331115713927485
 20
-54.450680659626656
 10
2.2254958449170092
 20
-54.581912030234776
 10
2.024575103787197
 20
-54.72318063359583
 10
1.8308341774872021
 20
-54.874145583130996
 10
1.6447405703313027
 20
-55.034442594604826
 10
1.4667433333582562
 20
-55.20368486515712
 10
1.2972719807538566
 20
-55.38146400667314
 10
1.136735453416665
 20
-55.56735103123981
 10
0.9855211321678783
 20
-55.76089738631012
 10
0.8439939029864898
 20
-55.96163603707767
 10
0.7124952765253814
 20
-56.16908259344961
 10
0.5913425640329613
 20
-56.382736478898636
 10
0.4808281116689117
 20
-56.602082138373376
 10
0.3812185950616427
 20
-56.82659028235261
 10
0.2927543758097424
 20
-57.05571916404126
 10
0.21564892148018044
 20
-57.288915886626214
 10
0.15008829050284822
 20
-57.52561773743771
 10
0.09623068320441108
 20
-57.76525354579661
 10
0.05420606006482176
 20
-58.00724506127125
 10
0.024115828117683424
 20
-58.251008349017994
 10
0.006032596251174471
 20
-58.495955198838516
 10
4.440892098500626e-16
 20
-58.74149454455364
  0
LWPOLYLINE
  5
121
330
17
100
AcDbEntity
  8
GIZLI
100
AcDbPolyline
 90
2
 70
0
 10
3.7903698504979526
 20
-53.89002106716545
 10
17.671116632786564
 20
-50.42916219396078
  0
LWPOLYLINE
  5
122
330
17
100
AcDbEntity
  8
GIZLI
100
AcDbPolyline
 90
6
 70
0
 10
22.509595885699994
 20
-49.83506641202365
 10
21.532591978657557
 20
-49.85894408146049
 10
20.55792092924821
 20
-49.930520075461274
 10
19.58791002478469
 20
-50.049623487233525
 10
18.6248754252397
 20
-50.21596992558776
 10
17.67111663279566
 20
-50.429162193997264
  0
LWPOLYLINE
  5
123
330
17
100
AcDbEntity
  8
GIZLI
100
AcDbPolyline
 90
2
 70
0
 10
22.50959588569998
 20
-49.83506641202364
 10
172.49040411430002
 20
-49.83506641202364
  0
LWPOLYLINE
  5
124
330
17
100
AcDbEntity
  8
GIZLI
100
AcDbPolyline
 90
6
 70
0
 10
177.32888337089108
 20
-50.42916219491647
 10
176.3751245777421
 20
-50.21596992617816
 10
175.41208997747063
 20
-50.049623487566556
 10
174.4420790722644
 20
-49.93052007560957
 10
173.46740802210147
 20
-49.85894408149761
 10
172.49040411430002
 20
-49.83506641202364
  0
LWPOLYLINE
  5
125
330
17
100
AcDbEntity
  8
GIZLI
100
AcDbPolyline
 90
2
 70
0
 10
191.20963015041593
 20
-53.89002106737984
 10
177.32888337090333
 20
-50.42916219486731
  0
LWPOLYLINE
  5
126
330
17
100
AcDbEntity
  8
GIZLI
100
AcDbPolyline
 90
28
 70
0
 10
195.0
 20
-58.74149454455364
 10
194.99396740375053
 20
-58.49595519887325
 10
194.97588417188913
 20
-58.25100834908719
 10
194.9457939399505
 20
-58.00724506137441
 10
194.90376931682275
 20
-57.76525354593299
 10
194.8499117095394
 20
-57.52561773760632
 10
194.7843510785804
 20
-57.2889158868258
 10
194.7072456242723
 20
-57.05571916427035
 10
194.61878140504487
 20
-56.826590282609516
 10
194.51917188846497
 20
-56.60208213865616
 10
194.40865743613102
 20
-56.38273647920515
 10
194.28750472367136
 20
-56.16908259377751
 10
194.15600609724544
 20
-55.961636037424405
 10
194.01447886810152
 20
-55.760897386672966
 10
193.86326454689228
 20
-55.56735103161584
 10
193.70272801959655
 20
-55.381464007059286
 10
193.5332566670353
 20
-55.203684865550166
 10
193.35525943010686
 20
-55.034442595001394
 10
193.16916582299677
 20
-54.87414558352761
 10
192.97542489674362
 20
-54.723180633988875
 10
192.7745041556614
 20
-54.58191203062057
 10
192.56688842923373
 20
-54.45068066000143
 10
192.35307870220166
 20
-54.32980318848112
 10
192.13359090566817
 20
-54.2195712980522
 10
191.9089546721365
 20
-54.120250982510164
 10
191.67971205748663
 20
-54.032081905600236
 10
191.44641623297346
 20
-53.955276822699474
 10
191.20963015040343
 20
-53.89002106742991
  0
LWPOLYLINE
  5
127
330
17
100
AcDbEntity
  8
GIZLI
100
AcDbPolyline
 90
64
 70
0
 10
57.49999999999999
 20
-70.83506641202365
 10
57.504972315124306
 20
-71.03444995466644
 10
57.519876898538385
 20
-71.23333779840692
 10
57.544676695099476
 20
-71.43123547672835
 10
57.57931004860582
 20
-71.62765098482124
 10
57.62369085508368
 20
-71.82209600278483
 10
57.67770877685543
 20
-72.01408710966727
 10
57.741229516856365
 20
-72.20314698532633
 10
57.81409515251836
 20
-72.38880559712243
 10
57.89612452839032
 20
-72.5706013684939
 10
57.98711370651908
 20
-72.74808232650892
 10
58.08683647347137
 20
-72.92080722554165
 10
58.195044902736015
 20
-73.08834664427815
 10
58.31146997110831
 20
-73.25028405332557
 10
58.435822227524085
 20
-73.40621685076982
 10
58.5677925126807
 20
-73.55575736310733
 10
58.70705272765571
 20
-73.69853380906252
 10
58.85325664961256
 20
-73.83419122389459
 10
59.00604079256507
 20
-73.96239234189578
 10
59.165025311060845
 20
-74.08281843488709
 10
59.32981494453697
 20
-74.19517010462674
 10
59.50000000000001
 20
-74.29916802716141
 10
59.67515737058736
 20
-74.39455364726953
 10
59.85485158747756
 20
-74.48108982127034
 10
60.03863590253443
 20
-74.55856140660048
 10
60.22605339899327
 20
-74.62677579669219
 10
60.416638127427994
 20
-74.6855633998237
 10
60.60991626417476
 20
-74.73477806075095
 10
60.805407289332294
 20
-74.77429742407249
 10
61.002625181410075
 20
-74.80402323842435
 10
61.201079625654316
 20
-74.82388160074836
 10
61.400277233047724
 20
-74.83382314002691
 10
61.59972276695231
 20
-74.83382314002691
 10
61.79892037434571
 20
-74.82388160074836
 10
61.99737481858996
 20
-74.80402323842434
 10
62.19459271066774
 20
-74.77429742407247
 10
62.39008373582528
 20
-74.73477806075094
 10
62.58336187257204
 20
-74.68556339982369
 10
62.773946601006756
 20
-74.62677579669217
 10
62.9613640974656
 20
-74.55856140660046
 10
63.14514841252247
 20
-74.48108982127033
 10
63.32484262941267
 20
-74.3945536472695
 10
63.50000000000002
 20
-74.29916802716139
 10
63.67018505546306
 20
-74.19517010462673
 10
63.83497468893918
 20
-74.08281843488706
 10
63.993959207434955
 20
-73.96239234189575
 10
64.14674335038745
 20
-73.83419122389456
 10
64.2929472723443
 20
-73.6985338090625
 10
64.43220748731932
 20
-73.5557573631073
 10
64.56417777247593
 20
-73.40621685076978
 10
64.6885300288917
 20
-73.25028405332553
 10
64.804955097264
 20
-73.0883466442781
 10
64.91316352652863
 20
-72.92080722554161
 10
65.01288629348093
 20
-72.7480823265089
 10
65.10387547160968
 20
-72.57060136849384
 10
65.18590484748164
 20
-72.38880559712238
 10
65.25877048314364
 20
-72.20314698532628
 10
65.32229122314457
 20
-72.01408710966723
 10
65.37630914491632
 20
-71.82209600278478
 10
65.42068995139418
 20
-71.6276509848212
 10
65.45532330490052
 20
-71.4312354767283
 10
65.4801231014616
 20
-71.23333779840686
 10
65.49502768487568
 20
-71.0344499546664
 10
65.49999999999999
 20
-70.83506641202365
  0
LWPOLYLINE
  5
128
330
17
100
AcDbEntity
  8
GIZLI
100
AcDbPolyline
 90
64
 70
0
 10
137.5
 20
-70.83506641202365
 10
137.49502768487568
 20
-70.63568286938086
 10
137.4801231014616
 20
-70.43679502564038
 10
137.4553233049005
 20
-70.23889734731895
 10
137.42068995139417
 20
-70.04248183922606
 10
137.37630914491632
 20
-69.84803682126247
 10
137.32229122314456
 20
-69.65604571438003
 10
137.25877048314362
 20
-69.46698583872097
 10
137.18590484748162
 20
-69.28132722692487
 10
137.10387547160968
 20
-69.0995314555534
 10
137.0128862934809
 20
-68.92205049753838
 10
136.91316352652862
 20
-68.74932559850565
 10
136.80495509726398
 20
-68.58178617976915
 10
136.68853002889168
 20
-68.41984877072173
 10
136.56417777247592
 20
-68.26391597327748
 10
136.43220748731932
 20
-68.11437546093997
 10
136.2929472723443
 20
-67.97159901498478
 10
136.14674335038742
 20
-67.83594160015271
 10
135.99395920743493
 20
-67.70774048215152
 10
135.83497468893916
 20
-67.58731438916021
 10
135.67018505546304
 20
-67.47496271942056
 10
135.5
 20
-67.37096479688589
 10
135.32484262941264
 20
-67.27557917677777
 10
135.14514841252245
 20
-67.18904300277694
 10
134.96136409746558
 20
-67.11157141744683
 10
134.77394660100674
 20
-67.04335702735511
 10
134.58336187257203
 20
-66.9845694242236
 10
134.39008373582527
 20
-66.93535476329635
 10
134.19459271066773
 20
-66.89583539997481
 10
133.99737481858995
 20
-66.86610958562295
 10
133.7989203743457
 20
-66.84625122329892
 10
133.59972276695228
 20
-66.83630968402038
 10
133.40027723304772
 20
-66.83630968402038
 10
133.2010796256543
 20
-66.84625122329892
 10
133.00262518141005
 20
-66.86610958562295
 10
132.8054072893323
 20
-66.89583539997481
 10
132.60991626417476
 20
-66.93535476329635
 10
132.41663812742797
 20
-66.9845694242236
 10
132.22605339899326
 20
-67.04335702735511
 10
132.03863590253442
 20
-67.11157141744683
 10
131.85485158747755
 20
-67.18904300277694
 10
131.67515737058736
 20
-67.27557917677777
 10
131.5
 20
-67.37096479688589
 10
131.32981494453696
 20
-67.47496271942055
 10
131.16502531106084
 20
-67.58731438916021
 10
131.00604079256507
 20
-67.70774048215152
 10
130.85325664961258
 20
-67.83594160015271
 10
130.7070527276557
 20
-67.97159901498478
 10
130.56779251268068
 20
-68.11437546093997
 10
130.43582222752408
 20
-68.26391597327749
 10
130.3114699711083
 20
-68.41984877072173
 10
130.19504490273602
 20
-68.58178617976915
 10
130.08683647347138
 20
-68.74932559850566
 10
129.9871137065191
 20
-68.92205049753838
 10
129.89612452839032
 20
-69.09953145555342
 10
129.81409515251838
 20
-69.28132722692487
 10
129.74122951685635
 20
-69.46698583872097
 10
129.67770877685544
 20
-69.65604571438004
 10
129.62369085508368
 20
-69.84803682126248
 10
129.57931004860583
 20
-70.04248183922607
 10
129.5446766950995
 20
-70.23889734731895
 10
129.5198768985384
 20
-70.4367950256404
 10
129.50497231512432
 20
-70.63568286938087
 10
129.5
 20
-70.83506641202365
  0
LWPOLYLINE
  5
129
330
17
100
AcDbEntity
  8
GIZLI
100
AcDbPolyline
 90
64
 70
0
 10
129.5
 20
-70.83506641202365
 10
129.50497231512432
 20
-71.03444995466643
 10
129.5198768985384
 20
-71.23333779840691
 10
129.5446766950995
 20
-71.43123547672835
 10
129.57931004860583
 20
-71.62765098482123
 10
129.62369085508368
 20
-71.82209600278482
 10
129.67770877685544
 20
-72.01408710966726
 10
129.74122951685638
 20
-72.20314698532633
 10
129.81409515251838
 20
-72.38880559712243
 10
129.89612452839032
 20
-72.57060136849388
 10
129.9871137065191
 20
-72.74808232650892
 10
130.08683647347138
 20
-72.92080722554164
 10
130.19504490273602
 20
-73.08834664427815
 10
130.31146997110832
 20
-73.25028405332556
 10
130.43582222752408
 20
-73.40621685076981
 10
130.5677925126807
 20
-73.55575736310733
 10
130.7070527276557
 20
-73.69853380906252
 10
130.85325664961258
 20
-73.83419122389459
 10
131.00604079256507
 20
-73.96239234189576
 10
131.16502531106084
 20
-74.08281843488707
 10
131.32981494453696
 20
-74.19517010462674
 10
131.5
 20
-74.29916802716141
 10
131.67515737058736
 20
-74.39455364726953
 10
131.85485158747758
 20
-74.48108982127034
 10
132.03863590253442
 20
-74.55856140660046
 10
132.2260533989933
 20
-74.62677579669217
 10
132.416638127428
 20
-74.68556339982369
 10
132.60991626417476
 20
-74.73477806075094
 10
132.8054072893323
 20
-74.77429742407247
 10
133.00262518141008
 20
-74.80402323842434
 10
133.20107962565433
 20
-74.82388160074836
 10
133.40027723304775
 20
-74.83382314002691
 10
133.5997227669523
 20
-74.83382314002691
 10
133.79892037434573
 20
-74.82388160074836
 10
133.99737481858998
 20
-74.80402323842432
 10
134.19459271066773
 20
-74.77429742407247
 10
134.39008373582527
 20
-74.73477806075093
 10
134.58336187257206
 20
-74.68556339982368
 10
134.77394660100677
 20
-74.62677579669216
 10
134.9613640974656
 20
-74.55856140660045
 10
135.14514841252247
 20
-74.48108982127033
 10
135.32484262941267
 20
-74.3945536472695
 10
135.50000000000003
 20
-74.29916802716139
 10
135.67018505546307
 20
-74.19517010462671
 10
135.83497468893918
 20
-74.08281843488705
 10
135.99395920743495
 20
-73.96239234189574
 10
136.14674335038745
 20
-73.83419122389455
 10
136.29294727234432
 20
-73.6985338090625
 10
136.43220748731932
 20
-73.55575736310729
 10
136.56417777247594
 20
-73.40621685076977
 10
136.6885300288917
 20
-73.25028405332552
 10
136.804955097264
 20
-73.08834664427809
 10
136.91316352652865
 20
-72.92080722554161
 10
137.01288629348093
 20
-72.74808232650888
 10
137.10387547160968
 20
-72.57060136849384
 10
137.18590484748165
 20
-72.38880559712238
 10
137.25877048314365
 20
-72.20314698532627
 10
137.3222912231446
 20
-72.01408710966722
 10
137.37630914491632
 20
-71.82209600278478
 10
137.4206899513942
 20
-71.62765098482119
 10
137.45532330490053
 20
-71.43123547672829
 10
137.4801231014616
 20
-71.23333779840686
 10
137.49502768487568
 20
-71.03444995466639
 10
137.5
 20
-70.83506641202365
  0
LWPOLYLINE
  5
12A
330
17
100
AcDbEntity
  8
GIZLI
100
AcDbPolyline
 90
33
 70
0
 10
41.49999999999999
 20
-68.83506641202365
 10
41.54906767432741
 20
-68.83386186822881
 10
41.59801714032955
 20
-68.83025113869584
 10
41.64673047445535
 20
-68.82424292198843
 10
41.69509032201612
 20
-68.81585169242688
 10
41.742980179903256
 20
-68.80509766521818
 10
41.790284677254455
 20
-68.79200674775585
 10
41.836889853392215
 20
-68.77661047720666
 10
41.882683432365084
 20
-68.75894594453493
 10
41.92755509343027
 20
-68.73905570514708
 10
41.97139673682599
 20
-68.716987676372
 10
42.01410274419321
 20
-68.69279502202392
 10
42.055570233019594
 20
-68.66653602432619
 10
42.09569930449243
 20
-68.63827394350429
 10
42.134393284163636
 20
-68.60807686538638
 10
42.17155895484701
 20
-68.5760175373786
 10
42.20710678118654
 20
-68.54217319321019
 10
42.24095112535495
 20
-68.50662536687067
 10
42.27301045336273
 20
-68.46945969618729
 10
42.30320753148064
 20
-68.43076571651608
 10
42.331469612302534
 20
-68.39063664504324
 10
42.357728610000265
 20
-68.34916915621687
 10
42.38192126434835
 20
-68.30646314884964
 10
42.40398929312344
 20
-68.26262150545392
 10
42.42387953251128
 20
-68.21774984438873
 10
42.44154406518301
 20
-68.17195626541587
 10
42.4569403357322
 20
-68.12535108927811
 10
42.470031253194534
 20
-68.07804659192692
 10
42.480785280403225
 20
-68.03015673403978
 10
42.48917650996477
 20
-67.981796886479
 10
42.49518472667219
 20
-67.93308355235321
 10
42.498795456205166
 20
-67.88413408635107
 10
42.49999999999999
 20
-67.83506641202365
  0
LWPOLYLINE
  5
12B
330
17
100
AcDbEntity
  8
GIZLI
100
AcDbPolyline
 90
2
 70
0
 10
42.49999999999999
 20
-62.83506641202364
 10
42.49999999999999
 20
-67.83506641202365
  0
LWPOLYLINE
  5
12C
330
17
100
AcDbEntity
  8
GIZLI
100
AcDbPolyline
 90
33
 70
0
 10
42.49999999999999
 20
-62.83506641202364
 10
42.498795456205166
 20
-62.785998737696225
 10
42.49518472667219
 20
-62.73704927169408
 10
42.48917650996477
 20
-62.68833593756828
 10
42.480785280403225
 20
-62.639976090007515
 10
42.470031253194534
 20
-62.59208623212038
 10
42.4569403357322
 20
-62.54478173476918
 10
42.44154406518302
 20
-62.49817655863142
 10
42.42387953251128
 20
-62.45238297965855
 10
42.40398929312344
 20
-62.407511318593365
 10
42.38192126434835
 20
-62.36366967519765
 10
42.357728610000265
 20
-62.32096366783042
 10
42.33146961230254
 20
-62.27949617900404
 10
42.30320753148064
 20
-62.23936710753121
 10
42.27301045336273
 20
-62.20067312786
 10
42.240951125354954
 20
-62.16350745717662
 10
42.20710678118654
 20
-62.1279596308371
 10
42.17155895484701
 20
-62.09411528666868
 10
42.134393284163636
 20
-62.062055958660906
 10
42.09569930449243
 20
-62.031858880543
 10
42.055570233019594
 20
-62.003596799721095
 10
42.01410274419322
 20
-61.97733780202337
 10
41.97139673682599
 20
-61.953145147675286
 10
41.92755509343027
 20
-61.9310771189002
 10
41.882683432365084
 20
-61.91118687951236
 10
41.836889853392215
 20
-61.89352234684062
 10
41.790284677254455
 20
-61.87812607629144
 10
41.742980179903256
 20
-61.8650351588291
 10
41.69509032201612
 20
-61.85428113162041
 10
41.64673047445535
 20
-61.845889902058865
 10
41.59801714032955
 20
-61.83988168535144
 10
41.54906767432741
 20
-61.83627095581847
 10
41.49999999999999
 20
-61.83506641202364
  0
LWPOLYLINE
  5
12D
330
17
100
AcDbEntity
  8
GIZLI
100
AcDbPolyline
 90
2
 70
0
 10
41.499999999999986
 20
-61.83506641202365
 10
8.499999999999986
 20
-61.83506641202365
  0
LWPOLYLINE
  5
12E
330
17
100
AcDbEntity
  8
GIZLI
100
AcDbPolyline
 90
33
 70
0
 10
8.499999999999986
 20
-61.83506641202364
 10
8.450932325672568
 20
-61.83627095581847
 10
8.401982859670426
 20
-61.83988168535144
 10
8.353269525544624
 20
-61.845889902058865
 10
8.304909677983858
 20
-61.85428113162041
 10
8.25701982009672
 20
-61.8650351588291
 10
8.209715322745524
 20
-61.87812607629144
 10
8.163110146607766
 20
-61.89352234684062
 10
8.117316567634896
 20
-61.91118687951236
 10
8.072444906569704
 20
-61.9310771189002
 10
8.028603263173988
 20
-61.953145147675286
 10
7.985897255806764
 20
-61.97733780202337
 10
7.9444297669803845
 20
-62.003596799721095
 10
7.904300695507553
 20
-62.031858880543
 10
7.865606715836341
 20
-62.062055958660906
 10
7.828441045152969
 20
-62.09411528666868
 10
7.79289321881344
 20
-62.1279596308371
 10
7.759048874645028
 20
-62.16350745717662
 10
7.726989546637251
 20
-62.20067312786
 10
7.696792468519343
 20
-62.23936710753121
 10
7.668530387697443
 20
-62.27949617900404
 10
7.642271389999715
 20
-62.32096366783042
 10
7.618078735651633
 20
-62.36366967519764
 10
7.596010706876545
 20
-62.40751131859336
 10
7.5761204674887
 20
-62.45238297965855
 10
7.5584559348169655
 20
-62.49817655863142
 10
7.543059664267778
 20
-62.54478173476918
 10
7.529968746805443
 20
-62.59208623212038
 10
7.519214719596757
 20
-62.639976090007515
 10
7.5108234900352056
 20
-62.688335937568276
 10
7.5048152733277895
 20
-62.737049271694076
 10
7.501204543794813
 20
-62.78599873769622
 10
7.499999999999986
 20
-62.83506641202364
  0
LWPOLYLINE
  5
12F
330
17
100
AcDbEntity
  8
GIZLI
100
AcDbPolyline
 90
2
 70
0
 10
7.499999999999986
 20
-67.83506641202365
 10
7.499999999999986
 20
-62.83506641202364
  0
LWPOLYLINE
  5
130
330
17
100
AcDbEntity
  8
GIZLI
100
AcDbPolyline
 90
33
 70
0
 10
7.5
 20
-67.83506641202365
 10
7.501204543794827
 20
-67.88413408635105
 10
7.504815273327804
 20
-67.9330835523532
 10
7.51082349003522
 20
-67.981796886479
 10
7.51921471959677
 20
-68.03015673403976
 10
7.529968746805457
 20
-68.0780465919269
 10
7.5430596642677905
 20
-68.1253510892781
 10
7.55845593481698
 20
-68.17195626541586
 10
7.576120467488714
 20
-68.21774984438873
 10
7.596010706876557
 20
-68.26262150545392
 10
7.618078735651645
 20
-68.30646314884964
 10
7.642271389999728
 20
-68.34916915621686
 10
7.668530387697453
 20
-68.39063664504324
 10
7.696792468519353
 20
-68.43076571651608
 10
7.726989546637261
 20
-68.46945969618729
 10
7.759048874645039
 20
-68.50662536687065
 10
7.79289321881345
 20
-68.54217319321019
 10
7.82844104515298
 20
-68.5760175373786
 10
7.865606715836352
 20
-68.60807686538638
 10
7.904300695507564
 20
-68.63827394350429
 10
7.944429766980395
 20
-68.66653602432619
 10
7.985897255806776
 20
-68.69279502202392
 10
8.028603263173999
 20
-68.716987676372
 10
8.072444906569714
 20
-68.73905570514708
 10
8.117316567634907
 20
-68.75894594453493
 10
8.163110146607776
 20
-68.77661047720666
 10
8.209715322745533
 20
-68.79200674775585
 10
8.257019820096732
 20
-68.80509766521818
 10
8.304909677983867
 20
-68.81585169242688
 10
8.353269525544633
 20
-68.82424292198843
 10
8.401982859670435
 20
-68.83025113869584
 10
8.450932325672577
 20
-68.83386186822881
 10
8.5
 20
-68.83506641202365
  0
LWPOLYLINE
  5
131
330
17
100
AcDbEntity
  8
GIZLI
100
AcDbPolyline
 90
2
 70
0
 10
8.5
 20
-68.83506641202365
 10
41.5
 20
-68.83506641202365
  0
LWPOLYLINE
  5
132
330
17
100
AcDbEntity
  8
GIZLI
100
AcDbPolyline
 90
2
 70
0
 10
153.5
 20
-68.83506641202365
 10
186.5
 20
-68.83506641202365
  0
LWPOLYLINE
  5
133
330
17
100
AcDbEntity
  8
GIZLI
100
AcDbPolyline
 90
33
 70
0
 10
186.5
 20
-68.83506641202365
 10
186.5490676743274
 20
-68.83386186822882
 10
186.59801714032957
 20
-68.83025113869584
 10
186.64673047445535
 20
-68.82424292198843
 10
186.6950903220161
 20
-68.81585169242689
 10
186.74298017990327
 20
-68.8050976652182
 10
186.79028467725445
 20
-68.79200674775586
 10
186.83688985339222
 20
-68.77661047720667
 10
186.8826834323651
 20
-68.75894594453493
 10
186.92755509343027
 20
-68.7390557051471
 10
186.971396736826
 20
-68.71698767637201
 10
187.01410274419322
 20
-68.69279502202392
 10
187.0555702330196
 20
-68.66653602432619
 10
187.09569930449243
 20
-68.63827394350429
 10
187.13439328416365
 20
-68.60807686538638
 10
187.17155895484703
 20
-68.57601753737862
 10
187.20710678118655
 20
-68.5421731932102
 10
187.24095112535497
 20
-68.50662536687068
 10
187.27301045336273
 20
-68.4694596961873
 10
187.30320753148064
 20
-68.43076571651608
 10
187.33146961230256
 20
-68.39063664504326
 10
187.35772861000027
 20
-68.34916915621687
 10
187.38192126434836
 20
-68.30646314884964
 10
187.40398929312343
 20
-68.26262150545394
 10
187.42387953251128
 20
-68.21774984438875
 10
187.44154406518302
 20
-68.17195626541587
 10
187.4569403357322
 20
-68.12535108927811
 10
187.47003125319455
 20
-68.07804659192692
 10
187.48078528040324
 20
-68.03015673403978
 10
187.48917650996478
 20
-67.98179688647902
 10
187.4951847266722
 20
-67.93308355235322
 10
187.49879545620516
 20
-67.88413408635108
 10
187.5
 20
-67.83506641202365
  0
LWPOLYLINE
  5
134
330
17
100
AcDbEntity
  8
GIZLI
100
AcDbPolyline
 90
2
 70
0
 10
187.5
 20
-67.83506641202365
 10
187.5
 20
-62.83506641202365
  0
LWPOLYLINE
  5
135
330
17
100
AcDbEntity
  8
GIZLI
100
AcDbPolyline
 90
33
 70
0
 10
187.5
 20
-62.83506641202365
 10
187.49879545620516
 20
-62.78599873769623
 10
187.4951847266722
 20
-62.73704927169409
 10
187.48917650996478
 20
-62.68833593756829
 10
187.48078528040324
 20
-62.63997609000752
 10
187.47003125319455
 20
-62.59208623212039
 10
187.4569403357322
 20
-62.54478173476919
 10
187.44154406518302
 20
-62.49817655863143
 10
187.42387953251128
 20
-62.45238297965856
 10
187.40398929312343
 20
-62.407511318593365
 10
187.38192126434836
 20
-62.363669675197656
 10
187.35772861000027
 20
-62.320963667830426
 10
187.33146961230256
 20
-62.27949617900405
 10
187.30320753148064
 20
-62.239367107531216
 10
187.27301045336273
 20
-62.20067312786001
 10
187.24095112535497
 20
-62.16350745717663
 10
187.20710678118655
 20
-62.127959630837104
 10
187.17155895484703
 20
-62.09411528666869
 10
187.13439328416365
 20
-62.06205595866091
 10
187.09569930449243
 20
-62.031858880543005
 10
187.0555702330196
 20
-62.0035967997211
 10
187.01410274419322
 20
-61.97733780202338
 10
186.971396736826
 20
-61.95314514767529
 10
186.92755509343027
 20
-61.931077118900205
 10
186.8826834323651
 20
-61.911186879512364
 10
186.83688985339222
 20
-61.893522346840626
 10
186.79028467725445
 20
-61.878126076291444
 10
186.74298017990327
 20
-61.86503515882911
 10
186.6950903220161
 20
-61.85428113162042
 10
186.64673047445535
 20
-61.84588990205887
 10
186.59801714032955
 20
-61.83988168535145
 10
186.5490676743274
 20
-61.83627095581848
 10
186.5
 20
-61.83506641202365
  0
LWPOLYLINE
  5
136
330
17
100
AcDbEntity
  8
GIZLI
100
AcDbPolyline
 90
2
 70
0
 10
186.5
 20
-61.83506641202364
 10
153.5
 20
-61.83506641202364
  0
LWPOLYLINE
  5
137
330
17
100
AcDbEntity
  8
GIZLI
100
AcDbPolyline
 90
33
 70
0
 10
153.5
 20
-61.83506641202365
 10
153.45093232567257
 20
-61.83627095581848
 10
153.40198285967043
 20
-61.83988168535145
 10
153.35326952554465
 20
-61.84588990205887
 10
153.30490967798386
 20
-61.85428113162042
 10
153.25701982009673
 20
-61.86503515882911
 10
153.20971532274552
 20
-61.878126076291444
 10
153.16311014660778
 20
-61.893522346840626
 10
153.1173165676349
 20
-61.911186879512364
 10
153.07244490656973
 20
-61.931077118900205
 10
153.028603263174
 20
-61.95314514767529
 10
152.98589725580678
 20
-61.97733780202338
 10
152.9444297669804
 20
-62.0035967997211
 10
152.90430069550757
 20
-62.031858880543005
 10
152.86560671583635
 20
-62.06205595866091
 10
152.82844104515297
 20
-62.09411528666869
 10
152.79289321881345
 20
-62.127959630837104
 10
152.75904887464503
 20
-62.16350745717663
 10
152.72698954663727
 20
-62.20067312786001
 10
152.69679246851936
 20
-62.239367107531216
 10
152.66853038769744
 20
-62.27949617900405
 10
152.64227138999973
 20
-62.320963667830426
 10
152.61807873565164
 20
-62.36366967519765
 10
152.59601070687657
 20
-62.407511318593365
 10
152.57612046748872
 20
-62.45238297965856
 10
152.55845593481698
 20
-62.49817655863143
 10
152.5430596642678
 20
-62.54478173476919
 10
152.52996874680545
 20
-62.59208623212039
 10
152.51921471959676
 20
-62.63997609000752
 10
152.51082349003522
 20
-62.68833593756828
 10
152.5048152733278
 20
-62.73704927169408
 10
152.50120454379484
 20
-62.785998737696225
 10
152.5
 20
-62.83506641202365
  0
LWPOLYLINE
  5
138
330
17
100
AcDbEntity
  8
GIZLI
100
AcDbPolyline
 90
2
 70
0
 10
152.5
 20
-62.83506641202365
 10
152.5
 20
-67.83506641202365
  0
LWPOLYLINE
  5
139
330
17
100
AcDbEntity
  8
GIZLI
100
AcDbPolyline
 90
33
 70
0
 10
152.5
 20
-67.83506641202365
 10
152.50120454379484
 20
-67.88413408635107
 10
152.5048152733278
 20
-67.93308355235321
 10
152.51082349003522
 20
-67.981796886479
 10
152.51921471959676
 20
-68.03015673403978
 10
152.52996874680545
 20
-68.07804659192692
 10
152.5430596642678
 20
-68.12535108927811
 10
152.55845593481698
 20
-68.17195626541587
 10
152.57612046748872
 20
-68.21774984438873
 10
152.59601070687657
 20
-68.26262150545394
 10
152.61807873565164
 20
-68.30646314884964
 10
152.64227138999973
 20
-68.34916915621687
 10
152.66853038769744
 20
-68.39063664504326
 10
152.69679246851936
 20
-68.43076571651608
 10
152.72698954663727
 20
-68.4694596961873
 10
152.75904887464503
 20
-68.50662536687067
 10
152.79289321881345
 20
-68.5421731932102
 10
152.82844104515297
 20
-68.5760175373786
 10
152.86560671583635
 20
-68.60807686538638
 10
152.90430069550757
 20
-68.63827394350429
 10
152.9444297669804
 20
-68.66653602432619
 10
152.98589725580678
 20
-68.69279502202392
 10
153.028603263174
 20
-68.716987676372
 10
153.0724449065697
 20
-68.7390557051471
 10
153.1173165676349
 20
-68.75894594453493
 10
153.16311014660778
 20
-68.77661047720667
 10
153.20971532274552
 20
-68.79200674775586
 10
153.25701982009673
 20
-68.8050976652182
 10
153.30490967798386
 20
-68.81585169242688
 10
153.35326952554465
 20
-68.82424292198843
 10
153.40198285967043
 20
-68.83025113869584
 10
153.45093232567257
 20
-68.83386186822882
 10
153.5
 20
-68.83506641202365
  0
TEXT
  5
13A
330
17
100
AcDbEntity
  8
YAZI
100
AcDbText
 10
0.0
 20
-113.7018312353595
 30
0.0
 40
5.63337320948019
  1
UST
 11
0.0
 21
-113.7018312353595
 31
0.0
100
AcDbText
  0
DIMENSION
  5
13B
330
17
100
AcDbEntity
  8
OLCU
100
AcDbDimension
280
0
  2
*D3
  3
PF_MM
 10
0.0
 20
-117.16852244119346
 30
0.0
 11
97.5
 21
-113.48516303499487
 31
0.0
 70
32
 71
5
  1
<>
100
AcDbAlignedDimension
 13
0.0
 23
-99.83506641202365
 33
0.0
 14
195.0
 24
-99.83506641202365
 34
0.0
 50
0.0
100
AcDbRotatedDimension
  0
DIMENSION
  5
14A
330
17
100
AcDbEntity
  8
OLCU
100
AcDbDimension
280
0
  2
*D4
  3
PF_MM
 10
-17.333456029169817
 20
-99.83506641202365
 30
0.0
 11
-21.016815435368404
 21
-74.83506641202365
 31
0.0
 70
32
 71
5
  1
<>
100
AcDbAlignedDimension
 13
0.0
 23
-99.83506641202365
 33
0.0
 14
0.0
 24
-49.83506641202364
 34
0.0
 50
90.0
100
AcDbRotatedDimension
  0
LWPOLYLINE
  5
159
330
17
100
AcDbEntity
  8
GORUNEN
100
AcDbPolyline
 90
2
 70
0
 10
285.92863827949367
 20
0.0
 10
249.83506641202365
 20
0.0
  0
LWPOLYLINE
  5
15A
330
17
100
AcDbEntity
  8
GORUNEN
100
AcDbPolyline
 90
2
 70
0
 10
249.83506641202365
 20
0.0
 10
244.83506641202365
 20
0.0
  0
LWPOLYLINE
  5
15B
330
17
100
AcDbEntity
  8
GORUNEN
100
AcDbPolyline
 90
2
 70
0
 10
294.24097062913086
 20
0.0
 10
294.83506641202365
 20
0.0
  0
LWPOLYLINE
  5
15C
330
17
100
AcDbEntity
  8
GORUNEN
100
AcDbPolyline
 90
2
 70
0
 10
290.78011175666745
 20
0.0
 10
294.24097062918
 20
0.0
  0
LWPOLYLINE
  5
15D
330
17
100
AcDbEntity
  8
GORUNEN
100
AcDbPolyline
 90
2
 70
0
 10
285.92863827949367
 20
0.0
 10
290.78011175661743
 20
0.0
  0
LWPOLYLINE
  5
15E
330
17
100
AcDbEntity
  8
GORUNEN
100
AcDbPolyline
 90
2
 70
0
 10
249.83506641202368
 20
8.0
 10
244.83506641202365
 20
8.0
  0
LWPOLYLINE
  5
15F
330
17
100
AcDbEntity
  8
GORUNEN
100
AcDbPolyline
 90
2
 70
0
 10
249.83506641202365
 20
8.0
 10
285.92863827949367
 20
8.0
  0
LWPOLYLINE
  5
160
330
17
100
AcDbEntity
  8
GORUNEN
100
AcDbPolyline
 90
2
 70
0
 10
285.92863827949367
 20
8.0
 10
290.7801117566037
 20
8.0
  0
LWPOLYLINE
  5
161
330
17
100
AcDbEntity
  8
GORUNEN
100
AcDbPolyline
 90
2
 70
0
 10
290.78011175665364
 20
8.0
 10
294.24097062916667
 20
8.0
  0
LWPOLYLINE
  5
162
330
17
100
AcDbEntity
  8
GORUNEN
100
AcDbPolyline
 90
2
 70
0
 10
294.24097062912267
 20
8.0
 10
294.83506641202365
 20
8.0
  0
LWPOLYLINE
  5
163
330
17
100
AcDbEntity
  8
GORUNEN
100
AcDbPolyline
 90
2
 70
0
 10
294.83506641202365
 20
0.0
 10
294.83506641202365
 20
8.0
  0
LWPOLYLINE
  5
164
330
17
100
AcDbEntity
  8
GORUNEN
100
AcDbPolyline
 90
2
 70
0
 10
244.83506641202368
 20
8.0
 10
244.83506641202368
 20
0.0
  0
LWPOLYLINE
  5
165
330
17
100
AcDbEntity
  8
GORUNEN
100
AcDbPolyline
 90
2
 70
0
 10
249.83506641202368
 20
8.0
 10
249.83506641202368
 20
0.0
  0
LWPOLYLINE
  5
166
330
17
100
AcDbEntity
  8
GIZLI
100
AcDbPolyline
 90
2
 70
0
 10
273.83506641202365
 20
8.0
 10
277.83506641202365
 20
8.0
  0
LWPOLYLINE
  5
167
330
17
100
AcDbEntity
  8
GIZLI
100
AcDbPolyline
 90
2
 70
0
 10
277.83506641202365
 20
8.0
 10
273.83506641202365
 20
8.0
  0
LWPOLYLINE
  5
168
330
17
100
AcDbEntity
  8
GIZLI
100
AcDbPolyline
 90
2
 70
0
 10
273.83506641202365
 20
0.0
 10
277.83506641202365
 20
0.0
  0
LWPOLYLINE
  5
169
330
17
100
AcDbEntity
  8
GIZLI
100
AcDbPolyline
 90
2
 70
0
 10
277.83506641202365
 20
0.0
 10
273.83506641202365
 20
0.0
  0
LWPOLYLINE
  5
16A
330
17
100
AcDbEntity
  8
GIZLI
100
AcDbPolyline
 90
2
 70
0
 10
249.83506641202365
 20
0.0
 10
244.83506641202365
 20
0.0
  0
LWPOLYLINE
  5
16B
330
17
100
AcDbEntity
  8
GIZLI
100
AcDbPolyline
 90
2
 70
0
 10
285.92863827949367
 20
0.0
 10
249.83506641202368
 20
0.0
  0
LWPOLYLINE
  5
16C
330
17
100
AcDbEntity
  8
GIZLI
100
AcDbPolyline
 90
2
 70
0
 10
290.78011175684446
 20
0.0
 10
285.92863827949367
 20
0.0
  0
LWPOLYLINE
  5
16D
330
17
100
AcDbEntity
  8
GIZLI
100
AcDbPolyline
 90
2
 70
0
 10
290.78011175688187
 20
0.0
 10
294.2409706300865
 20
0.0
  0
LWPOLYLINE
  5
16E
330
17
100
AcDbEntity
  8
GIZLI
100
AcDbPolyline
 90
2
 70
0
 10
294.83506641202365
 20
0.0
 10
294.24097063005007
 20
0.0
  0
LWPOLYLINE
  5
16F
330
17
100
AcDbEntity
  8
GIZLI
100
AcDbPolyline
 90
2
 70
0
 10
273.83506641202365
 20
0.0
 10
269.83506641202365
 20
0.0
  0
LWPOLYLINE
  5
170
330
17
100
AcDbEntity
  8
GIZLI
100
AcDbPolyline
 90
2
 70
0
 10
269.83506641202365
 20
0.0
 10
273.83506641202365
 20
0.0
  0
LWPOLYLINE
  5
171
330
17
100
AcDbEntity
  8
GIZLI
100
AcDbPolyline
 90
2
 70
0
 10
273.83506641202365
 20
0.0
 10
277.83506641202365
 20
0.0
  0
LWPOLYLINE
  5
172
330
17
100
AcDbEntity
  8
GIZLI
100
AcDbPolyline
 90
2
 70
0
 10
277.83506641202365
 20
0.0
 10
273.83506641202365
 20
0.0
  0
LWPOLYLINE
  5
173
330
17
100
AcDbEntity
  8
GIZLI
100
AcDbPolyline
 90
2
 70
0
 10
273.83506641202365
 20
0.0
 10
269.83506641202365
 20
0.0
  0
LWPOLYLINE
  5
174
330
17
100
AcDbEntity
  8
GIZLI
100
AcDbPolyline
 90
2
 70
0
 10
269.83506641202365
 20
0.0
 10
273.83506641202365
 20
0.0
  0
LWPOLYLINE
  5
175
330
17
100
AcDbEntity
  8
GIZLI
100
AcDbPolyline
 90
2
 70
0
 10
275.83506641202365
 20
0.0
 10
276.83506641202365
 20
0.0
  0
LWPOLYLINE
  5
176
330
17
100
AcDbEntity
  8
GIZLI
100
AcDbPolyline
 90
2
 70
0
 10
281.83506641202365
 20
0.0
 10
276.83506641202365
 20
0.0
  0
LWPOLYLINE
  5
177
330
17
100
AcDbEntity
  8
GIZLI
100
AcDbPolyline
 90
2
 70
0
 10
281.83506641202365
 20
0.0
 10
282.83506641202365
 20
0.0
  0
LWPOLYLINE
  5
178
330
17
100
AcDbEntity
  8
GIZLI
100
AcDbPolyline
 90
2
 70
0
 10
282.83506641202365
 20
0.0
 10
281.83506641202365
 20
0.0
  0
LWPOLYLINE
  5
179
330
17
100
AcDbEntity
  8
GIZLI
100
AcDbPolyline
 90
2
 70
0
 10
276.83506641202365
 20
0.0
 10
281.83506641202365
 20
0.0
  0
LWPOLYLINE
  5
17A
330
17
100
AcDbEntity
  8
GIZLI
100
AcDbPolyline
 90
2
 70
0
 10
276.83506641202365
 20
0.0
 10
275.83506641202365
 20
0.0
  0
LWPOLYLINE
  5
17B
330
17
100
AcDbEntity
  8
GIZLI
100
AcDbPolyline
 90
2
 70
0
 10
275.83506641202365
 20
0.0
 10
276.83506641202365
 20
0.0
  0
LWPOLYLINE
  5
17C
330
17
100
AcDbEntity
  8
GIZLI
100
AcDbPolyline
 90
2
 70
0
 10
276.83506641202365
 20
0.0
 10
281.83506641202365
 20
0.0
  0
LWPOLYLINE
  5
17D
330
17
100
AcDbEntity
  8
GIZLI
100
AcDbPolyline
 90
2
 70
0
 10
281.83506641202365
 20
0.0
 10
282.83506641202365
 20
0.0
  0
LWPOLYLINE
  5
17E
330
17
100
AcDbEntity
  8
GIZLI
100
AcDbPolyline
 90
2
 70
0
 10
282.83506641202365
 20
0.0
 10
281.83506641202365
 20
0.0
  0
LWPOLYLINE
  5
17F
330
17
100
AcDbEntity
  8
GIZLI
100
AcDbPolyline
 90
2
 70
0
 10
281.83506641202365
 20
0.0
 10
276.83506641202365
 20
0.0
  0
LWPOLYLINE
  5
180
330
17
100
AcDbEntity
  8
GIZLI
100
AcDbPolyline
 90
2
 70
0
 10
276.83506641202365
 20
0.0
 10
275.83506641202365
 20
0.0
  0
LWPOLYLINE
  5
181
330
17
100
AcDbEntity
  8
GIZLI
100
AcDbPolyline
 90
2
 70
0
 10
273.83506641202365
 20
8.0
 10
269.83506641202365
 20
8.0
  0
LWPOLYLINE
  5
182
330
17
100
AcDbEntity
  8
GIZLI
100
AcDbPolyline
 90
2
 70
0
 10
269.83506641202365
 20
8.0
 10
273.83506641202365
 20
8.0
  0
LWPOLYLINE
  5
183
330
17
100
AcDbEntity
  8
GIZLI
100
AcDbPolyline
 90
2
 70
0
 10
290.7801117568737
 20
8.0
 10
294.2409706300767
 20
8.0
  0
LWPOLYLINE
  5
184
330
17
100
AcDbEntity
  8
GIZLI
100
AcDbPolyline
 90
2
 70
0
 10
290.78011175683366
 20
8.0
 10
285.92863827949367
 20
8.0
  0
LWPOLYLINE
  5
185
330
17
100
AcDbEntity
  8
GIZLI
100
AcDbPolyline
 90
2
 70
0
 10
249.83506641202368
 20
8.0
 10
285.92863827949367
 20
8.0
  0
LWPOLYLINE
  5
186
330
17
100
AcDbEntity
  8
GIZLI
100
AcDbPolyline
 90
2
 70
0
 10
249.83506641202365
 20
8.0
 10
244.83506641202365
 20
8.0
  0
LWPOLYLINE
  5
187
330
17
100
AcDbEntity
  8
GIZLI
100
AcDbPolyline
 90
2
 70
0
 10
294.83506641202365
 20
8.0
 10
294.2409706300327
 20
8.0
  0
LWPOLYLINE
  5
188
330
17
100
AcDbEntity
  8
GIZLI
100
AcDbPolyline
 90
2
 70
0
 10
281.83506641202365
 20
8.0
 10
282.83506641202365
 20
8.0
  0
LWPOLYLINE
  5
189
330
17
100
AcDbEntity
  8
GIZLI
100
AcDbPolyline
 90
2
 70
0
 10
276.83506641202365
 20
8.0
 10
281.83506641202365
 20
8.0
  0
LWPOLYLINE
  5
18A
330
17
100
AcDbEntity
  8
GIZLI
100
AcDbPolyline
 90
2
 70
0
 10
275.83506641202365
 20
8.0
 10
276.83506641202365
 20
8.0
  0
LWPOLYLINE
  5
18B
330
17
100
AcDbEntity
  8
GIZLI
100
AcDbPolyline
 90
2
 70
0
 10
276.83506641202365
 20
8.0
 10
275.83506641202365
 20
8.0
  0
LWPOLYLINE
  5
18C
330
17
100
AcDbEntity
  8
GIZLI
100
AcDbPolyline
 90
2
 70
0
 10
276.83506641202365
 20
8.0
 10
281.83506641202365
 20
8.0
  0
LWPOLYLINE
  5
18D
330
17
100
AcDbEntity
  8
GIZLI
100
AcDbPolyline
 90
2
 70
0
 10
282.83506641202365
 20
8.0
 10
281.83506641202365
 20
8.0
  0
LWPOLYLINE
  5
18E
330
17
100
AcDbEntity
  8
GIZLI
100
AcDbPolyline
 90
2
 70
0
 10
282.83506641202365
 20
8.0
 10
281.83506641202365
 20
8.0
  0
LWPOLYLINE
  5
18F
330
17
100
AcDbEntity
  8
GIZLI
100
AcDbPolyline
 90
2
 70
0
 10
281.83506641202365
 20
8.0
 10
282.83506641202365
 20
8.0
  0
LWPOLYLINE
  5
190
330
17
100
AcDbEntity
  8
GIZLI
100
AcDbPolyline
 90
2
 70
0
 10
276.83506641202365
 20
8.0
 10
281.83506641202365
 20
8.0
  0
LWPOLYLINE
  5
191
330
17
100
AcDbEntity
  8
GIZLI
100
AcDbPolyline
 90
2
 70
0
 10
275.83506641202365
 20
8.0
 10
276.83506641202365
 20
8.0
  0
LWPOLYLINE
  5
192
330
17
100
AcDbEntity
  8
GIZLI
100
AcDbPolyline
 90
2
 70
0
 10
276.83506641202365
 20
8.0
 10
275.83506641202365
 20
8.0
  0
LWPOLYLINE
  5
193
330
17
100
AcDbEntity
  8
GIZLI
100
AcDbPolyline
 90
2
 70
0
 10
276.83506641202365
 20
8.0
 10
281.83506641202365
 20
8.0
  0
LWPOLYLINE
  5
194
330
17
100
AcDbEntity
  8
GIZLI
100
AcDbPolyline
 90
2
 70
0
 10
273.83506641202365
 20
8.0
 10
277.8350664120237
 20
8.0
  0
LWPOLYLINE
  5
195
330
17
100
AcDbEntity
  8
GIZLI
100
AcDbPolyline
 90
2
 70
0
 10
277.8350664120237
 20
8.0
 10
273.83506641202365
 20
8.0
  0
LWPOLYLINE
  5
196
330
17
100
AcDbEntity
  8
GIZLI
100
AcDbPolyline
 90
2
 70
0
 10
273.83506641202365
 20
8.0
 10
269.83506641202365
 20
8.0
  0
LWPOLYLINE
  5
197
330
17
100
AcDbEntity
  8
GIZLI
100
AcDbPolyline
 90
2
 70
0
 10
269.83506641202365
 20
8.0
 10
273.83506641202365
 20
8.0
  0
LWPOLYLINE
  5
198
330
17
100
AcDbEntity
  8
GIZLI
100
AcDbPolyline
 90
2
 70
0
 10
294.83506641202365
 20
0.0
 10
294.83506641202365
 20
8.0
  0
LWPOLYLINE
  5
199
330
17
100
AcDbEntity
  8
GIZLI
100
AcDbPolyline
 90
2
 70
0
 10
249.83506641262366
 20
8.0
 10
249.83506641262366
 20
0.0
  0
LWPOLYLINE
  5
19A
330
17
100
AcDbEntity
  8
GIZLI
100
AcDbPolyline
 90
2
 70
0
 10
244.83506641202368
 20
8.0
 10
244.83506641202368
 20
0.0
  0
LWPOLYLINE
  5
19B
330
17
100
AcDbEntity
  8
GIZLI
100
AcDbPolyline
 90
2
 70
0
 10
275.83506641202365
 20
0.0
 10
275.83506641202365
 20
8.0
  0
LWPOLYLINE
  5
19C
330
17
100
AcDbEntity
  8
GIZLI
100
AcDbPolyline
 90
2
 70
0
 10
275.83506641202365
 20
8.0
 10
275.83506641202365
 20
0.0
  0
LWPOLYLINE
  5
19D
330
17
100
AcDbEntity
  8
GIZLI
100
AcDbPolyline
 90
2
 70
0
 10
282.83506641202365
 20
0.0
 10
282.83506641202365
 20
8.0
  0
LWPOLYLINE
  5
19E
330
17
100
AcDbEntity
  8
GIZLI
100
AcDbPolyline
 90
2
 70
0
 10
282.83506641202365
 20
0.0
 10
282.83506641202365
 20
8.0
  0
LWPOLYLINE
  5
19F
330
17
100
AcDbEntity
  8
GIZLI
100
AcDbPolyline
 90
2
 70
0
 10
275.83506641202365
 20
0.0
 10
275.83506641202365
 20
8.0
  0
LWPOLYLINE
  5
1A0
330
17
100
AcDbEntity
  8
GIZLI
100
AcDbPolyline
 90
2
 70
0
 10
282.83506641202365
 20
0.0
 10
282.83506641202365
 20
8.0
  0
LWPOLYLINE
  5
1A1
330
17
100
AcDbEntity
  8
GIZLI
100
AcDbPolyline
 90
2
 70
0
 10
282.83506641202365
 20
0.0
 10
282.83506641202365
 20
8.0
  0
LWPOLYLINE
  5
1A2
330
17
100
AcDbEntity
  8
GIZLI
100
AcDbPolyline
 90
2
 70
0
 10
275.83506641202365
 20
0.0
 10
275.83506641202365
 20
8.0
  0
LWPOLYLINE
  5
1A3
330
17
100
AcDbEntity
  8
GIZLI
100
AcDbPolyline
 90
2
 70
0
 10
277.83506641202365
 20
0.0
 10
277.83506641202365
 20
8.0
  0
LWPOLYLINE
  5
1A4
330
17
100
AcDbEntity
  8
GIZLI
100
AcDbPolyline
 90
2
 70
0
 10
269.83506641202365
 20
0.0
 10
269.83506641202365
 20
8.0
  0
LWPOLYLINE
  5
1A5
330
17
100
AcDbEntity
  8
GIZLI
100
AcDbPolyline
 90
2
 70
0
 10
269.83506641202365
 20
0.0
 10
269.83506641202365
 20
8.0
  0
LWPOLYLINE
  5
1A6
330
17
100
AcDbEntity
  8
GIZLI
100
AcDbPolyline
 90
2
 70
0
 10
277.83506641202365
 20
0.0
 10
277.83506641202365
 20
8.0
  0
TEXT
  5
1A7
330
17
100
AcDbEntity
  8
YAZI
100
AcDbText
 10
244.83506641202365
 20
-13.866764823335854
 30
0.0
 40
5.63337320948019
  1
SAG
 11
244.83506641202365
 21
-13.866764823335854
 31
0.0
100
AcDbText
  0
DIMENSION
  5
1A8
330
17
100
AcDbEntity
  8
OLCU
100
AcDbDimension
280
0
  2
*D5
  3
PF_MM
 10
244.83506641202365
 20
-17.333456029169817
 30
0.0
 11
269.83506641202365
 21
-13.65009662297123
 31
0.0
 70
32
 71
5
  1
<>
100
AcDbAlignedDimension
 13
244.83506641202365
 23
0.0
 33
0.0
 14
294.83506641202365
 24
0.0
 34
0.0
 50
0.0
100
AcDbRotatedDimension
  0
DIMENSION
  5
1B7
330
17
100
AcDbEntity
  8
OLCU
100
AcDbDimension
280
0
  2
*D6
  3
PF_MM
 10
227.50161038285384
 20
0.0
 30
0.0
 11
223.81825097665526
 21
4.0
 31
0.0
 70
32
 71
5
  1
<>
100
AcDbAlignedDimension
 13
244.83506641202365
 23
0.0
 33
0.0
 14
244.83506641202365
 24
8.0
 34
0.0
 50
90.0
100
AcDbRotatedDimension
  0
LINE
  5
1C8
330
17
100
AcDbEntity
  8
EKSEN
100
AcDbLine
 10
56.0
 20
-70.83506641202365
 30
0.0
 11
67.0
 21
-70.83506641202365
 31
0.0
  0
LINE
  5
1C9
330
17
100
AcDbEntity
  8
EKSEN
100
AcDbLine
 10
61.5
 20
-76.33506641202365
 30
0.0
 11
61.5
 21
-65.33506641202365
 31
0.0
  0
LINE
  5
1CA
330
17
100
AcDbEntity
  8
EKSEN
100
AcDbLine
 10
128.0
 20
-70.83506641202365
 30
0.0
 11
139.0
 21
-70.83506641202365
 31
0.0
  0
LINE
  5
1CB
330
17
100
AcDbEntity
  8
EKSEN
100
AcDbLine
 10
133.5
 20
-76.33506641202365
 30
0.0
 11
133.5
 21
-65.33506641202365
 31
0.0
  0
DIMENSION
  5
1CC
330
17
100
AcDbEntity
  8
OLCU
100
AcDbDimension
280
0
  2
*D7
  3
PF_MM
 10
64.32842712474618
 20
-68.00663928727747
 30
0.0
 11
41.81874196326966
 21
-85.30726762141339
 31
0.0
 70
35
 71
5
  1
2x %%c8
100
AcDbDiametricDimension
 15
58.67157287525381
 25
-73.66349353676983
 35
0.0
  0
TEXT
  5
1D9
330
17
100
AcDbEntity
  8
YAZI
100
AcDbText
 10
0.0
 20
85.56859605869536
 30
0.0
 40
6.500046010938681
  1
09.020.000.01   09.020.000.01 Dachplatte 45x195mm
 11
0.0
 21
85.56859605869536
 31
0.0
100
AcDbText
  0
TEXT
  5
1DA
330
17
100
AcDbEntity
  8
YAZI
100
AcDbText
 10
0.0
 20
76.03519524265195
 30
0.0
 40
4.7667004080217
  1
adet: 1
 11
0.0
 21
76.03519524265195
 31
0.0
100
AcDbText
  0
TEXT
  5
1DB
330
17
100
AcDbEntity
  8
YAZI
100
AcDbText
 10
0.0
 20
66.50179442660855
 30
0.0
 40
4.7667004080217
  1
BOY x EN x KALINLIK : 195.0 x 50.0 x 8.0 mm
 11
0.0
 21
66.50179442660855
 31
0.0
100
AcDbText
  0
TEXT
  5
1DC
330
17
100
AcDbEntity
  8
YAZI
100
AcDbText
 10
0.0
 20
56.96839361056516
 30
0.0
 40
4.7667004080217
  1
hacim 72236.2 mm3   kutle 0.5671 kg   yuzey 23561.4 mm2
 11
0.0
 21
56.96839361056516
 31
0.0
100
AcDbText
  0
TEXT
  5
1DD
330
17
100
AcDbEntity
  8
YAZI
100
AcDbText
 10
0.0
 20
47.43499279452176
 30
0.0
 40
4.7667004080217
  1
sac kalinligi: 8.0 mm
 11
0.0
 21
47.43499279452176
 31
0.0
100
AcDbText
  0
TEXT
  5
1DE
330
17
100
AcDbEntity
  8
YAZI
100
AcDbText
 10
0.0
 20
37.90159197847836
 30
0.0
 40
4.7667004080217
  1
dis capler: O40.0, O10.0
 11
0.0
 21
37.90159197847836
 31
0.0
100
AcDbText
  0
TEXT
  5
1DF
330
17
100
AcDbEntity
  8
YAZI
100
AcDbText
 10
0.0
 20
28.368191162434957
 30
0.0
 40
4.7667004080217
  1
toplam delik: 2   toplam radus: 8
 11
0.0
 21
28.368191162434957
 31
0.0
100
AcDbText
  0
TEXT
  5
1E0
330
17
100
AcDbEntity
  8
YAZI
100
AcDbText
 10
344.6701328240473
 20
85.56859605869536
 30
0.0
 40
5.63337320948019
  1
DELIK TABLOSU
 11
344.6701328240473
 21
85.56859605869536
 31
0.0
100
AcDbText
  0
TEXT
  5
1E1
330
17
100
AcDbEntity
  8
YAZI
100
AcDbText
 10
344.6701328240473
 20
76.03519524265195
 30
0.0
 40
4.550032207657077
  1
     cap  adet  eksen  derinlik
 11
344.6701328240473
 21
76.03519524265195
 31
0.0
100
AcDbText
  0
TEXT
  5
1E2
330
17
100
AcDbEntity
  8
YAZI
100
AcDbText
 10
344.6701328240473
 20
66.50179442660855
 30
0.0
 40
4.550032207657077
  1
O   8.00     2      Z      8.00
 11
344.6701328240473
 21
66.50179442660855
 31
0.0
100
AcDbText
  0
TEXT
  5
1E3
330
17
100
AcDbEntity
  8
YAZI
100
AcDbText
 10
504.6701328240473
 20
85.56859605869536
 30
0.0
 40
5.63337320948019
  1
RADUS TABLOSU (kenar yuvarlamalari)
 11
504.6701328240473
 21
85.56859605869536
 31
0.0
100
AcDbText
  0
TEXT
  5
1E4
330
17
100
AcDbEntity
  8
YAZI
100
AcDbText
 10
504.6701328240473
 20
76.03519524265195
 30
0.0
 40
4.550032207657077
  1
       R  adet  eksen   uzunluk
 11
504.6701328240473
 21
76.03519524265195
 31
0.0
100
AcDbText
  0
TEXT
  5
1E5
330
17
100
AcDbEntity
  8
YAZI
100
AcDbText
 10
504.6701328240473
 20
66.50179442660855
 30
0.0
 40
4.550032207657077
  1
R   1.00     8      Z      8.00
 11
504.6701328240473
 21
66.50179442660855
 31
0.0
100
AcDbText
  0
ENDSEC
  0
SECTION
  2
OBJECTS
  0
DICTIONARY
  5
A
330
0
100
AcDbDictionary
281
1
  3
ACAD_COLOR
350
B
  3
ACAD_GROUP
350
C
  3
ACAD_LAYOUT
350
D
  3
ACAD_MATERIAL
350
E
  3
ACAD_MLEADERSTYLE
350
F
  3
ACAD_MLINESTYLE
350
10
  3
ACAD_PLOTSETTINGS
350
11
  3
ACAD_PLOTSTYLENAME
350
12
  3
ACAD_SCALELIST
350
14
  3
ACAD_TABLESTYLE
350
15
  3
ACAD_VISUALSTYLE
350
16
  3
EZDXF_META
350
2D
  0
DICTIONARY
  5
B
330
A
100
AcDbDictionary
281
1
  0
DICTIONARY
  5
C
330
A
100
AcDbDictionary
281
1
  0
DICTIONARY
  5
D
330
A
100
AcDbDictionary
281
1
  3
Model
350
1A
  3
Layout1
350
1E
  0
DICTIONARY
  5
E
330
A
100
AcDbDictionary
281
1
  3
ByBlock
350
1F
  3
ByLayer
350
20
  3
Global
350
21
  0
DICTIONARY
  5
F
330
A
100
AcDbDictionary
281
1
  3
Standard
350
2C
  0
DICTIONARY
  5
10
330
A
100
AcDbDictionary
281
1
  3
Standard
350
22
  0
DICTIONARY
  5
11
330
A
100
AcDbDictionary
281
1
  0
ACDBDICTIONARYWDFLT
  5
12
330
A
100
AcDbDictionary
281
1
  3
Normal
350
13
100
AcDbDictionaryWithDefault
340
13
  0
ACDBPLACEHOLDER
  5
13
330
12
  0
DICTIONARY
  5
14
330
A
100
AcDbDictionary
281
1
  0
DICTIONARY
  5
15
330
A
100
AcDbDictionary
281
1
  0
DICTIONARY
  5
16
330
A
100
AcDbDictionary
281
1
  3
2dWireframe
350
5A
  3
Basic
350
5B
  3
Brighten
350
5C
  3
ColorChange
350
5D
  3
Conceptual
350
5E
  3
Dim
350
5F
  3
EdgeColorOff
350
60
  3
Facepattern
350
61
  3
Flat
350
62
  3
FlatWithEdges
350
63
  3
Gouraud
350
64
  3
GouraudWithEdges
350
65
  3
Hidden
350
66
  3
JitterOff
350
67
  3
Linepattern
350
68
  3
Modeling
350
69
  3
OverhangOff
350
6A
  3
Realistic
350
6B
  3
Shaded
350
6C
  3
Shaded with edges
350
6D
  3
Shades of Gray
350
6E
  3
Sketchy
350
6F
  3
Thicken
350
70
  3
Wireframe
350
71
  3
X-Ray
350
72
  0
LAYOUT
  5
1A
330
D
100
AcDbPlotSettings
  1

  4
A3
  6

 40
7.5
 41
20.0
 42
7.5
 43
20.0
 44
420.0
 45
297.0
 46
0.0
 47
0.0
 48
0.0
 49
0.0
140
0.0
141
0.0
142
1.0
143
1.0
 70
1024
 72
1
 73
0
 74
5
  7

 75
16
 76
0
 77
2
 78
300
147
1.0
148
0.0
149
0.0
100
AcDbLayout
  1
Model
 70
1
 71
0
 10
0.0
 20
0.0
 11
420.0
 21
297.0
 12
0.0
 22
0.0
 32
0.0
 14
1e+20
 24
1e+20
 34
1e+20
 15
-1e+20
 25
-1e+20
 35
-1e+20
146
0.0
 13
0.0
 23
0.0
 33
0.0
 16
1.0
 26
0.0
 36
0.0
 17
0.0
 27
1.0
 37
0.0
 76
1
330
17
  0
LAYOUT
  5
1E
330
D
100
AcDbPlotSettings
  1

  4
A3
  6

 40
7.5
 41
20.0
 42
7.5
 43
20.0
 44
420.0
 45
297.0
 46
0.0
 47
0.0
 48
0.0
 49
0.0
140
0.0
141
0.0
142
1.0
143
1.0
 70
0
 72
1
 73
0
 74
5
  7

 75
16
 76
0
 77
2
 78
300
147
1.0
148
0.0
149
0.0
100
AcDbLayout
  1
Layout1
 70
1
 71
1
 10
0.0
 20
0.0
 11
420.0
 21
297.0
 12
0.0
 22
0.0
 32
0.0
 14
1e+20
 24
1e+20
 34
1e+20
 15
-1e+20
 25
-1e+20
 35
-1e+20
146
0.0
 13
0.0
 23
0.0
 33
0.0
 16
1.0
 26
0.0
 36
0.0
 17
0.0
 27
1.0
 37
0.0
 76
1
330
1B
  0
MATERIAL
  5
1F
102
{ACAD_REACTORS
330
E
102
}
330
E
100
AcDbMaterial
  1
ByBlock
  2

 70
0
 40
1.0
 71
1
 41
1.0
 91
-1023410177
 42
1.0
 72
1
  3

 73
1
 74
1
 75
1
 44
0.5
 73
0
 45
1.0
 46
1.0
 77
1
  4

 78
1
 79
1
170
1
 48
1.0
171
1
  6

172
1
173
1
174
1
140
1.0
141
1.0
175
1
  7

176
1
177
1
178
1
143
1.0
179
1
  8

270
1
271
1
272
1
145
1.0
146
1.0
273
1
  9

274
1
275
1
276
1
 42
1.0
 72
1
  3

 73
1
 74
1
 75
1
 94
63
  0
MATERIAL
  5
20
102
{ACAD_REACTORS
330
E
102
}
330
E
100
AcDbMaterial
  1
ByLayer
  2

 70
0
 40
1.0
 71
1
 41
1.0
 91
-1023410177
 42
1.0
 72
1
  3

 73
1
 74
1
 75
1
 44
0.5
 73
0
 45
1.0
 46
1.0
 77
1
  4

 78
1
 79
1
170
1
 48
1.0
171
1
  6

172
1
173
1
174
1
140
1.0
141
1.0
175
1
  7

176
1
177
1
178
1
143
1.0
179
1
  8

270
1
271
1
272
1
145
1.0
146
1.0
273
1
  9

274
1
275
1
276
1
 42
1.0
 72
1
  3

 73
1
 74
1
 75
1
 94
63
  0
MATERIAL
  5
21
102
{ACAD_REACTORS
330
E
102
}
330
E
100
AcDbMaterial
  1
Global
  2

 70
0
 40
1.0
 71
1
 41
1.0
 91
-1023410177
 42
1.0
 72
1
  3

 73
1
 74
1
 75
1
 44
0.5
 73
0
 45
1.0
 46
1.0
 77
1
  4

 78
1
 79
1
170
1
 48
1.0
171
1
  6

172
1
173
1
174
1
140
1.0
141
1.0
175
1
  7

176
1
177
1
178
1
143
1.0
179
1
  8

270
1
271
1
272
1
145
1.0
146
1.0
273
1
  9

274
1
275
1
276
1
 42
1.0
 72
1
  3

 73
1
 74
1
 75
1
 94
63
  0
MLINESTYLE
  5
22
102
{ACAD_REACTORS
330
10
102
}
330
10
100
AcDbMlineStyle
  2
Standard
 70
0
  3

 62
256
 51
90.0
 52
90.0
 71
2
 49
0.5
 62
256
  6
BYLAYER
 49
-0.5
 62
256
  6
BYLAYER
  0
MLEADERSTYLE
  5
2C
102
{ACAD_REACTORS
330
F
102
}
330
F
100
AcDbMLeaderStyle
179
2
170
2
171
1
172
0
 90
2
 40
0.0
 41
0.0
173
1
 91
-1056964608
 92
-2
290
1
 42
2.0
291
1
 43
8.0
  3
Standard
 44
4.0
300

342
29
174
1
175
1
176
0
178
1
 93
-1056964608
 45
4.0
292
0
297
0
 46
4.0
 94
-1056964608
 47
1.0
 49
1.0
140
1.0
294
1
141
0.0
177
0
142
1.0
295
0
296
0
143
3.75
271
0
272
9
273
9
  0
DICTIONARY
  5
2D
330
A
100
AcDbDictionary
280
1
281
1
  3
CREATED_BY_EZDXF
350
2E
  3
WRITTEN_BY_EZDXF
350
1E8
  0
DICTIONARYVAR
  5
2E
330
2D
100
DictionaryVariables
280
0
  1
1.4.4 @ 2026-09-21T16:47:13.174774+00:00
  0
VISUALSTYLE
  5
5A
102
{ACAD_REACTORS
330
16
102
}
330
16
100
AcDbVisualStyle
  2
2dWireframe
 70
4
 90
0
 40
0.6
 62
7
290
0
291
0
  0
VISUALSTYLE
  5
5B
102
{ACAD_REACTORS
330
16
102
}
330
16
100
AcDbVisualStyle
  2
Basic
 70
7
 90
1
 40
0.6
 62
7
290
0
291
1
  0
VISUALSTYLE
  5
5C
102
{ACAD_REACTORS
330
16
102
}
330
16
100
AcDbVisualStyle
  2
Brighten
 70
12
 90
2
 40
0.6
 62
7
290
0
291
1
  0
VISUALSTYLE
  5
5D
102
{ACAD_REACTORS
330
16
102
}
330
16
100
AcDbVisualStyle
  2
ColorChange
 70
16
 90
2
 40
0.6
 62
8
290
0
291
1
  0
VISUALSTYLE
  5
5E
102
{ACAD_REACTORS
330
16
102
}
330
16
100
AcDbVisualStyle
  2
Conceptual
 70
9
 90
3
 40
0.6
 62
7
290
0
291
0
  0
VISUALSTYLE
  5
5F
102
{ACAD_REACTORS
330
16
102
}
330
16
100
AcDbVisualStyle
  2
Dim
 70
11
 90
2
 40
0.6
 62
7
290
0
291
1
  0
VISUALSTYLE
  5
60
102
{ACAD_REACTORS
330
16
102
}
330
16
100
AcDbVisualStyle
  2
EdgeColorOff
 70
22
 90
2
 40
0.6
 62
7
290
0
291
1
  0
VISUALSTYLE
  5
61
102
{ACAD_REACTORS
330
16
102
}
330
16
100
AcDbVisualStyle
  2
Facepattern
 70
15
 90
2
 40
0.6
 62
7
290
0
291
1
  0
VISUALSTYLE
  5
62
102
{ACAD_REACTORS
330
16
102
}
330
16
100
AcDbVisualStyle
  2
Flat
 70
0
 90
2
 40
0.6
 62
7
290
0
291
1
  0
VISUALSTYLE
  5
63
102
{ACAD_REACTORS
330
16
102
}
330
16
100
AcDbVisualStyle
  2
FlatWithEdges
 70
1
 90
2
 40
0.6
 62
7
290
0
291
1
  0
VISUALSTYLE
  5
64
102
{ACAD_REACTORS
330
16
102
}
330
16
100
AcDbVisualStyle
  2
Gouraud
 70
2
 90
2
 40
0.6
 62
7
290
0
291
1
  0
VISUALSTYLE
  5
65
102
{ACAD_REACTORS
330
16
102
}
330
16
100
AcDbVisualStyle
  2
GouraudWithEdges
 70
3
 90
2
 40
0.6
 62
7
290
0
291
1
  0
VISUALSTYLE
  5
66
102
{ACAD_REACTORS
330
16
102
}
330
16
100
AcDbVisualStyle
  2
Hidden
 70
6
 90
1
 40
0.6
 62
7
290
0
291
0
  0
VISUALSTYLE
  5
67
102
{ACAD_REACTORS
330
16
102
}
330
16
100
AcDbVisualStyle
  2
JitterOff
 70
20
 90
2
 40
0.6
 62
7
290
0
291
1
  0
VISUALSTYLE
  5
68
102
{ACAD_REACTORS
330
16
102
}
330
16
100
AcDbVisualStyle
  2
Linepattern
 70
14
 90
2
 40
0.6
 62
7
290
0
291
1
  0
VISUALSTYLE
  5
69
102
{ACAD_REACTORS
330
16
102
}
330
16
100
AcDbVisualStyle
  2
Modeling
 70
10
 90
2
 40
0.6
 62
7
290
0
291
0
  0
VISUALSTYLE
  5
6A
102
{ACAD_REACTORS
330
16
102
}
330
16
100
AcDbVisualStyle
  2
OverhangOff
 70
21
 90
2
 40
0.6
 62
7
290
0
291
1
  0
VISUALSTYLE
  5
6B
102
{ACAD_REACTORS
330
16
102
}
330
16
100
AcDbVisualStyle
  2
Realistic
 70
8
 90
2
 40
0.6
 62
7
290
0
291
0
  0
VISUALSTYLE
  5
6C
102
{ACAD_REACTORS
330
16
102
}
330
16
100
AcDbVisualStyle
  2
Shaded
 70
27
 90
2
 40
0.6
 62
7
290
0
291
0
  0
VISUALSTYLE
  5
6D
102
{ACAD_REACTORS
330
16
102
}
330
16
100
AcDbVisualStyle
  2
Shaded with edges
 70
26
 90
2
 40
0.6
 62
7
290
0
291
0
  0
VISUALSTYLE
  5
6E
102
{ACAD_REACTORS
330
16
102
}
330
16
100
AcDbVisualStyle
  2
Shades of Gray
 70
23
 90
2
 40
0.6
 62
7
290
0
291
0
  0
VISUALSTYLE
  5
6F
102
{ACAD_REACTORS
330
16
102
}
330
16
100
AcDbVisualStyle
  2
Sketchy
 70
24
 90
1
 40
0.6
 62
7
290
0
291
0
  0
VISUALSTYLE
  5
70
102
{ACAD_REACTORS
330
16
102
}
330
16
100
AcDbVisualStyle
  2
Thicken
 70
13
 90
2
 40
0.6
 62
7
290
0
291
1
  0
VISUALSTYLE
  5
71
102
{ACAD_REACTORS
330
16
102
}
330
16
100
AcDbVisualStyle
  2
Wireframe
 70
5
 90
0
 40
0.6
 62
7
290
0
291
0
  0
VISUALSTYLE
  5
72
102
{ACAD_REACTORS
330
16
102
}
330
16
100
AcDbVisualStyle
  2
X-Ray
 70
25
 90
2
 40
0.5
 62
7
290
0
291
0
  0
DICTIONARYVAR
  5
1E8
330
2D
100
DictionaryVariables
280
0
  1
1.4.4 @ 2026-09-21T16:47:13.222393+00:00
  0
ENDSEC
  0
EOF
