  0
SECTION
  2
HEADER
  9
$ACADVER
  1
AC1024
  9
$ACADMAINTVER
 70
6
  9
$DWGCODEPAGE
  3
ANSI_1252
  9
$LASTSAVEDBY
  1
ezdxf
  9
$INSBASE
 10
0.0
 20
0.0
 30
0.0
  9
$EXTMIN
 10
1e+20
 20
1e+20
 30
1e+20
  9
$EXTMAX
 10
-1e+20
 20
-1e+20
 30
-1e+20
  9
$LIMMIN
 10
0.0
 20
0.0
  9
$LIMMAX
 10
420.0
 20
297.0
  9
$ORTHOMODE
 70
0
  9
$REGENMODE
 70
1
  9
$FILLMODE
 70
1
  9
$QTEXTMODE
 70
0
  9
$MIRRTEXT
 70
1
  9
$LTSCALE
 40
1.0
  9
$ATTMODE
 70
1
  9
$TEXTSIZE
 40
2.5
  9
$TRACEWID
 40
1.0
  9
$TEXTSTYLE
  7
OpenSans
  9
$CLAYER
  8
0
  9
$CELTYPE
  6
ByLayer
  9
$CECOLOR
 62
256
  9
$CELTSCALE
 40
1.0
  9
$DISPSILH
 70
0
  9
$DIMSCALE
 40
1.0
  9
$DIMASZ
 40
0.175
  9
$DIMEXO
 40
0.125
  9
$DIMDLI
 40
3.75
  9
$DIMRND
 40
0.0
  9
$DIMDLE
 40
0.0
  9
$DIMEXE
 40
0.375
  9
$DIMTP
 40
0.0
  9
$DIMTM
 40
0.0
  9
$DIMTXT
 40
0.25
  9
$DIMCEN
 40
2.5
  9
$DIMTSZ
 40
0.0
  9
$DIMTOL
 70
0
  9
$DIMLIM
 70
0
  9
$DIMTIH
 70
0
  9
$DIMTOH
 70
0
  9
$DIMSE1
 70
0
  9
$DIMSE2
 70
0
  9
$DIMTAD
 70
1
  9
$DIMZIN
 70
12
  9
$DIMBLK
  1
ARCHTICK
  9
$DIMASO
 70
1
  9
$DIMSHO
 70
1
  9
$DIMPOST
  1

  9
$DIMAPOST
  1

  9
$DIMALT
 70
0
  9
$DIMALTD
 70
3
  9
$DIMALTF
 40
0.03937007874
  9
$DIMLFAC
 40
100.0
  9
$DIMTOFL
 70
1
  9
$DIMTVP
 40
0.0
  9
$DIMTIX
 70
0
  9
$DIMSOXD
 70
0
  9
$DIMSAH
 70
0
  9
$DIMBLK1
  1

  9
$DIMBLK2
  1

  9
$DIMSTYLE
  2
EZDXF
  9
$DIMCLRD
 70
0
  9
$DIMCLRE
 70
0
  9
$DIMCLRT
 70
0
  9
$DIMTFAC
 40
0.5
  9
$DIMGAP
 40
0.1
  9
$DIMJUST
 70
0
  9
$DIMSD1
 70
0
  9
$DIMSD2
 70
0
  9
$DIMTOLJ
 70
0
  9
$DIMTZIN
 70
8
  9
$DIMALTZ
 70
0
  9
$DIMALTTZ
 70
0
  9
$DIMUPT
 70
1
  9
$DIMDEC
 70
2
  9
$DIMTDEC
 70
2
  9
$DIMALTU
 70
2
  9
$DIMALTTD
 70
3
  9
$DIMTXSTY
  7
OpenSansCondensed-Light
  9
$DIMAUNIT
 70
0
  9
$DIMADEC
 70
2
  9
$DIMALTRND
 40
0.0
  9
$DIMAZIN
 70
3
  9
$DIMDSEP
 70
46
  9
$DIMATFIT
 70
3
  9
$DIMFRAC
 70
0
  9
$DIMLDRBLK
  1

  9
$DIMLUNIT
 70
2
  9
$DIMLWD
 70
-2
  9
$DIMLWE
 70
-2
  9
$DIMTMOVE
 70
2
  9
$DIMFXL
 40
1.0
  9
$DIMFXLON
 70
0
  9
$DIMJOGANG
 40
0.785398163397
  9
$DIMTFILL
 70
0
  9
$DIMTFILLCLR
 70
0
  9
$DIMARCSYM
 70
0
  9
$DIMLTYPE
  6

  9
$DIMLTEX1
  6

  9
$DIMLTEX2
  6

  9
$DIMTXTDIRECTION
 70
0
  9
$LUNITS
 70
2
  9
$LUPREC
 70
4
  9
$SKETCHINC
 40
1.0
  9
$FILLETRAD
 40
10.0
  9
$AUNITS
 70
0
  9
$AUPREC
 70
2
  9
$MENU
  1
.
  9
$ELEVATION
 40
0.0
  9
$PELEVATION
 40
0.0
  9
$THICKNESS
 40
0.0
  9
$LIMCHECK
 70
0
  9
$CHAMFERA
 40
0.0
  9
$CHAMFERB
 40
0.0
  9
$CHAMFERC
 40
0.0
  9
$CHAMFERD
 40
0.0
  9
$SKPOLY
 70
0
  9
$TDCREATE
 40
2461305.6994560184
  9
$TDUCREATE
 40
2458532.153996898
  9
$TDUPDATE
 40
2461305.6994560184
  9
$TDUUPDATE
 40
2458532.1544311
  9
$TDINDWG
 40
0.0
  9
$TDUSRTIMER
 40
0.0
  9
$USRTIMER
 70
1
  9
$ANGBASE
 50
0.0
  9
$ANGDIR
 70
0
  9
$PDMODE
 70
0
  9
$PDSIZE
 40
0.0
  9
$PLINEWID
 40
0.0
  9
$SPLFRAME
 70
0
  9
$SPLINETYPE
 70
6
  9
$SPLINESEGS
 70
8
  9
$HANDSEED
  5
20B
  9
$SURFTAB1
 70
6
  9
$SURFTAB2
 70
6
  9
$SURFTYPE
 70
6
  9
$SURFU
 70
6
  9
$SURFV
 70
6
  9
$UCSBASE
  2

  9
$UCSNAME
  2

  9
$UCSORG
 10
0.0
 20
0.0
 30
0.0
  9
$UCSXDIR
 10
1.0
 20
0.0
 30
0.0
  9
$UCSYDIR
 10
0.0
 20
1.0
 30
0.0
  9
$UCSORTHOREF
  2

  9
$UCSORTHOVIEW
 70
0
  9
$UCSORGTOP
 10
0.0
 20
0.0
 30
0.0
  9
$UCSORGBOTTOM
 10
0.0
 20
0.0
 30
0.0
  9
$UCSORGLEFT
 10
0.0
 20
0.0
 30
0.0
  9
$UCSORGRIGHT
 10
0.0
 20
0.0
 30
0.0
  9
$UCSORGFRONT
 10
0.0
 20
0.0
 30
0.0
  9
$UCSORGBACK
 10
0.0
 20
0.0
 30
0.0
  9
$PUCSBASE
  2

  9
$PUCSNAME
  2

  9
$PUCSORG
 10
0.0
 20
0.0
 30
0.0
  9
$PUCSXDIR
 10
1.0
 20
0.0
 30
0.0
  9
$PUCSYDIR
 10
0.0
 20
1.0
 30
0.0
  9
$PUCSORTHOREF
  2

  9
$PUCSORTHOVIEW
 70
0
  9
$PUCSORGTOP
 10
0.0
 20
0.0
 30
0.0
  9
$PUCSORGBOTTOM
 10
0.0
 20
0.0
 30
0.0
  9
$PUCSORGLEFT
 10
0.0
 20
0.0
 30
0.0
  9
$PUCSORGRIGHT
 10
0.0
 20
0.0
 30
0.0
  9
$PUCSORGFRONT
 10
0.0
 20
0.0
 30
0.0
  9
$PUCSORGBACK
 10
0.0
 20
0.0
 30
0.0
  9
$USERI1
 70
0
  9
$USERI2
 70
0
  9
$USERI3
 70
0
  9
$USERI4
 70
0
  9
$USERI5
 70
0
  9
$USERR1
 40
0.0
  9
$USERR2
 40
0.0
  9
$USERR3
 40
0.0
  9
$USERR4
 40
0.0
  9
$USERR5
 40
0.0
  9
$WORLDVIEW
 70
1
  9
$SHADEDGE
 70
3
  9
$SHADEDIF
 70
70
  9
$TILEMODE
 70
1
  9
$MAXACTVP
 70
64
  9
$PINSBASE
 10
0.0
 20
0.0
 30
0.0
  9
$PLIMCHECK
 70
0
  9
$PEXTMIN
 10
1e+20
 20
1e+20
 30
1e+20
  9
$PEXTMAX
 10
-1e+20
 20
-1e+20
 30
-1e+20
  9
$PLIMMIN
 10
0.0
 20
0.0
  9
$PLIMMAX
 10
420.0
 20
297.0
  9
$UNITMODE
 70
0
  9
$VISRETAIN
 70
1
  9
$PLINEGEN
 70
0
  9
$PSLTSCALE
 70
1
  9
$TREEDEPTH
 70
3020
  9
$CMLSTYLE
  2
Standard
  9
$CMLJUST
 70
0
  9
$CMLSCALE
 40
20.0
  9
$PROXYGRAPHICS
 70
1
  9
$MEASUREMENT
 70
1
  9
$CELWEIGHT
370
-1
  9
$ENDCAPS
280
0
  9
$JOINSTYLE
280
0
  9
$LWDISPLAY
290
1
  9
$INSUNITS
 70
6
  9
$HYPERLINKBASE
  1

  9
$STYLESHEET
  1

  9
$XEDIT
290
1
  9
$CEPSNTYPE
380
0
  9
$PSTYLEMODE
290
1
  9
$FINGERPRINTGUID
  2
{E5EC9313-8507-4E68-BB3B-EAEC290963D4}
  9
$VERSIONGUID
  2
{2786318C-DD1F-401F-B833-BB7B3C00F26B}
  9
$EXTNAMES
290
1
  9
$PSVPSCALE
 40
0.0
  9
$OLESTARTUP
290
0
  9
$SORTENTS
280
127
  9
$INDEXCTL
280
0
  9
$HIDETEXT
280
1
  9
$XCLIPFRAME
280
1
  9
$HALOGAP
280
0
  9
$OBSCOLOR
 70
257
  9
$OBSLTYPE
280
0
  9
$INTERSECTIONDISPLAY
280
0
  9
$INTERSECTIONCOLOR
 70
257
  9
$DIMASSOC
280
2
  9
$PROJECTNAME
  1

  9
$CAMERADISPLAY
290
0
  9
$LENSLENGTH
 40
50.0
  9
$CAMERAHEIGHT
 40
0.0
  9
$STEPSPERSEC
 40
24.0
  9
$STEPSIZE
 40
100.0
  9
$3DDWFPREC
 40
2.0
  9
$PSOLWIDTH
 40
0.005
  9
$PSOLHEIGHT
 40
0.08
  9
$LOFTANG1
 40
1.570796326795
  9
$LOFTANG2
 40
1.570796326795
  9
$LOFTMAG1
 40
0.0
  9
$LOFTMAG2
 40
0.0
  9
$LOFTPARAM
 70
7
  9
$LOFTNORMALS
280
1
  9
$LATITUDE
 40
37.795
  9
$LONGITUDE
 40
-122.394
  9
$NORTHDIRECTION
 40
0.0
  9
$TIMEZONE
 70
-8000
  9
$LIGHTGLYPHDISPLAY
280
1
  9
$TILEMODELIGHTSYNCH
280
1
  9
$CMATERIAL
347
20
  9
$SOLIDHIST
280
0
  9
$SHOWHIST
280
1
  9
$DWFFRAME
280
2
  9
$DGNFRAME
280
2
  9
$REALWORLDSCALE
290
1
  9
$INTERFERECOLOR
 62
256
  9
$CSHADOW
280
0
  9
$SHADOWPLANELOCATION
 40
0.0
  0
ENDSEC
  0
SECTION
  2
CLASSES
  0
CLASS
  1
ACDBDICTIONARYWDFLT
  2
AcDbDictionaryWithDefault
  3
ObjectDBX Classes
 90
0
 91
0
280
0
281
0
  0
CLASS
  1
SUN
  2
AcDbSun
  3
SCENEOE
 90
1153
 91
0
280
0
281
0
  0
CLASS
  1
VISUALSTYLE
  2
AcDbVisualStyle
  3
ObjectDBX Classes
 90
4095
 91
0
280
0
281
0
  0
CLASS
  1
MATERIAL
  2
AcDbMaterial
  3
ObjectDBX Classes
 90
1153
 91
0
280
0
281
0
  0
CLASS
  1
SCALE
  2
AcDbScale
  3
ObjectDBX Classes
 90
1153
 91
0
280
0
281
0
  0
CLASS
  1
TABLESTYLE
  2
AcDbTableStyle
  3
ObjectDBX Classes
 90
4095
 91
0
280
0
281
0
  0
CLASS
  1
MLEADERSTYLE
  2
AcDbMLeaderStyle
  3
ACDB_MLEADERSTYLE_CLASS
 90
4095
 91
0
280
0
281
0
  0
CLASS
  1
DICTIONARYVAR
  2
AcDbDictionaryVar
  3
ObjectDBX Classes
 90
0
 91
0
280
0
281
0
  0
CLASS
  1
CELLSTYLEMAP
  2
AcDbCellStyleMap
  3
ObjectDBX Classes
 90
1152
 91
0
280
0
281
0
  0
CLASS
  1
MENTALRAYRENDERSETTINGS
  2
AcDbMentalRayRenderSettings
  3
SCENEOE
 90
1024
 91
0
280
0
281
0
  0
CLASS
  1
ACDBDETAILVIEWSTYLE
  2
AcDbDetailViewStyle
  3
ObjectDBX Classes
 90
1025
 91
0
280
0
281
0
  0
CLASS
  1
ACDBSECTIONVIEWSTYLE
  2
AcDbSectionViewStyle
  3
ObjectDBX Classes
 90
1025
 91
0
280
0
281
0
  0
CLASS
  1
RASTERVARIABLES
  2
AcDbRasterVariables
  3
ISM
 90
0
 91
0
280
0
281
0
  0
CLASS
  1
LAYOUT
  2
AcDbLayout
  3
ObjectDBX Classes
 90
0
 91
0
280
0
281
0
  0
CLASS
  1
ACDBPLACEHOLDER
  2
AcDbPlaceHolder
  3
ObjectDBX Classes
 90
0
 91
0
280
0
281
0
  0
ENDSEC
  0
SECTION
  2
TABLES
  0
TABLE
  2
VPORT
  5
8
330
0
100
AcDbSymbolTable
 70
1
  0
VPORT
  5
23
330
8
100
AcDbSymbolTableRecord
100
AcDbViewportTableRecord
  2
*Active
 70
0
 10
0.0
 20
0.0
 11
1.0
 21
1.0
 12
0.0
 22
0.0
 13
0.0
 23
0.0
 14
0.5
 24
0.5
 15
0.5
 25
0.5
 16
0.0
 26
0.0
 36
1.0
 17
0.0
 27
0.0
 37
0.0
 40
1000.0
 41
1.34
 42
50.0
 43
0.0
 44
0.0
 50
0.0
 51
0.0
 71
0
 72
1000
 73
1
 74
3
 75
0
 76
0
 77
0
 78
0
281
0
 65
0
146
0.0
  0
ENDTAB
  0
TABLE
  2
LTYPE
  5
2
330
0
100
AcDbSymbolTable
 70
23
  0
LTYPE
  5
24
330
2
100
AcDbSymbolTableRecord
100
AcDbLinetypeTableRecord
  2
ByBlock
 70
0
  3

 72
65
 73
0
 40
0.0
  0
LTYPE
  5
25
330
2
100
AcDbSymbolTableRecord
100
AcDbLinetypeTableRecord
  2
ByLayer
 70
0
  3

 72
65
 73
0
 40
0.0
  0
LTYPE
  5
26
330
2
100
AcDbSymbolTableRecord
100
AcDbLinetypeTableRecord
  2
Continuous
 70
0
  3

 72
65
 73
0
 40
0.0
  0
LTYPE
  5
2F
330
2
100
AcDbSymbolTableRecord
100
AcDbLinetypeTableRecord
  2
CENTER
 70
0
  3
Center ____ _ ____ _ ____ _ ____ _ ____ _ ____
 72
65
 73
4
 40
5.08
 49
3.175
 74
0
 49
-0.635
 74
0
 49
0.635
 74
0
 49
-0.635
 74
0
  0
LTYPE
  5
30
330
2
100
AcDbSymbolTableRecord
100
AcDbLinetypeTableRecord
  2
CENTERX2
 70
0
  3
Center (2x) ________  __  ________  __  ________
 72
65
 73
4
 40
8.89
 49
6.35
 74
0
 49
-0.635
 74
0
 49
1.27
 74
0
 49
-0.635
 74
0
  0
LTYPE
  5
31
330
2
100
AcDbSymbolTableRecord
100
AcDbLinetypeTableRecord
  2
CENTER2
 70
0
  3
Center (.5x) ____ _ ____ _ ____ _ ____ _ ____
 72
65
 73
4
 40
2.54
 49
1.587
 74
0
 49
-0.318
 74
0
 49
0.318
 74
0
 49
-0.318
 74
0
  0
LTYPE
  5
32
330
2
100
AcDbSymbolTableRecord
100
AcDbLinetypeTableRecord
  2
DASHED
 70
0
  3
Dashed __ __ __ __ __ __ __ __ __ __ __ __ __ _
 72
65
 73
2
 40
1.524
 49
1.27
 74
0
 49
-0.254
 74
0
  0
LTYPE
  5
33
330
2
100
AcDbSymbolTableRecord
100
AcDbLinetypeTableRecord
  2
DASHEDX2
 70
0
  3
Dashed (2x) ____  ____  ____  ____  ____  ____
 72
65
 73
2
 40
3.048
 49
2.54
 74
0
 49
-0.508
 74
0
  0
LTYPE
  5
34
330
2
100
AcDbSymbolTableRecord
100
AcDbLinetypeTableRecord
  2
DASHED2
 70
0
  3
Dashed (.5x) _ _ _ _ _ _ _ _ _ _ _ _ _ _
 72
65
 73
2
 40
0.762
 49
0.635
 74
0
 49
-0.127
 74
0
  0
LTYPE
  5
35
330
2
100
AcDbSymbolTableRecord
100
AcDbLinetypeTableRecord
  2
PHANTOM
 70
0
  3
Phantom ______  __  __  ______  __  __  ______
 72
65
 73
6
 40
6.35
 49
3.175
 74
0
 49
-0.635
 74
0
 49
0.635
 74
0
 49
-0.635
 74
0
 49
0.635
 74
0
 49
-0.635
 74
0
  0
LTYPE
  5
36
330
2
100
AcDbSymbolTableRecord
100
AcDbLinetypeTableRecord
  2
PHANTOMX2
 70
0
  3
Phantom (2x)____________    ____    ____    ____________
 72
65
 73
6
 40
10.795
 49
6.35
 74
0
 49
-0.635
 74
0
 49
1.27
 74
0
 49
-0.635
 74
0
 49
1.27
 74
0
 49
-0.635
 74
0
  0
LTYPE
  5
37
330
2
100
AcDbSymbolTableRecord
100
AcDbLinetypeTableRecord
  2
PHANTOM2
 70
0
  3
Phantom (.5x) ___ _ _ ___ _ _ ___ _ _ ___ _ _ ___
 72
65
 73
6
 40
3.175
 49
1.587
 74
0
 49
-0.318
 74
0
 49
0.318
 74
0
 49
-0.318
 74
0
 49
0.318
 74
0
 49
-0.318
 74
0
  0
LTYPE
  5
38
330
2
100
AcDbSymbolTableRecord
100
AcDbLinetypeTableRecord
  2
DASHDOT
 70
0
  3
Dash dot __ . __ . __ . __ . __ . __ . __ . __
 72
65
 73
4
 40
3.556
 49
2.54
 74
0
 49
-0.508
 74
0
 49
0.0
 74
0
 49
-0.508
 74
0
  0
LTYPE
  5
39
330
2
100
AcDbSymbolTableRecord
100
AcDbLinetypeTableRecord
  2
DASHDOTX2
 70
0
  3
Dash dot (2x) ____  .  ____  .  ____  .  ____
 72
65
 73
4
 40
6.096
 49
5.08
 74
0
 49
-0.508
 74
0
 49
0.0
 74
0
 49
-0.508
 74
0
  0
LTYPE
  5
3A
330
2
100
AcDbSymbolTableRecord
100
AcDbLinetypeTableRecord
  2
DASHDOT2
 70
0
  3
Dash dot (.5x) _ . _ . _ . _ . _ . _ . _ . _
 72
65
 73
4
 40
1.778
 49
1.27
 74
0
 49
-0.254
 74
0
 49
0.0
 74
0
 49
-0.254
 74
0
  0
LTYPE
  5
3B
330
2
100
AcDbSymbolTableRecord
100
AcDbLinetypeTableRecord
  2
DOT
 70
0
  3
Dot .  .  .  .  .  .  .  .  .  .  .  .  .  .  .  .
 72
65
 73
2
 40
0.508
 49
0.0
 74
0
 49
-0.508
 74
0
  0
LTYPE
  5
3C
330
2
100
AcDbSymbolTableRecord
100
AcDbLinetypeTableRecord
  2
DOTX2
 70
0
  3
Dot (2x) .    .    .    .    .    .    .    . 
 72
65
 73
2
 40
1.016
 49
0.0
 74
0
 49
-1.016
 74
0
  0
LTYPE
  5
3D
330
2
100
AcDbSymbolTableRecord
100
AcDbLinetypeTableRecord
  2
DOT2
 70
0
  3
Dot (.5) . . . . . . . . . . . . . . . . . . . 
 72
65
 73
2
 40
0.254
 49
0.0
 74
0
 49
-0.254
 74
0
  0
LTYPE
  5
3E
330
2
100
AcDbSymbolTableRecord
100
AcDbLinetypeTableRecord
  2
DIVIDE
 70
0
  3
Divide __ . . __ . . __ . . __ . . __ . . __
 72
65
 73
6
 40
4.064
 49
2.54
 74
0
 49
-0.508
 74
0
 49
0.0
 74
0
 49
-0.508
 74
0
 49
0.0
 74
0
 49
-0.508
 74
0
  0
LTYPE
  5
3F
330
2
100
AcDbSymbolTableRecord
100
AcDbLinetypeTableRecord
  2
DIVIDEX2
 70
0
  3
Divide (2x) ____  . .  ____  . .  ____  . .  ____
 72
65
 73
6
 40
6.604
 49
5.08
 74
0
 49
-0.508
 74
0
 49
0.0
 74
0
 49
-0.508
 74
0
 49
0.0
 74
0
 49
-0.508
 74
0
  0
LTYPE
  5
40
330
2
100
AcDbSymbolTableRecord
100
AcDbLinetypeTableRecord
  2
DIVIDE2
 70
0
  3
Divide(.5x) _ . _ . _ . _ . _ . _ . _ . _
 72
65
 73
6
 40
2.032
 49
1.27
 74
0
 49
-0.254
 74
0
 49
0.0
 74
0
 49
-0.254
 74
0
 49
0.0
 74
0
 49
-0.254
 74
0
  0
LTYPE
  5
90
330
2
100
AcDbSymbolTableRecord
100
AcDbLinetypeTableRecord
  2
KESIK
 70
0
  3

 72
65
 73
2
 40
3.0
 49
2.0
 74
0
 49
-1.0
 74
0
  0
LTYPE
  5
91
330
2
100
AcDbSymbolTableRecord
100
AcDbLinetypeTableRecord
  2
EKSENCIZGI
 70
0
  3

 72
65
 73
4
 40
12.0
 49
8.0
 74
0
 49
-2.0
 74
0
 49
0.0
 74
0
 49
-2.0
 74
0
  0
ENDTAB
  0
TABLE
  2
LAYER
  5
1
330
0
100
AcDbSymbolTable
 70
8
  0
LAYER
  5
27
330
1
100
AcDbSymbolTableRecord
100
AcDbLayerTableRecord
  2
0
 70
0
 62
7
  6
Continuous
370
-3
390
13
347
21
  0
LAYER
  5
28
330
1
100
AcDbSymbolTableRecord
100
AcDbLayerTableRecord
  2
Defpoints
 70
0
 62
7
  6
Continuous
290
0
370
-3
390
13
347
21
  0
LAYER
  5
8A
330
1
100
AcDbSymbolTableRecord
100
AcDbLayerTableRecord
  2
GORUNEN
 70
0
 62
7
  6
Continuous
370
50
390
13
347
21
  0
LAYER
  5
8B
330
1
100
AcDbSymbolTableRecord
100
AcDbLayerTableRecord
  2
GIZLI
 70
0
 62
8
  6
KESIK
370
35
390
13
347
21
  0
LAYER
  5
8C
330
1
100
AcDbSymbolTableRecord
100
AcDbLayerTableRecord
  2
EKSEN
 70
0
 62
1
  6
EKSENCIZGI
370
20
390
13
347
21
  0
LAYER
  5
8D
330
1
100
AcDbSymbolTableRecord
100
AcDbLayerTableRecord
  2
OLCU
 70
0
 62
4
  6
Continuous
370
25
390
13
347
21
  0
LAYER
  5
8E
330
1
100
AcDbSymbolTableRecord
100
AcDbLayerTableRecord
  2
YAZI
 70
0
 62
3
  6
Continuous
370
25
390
13
347
21
  0
LAYER
  5
8F
330
1
100
AcDbSymbolTableRecord
100
AcDbLayerTableRecord
  2
CERCEVE
 70
0
 62
5
  6
Continuous
370
50
390
13
347
21
  0
ENDTAB
  0
TABLE
  2
STYLE
  5
5
330
0
100
AcDbSymbolTable
 70
26
  0
STYLE
  5
29
330
5
100
AcDbSymbolTableRecord
100
AcDbTextStyleTableRecord
  2
Standard
 70
0
 40
0.0
 41
1.0
 50
0.0
 71
0
 42
2.5
  3
txt
  4

  0
STYLE
  5
41
330
5
100
AcDbSymbolTableRecord
100
AcDbTextStyleTableRecord
  2
OpenSans-Light
 70
0
 40
0.0
 41
1.0
 50
0.0
 71
0
 42
2.5
  3
OpenSans-Light.ttf
  4

  0
STYLE
  5
42
330
5
100
AcDbSymbolTableRecord
100
AcDbTextStyleTableRecord
  2
OpenSans-Light-Italic
 70
0
 40
0.0
 41
1.0
 50
0.0
 71
0
 42
2.5
  3
OpenSans-LightItalic.ttf
  4

  0
STYLE
  5
43
330
5
100
AcDbSymbolTableRecord
100
AcDbTextStyleTableRecord
  2
OpenSans
 70
0
 40
0.0
 41
1.0
 50
0.0
 71
0
 42
2.5
  3
OpenSans-Regular.ttf
  4

  0
STYLE
  5
44
330
5
100
AcDbSymbolTableRecord
100
AcDbTextStyleTableRecord
  2
OpenSans-Italic
 70
0
 40
0.0
 41
1.0
 50
0.0
 71
0
 42
2.5
  3
OpenSans-Italic.ttf
  4

  0
STYLE
  5
45
330
5
100
AcDbSymbolTableRecord
100
AcDbTextStyleTableRecord
  2
OpenSans-SemiBold
 70
0
 40
0.0
 41
1.0
 50
0.0
 71
0
 42
2.5
  3
OpenSans-SemiBold.ttf
  4

  0
STYLE
  5
46
330
5
100
AcDbSymbolTableRecord
100
AcDbTextStyleTableRecord
  2
OpenSans-SemiBoldItalic
 70
0
 40
0.0
 41
1.0
 50
0.0
 71
0
 42
2.5
  3
OpenSans-SemiBoldItalic.ttf
  4

  0
STYLE
  5
47
330
5
100
AcDbSymbolTableRecord
100
AcDbTextStyleTableRecord
  2
OpenSans-Bold
 70
0
 40
0.0
 41
1.0
 50
0.0
 71
0
 42
2.5
  3
OpenSans-Bold.ttf
  4

  0
STYLE
  5
48
330
5
100
AcDbSymbolTableRecord
100
AcDbTextStyleTableRecord
  2
OpenSans-BoldItalic
 70
0
 40
0.0
 41
1.0
 50
0.0
 71
0
 42
2.5
  3
OpenSans-BoldItalic.ttf
  4

  0
STYLE
  5
49
330
5
100
AcDbSymbolTableRecord
100
AcDbTextStyleTableRecord
  2
OpenSans-ExtraBold
 70
0
 40
0.0
 41
1.0
 50
0.0
 71
0
 42
2.5
  3
OpenSans-ExtraBold.ttf
  4

  0
STYLE
  5
4A
330
5
100
AcDbSymbolTableRecord
100
AcDbTextStyleTableRecord
  2
OpenSans-ExtraBoldItalic
 70
0
 40
0.0
 41
1.0
 50
0.0
 71
0
 42
2.5
  3
OpenSans-ExtraBoldItalic.ttf
  4

  0
STYLE
  5
4B
330
5
100
AcDbSymbolTableRecord
100
AcDbTextStyleTableRecord
  2
OpenSansCondensed-Bold
 70
0
 40
0.0
 41
1.0
 50
0.0
 71
0
 42
2.5
  3
OpenSansCondensed-Bold.ttf
  4

  0
STYLE
  5
4C
330
5
100
AcDbSymbolTableRecord
100
AcDbTextStyleTableRecord
  2
OpenSansCondensed-Light
 70
0
 40
0.0
 41
1.0
 50
0.0
 71
0
 42
2.5
  3
OpenSansCondensed-Light.ttf
  4

  0
STYLE
  5
4D
330
5
100
AcDbSymbolTableRecord
100
AcDbTextStyleTableRecord
  2
OpenSansCondensed-Italic
 70
0
 40
0.0
 41
1.0
 50
0.0
 71
0
 42
2.5
  3
OpenSansCondensed-LightItalic.ttf
  4

  0
STYLE
  5
4E
330
5
100
AcDbSymbolTableRecord
100
AcDbTextStyleTableRecord
  2
LiberationSans
 70
0
 40
0.0
 41
1.0
 50
0.0
 71
0
 42
2.5
  3
LiberationSans-Regular.ttf
  4

  0
STYLE
  5
4F
330
5
100
AcDbSymbolTableRecord
100
AcDbTextStyleTableRecord
  2
LiberationSans-Bold
 70
0
 40
0.0
 41
1.0
 50
0.0
 71
0
 42
2.5
  3
LiberationSans-Bold.ttf
  4

  0
STYLE
  5
50
330
5
100
AcDbSymbolTableRecord
100
AcDbTextStyleTableRecord
  2
LiberationSans-BoldItalic
 70
0
 40
0.0
 41
1.0
 50
0.0
 71
0
 42
2.5
  3
LiberationSans-BoldItalic.ttf
  4

  0
STYLE
  5
51
330
5
100
AcDbSymbolTableRecord
100
AcDbTextStyleTableRecord
  2
LiberationSans-Italic
 70
0
 40
0.0
 41
1.0
 50
0.0
 71
0
 42
2.5
  3
LiberationSans-Italic.ttf
  4

  0
STYLE
  5
52
330
5
100
AcDbSymbolTableRecord
100
AcDbTextStyleTableRecord
  2
LiberationSerif
 70
0
 40
0.0
 41
1.0
 50
0.0
 71
0
 42
2.5
  3
LiberationSerif-Regular.ttf
  4

  0
STYLE
  5
53
330
5
100
AcDbSymbolTableRecord
100
AcDbTextStyleTableRecord
  2
LiberationSerif-Bold
 70
0
 40
0.0
 41
1.0
 50
0.0
 71
0
 42
2.5
  3
LiberationSerif-Bold.ttf
  4

  0
STYLE
  5
54
330
5
100
AcDbSymbolTableRecord
100
AcDbTextStyleTableRecord
  2
LiberationSerif-BoldItalic
 70
0
 40
0.0
 41
1.0
 50
0.0
 71
0
 42
2.5
  3
LiberationSerif-BoldItalic.ttf
  4

  0
STYLE
  5
55
330
5
100
AcDbSymbolTableRecord
100
AcDbTextStyleTableRecord
  2
LiberationSerif-Italic
 70
0
 40
0.0
 41
1.0
 50
0.0
 71
0
 42
2.5
  3
LiberationSerif-Italic.ttf
  4

  0
STYLE
  5
56
330
5
100
AcDbSymbolTableRecord
100
AcDbTextStyleTableRecord
  2
LiberationMono
 70
0
 40
0.0
 41
1.0
 50
0.0
 71
0
 42
2.5
  3
LiberationMono-Regular.ttf
  4

  0
STYLE
  5
57
330
5
100
AcDbSymbolTableRecord
100
AcDbTextStyleTableRecord
  2
LiberationMono-Bold
 70
0
 40
0.0
 41
1.0
 50
0.0
 71
0
 42
2.5
  3
LiberationMono-Bold.ttf
  4

  0
STYLE
  5
58
330
5
100
AcDbSymbolTableRecord
100
AcDbTextStyleTableRecord
  2
LiberationMono-BoldItalic
 70
0
 40
0.0
 41
1.0
 50
0.0
 71
0
 42
2.5
  3
LiberationMono-BoldItalic.ttf
  4

  0
STYLE
  5
59
330
5
100
AcDbSymbolTableRecord
100
AcDbTextStyleTableRecord
  2
LiberationMono-Italic
 70
0
 40
0.0
 41
1.0
 50
0.0
 71
0
 42
2.5
  3
LiberationMono-Italic.ttf
  4

  0
ENDTAB
  0
TABLE
  2
VIEW
  5
7
330
0
100
AcDbSymbolTable
 70
0
  0
ENDTAB
  0
TABLE
  2
UCS
  5
6
330
0
100
AcDbSymbolTable
 70
0
  0
ENDTAB
  0
TABLE
  2
APPID
  5
3
330
0
100
AcDbSymbolTable
 70
3
  0
APPID
  5
2A
330
3
100
AcDbSymbolTableRecord
100
AcDbRegAppTableRecord
  2
ACAD
 70
0
  0
APPID
  5
208
330
3
100
AcDbSymbolTableRecord
100
AcDbRegAppTableRecord
  2
HATCHBACKGROUNDCOLOR
 70
0
  0
APPID
  5
209
330
3
100
AcDbSymbolTableRecord
100
AcDbRegAppTableRecord
  2
EZDXF
 70
0
  0
ENDTAB
  0
TABLE
  2
DIMSTYLE
  5
4
330
0
100
AcDbSymbolTable
 70
13
100
AcDbDimStyleTable
  0
DIMSTYLE
105
2B
330
4
100
AcDbSymbolTableRecord
100
AcDbDimStyleTableRecord
  2
Standard
 70
0
 40
1.0
 41
2.5
 42
0.625
 43
3.75
 44
1.25
 45
0.0
 46
0.0
 47
0.0
 48
0.0
 49
2.5
140
2.5
141
2.5
142
0.0
143
0.03937007874
144
1.0
145
0.0
146
1.0
147
0.625
148
0.0
 69
0
 70
0
 71
0
 72
0
 73
0
 74
0
 75
0
 76
0
 77
1
 78
8
 79
3
170
0
171
3
172
1
173
0
174
0
175
0
176
0
177
0
178
0
179
2
271
2
272
2
273
2
274
3
275
0
276
0
277
2
278
44
279
0
280
0
281
0
282
0
283
0
284
8
285
0
286
0
288
0
289
3
290
0
371
-2
372
-2
  0
DIMSTYLE
105
73
330
4
100
AcDbSymbolTableRecord
100
AcDbDimStyleTableRecord
  2
EZDXF
 70
0
 40
1.0
 41
0.175
 42
0.125
 43
3.75
 44
0.375
 45
0.0
 46
0.0
 47
0.0
 48
0.0
 49
2.5
140
0.25
141
2.5
142
0.0
143
0.03937007874
144
100.0
145
0.0
146
0.5
147
0.1
148
0.0
 69
0
 70
0
 71
0
 72
0
 73
0
 74
0
 75
0
 76
0
 77
1
 78
12
 79
3
170
0
171
3
172
1
173
0
174
0
175
0
176
0
177
0
178
0
179
2
271
2
272
2
273
2
274
3
275
0
276
0
277
2
278
46
279
2
280
0
281
0
282
0
283
0
284
8
285
0
286
0
288
1
289
3
290
0
340
4C
342
74
371
-2
372
-2
  0
DIMSTYLE
105
7C
330
4
100
AcDbSymbolTableRecord
100
AcDbDimStyleTableRecord
  2
EZ_M_100_H25_CM
 70
0
 40
1.0
 41
0.25
 42
0.125
 43
3.75
 44
0.375
 45
0.0
 46
0.0
 47
0.0
 48
0.0
 49
2.5
140
0.25
141
2.5
142
0.125
143
0.03937007874
144
100.0
145
0.0
146
0.5
147
0.1
148
0.0
 69
0
 70
0
 71
0
 72
0
 73
0
 74
0
 75
0
 76
0
 77
1
 78
12
 79
3
170
0
171
3
172
1
173
0
174
0
175
0
176
0
177
0
178
0
179
2
271
2
272
2
273
2
274
3
275
0
276
0
277
2
278
46
279
2
280
0
281
0
282
0
283
0
284
8
285
0
286
0
288
1
289
3
290
0
340
4C
371
-2
372
-2
  0
DIMSTYLE
105
7D
330
4
100
AcDbSymbolTableRecord
100
AcDbDimStyleTableRecord
  2
EZ_M_50_H25_CM
 70
0
 40
1.0
 41
0.125
 42
0.0625
 43
3.75
 44
0.1875
 45
0.0
 46
0.0
 47
0.0
 48
0.0
 49
2.5
140
0.125
141
2.5
142
0.0625
143
0.03937007874
144
100.0
145
0.0
146
0.5
147
0.05
148
0.0
 69
0
 70
0
 71
0
 72
0
 73
0
 74
0
 75
0
 76
0
 77
1
 78
12
 79
3
170
0
171
3
172
1
173
0
174
0
175
0
176
0
177
0
178
0
179
2
271
2
272
2
273
2
274
3
275
0
276
0
277
2
278
46
279
2
280
0
281
0
282
0
283
0
284
8
285
0
286
0
288
1
289
3
290
0
340
4C
371
-2
372
-2
  0
DIMSTYLE
105
7E
330
4
100
AcDbSymbolTableRecord
100
AcDbDimStyleTableRecord
  2
EZ_M_25_H25_CM
 70
0
 40
1.0
 41
0.0625
 42
0.03125
 43
3.75
 44
0.09375
 45
0.0
 46
0.0
 47
0.0
 48
0.0
 49
2.5
140
0.0625
141
2.5
142
0.03125
143
0.03937007874
144
100.0
145
0.0
146
0.5
147
0.025
148
0.0
 69
0
 70
0
 71
0
 72
0
 73
0
 74
0
 75
0
 76
0
 77
1
 78
12
 79
3
170
0
171
3
172
1
173
0
174
0
175
0
176
0
177
0
178
0
179
2
271
2
272
2
273
2
274
3
275
0
276
0
277
2
278
46
279
2
280
0
281
0
282
0
283
0
284
8
285
0
286
0
288
1
289
3
290
0
340
4C
371
-2
372
-2
  0
DIMSTYLE
105
7F
330
4
100
AcDbSymbolTableRecord
100
AcDbDimStyleTableRecord
  2
EZ_M_20_H25_CM
 70
0
 40
1.0
 41
0.05
 42
0.025
 43
3.75
 44
0.07500000000000001
 45
0.0
 46
0.0
 47
0.0
 48
0.0
 49
2.5
140
0.05
141
2.5
142
0.025
143
0.03937007874
144
100.0
145
0.0
146
0.5
147
0.020000000000000004
148
0.0
 69
0
 70
0
 71
0
 72
0
 73
0
 74
0
 75
0
 76
0
 77
1
 78
12
 79
3
170
0
171
3
172
1
173
0
174
0
175
0
176
0
177
0
178
0
179
2
271
2
272
2
273
2
274
3
275
0
276
0
277
2
278
46
279
2
280
0
281
0
282
0
283
0
284
8
285
0
286
0
288
1
289
3
290
0
340
4C
371
-2
372
-2
  0
DIMSTYLE
105
80
330
4
100
AcDbSymbolTableRecord
100
AcDbDimStyleTableRecord
  2
EZ_M_10_H25_CM
 70
0
 40
1.0
 41
0.025
 42
0.0125
 43
3.75
 44
0.037500000000000006
 45
0.0
 46
0.0
 47
0.0
 48
0.0
 49
2.5
140
0.025
141
2.5
142
0.0125
143
0.03937007874
144
100.0
145
0.0
146
0.5
147
0.010000000000000002
148
0.0
 69
0
 70
0
 71
0
 72
0
 73
0
 74
0
 75
0
 76
0
 77
1
 78
12
 79
3
170
0
171
3
172
1
173
0
174
0
175
0
176
0
177
0
178
0
179
2
271
2
272
2
273
2
274
3
275
0
276
0
277
2
278
46
279
2
280
0
281
0
282
0
283
0
284
8
285
0
286
0
288
1
289
3
290
0
340
4C
371
-2
372
-2
  0
DIMSTYLE
105
81
330
4
100
AcDbSymbolTableRecord
100
AcDbDimStyleTableRecord
  2
EZ_M_5_H25_CM
 70
0
 40
1.0
 41
0.0125
 42
0.00625
 43
3.75
 44
0.018750000000000003
 45
0.0
 46
0.0
 47
0.0
 48
0.0
 49
2.5
140
0.0125
141
2.5
142
0.00625
143
0.03937007874
144
100.0
145
0.0
146
0.5
147
0.005000000000000001
148
0.0
 69
0
 70
0
 71
0
 72
0
 73
0
 74
0
 75
0
 76
0
 77
1
 78
12
 79
3
170
0
171
3
172
1
173
0
174
0
175
0
176
0
177
0
178
0
179
2
271
2
272
2
273
2
274
3
275
0
276
0
277
2
278
46
279
2
280
0
281
0
282
0
283
0
284
8
285
0
286
0
288
1
289
3
290
0
340
4C
371
-2
372
-2
  0
DIMSTYLE
105
82
330
4
100
AcDbSymbolTableRecord
100
AcDbDimStyleTableRecord
  2
EZ_M_1_H25_CM
 70
0
 40
1.0
 41
0.0025
 42
0.00125
 43
3.75
 44
0.00375
 45
0.0
 46
0.0
 47
0.0
 48
0.0
 49
2.5
140
0.0025
141
2.5
142
0.00125
143
0.03937007874
144
100.0
145
0.0
146
0.5
147
0.001
148
0.0
 69
0
 70
0
 71
0
 72
0
 73
0
 74
0
 75
0
 76
0
 77
1
 78
12
 79
3
170
0
171
3
172
1
173
0
174
0
175
0
176
0
177
0
178
0
179
2
271
2
272
2
273
2
274
3
275
0
276
0
277
2
278
46
279
2
280
0
281
0
282
0
283
0
284
8
285
0
286
0
288
1
289
3
290
0
340
4C
371
-2
372
-2
  0
DIMSTYLE
105
83
330
4
100
AcDbSymbolTableRecord
100
AcDbDimStyleTableRecord
  2
EZ_RADIUS
 70
0
 40
1.0
 41
0.25
 42
0.125
 43
3.75
 44
0.375
 45
0.0
 46
0.0
 47
0.0
 48
0.0
 49
2.5
140
0.25
141
0.0
142
0.0
143
0.03937007874
144
100.0
145
0.0
146
0.5
147
0.1
148
0.0
 69
0
 70
0
 71
0
 72
0
 73
0
 74
0
 75
0
 76
0
 77
1
 78
12
 79
3
170
0
171
3
172
0
173
0
174
0
175
0
176
0
177
0
178
0
179
2
271
2
272
2
273
2
274
3
275
0
276
0
277
2
278
46
279
1
280
0
281
0
282
0
283
0
284
8
285
0
286
0
288
1
289
3
290
0
340
4C
342
84
371
-2
372
-2
  0
DIMSTYLE
105
88
330
4
100
AcDbSymbolTableRecord
100
AcDbDimStyleTableRecord
  2
EZ_RADIUS_INSIDE
 70
0
 40
1.0
 41
0.25
 42
0.125
 43
3.75
 44
0.375
 45
0.0
 46
0.0
 47
0.0
 48
0.0
 49
2.5
140
0.25
141
0.0
142
0.0
143
0.03937007874
144
100.0
145
0.0
146
0.5
147
0.1
148
0.0
 69
0
 70
0
 71
0
 72
0
 73
0
 74
0
 75
0
 76
0
 77
0
 78
12
 79
3
170
0
171
3
172
0
173
0
174
1
175
0
176
0
177
0
178
0
179
2
271
2
272
2
273
2
274
3
275
0
276
0
277
2
278
46
279
0
280
0
281
0
282
0
283
0
284
8
285
0
286
0
288
1
289
0
290
0
340
4C
342
84
371
-2
372
-2
  0
DIMSTYLE
105
89
330
4
100
AcDbSymbolTableRecord
100
AcDbDimStyleTableRecord
  2
EZ_CURVED
 70
0
 40
1.0
 41
0.25
 42
0.125
 43
3.75
 44
0.375
 45
0.0
 46
0.0
 47
0.0
 48
0.0
 49
2.5
140
0.25
141
2.5
142
0.0
143
0.03937007874
144
100.0
145
0.0
146
0.5
147
0.1
148
0.0
 69
0
 70
0
 71
0
 72
0
 73
0
 74
0
 75
0
 76
0
 77
1
 78
12
 79
2
 90
2
170
0
171
3
172
1
173
0
174
0
175
0
176
0
177
0
178
0
179
2
271
2
272
2
273
2
274
3
275
0
276
0
277
2
278
46
279
2
280
0
281
0
282
0
283
0
284
8
285
0
286
0
288
1
289
3
290
0
340
4C
371
-2
372
-2
  0
DIMSTYLE
105
92
330
4
100
AcDbSymbolTableRecord
100
AcDbDimStyleTableRecord
  2
PF_MM
 70
0
 40
1.0
 41
3.1111236651817538
 42
1.944452290738596
 43
3.75
 44
2.333342748886315
 45
0.0
 46
0.0
 47
0.0
 48
0.0
 49
2.5
140
3.888904581477192
141
2.5
142
0.0
143
0.03937007874
144
1.0
145
0.0
146
1.0
147
1.361116603517017
148
0.0
 69
0
 70
0
 71
0
 72
0
 73
0
 74
0
 75
0
 76
0
 77
1
 78
8
 79
3
170
0
171
3
172
1
173
0
174
0
175
0
176
4
177
4
178
3
179
2
271
1
272
2
273
2
274
3
275
0
276
0
277
2
278
44
279
0
280
0
281
0
282
0
283
0
284
8
285
0
286
0
288
0
289
3
290
0
371
-2
372
-2
  0
ENDTAB
  0
TABLE
  2
BLOCK_RECORD
  5
9
330
0
100
AcDbSymbolTable
 70
13
  0
BLOCK_RECORD
  5
17
330
9
100
AcDbSymbolTableRecord
100
AcDbBlockTableRecord
  2
*Model_Space
340
1A
 70
0
280
1
281
0
  0
BLOCK_RECORD
  5
1B
330
9
100
AcDbSymbolTableRecord
100
AcDbBlockTableRecord
  2
*Paper_Space
340
1E
 70
0
280
1
281
0
  0
BLOCK_RECORD
  5
74
330
9
100
AcDbSymbolTableRecord
100
AcDbBlockTableRecord
  2
_ARCHTICK
340
0
 70
0
280
1
281
0
  0
BLOCK_RECORD
  5
78
330
9
100
AcDbSymbolTableRecord
100
AcDbBlockTableRecord
  2
_CLOSEDFILLED
340
0
 70
0
280
1
281
0
  0
BLOCK_RECORD
  5
84
330
9
100
AcDbSymbolTableRecord
100
AcDbBlockTableRecord
  2
_CLOSEDBLANK
340
0
 70
0
280
1
281
0
  0
BLOCK_RECORD
  5
DD
330
9
100
AcDbSymbolTableRecord
100
AcDbBlockTableRecord
  2
*D1
340
0
 70
0
280
1
281
0
  0
BLOCK_RECORD
  5
EC
330
9
100
AcDbSymbolTableRecord
100
AcDbBlockTableRecord
  2
*D2
340
0
 70
0
280
1
281
0
  0
BLOCK_RECORD
  5
136
330
9
100
AcDbSymbolTableRecord
100
AcDbBlockTableRecord
  2
*D3
340
0
 70
0
280
1
281
0
  0
BLOCK_RECORD
  5
145
330
9
100
AcDbSymbolTableRecord
100
AcDbBlockTableRecord
  2
*D4
340
0
 70
0
280
1
281
0
  0
BLOCK_RECORD
  5
1B5
330
9
100
AcDbSymbolTableRecord
100
AcDbBlockTableRecord
  2
*D5
340
0
 70
0
280
1
281
0
  0
BLOCK_RECORD
  5
1C4
330
9
100
AcDbSymbolTableRecord
100
AcDbBlockTableRecord
  2
*D6
340
0
 70
0
280
1
281
0
  0
BLOCK_RECORD
  5
1E1
330
9
100
AcDbSymbolTableRecord
100
AcDbBlockTableRecord
  2
*D7
340
0
 70
0
280
1
281
0
  0
BLOCK_RECORD
  5
1EE
330
9
100
AcDbSymbolTableRecord
100
AcDbBlockTableRecord
  2
*D8
340
0
 70
0
280
1
281
0
  0
ENDTAB
  0
ENDSEC
  0
SECTION
  2
BLOCKS
  0
BLOCK
  5
18
330
17
100
AcDbEntity
  8
0
100
AcDbBlockBegin
  2
*Model_Space
 70
0
 10
0.0
 20
0.0
 30
0.0
  3
*Model_Space
  1

  0
ENDBLK
  5
19
330
17
100
AcDbEntity
  8
0
100
AcDbBlockEnd
  0
BLOCK
  5
1C
330
1B
100
AcDbEntity
  8
0
100
AcDbBlockBegin
  2
*Paper_Space
 70
0
 10
0.0
 20
0.0
 30
0.0
  3
*Paper_Space
  1

  0
ENDBLK
  5
1D
330
1B
100
AcDbEntity
  8
0
100
AcDbBlockEnd
  0
BLOCK
  5
75
330
74
100
AcDbEntity
  8
0
100
AcDbBlockBegin
  2
_ARCHTICK
 70
0
 10
0.0
 20
0.0
 30
0.0
  3
_ARCHTICK
  1

  0
LWPOLYLINE
  5
77
330
74
100
AcDbEntity
  8
0
  6
BYBLOCK
 62
0
100
AcDbPolyline
 90
2
 70
0
 43
0.15
 10
-0.5
 20
-0.5
 10
0.5
 20
0.5
  0
ENDBLK
  5
76
330
74
100
AcDbEntity
  8
0
100
AcDbBlockEnd
  0
BLOCK
  5
79
330
78
100
AcDbEntity
  8
0
100
AcDbBlockBegin
  2
_CLOSEDFILLED
 70
0
 10
0.0
 20
0.0
 30
0.0
  3
_CLOSEDFILLED
  1

  0
SOLID
  5
7B
330
78
100
AcDbEntity
  8
0
  6
BYBLOCK
 62
0
100
AcDbTrace
 10
-1.0
 20
0.16439898372402537
 30
0.0
 11
0.0
 21
0.0
 31
0.0
 12
-1.0
 22
-0.16439898372402537
 32
0.0
 13
-1.0
 23
-0.16439898372402537
 33
0.0
  0
ENDBLK
  5
7A
330
78
100
AcDbEntity
  8
0
100
AcDbBlockEnd
  0
BLOCK
  5
85
330
84
100
AcDbEntity
  8
0
100
AcDbBlockBegin
  2
_CLOSEDBLANK
 70
0
 10
0.0
 20
0.0
 30
0.0
  3
_CLOSEDBLANK
  1

  0
LWPOLYLINE
  5
87
330
84
100
AcDbEntity
  8
0
  6
BYBLOCK
 62
0
100
AcDbPolyline
 90
3
 70
1
 10
-1.0
 20
0.16439898372402537
 10
0.0
 20
0.0
 10
-1.0
 20
-0.16439898372402537
  0
ENDBLK
  5
86
330
84
100
AcDbEntity
  8
0
100
AcDbBlockEnd
  0
BLOCK
  5
DE
330
DD
100
AcDbEntity
  8
0
100
AcDbBlockBegin
  2
*D1
 70
1
 10
0.0
 20
0.0
 30
0.0
  3
*D1
  1

  0
LINE
  5
E0
330
DD
100
AcDbEntity
  8
0
 62
4
100
AcDbLine
 10
0.0
 20
-1.944452290738596
 30
0.0
 11
0.0
 21
-17.888961074795084
 31
0.0
  0
LINE
  5
E1
330
DD
100
AcDbEntity
  8
0
 62
4
100
AcDbLine
 10
175.00000000000006
 20
-1.944452290738596
 30
0.0
 11
175.00000000000006
 21
-17.888961074795084
 31
0.0
  0
INSERT
  5
E2
330
DD
100
AcDbEntity
  8
OLCU
 62
4
100
AcDbBlockReference
  2
_CLOSEDFILLED
 10
0.0
 20
-15.555618325908767
 30
0.0
 41
3.1111236651817538
 42
3.1111236651817538
 50
180.0
  0
INSERT
  5
E4
330
DD
100
AcDbEntity
  8
OLCU
 62
4
100
AcDbBlockReference
  2
_CLOSEDFILLED
 10
175.00000000000006
 20
-15.555618325908767
 30
0.0
 41
3.1111236651817538
 42
3.1111236651817538
  0
LINE
  5
E6
330
DD
100
AcDbEntity
  8
0
 62
4
100
AcDbLine
 10
3.1111236651817538
 20
-15.555618325908767
 30
0.0
 11
171.8888763348183
 21
-15.555618325908767
 31
0.0
  0
MTEXT
  5
E7
330
DD
100
AcDbEntity
  8
OLCU
 62
3
100
AcDbMText
 10
87.50000000000003
 20
-12.250049431653155
 30
0.0
 40
3.888904581477192
 71
5
  1
175
  7
OpenSansCondensed-Light
  0
POINT
  5
E8
330
DD
100
AcDbEntity
  8
Defpoints
100
AcDbPoint
 10
0.0
 20
-15.555618325908767
 30
0.0
  0
POINT
  5
E9
330
DD
100
AcDbEntity
  8
Defpoints
100
AcDbPoint
 10
0.0
 20
0.0
 30
0.0
  0
POINT
  5
EA
330
DD
100
AcDbEntity
  8
Defpoints
100
AcDbPoint
 10
175.00000000000006
 20
0.0
 30
0.0
  0
ENDBLK
  5
DF
330
DD
100
AcDbEntity
  8
0
100
AcDbBlockEnd
  0
BLOCK
  5
ED
330
EC
100
AcDbEntity
  8
0
100
AcDbBlockBegin
  2
*D2
 70
1
 10
0.0
 20
0.0
 30
0.0
  3
*D2
  1

  0
LINE
  5
EF
330
EC
100
AcDbEntity
  8
0
 62
4
100
AcDbLine
 10
-1.944452290738596
 20
0.0
 30
0.0
 11
-17.888961074795084
 21
0.0
 31
0.0
  0
LINE
  5
F0
330
EC
100
AcDbEntity
  8
0
 62
4
100
AcDbLine
 10
-1.944452290738596
 20
5.000000000000014
 30
0.0
 11
-17.888961074795084
 21
5.000000000000014
 31
0.0
  0
INSERT
  5
F1
330
EC
100
AcDbEntity
  8
OLCU
 62
4
100
AcDbBlockReference
  2
_CLOSEDFILLED
 10
-15.555618325908767
 20
0.0
 30
0.0
 41
3.1111236651817538
 42
3.1111236651817538
 50
90.0
  0
INSERT
  5
F3
330
EC
100
AcDbEntity
  8
OLCU
 62
4
100
AcDbBlockReference
  2
_CLOSEDFILLED
 10
-15.555618325908767
 20
5.000000000000014
 30
0.0
 41
3.1111236651817538
 42
3.1111236651817538
 50
270.0
  0
LINE
  5
F5
330
EC
100
AcDbEntity
  8
0
 62
4
100
AcDbLine
 10
-15.555618325908767
 20
-3.1111236651817538
 30
0.0
 11
-15.555618325908767
 21
-6.2222473303635075
 31
0.0
  0
LINE
  5
F6
330
EC
100
AcDbEntity
  8
0
 62
4
100
AcDbLine
 10
-15.555618325908767
 20
8.111123665181768
 30
0.0
 11
-15.555618325908767
 21
11.222247330363523
 31
0.0
  0
LINE
  5
F7
330
EC
100
AcDbEntity
  8
0
 62
4
100
AcDbLine
 10
-15.555618325908767
 20
0.0
 30
0.0
 11
-15.555618325908767
 21
5.000000000000014
 31
0.0
  0
MTEXT
  5
F8
330
EC
100
AcDbEntity
  8
OLCU
 62
3
100
AcDbMText
 10
-18.861187220164382
 20
2.500000000000007
 30
0.0
 40
3.888904581477192
 71
5
  1
5
  7
OpenSansCondensed-Light
 50
90.0
  0
POINT
  5
F9
330
EC
100
AcDbEntity
  8
Defpoints
100
AcDbPoint
 10
-15.555618325908767
 20
0.0
 30
0.0
  0
POINT
  5
FA
330
EC
100
AcDbEntity
  8
Defpoints
100
AcDbPoint
 10
0.0
 20
0.0
 30
0.0
  0
POINT
  5
FB
330
EC
100
AcDbEntity
  8
Defpoints
100
AcDbPoint
 10
0.0
 20
5.000000000000014
 30
0.0
  0
ENDBLK
  5
EE
330
EC
100
AcDbEntity
  8
0
100
AcDbBlockEnd
  0
BLOCK
  5
137
330
136
100
AcDbEntity
  8
0
100
AcDbBlockBegin
  2
*D3
 70
1
 10
0.0
 20
0.0
 30
0.0
  3
*D3
  1

  0
LINE
  5
139
330
136
100
AcDbEntity
  8
0
 62
4
100
AcDbLine
 10
0.0
 20
-146.66756114419996
 30
0.0
 11
0.0
 21
-162.61206992825646
 31
0.0
  0
LINE
  5
13A
330
136
100
AcDbEntity
  8
0
 62
4
100
AcDbLine
 10
175.00000000000009
 20
-146.66756114419996
 30
0.0
 11
175.00000000000009
 21
-162.61206992825646
 31
0.0
  0
INSERT
  5
13B
330
136
100
AcDbEntity
  8
OLCU
 62
4
100
AcDbBlockReference
  2
_CLOSEDFILLED
 10
0.0
 20
-160.27872717937015
 30
0.0
 41
3.1111236651817538
 42
3.1111236651817538
 50
180.0
  0
INSERT
  5
13D
330
136
100
AcDbEntity
  8
OLCU
 62
4
100
AcDbBlockReference
  2
_CLOSEDFILLED
 10
175.00000000000009
 20
-160.27872717937015
 30
0.0
 41
3.1111236651817538
 42
3.1111236651817538
  0
LINE
  5
13F
330
136
100
AcDbEntity
  8
0
 62
4
100
AcDbLine
 10
3.1111236651817538
 20
-160.27872717937015
 30
0.0
 11
171.88887633481832
 21
-160.27872717937015
 31
0.0
  0
MTEXT
  5
140
330
136
100
AcDbEntity
  8
OLCU
 62
3
100
AcDbMText
 10
87.50000000000004
 20
-156.97315828511455
 30
0.0
 40
3.888904581477192
 71
5
  1
175
  7
OpenSansCondensed-Light
  0
POINT
  5
141
330
136
100
AcDbEntity
  8
Defpoints
100
AcDbPoint
 10
0.0
 20
-160.27872717937015
 30
0.0
  0
POINT
  5
142
330
136
100
AcDbEntity
  8
Defpoints
100
AcDbPoint
 10
0.0
 20
-144.72310885346138
 30
0.0
  0
POINT
  5
143
330
136
100
AcDbEntity
  8
Defpoints
100
AcDbPoint
 10
175.00000000000009
 20
-144.72310885346138
 30
0.0
  0
ENDBLK
  5
138
330
136
100
AcDbEntity
  8
0
100
AcDbBlockEnd
  0
BLOCK
  5
146
330
145
100
AcDbEntity
  8
0
100
AcDbBlockBegin
  2
*D4
 70
1
 10
0.0
 20
0.0
 30
0.0
  3
*D4
  1

  0
LINE
  5
148
330
145
100
AcDbEntity
  8
0
 62
4
100
AcDbLine
 10
-1.944452290738596
 20
-144.72310885346138
 30
0.0
 11
-17.888961074795084
 21
-144.72310885346138
 31
0.0
  0
LINE
  5
149
330
145
100
AcDbEntity
  8
0
 62
4
100
AcDbLine
 10
-1.944452290738596
 20
-44.72310885346124
 30
0.0
 11
-17.888961074795084
 21
-44.72310885346124
 31
0.0
  0
INSERT
  5
14A
330
145
100
AcDbEntity
  8
OLCU
 62
4
100
AcDbBlockReference
  2
_CLOSEDFILLED
 10
-15.555618325908767
 20
-144.72310885346138
 30
0.0
 41
3.1111236651817538
 42
3.1111236651817538
 50
270.0
  0
INSERT
  5
14C
330
145
100
AcDbEntity
  8
OLCU
 62
4
100
AcDbBlockReference
  2
_CLOSEDFILLED
 10
-15.555618325908767
 20
-44.72310885346124
 30
0.0
 41
3.1111236651817538
 42
3.1111236651817538
 50
90.0
  0
LINE
  5
14E
330
145
100
AcDbEntity
  8
0
 62
4
100
AcDbLine
 10
-15.555618325908767
 20
-141.61198518827962
 30
0.0
 11
-15.555618325908767
 21
-47.83423251864299
 31
0.0
  0
MTEXT
  5
14F
330
145
100
AcDbEntity
  8
OLCU
 62
3
100
AcDbMText
 10
-18.861187220164382
 20
-94.72310885346131
 30
0.0
 40
3.888904581477192
 71
5
  1
100
  7
OpenSansCondensed-Light
 50
90.0
  0
POINT
  5
150
330
145
100
AcDbEntity
  8
Defpoints
100
AcDbPoint
 10
-15.555618325908767
 20
-144.72310885346138
 30
0.0
  0
POINT
  5
151
330
145
100
AcDbEntity
  8
Defpoints
100
AcDbPoint
 10
0.0
 20
-144.72310885346138
 30
0.0
  0
POINT
  5
152
330
145
100
AcDbEntity
  8
Defpoints
100
AcDbPoint
 10
0.0
 20
-44.72310885346124
 30
0.0
  0
ENDBLK
  5
147
330
145
100
AcDbEntity
  8
0
100
AcDbBlockEnd
  0
BLOCK
  5
1B6
330
1B5
100
AcDbEntity
  8
0
100
AcDbBlockBegin
  2
*D5
 70
1
 10
0.0
 20
0.0
 30
0.0
  3
*D5
  1

  0
LINE
  5
1B8
330
1B5
100
AcDbEntity
  8
0
 62
4
100
AcDbLine
 10
219.72310885346133
 20
-1.944452290738596
 30
0.0
 11
219.72310885346133
 21
-17.888961074795084
 31
0.0
  0
LINE
  5
1B9
330
1B5
100
AcDbEntity
  8
0
 62
4
100
AcDbLine
 10
319.7231088534613
 20
-1.944452290738596
 30
0.0
 11
319.7231088534613
 21
-17.888961074795084
 31
0.0
  0
INSERT
  5
1BA
330
1B5
100
AcDbEntity
  8
OLCU
 62
4
100
AcDbBlockReference
  2
_CLOSEDFILLED
 10
219.72310885346133
 20
-15.555618325908767
 30
0.0
 41
3.1111236651817538
 42
3.1111236651817538
 50
180.0
  0
INSERT
  5
1BC
330
1B5
100
AcDbEntity
  8
OLCU
 62
4
100
AcDbBlockReference
  2
_CLOSEDFILLED
 10
319.7231088534613
 20
-15.555618325908767
 30
0.0
 41
3.1111236651817538
 42
3.1111236651817538
  0
LINE
  5
1BE
330
1B5
100
AcDbEntity
  8
0
 62
4
100
AcDbLine
 10
222.8342325186431
 20
-15.555618325908767
 30
0.0
 11
316.61198518827956
 21
-15.555618325908767
 31
0.0
  0
MTEXT
  5
1BF
330
1B5
100
AcDbEntity
  8
OLCU
 62
3
100
AcDbMText
 10
269.7231088534613
 20
-12.250049431653155
 30
0.0
 40
3.888904581477192
 71
5
  1
100
  7
OpenSansCondensed-Light
  0
POINT
  5
1C0
330
1B5
100
AcDbEntity
  8
Defpoints
100
AcDbPoint
 10
219.72310885346133
 20
-15.555618325908767
 30
0.0
  0
POINT
  5
1C1
330
1B5
100
AcDbEntity
  8
Defpoints
100
AcDbPoint
 10
219.72310885346133
 20
0.0
 30
0.0
  0
POINT
  5
1C2
330
1B5
100
AcDbEntity
  8
Defpoints
100
AcDbPoint
 10
319.7231088534613
 20
0.0
 30
0.0
  0
ENDBLK
  5
1B7
330
1B5
100
AcDbEntity
  8
0
100
AcDbBlockEnd
  0
BLOCK
  5
1C5
330
1C4
100
AcDbEntity
  8
0
100
AcDbBlockBegin
  2
*D6
 70
1
 10
0.0
 20
0.0
 30
0.0
  3
*D6
  1

  0
LINE
  5
1C7
330
1C4
100
AcDbEntity
  8
0
 62
4
100
AcDbLine
 10
217.77865656272274
 20
0.0
 30
0.0
 11
201.83414777866625
 21
0.0
 31
0.0
  0
LINE
  5
1C8
330
1C4
100
AcDbEntity
  8
0
 62
4
100
AcDbLine
 10
217.77865656272274
 20
5.000000000000014
 30
0.0
 11
201.83414777866625
 21
5.000000000000014
 31
0.0
  0
INSERT
  5
1C9
330
1C4
100
AcDbEntity
  8
OLCU
 62
4
100
AcDbBlockReference
  2
_CLOSEDFILLED
 10
204.16749052755256
 20
0.0
 30
0.0
 41
3.1111236651817538
 42
3.1111236651817538
 50
90.0
  0
INSERT
  5
1CB
330
1C4
100
AcDbEntity
  8
OLCU
 62
4
100
AcDbBlockReference
  2
_CLOSEDFILLED
 10
204.16749052755256
 20
5.000000000000014
 30
0.0
 41
3.1111236651817538
 42
3.1111236651817538
 50
270.0
  0
LINE
  5
1CD
330
1C4
100
AcDbEntity
  8
0
 62
4
100
AcDbLine
 10
204.16749052755256
 20
-3.1111236651817538
 30
0.0
 11
204.16749052755256
 21
-6.2222473303635075
 31
0.0
  0
LINE
  5
1CE
330
1C4
100
AcDbEntity
  8
0
 62
4
100
AcDbLine
 10
204.16749052755256
 20
8.111123665181768
 30
0.0
 11
204.16749052755256
 21
11.222247330363523
 31
0.0
  0
LINE
  5
1CF
330
1C4
100
AcDbEntity
  8
0
 62
4
100
AcDbLine
 10
204.16749052755256
 20
0.0
 30
0.0
 11
204.16749052755256
 21
5.000000000000014
 31
0.0
  0
MTEXT
  5
1D0
330
1C4
100
AcDbEntity
  8
OLCU
 62
3
100
AcDbMText
 10
200.86192163329696
 20
2.500000000000007
 30
0.0
 40
3.888904581477192
 71
5
  1
5
  7
OpenSansCondensed-Light
 50
90.0
  0
POINT
  5
1D1
330
1C4
100
AcDbEntity
  8
Defpoints
100
AcDbPoint
 10
204.16749052755256
 20
0.0
 30
0.0
  0
POINT
  5
1D2
330
1C4
100
AcDbEntity
  8
Defpoints
100
AcDbPoint
 10
219.72310885346133
 20
0.0
 30
0.0
  0
POINT
  5
1D3
330
1C4
100
AcDbEntity
  8
Defpoints
100
AcDbPoint
 10
219.72310885346133
 20
5.000000000000014
 30
0.0
  0
ENDBLK
  5
1C6
330
1C4
100
AcDbEntity
  8
0
100
AcDbBlockEnd
  0
BLOCK
  5
1E2
330
1E1
100
AcDbEntity
  8
0
100
AcDbBlockBegin
  2
*D7
 70
1
 10
0.0
 20
0.0
 30
0.0
  3
*D7
  1

  0
INSERT
  5
1E4
330
1E1
100
AcDbEntity
  8
OLCU
 62
4
100
AcDbBlockReference
  2
_CLOSEDFILLED
 10
158.14375541594862
 20
-133.32935343751276
 30
0.0
 41
3.1111236651817538
 42
3.1111236651817538
 50
45.0
  0
INSERT
  5
1E6
330
1E1
100
AcDbEntity
  8
OLCU
 62
4
100
AcDbBlockReference
  2
_CLOSEDFILLED
 10
165.35624458405138
 20
-126.11686426940999
 30
0.0
 41
3.1111236651817538
 42
3.1111236651817538
 50
45.0
  0
LINE
  5
1E8
330
1E1
100
AcDbEntity
  8
0
 62
4
100
AcDbLine
 10
155.94385877518866
 20
-135.52925007827272
 30
0.0
 11
163.15634794329142
 21
-128.31676091016996
 31
0.0
  0
LINE
  5
1E9
330
1E1
100
AcDbEntity
  8
0
 62
4
100
AcDbLine
 10
155.94385877518866
 20
-135.52925007827272
 30
0.0
 11
127.48269598535663
 21
-163.99041286810476
 31
0.0
  0
MTEXT
  5
1EA
330
1E1
100
AcDbEntity
  8
OLCU
 62
3
100
AcDbMText
 10
138.89465980929893
 20
-147.90366868254753
 30
0.0
 40
3.888904581477192
 71
5
  1
4x %%c10.2
  7
OpenSansCondensed-Light
 50
45.0
  0
POINT
  5
1EB
330
1E1
100
AcDbEntity
  8
Defpoints
100
AcDbPoint
 10
161.75
 20
-129.72310885346138
 30
0.0
  0
POINT
  5
1EC
330
1E1
100
AcDbEntity
  8
Defpoints
100
AcDbPoint
 10
158.14375541594862
 20
-133.32935343751276
 30
0.0
  0
ENDBLK
  5
1E3
330
1E1
100
AcDbEntity
  8
0
100
AcDbBlockEnd
  0
BLOCK
  5
1EF
330
1EE
100
AcDbEntity
  8
0
100
AcDbBlockBegin
  2
*D8
 70
1
 10
0.0
 20
0.0
 30
0.0
  3
*D8
  1

  0
INSERT
  5
1F1
330
1EE
100
AcDbEntity
  8
OLCU
 62
4
100
AcDbBlockReference
  2
_CLOSEDFILLED
 10
7.136217536194483
 20
-57.586891317266904
 30
0.0
 41
3.1111236651817538
 42
3.1111236651817538
 50
45.00000000000003
  0
INSERT
  5
1F3
330
1EE
100
AcDbEntity
  8
OLCU
 62
4
100
AcDbBlockReference
  2
_CLOSEDFILLED
 10
12.863782463805517
 20
-51.85932638965586
 30
0.0
 41
3.1111236651817538
 42
3.1111236651817538
 50
45.00000000000003
  0
LINE
  5
1F5
330
1EE
100
AcDbEntity
  8
0
 62
4
100
AcDbLine
 10
4.93632089543452
 20
-59.78678795802687
 30
0.0
 11
10.663885823045554
 21
-54.05922303041583
 31
0.0
  0
LINE
  5
1F6
330
1EE
100
AcDbEntity
  8
0
 62
4
100
AcDbLine
 10
4.93632089543452
 20
-59.78678795802687
 30
0.0
 11
-20.77497109344754
 21
-85.49807994690896
 31
0.0
  0
MTEXT
  5
1F7
330
1EE
100
AcDbEntity
  8
OLCU
 62
3
100
AcDbMText
 10
-10.737942669980216
 20
-70.7862711618267
 30
0.0
 40
3.888904581477192
 71
5
  1
2x %%c8.1
  7
OpenSansCondensed-Light
 50
45.00000000000003
  0
POINT
  5
1F8
330
1EE
100
AcDbEntity
  8
Defpoints
100
AcDbPoint
 10
10.0
 20
-54.72310885346138
 30
0.0
  0
POINT
  5
1F9
330
1EE
100
AcDbEntity
  8
Defpoints
100
AcDbPoint
 10
7.136217536194483
 20
-57.586891317266904
 30
0.0
  0
ENDBLK
  5
1F0
330
1EE
100
AcDbEntity
  8
0
100
AcDbBlockEnd
  0
ENDSEC
  0
SECTION
  2
ENTITIES
  0
LWPOLYLINE
  5
93
330
17
100
AcDbEntity
  8
GORUNEN
100
AcDbPolyline
 90
2
 70
0
 10
148.5
 20
7.105427357601002e-15
 10
146.5
 20
1.4210854715202004e-14
  0
LWPOLYLINE
  5
94
330
17
100
AcDbEntity
  8
GORUNEN
100
AcDbPolyline
 90
2
 70
0
 10
28.5
 20
7.105427357601002e-15
 10
146.5
 20
7.105427357601002e-15
  0
LWPOLYLINE
  5
95
330
17
100
AcDbEntity
  8
GORUNEN
100
AcDbPolyline
 90
2
 70
0
 10
28.5
 20
7.105427357601002e-15
 10
26.5
 20
7.105427357601002e-15
  0
LWPOLYLINE
  5
96
330
17
100
AcDbEntity
  8
GORUNEN
100
AcDbPolyline
 90
2
 70
0
 10
26.50000000000007
 20
7.105427357601002e-15
 10
21.50000000000007
 20
0.0
  0
LWPOLYLINE
  5
97
330
17
100
AcDbEntity
  8
GORUNEN
100
AcDbPolyline
 90
2
 70
0
 10
5.000000000000071
 20
7.105427357601002e-15
 10
21.50000000000007
 20
7.105427357601002e-15
  0
LWPOLYLINE
  5
98
330
17
100
AcDbEntity
  8
GORUNEN
100
AcDbPolyline
 90
2
 70
0
 10
5.000000000000071
 20
7.105427357601002e-15
 10
7.105427357601002e-14
 20
1.4210854715202004e-14
  0
LWPOLYLINE
  5
99
330
17
100
AcDbEntity
  8
GORUNEN
100
AcDbPolyline
 90
2
 70
0
 10
175.00000000000006
 20
1.4210854715202004e-14
 10
170.00000000000006
 20
7.105427357601002e-15
  0
LWPOLYLINE
  5
9A
330
17
100
AcDbEntity
  8
GORUNEN
100
AcDbPolyline
 90
2
 70
0
 10
153.50000000000006
 20
7.105427357601002e-15
 10
170.00000000000006
 20
7.105427357601002e-15
  0
LWPOLYLINE
  5
9B
330
17
100
AcDbEntity
  8
GORUNEN
100
AcDbPolyline
 90
2
 70
0
 10
153.50000000000006
 20
7.105427357601002e-15
 10
148.50000000000006
 20
1.4210854715202004e-14
  0
LWPOLYLINE
  5
9C
330
17
100
AcDbEntity
  8
GORUNEN
100
AcDbPolyline
 90
2
 70
0
 10
153.50000000000006
 20
5.000000000000007
 10
148.50000000000006
 20
5.000000000000014
  0
LWPOLYLINE
  5
9D
330
17
100
AcDbEntity
  8
GORUNEN
100
AcDbPolyline
 90
2
 70
0
 10
153.50000000000006
 20
5.000000000000007
 10
170.00000000000006
 20
5.000000000000007
  0
LWPOLYLINE
  5
9E
330
17
100
AcDbEntity
  8
GORUNEN
100
AcDbPolyline
 90
2
 70
0
 10
175.00000000000006
 20
5.000000000000014
 10
170.00000000000006
 20
5.000000000000007
  0
LWPOLYLINE
  5
9F
330
17
100
AcDbEntity
  8
GORUNEN
100
AcDbPolyline
 90
2
 70
0
 10
5.000000000000071
 20
5.000000000000007
 10
7.105427357601002e-14
 20
5.000000000000014
  0
LWPOLYLINE
  5
A0
330
17
100
AcDbEntity
  8
GORUNEN
100
AcDbPolyline
 90
2
 70
0
 10
5.000000000000071
 20
5.000000000000007
 10
21.50000000000007
 20
5.000000000000007
  0
LWPOLYLINE
  5
A1
330
17
100
AcDbEntity
  8
GORUNEN
100
AcDbPolyline
 90
2
 70
0
 10
26.50000000000007
 20
5.000000000000007
 10
21.50000000000007
 20
5.0
  0
LWPOLYLINE
  5
A2
330
17
100
AcDbEntity
  8
GORUNEN
100
AcDbPolyline
 90
2
 70
0
 10
28.5
 20
5.000000000000007
 10
26.5
 20
5.000000000000007
  0
LWPOLYLINE
  5
A3
330
17
100
AcDbEntity
  8
GORUNEN
100
AcDbPolyline
 90
2
 70
0
 10
28.5
 20
5.000000000000007
 10
146.5
 20
5.000000000000007
  0
LWPOLYLINE
  5
A4
330
17
100
AcDbEntity
  8
GORUNEN
100
AcDbPolyline
 90
2
 70
0
 10
148.5
 20
5.000000000000007
 10
146.5
 20
5.000000000000014
  0
LWPOLYLINE
  5
A5
330
17
100
AcDbEntity
  8
GORUNEN
100
AcDbPolyline
 90
2
 70
0
 10
148.50000000000006
 20
5.000000000000014
 10
148.50000000000006
 20
1.4210854715202004e-14
  0
LWPOLYLINE
  5
A6
330
17
100
AcDbEntity
  8
GORUNEN
100
AcDbPolyline
 90
2
 70
0
 10
153.50000000000006
 20
5.000000000000007
 10
153.50000000000006
 20
7.105427357601002e-15
  0
LWPOLYLINE
  5
A7
330
17
100
AcDbEntity
  8
GORUNEN
100
AcDbPolyline
 90
2
 70
0
 10
170.00000000090006
 20
5.000000000000007
 10
170.00000000090006
 20
7.105427357601002e-15
  0
LWPOLYLINE
  5
A8
330
17
100
AcDbEntity
  8
GORUNEN
100
AcDbPolyline
 90
2
 70
0
 10
175.00000000000006
 20
5.000000000000014
 10
175.00000000000006
 20
1.4210854715202004e-14
  0
LWPOLYLINE
  5
A9
330
17
100
AcDbEntity
  8
GORUNEN
100
AcDbPolyline
 90
2
 70
0
 10
7.105427357601002e-14
 20
5.000000000000014
 10
7.105427357601002e-14
 20
1.4210854715202004e-14
  0
LWPOLYLINE
  5
AA
330
17
100
AcDbEntity
  8
GORUNEN
100
AcDbPolyline
 90
2
 70
0
 10
5.000000000000071
 20
5.000000000000007
 10
5.000000000000071
 20
7.105427357601002e-15
  0
LWPOLYLINE
  5
AB
330
17
100
AcDbEntity
  8
GORUNEN
100
AcDbPolyline
 90
2
 70
0
 10
21.500000000900073
 20
5.0
 10
21.500000000900073
 20
0.0
  0
LWPOLYLINE
  5
AC
330
17
100
AcDbEntity
  8
GORUNEN
100
AcDbPolyline
 90
2
 70
0
 10
26.50000000000007
 20
5.000000000000007
 10
26.50000000000007
 20
7.105427357601002e-15
  0
LWPOLYLINE
  5
AD
330
17
100
AcDbEntity
  8
GIZLI
100
AcDbPolyline
 90
2
 70
0
 10
5.950000000000003
 20
1.4210854715202004e-14
 10
5.950000000000003
 20
5.000000000000014
  0
LWPOLYLINE
  5
AE
330
17
100
AcDbEntity
  8
GIZLI
100
AcDbPolyline
 90
2
 70
0
 10
14.05
 20
5.000000000000007
 10
5.95
 20
5.000000000000007
  0
LWPOLYLINE
  5
AF
330
17
100
AcDbEntity
  8
GIZLI
100
AcDbPolyline
 90
2
 70
0
 10
14.049999999999997
 20
7.105427357601002e-15
 10
14.049999999999997
 20
5.000000000000007
  0
LWPOLYLINE
  5
B0
330
17
100
AcDbEntity
  8
GIZLI
100
AcDbPolyline
 90
2
 70
0
 10
14.05
 20
7.105427357601002e-15
 10
5.95
 20
7.105427357601002e-15
  0
LWPOLYLINE
  5
B1
330
17
100
AcDbEntity
  8
GIZLI
100
AcDbPolyline
 90
2
 70
0
 10
9.999999999999986
 20
7.105427357601002e-15
 10
0.0
 20
1.4210854715202004e-14
  0
LWPOLYLINE
  5
B2
330
17
100
AcDbEntity
  8
GIZLI
100
AcDbPolyline
 90
2
 70
0
 10
9.999999999999986
 20
7.105427357601002e-15
 10
165.0
 20
7.105427357601002e-15
  0
LWPOLYLINE
  5
B3
330
17
100
AcDbEntity
  8
GIZLI
100
AcDbPolyline
 90
2
 70
0
 10
175.0
 20
1.4210854715202004e-14
 10
165.0
 20
7.105427357601002e-15
  0
LWPOLYLINE
  5
B4
330
17
100
AcDbEntity
  8
GIZLI
100
AcDbPolyline
 90
2
 70
0
 10
156.65000000000003
 20
1.4210854715202004e-14
 10
166.85000000000002
 20
1.4210854715202004e-14
  0
LWPOLYLINE
  5
B5
330
17
100
AcDbEntity
  8
GIZLI
100
AcDbPolyline
 90
2
 70
0
 10
166.85000000000002
 20
1.4210854715202004e-14
 10
156.65000000000003
 20
1.4210854715202004e-14
  0
LWPOLYLINE
  5
B6
330
17
100
AcDbEntity
  8
GIZLI
100
AcDbPolyline
 90
2
 70
0
 10
156.65000000000003
 20
7.105427357601002e-15
 10
166.85000000000002
 20
7.105427357601002e-15
  0
LWPOLYLINE
  5
B7
330
17
100
AcDbEntity
  8
GIZLI
100
AcDbPolyline
 90
2
 70
0
 10
166.85000000000002
 20
7.105427357601002e-15
 10
156.65000000000003
 20
7.105427357601002e-15
  0
LWPOLYLINE
  5
B8
330
17
100
AcDbEntity
  8
GIZLI
100
AcDbPolyline
 90
2
 70
0
 10
8.150000000000034
 20
0.0
 10
18.350000000000023
 20
7.105427357601002e-15
  0
LWPOLYLINE
  5
B9
330
17
100
AcDbEntity
  8
GIZLI
100
AcDbPolyline
 90
2
 70
0
 10
18.350000000000023
 20
7.105427357601002e-15
 10
8.150000000000034
 20
0.0
  0
LWPOLYLINE
  5
BA
330
17
100
AcDbEntity
  8
GIZLI
100
AcDbPolyline
 90
2
 70
0
 10
8.150000000000063
 20
7.105427357601002e-15
 10
18.35000000000005
 20
7.105427357601002e-15
  0
LWPOLYLINE
  5
BB
330
17
100
AcDbEntity
  8
GIZLI
100
AcDbPolyline
 90
2
 70
0
 10
18.35000000000005
 20
7.105427357601002e-15
 10
8.150000000000063
 20
7.105427357601002e-15
  0
LWPOLYLINE
  5
BC
330
17
100
AcDbEntity
  8
GIZLI
100
AcDbPolyline
 90
2
 70
0
 10
160.95
 20
1.4210854715202004e-14
 10
169.05
 20
1.4210854715202004e-14
  0
LWPOLYLINE
  5
BD
330
17
100
AcDbEntity
  8
GIZLI
100
AcDbPolyline
 90
2
 70
0
 10
169.05
 20
1.4210854715202004e-14
 10
160.95
 20
1.4210854715202004e-14
  0
LWPOLYLINE
  5
BE
330
17
100
AcDbEntity
  8
GIZLI
100
AcDbPolyline
 90
2
 70
0
 10
5.950000000000003
 20
1.4210854715202004e-14
 10
14.049999999999997
 20
7.105427357601002e-15
  0
LWPOLYLINE
  5
BF
330
17
100
AcDbEntity
  8
GIZLI
100
AcDbPolyline
 90
2
 70
0
 10
5.95
 20
5.000000000000007
 10
14.05
 20
5.000000000000007
  0
LWPOLYLINE
  5
C0
330
17
100
AcDbEntity
  8
GIZLI
100
AcDbPolyline
 90
2
 70
0
 10
175.0
 20
5.000000000000014
 10
165.0
 20
5.000000000000007
  0
LWPOLYLINE
  5
C1
330
17
100
AcDbEntity
  8
GIZLI
100
AcDbPolyline
 90
2
 70
0
 10
9.999999999999986
 20
5.000000000000007
 10
165.0
 20
5.000000000000007
  0
LWPOLYLINE
  5
C2
330
17
100
AcDbEntity
  8
GIZLI
100
AcDbPolyline
 90
2
 70
0
 10
9.999999999999986
 20
5.000000000000007
 10
0.0
 20
5.000000000000014
  0
LWPOLYLINE
  5
C3
330
17
100
AcDbEntity
  8
GIZLI
100
AcDbPolyline
 90
2
 70
0
 10
166.85000000000002
 20
5.000000000000014
 10
156.65000000000003
 20
5.000000000000014
  0
LWPOLYLINE
  5
C4
330
17
100
AcDbEntity
  8
GIZLI
100
AcDbPolyline
 90
2
 70
0
 10
156.65000000000003
 20
5.000000000000014
 10
166.85000000000002
 20
5.000000000000014
  0
LWPOLYLINE
  5
C5
330
17
100
AcDbEntity
  8
GIZLI
100
AcDbPolyline
 90
2
 70
0
 10
166.85000000000002
 20
5.000000000000007
 10
156.65000000000003
 20
5.000000000000007
  0
LWPOLYLINE
  5
C6
330
17
100
AcDbEntity
  8
GIZLI
100
AcDbPolyline
 90
2
 70
0
 10
156.65000000000003
 20
5.000000000000007
 10
166.85000000000002
 20
5.000000000000007
  0
LWPOLYLINE
  5
C7
330
17
100
AcDbEntity
  8
GIZLI
100
AcDbPolyline
 90
2
 70
0
 10
18.350000000000023
 20
5.000000000000007
 10
8.150000000000034
 20
5.0
  0
LWPOLYLINE
  5
C8
330
17
100
AcDbEntity
  8
GIZLI
100
AcDbPolyline
 90
2
 70
0
 10
8.150000000000034
 20
5.0
 10
18.350000000000023
 20
5.000000000000007
  0
LWPOLYLINE
  5
C9
330
17
100
AcDbEntity
  8
GIZLI
100
AcDbPolyline
 90
2
 70
0
 10
18.35000000000005
 20
5.000000000000007
 10
8.150000000000063
 20
5.000000000000007
  0
LWPOLYLINE
  5
CA
330
17
100
AcDbEntity
  8
GIZLI
100
AcDbPolyline
 90
2
 70
0
 10
8.150000000000063
 20
5.000000000000007
 10
18.35000000000005
 20
5.000000000000007
  0
LWPOLYLINE
  5
CB
330
17
100
AcDbEntity
  8
GIZLI
100
AcDbPolyline
 90
2
 70
0
 10
169.05
 20
5.000000000000014
 10
160.95
 20
5.000000000000014
  0
LWPOLYLINE
  5
CC
330
17
100
AcDbEntity
  8
GIZLI
100
AcDbPolyline
 90
2
 70
0
 10
160.95
 20
5.000000000000014
 10
169.05
 20
5.000000000000014
  0
LWPOLYLINE
  5
CD
330
17
100
AcDbEntity
  8
GIZLI
100
AcDbPolyline
 90
2
 70
0
 10
148.5
 20
5.000000000000007
 10
148.5
 20
7.105427357601002e-15
  0
LWPOLYLINE
  5
CE
330
17
100
AcDbEntity
  8
GIZLI
100
AcDbPolyline
 90
2
 70
0
 10
175.0
 20
1.4210854715202004e-14
 10
175.0
 20
5.000000000000014
  0
LWPOLYLINE
  5
CF
330
17
100
AcDbEntity
  8
GIZLI
100
AcDbPolyline
 90
2
 70
0
 10
0.0
 20
1.4210854715202004e-14
 10
0.0
 20
5.000000000000014
  0
LWPOLYLINE
  5
D0
330
17
100
AcDbEntity
  8
GIZLI
100
AcDbPolyline
 90
2
 70
0
 10
26.5
 20
7.105427357601002e-15
 10
26.5
 20
5.000000000000007
  0
LWPOLYLINE
  5
D1
330
17
100
AcDbEntity
  8
GIZLI
100
AcDbPolyline
 90
2
 70
0
 10
156.65000000000003
 20
1.4210854715202004e-14
 10
156.65000000000003
 20
5.000000000000014
  0
LWPOLYLINE
  5
D2
330
17
100
AcDbEntity
  8
GIZLI
100
AcDbPolyline
 90
2
 70
0
 10
166.85000000000002
 20
1.4210854715202004e-14
 10
166.85000000000002
 20
5.000000000000014
  0
LWPOLYLINE
  5
D3
330
17
100
AcDbEntity
  8
GIZLI
100
AcDbPolyline
 90
2
 70
0
 10
156.65000000000003
 20
7.105427357601002e-15
 10
156.65000000000003
 20
5.000000000000007
  0
LWPOLYLINE
  5
D4
330
17
100
AcDbEntity
  8
GIZLI
100
AcDbPolyline
 90
2
 70
0
 10
166.85000000000002
 20
7.105427357601002e-15
 10
166.85000000000002
 20
5.000000000000007
  0
LWPOLYLINE
  5
D5
330
17
100
AcDbEntity
  8
GIZLI
100
AcDbPolyline
 90
2
 70
0
 10
8.150000000000034
 20
0.0
 10
8.150000000000034
 20
5.0
  0
LWPOLYLINE
  5
D6
330
17
100
AcDbEntity
  8
GIZLI
100
AcDbPolyline
 90
2
 70
0
 10
18.350000000000023
 20
7.105427357601002e-15
 10
18.350000000000023
 20
5.000000000000007
  0
LWPOLYLINE
  5
D7
330
17
100
AcDbEntity
  8
GIZLI
100
AcDbPolyline
 90
2
 70
0
 10
8.150000000000063
 20
7.105427357601002e-15
 10
8.150000000000063
 20
5.000000000000007
  0
LWPOLYLINE
  5
D8
330
17
100
AcDbEntity
  8
GIZLI
100
AcDbPolyline
 90
2
 70
0
 10
18.35000000000005
 20
7.105427357601002e-15
 10
18.35000000000005
 20
5.000000000000007
  0
LWPOLYLINE
  5
D9
330
17
100
AcDbEntity
  8
GIZLI
100
AcDbPolyline
 90
2
 70
0
 10
160.95
 20
1.4210854715202004e-14
 10
160.95
 20
5.000000000000014
  0
LWPOLYLINE
  5
DA
330
17
100
AcDbEntity
  8
GIZLI
100
AcDbPolyline
 90
2
 70
0
 10
169.05
 20
1.4210854715202004e-14
 10
169.05
 20
5.000000000000014
  0
TEXT
  5
DB
330
17
100
AcDbEntity
  8
YAZI
100
AcDbText
 10
0.0
 20
-12.444494660727015
 30
0.0
 40
5.055575955920349
  1
ON
 11
0.0
 21
-12.444494660727015
 31
0.0
100
AcDbText
  0
DIMENSION
  5
DC
330
17
100
AcDbEntity
  8
OLCU
100
AcDbDimension
280
0
  2
*D1
  3
PF_MM
 10
0.0
 20
-15.555618325908767
 30
0.0
 11
87.50000000000003
 21
-12.250049431653155
 31
0.0
 70
32
 71
5
  1
<>
100
AcDbAlignedDimension
 13
0.0
 23
0.0
 33
0.0
 14
175.00000000000006
 24
0.0
 34
0.0
 50
0.0
100
AcDbRotatedDimension
  0
DIMENSION
  5
EB
330
17
100
AcDbEntity
  8
OLCU
100
AcDbDimension
280
0
  2
*D2
  3
PF_MM
 10
-15.555618325908767
 20
0.0
 30
0.0
 11
-18.861187220164382
 21
2.500000000000007
 31
0.0
 70
32
 71
5
  1
<>
100
AcDbAlignedDimension
 13
0.0
 23
0.0
 33
0.0
 14
0.0
 24
5.000000000000014
 34
0.0
 50
90.0
100
AcDbRotatedDimension
  0
LWPOLYLINE
  5
FC
330
17
100
AcDbEntity
  8
GORUNEN
100
AcDbPolyline
 90
64
 70
0
 10
14.050000000000008
 20
-54.7231088534613
 10
14.044965530936643
 20
-54.521233016535476
 10
14.029874640229883
 20
-54.31985907474824
 10
14.004764846211778
 20
-54.119487675447786
 10
13.969698575786609
 20
-53.920616973503726
 10
13.924763009227771
 20
-53.7237413928156
 10
13.870069863433875
 20
-53.52935039709713
 10
13.805755114182933
 20
-53.33792727299233
 10
13.731978658075153
 20
-53.14994792854877
 10
13.6489239150048
 20
-52.96587971003518
 10
13.556797372149427
 20
-52.786180240044956
 10
13.455828070610231
 20
-52.61129627977432
 10
13.346267035979778
 20
-52.441662618303624
 10
13.228386654252835
 20
-52.2777009916431
 10
13.102479994631858
 20
-52.1198190342308
 10
12.968860080910794
 20
-51.96840926548906
 10
12.827859113248591
 20
-51.82384811395943
 10
12.679827642267275
 20
-51.68649498144197
 10
12.525133697527865
 20
-51.556691349465765
 10
12.364161872550891
 20
-51.43475993031207
 10
12.197312368656316
 20
-51.32100386470066
 10
12.02499999999999
 20
-51.215705968134316
 10
11.847653162280299
 20
-51.119128027774835
 10
11.665712767678965
 20
-51.03151015159901
 10
11.479631148683886
 20
-50.95307017145227
 10
11.289870933519307
 20
-50.88400310148441
 10
11.096903895979155
 20
-50.82448065331374
 10
10.901209782523058
 20
-50.77465080912491
 10
10.70327511955105
 20
-50.73463745376185
 10
10.503592003822297
 20
-50.7045400667306
 10
10.302656879025
 20
-50.68443347487752
 10
10.100969301539175
 20
-50.674367666357995
 10
9.899030698460784
 20
-50.674367666357995
 10
9.69734312097496
 20
-50.68443347487752
 10
9.496407996177663
 20
-50.7045400667306
 10
9.29672488044891
 20
-50.73463745376186
 10
9.098790217476903
 20
-50.77465080912492
 10
8.903096104020806
 20
-50.824480653313756
 10
8.710129066480654
 20
-50.884003101484424
 10
8.520368851316077
 20
-50.95307017145228
 10
8.334287232321
 20
-51.031510151599036
 10
8.152346837719666
 20
-51.11912802777486
 10
7.9749999999999766
 20
-51.215705968134344
 10
7.802687631343651
 20
-51.3210038647007
 10
7.635838127449078
 20
-51.4347599303121
 10
7.474866302472107
 20
-51.55669134946581
 10
7.320172357732698
 20
-51.686494981441996
 10
7.172140886751385
 20
-51.82384811395947
 10
7.031139919089184
 20
-51.9684092654891
 10
6.89752000536812
 20
-52.119819034230844
 10
6.771613345747146
 20
-52.277700991643144
 10
6.653732964020205
 20
-52.44166261830367
 10
6.544171929389755
 20
-52.611296279774365
 10
6.443202627850561
 20
-52.786180240045
 10
6.351076084995191
 20
-52.965879710035225
 10
6.268021341924839
 20
-53.149947928548826
 10
6.194244885817063
 20
-53.33792727299239
 10
6.1299301365661245
 20
-53.529350397097176
 10
6.07523699077223
 20
-53.723741392815654
 10
6.030301424213396
 20
-53.92061697350378
 10
5.995235153788229
 20
-54.11948767544784
 10
5.970125359770128
 20
-54.319859074748294
 10
5.95503446906337
 20
-54.52123301653553
 10
5.950000000000008
 20
-54.7231088534613
  0
LWPOLYLINE
  5
FD
330
17
100
AcDbEntity
  8
GORUNEN
100
AcDbPolyline
 90
64
 70
0
 10
5.950000000000008
 20
-54.7231088534613
 10
5.9550344690633725
 20
-54.92498469038712
 10
5.970125359770132
 20
-55.12635863217436
 10
5.995235153788238
 20
-55.32673003147481
 10
6.030301424213406
 20
-55.525600733418855
 10
6.075236990772243
 20
-55.722476314106984
 10
6.129930136566139
 20
-55.91686730982546
 10
6.19424488581708
 20
-56.108290433930264
 10
6.268021341924858
 20
-56.29626977837381
 10
6.351076084995213
 20
-56.480337996887414
 10
6.443202627850584
 20
-56.66003746687764
 10
6.544171929389781
 20
-56.834921427148274
 10
6.653732964020232
 20
-57.00455508861897
 10
6.771613345747176
 20
-57.16851671527948
 10
6.897520005368151
 20
-57.326398672691795
 10
7.031139919089218
 20
-57.477808441433524
 10
7.17214088675142
 20
-57.62236959296317
 10
7.3201723577327344
 20
-57.75972272548063
 10
7.474866302472145
 20
-57.88952635745683
 10
7.6358381274491185
 20
-58.01145777661053
 10
7.802687631343693
 20
-58.125213842221925
 10
7.975000000000019
 20
-58.23051173878828
 10
8.152346837719708
 20
-58.32708967914775
 10
8.334287232321044
 20
-58.414707555323574
 10
8.520368851316121
 20
-58.49314753547033
 10
8.7101290664807
 20
-58.562214605438186
 10
8.903096104020852
 20
-58.621737053608854
 10
9.098790217476951
 20
-58.67156689779769
 10
9.296724880448958
 20
-58.71158025316075
 10
9.49640799617771
 20
-58.741677640191995
 10
9.69734312097501
 20
-58.76178423204507
 10
9.899030698460832
 20
-58.7718500405646
 10
10.100969301539223
 20
-58.7718500405646
 10
10.302656879025047
 20
-58.76178423204507
 10
10.503592003822344
 20
-58.741677640191995
 10
10.703275119551098
 20
-58.71158025316073
 10
10.901209782523104
 20
-58.671566897797675
 10
11.096903895979203
 20
-58.62173705360884
 10
11.289870933519353
 20
-58.56221460543817
 10
11.479631148683932
 20
-58.493147535470314
 10
11.66571276767901
 20
-58.41470755532356
 10
11.847653162280343
 20
-58.32708967914773
 10
12.025000000000032
 20
-58.230511738788266
 10
12.197312368656359
 20
-58.12521384222191
 10
12.364161872550932
 20
-58.0114577766105
 10
12.525133697527902
 20
-57.8895263574568
 10
12.679827642267313
 20
-57.7597227254806
 10
12.827859113248625
 20
-57.62236959296314
 10
12.968860080910828
 20
-57.477808441433496
 10
13.10247999463189
 20
-57.32639867269175
 10
13.228386654252866
 20
-57.16851671527945
 10
13.346267035979807
 20
-57.00455508861894
 10
13.455828070610258
 20
-56.83492142714823
 10
13.55679737214945
 20
-56.6600374668776
 10
13.648923915004822
 20
-56.48033799688737
 10
13.731978658075173
 20
-56.29626977837377
 10
13.80575511418295
 20
-56.10829043393022
 10
13.870069863433889
 20
-55.91686730982542
 10
13.924763009227783
 20
-55.72247631410694
 10
13.969698575786618
 20
-55.52560073341881
 10
14.004764846211785
 20
-55.32673003147477
 10
14.029874640229886
 20
-55.126358632174316
 10
14.044965530936643
 20
-54.92498469038708
 10
14.050000000000008
 20
-54.7231088534613
  0
LWPOLYLINE
  5
FE
330
17
100
AcDbEntity
  8
GORUNEN
100
AcDbPolyline
 90
2
 70
0
 10
148.50000000000006
 20
-139.7231088534613
 10
148.5
 20
-66.7231088534613
  0
LWPOLYLINE
  5
FF
330
17
100
AcDbEntity
  8
GORUNEN
100
AcDbPolyline
 90
2
 70
0
 10
153.50000000000009
 20
-144.7231088534613
 10
148.50000000000009
 20
-139.7231088534613
  0
LWPOLYLINE
  5
100
330
17
100
AcDbEntity
  8
GORUNEN
100
AcDbPolyline
 90
2
 70
0
 10
153.50000000000009
 20
-144.72310885346124
 10
170.00000000000009
 20
-144.7231088534612
  0
LWPOLYLINE
  5
101
330
17
100
AcDbEntity
  8
GORUNEN
100
AcDbPolyline
 90
2
 70
0
 10
175.00000000000009
 20
-139.7231088534613
 10
170.00000000000009
 20
-144.7231088534613
  0
LWPOLYLINE
  5
102
330
17
100
AcDbEntity
  8
GORUNEN
100
AcDbPolyline
 90
2
 70
0
 10
175.00000000000006
 20
-139.7231088534613
 10
175.0
 20
-54.7231088534613
  0
LWPOLYLINE
  5
103
330
17
100
AcDbEntity
  8
GORUNEN
100
AcDbPolyline
 90
35
 70
0
 10
175.00000000000003
 20
-54.7231088534613
 10
174.98923460202386
 20
-54.25865287873552
 10
174.95694210541052
 20
-53.79517188306154
 10
174.90316916807717
 20
-53.33368467770447
 10
174.82801607888794
 20
-52.87520059754081
 10
174.7316352764305
 20
-52.42071801983505
 10
174.61422986779274
 20
-51.97122288301628
 10
174.47605214733932
 20
-51.527687205454754
 10
174.31740211548825
 20
-51.091067604238475
 10
174.13862599748745
 20
-50.662303813949805
 10
173.9401147621914
 20
-50.24231720544202
 10
173.72230264083765
 20
-49.83200930461594
 10
173.4856656458235
 20
-49.43226031119647
 10
173.23072008948253
 20
-49.043927617509226
 10
172.95802110286115
 20
-48.6678443272571
 10
172.66816115449532
 20
-48.304817774296865
 10
172.36176856918698
 20
-47.95562804141572
 10
172.03950604678073
 20
-47.621026479107954
 10
171.7020691809404
 20
-47.30173422435145
 10
171.35018497792564
 20
-46.99844071938432
 10
170.9846103753685
 20
-46.71180223048151
 10
170.60613076105005
 20
-46.44244036673133
 10
170.21555849167686
 20
-46.19094059881209
 10
169.81373141165773
 20
-45.95785077776867
 10
169.40151137188022
 20
-45.74367965378907
 10
168.9797827484872
 20
-45.548895394981116
 10
168.54945096165346
 20
-45.37392410614888
 10
168.11144099436237
 20
-45.219148347569416
 10
167.6666959111823
 20
-45.084905653769255
 10
167.2161753770434
 20
-44.97148705230103
 10
166.76085417601408
 20
-44.87913558252005
 10
166.3017207300776
 20
-44.808044814360926
 10
165.83977561790869
 20
-44.75835736711407
 10
165.42024701692742
 20
-44.7319211790724
 10
165.0
 20
-44.7231088534613
  0
LWPOLYLINE
  5
104
330
17
100
AcDbEntity
  8
GORUNEN
100
AcDbPolyline
 90
2
 70
0
 10
9.999999999999993
 20
-44.72310885346137
 10
165.0
 20
-44.72310885346123
  0
LWPOLYLINE
  5
105
330
17
100
AcDbEntity
  8
GORUNEN
100
AcDbPolyline
 90
35
 70
0
 10
9.999999999999993
 20
-44.7231088534613
 10
9.535544025265649
 20
-44.7338742514375
 10
9.072063029583905
 20
-44.76616674805098
 10
8.610575824219797
 20
-44.819939685384725
 10
8.152091744049766
 20
-44.895092774574735
 10
7.697609166338257
 20
-44.9914735770334
 10
7.2481140295143005
 20
-45.108878985672916
 10
6.804578351948103
 20
-45.24705670612869
 10
6.367958750727636
 20
-45.4057067379828
 10
5.939194960435217
 20
-45.584482855987346
 10
5.519208351924105
 20
-45.78299409128789
 10
5.1089004510950815
 20
-46.00080621264688
 10
4.709151457673043
 20
-46.23744320766704
 10
4.320818763983583
 20
-46.49238876401482
 10
3.944735473729588
 20
-46.76508775064376
 10
3.581708920767817
 20
-47.0549476990179
 10
3.2325191878854906
 20
-47.36134028433527
 10
2.8979176255768837
 20
-47.683602806751225
 10
2.5786253708199047
 20
-48.02103967260187
 10
2.27533186585269
 20
-48.37292387562749
 10
1.9886933769501902
 20
-48.73849847819599
 10
1.7193315132007556
 20
-49.11697809252625
 10
1.4678317452827199
 20
-49.50755036191154
 10
1.234741924241002
 20
-49.90937744194301
 10
1.0205708002636755
 20
-50.321597481732994
 10
0.8257865414585699
 20
-50.74332610513851
 10
0.6508152526298496
 20
-51.17365789198462
 10
0.4960394940546071
 20
-51.61166785928789
 10
0.36179680025944494
 20
-52.05641294247975
 10
0.24837819879707235
 20
-52.50693347662994
 10
0.15602672902288228
 20
-52.96225467766992
 10
0.08493596087154077
 20
-53.42138812361625
 10
0.035248513633583396
 20
-53.883333235794055
 10
0.008812325606327063
 20
-54.30286183665524
 10
7.557810714070579e-15
 20
-54.7231088534613
  0
LWPOLYLINE
  5
106
330
17
100
AcDbEntity
  8
GORUNEN
100
AcDbPolyline
 90
2
 70
0
 10
7.645652774085354e-14
 20
-139.7231088534613
 10
0.0
 20
-54.7231088534613
  0
LWPOLYLINE
  5
107
330
17
100
AcDbEntity
  8
GORUNEN
100
AcDbPolyline
 90
2
 70
0
 10
5.000000000000079
 20
-144.7231088534613
 10
7.86120842900806e-14
 20
-139.7231088534613
  0
LWPOLYLINE
  5
108
330
17
100
AcDbEntity
  8
GORUNEN
100
AcDbPolyline
 90
2
 70
0
 10
5.000000000000079
 20
-144.72310885346138
 10
21.500000000000078
 20
-144.72310885346135
  0
LWPOLYLINE
  5
109
330
17
100
AcDbEntity
  8
GORUNEN
100
AcDbPolyline
 90
2
 70
0
 10
26.500000000000078
 20
-139.7231088534613
 10
21.500000000000078
 20
-144.7231088534613
  0
LWPOLYLINE
  5
10A
330
17
100
AcDbEntity
  8
GORUNEN
100
AcDbPolyline
 90
2
 70
0
 10
26.500000000000075
 20
-139.7231088534613
 10
26.50000000000001
 20
-66.7231088534613
  0
LWPOLYLINE
  5
10B
330
17
100
AcDbEntity
  8
GORUNEN
100
AcDbPolyline
 90
34
 70
0
 10
28.500000000000007
 20
-64.7231088534613
 10
28.404605853059284
 20
-64.72537961796743
 10
28.309423169876595
 20
-64.73219094939103
 10
28.21467256498668
 20
-64.74353226683982
 10
28.12057252704067
 20
-64.7593810764728
 10
28.02733908040868
 20
-64.7797033098976
 10
27.93518544678243
 20
-64.80445366256782
 10
27.84432170677787
 20
-64.8335759321805
 10
27.75495446153778
 20
-64.86700335707343
 10
27.667286494334387
 20
-64.90465895462258
 10
27.581516432171984
 20
-64.9464558596395
 10
27.497838407389537
 20
-64.99229766276864
 10
27.41644171926331
 20
-65.04207874888479
 10
27.33751049560946
 20
-65.09568463549049
 10
27.261223354386676
 20
-65.1529923111133
 10
27.187753065298768
 20
-65.21387057370335
 10
27.1172662113973
 20
-65.27818036903058
 10
27.049922850684194
 20
-65.34577512908223
 10
26.98587617771434
 20
-65.41650111046015
 10
26.925272185198228
 20
-65.49019773277823
 10
26.86824932560454
 20
-65.56669791705977
 10
26.814938172762783
 20
-65.6458284241349
 10
26.765461083465887
 20
-65.72741019303793
 10
26.719931859072826
 20
-65.81125867940467
 10
26.678455407111237
 20
-65.89718419387
 10
26.641127402880027
 20
-65.98499224046509
 10
26.608033951051986
 20
-66.07448385501482
 10
26.57925124727641
 20
-66.16545594353522
 10
26.5548452397817
 20
-66.25770162063084
 10
26.53487129097799
 20
-66.35101054789207
 10
26.51937383905976
 20
-66.44516927229262
 10
26.508386059608434
 20
-66.53996156458682
 10
26.50209667506076
 20
-66.63144157702182
 10
26.500000000000007
 20
-66.7231088534613
  0
LWPOLYLINE
  5
10C
330
17
100
AcDbEntity
  8
GORUNEN
100
AcDbPolyline
 90
2
 70
0
 10
28.500000000000007
 20
-64.72310885346135
 10
146.50000000000003
 20
-64.72310885346124
  0
LWPOLYLINE
  5
10D
330
17
100
AcDbEntity
  8
GORUNEN
100
AcDbPolyline
 90
34
 70
0
 10
148.50000000000003
 20
-66.7231088534613
 10
148.4977292354939
 20
-66.62771470652055
 10
148.4909179040703
 20
-66.53253202333784
 10
148.4795765866215
 20
-66.4377814184479
 10
148.46372777698855
 20
-66.34368138050188
 10
148.44340554356376
 20
-66.25044793386988
 10
148.41865519089353
 20
-66.15829430024361
 10
148.38953292128087
 20
-66.06743056023905
 10
148.35610549638795
 20
-65.97806331499895
 10
148.3184498988388
 20
-65.89039534779555
 10
148.27665299382187
 20
-65.80462528563314
 10
148.23081119069275
 20
-65.72094726085069
 10
148.1810301045766
 20
-65.63955057272446
 10
148.1274242179709
 20
-65.5606193490706
 10
148.07011654234807
 20
-65.48433220784783
 10
148.00923827975805
 20
-65.41086191875992
 10
147.94492848443082
 20
-65.34037506485845
 10
147.87733372437916
 20
-65.27303170414535
 10
147.80660774300125
 20
-65.2089850311755
 10
147.73291112068316
 20
-65.1483810386594
 10
147.6564109364016
 20
-65.09135817906571
 10
147.5772804293265
 20
-65.03804702622396
 10
147.49569866042347
 20
-64.98856993692706
 10
147.41185017405672
 20
-64.94304071253401
 10
147.3259246595914
 20
-64.90156426057244
 10
147.23811661299632
 20
-64.86423625634124
 10
147.1486249984466
 20
-64.83114280451322
 10
147.0576529099262
 20
-64.80236010073764
 10
146.96540723283056
 20
-64.77795409324295
 10
146.87209830556932
 20
-64.75798014443926
 10
146.77793958116877
 20
-64.74248269252104
 10
146.68314728887455
 20
-64.73149491306971
 10
146.59166727643955
 20
-64.72520552852205
 10
146.50000000000003
 20
-64.7231088534613
  0
LWPOLYLINE
  5
10E
330
17
100
AcDbEntity
  8
GORUNEN
100
AcDbPolyline
 90
65
 70
0
 10
166.85000000000005
 20
-129.7231088534613
 10
166.84375095689128
 20
-129.4707244720251
 10
166.82501834854125
 20
-129.2189590821003
 10
166.79384775825577
 20
-128.96842978409674
 10
166.75031604586775
 20
-128.71975035546473
 10
166.69453077366092
 20
-128.4735298647519
 10
166.6266296322931
 20
-128.23037128566006
 10
166.54677986671996
 20
-127.99087011110207
 10
166.4551777021184
 20
-127.75561296725857
 10
166.35204776981007
 20
-127.52517622763493
 10
166.2376425331849
 20
-127.30012462711802
 10
166.11224171362463
 20
-127.0810098760331
 10
165.97615171642633
 20
-126.8683692742006
 10
165.82970505672586
 20
-126.66272432499305
 10
165.67325978542144
 20
-126.46457934939181
 10
165.50719891509715
 20
-126.274420100044
 10
165.33192984455812
 20
-126.09271237668555
 10
165.14788291822555
 20
-125.9199013987803
 10
164.9555088651307
 20
-125.75641159532853
 10
164.75527903767215
 20
-125.6026438028006
 10
164.54768436628464
 20
-125.4589743142132
 10
164.3332339734959
 20
-125.32575430505295
 10
164.11245378798358
 20
-125.20330925919991
 10
163.88588515863196
 20
-125.09193839485101
 10
163.65408346858908
 20
-124.99191409044364
 10
163.41761674932334
 20
-124.90348131057917
 10
163.17706429468055
 20
-124.82685703194637
 10
162.93301527494066
 20
-124.76222966924509
 10
162.68606735087482
 20
-124.70975850110958
 10
162.436825287802
 20
-124.66957309603217
 10
162.1858995696461
 20
-124.64177273828665
 10
161.9339050129926
 20
-124.62642585385191
 10
161.68145938089623
 20
-124.62356945192835
 10
161.4291818781651
 20
-124.63321010532272
 10
161.1776911405017
 20
-124.65532507502938
 10
160.92760350328697
 20
-124.68986023035119
 10
160.67953160270082
 20
-124.73673031990805
 10
160.4340829897789
 20
-124.7958195457134
 10
160.1918587444694
 20
-124.86698213725072
 10
159.95345208969024
 20
-124.95004292555001
 10
159.7194470053855
 20
-125.04479791726426
 10
159.49041684258256
 20
-125.15101486874593
 10
159.26692293744898
 20
-125.26843386012345
 10
159.04951322534927
 20
-125.3967678693777
 10
158.83872085490182
 20
-125.53570334641852
 10
158.63506280203575
 20
-125.6849007871611
 10
158.43903848404776
 20
-125.84399530760263
 10
158.2511283736591
 20
-126.0125972178986
 10
158.07179264943397
 20
-126.19029263458675
 10
157.90147107239602
 20
-126.37664556296127
 10
157.740581878999
 20
-126.57119967528246
 10
157.58951929968322
 20
-126.77347816726068
 10
157.44865286559104
 20
-126.98298503281131
 10
157.3183268344906
 20
-127.19920644999806
 10
157.198859616699
 20
-127.42161216697602
 10
157.09054320100626
 20
-127.64965688793484
 10
156.99364258059842
 20
-127.88278165904198
 10
156.90839517898132
 20
-128.1204152543858
 10
156.83501027590395
 20
-128.36197556191865
 10
156.77366843328213
 20
-128.60687096940023
 10
156.72452092112184
 20
-128.8545017503406
 10
156.68768914344284
 20
-129.10426144994332
 10
156.6632640642022
 20
-129.35553827104872
 10
156.65331700039073
 20
-129.53920384046364
 10
156.65000000000006
 20
-129.7231088534613
  0
LWPOLYLINE
  5
10F
330
17
100
AcDbEntity
  8
GORUNEN
100
AcDbPolyline
 90
65
 70
0
 10
156.65000000000006
 20
-129.7231088534613
 10
156.65624904310883
 20
-129.97549323489736
 10
156.67498165145884
 20
-130.22725862482207
 10
156.70615224174432
 20
-130.47778792282554
 10
156.74968395413225
 20
-130.72646735145744
 10
156.80546922633894
 20
-130.97268784217007
 10
156.87337036770649
 20
-131.21584642126155
 10
156.95322013327922
 20
-131.45534759581903
 10
157.04482229788016
 20
-131.69060473966178
 10
157.14795223018768
 20
-131.92104147928444
 10
157.26235746681178
 20
-132.14609307980007
 10
157.38775828637068
 20
-132.36520783088346
 10
157.52384828356733
 20
-132.57784843271418
 10
157.67029494326584
 20
-132.78349338191975
 10
157.82674021456796
 20
-132.98163835751888
 10
157.99280108488966
 20
-133.17179760686457
 10
158.16807015542582
 20
-133.35350533022097
 10
158.35211708175524
 20
-133.5263163081244
 10
158.54449113484657
 20
-133.6898061115746
 10
158.7447209623012
 20
-133.84357390410122
 10
158.95231563368435
 20
-133.9872433926876
 10
159.16676602646834
 20
-134.12046340184713
 10
159.38754621197563
 20
-134.24290844769985
 10
159.614114841322
 20
-134.35427931204885
 10
159.84591653135956
 20
-134.45430361645674
 10
160.08238325061998
 20
-134.54273639632225
 10
160.32293570525763
 20
-134.61936067495662
 10
160.5669847249926
 20
-134.68398803766004
 10
160.81393264905392
 20
-134.73645920579824
 10
161.0631747121226
 20
-134.7766446108789
 10
161.31410043027478
 20
-134.80444496862816
 10
161.56609498692498
 20
-134.81979185306713
 10
161.81854061901845
 20
-134.8226482549953
 10
162.07081812174695
 20
-134.8130076016058
 10
162.32230885940822
 20
-134.79089263190414
 10
162.57239649662137
 20
-134.75635747658743
 10
162.82046839720655
 20
-134.70948738703564
 10
163.06591701012815
 20
-134.65039816123527
 10
163.30814125543785
 20
-134.57923556970286
 10
163.5465479102178
 20
-134.49617478140834
 10
163.7805529945239
 20
-134.40141978969874
 10
164.00958315732856
 20
-134.29520283822157
 10
164.23307706246422
 20
-134.17778384684843
 10
164.45048677456631
 20
-134.0494498375984
 10
164.66127914501635
 20
-133.9105143605617
 10
164.86493719788518
 20
-133.76131691982312
 10
165.06096151587604
 20
-133.60222239938548
 10
165.24887162626771
 20
-133.4336204890933
 10
165.428207350496
 20
-133.25592507240881
 10
165.5985289275373
 20
-133.06957214403786
 10
165.75941812093777
 20
-132.87501803172015
 10
165.9104807002572
 20
-132.6727395397454
 10
166.05134713435314
 20
-132.46323267419822
 10
166.18167316545757
 20
-132.24701125701492
 10
166.30114038325323
 20
-132.02460554004043
 10
166.40945679895023
 20
-131.79656081908502
 10
166.5063574193625
 20
-131.5634360479812
 10
166.59160482098423
 20
-131.32580245264072
 10
166.66498972406637
 20
-131.08424214511103
 10
166.7263315666932
 20
-130.8393467376325
 10
166.7754790788587
 20
-130.59171595669505
 10
166.81231085654312
 20
-130.34195625709503
 10
166.83673593578936
 20
-130.09067943599212
 10
166.84668299960725
 20
-129.90701386651818
 10
166.85000000000005
 20
-129.7231088534613
  0
LWPOLYLINE
  5
110
330
17
100
AcDbEntity
  8
GORUNEN
100
AcDbPolyline
 90
65
 70
0
 10
166.85000000000005
 20
-99.7231088534613
 10
166.84375095689128
 20
-99.47072447202513
 10
166.82501834854125
 20
-99.21895908210035
 10
166.79384775825577
 20
-98.9684297840968
 10
166.75031604586778
 20
-98.71975035546481
 10
166.69453077366092
 20
-98.473529864752
 10
166.62662963229312
 20
-98.2303712856602
 10
166.54677986672
 20
-97.99087011110223
 10
166.45517770211845
 20
-97.75561296725874
 10
166.35204776981013
 20
-97.52517622763511
 10
166.23764253318498
 20
-97.30012462711822
 10
166.11224171362474
 20
-97.0810098760333
 10
165.97615171642644
 20
-96.86836927420083
 10
165.829705056726
 20
-96.66272432499329
 10
165.6732597854216
 20
-96.46457934939207
 10
165.50719891509735
 20
-96.27442010004424
 10
165.33192984455835
 20
-96.0927123766858
 10
165.1478829182258
 20
-95.91990139878055
 10
164.95550886513098
 20
-95.75641159532879
 10
164.75527903767247
 20
-95.60264380280084
 10
164.54768436628498
 20
-95.45897431421344
 10
164.33323397349628
 20
-95.3257543050532
 10
164.11245378798398
 20
-95.20330925920014
 10
163.88588515863242
 20
-95.09193839485121
 10
163.65408346858956
 20
-94.99191409044384
 10
163.41761674932386
 20
-94.90348131057934
 10
163.17706429468106
 20
-94.82685703194653
 10
162.93301527494123
 20
-94.76222966924522
 10
162.6860673508754
 20
-94.70975850110969
 10
162.4368252878026
 20
-94.66957309603225
 10
162.18589956964672
 20
-94.6417727382867
 10
161.93390501299325
 20
-94.62642585385194
 10
161.68145938089688
 20
-94.62356945192835
 10
161.42918187816582
 20
-94.63321010532268
 10
161.17769114050242
 20
-94.6553250750293
 10
160.9276035032877
 20
-94.68986023035106
 10
160.67953160270156
 20
-94.73673031990788
 10
160.43408298977965
 20
-94.79581954571319
 10
160.1918587444702
 20
-94.86698213725046
 10
159.953452089691
 20
-94.95004292554971
 10
159.7194470053863
 20
-95.0447979172639
 10
159.49041684258336
 20
-95.15101486874553
 10
159.26692293744978
 20
-95.268433860123
 10
159.04951322535007
 20
-95.3967678693772
 10
158.83872085490262
 20
-95.53570334641796
 10
158.63506280203651
 20
-95.6849007871605
 10
158.43903848404852
 20
-95.84399530760197
 10
158.2511283736598
 20
-96.01259721789788
 10
158.07179264943468
 20
-96.19029263458597
 10
157.9014710723967
 20
-96.37664556296043
 10
157.74058187899968
 20
-96.57119967528158
 10
157.58951929968384
 20
-96.77347816725975
 10
157.44865286559164
 20
-96.98298503281033
 10
157.31832683449113
 20
-97.19920644999704
 10
157.19885961669954
 20
-97.42161216697494
 10
157.09054320100674
 20
-97.6496568879337
 10
156.99364258059884
 20
-97.88278165904082
 10
156.9083951789817
 20
-98.12041525438457
 10
156.8350102759043
 20
-98.3619755619174
 10
156.7736684332824
 20
-98.60687096939895
 10
156.72452092112204
 20
-98.85450175033927
 10
156.68768914344298
 20
-99.10426144994196
 10
156.6632640642023
 20
-99.35553827104734
 10
156.65331700039076
 20
-99.53920384046293
 10
156.65000000000006
 20
-99.7231088534613
  0
LWPOLYLINE
  5
111
330
17
100
AcDbEntity
  8
GORUNEN
100
AcDbPolyline
 90
65
 70
0
 10
156.65000000000006
 20
-99.7231088534613
 10
156.65624904310883
 20
-99.97549323489739
 10
156.67498165145884
 20
-100.22725862482211
 10
156.70615224174432
 20
-100.47778792282563
 10
156.74968395413225
 20
-100.72646735145756
 10
156.80546922633894
 20
-100.97268784217019
 10
156.8733703677065
 20
-101.2158464212617
 10
156.95322013327925
 20
-101.45534759581919
 10
157.04482229788022
 20
-101.69060473966196
 10
157.14795223018774
 20
-101.92104147928464
 10
157.26235746681186
 20
-102.1460930798003
 10
157.3877582863708
 20
-102.36520783088372
 10
157.52384828356747
 20
-102.57784843271443
 10
157.670294943266
 20
-102.78349338192002
 10
157.82674021456816
 20
-102.98163835751916
 10
157.9928010848899
 20
-103.17179760686483
 10
158.1680701554261
 20
-103.35350533022122
 10
158.35211708175555
 20
-103.52631630812468
 10
158.54449113484694
 20
-103.68980611157485
 10
158.74472096230159
 20
-103.84357390410149
 10
158.95231563368478
 20
-103.98724339268784
 10
159.1667660264688
 20
-104.12046340184739
 10
159.38754621197614
 20
-104.24290844770009
 10
159.61411484132253
 20
-104.35427931204907
 10
159.8459165313601
 20
-104.45430361645697
 10
160.08238325062058
 20
-104.54273639632247
 10
160.32293570525826
 20
-104.6193606749568
 10
160.56698472499326
 20
-104.6839880376602
 10
160.81393264905458
 20
-104.73645920579835
 10
161.06317471212327
 20
-104.776644610879
 10
161.31410043027552
 20
-104.80444496862823
 10
161.56609498692575
 20
-104.81979185306716
 10
161.81854061901922
 20
-104.82264825499529
 10
162.07081812174772
 20
-104.81300760160575
 10
162.32230885940902
 20
-104.79089263190406
 10
162.5723964966222
 20
-104.75635747658728
 10
162.82046839720738
 20
-104.70948738703545
 10
163.065917010129
 20
-104.65039816123505
 10
163.3081412554387
 20
-104.57923556970258
 10
163.5465479102187
 20
-104.496174781408
 10
163.78055299452475
 20
-104.40141978969834
 10
164.00958315732942
 20
-104.29520283822112
 10
164.2330770624651
 20
-104.17778384684792
 10
164.45048677456717
 20
-104.04944983759783
 10
164.66127914501718
 20
-103.91051436056108
 10
164.864937197886
 20
-103.76131691982243
 10
165.06096151587687
 20
-103.60222239938474
 10
165.24887162626854
 20
-103.4336204890925
 10
165.42820735049682
 20
-103.25592507240796
 10
165.59852892753807
 20
-103.06957214403694
 10
165.75941812093853
 20
-102.87501803171918
 10
165.91048070025792
 20
-102.67273953974437
 10
166.05134713435385
 20
-102.46323267419713
 10
166.18167316545822
 20
-102.24701125701378
 10
166.30114038325382
 20
-102.02460554003922
 10
166.4094567989508
 20
-101.79656081908375
 10
166.506357419363
 20
-101.56343604797993
 10
166.59160482098468
 20
-101.32580245263938
 10
166.66498972406677
 20
-101.08424214510964
 10
166.72633156669355
 20
-100.83934673763108
 10
166.77547907885898
 20
-100.59171595669358
 10
166.81231085654332
 20
-100.34195625709353
 10
166.83673593578948
 20
-100.09067943599058
 10
166.84668299960728
 20
-99.90701386651742
 10
166.85000000000005
 20
-99.7231088534613
  0
LWPOLYLINE
  5
112
330
17
100
AcDbEntity
  8
GORUNEN
100
AcDbPolyline
 90
65
 70
0
 10
18.35000000000003
 20
-99.7231088534613
 10
18.343750956891252
 20
-99.47072447202522
 10
18.32501834854124
 20
-99.2189590821005
 10
18.293847758255747
 20
-98.96842978409695
 10
18.25031604586774
 20
-98.71975035546494
 10
18.194530773660887
 20
-98.4735298647521
 10
18.12662963229308
 20
-98.23037128566025
 10
18.04677986671996
 20
-97.99087011110224
 10
17.9551777021184
 20
-97.75561296725873
 10
17.852047769810078
 20
-97.52517622763506
 10
17.737642533184918
 20
-97.30012462711815
 10
17.612241713624666
 20
-97.08100987603322
 10
17.47615171642637
 20
-96.86836927420073
 10
17.329705056725906
 20
-96.66272432499318
 10
17.173259785421497
 20
-96.46457934939194
 10
17.007198915097216
 20
-96.27442010004413
 10
16.83192984455819
 20
-96.09271237668568
 10
16.647882918225637
 20
-95.91990139878044
 10
16.4555088651308
 20
-95.75641159532867
 10
16.25527903767227
 20
-95.60264380280073
 10
16.047684366284784
 20
-95.45897431421332
 10
15.833233973496073
 20
-95.3257543050531
 10
15.612453787983751
 20
-95.20330925920004
 10
15.385885158632174
 20
-95.09193839485116
 10
15.154083468589304
 20
-94.9919140904438
 10
14.91761674932358
 20
-94.90348131057932
 10
14.67706429468079
 20
-94.82685703194656
 10
14.433015274940933
 20
-94.76222966924529
 10
14.186067350875092
 20
-94.7097585011098
 10
13.936825287802296
 20
-94.6695730960324
 10
13.685899569646397
 20
-94.64177273828689
 10
13.433905012992922
 20
-94.62642585385214
 10
13.181459380896552
 20
-94.62356945192857
 10
12.929181878165465
 20
-94.63321010532292
 10
12.677691140502064
 20
-94.65532507502954
 10
12.427603503287347
 20
-94.68986023035129
 10
12.179531602701198
 20
-94.73673031990808
 10
11.934082989779263
 20
-94.79581954571339
 10
11.691858744469815
 20
-94.86698213725066
 10
11.453452089690638
 20
-94.95004292554991
 10
11.219447005385884
 20
-95.0447979172641
 10
10.990416842582958
 20
-95.15101486874573
 10
10.766922937449385
 20
-95.26843386012321
 10
10.549513225349681
 20
-95.39676786937744
 10
10.338720854902228
 20
-95.53570334641822
 10
10.13506280203614
 20
-95.68490078716077
 10
9.939038484048147
 20
-95.84399530760226
 10
9.751128373659455
 20
-96.0125972178982
 10
9.571792649434332
 20
-96.19029263458634
 10
9.40147107239636
 20
-96.37664556296082
 10
9.24058187899934
 20
-96.57119967528199
 10
9.089519299683538
 20
-96.77347816726018
 10
8.94865286559136
 20
-96.9829850328108
 10
8.818326834490861
 20
-97.19920644999752
 10
8.69885961669927
 20
-97.42161216697545
 10
8.590543201006495
 20
-97.64965688793428
 10
8.493642580598635
 20
-97.88278165904143
 10
8.408395178981499
 20
-98.12041525438524
 10
8.335010275904116
 20
-98.36197556191811
 10
8.273668433282252
 20
-98.60687096939971
 10
8.22452092112192
 20
-98.85450175034006
 10
8.187689143442896
 20
-99.10426144994275
 10
8.163264064202227
 20
-99.35553827104812
 10
8.153317000390722
 20
-99.53920384046334
 10
8.150000000000041
 20
-99.7231088534613
  0
LWPOLYLINE
  5
113
330
17
100
AcDbEntity
  8
GORUNEN
100
AcDbPolyline
 90
65
 70
0
 10
8.150000000000041
 20
-99.7231088534613
 10
8.156249043108822
 20
-99.9754932348975
 10
8.174981651458836
 20
-100.22725862482228
 10
8.206152241744302
 20
-100.47778792282581
 10
8.24968395413224
 20
-100.72646735145773
 10
8.305469226338952
 20
-100.97268784217036
 10
8.373370367706508
 20
-101.21584642126183
 10
8.453220133279236
 20
-101.45534759581929
 10
8.544822297880213
 20
-101.69060473966204
 10
8.647952230187745
 20
-101.92104147928468
 10
8.762357466811858
 20
-102.14609307980032
 10
8.887758286370788
 20
-102.36520783088372
 10
9.023848283567462
 20
-102.57784843271443
 10
9.17029494326599
 20
-102.78349338192002
 10
9.326740214568153
 20
-102.98163835751916
 10
9.492801084889884
 20
-103.17179760686483
 10
9.668070155426092
 20
-103.35350533022122
 10
9.852117081755543
 20
-103.52631630812468
 10
10.044491134846911
 20
-103.68980611157485
 10
10.244720962301557
 20
-103.84357390410149
 10
10.452315633684746
 20
-103.98724339268786
 10
10.666766026468778
 20
-104.12046340184739
 10
10.887546211976117
 20
-104.2429084477001
 10
11.114114841322506
 20
-104.3542793120491
 10
11.345916531360094
 20
-104.454303616457
 10
11.582383250620563
 20
-104.54273639632254
 10
11.822935705258244
 20
-104.6193606749569
 10
12.066984724993246
 20
-104.68398803766033
 10
12.313932649054577
 20
-104.73645920579852
 10
12.56317471212327
 20
-104.77664461087917
 10
12.814100430275507
 20
-104.80444496862845
 10
13.066094986925737
 20
-104.81979185306739
 10
13.318540619019213
 20
-104.82264825499551
 10
13.570818121747742
 20
-104.81300760160596
 10
13.82230885940904
 20
-104.79089263190426
 10
14.072396496622204
 20
-104.75635747658745
 10
14.320468397207403
 20
-104.70948738703558
 10
14.565917010129002
 20
-104.65039816123516
 10
14.808141255438711
 20
-104.57923556970266
 10
15.046547910218706
 20
-104.49617478140806
 10
15.280552994524776
 20
-104.40141978969838
 10
15.509583157329441
 20
-104.29520283822114
 10
15.733077062465107
 20
-104.17778384684792
 10
15.95048677456718
 20
-104.04944983759785
 10
16.16127914501721
 20
-103.91051436056108
 10
16.364937197886032
 20
-103.76131691982243
 10
16.560961515876883
 20
-103.60222239938474
 10
16.74887162626855
 20
-103.4336204890925
 10
16.92820735049679
 20
-103.25592507240796
 10
17.098528927538048
 20
-103.06957214403694
 10
17.25941812093851
 20
-102.87501803171918
 10
17.4104807002579
 20
-102.67273953974437
 10
17.55134713435381
 20
-102.46323267419714
 10
17.68167316545819
 20
-102.24701125701381
 10
17.80114038325381
 20
-102.02460554003926
 10
17.90945679895077
 20
-101.79656081908381
 10
18.00635741936298
 20
-101.56343604798002
 10
18.091604820984646
 20
-101.3258024526395
 10
18.16498972406674
 20
-101.08424214510978
 10
18.226331566693506
 20
-100.83934673763125
 10
18.275479078858943
 20
-100.59171595669376
 10
18.312310856543277
 20
-100.34195625709371
 10
18.336735935789456
 20
-100.09067943599072
 10
18.346682999607253
 20
-99.9070138665175
 10
18.35000000000003
 20
-99.7231088534613
  0
LWPOLYLINE
  5
114
330
17
100
AcDbEntity
  8
GORUNEN
100
AcDbPolyline
 90
65
 70
0
 10
18.35000000000006
 20
-129.7231088534613
 10
18.34375095689128
 20
-129.4707244720252
 10
18.325018348541267
 20
-129.2189590821005
 10
18.293847758255776
 20
-128.96842978409697
 10
18.25031604586777
 20
-128.71975035546495
 10
18.194530773660915
 20
-128.4735298647521
 10
18.12662963229311
 20
-128.23037128566025
 10
18.046779866719987
 20
-127.99087011110224
 10
17.95517770211843
 20
-127.75561296725873
 10
17.852047769810106
 20
-127.52517622763507
 10
17.737642533184946
 20
-127.30012462711815
 10
17.612241713624694
 20
-127.08100987603322
 10
17.476151716426397
 20
-126.86836927420073
 10
17.329705056725935
 20
-126.66272432499318
 10
17.173259785421525
 20
-126.46457934939194
 10
17.007198915097245
 20
-126.27442010004413
 10
16.831929844558218
 20
-126.09271237668568
 10
16.647882918225665
 20
-125.91990139878044
 10
16.455508865130827
 20
-125.75641159532867
 10
16.2552790376723
 20
-125.60264380280073
 10
16.047684366284813
 20
-125.45897431421332
 10
15.833233973496101
 20
-125.3257543050531
 10
15.61245378798378
 20
-125.20330925920004
 10
15.385885158632203
 20
-125.09193839485116
 10
15.154083468589333
 20
-124.9919140904438
 10
14.917616749323608
 20
-124.90348131057932
 10
14.677064294680818
 20
-124.82685703194656
 10
14.433015274940962
 20
-124.76222966924529
 10
14.18606735087512
 20
-124.7097585011098
 10
13.936825287802325
 20
-124.6695730960324
 10
13.685899569646425
 20
-124.64177273828689
 10
13.43390501299295
 20
-124.62642585385214
 10
13.18145938089658
 20
-124.62356945192857
 10
12.929181878165494
 20
-124.63321010532292
 10
12.677691140502093
 20
-124.65532507502952
 10
12.427603503287376
 20
-124.68986023035129
 10
12.179531602701227
 20
-124.73673031990809
 10
11.934082989779291
 20
-124.79581954571339
 10
11.691858744469844
 20
-124.86698213725066
 10
11.453452089690666
 20
-124.95004292554991
 10
11.219447005385913
 20
-125.0447979172641
 10
10.990416842582986
 20
-125.15101486874573
 10
10.766922937449413
 20
-125.26843386012321
 10
10.54951322534971
 20
-125.39676786937743
 10
10.338720854902256
 20
-125.53570334641822
 10
10.135062802036169
 20
-125.68490078716077
 10
9.939038484048176
 20
-125.84399530760227
 10
9.751128373659483
 20
-126.0125972178982
 10
9.57179264943436
 20
-126.19029263458634
 10
9.401471072396388
 20
-126.37664556296082
 10
9.240581878999368
 20
-126.57119967528199
 10
9.089519299683566
 20
-126.77347816726018
 10
8.948652865591388
 20
-126.9829850328108
 10
8.81832683449089
 20
-127.19920644999752
 10
8.698859616699298
 20
-127.42161216697546
 10
8.590543201006524
 20
-127.64965688793428
 10
8.493642580598664
 20
-127.88278165904143
 10
8.408395178981527
 20
-128.12041525438525
 10
8.335010275904144
 20
-128.36197556191811
 10
8.27366843328228
 20
-128.60687096939972
 10
8.224520921121949
 20
-128.85450175034006
 10
8.187689143442924
 20
-129.10426144994275
 10
8.163264064202256
 20
-129.35553827104812
 10
8.15331700039075
 20
-129.53920384046336
 10
8.15000000000007
 20
-129.7231088534613
  0
LWPOLYLINE
  5
115
330
17
100
AcDbEntity
  8
GORUNEN
100
AcDbPolyline
 90
65
 70
0
 10
8.15000000000007
 20
-129.7231088534613
 10
8.156249043108847
 20
-129.97549323489747
 10
8.174981651458854
 20
-130.22725862482224
 10
8.206152241744316
 20
-130.47778792282577
 10
8.24968395413225
 20
-130.72646735145767
 10
8.305469226338953
 20
-130.97268784217027
 10
8.373370367706501
 20
-131.21584642126174
 10
8.453220133279222
 20
-131.4553475958192
 10
8.544822297880192
 20
-131.69060473966192
 10
8.647952230187713
 20
-131.92104147928455
 10
8.762357466811816
 20
-132.1460930798002
 10
8.887758286370733
 20
-132.36520783088358
 10
9.023848283567393
 20
-132.5778484327143
 10
9.170294943265906
 20
-132.78349338191987
 10
9.326740214568053
 20
-132.981638357519
 10
9.492801084889768
 20
-133.1717976068647
 10
9.668070155425958
 20
-133.35350533022108
 10
9.85211708175539
 20
-133.5263163081245
 10
10.04449113484674
 20
-133.6898061115747
 10
10.244720962301368
 20
-133.84357390410133
 10
10.452315633684536
 20
-133.9872433926877
 10
10.666766026468549
 20
-134.12046340184725
 10
10.887546211975868
 20
-134.24290844769996
 10
11.114114841322237
 20
-134.35427931204896
 10
11.345916531359807
 20
-134.45430361645688
 10
11.582383250620257
 20
-134.54273639632243
 10
11.822935705257917
 20
-134.6193606749568
 10
12.066984724992901
 20
-134.68398803766024
 10
12.313932649054214
 20
-134.73645920579844
 10
12.56317471212289
 20
-134.77664461087912
 10
12.814100430275111
 20
-134.80444496862842
 10
13.066094986925325
 20
-134.8197918530674
 10
13.318540619018787
 20
-134.82264825499553
 10
13.570818121747301
 20
-134.813007601606
 10
13.822308859408588
 20
-134.7908926319043
 10
14.072396496621742
 20
-134.75635747658754
 10
14.32046839720693
 20
-134.7094873870357
 10
14.565917010128523
 20
-134.6503981612353
 10
14.808141255438224
 20
-134.5792355697028
 10
15.046547910218216
 20
-134.49617478140826
 10
15.280552994524282
 20
-134.4014197896986
 10
15.509583157328947
 20
-134.2952028382214
 10
15.733077062464615
 20
-134.17778384684823
 10
15.95048677456669
 20
-134.04944983759816
 10
16.161279145016728
 20
-133.91051436056145
 10
16.364937197885553
 20
-133.76131691982283
 10
16.560961515876414
 20
-133.60222239938517
 10
16.74887162626809
 20
-133.43362048909296
 10
16.928207350496347
 20
-133.25592507240844
 10
17.09852892753762
 20
-133.06957214403747
 10
17.2594181209381
 20
-132.87501803171972
 10
17.41048070025751
 20
-132.67273953974495
 10
17.551347134353442
 20
-132.46323267419777
 10
17.68167316545784
 20
-132.24701125701446
 10
17.801140383253486
 20
-132.02460554003994
 10
17.909456798950472
 20
-131.79656081908453
 10
18.006357419362715
 20
-131.56343604798076
 10
18.09160482098441
 20
-131.32580245264026
 10
18.164989724066537
 20
-131.08424214511058
 10
18.226331566693343
 20
-130.83934673763207
 10
18.27547907885882
 20
-130.5917159566946
 10
18.312310856543192
 20
-130.34195625709458
 10
18.336735935789417
 20
-130.0906794359916
 10
18.346682999607264
 20
-129.90701386651796
 10
18.35000000000006
 20
-129.7231088534613
  0
LWPOLYLINE
  5
116
330
17
100
AcDbEntity
  8
GORUNEN
100
AcDbPolyline
 90
79
 70
0
 10
169.05
 20
-54.7231088534613
 10
169.04493829371393
 20
-54.520693311277654
 10
169.03173663815684
 20
-54.33893785999348
 10
169.01287377525446
 20
-54.176012913630075
 10
168.98742891536506
 20
-54.01398554163728
 10
168.9554441348946
 20
-53.853121355440706
 10
168.9169723163167
 20
-53.693684018155466
 10
168.87207698114827
 20
-53.535934841353495
 10
168.8208321229249
 20
-53.38013238183085
 10
168.76332204017663
 20
-53.226532038374884
 10
168.6996411694033
 20
-53.075385648531565
 10
168.62989391805021
 20
-52.926941085372746
 10
168.5541944974837
 20
-52.781441854263406
 10
168.47266675596657
 20
-52.639126689628924
 10
168.38544401163375
 20
-52.500229151722365
 10
168.2926688854678
 20
-52.36497722339169
 10
168.1944931342744
 20
-52.233592906847065
 10
168.0910774836581
 20
-52.106291820428126
 10
167.98259146099758
 20
-51.983282795371224
 10
167.86921322842147
 20
-51.86476747257669
 10
167.7511291974239
 20
-51.75094009867321
 10
167.6285329460489
 20
-51.64198779776804
 10
167.5016254205541
 20
-51.538089532793464
 10
167.37061479530627
 20
-51.43941564761312
 10
167.2357160695731
 20
-51.3461276999727
 10
167.09715066429044
 20
-51.258378294475634
 10
166.95514601882962
 20
-51.17631091555849
 10
166.8099351877646
 20
-51.10005976046662
 10
166.66175643763947
 20
-51.02974957222962
 10
166.5108528437354
 20
-50.96549547263689
 10
166.35747188683814
 20
-50.907402795213144
 10
166.20186505000513
 20
-50.855566918193986
 10
166.0442874153329
 20
-50.81007309750143
 10
165.88499726072422
 20
-50.770996299719386
 10
165.7242556566554
 20
-50.73840103506926
 10
165.56232606294355
 20
-50.71234119038546
 10
165.39947392551386
 20
-50.69285986209091
 10
165.2359662731668
 20
-50.679989189172616
 10
165.07207131434555
 20
-50.67375018615718
 10
164.90805803229
 20
-50.67415263588033
 10
164.74419569299607
 20
-50.681195935953895
 10
164.58075320810045
 20
-50.694868957495416
 10
164.41799866457964
 20
-50.71514932914506
 10
164.25619892090816
 20
-50.74200357532078
 10
164.09561920382592
 20
-50.77538728324279
 10
163.9365227051054
 20
-50.81524526995804
 10
163.77917017831902
 20
-50.86151174936465
 10
163.6238195356062
 20
-50.91411049923646
 10
163.47072544444094
 20
-50.972955028247384
 10
163.32013892439875
 20
-51.03794874299595
 10
163.17230694392413
 20
-51.10898511502977
 10
163.02747201709772
 20
-51.18594784786994
 10
162.88587180040363
 20
-51.2687110440356
 10
162.74773868949669
 20
-51.3571393720683
 10
162.61329941596966
 20
-51.451088233556575
 10
162.48277464412052
 20
-51.5504039301603
 10
162.35637856771982
 20
-51.65492383063523
 10
162.23431850677773
 20
-51.76447653785745
 10
162.1167945054385
 20
-51.87888205699315
 10
162.00399928737357
 20
-51.99795236404971
 10
161.89611832113508
 20
-52.12149233701781
 10
161.7933287314801
 20
-52.249299442281426
 10
161.69579898817784
 20
-52.381164004747845
 10
161.60368873898489
 20
-52.51686961108038
 10
161.51714864262098
 20
-52.656193512931125
 10
161.43632020174448
 20
-52.79890703017372
 10
161.3613355959279
 20
-52.94477595413602
 10
161.29231751463345
 20
-53.09356095083287
 10
161.22937899018868
 20
-53.24501796419888
 10
161.17262323076193
 20
-53.39889861932106
 10
161.12214345333786
 20
-53.554950625671665
 10
161.07802271669314
 20
-53.712918180340864
 10
161.04033375437183
 20
-53.87254237126949
 10
161.00913880766106
 20
-54.03356158048179
 10
160.9844894585665
 20
-54.195711887318126
 10
160.96642646278795
 20
-54.35872747166779
 10
160.95497958269488
 20
-54.522341017201626
 10
160.95124505854022
 20
-54.62269403334268
 10
160.95000000000002
 20
-54.7231088534613
  0
LWPOLYLINE
  5
117
330
17
100
AcDbEntity
  8
GORUNEN
100
AcDbPolyline
 90
79
 70
0
 10
160.95000000000002
 20
-54.7231088534613
 10
160.9550617062861
 20
-54.92552439565708
 10
160.96826336184319
 20
-55.10727984694701
 10
160.98712622474557
 20
-55.270204793312516
 10
161.01257108463497
 20
-55.432232165305294
 10
161.04455586510542
 20
-55.59309635150038
 10
161.08302768368333
 20
-55.752533688783146
 10
161.12792301885176
 20
-55.910282865582076
 10
161.17916787707512
 20
-56.066085325101426
 10
161.2366779598234
 20
-56.21968566855409
 10
161.30035883059674
 20
-56.37083205839424
 10
161.3701060819498
 20
-56.51927662155015
 10
161.44580550251632
 20
-56.66477585265693
 10
161.52733324403343
 20
-56.80709101728925
 10
161.61455598836625
 20
-56.945988555194106
 10
161.70733111453222
 20
-57.08124048352357
 10
161.8055068657256
 20
-57.21262480006756
 10
161.90892251634193
 20
-57.33992588648654
 10
162.01740853900242
 20
-57.46293491154432
 10
162.13078677157856
 20
-57.58145023434078
 10
162.24887080257608
 20
-57.69527760824732
 10
162.3714670539511
 20
-57.804229909156206
 10
162.4983745794459
 20
-57.90812817413453
 10
162.62938520469376
 20
-58.00680205931829
 10
162.76428393042704
 20
-58.100090006961466
 10
162.9028493357099
 20
-58.18783941246046
 10
163.044853981171
 20
-58.269906791378645
 10
163.19006481223641
 20
-58.34615794647067
 10
163.33824356236212
 20
-58.41646813470706
 10
163.48914715626697
 20
-58.48072223429854
 10
163.6425281131652
 20
-58.53881491172055
 10
163.7981349499994
 20
-58.590650788737705
 10
163.95571258467305
 20
-58.63614460942817
 10
164.11500273928337
 20
-58.67522140720823
 10
164.2757443433541
 20
-58.70781667185662
 10
164.43767393706804
 20
-58.73387651653903
 10
164.6005260745
 20
-58.75335784483258
 10
164.76403372684948
 20
-58.76622851775021
 10
164.92792868567332
 20
-58.77246752076516
 10
165.09194196773143
 20
-58.772065071041496
 10
165.25580430702797
 20
-58.76502177096735
 10
165.41924679192624
 20
-58.75134874942535
 10
165.58200133544977
 20
-58.73106837777537
 10
165.743801079124
 20
-58.7042141315995
 10
165.90438079620907
 20
-58.67083042367743
 10
166.06347729493237
 20
-58.6309724369621
 10
166.2208298217215
 20
-58.584705957555215
 10
166.3761804644369
 20
-58.5321072076828
 10
166.52927455560464
 20
-58.473262678670736
 10
166.67986107564903
 20
-58.408268963920335
 10
166.82769305612555
 20
-58.337232591883875
 10
166.97252798295352
 20
-58.26026985904009
 10
167.11412819964875
 20
-58.177506662869874
 10
167.25226131055646
 20
-58.08907833483164
 10
167.3867005840838
 20
-57.995129473337
 10
167.5172253559328
 20
-57.89581377672627
 10
167.64362143233296
 20
-57.791293876244026
 10
167.76568149327414
 20
-57.68174116901464
 10
167.8832054946122
 20
-57.56733564987253
 10
167.99600071267574
 20
-57.448265342810785
 10
168.10388167891261
 20
-57.324725369838674
 10
168.2066712685657
 20
-57.19691826457209
 10
168.3042010118659
 20
-57.0650537021037
 10
168.39631126105655
 20
-56.92934809577012
 10
168.48285135741793
 20
-56.79002419391921
 10
168.56367979829176
 20
-56.647310676677336
 10
168.6386644041055
 20
-56.50144175271657
 10
168.70768248539696
 20
-56.352656756022014
 10
168.77062100983864
 20
-56.20119974265897
 10
168.82737676926226
 20
-56.047319087540245
 10
168.87785654668315
 20
-55.891267081193405
 10
168.9219772833247
 20
-55.733299526528015
 10
168.9596662456429
 20
-55.57367533560286
 10
168.9908611923506
 20
-55.412656126393244
 10
169.01551054144218
 20
-55.25050581955824
 10
169.0335735372179
 20
-55.08749023520791
 10
169.04502041730825
 20
-54.923876689670536
 10
169.0487549414606
 20
-54.82352367355551
 10
169.05
 20
-54.7231088534613
  0
LWPOLYLINE
  5
118
330
17
100
AcDbEntity
  8
GIZLI
100
AcDbPolyline
 90
64
 70
0
 10
14.050000000000008
 20
-54.7231088534613
 10
14.044965530936643
 20
-54.521233016535476
 10
14.029874640229883
 20
-54.31985907474824
 10
14.004764846211778
 20
-54.119487675447786
 10
13.969698575786609
 20
-53.920616973503726
 10
13.924763009227771
 20
-53.7237413928156
 10
13.870069863433875
 20
-53.52935039709713
 10
13.805755114182933
 20
-53.33792727299233
 10
13.731978658075153
 20
-53.14994792854877
 10
13.6489239150048
 20
-52.96587971003518
 10
13.556797372149427
 20
-52.786180240044956
 10
13.455828070610231
 20
-52.61129627977432
 10
13.346267035979778
 20
-52.441662618303624
 10
13.228386654252835
 20
-52.2777009916431
 10
13.102479994631858
 20
-52.1198190342308
 10
12.968860080910794
 20
-51.96840926548906
 10
12.827859113248591
 20
-51.82384811395943
 10
12.679827642267275
 20
-51.68649498144197
 10
12.525133697527865
 20
-51.556691349465765
 10
12.364161872550891
 20
-51.43475993031207
 10
12.197312368656316
 20
-51.32100386470066
 10
12.02499999999999
 20
-51.215705968134316
 10
11.847653162280299
 20
-51.119128027774835
 10
11.665712767678965
 20
-51.03151015159901
 10
11.479631148683886
 20
-50.95307017145227
 10
11.289870933519307
 20
-50.88400310148441
 10
11.096903895979155
 20
-50.82448065331374
 10
10.901209782523058
 20
-50.77465080912491
 10
10.70327511955105
 20
-50.73463745376185
 10
10.503592003822297
 20
-50.7045400667306
 10
10.302656879025
 20
-50.68443347487752
 10
10.100969301539175
 20
-50.674367666357995
 10
9.899030698460784
 20
-50.674367666357995
 10
9.69734312097496
 20
-50.68443347487752
 10
9.496407996177663
 20
-50.7045400667306
 10
9.29672488044891
 20
-50.73463745376186
 10
9.098790217476903
 20
-50.77465080912492
 10
8.903096104020806
 20
-50.824480653313756
 10
8.710129066480654
 20
-50.884003101484424
 10
8.520368851316077
 20
-50.95307017145228
 10
8.334287232321
 20
-51.031510151599036
 10
8.152346837719666
 20
-51.11912802777486
 10
7.9749999999999766
 20
-51.215705968134344
 10
7.802687631343651
 20
-51.3210038647007
 10
7.635838127449078
 20
-51.4347599303121
 10
7.474866302472107
 20
-51.55669134946581
 10
7.320172357732698
 20
-51.686494981441996
 10
7.172140886751385
 20
-51.82384811395947
 10
7.031139919089184
 20
-51.9684092654891
 10
6.89752000536812
 20
-52.119819034230844
 10
6.771613345747146
 20
-52.277700991643144
 10
6.653732964020205
 20
-52.44166261830367
 10
6.544171929389755
 20
-52.611296279774365
 10
6.443202627850561
 20
-52.786180240045
 10
6.351076084995191
 20
-52.965879710035225
 10
6.268021341924839
 20
-53.149947928548826
 10
6.194244885817063
 20
-53.33792727299239
 10
6.1299301365661245
 20
-53.529350397097176
 10
6.07523699077223
 20
-53.723741392815654
 10
6.030301424213396
 20
-53.92061697350378
 10
5.995235153788229
 20
-54.11948767544784
 10
5.970125359770128
 20
-54.319859074748294
 10
5.95503446906337
 20
-54.52123301653553
 10
5.950000000000008
 20
-54.7231088534613
  0
LWPOLYLINE
  5
119
330
17
100
AcDbEntity
  8
GIZLI
100
AcDbPolyline
 90
34
 70
0
 10
148.50000000000003
 20
-66.7231088534613
 10
148.4977292354939
 20
-66.62771470652055
 10
148.4909179040703
 20
-66.53253202333784
 10
148.4795765866215
 20
-66.4377814184479
 10
148.46372777698855
 20
-66.34368138050188
 10
148.44340554356376
 20
-66.25044793386988
 10
148.41865519089353
 20
-66.15829430024361
 10
148.38953292128087
 20
-66.06743056023905
 10
148.35610549638795
 20
-65.97806331499895
 10
148.3184498988388
 20
-65.89039534779555
 10
148.27665299382187
 20
-65.80462528563314
 10
148.23081119069275
 20
-65.72094726085069
 10
148.1810301045766
 20
-65.63955057272446
 10
148.1274242179709
 20
-65.5606193490706
 10
148.07011654234807
 20
-65.48433220784783
 10
148.00923827975805
 20
-65.41086191875992
 10
147.94492848443082
 20
-65.34037506485845
 10
147.87733372437916
 20
-65.27303170414535
 10
147.80660774300125
 20
-65.2089850311755
 10
147.73291112068316
 20
-65.1483810386594
 10
147.6564109364016
 20
-65.09135817906571
 10
147.5772804293265
 20
-65.03804702622396
 10
147.49569866042347
 20
-64.98856993692706
 10
147.41185017405672
 20
-64.94304071253401
 10
147.3259246595914
 20
-64.90156426057244
 10
147.23811661299632
 20
-64.86423625634124
 10
147.1486249984466
 20
-64.83114280451322
 10
147.0576529099262
 20
-64.80236010073764
 10
146.96540723283056
 20
-64.77795409324295
 10
146.87209830556932
 20
-64.75798014443926
 10
146.77793958116877
 20
-64.74248269252104
 10
146.68314728887455
 20
-64.73149491306971
 10
146.59166727643955
 20
-64.72520552852205
 10
146.50000000000003
 20
-64.7231088534613
  0
LWPOLYLINE
  5
11A
330
17
100
AcDbEntity
  8
GIZLI
100
AcDbPolyline
 90
2
 70
0
 10
28.500000000000007
 20
-64.72310885346135
 10
146.50000000000003
 20
-64.72310885346124
  0
LWPOLYLINE
  5
11B
330
17
100
AcDbEntity
  8
GIZLI
100
AcDbPolyline
 90
34
 70
0
 10
28.500000000000007
 20
-64.7231088534613
 10
28.404605853059284
 20
-64.72537961796743
 10
28.309423169876595
 20
-64.73219094939103
 10
28.21467256498668
 20
-64.74353226683982
 10
28.12057252704067
 20
-64.7593810764728
 10
28.02733908040868
 20
-64.7797033098976
 10
27.93518544678243
 20
-64.80445366256782
 10
27.84432170677787
 20
-64.8335759321805
 10
27.75495446153778
 20
-64.86700335707343
 10
27.667286494334387
 20
-64.90465895462258
 10
27.581516432171984
 20
-64.9464558596395
 10
27.497838407389537
 20
-64.99229766276864
 10
27.41644171926331
 20
-65.04207874888479
 10
27.33751049560946
 20
-65.09568463549049
 10
27.261223354386676
 20
-65.1529923111133
 10
27.187753065298768
 20
-65.21387057370335
 10
27.1172662113973
 20
-65.27818036903058
 10
27.049922850684194
 20
-65.34577512908223
 10
26.98587617771434
 20
-65.41650111046015
 10
26.925272185198228
 20
-65.49019773277823
 10
26.86824932560454
 20
-65.56669791705977
 10
26.814938172762783
 20
-65.6458284241349
 10
26.765461083465887
 20
-65.72741019303793
 10
26.719931859072826
 20
-65.81125867940467
 10
26.678455407111237
 20
-65.89718419387
 10
26.641127402880027
 20
-65.98499224046509
 10
26.608033951051986
 20
-66.07448385501482
 10
26.57925124727641
 20
-66.16545594353522
 10
26.5548452397817
 20
-66.25770162063084
 10
26.53487129097799
 20
-66.35101054789207
 10
26.51937383905976
 20
-66.44516927229262
 10
26.508386059608434
 20
-66.53996156458682
 10
26.50209667506076
 20
-66.63144157702182
 10
26.500000000000007
 20
-66.7231088534613
  0
LWPOLYLINE
  5
11C
330
17
100
AcDbEntity
  8
GIZLI
100
AcDbPolyline
 90
2
 70
0
 10
26.500000000000075
 20
-139.7231088534613
 10
26.50000000000001
 20
-66.7231088534613
  0
LWPOLYLINE
  5
11D
330
17
100
AcDbEntity
  8
GIZLI
100
AcDbPolyline
 90
2
 70
0
 10
26.500000000000078
 20
-139.7231088534613
 10
21.500000000000078
 20
-144.7231088534613
  0
LWPOLYLINE
  5
11E
330
17
100
AcDbEntity
  8
GIZLI
100
AcDbPolyline
 90
2
 70
0
 10
5.000000000000079
 20
-144.72310885346138
 10
21.500000000000078
 20
-144.72310885346135
  0
LWPOLYLINE
  5
11F
330
17
100
AcDbEntity
  8
GIZLI
100
AcDbPolyline
 90
2
 70
0
 10
5.000000000000079
 20
-144.7231088534613
 10
7.86120842900806e-14
 20
-139.7231088534613
  0
LWPOLYLINE
  5
120
330
17
100
AcDbEntity
  8
GIZLI
100
AcDbPolyline
 90
2
 70
0
 10
7.645652774085354e-14
 20
-139.7231088534613
 10
0.0
 20
-54.7231088534613
  0
LWPOLYLINE
  5
121
330
17
100
AcDbEntity
  8
GIZLI
100
AcDbPolyline
 90
35
 70
0
 10
9.999999999999993
 20
-44.7231088534613
 10
9.535544025265649
 20
-44.7338742514375
 10
9.072063029583905
 20
-44.76616674805098
 10
8.610575824219797
 20
-44.819939685384725
 10
8.152091744049766
 20
-44.895092774574735
 10
7.697609166338257
 20
-44.9914735770334
 10
7.2481140295143005
 20
-45.108878985672916
 10
6.804578351948103
 20
-45.24705670612869
 10
6.367958750727636
 20
-45.4057067379828
 10
5.939194960435217
 20
-45.584482855987346
 10
5.519208351924105
 20
-45.78299409128789
 10
5.1089004510950815
 20
-46.00080621264688
 10
4.709151457673043
 20
-46.23744320766704
 10
4.320818763983583
 20
-46.49238876401482
 10
3.944735473729588
 20
-46.76508775064376
 10
3.581708920767817
 20
-47.0549476990179
 10
3.2325191878854906
 20
-47.36134028433527
 10
2.8979176255768837
 20
-47.683602806751225
 10
2.5786253708199047
 20
-48.02103967260187
 10
2.27533186585269
 20
-48.37292387562749
 10
1.9886933769501902
 20
-48.73849847819599
 10
1.7193315132007556
 20
-49.11697809252625
 10
1.4678317452827199
 20
-49.50755036191154
 10
1.234741924241002
 20
-49.90937744194301
 10
1.0205708002636755
 20
-50.321597481732994
 10
0.8257865414585699
 20
-50.74332610513851
 10
0.6508152526298496
 20
-51.17365789198462
 10
0.4960394940546071
 20
-51.61166785928789
 10
0.36179680025944494
 20
-52.05641294247975
 10
0.24837819879707235
 20
-52.50693347662994
 10
0.15602672902288228
 20
-52.96225467766992
 10
0.08493596087154077
 20
-53.42138812361625
 10
0.035248513633583396
 20
-53.883333235794055
 10
0.008812325606327063
 20
-54.30286183665524
 10
7.557810714070579e-15
 20
-54.7231088534613
  0
LWPOLYLINE
  5
122
330
17
100
AcDbEntity
  8
GIZLI
100
AcDbPolyline
 90
2
 70
0
 10
9.999999999999993
 20
-44.72310885346137
 10
165.0
 20
-44.72310885346123
  0
LWPOLYLINE
  5
123
330
17
100
AcDbEntity
  8
GIZLI
100
AcDbPolyline
 90
35
 70
0
 10
175.00000000000003
 20
-54.7231088534613
 10
174.98923460202386
 20
-54.25865287873552
 10
174.95694210541052
 20
-53.79517188306154
 10
174.90316916807717
 20
-53.33368467770447
 10
174.82801607888794
 20
-52.87520059754081
 10
174.7316352764305
 20
-52.42071801983505
 10
174.61422986779274
 20
-51.97122288301628
 10
174.47605214733932
 20
-51.527687205454754
 10
174.31740211548825
 20
-51.091067604238475
 10
174.13862599748745
 20
-50.662303813949805
 10
173.9401147621914
 20
-50.24231720544202
 10
173.72230264083765
 20
-49.83200930461594
 10
173.4856656458235
 20
-49.43226031119647
 10
173.23072008948253
 20
-49.043927617509226
 10
172.95802110286115
 20
-48.6678443272571
 10
172.66816115449532
 20
-48.304817774296865
 10
172.36176856918698
 20
-47.95562804141572
 10
172.03950604678073
 20
-47.621026479107954
 10
171.7020691809404
 20
-47.30173422435145
 10
171.35018497792564
 20
-46.99844071938432
 10
170.9846103753685
 20
-46.71180223048151
 10
170.60613076105005
 20
-46.44244036673133
 10
170.21555849167686
 20
-46.19094059881209
 10
169.81373141165773
 20
-45.95785077776867
 10
169.40151137188022
 20
-45.74367965378907
 10
168.9797827484872
 20
-45.548895394981116
 10
168.54945096165346
 20
-45.37392410614888
 10
168.11144099436237
 20
-45.219148347569416
 10
167.6666959111823
 20
-45.084905653769255
 10
167.2161753770434
 20
-44.97148705230103
 10
166.76085417601408
 20
-44.87913558252005
 10
166.3017207300776
 20
-44.808044814360926
 10
165.83977561790869
 20
-44.75835736711407
 10
165.42024701692742
 20
-44.7319211790724
 10
165.0
 20
-44.7231088534613
  0
LWPOLYLINE
  5
124
330
17
100
AcDbEntity
  8
GIZLI
100
AcDbPolyline
 90
2
 70
0
 10
175.00000000000006
 20
-139.7231088534613
 10
175.0
 20
-54.7231088534613
  0
LWPOLYLINE
  5
125
330
17
100
AcDbEntity
  8
GIZLI
100
AcDbPolyline
 90
2
 70
0
 10
175.00000000000009
 20
-139.7231088534613
 10
170.00000000000009
 20
-144.7231088534613
  0
LWPOLYLINE
  5
126
330
17
100
AcDbEntity
  8
GIZLI
100
AcDbPolyline
 90
2
 70
0
 10
153.50000000000009
 20
-144.72310885346124
 10
170.00000000000009
 20
-144.7231088534612
  0
LWPOLYLINE
  5
127
330
17
100
AcDbEntity
  8
GIZLI
100
AcDbPolyline
 90
2
 70
0
 10
153.50000000000009
 20
-144.7231088534613
 10
148.50000000000009
 20
-139.7231088534613
  0
LWPOLYLINE
  5
128
330
17
100
AcDbEntity
  8
GIZLI
100
AcDbPolyline
 90
2
 70
0
 10
148.50000000000006
 20
-139.7231088534613
 10
148.5
 20
-66.7231088534613
  0
LWPOLYLINE
  5
129
330
17
100
AcDbEntity
  8
GIZLI
100
AcDbPolyline
 90
65
 70
0
 10
156.65000000000006
 20
-129.7231088534613
 10
156.65624904310883
 20
-129.97549323489736
 10
156.67498165145884
 20
-130.22725862482207
 10
156.70615224174432
 20
-130.47778792282554
 10
156.74968395413225
 20
-130.72646735145744
 10
156.80546922633894
 20
-130.97268784217007
 10
156.87337036770649
 20
-131.21584642126155
 10
156.95322013327922
 20
-131.45534759581903
 10
157.04482229788016
 20
-131.69060473966178
 10
157.14795223018768
 20
-131.92104147928444
 10
157.26235746681178
 20
-132.14609307980007
 10
157.38775828637068
 20
-132.36520783088346
 10
157.52384828356733
 20
-132.57784843271418
 10
157.67029494326584
 20
-132.78349338191975
 10
157.82674021456796
 20
-132.98163835751888
 10
157.99280108488966
 20
-133.17179760686457
 10
158.16807015542582
 20
-133.35350533022097
 10
158.35211708175524
 20
-133.5263163081244
 10
158.54449113484657
 20
-133.6898061115746
 10
158.7447209623012
 20
-133.84357390410122
 10
158.95231563368435
 20
-133.9872433926876
 10
159.16676602646834
 20
-134.12046340184713
 10
159.38754621197563
 20
-134.24290844769985
 10
159.614114841322
 20
-134.35427931204885
 10
159.84591653135956
 20
-134.45430361645674
 10
160.08238325061998
 20
-134.54273639632225
 10
160.32293570525763
 20
-134.61936067495662
 10
160.5669847249926
 20
-134.68398803766004
 10
160.81393264905392
 20
-134.73645920579824
 10
161.0631747121226
 20
-134.7766446108789
 10
161.31410043027478
 20
-134.80444496862816
 10
161.56609498692498
 20
-134.81979185306713
 10
161.81854061901845
 20
-134.8226482549953
 10
162.07081812174695
 20
-134.8130076016058
 10
162.32230885940822
 20
-134.79089263190414
 10
162.57239649662137
 20
-134.75635747658743
 10
162.82046839720655
 20
-134.70948738703564
 10
163.06591701012815
 20
-134.65039816123527
 10
163.30814125543785
 20
-134.57923556970286
 10
163.5465479102178
 20
-134.49617478140834
 10
163.7805529945239
 20
-134.40141978969874
 10
164.00958315732856
 20
-134.29520283822157
 10
164.23307706246422
 20
-134.17778384684843
 10
164.45048677456631
 20
-134.0494498375984
 10
164.66127914501635
 20
-133.9105143605617
 10
164.86493719788518
 20
-133.76131691982312
 10
165.06096151587604
 20
-133.60222239938548
 10
165.24887162626771
 20
-133.4336204890933
 10
165.428207350496
 20
-133.25592507240881
 10
165.5985289275373
 20
-133.06957214403786
 10
165.75941812093777
 20
-132.87501803172015
 10
165.9104807002572
 20
-132.6727395397454
 10
166.05134713435314
 20
-132.46323267419822
 10
166.18167316545757
 20
-132.24701125701492
 10
166.30114038325323
 20
-132.02460554004043
 10
166.40945679895023
 20
-131.79656081908502
 10
166.5063574193625
 20
-131.5634360479812
 10
166.59160482098423
 20
-131.32580245264072
 10
166.66498972406637
 20
-131.08424214511103
 10
166.7263315666932
 20
-130.8393467376325
 10
166.7754790788587
 20
-130.59171595669505
 10
166.81231085654312
 20
-130.34195625709503
 10
166.83673593578936
 20
-130.09067943599212
 10
166.84668299960725
 20
-129.90701386651818
 10
166.85000000000005
 20
-129.7231088534613
  0
LWPOLYLINE
  5
12A
330
17
100
AcDbEntity
  8
GIZLI
100
AcDbPolyline
 90
65
 70
0
 10
166.85000000000005
 20
-129.7231088534613
 10
166.84375095689128
 20
-129.4707244720251
 10
166.82501834854125
 20
-129.2189590821003
 10
166.79384775825577
 20
-128.96842978409674
 10
166.75031604586775
 20
-128.71975035546473
 10
166.69453077366092
 20
-128.4735298647519
 10
166.6266296322931
 20
-128.23037128566006
 10
166.54677986671996
 20
-127.99087011110207
 10
166.4551777021184
 20
-127.75561296725857
 10
166.35204776981007
 20
-127.52517622763493
 10
166.2376425331849
 20
-127.30012462711802
 10
166.11224171362463
 20
-127.0810098760331
 10
165.97615171642633
 20
-126.8683692742006
 10
165.82970505672586
 20
-126.66272432499305
 10
165.67325978542144
 20
-126.46457934939181
 10
165.50719891509715
 20
-126.274420100044
 10
165.33192984455812
 20
-126.09271237668555
 10
165.14788291822555
 20
-125.9199013987803
 10
164.9555088651307
 20
-125.75641159532853
 10
164.75527903767215
 20
-125.6026438028006
 10
164.54768436628464
 20
-125.4589743142132
 10
164.3332339734959
 20
-125.32575430505295
 10
164.11245378798358
 20
-125.20330925919991
 10
163.88588515863196
 20
-125.09193839485101
 10
163.65408346858908
 20
-124.99191409044364
 10
163.41761674932334
 20
-124.90348131057917
 10
163.17706429468055
 20
-124.82685703194637
 10
162.93301527494066
 20
-124.76222966924509
 10
162.68606735087482
 20
-124.70975850110958
 10
162.436825287802
 20
-124.66957309603217
 10
162.1858995696461
 20
-124.64177273828665
 10
161.9339050129926
 20
-124.62642585385191
 10
161.68145938089623
 20
-124.62356945192835
 10
161.4291818781651
 20
-124.63321010532272
 10
161.1776911405017
 20
-124.65532507502938
 10
160.92760350328697
 20
-124.68986023035119
 10
160.67953160270082
 20
-124.73673031990805
 10
160.4340829897789
 20
-124.7958195457134
 10
160.1918587444694
 20
-124.86698213725072
 10
159.95345208969024
 20
-124.95004292555001
 10
159.7194470053855
 20
-125.04479791726426
 10
159.49041684258256
 20
-125.15101486874593
 10
159.26692293744898
 20
-125.26843386012345
 10
159.04951322534927
 20
-125.3967678693777
 10
158.83872085490182
 20
-125.53570334641852
 10
158.63506280203575
 20
-125.6849007871611
 10
158.43903848404776
 20
-125.84399530760263
 10
158.2511283736591
 20
-126.0125972178986
 10
158.07179264943397
 20
-126.19029263458675
 10
157.90147107239602
 20
-126.37664556296127
 10
157.740581878999
 20
-126.57119967528246
 10
157.58951929968322
 20
-126.77347816726068
 10
157.44865286559104
 20
-126.98298503281131
 10
157.3183268344906
 20
-127.19920644999806
 10
157.198859616699
 20
-127.42161216697602
 10
157.09054320100626
 20
-127.64965688793484
 10
156.99364258059842
 20
-127.88278165904198
 10
156.90839517898132
 20
-128.1204152543858
 10
156.83501027590395
 20
-128.36197556191865
 10
156.77366843328213
 20
-128.60687096940023
 10
156.72452092112184
 20
-128.8545017503406
 10
156.68768914344284
 20
-129.10426144994332
 10
156.6632640642022
 20
-129.35553827104872
 10
156.65331700039073
 20
-129.53920384046364
 10
156.65000000000006
 20
-129.7231088534613
  0
LWPOLYLINE
  5
12B
330
17
100
AcDbEntity
  8
GIZLI
100
AcDbPolyline
 90
65
 70
0
 10
156.65000000000006
 20
-99.7231088534613
 10
156.65624904310883
 20
-99.97549323489739
 10
156.67498165145884
 20
-100.22725862482211
 10
156.70615224174432
 20
-100.47778792282563
 10
156.74968395413225
 20
-100.72646735145756
 10
156.80546922633894
 20
-100.97268784217019
 10
156.8733703677065
 20
-101.2158464212617
 10
156.95322013327925
 20
-101.45534759581919
 10
157.04482229788022
 20
-101.69060473966196
 10
157.14795223018774
 20
-101.92104147928464
 10
157.26235746681186
 20
-102.1460930798003
 10
157.3877582863708
 20
-102.36520783088372
 10
157.52384828356747
 20
-102.57784843271443
 10
157.670294943266
 20
-102.78349338192002
 10
157.82674021456816
 20
-102.98163835751916
 10
157.9928010848899
 20
-103.17179760686483
 10
158.1680701554261
 20
-103.35350533022122
 10
158.35211708175555
 20
-103.52631630812468
 10
158.54449113484694
 20
-103.68980611157485
 10
158.74472096230159
 20
-103.84357390410149
 10
158.95231563368478
 20
-103.98724339268784
 10
159.1667660264688
 20
-104.12046340184739
 10
159.38754621197614
 20
-104.24290844770009
 10
159.61411484132253
 20
-104.35427931204907
 10
159.8459165313601
 20
-104.45430361645697
 10
160.08238325062058
 20
-104.54273639632247
 10
160.32293570525826
 20
-104.6193606749568
 10
160.56698472499326
 20
-104.6839880376602
 10
160.81393264905458
 20
-104.73645920579835
 10
161.06317471212327
 20
-104.776644610879
 10
161.31410043027552
 20
-104.80444496862823
 10
161.56609498692575
 20
-104.81979185306716
 10
161.81854061901922
 20
-104.82264825499529
 10
162.07081812174772
 20
-104.81300760160575
 10
162.32230885940902
 20
-104.79089263190406
 10
162.5723964966222
 20
-104.75635747658728
 10
162.82046839720738
 20
-104.70948738703545
 10
163.065917010129
 20
-104.65039816123505
 10
163.3081412554387
 20
-104.57923556970258
 10
163.5465479102187
 20
-104.496174781408
 10
163.78055299452475
 20
-104.40141978969834
 10
164.00958315732942
 20
-104.29520283822112
 10
164.2330770624651
 20
-104.17778384684792
 10
164.45048677456717
 20
-104.04944983759783
 10
164.66127914501718
 20
-103.91051436056108
 10
164.864937197886
 20
-103.76131691982243
 10
165.06096151587687
 20
-103.60222239938474
 10
165.24887162626854
 20
-103.4336204890925
 10
165.42820735049682
 20
-103.25592507240796
 10
165.59852892753807
 20
-103.06957214403694
 10
165.75941812093853
 20
-102.87501803171918
 10
165.91048070025792
 20
-102.67273953974437
 10
166.05134713435385
 20
-102.46323267419713
 10
166.18167316545822
 20
-102.24701125701378
 10
166.30114038325382
 20
-102.02460554003922
 10
166.4094567989508
 20
-101.79656081908375
 10
166.506357419363
 20
-101.56343604797993
 10
166.59160482098468
 20
-101.32580245263938
 10
166.66498972406677
 20
-101.08424214510964
 10
166.72633156669355
 20
-100.83934673763108
 10
166.77547907885898
 20
-100.59171595669358
 10
166.81231085654332
 20
-100.34195625709353
 10
166.83673593578948
 20
-100.09067943599058
 10
166.84668299960728
 20
-99.90701386651742
 10
166.85000000000005
 20
-99.7231088534613
  0
LWPOLYLINE
  5
12C
330
17
100
AcDbEntity
  8
GIZLI
100
AcDbPolyline
 90
65
 70
0
 10
166.85000000000005
 20
-99.7231088534613
 10
166.84375095689128
 20
-99.47072447202513
 10
166.82501834854125
 20
-99.21895908210035
 10
166.79384775825577
 20
-98.9684297840968
 10
166.75031604586778
 20
-98.71975035546481
 10
166.69453077366092
 20
-98.473529864752
 10
166.62662963229312
 20
-98.2303712856602
 10
166.54677986672
 20
-97.99087011110223
 10
166.45517770211845
 20
-97.75561296725874
 10
166.35204776981013
 20
-97.52517622763511
 10
166.23764253318498
 20
-97.30012462711822
 10
166.11224171362474
 20
-97.0810098760333
 10
165.97615171642644
 20
-96.86836927420083
 10
165.829705056726
 20
-96.66272432499329
 10
165.6732597854216
 20
-96.46457934939207
 10
165.50719891509735
 20
-96.27442010004424
 10
165.33192984455835
 20
-96.0927123766858
 10
165.1478829182258
 20
-95.91990139878055
 10
164.95550886513098
 20
-95.75641159532879
 10
164.75527903767247
 20
-95.60264380280084
 10
164.54768436628498
 20
-95.45897431421344
 10
164.33323397349628
 20
-95.3257543050532
 10
164.11245378798398
 20
-95.20330925920014
 10
163.88588515863242
 20
-95.09193839485121
 10
163.65408346858956
 20
-94.99191409044384
 10
163.41761674932386
 20
-94.90348131057934
 10
163.17706429468106
 20
-94.82685703194653
 10
162.93301527494123
 20
-94.76222966924522
 10
162.6860673508754
 20
-94.70975850110969
 10
162.4368252878026
 20
-94.66957309603225
 10
162.18589956964672
 20
-94.6417727382867
 10
161.93390501299325
 20
-94.62642585385194
 10
161.68145938089688
 20
-94.62356945192835
 10
161.42918187816582
 20
-94.63321010532268
 10
161.17769114050242
 20
-94.6553250750293
 10
160.9276035032877
 20
-94.68986023035106
 10
160.67953160270156
 20
-94.73673031990788
 10
160.43408298977965
 20
-94.79581954571319
 10
160.1918587444702
 20
-94.86698213725046
 10
159.953452089691
 20
-94.95004292554971
 10
159.7194470053863
 20
-95.0447979172639
 10
159.49041684258336
 20
-95.15101486874553
 10
159.26692293744978
 20
-95.268433860123
 10
159.04951322535007
 20
-95.3967678693772
 10
158.83872085490262
 20
-95.53570334641796
 10
158.63506280203651
 20
-95.6849007871605
 10
158.43903848404852
 20
-95.84399530760197
 10
158.2511283736598
 20
-96.01259721789788
 10
158.07179264943468
 20
-96.19029263458597
 10
157.9014710723967
 20
-96.37664556296043
 10
157.74058187899968
 20
-96.57119967528158
 10
157.58951929968384
 20
-96.77347816725975
 10
157.44865286559164
 20
-96.98298503281033
 10
157.31832683449113
 20
-97.19920644999704
 10
157.19885961669954
 20
-97.42161216697494
 10
157.09054320100674
 20
-97.6496568879337
 10
156.99364258059884
 20
-97.88278165904082
 10
156.9083951789817
 20
-98.12041525438457
 10
156.8350102759043
 20
-98.3619755619174
 10
156.7736684332824
 20
-98.60687096939895
 10
156.72452092112204
 20
-98.85450175033927
 10
156.68768914344298
 20
-99.10426144994196
 10
156.6632640642023
 20
-99.35553827104734
 10
156.65331700039076
 20
-99.53920384046293
 10
156.65000000000006
 20
-99.7231088534613
  0
LWPOLYLINE
  5
12D
330
17
100
AcDbEntity
  8
GIZLI
100
AcDbPolyline
 90
65
 70
0
 10
8.150000000000041
 20
-99.7231088534613
 10
8.156249043108822
 20
-99.9754932348975
 10
8.174981651458836
 20
-100.22725862482228
 10
8.206152241744302
 20
-100.47778792282581
 10
8.24968395413224
 20
-100.72646735145773
 10
8.305469226338952
 20
-100.97268784217036
 10
8.373370367706508
 20
-101.21584642126183
 10
8.453220133279236
 20
-101.45534759581929
 10
8.544822297880213
 20
-101.69060473966204
 10
8.647952230187745
 20
-101.92104147928468
 10
8.762357466811858
 20
-102.14609307980032
 10
8.887758286370788
 20
-102.36520783088372
 10
9.023848283567462
 20
-102.57784843271443
 10
9.17029494326599
 20
-102.78349338192002
 10
9.326740214568153
 20
-102.98163835751916
 10
9.492801084889884
 20
-103.17179760686483
 10
9.668070155426092
 20
-103.35350533022122
 10
9.852117081755543
 20
-103.52631630812468
 10
10.044491134846911
 20
-103.68980611157485
 10
10.244720962301557
 20
-103.84357390410149
 10
10.452315633684746
 20
-103.98724339268786
 10
10.666766026468778
 20
-104.12046340184739
 10
10.887546211976117
 20
-104.2429084477001
 10
11.114114841322506
 20
-104.3542793120491
 10
11.345916531360094
 20
-104.454303616457
 10
11.582383250620563
 20
-104.54273639632254
 10
11.822935705258244
 20
-104.6193606749569
 10
12.066984724993246
 20
-104.68398803766033
 10
12.313932649054577
 20
-104.73645920579852
 10
12.56317471212327
 20
-104.77664461087917
 10
12.814100430275507
 20
-104.80444496862845
 10
13.066094986925737
 20
-104.81979185306739
 10
13.318540619019213
 20
-104.82264825499551
 10
13.570818121747742
 20
-104.81300760160596
 10
13.82230885940904
 20
-104.79089263190426
 10
14.072396496622204
 20
-104.75635747658745
 10
14.320468397207403
 20
-104.70948738703558
 10
14.565917010129002
 20
-104.65039816123516
 10
14.808141255438711
 20
-104.57923556970266
 10
15.046547910218706
 20
-104.49617478140806
 10
15.280552994524776
 20
-104.40141978969838
 10
15.509583157329441
 20
-104.29520283822114
 10
15.733077062465107
 20
-104.17778384684792
 10
15.95048677456718
 20
-104.04944983759785
 10
16.16127914501721
 20
-103.91051436056108
 10
16.364937197886032
 20
-103.76131691982243
 10
16.560961515876883
 20
-103.60222239938474
 10
16.74887162626855
 20
-103.4336204890925
 10
16.92820735049679
 20
-103.25592507240796
 10
17.098528927538048
 20
-103.06957214403694
 10
17.25941812093851
 20
-102.87501803171918
 10
17.4104807002579
 20
-102.67273953974437
 10
17.55134713435381
 20
-102.46323267419714
 10
17.68167316545819
 20
-102.24701125701381
 10
17.80114038325381
 20
-102.02460554003926
 10
17.90945679895077
 20
-101.79656081908381
 10
18.00635741936298
 20
-101.56343604798002
 10
18.091604820984646
 20
-101.3258024526395
 10
18.16498972406674
 20
-101.08424214510978
 10
18.226331566693506
 20
-100.83934673763125
 10
18.275479078858943
 20
-100.59171595669376
 10
18.312310856543277
 20
-100.34195625709371
 10
18.336735935789456
 20
-100.09067943599072
 10
18.346682999607253
 20
-99.9070138665175
 10
18.35000000000003
 20
-99.7231088534613
  0
LWPOLYLINE
  5
12E
330
17
100
AcDbEntity
  8
GIZLI
100
AcDbPolyline
 90
65
 70
0
 10
18.35000000000003
 20
-99.7231088534613
 10
18.343750956891252
 20
-99.47072447202522
 10
18.32501834854124
 20
-99.2189590821005
 10
18.293847758255747
 20
-98.96842978409695
 10
18.25031604586774
 20
-98.71975035546494
 10
18.194530773660887
 20
-98.4735298647521
 10
18.12662963229308
 20
-98.23037128566025
 10
18.04677986671996
 20
-97.99087011110224
 10
17.9551777021184
 20
-97.75561296725873
 10
17.852047769810078
 20
-97.52517622763506
 10
17.737642533184918
 20
-97.30012462711815
 10
17.612241713624666
 20
-97.08100987603322
 10
17.47615171642637
 20
-96.86836927420073
 10
17.329705056725906
 20
-96.66272432499318
 10
17.173259785421497
 20
-96.46457934939194
 10
17.007198915097216
 20
-96.27442010004413
 10
16.83192984455819
 20
-96.09271237668568
 10
16.647882918225637
 20
-95.91990139878044
 10
16.4555088651308
 20
-95.75641159532867
 10
16.25527903767227
 20
-95.60264380280073
 10
16.047684366284784
 20
-95.45897431421332
 10
15.833233973496073
 20
-95.3257543050531
 10
15.612453787983751
 20
-95.20330925920004
 10
15.385885158632174
 20
-95.09193839485116
 10
15.154083468589304
 20
-94.9919140904438
 10
14.91761674932358
 20
-94.90348131057932
 10
14.67706429468079
 20
-94.82685703194656
 10
14.433015274940933
 20
-94.76222966924529
 10
14.186067350875092
 20
-94.7097585011098
 10
13.936825287802296
 20
-94.6695730960324
 10
13.685899569646397
 20
-94.64177273828689
 10
13.433905012992922
 20
-94.62642585385214
 10
13.181459380896552
 20
-94.62356945192857
 10
12.929181878165465
 20
-94.63321010532292
 10
12.677691140502064
 20
-94.65532507502954
 10
12.427603503287347
 20
-94.68986023035129
 10
12.179531602701198
 20
-94.73673031990808
 10
11.934082989779263
 20
-94.79581954571339
 10
11.691858744469815
 20
-94.86698213725066
 10
11.453452089690638
 20
-94.95004292554991
 10
11.219447005385884
 20
-95.0447979172641
 10
10.990416842582958
 20
-95.15101486874573
 10
10.766922937449385
 20
-95.26843386012321
 10
10.549513225349681
 20
-95.39676786937744
 10
10.338720854902228
 20
-95.53570334641822
 10
10.13506280203614
 20
-95.68490078716077
 10
9.939038484048147
 20
-95.84399530760226
 10
9.751128373659455
 20
-96.0125972178982
 10
9.571792649434332
 20
-96.19029263458634
 10
9.40147107239636
 20
-96.37664556296082
 10
9.24058187899934
 20
-96.57119967528199
 10
9.089519299683538
 20
-96.77347816726018
 10
8.94865286559136
 20
-96.9829850328108
 10
8.818326834490861
 20
-97.19920644999752
 10
8.69885961669927
 20
-97.42161216697545
 10
8.590543201006495
 20
-97.64965688793428
 10
8.493642580598635
 20
-97.88278165904143
 10
8.408395178981499
 20
-98.12041525438524
 10
8.335010275904116
 20
-98.36197556191811
 10
8.273668433282252
 20
-98.60687096939971
 10
8.22452092112192
 20
-98.85450175034006
 10
8.187689143442896
 20
-99.10426144994275
 10
8.163264064202227
 20
-99.35553827104812
 10
8.153317000390722
 20
-99.53920384046334
 10
8.150000000000041
 20
-99.7231088534613
  0
LWPOLYLINE
  5
12F
330
17
100
AcDbEntity
  8
GIZLI
100
AcDbPolyline
 90
65
 70
0
 10
8.15000000000007
 20
-129.7231088534613
 10
8.156249043108847
 20
-129.97549323489747
 10
8.174981651458854
 20
-130.22725862482224
 10
8.206152241744316
 20
-130.47778792282577
 10
8.24968395413225
 20
-130.72646735145767
 10
8.305469226338953
 20
-130.97268784217027
 10
8.373370367706501
 20
-131.21584642126174
 10
8.453220133279222
 20
-131.4553475958192
 10
8.544822297880192
 20
-131.69060473966192
 10
8.647952230187713
 20
-131.92104147928455
 10
8.762357466811816
 20
-132.1460930798002
 10
8.887758286370733
 20
-132.36520783088358
 10
9.023848283567393
 20
-132.5778484327143
 10
9.170294943265906
 20
-132.78349338191987
 10
9.326740214568053
 20
-132.981638357519
 10
9.492801084889768
 20
-133.1717976068647
 10
9.668070155425958
 20
-133.35350533022108
 10
9.85211708175539
 20
-133.5263163081245
 10
10.04449113484674
 20
-133.6898061115747
 10
10.244720962301368
 20
-133.84357390410133
 10
10.452315633684536
 20
-133.9872433926877
 10
10.666766026468549
 20
-134.12046340184725
 10
10.887546211975868
 20
-134.24290844769996
 10
11.114114841322237
 20
-134.35427931204896
 10
11.345916531359807
 20
-134.45430361645688
 10
11.582383250620257
 20
-134.54273639632243
 10
11.822935705257917
 20
-134.6193606749568
 10
12.066984724992901
 20
-134.68398803766024
 10
12.313932649054214
 20
-134.73645920579844
 10
12.56317471212289
 20
-134.77664461087912
 10
12.814100430275111
 20
-134.80444496862842
 10
13.066094986925325
 20
-134.8197918530674
 10
13.318540619018787
 20
-134.82264825499553
 10
13.570818121747301
 20
-134.813007601606
 10
13.822308859408588
 20
-134.7908926319043
 10
14.072396496621742
 20
-134.75635747658754
 10
14.32046839720693
 20
-134.7094873870357
 10
14.565917010128523
 20
-134.6503981612353
 10
14.808141255438224
 20
-134.5792355697028
 10
15.046547910218216
 20
-134.49617478140826
 10
15.280552994524282
 20
-134.4014197896986
 10
15.509583157328947
 20
-134.2952028382214
 10
15.733077062464615
 20
-134.17778384684823
 10
15.95048677456669
 20
-134.04944983759816
 10
16.161279145016728
 20
-133.91051436056145
 10
16.364937197885553
 20
-133.76131691982283
 10
16.560961515876414
 20
-133.60222239938517
 10
16.74887162626809
 20
-133.43362048909296
 10
16.928207350496347
 20
-133.25592507240844
 10
17.09852892753762
 20
-133.06957214403747
 10
17.2594181209381
 20
-132.87501803171972
 10
17.41048070025751
 20
-132.67273953974495
 10
17.551347134353442
 20
-132.46323267419777
 10
17.68167316545784
 20
-132.24701125701446
 10
17.801140383253486
 20
-132.02460554003994
 10
17.909456798950472
 20
-131.79656081908453
 10
18.006357419362715
 20
-131.56343604798076
 10
18.09160482098441
 20
-131.32580245264026
 10
18.164989724066537
 20
-131.08424214511058
 10
18.226331566693343
 20
-130.83934673763207
 10
18.27547907885882
 20
-130.5917159566946
 10
18.312310856543192
 20
-130.34195625709458
 10
18.336735935789417
 20
-130.0906794359916
 10
18.346682999607264
 20
-129.90701386651796
 10
18.35000000000006
 20
-129.7231088534613
  0
LWPOLYLINE
  5
130
330
17
100
AcDbEntity
  8
GIZLI
100
AcDbPolyline
 90
65
 70
0
 10
18.35000000000006
 20
-129.7231088534613
 10
18.34375095689128
 20
-129.4707244720252
 10
18.325018348541267
 20
-129.2189590821005
 10
18.293847758255776
 20
-128.96842978409697
 10
18.25031604586777
 20
-128.71975035546495
 10
18.194530773660915
 20
-128.4735298647521
 10
18.12662963229311
 20
-128.23037128566025
 10
18.046779866719987
 20
-127.99087011110224
 10
17.95517770211843
 20
-127.75561296725873
 10
17.852047769810106
 20
-127.52517622763507
 10
17.737642533184946
 20
-127.30012462711815
 10
17.612241713624694
 20
-127.08100987603322
 10
17.476151716426397
 20
-126.86836927420073
 10
17.329705056725935
 20
-126.66272432499318
 10
17.173259785421525
 20
-126.46457934939194
 10
17.007198915097245
 20
-126.27442010004413
 10
16.831929844558218
 20
-126.09271237668568
 10
16.647882918225665
 20
-125.91990139878044
 10
16.455508865130827
 20
-125.75641159532867
 10
16.2552790376723
 20
-125.60264380280073
 10
16.047684366284813
 20
-125.45897431421332
 10
15.833233973496101
 20
-125.3257543050531
 10
15.61245378798378
 20
-125.20330925920004
 10
15.385885158632203
 20
-125.09193839485116
 10
15.154083468589333
 20
-124.9919140904438
 10
14.917616749323608
 20
-124.90348131057932
 10
14.677064294680818
 20
-124.82685703194656
 10
14.433015274940962
 20
-124.76222966924529
 10
14.18606735087512
 20
-124.7097585011098
 10
13.936825287802325
 20
-124.6695730960324
 10
13.685899569646425
 20
-124.64177273828689
 10
13.43390501299295
 20
-124.62642585385214
 10
13.18145938089658
 20
-124.62356945192857
 10
12.929181878165494
 20
-124.63321010532292
 10
12.677691140502093
 20
-124.65532507502952
 10
12.427603503287376
 20
-124.68986023035129
 10
12.179531602701227
 20
-124.73673031990809
 10
11.934082989779291
 20
-124.79581954571339
 10
11.691858744469844
 20
-124.86698213725066
 10
11.453452089690666
 20
-124.95004292554991
 10
11.219447005385913
 20
-125.0447979172641
 10
10.990416842582986
 20
-125.15101486874573
 10
10.766922937449413
 20
-125.26843386012321
 10
10.54951322534971
 20
-125.39676786937743
 10
10.338720854902256
 20
-125.53570334641822
 10
10.135062802036169
 20
-125.68490078716077
 10
9.939038484048176
 20
-125.84399530760227
 10
9.751128373659483
 20
-126.0125972178982
 10
9.57179264943436
 20
-126.19029263458634
 10
9.401471072396388
 20
-126.37664556296082
 10
9.240581878999368
 20
-126.57119967528199
 10
9.089519299683566
 20
-126.77347816726018
 10
8.948652865591388
 20
-126.9829850328108
 10
8.81832683449089
 20
-127.19920644999752
 10
8.698859616699298
 20
-127.42161216697546
 10
8.590543201006524
 20
-127.64965688793428
 10
8.493642580598664
 20
-127.88278165904143
 10
8.408395178981527
 20
-128.12041525438525
 10
8.335010275904144
 20
-128.36197556191811
 10
8.27366843328228
 20
-128.60687096939972
 10
8.224520921121949
 20
-128.85450175034006
 10
8.187689143442924
 20
-129.10426144994275
 10
8.163264064202256
 20
-129.35553827104812
 10
8.15331700039075
 20
-129.53920384046336
 10
8.15000000000007
 20
-129.7231088534613
  0
LWPOLYLINE
  5
131
330
17
100
AcDbEntity
  8
GIZLI
100
AcDbPolyline
 90
79
 70
0
 10
160.95000000000002
 20
-54.7231088534613
 10
160.9550617062861
 20
-54.92552439565708
 10
160.96826336184319
 20
-55.10727984694701
 10
160.98712622474557
 20
-55.270204793312516
 10
161.01257108463497
 20
-55.432232165305294
 10
161.04455586510542
 20
-55.59309635150038
 10
161.08302768368333
 20
-55.752533688783146
 10
161.12792301885176
 20
-55.910282865582076
 10
161.17916787707512
 20
-56.066085325101426
 10
161.2366779598234
 20
-56.21968566855409
 10
161.30035883059674
 20
-56.37083205839424
 10
161.3701060819498
 20
-56.51927662155015
 10
161.44580550251632
 20
-56.66477585265693
 10
161.52733324403343
 20
-56.80709101728925
 10
161.61455598836625
 20
-56.945988555194106
 10
161.70733111453222
 20
-57.08124048352357
 10
161.8055068657256
 20
-57.21262480006756
 10
161.90892251634193
 20
-57.33992588648654
 10
162.01740853900242
 20
-57.46293491154432
 10
162.13078677157856
 20
-57.58145023434078
 10
162.24887080257608
 20
-57.69527760824732
 10
162.3714670539511
 20
-57.804229909156206
 10
162.4983745794459
 20
-57.90812817413453
 10
162.62938520469376
 20
-58.00680205931829
 10
162.76428393042704
 20
-58.100090006961466
 10
162.9028493357099
 20
-58.18783941246046
 10
163.044853981171
 20
-58.269906791378645
 10
163.19006481223641
 20
-58.34615794647067
 10
163.33824356236212
 20
-58.41646813470706
 10
163.48914715626697
 20
-58.48072223429854
 10
163.6425281131652
 20
-58.53881491172055
 10
163.7981349499994
 20
-58.590650788737705
 10
163.95571258467305
 20
-58.63614460942817
 10
164.11500273928337
 20
-58.67522140720823
 10
164.2757443433541
 20
-58.70781667185662
 10
164.43767393706804
 20
-58.73387651653903
 10
164.6005260745
 20
-58.75335784483258
 10
164.76403372684948
 20
-58.76622851775021
 10
164.92792868567332
 20
-58.77246752076516
 10
165.09194196773143
 20
-58.772065071041496
 10
165.25580430702797
 20
-58.76502177096735
 10
165.41924679192624
 20
-58.75134874942535
 10
165.58200133544977
 20
-58.73106837777537
 10
165.743801079124
 20
-58.7042141315995
 10
165.90438079620907
 20
-58.67083042367743
 10
166.06347729493237
 20
-58.6309724369621
 10
166.2208298217215
 20
-58.584705957555215
 10
166.3761804644369
 20
-58.5321072076828
 10
166.52927455560464
 20
-58.473262678670736
 10
166.67986107564903
 20
-58.408268963920335
 10
166.82769305612555
 20
-58.337232591883875
 10
166.97252798295352
 20
-58.26026985904009
 10
167.11412819964875
 20
-58.177506662869874
 10
167.25226131055646
 20
-58.08907833483164
 10
167.3867005840838
 20
-57.995129473337
 10
167.5172253559328
 20
-57.89581377672627
 10
167.64362143233296
 20
-57.791293876244026
 10
167.76568149327414
 20
-57.68174116901464
 10
167.8832054946122
 20
-57.56733564987253
 10
167.99600071267574
 20
-57.448265342810785
 10
168.10388167891261
 20
-57.324725369838674
 10
168.2066712685657
 20
-57.19691826457209
 10
168.3042010118659
 20
-57.0650537021037
 10
168.39631126105655
 20
-56.92934809577012
 10
168.48285135741793
 20
-56.79002419391921
 10
168.56367979829176
 20
-56.647310676677336
 10
168.6386644041055
 20
-56.50144175271657
 10
168.70768248539696
 20
-56.352656756022014
 10
168.77062100983864
 20
-56.20119974265897
 10
168.82737676926226
 20
-56.047319087540245
 10
168.87785654668315
 20
-55.891267081193405
 10
168.9219772833247
 20
-55.733299526528015
 10
168.9596662456429
 20
-55.57367533560286
 10
168.9908611923506
 20
-55.412656126393244
 10
169.01551054144218
 20
-55.25050581955824
 10
169.0335735372179
 20
-55.08749023520791
 10
169.04502041730825
 20
-54.923876689670536
 10
169.0487549414606
 20
-54.82352367355551
 10
169.05
 20
-54.7231088534613
  0
LWPOLYLINE
  5
132
330
17
100
AcDbEntity
  8
GIZLI
100
AcDbPolyline
 90
79
 70
0
 10
169.05
 20
-54.7231088534613
 10
169.04493829371393
 20
-54.520693311277654
 10
169.03173663815684
 20
-54.33893785999348
 10
169.01287377525446
 20
-54.176012913630075
 10
168.98742891536506
 20
-54.01398554163728
 10
168.9554441348946
 20
-53.853121355440706
 10
168.9169723163167
 20
-53.693684018155466
 10
168.87207698114827
 20
-53.535934841353495
 10
168.8208321229249
 20
-53.38013238183085
 10
168.76332204017663
 20
-53.226532038374884
 10
168.6996411694033
 20
-53.075385648531565
 10
168.62989391805021
 20
-52.926941085372746
 10
168.5541944974837
 20
-52.781441854263406
 10
168.47266675596657
 20
-52.639126689628924
 10
168.38544401163375
 20
-52.500229151722365
 10
168.2926688854678
 20
-52.36497722339169
 10
168.1944931342744
 20
-52.233592906847065
 10
168.0910774836581
 20
-52.106291820428126
 10
167.98259146099758
 20
-51.983282795371224
 10
167.86921322842147
 20
-51.86476747257669
 10
167.7511291974239
 20
-51.75094009867321
 10
167.6285329460489
 20
-51.64198779776804
 10
167.5016254205541
 20
-51.538089532793464
 10
167.37061479530627
 20
-51.43941564761312
 10
167.2357160695731
 20
-51.3461276999727
 10
167.09715066429044
 20
-51.258378294475634
 10
166.95514601882962
 20
-51.17631091555849
 10
166.8099351877646
 20
-51.10005976046662
 10
166.66175643763947
 20
-51.02974957222962
 10
166.5108528437354
 20
-50.96549547263689
 10
166.35747188683814
 20
-50.907402795213144
 10
166.20186505000513
 20
-50.855566918193986
 10
166.0442874153329
 20
-50.81007309750143
 10
165.88499726072422
 20
-50.770996299719386
 10
165.7242556566554
 20
-50.73840103506926
 10
165.56232606294355
 20
-50.71234119038546
 10
165.39947392551386
 20
-50.69285986209091
 10
165.2359662731668
 20
-50.679989189172616
 10
165.07207131434555
 20
-50.67375018615718
 10
164.90805803229
 20
-50.67415263588033
 10
164.74419569299607
 20
-50.681195935953895
 10
164.58075320810045
 20
-50.694868957495416
 10
164.41799866457964
 20
-50.71514932914506
 10
164.25619892090816
 20
-50.74200357532078
 10
164.09561920382592
 20
-50.77538728324279
 10
163.9365227051054
 20
-50.81524526995804
 10
163.77917017831902
 20
-50.86151174936465
 10
163.6238195356062
 20
-50.91411049923646
 10
163.47072544444094
 20
-50.972955028247384
 10
163.32013892439875
 20
-51.03794874299595
 10
163.17230694392413
 20
-51.10898511502977
 10
163.02747201709772
 20
-51.18594784786994
 10
162.88587180040363
 20
-51.2687110440356
 10
162.74773868949669
 20
-51.3571393720683
 10
162.61329941596966
 20
-51.451088233556575
 10
162.48277464412052
 20
-51.5504039301603
 10
162.35637856771982
 20
-51.65492383063523
 10
162.23431850677773
 20
-51.76447653785745
 10
162.1167945054385
 20
-51.87888205699315
 10
162.00399928737357
 20
-51.99795236404971
 10
161.89611832113508
 20
-52.12149233701781
 10
161.7933287314801
 20
-52.249299442281426
 10
161.69579898817784
 20
-52.381164004747845
 10
161.60368873898489
 20
-52.51686961108038
 10
161.51714864262098
 20
-52.656193512931125
 10
161.43632020174448
 20
-52.79890703017372
 10
161.3613355959279
 20
-52.94477595413602
 10
161.29231751463345
 20
-53.09356095083287
 10
161.22937899018868
 20
-53.24501796419888
 10
161.17262323076193
 20
-53.39889861932106
 10
161.12214345333786
 20
-53.554950625671665
 10
161.07802271669314
 20
-53.712918180340864
 10
161.04033375437183
 20
-53.87254237126949
 10
161.00913880766106
 20
-54.03356158048179
 10
160.9844894585665
 20
-54.195711887318126
 10
160.96642646278795
 20
-54.35872747166779
 10
160.95497958269488
 20
-54.522341017201626
 10
160.95124505854022
 20
-54.62269403334268
 10
160.95000000000002
 20
-54.7231088534613
  0
LWPOLYLINE
  5
133
330
17
100
AcDbEntity
  8
GIZLI
100
AcDbPolyline
 90
79
 70
0
 10
5.950000000000011
 20
-54.7231088534613
 10
5.955061706286103
 20
-54.92552439565718
 10
5.96826336184317
 20
-55.107279846947165
 10
5.9871262247455705
 20
-55.2702047933127
 10
6.01257108463497
 20
-55.43223216530548
 10
6.0445558651054245
 20
-55.59309635150055
 10
6.083027683683309
 20
-55.7525336887833
 10
6.127923018851757
 20
-55.910282865582204
 10
6.179167877075115
 20
-56.06608532510154
 10
6.236677959823397
 20
-56.21968566855416
 10
6.3003588305967275
 20
-56.3708320583943
 10
6.370106081949796
 20
-56.51927662155019
 10
6.445805502516307
 20
-56.66477585265696
 10
6.52733324403343
 20
-56.80709101728927
 10
6.6145559883662495
 20
-56.945988555194106
 10
6.707331114532216
 20
-57.08124048352357
 10
6.805506865725592
 20
-57.21262480006756
 10
6.908922516341913
 20
-57.33992588648654
 10
7.017408539002424
 20
-57.46293491154432
 10
7.130786771578541
 20
-57.58145023434078
 10
7.248870802576091
 20
-57.69527760824732
 10
7.371467053951102
 20
-57.804229909156206
 10
7.498374579445908
 20
-57.908128174134546
 10
7.629385204693777
 20
-58.00680205931832
 10
7.764283930427051
 20
-58.10009000696151
 10
7.902849335709893
 20
-58.18783941246055
 10
8.044853981171013
 20
-58.26990679137876
 10
8.190064812236418
 20
-58.346157946470825
 10
8.33824356236214
 20
-58.41646813470726
 10
8.48914715626697
 20
-58.48072223429878
 10
8.642528113165211
 20
-58.538814911720834
 10
8.798134949999397
 20
-58.59065078873802
 10
8.955712584673044
 20
-58.63614460942854
 10
9.115002739283382
 20
-58.675221407208625
 10
9.27574434335409
 20
-58.70781667185703
 10
9.437673937068034
 20
-58.73387651653947
 10
9.600526074500014
 20
-58.75335784483302
 10
9.764033726849487
 20
-58.76622851775066
 10
9.927928685673312
 20
-58.772467520765616
 10
10.091941967731426
 20
-58.77206507104195
 10
10.255804307027963
 20
-58.765021770967806
 10
10.419246791926227
 20
-58.75134874942579
 10
10.582001335449766
 20
-58.73106837777581
 10
10.743801079124022
 20
-58.70421413159991
 10
10.904380796209075
 20
-58.67083042367781
 10
11.063477294932383
 20
-58.63097243696245
 10
11.220829821721523
 20
-58.58470595755553
 10
11.376180464436928
 20
-58.53210720768307
 10
11.529274555604633
 20
-58.47326267867098
 10
11.67986107564902
 20
-58.408268963920534
 10
11.82769305612555
 20
-58.33723259188402
 10
11.972527982953512
 20
-58.26026985904021
 10
12.114128199648757
 20
-58.177506662869945
 10
12.252261310556447
 20
-58.08907833483168
 10
12.386700584083792
 20
-57.99512947333703
 10
12.51722535593279
 20
-57.895813776726285
 10
12.64362143233297
 20
-57.79129387624404
 10
12.765681493274139
 20
-57.68174116901464
 10
12.883205494612216
 20
-57.56733564987253
 10
12.996000712675729
 20
-57.448265342810785
 10
13.103881678912611
 20
-57.324725369838674
 10
13.206671268565708
 20
-57.19691826457209
 10
13.3042010118659
 20
-57.0650537021037
 10
13.396311261056544
 20
-56.92934809577012
 10
13.482851357417937
 20
-56.79002419391922
 10
13.563679798291751
 20
-56.647310676677364
 10
13.638664404105493
 20
-56.501441752716616
 10
13.70768248539695
 20
-56.35265675602207
 10
13.770621009838642
 20
-56.20119974265904
 10
13.827376769262267
 20
-56.047319087540345
 10
13.877856546683157
 20
-55.89126708119353
 10
13.92197728332472
 20
-55.73329952652817
 10
13.959666245642897
 20
-55.57367533560303
 10
13.990861192350605
 20
-55.41265612639344
 10
14.015510541442193
 20
-55.25050581955843
 10
14.03357353721789
 20
-55.087490235208065
 10
14.045020417308251
 20
-54.92387668967065
 10
14.048754941460585
 20
-54.823523673555584
 10
14.050000000000004
 20
-54.7231088534613
  0
TEXT
  5
134
330
17
100
AcDbEntity
  8
YAZI
100
AcDbText
 10
0.0
 20
-157.1676035141884
 30
0.0
 40
5.055575955920349
  1
UST
 11
0.0
 21
-157.1676035141884
 31
0.0
100
AcDbText
  0
DIMENSION
  5
135
330
17
100
AcDbEntity
  8
OLCU
100
AcDbDimension
280
0
  2
*D3
  3
PF_MM
 10
0.0
 20
-160.27872717937015
 30
0.0
 11
87.50000000000004
 21
-156.97315828511455
 31
0.0
 70
32
 71
5
  1
<>
100
AcDbAlignedDimension
 13
0.0
 23
-144.72310885346138
 33
0.0
 14
175.00000000000009
 24
-144.72310885346138
 34
0.0
 50
0.0
100
AcDbRotatedDimension
  0
DIMENSION
  5
144
330
17
100
AcDbEntity
  8
OLCU
100
AcDbDimension
280
0
  2
*D4
  3
PF_MM
 10
-15.555618325908767
 20
-144.72310885346138
 30
0.0
 11
-18.861187220164382
 21
-94.72310885346131
 31
0.0
 70
32
 71
5
  1
<>
100
AcDbAlignedDimension
 13
0.0
 23
-144.72310885346138
 33
0.0
 14
0.0
 24
-44.72310885346124
 34
0.0
 50
90.0
100
AcDbRotatedDimension
  0
LWPOLYLINE
  5
153
330
17
100
AcDbEntity
  8
GORUNEN
100
AcDbPolyline
 90
2
 70
0
 10
309.7231088534613
 20
1.4211017345527877e-14
 10
319.7231088534613
 20
7.105589987926875e-15
  0
LWPOLYLINE
  5
154
330
17
100
AcDbEntity
  8
GORUNEN
100
AcDbPolyline
 90
2
 70
0
 10
224.72310885346133
 20
7.105589987926875e-15
 10
309.7231088534613
 20
7.105589987926875e-15
  0
LWPOLYLINE
  5
155
330
17
100
AcDbEntity
  8
GORUNEN
100
AcDbPolyline
 90
2
 70
0
 10
224.72310885346133
 20
1.4211017345527877e-14
 10
219.72310885346133
 20
7.105589987926875e-15
  0
LWPOLYLINE
  5
156
330
17
100
AcDbEntity
  8
GORUNEN
100
AcDbPolyline
 90
2
 70
0
 10
224.72310885346133
 20
5.000000000000014
 10
219.72310885346133
 20
5.000000000000007
  0
LWPOLYLINE
  5
157
330
17
100
AcDbEntity
  8
GORUNEN
100
AcDbPolyline
 90
2
 70
0
 10
224.72310885346133
 20
5.000000000000007
 10
309.7231088534613
 20
5.000000000000007
  0
LWPOLYLINE
  5
158
330
17
100
AcDbEntity
  8
GORUNEN
100
AcDbPolyline
 90
2
 70
0
 10
309.7231088534613
 20
5.000000000000014
 10
319.7231088534613
 20
5.000000000000007
  0
LWPOLYLINE
  5
159
330
17
100
AcDbEntity
  8
GORUNEN
100
AcDbPolyline
 90
2
 70
0
 10
219.72310885346133
 20
5.000000000000007
 10
219.72310885346133
 20
7.105589987926875e-15
  0
LWPOLYLINE
  5
15A
330
17
100
AcDbEntity
  8
GORUNEN
100
AcDbPolyline
 90
2
 70
0
 10
224.72310885346133
 20
5.000000000000014
 10
224.72310885346133
 20
1.4211017345527877e-14
  0
LWPOLYLINE
  5
15B
330
17
100
AcDbEntity
  8
GORUNEN
100
AcDbPolyline
 90
2
 70
0
 10
319.7231088534613
 20
7.105589987926875e-15
 10
319.7231088534613
 20
5.000000000000007
  0
LWPOLYLINE
  5
15C
330
17
100
AcDbEntity
  8
GIZLI
100
AcDbPolyline
 90
2
 70
0
 10
309.7231088534613
 20
5.000000000000007
 10
313.77310885346134
 20
5.000000000000007
  0
LWPOLYLINE
  5
15D
330
17
100
AcDbEntity
  8
GIZLI
100
AcDbPolyline
 90
2
 70
0
 10
313.77310885346134
 20
5.000000000000007
 10
309.7231088534613
 20
5.000000000000007
  0
LWPOLYLINE
  5
15E
330
17
100
AcDbEntity
  8
GIZLI
100
AcDbPolyline
 90
2
 70
0
 10
309.7231088534613
 20
7.105589987926875e-15
 10
313.77310885346134
 20
7.105589987926875e-15
  0
LWPOLYLINE
  5
15F
330
17
100
AcDbEntity
  8
GIZLI
100
AcDbPolyline
 90
2
 70
0
 10
313.77310885346134
 20
7.105589987926875e-15
 10
309.7231088534613
 20
7.105589987926875e-15
  0
LWPOLYLINE
  5
160
330
17
100
AcDbEntity
  8
GIZLI
100
AcDbPolyline
 90
2
 70
0
 10
297.7231088534613
 20
7.105589987926875e-15
 10
299.7231088534613
 20
1.4211017345527877e-14
  0
LWPOLYLINE
  5
161
330
17
100
AcDbEntity
  8
GIZLI
100
AcDbPolyline
 90
2
 70
0
 10
299.7231088534613
 20
7.105589987926875e-15
 10
297.7231088534613
 20
7.105589987926875e-15
  0
LWPOLYLINE
  5
162
330
17
100
AcDbEntity
  8
GIZLI
100
AcDbPolyline
 90
2
 70
0
 10
224.72310885346133
 20
1.6263032587282567e-19
 10
297.7231088534613
 20
1.6263032587282567e-19
  0
LWPOLYLINE
  5
163
330
17
100
AcDbEntity
  8
GIZLI
100
AcDbPolyline
 90
2
 70
0
 10
224.72310885346133
 20
7.105589987926875e-15
 10
219.72310885346133
 20
1.6263032587282567e-19
  0
LWPOLYLINE
  5
164
330
17
100
AcDbEntity
  8
GIZLI
100
AcDbPolyline
 90
2
 70
0
 10
219.72310885346133
 20
7.105589987926875e-15
 10
224.72310885346133
 20
1.4211017345527877e-14
  0
LWPOLYLINE
  5
165
330
17
100
AcDbEntity
  8
GIZLI
100
AcDbPolyline
 90
2
 70
0
 10
224.72310885346133
 20
7.105589987926875e-15
 10
309.7231088534613
 20
7.105589987926875e-15
  0
LWPOLYLINE
  5
166
330
17
100
AcDbEntity
  8
GIZLI
100
AcDbPolyline
 90
2
 70
0
 10
319.7231088534613
 20
7.105589987926875e-15
 10
309.7231088534613
 20
1.4211017345527877e-14
  0
LWPOLYLINE
  5
167
330
17
100
AcDbEntity
  8
GIZLI
100
AcDbPolyline
 90
2
 70
0
 10
219.72310885346133
 20
7.105589987926875e-15
 10
224.72310885346133
 20
1.4211017345527877e-14
  0
LWPOLYLINE
  5
168
330
17
100
AcDbEntity
  8
GIZLI
100
AcDbPolyline
 90
2
 70
0
 10
224.72310885346133
 20
7.105589987926875e-15
 10
297.7231088534613
 20
7.105589987926875e-15
  0
LWPOLYLINE
  5
169
330
17
100
AcDbEntity
  8
GIZLI
100
AcDbPolyline
 90
2
 70
0
 10
234.72310885346133
 20
1.4211017345527877e-14
 10
229.62310885346142
 20
7.105589987926875e-15
  0
LWPOLYLINE
  5
16A
330
17
100
AcDbEntity
  8
GIZLI
100
AcDbPolyline
 90
2
 70
0
 10
229.62310885346142
 20
7.105589987926875e-15
 10
234.72310885346133
 20
1.4211017345527877e-14
  0
LWPOLYLINE
  5
16B
330
17
100
AcDbEntity
  8
GIZLI
100
AcDbPolyline
 90
2
 70
0
 10
234.72310885346133
 20
1.4211017345527877e-14
 10
239.82310885346146
 20
7.105589987926875e-15
  0
LWPOLYLINE
  5
16C
330
17
100
AcDbEntity
  8
GIZLI
100
AcDbPolyline
 90
2
 70
0
 10
239.82310885346146
 20
7.105589987926875e-15
 10
234.72310885346133
 20
1.4211017345527877e-14
  0
LWPOLYLINE
  5
16D
330
17
100
AcDbEntity
  8
GIZLI
100
AcDbPolyline
 90
2
 70
0
 10
264.7231088534613
 20
7.105589987926875e-15
 10
259.6231088534614
 20
7.105589987926875e-15
  0
LWPOLYLINE
  5
16E
330
17
100
AcDbEntity
  8
GIZLI
100
AcDbPolyline
 90
2
 70
0
 10
259.6231088534614
 20
7.105589987926875e-15
 10
264.7231088534613
 20
7.105589987926875e-15
  0
LWPOLYLINE
  5
16F
330
17
100
AcDbEntity
  8
GIZLI
100
AcDbPolyline
 90
2
 70
0
 10
264.7231088534613
 20
7.105589987926875e-15
 10
269.82310885346146
 20
7.105589987926875e-15
  0
LWPOLYLINE
  5
170
330
17
100
AcDbEntity
  8
GIZLI
100
AcDbPolyline
 90
2
 70
0
 10
269.82310885346146
 20
7.105589987926875e-15
 10
264.7231088534613
 20
7.105589987926875e-15
  0
LWPOLYLINE
  5
171
330
17
100
AcDbEntity
  8
GIZLI
100
AcDbPolyline
 90
2
 70
0
 10
264.7231088534613
 20
1.6263032587282567e-19
 10
259.6231088534612
 20
1.6263032587282567e-19
  0
LWPOLYLINE
  5
172
330
17
100
AcDbEntity
  8
GIZLI
100
AcDbPolyline
 90
2
 70
0
 10
259.6231088534612
 20
1.6263032587282567e-19
 10
264.7231088534613
 20
7.105589987926875e-15
  0
LWPOLYLINE
  5
173
330
17
100
AcDbEntity
  8
GIZLI
100
AcDbPolyline
 90
2
 70
0
 10
264.7231088534613
 20
7.105589987926875e-15
 10
269.82310885346124
 20
1.6263032587282567e-19
  0
LWPOLYLINE
  5
174
330
17
100
AcDbEntity
  8
GIZLI
100
AcDbPolyline
 90
2
 70
0
 10
269.82310885346124
 20
1.6263032587282567e-19
 10
264.7231088534613
 20
1.6263032587282567e-19
  0
LWPOLYLINE
  5
175
330
17
100
AcDbEntity
  8
GIZLI
100
AcDbPolyline
 90
2
 70
0
 10
234.72310885346133
 20
7.105589987926875e-15
 10
229.6231088534612
 20
1.6263032587282567e-19
  0
LWPOLYLINE
  5
176
330
17
100
AcDbEntity
  8
GIZLI
100
AcDbPolyline
 90
2
 70
0
 10
229.6231088534612
 20
1.6263032587282567e-19
 10
234.72310885346133
 20
7.105589987926875e-15
  0
LWPOLYLINE
  5
177
330
17
100
AcDbEntity
  8
GIZLI
100
AcDbPolyline
 90
2
 70
0
 10
234.72310885346133
 20
7.105589987926875e-15
 10
239.82310885346124
 20
1.6263032587282567e-19
  0
LWPOLYLINE
  5
178
330
17
100
AcDbEntity
  8
GIZLI
100
AcDbPolyline
 90
2
 70
0
 10
239.82310885346124
 20
1.6263032587282567e-19
 10
234.72310885346133
 20
7.105589987926875e-15
  0
LWPOLYLINE
  5
179
330
17
100
AcDbEntity
  8
GIZLI
100
AcDbPolyline
 90
2
 70
0
 10
309.7231088534613
 20
1.4211017345527877e-14
 10
305.6731088534616
 20
7.105427357601002e-15
  0
LWPOLYLINE
  5
17A
330
17
100
AcDbEntity
  8
GIZLI
100
AcDbPolyline
 90
2
 70
0
 10
305.6731088534616
 20
7.105589987926875e-15
 10
309.7231088534613
 20
1.4211017345527877e-14
  0
LWPOLYLINE
  5
17B
330
17
100
AcDbEntity
  8
GIZLI
100
AcDbPolyline
 90
2
 70
0
 10
309.7231088534613
 20
1.4211017345527877e-14
 10
313.7731088534615
 20
7.105589987926875e-15
  0
LWPOLYLINE
  5
17C
330
17
100
AcDbEntity
  8
GIZLI
100
AcDbPolyline
 90
2
 70
0
 10
313.7731088534615
 20
7.105589987926875e-15
 10
309.7231088534613
 20
1.4211017345527877e-14
  0
LWPOLYLINE
  5
17D
330
17
100
AcDbEntity
  8
GIZLI
100
AcDbPolyline
 90
2
 70
0
 10
309.7231088534613
 20
1.4211017345527877e-14
 10
305.67310885346114
 20
0.0
  0
LWPOLYLINE
  5
17E
330
17
100
AcDbEntity
  8
GIZLI
100
AcDbPolyline
 90
2
 70
0
 10
305.67310885346114
 20
1.6263032587282567e-19
 10
309.7231088534613
 20
7.105589987926875e-15
  0
LWPOLYLINE
  5
17F
330
17
100
AcDbEntity
  8
GIZLI
100
AcDbPolyline
 90
2
 70
0
 10
309.7231088534613
 20
5.000000000000007
 10
305.6731088534613
 20
5.000000000000007
  0
LWPOLYLINE
  5
180
330
17
100
AcDbEntity
  8
GIZLI
100
AcDbPolyline
 90
2
 70
0
 10
305.6731088534613
 20
5.000000000000007
 10
309.7231088534613
 20
5.000000000000007
  0
LWPOLYLINE
  5
181
330
17
100
AcDbEntity
  8
GIZLI
100
AcDbPolyline
 90
2
 70
0
 10
224.72310885346133
 20
5.000000000000007
 10
297.7231088534613
 20
5.000000000000007
  0
LWPOLYLINE
  5
182
330
17
100
AcDbEntity
  8
GIZLI
100
AcDbPolyline
 90
2
 70
0
 10
219.72310885346133
 20
5.000000000000007
 10
224.72310885346133
 20
5.000000000000014
  0
LWPOLYLINE
  5
183
330
17
100
AcDbEntity
  8
GIZLI
100
AcDbPolyline
 90
2
 70
0
 10
319.7231088534613
 20
5.000000000000007
 10
309.7231088534613
 20
5.000000000000014
  0
LWPOLYLINE
  5
184
330
17
100
AcDbEntity
  8
GIZLI
100
AcDbPolyline
 90
2
 70
0
 10
224.72310885346133
 20
5.000000000000007
 10
309.7231088534613
 20
5.000000000000007
  0
LWPOLYLINE
  5
185
330
17
100
AcDbEntity
  8
GIZLI
100
AcDbPolyline
 90
2
 70
0
 10
219.72310885346133
 20
5.000000000000007
 10
224.72310885346133
 20
5.000000000000014
  0
LWPOLYLINE
  5
186
330
17
100
AcDbEntity
  8
GIZLI
100
AcDbPolyline
 90
2
 70
0
 10
224.72310885346133
 20
5.000000000000007
 10
219.72310885346133
 20
5.0
  0
LWPOLYLINE
  5
187
330
17
100
AcDbEntity
  8
GIZLI
100
AcDbPolyline
 90
2
 70
0
 10
224.72310885346133
 20
5.0
 10
297.7231088534613
 20
5.0
  0
LWPOLYLINE
  5
188
330
17
100
AcDbEntity
  8
GIZLI
100
AcDbPolyline
 90
2
 70
0
 10
299.7231088534613
 20
5.000000000000007
 10
297.7231088534613
 20
5.000000000000007
  0
LWPOLYLINE
  5
189
330
17
100
AcDbEntity
  8
GIZLI
100
AcDbPolyline
 90
2
 70
0
 10
297.7231088534613
 20
5.000000000000007
 10
299.7231088534613
 20
5.000000000000014
  0
LWPOLYLINE
  5
18A
330
17
100
AcDbEntity
  8
GIZLI
100
AcDbPolyline
 90
2
 70
0
 10
234.72310885346133
 20
5.000000000000014
 10
239.82310885346146
 20
5.000000000000004
  0
LWPOLYLINE
  5
18B
330
17
100
AcDbEntity
  8
GIZLI
100
AcDbPolyline
 90
2
 70
0
 10
239.82310885346146
 20
5.000000000000007
 10
234.72310885346133
 20
5.000000000000014
  0
LWPOLYLINE
  5
18C
330
17
100
AcDbEntity
  8
GIZLI
100
AcDbPolyline
 90
2
 70
0
 10
234.72310885346133
 20
5.000000000000014
 10
229.62310885346142
 20
5.000000000000007
  0
LWPOLYLINE
  5
18D
330
17
100
AcDbEntity
  8
GIZLI
100
AcDbPolyline
 90
2
 70
0
 10
229.62310885346142
 20
5.000000000000007
 10
234.72310885346133
 20
5.000000000000014
  0
LWPOLYLINE
  5
18E
330
17
100
AcDbEntity
  8
GIZLI
100
AcDbPolyline
 90
2
 70
0
 10
264.7231088534613
 20
5.000000000000007
 10
269.82310885346146
 20
5.000000000000004
  0
LWPOLYLINE
  5
18F
330
17
100
AcDbEntity
  8
GIZLI
100
AcDbPolyline
 90
2
 70
0
 10
269.82310885346146
 20
5.000000000000007
 10
264.7231088534613
 20
5.000000000000007
  0
LWPOLYLINE
  5
190
330
17
100
AcDbEntity
  8
GIZLI
100
AcDbPolyline
 90
2
 70
0
 10
264.7231088534613
 20
5.000000000000007
 10
259.6231088534614
 20
5.000000000000007
  0
LWPOLYLINE
  5
191
330
17
100
AcDbEntity
  8
GIZLI
100
AcDbPolyline
 90
2
 70
0
 10
259.6231088534614
 20
5.000000000000007
 10
264.7231088534613
 20
5.000000000000007
  0
LWPOLYLINE
  5
192
330
17
100
AcDbEntity
  8
GIZLI
100
AcDbPolyline
 90
2
 70
0
 10
264.7231088534613
 20
5.000000000000007
 10
269.82310885346124
 20
4.999999999999997
  0
LWPOLYLINE
  5
193
330
17
100
AcDbEntity
  8
GIZLI
100
AcDbPolyline
 90
2
 70
0
 10
269.82310885346124
 20
5.0
 10
264.7231088534613
 20
5.0
  0
LWPOLYLINE
  5
194
330
17
100
AcDbEntity
  8
GIZLI
100
AcDbPolyline
 90
2
 70
0
 10
264.7231088534613
 20
5.0
 10
259.6231088534612
 20
5.0
  0
LWPOLYLINE
  5
195
330
17
100
AcDbEntity
  8
GIZLI
100
AcDbPolyline
 90
2
 70
0
 10
259.6231088534612
 20
5.0
 10
264.7231088534613
 20
5.000000000000007
  0
LWPOLYLINE
  5
196
330
17
100
AcDbEntity
  8
GIZLI
100
AcDbPolyline
 90
2
 70
0
 10
234.72310885346133
 20
5.000000000000007
 10
239.82310885346124
 20
4.999999999999997
  0
LWPOLYLINE
  5
197
330
17
100
AcDbEntity
  8
GIZLI
100
AcDbPolyline
 90
2
 70
0
 10
239.82310885346124
 20
5.0
 10
234.72310885346133
 20
5.000000000000007
  0
LWPOLYLINE
  5
198
330
17
100
AcDbEntity
  8
GIZLI
100
AcDbPolyline
 90
2
 70
0
 10
234.72310885346133
 20
5.000000000000007
 10
229.6231088534612
 20
5.0
  0
LWPOLYLINE
  5
199
330
17
100
AcDbEntity
  8
GIZLI
100
AcDbPolyline
 90
2
 70
0
 10
229.6231088534612
 20
5.0
 10
234.72310885346133
 20
5.000000000000007
  0
LWPOLYLINE
  5
19A
330
17
100
AcDbEntity
  8
GIZLI
100
AcDbPolyline
 90
2
 70
0
 10
309.7231088534613
 20
5.000000000000014
 10
313.7731088534615
 20
5.000000000000007
  0
LWPOLYLINE
  5
19B
330
17
100
AcDbEntity
  8
GIZLI
100
AcDbPolyline
 90
2
 70
0
 10
313.7731088534615
 20
5.000000000000007
 10
309.7231088534613
 20
5.000000000000014
  0
LWPOLYLINE
  5
19C
330
17
100
AcDbEntity
  8
GIZLI
100
AcDbPolyline
 90
2
 70
0
 10
309.7231088534613
 20
5.000000000000014
 10
305.6731088534616
 20
5.000000000000007
  0
LWPOLYLINE
  5
19D
330
17
100
AcDbEntity
  8
GIZLI
100
AcDbPolyline
 90
2
 70
0
 10
305.6731088534616
 20
5.000000000000007
 10
309.7231088534613
 20
5.000000000000014
  0
LWPOLYLINE
  5
19E
330
17
100
AcDbEntity
  8
GIZLI
100
AcDbPolyline
 90
2
 70
0
 10
224.72310885436127
 20
5.000000000000014
 10
224.72310885436127
 20
1.4211017345527877e-14
  0
LWPOLYLINE
  5
19F
330
17
100
AcDbEntity
  8
GIZLI
100
AcDbPolyline
 90
2
 70
0
 10
219.72310885346133
 20
5.000000000000007
 10
219.72310885346133
 20
7.105589987926875e-15
  0
LWPOLYLINE
  5
1A0
330
17
100
AcDbEntity
  8
GIZLI
100
AcDbPolyline
 90
2
 70
0
 10
319.7231088534613
 20
7.105589987926875e-15
 10
319.7231088534613
 20
5.000000000000007
  0
LWPOLYLINE
  5
1A1
330
17
100
AcDbEntity
  8
GIZLI
100
AcDbPolyline
 90
2
 70
0
 10
224.72310885346133
 20
5.000000000000014
 10
224.72310885346133
 20
1.4211017345527877e-14
  0
LWPOLYLINE
  5
1A2
330
17
100
AcDbEntity
  8
GIZLI
100
AcDbPolyline
 90
2
 70
0
 10
219.72310885346133
 20
5.000000000000007
 10
219.72310885346133
 20
7.105589987926875e-15
  0
LWPOLYLINE
  5
1A3
330
17
100
AcDbEntity
  8
GIZLI
100
AcDbPolyline
 90
2
 70
0
 10
219.72310885346133
 20
5.0
 10
219.72310885346133
 20
1.6263032587282567e-19
  0
LWPOLYLINE
  5
1A4
330
17
100
AcDbEntity
  8
GIZLI
100
AcDbPolyline
 90
2
 70
0
 10
224.72310885346133
 20
5.000000000000007
 10
224.72310885346133
 20
7.105589987926875e-15
  0
LWPOLYLINE
  5
1A5
330
17
100
AcDbEntity
  8
GIZLI
100
AcDbPolyline
 90
2
 70
0
 10
299.7231088534613
 20
7.105589987926875e-15
 10
299.7231088534613
 20
5.000000000000007
  0
LWPOLYLINE
  5
1A6
330
17
100
AcDbEntity
  8
GIZLI
100
AcDbPolyline
 90
2
 70
0
 10
299.7231088534613
 20
1.4211017345527877e-14
 10
299.7231088534613
 20
5.000000000000014
  0
LWPOLYLINE
  5
1A7
330
17
100
AcDbEntity
  8
GIZLI
100
AcDbPolyline
 90
2
 70
0
 10
313.77310885346134
 20
7.105589987926875e-15
 10
313.77310885346134
 20
5.000000000000007
  0
LWPOLYLINE
  5
1A8
330
17
100
AcDbEntity
  8
GIZLI
100
AcDbPolyline
 90
2
 70
0
 10
305.6731088534613
 20
7.105589987926875e-15
 10
305.6731088534613
 20
5.000000000000007
  0
LWPOLYLINE
  5
1A9
330
17
100
AcDbEntity
  8
GIZLI
100
AcDbPolyline
 90
2
 70
0
 10
239.82310885346132
 20
1.4211017345527877e-14
 10
239.82310885346132
 20
5.000000000000014
  0
LWPOLYLINE
  5
1AA
330
17
100
AcDbEntity
  8
GIZLI
100
AcDbPolyline
 90
2
 70
0
 10
229.62310885346133
 20
1.4211017345527877e-14
 10
229.62310885346133
 20
5.000000000000014
  0
LWPOLYLINE
  5
1AB
330
17
100
AcDbEntity
  8
GIZLI
100
AcDbPolyline
 90
2
 70
0
 10
269.82310885346135
 20
7.105589987926875e-15
 10
269.82310885346135
 20
5.000000000000007
  0
LWPOLYLINE
  5
1AC
330
17
100
AcDbEntity
  8
GIZLI
100
AcDbPolyline
 90
2
 70
0
 10
259.6231088534613
 20
7.105589987926875e-15
 10
259.6231088534613
 20
5.000000000000007
  0
LWPOLYLINE
  5
1AD
330
17
100
AcDbEntity
  8
GIZLI
100
AcDbPolyline
 90
2
 70
0
 10
269.82310885346135
 20
1.6263032587282567e-19
 10
269.82310885346135
 20
5.0
  0
LWPOLYLINE
  5
1AE
330
17
100
AcDbEntity
  8
GIZLI
100
AcDbPolyline
 90
2
 70
0
 10
259.6231088534613
 20
1.6263032587282567e-19
 10
259.6231088534613
 20
5.0
  0
LWPOLYLINE
  5
1AF
330
17
100
AcDbEntity
  8
GIZLI
100
AcDbPolyline
 90
2
 70
0
 10
239.82310885346132
 20
7.105589987926875e-15
 10
239.82310885346132
 20
5.000000000000007
  0
LWPOLYLINE
  5
1B0
330
17
100
AcDbEntity
  8
GIZLI
100
AcDbPolyline
 90
2
 70
0
 10
229.62310885346133
 20
7.105589987926875e-15
 10
229.62310885346133
 20
5.000000000000007
  0
LWPOLYLINE
  5
1B1
330
17
100
AcDbEntity
  8
GIZLI
100
AcDbPolyline
 90
2
 70
0
 10
313.77310885346134
 20
1.4211017345527877e-14
 10
313.77310885346134
 20
5.000000000000014
  0
LWPOLYLINE
  5
1B2
330
17
100
AcDbEntity
  8
GIZLI
100
AcDbPolyline
 90
2
 70
0
 10
305.6731088534613
 20
1.4211017345527877e-14
 10
305.6731088534613
 20
5.000000000000014
  0
TEXT
  5
1B3
330
17
100
AcDbEntity
  8
YAZI
100
AcDbText
 10
219.72310885346133
 20
-12.444494660727015
 30
0.0
 40
5.055575955920349
  1
SAG
 11
219.72310885346133
 21
-12.444494660727015
 31
0.0
100
AcDbText
  0
DIMENSION
  5
1B4
330
17
100
AcDbEntity
  8
OLCU
100
AcDbDimension
280
0
  2
*D5
  3
PF_MM
 10
219.72310885346133
 20
-15.555618325908767
 30
0.0
 11
269.7231088534613
 21
-12.250049431653155
 31
0.0
 70
32
 71
5
  1
<>
100
AcDbAlignedDimension
 13
219.72310885346133
 23
0.0
 33
0.0
 14
319.7231088534613
 24
0.0
 34
0.0
 50
0.0
100
AcDbRotatedDimension
  0
DIMENSION
  5
1C3
330
17
100
AcDbEntity
  8
OLCU
100
AcDbDimension
280
0
  2
*D6
  3
PF_MM
 10
204.16749052755256
 20
0.0
 30
0.0
 11
200.86192163329696
 21
2.500000000000007
 31
0.0
 70
32
 71
5
  1
<>
100
AcDbAlignedDimension
 13
219.72310885346133
 23
0.0
 33
0.0
 14
219.72310885346133
 24
5.000000000000014
 34
0.0
 50
90.0
100
AcDbRotatedDimension
  0
LINE
  5
1D4
330
17
100
AcDbEntity
  8
EKSEN
100
AcDbLine
 10
155.15
 20
-129.72310885346138
 30
0.0
 11
168.35
 21
-129.72310885346138
 31
0.0
  0
LINE
  5
1D5
330
17
100
AcDbEntity
  8
EKSEN
100
AcDbLine
 10
161.75
 20
-136.32310885346138
 30
0.0
 11
161.75
 21
-123.12310885346139
 31
0.0
  0
LINE
  5
1D6
330
17
100
AcDbEntity
  8
EKSEN
100
AcDbLine
 10
155.15
 20
-99.72310885346138
 30
0.0
 11
168.35
 21
-99.72310885346138
 31
0.0
  0
LINE
  5
1D7
330
17
100
AcDbEntity
  8
EKSEN
100
AcDbLine
 10
161.75
 20
-106.32310885346138
 30
0.0
 11
161.75
 21
-93.12310885346139
 31
0.0
  0
LINE
  5
1D8
330
17
100
AcDbEntity
  8
EKSEN
100
AcDbLine
 10
6.65
 20
-99.72310885346138
 30
0.0
 11
19.85
 21
-99.72310885346138
 31
0.0
  0
LINE
  5
1D9
330
17
100
AcDbEntity
  8
EKSEN
100
AcDbLine
 10
13.25
 20
-106.32310885346138
 30
0.0
 11
13.25
 21
-93.12310885346139
 31
0.0
  0
LINE
  5
1DA
330
17
100
AcDbEntity
  8
EKSEN
100
AcDbLine
 10
6.65
 20
-129.72310885346138
 30
0.0
 11
19.85
 21
-129.72310885346138
 31
0.0
  0
LINE
  5
1DB
330
17
100
AcDbEntity
  8
EKSEN
100
AcDbLine
 10
13.25
 20
-136.32310885346138
 30
0.0
 11
13.25
 21
-123.12310885346139
 31
0.0
  0
LINE
  5
1DC
330
17
100
AcDbEntity
  8
EKSEN
100
AcDbLine
 10
4.45
 20
-54.72310885346138
 30
0.0
 11
15.55
 21
-54.72310885346138
 31
0.0
  0
LINE
  5
1DD
330
17
100
AcDbEntity
  8
EKSEN
100
AcDbLine
 10
10.0
 20
-60.27310885346138
 30
0.0
 11
10.0
 21
-49.173108853461386
 31
0.0
  0
LINE
  5
1DE
330
17
100
AcDbEntity
  8
EKSEN
100
AcDbLine
 10
159.45
 20
-54.72310885346138
 30
0.0
 11
170.55
 21
-54.72310885346138
 31
0.0
  0
LINE
  5
1DF
330
17
100
AcDbEntity
  8
EKSEN
100
AcDbLine
 10
165.0
 20
-60.27310885346138
 30
0.0
 11
165.0
 21
-49.173108853461386
 31
0.0
  0
DIMENSION
  5
1E0
330
17
100
AcDbEntity
  8
OLCU
100
AcDbDimension
280
0
  2
*D7
  3
PF_MM
 10
165.35624458405138
 20
-126.11686426940999
 30
0.0
 11
138.89465980929893
 21
-147.90366868254753
 31
0.0
 70
35
 71
5
  1
4x %%c10.2
100
AcDbDiametricDimension
 15
158.14375541594862
 25
-133.32935343751276
 35
0.0
  0
DIMENSION
  5
1ED
330
17
100
AcDbEntity
  8
OLCU
100
AcDbDimension
280
0
  2
*D8
  3
PF_MM
 10
12.863782463805517
 20
-51.85932638965586
 30
0.0
 11
-10.737942669980216
 21
-70.7862711618267
 31
0.0
 70
35
 71
5
  1
2x %%c8.1
100
AcDbDiametricDimension
 15
7.136217536194483
 25
-57.586891317266904
 35
0.0
  0
TEXT
  5
1FA
330
17
100
AcDbEntity
  8
YAZI
100
AcDbText
 10
0.0
 20
74.6120981749153
 30
0.0
 40
5.833356872215788
  1
09.020.000.03   09.020.000.03 Rollenplatte
 11
0.0
 21
74.6120981749153
 31
0.0
100
AcDbText
  0
TEXT
  5
1FB
330
17
100
AcDbEntity
  8
YAZI
100
AcDbText
 10
0.0
 20
66.05650809566548
 30
0.0
 40
4.277795039624912
  1
adet: 1
 11
0.0
 21
66.05650809566548
 31
0.0
100
AcDbText
  0
TEXT
  5
1FC
330
17
100
AcDbEntity
  8
YAZI
100
AcDbText
 10
0.0
 20
57.50091801641566
 30
0.0
 40
4.277795039624912
  1
BOY x EN x KALINLIK : 175.0 x 100.0 x 5.0 mm
 11
0.0
 21
57.50091801641566
 31
0.0
100
AcDbText
  0
TEXT
  5
1FD
330
17
100
AcDbEntity
  8
YAZI
100
AcDbText
 10
0.0
 20
48.945327937165835
 30
0.0
 40
4.277795039624912
  1
hacim 36094.4 mm3   kutle 0.2833 kg   yuzey 18773.0 mm2
 11
0.0
 21
48.945327937165835
 31
0.0
100
AcDbText
  0
TEXT
  5
1FE
330
17
100
AcDbEntity
  8
YAZI
100
AcDbText
 10
0.0
 20
40.38973785791601
 30
0.0
 40
4.277795039624912
  1
sac kalinligi: 5.0 mm
 11
0.0
 21
40.38973785791601
 31
0.0
100
AcDbText
  0
TEXT
  5
1FF
330
17
100
AcDbEntity
  8
YAZI
100
AcDbText
 10
0.0
 20
31.834147778666186
 30
0.0
 40
4.277795039624912
  1
dis capler: O20.0
 11
0.0
 21
31.834147778666186
 31
0.0
100
AcDbText
  0
TEXT
  5
200
330
17
100
AcDbEntity
  8
YAZI
100
AcDbText
 10
0.0
 20
23.278557699416364
 30
0.0
 40
4.277795039624912
  1
toplam delik: 6   toplam radus: 2
 11
0.0
 21
23.278557699416364
 31
0.0
100
AcDbText
  0
TEXT
  5
201
330
17
100
AcDbEntity
  8
YAZI
100
AcDbText
 10
364.44621770692277
 20
74.6120981749153
 30
0.0
 40
5.055575955920349
  1
DELIK TABLOSU
 11
364.44621770692277
 21
74.6120981749153
 31
0.0
100
AcDbText
  0
TEXT
  5
202
330
17
100
AcDbEntity
  8
YAZI
100
AcDbText
 10
364.44621770692277
 20
66.05650809566548
 30
0.0
 40
4.083349810551051
  1
     cap  adet  eksen  derinlik
 11
364.44621770692277
 21
66.05650809566548
 31
0.0
100
AcDbText
  0
TEXT
  5
203
330
17
100
AcDbEntity
  8
YAZI
100
AcDbText
 10
364.44621770692277
 20
57.50091801641566
 30
0.0
 40
4.083349810551051
  1
O  10.20     4      Z     10.20
 11
364.44621770692277
 21
57.50091801641566
 31
0.0
100
AcDbText
  0
TEXT
  5
204
330
17
100
AcDbEntity
  8
YAZI
100
AcDbText
 10
364.44621770692277
 20
48.945327937165835
 30
0.0
 40
4.083349810551051
  1
O   8.10     2      Z      8.10
 11
364.44621770692277
 21
48.945327937165835
 31
0.0
100
AcDbText
  0
TEXT
  5
205
330
17
100
AcDbEntity
  8
YAZI
100
AcDbText
 10
524.4462177069228
 20
74.6120981749153
 30
0.0
 40
5.055575955920349
  1
RADUS TABLOSU (kenar yuvarlamalari)
 11
524.4462177069228
 21
74.6120981749153
 31
0.0
100
AcDbText
  0
TEXT
  5
206
330
17
100
AcDbEntity
  8
YAZI
100
AcDbText
 10
524.4462177069228
 20
66.05650809566548
 30
0.0
 40
4.083349810551051
  1
       R  adet  eksen   uzunluk
 11
524.4462177069228
 21
66.05650809566548
 31
0.0
100
AcDbText
  0
TEXT
  5
207
330
17
100
AcDbEntity
  8
YAZI
100
AcDbText
 10
524.4462177069228
 20
57.50091801641566
 30
0.0
 40
4.083349810551051
  1
R   2.00     2      Z      5.00
 11
524.4462177069228
 21
57.50091801641566
 31
0.0
100
AcDbText
  0
ENDSEC
  0
SECTION
  2
OBJECTS
  0
DICTIONARY
  5
A
330
0
100
AcDbDictionary
281
1
  3
ACAD_COLOR
350
B
  3
ACAD_GROUP
350
C
  3
ACAD_LAYOUT
350
D
  3
ACAD_MATERIAL
350
E
  3
ACAD_MLEADERSTYLE
350
F
  3
ACAD_MLINESTYLE
350
10
  3
ACAD_PLOTSETTINGS
350
11
  3
ACAD_PLOTSTYLENAME
350
12
  3
ACAD_SCALELIST
350
14
  3
ACAD_TABLESTYLE
350
15
  3
ACAD_VISUALSTYLE
350
16
  3
EZDXF_META
350
2D
  0
DICTIONARY
  5
B
330
A
100
AcDbDictionary
281
1
  0
DICTIONARY
  5
C
330
A
100
AcDbDictionary
281
1
  0
DICTIONARY
  5
D
330
A
100
AcDbDictionary
281
1
  3
Model
350
1A
  3
Layout1
350
1E
  0
DICTIONARY
  5
E
330
A
100
AcDbDictionary
281
1
  3
ByBlock
350
1F
  3
ByLayer
350
20
  3
Global
350
21
  0
DICTIONARY
  5
F
330
A
100
AcDbDictionary
281
1
  3
Standard
350
2C
  0
DICTIONARY
  5
10
330
A
100
AcDbDictionary
281
1
  3
Standard
350
22
  0
DICTIONARY
  5
11
330
A
100
AcDbDictionary
281
1
  0
ACDBDICTIONARYWDFLT
  5
12
330
A
100
AcDbDictionary
281
1
  3
Normal
350
13
100
AcDbDictionaryWithDefault
340
13
  0
ACDBPLACEHOLDER
  5
13
330
12
  0
DICTIONARY
  5
14
330
A
100
AcDbDictionary
281
1
  0
DICTIONARY
  5
15
330
A
100
AcDbDictionary
281
1
  0
DICTIONARY
  5
16
330
A
100
AcDbDictionary
281
1
  3
2dWireframe
350
5A
  3
Basic
350
5B
  3
Brighten
350
5C
  3
ColorChange
350
5D
  3
Conceptual
350
5E
  3
Dim
350
5F
  3
EdgeColorOff
350
60
  3
Facepattern
350
61
  3
Flat
350
62
  3
FlatWithEdges
350
63
  3
Gouraud
350
64
  3
GouraudWithEdges
350
65
  3
Hidden
350
66
  3
JitterOff
350
67
  3
Linepattern
350
68
  3
Modeling
350
69
  3
OverhangOff
350
6A
  3
Realistic
350
6B
  3
Shaded
350
6C
  3
Shaded with edges
350
6D
  3
Shades of Gray
350
6E
  3
Sketchy
350
6F
  3
Thicken
350
70
  3
Wireframe
350
71
  3
X-Ray
350
72
  0
LAYOUT
  5
1A
330
D
100
AcDbPlotSettings
  1

  4
A3
  6

 40
7.5
 41
20.0
 42
7.5
 43
20.0
 44
420.0
 45
297.0
 46
0.0
 47
0.0
 48
0.0
 49
0.0
140
0.0
141
0.0
142
1.0
143
1.0
 70
1024
 72
1
 73
0
 74
5
  7

 75
16
 76
0
 77
2
 78
300
147
1.0
148
0.0
149
0.0
100
AcDbLayout
  1
Model
 70
1
 71
0
 10
0.0
 20
0.0
 11
420.0
 21
297.0
 12
0.0
 22
0.0
 32
0.0
 14
1e+20
 24
1e+20
 34
1e+20
 15
-1e+20
 25
-1e+20
 35
-1e+20
146
0.0
 13
0.0
 23
0.0
 33
0.0
 16
1.0
 26
0.0
 36
0.0
 17
0.0
 27
1.0
 37
0.0
 76
1
330
17
  0
LAYOUT
  5
1E
330
D
100
AcDbPlotSettings
  1

  4
A3
  6

 40
7.5
 41
20.0
 42
7.5
 43
20.0
 44
420.0
 45
297.0
 46
0.0
 47
0.0
 48
0.0
 49
0.0
140
0.0
141
0.0
142
1.0
143
1.0
 70
0
 72
1
 73
0
 74
5
  7

 75
16
 76
0
 77
2
 78
300
147
1.0
148
0.0
149
0.0
100
AcDbLayout
  1
Layout1
 70
1
 71
1
 10
0.0
 20
0.0
 11
420.0
 21
297.0
 12
0.0
 22
0.0
 32
0.0
 14
1e+20
 24
1e+20
 34
1e+20
 15
-1e+20
 25
-1e+20
 35
-1e+20
146
0.0
 13
0.0
 23
0.0
 33
0.0
 16
1.0
 26
0.0
 36
0.0
 17
0.0
 27
1.0
 37
0.0
 76
1
330
1B
  0
MATERIAL
  5
1F
102
{ACAD_REACTORS
330
E
102
}
330
E
100
AcDbMaterial
  1
ByBlock
  2

 70
0
 40
1.0
 71
1
 41
1.0
 91
-1023410177
 42
1.0
 72
1
  3

 73
1
 74
1
 75
1
 44
0.5
 73
0
 45
1.0
 46
1.0
 77
1
  4

 78
1
 79
1
170
1
 48
1.0
171
1
  6

172
1
173
1
174
1
140
1.0
141
1.0
175
1
  7

176
1
177
1
178
1
143
1.0
179
1
  8

270
1
271
1
272
1
145
1.0
146
1.0
273
1
  9

274
1
275
1
276
1
 42
1.0
 72
1
  3

 73
1
 74
1
 75
1
 94
63
  0
MATERIAL
  5
20
102
{ACAD_REACTORS
330
E
102
}
330
E
100
AcDbMaterial
  1
ByLayer
  2

 70
0
 40
1.0
 71
1
 41
1.0
 91
-1023410177
 42
1.0
 72
1
  3

 73
1
 74
1
 75
1
 44
0.5
 73
0
 45
1.0
 46
1.0
 77
1
  4

 78
1
 79
1
170
1
 48
1.0
171
1
  6

172
1
173
1
174
1
140
1.0
141
1.0
175
1
  7

176
1
177
1
178
1
143
1.0
179
1
  8

270
1
271
1
272
1
145
1.0
146
1.0
273
1
  9

274
1
275
1
276
1
 42
1.0
 72
1
  3

 73
1
 74
1
 75
1
 94
63
  0
MATERIAL
  5
21
102
{ACAD_REACTORS
330
E
102
}
330
E
100
AcDbMaterial
  1
Global
  2

 70
0
 40
1.0
 71
1
 41
1.0
 91
-1023410177
 42
1.0
 72
1
  3

 73
1
 74
1
 75
1
 44
0.5
 73
0
 45
1.0
 46
1.0
 77
1
  4

 78
1
 79
1
170
1
 48
1.0
171
1
  6

172
1
173
1
174
1
140
1.0
141
1.0
175
1
  7

176
1
177
1
178
1
143
1.0
179
1
  8

270
1
271
1
272
1
145
1.0
146
1.0
273
1
  9

274
1
275
1
276
1
 42
1.0
 72
1
  3

 73
1
 74
1
 75
1
 94
63
  0
MLINESTYLE
  5
22
102
{ACAD_REACTORS
330
10
102
}
330
10
100
AcDbMlineStyle
  2
Standard
 70
0
  3

 62
256
 51
90.0
 52
90.0
 71
2
 49
0.5
 62
256
  6
BYLAYER
 49
-0.5
 62
256
  6
BYLAYER
  0
MLEADERSTYLE
  5
2C
102
{ACAD_REACTORS
330
F
102
}
330
F
100
AcDbMLeaderStyle
179
2
170
2
171
1
172
0
 90
2
 40
0.0
 41
0.0
173
1
 91
-1056964608
 92
-2
290
1
 42
2.0
291
1
 43
8.0
  3
Standard
 44
4.0
300

342
29
174
1
175
1
176
0
178
1
 93
-1056964608
 45
4.0
292
0
297
0
 46
4.0
 94
-1056964608
 47
1.0
 49
1.0
140
1.0
294
1
141
0.0
177
0
142
1.0
295
0
296
0
143
3.75
271
0
272
9
273
9
  0
DICTIONARY
  5
2D
330
A
100
AcDbDictionary
280
1
281
1
  3
CREATED_BY_EZDXF
350
2E
  3
WRITTEN_BY_EZDXF
350
20A
  0
DICTIONARYVAR
  5
2E
330
2D
100
DictionaryVariables
280
0
  1
1.4.4 @ 2026-09-21T16:47:13.266817+00:00
  0
VISUALSTYLE
  5
5A
102
{ACAD_REACTORS
330
16
102
}
330
16
100
AcDbVisualStyle
  2
2dWireframe
 70
4
 90
0
 40
0.6
 62
7
290
0
291
0
  0
VISUALSTYLE
  5
5B
102
{ACAD_REACTORS
330
16
102
}
330
16
100
AcDbVisualStyle
  2
Basic
 70
7
 90
1
 40
0.6
 62
7
290
0
291
1
  0
VISUALSTYLE
  5
5C
102
{ACAD_REACTORS
330
16
102
}
330
16
100
AcDbVisualStyle
  2
Brighten
 70
12
 90
2
 40
0.6
 62
7
290
0
291
1
  0
VISUALSTYLE
  5
5D
102
{ACAD_REACTORS
330
16
102
}
330
16
100
AcDbVisualStyle
  2
ColorChange
 70
16
 90
2
 40
0.6
 62
8
290
0
291
1
  0
VISUALSTYLE
  5
5E
102
{ACAD_REACTORS
330
16
102
}
330
16
100
AcDbVisualStyle
  2
Conceptual
 70
9
 90
3
 40
0.6
 62
7
290
0
291
0
  0
VISUALSTYLE
  5
5F
102
{ACAD_REACTORS
330
16
102
}
330
16
100
AcDbVisualStyle
  2
Dim
 70
11
 90
2
 40
0.6
 62
7
290
0
291
1
  0
VISUALSTYLE
  5
60
102
{ACAD_REACTORS
330
16
102
}
330
16
100
AcDbVisualStyle
  2
EdgeColorOff
 70
22
 90
2
 40
0.6
 62
7
290
0
291
1
  0
VISUALSTYLE
  5
61
102
{ACAD_REACTORS
330
16
102
}
330
16
100
AcDbVisualStyle
  2
Facepattern
 70
15
 90
2
 40
0.6
 62
7
290
0
291
1
  0
VISUALSTYLE
  5
62
102
{ACAD_REACTORS
330
16
102
}
330
16
100
AcDbVisualStyle
  2
Flat
 70
0
 90
2
 40
0.6
 62
7
290
0
291
1
  0
VISUALSTYLE
  5
63
102
{ACAD_REACTORS
330
16
102
}
330
16
100
AcDbVisualStyle
  2
FlatWithEdges
 70
1
 90
2
 40
0.6
 62
7
290
0
291
1
  0
VISUALSTYLE
  5
64
102
{ACAD_REACTORS
330
16
102
}
330
16
100
AcDbVisualStyle
  2
Gouraud
 70
2
 90
2
 40
0.6
 62
7
290
0
291
1
  0
VISUALSTYLE
  5
65
102
{ACAD_REACTORS
330
16
102
}
330
16
100
AcDbVisualStyle
  2
GouraudWithEdges
 70
3
 90
2
 40
0.6
 62
7
290
0
291
1
  0
VISUALSTYLE
  5
66
102
{ACAD_REACTORS
330
16
102
}
330
16
100
AcDbVisualStyle
  2
Hidden
 70
6
 90
1
 40
0.6
 62
7
290
0
291
0
  0
VISUALSTYLE
  5
67
102
{ACAD_REACTORS
330
16
102
}
330
16
100
AcDbVisualStyle
  2
JitterOff
 70
20
 90
2
 40
0.6
 62
7
290
0
291
1
  0
VISUALSTYLE
  5
68
102
{ACAD_REACTORS
330
16
102
}
330
16
100
AcDbVisualStyle
  2
Linepattern
 70
14
 90
2
 40
0.6
 62
7
290
0
291
1
  0
VISUALSTYLE
  5
69
102
{ACAD_REACTORS
330
16
102
}
330
16
100
AcDbVisualStyle
  2
Modeling
 70
10
 90
2
 40
0.6
 62
7
290
0
291
0
  0
VISUALSTYLE
  5
6A
102
{ACAD_REACTORS
330
16
102
}
330
16
100
AcDbVisualStyle
  2
OverhangOff
 70
21
 90
2
 40
0.6
 62
7
290
0
291
1
  0
VISUALSTYLE
  5
6B
102
{ACAD_REACTORS
330
16
102
}
330
16
100
AcDbVisualStyle
  2
Realistic
 70
8
 90
2
 40
0.6
 62
7
290
0
291
0
  0
VISUALSTYLE
  5
6C
102
{ACAD_REACTORS
330
16
102
}
330
16
100
AcDbVisualStyle
  2
Shaded
 70
27
 90
2
 40
0.6
 62
7
290
0
291
0
  0
VISUALSTYLE
  5
6D
102
{ACAD_REACTORS
330
16
102
}
330
16
100
AcDbVisualStyle
  2
Shaded with edges
 70
26
 90
2
 40
0.6
 62
7
290
0
291
0
  0
VISUALSTYLE
  5
6E
102
{ACAD_REACTORS
330
16
102
}
330
16
100
AcDbVisualStyle
  2
Shades of Gray
 70
23
 90
2
 40
0.6
 62
7
290
0
291
0
  0
VISUALSTYLE
  5
6F
102
{ACAD_REACTORS
330
16
102
}
330
16
100
AcDbVisualStyle
  2
Sketchy
 70
24
 90
1
 40
0.6
 62
7
290
0
291
0
  0
VISUALSTYLE
  5
70
102
{ACAD_REACTORS
330
16
102
}
330
16
100
AcDbVisualStyle
  2
Thicken
 70
13
 90
2
 40
0.6
 62
7
290
0
291
1
  0
VISUALSTYLE
  5
71
102
{ACAD_REACTORS
330
16
102
}
330
16
100
AcDbVisualStyle
  2
Wireframe
 70
5
 90
0
 40
0.6
 62
7
290
0
291
0
  0
VISUALSTYLE
  5
72
102
{ACAD_REACTORS
330
16
102
}
330
16
100
AcDbVisualStyle
  2
X-Ray
 70
25
 90
2
 40
0.5
 62
7
290
0
291
0
  0
DICTIONARYVAR
  5
20A
330
2D
100
DictionaryVariables
280
0
  1
1.4.4 @ 2026-09-21T16:47:13.326787+00:00
  0
ENDSEC
  0
EOF
