  0
SECTION
  2
HEADER
  9
$ACADVER
  1
AC1024
  9
$ACADMAINTVER
 70
6
  9
$DWGCODEPAGE
  3
ANSI_1252
  9
$LASTSAVEDBY
  1
ezdxf
  9
$INSBASE
 10
0.0
 20
0.0
 30
0.0
  9
$EXTMIN
 10
1e+20
 20
1e+20
 30
1e+20
  9
$EXTMAX
 10
-1e+20
 20
-1e+20
 30
-1e+20
  9
$LIMMIN
 10
0.0
 20
0.0
  9
$LIMMAX
 10
420.0
 20
297.0
  9
$ORTHOMODE
 70
0
  9
$REGENMODE
 70
1
  9
$FILLMODE
 70
1
  9
$QTEXTMODE
 70
0
  9
$MIRRTEXT
 70
1
  9
$LTSCALE
 40
1.0
  9
$ATTMODE
 70
1
  9
$TEXTSIZE
 40
2.5
  9
$TRACEWID
 40
1.0
  9
$TEXTSTYLE
  7
OpenSans
  9
$CLAYER
  8
0
  9
$CELTYPE
  6
ByLayer
  9
$CECOLOR
 62
256
  9
$CELTSCALE
 40
1.0
  9
$DISPSILH
 70
0
  9
$DIMSCALE
 40
1.0
  9
$DIMASZ
 40
0.175
  9
$DIMEXO
 40
0.125
  9
$DIMDLI
 40
3.75
  9
$DIMRND
 40
0.0
  9
$DIMDLE
 40
0.0
  9
$DIMEXE
 40
0.375
  9
$DIMTP
 40
0.0
  9
$DIMTM
 40
0.0
  9
$DIMTXT
 40
0.25
  9
$DIMCEN
 40
2.5
  9
$DIMTSZ
 40
0.0
  9
$DIMTOL
 70
0
  9
$DIMLIM
 70
0
  9
$DIMTIH
 70
0
  9
$DIMTOH
 70
0
  9
$DIMSE1
 70
0
  9
$DIMSE2
 70
0
  9
$DIMTAD
 70
1
  9
$DIMZIN
 70
12
  9
$DIMBLK
  1
ARCHTICK
  9
$DIMASO
 70
1
  9
$DIMSHO
 70
1
  9
$DIMPOST
  1

  9
$DIMAPOST
  1

  9
$DIMALT
 70
0
  9
$DIMALTD
 70
3
  9
$DIMALTF
 40
0.03937007874
  9
$DIMLFAC
 40
100.0
  9
$DIMTOFL
 70
1
  9
$DIMTVP
 40
0.0
  9
$DIMTIX
 70
0
  9
$DIMSOXD
 70
0
  9
$DIMSAH
 70
0
  9
$DIMBLK1
  1

  9
$DIMBLK2
  1

  9
$DIMSTYLE
  2
EZDXF
  9
$DIMCLRD
 70
0
  9
$DIMCLRE
 70
0
  9
$DIMCLRT
 70
0
  9
$DIMTFAC
 40
0.5
  9
$DIMGAP
 40
0.1
  9
$DIMJUST
 70
0
  9
$DIMSD1
 70
0
  9
$DIMSD2
 70
0
  9
$DIMTOLJ
 70
0
  9
$DIMTZIN
 70
8
  9
$DIMALTZ
 70
0
  9
$DIMALTTZ
 70
0
  9
$DIMUPT
 70
1
  9
$DIMDEC
 70
2
  9
$DIMTDEC
 70
2
  9
$DIMALTU
 70
2
  9
$DIMALTTD
 70
3
  9
$DIMTXSTY
  7
OpenSansCondensed-Light
  9
$DIMAUNIT
 70
0
  9
$DIMADEC
 70
2
  9
$DIMALTRND
 40
0.0
  9
$DIMAZIN
 70
3
  9
$DIMDSEP
 70
46
  9
$DIMATFIT
 70
3
  9
$DIMFRAC
 70
0
  9
$DIMLDRBLK
  1

  9
$DIMLUNIT
 70
2
  9
$DIMLWD
 70
-2
  9
$DIMLWE
 70
-2
  9
$DIMTMOVE
 70
2
  9
$DIMFXL
 40
1.0
  9
$DIMFXLON
 70
0
  9
$DIMJOGANG
 40
0.785398163397
  9
$DIMTFILL
 70
0
  9
$DIMTFILLCLR
 70
0
  9
$DIMARCSYM
 70
0
  9
$DIMLTYPE
  6

  9
$DIMLTEX1
  6

  9
$DIMLTEX2
  6

  9
$DIMTXTDIRECTION
 70
0
  9
$LUNITS
 70
2
  9
$LUPREC
 70
4
  9
$SKETCHINC
 40
1.0
  9
$FILLETRAD
 40
10.0
  9
$AUNITS
 70
0
  9
$AUPREC
 70
2
  9
$MENU
  1
.
  9
$ELEVATION
 40
0.0
  9
$PELEVATION
 40
0.0
  9
$THICKNESS
 40
0.0
  9
$LIMCHECK
 70
0
  9
$CHAMFERA
 40
0.0
  9
$CHAMFERB
 40
0.0
  9
$CHAMFERC
 40
0.0
  9
$CHAMFERD
 40
0.0
  9
$SKPOLY
 70
0
  9
$TDCREATE
 40
2461305.6200694446
  9
$TDUCREATE
 40
2458532.153996898
  9
$TDUPDATE
 40
2461305.6200694446
  9
$TDUUPDATE
 40
2458532.1544311
  9
$TDINDWG
 40
0.0
  9
$TDUSRTIMER
 40
0.0
  9
$USRTIMER
 70
1
  9
$ANGBASE
 50
0.0
  9
$ANGDIR
 70
0
  9
$PDMODE
 70
0
  9
$PDSIZE
 40
0.0
  9
$PLINEWID
 40
0.0
  9
$SPLFRAME
 70
0
  9
$SPLINETYPE
 70
6
  9
$SPLINESEGS
 70
8
  9
$HANDSEED
  5
1DD
  9
$SURFTAB1
 70
6
  9
$SURFTAB2
 70
6
  9
$SURFTYPE
 70
6
  9
$SURFU
 70
6
  9
$SURFV
 70
6
  9
$UCSBASE
  2

  9
$UCSNAME
  2

  9
$UCSORG
 10
0.0
 20
0.0
 30
0.0
  9
$UCSXDIR
 10
1.0
 20
0.0
 30
0.0
  9
$UCSYDIR
 10
0.0
 20
1.0
 30
0.0
  9
$UCSORTHOREF
  2

  9
$UCSORTHOVIEW
 70
0
  9
$UCSORGTOP
 10
0.0
 20
0.0
 30
0.0
  9
$UCSORGBOTTOM
 10
0.0
 20
0.0
 30
0.0
  9
$UCSORGLEFT
 10
0.0
 20
0.0
 30
0.0
  9
$UCSORGRIGHT
 10
0.0
 20
0.0
 30
0.0
  9
$UCSORGFRONT
 10
0.0
 20
0.0
 30
0.0
  9
$UCSORGBACK
 10
0.0
 20
0.0
 30
0.0
  9
$PUCSBASE
  2

  9
$PUCSNAME
  2

  9
$PUCSORG
 10
0.0
 20
0.0
 30
0.0
  9
$PUCSXDIR
 10
1.0
 20
0.0
 30
0.0
  9
$PUCSYDIR
 10
0.0
 20
1.0
 30
0.0
  9
$PUCSORTHOREF
  2

  9
$PUCSORTHOVIEW
 70
0
  9
$PUCSORGTOP
 10
0.0
 20
0.0
 30
0.0
  9
$PUCSORGBOTTOM
 10
0.0
 20
0.0
 30
0.0
  9
$PUCSORGLEFT
 10
0.0
 20
0.0
 30
0.0
  9
$PUCSORGRIGHT
 10
0.0
 20
0.0
 30
0.0
  9
$PUCSORGFRONT
 10
0.0
 20
0.0
 30
0.0
  9
$PUCSORGBACK
 10
0.0
 20
0.0
 30
0.0
  9
$USERI1
 70
0
  9
$USERI2
 70
0
  9
$USERI3
 70
0
  9
$USERI4
 70
0
  9
$USERI5
 70
0
  9
$USERR1
 40
0.0
  9
$USERR2
 40
0.0
  9
$USERR3
 40
0.0
  9
$USERR4
 40
0.0
  9
$USERR5
 40
0.0
  9
$WORLDVIEW
 70
1
  9
$SHADEDGE
 70
3
  9
$SHADEDIF
 70
70
  9
$TILEMODE
 70
1
  9
$MAXACTVP
 70
64
  9
$PINSBASE
 10
0.0
 20
0.0
 30
0.0
  9
$PLIMCHECK
 70
0
  9
$PEXTMIN
 10
1e+20
 20
1e+20
 30
1e+20
  9
$PEXTMAX
 10
-1e+20
 20
-1e+20
 30
-1e+20
  9
$PLIMMIN
 10
0.0
 20
0.0
  9
$PLIMMAX
 10
420.0
 20
297.0
  9
$UNITMODE
 70
0
  9
$VISRETAIN
 70
1
  9
$PLINEGEN
 70
0
  9
$PSLTSCALE
 70
1
  9
$TREEDEPTH
 70
3020
  9
$CMLSTYLE
  2
Standard
  9
$CMLJUST
 70
0
  9
$CMLSCALE
 40
20.0
  9
$PROXYGRAPHICS
 70
1
  9
$MEASUREMENT
 70
1
  9
$CELWEIGHT
370
-1
  9
$ENDCAPS
280
0
  9
$JOINSTYLE
280
0
  9
$LWDISPLAY
290
0
  9
$INSUNITS
 70
6
  9
$HYPERLINKBASE
  1

  9
$STYLESHEET
  1

  9
$XEDIT
290
1
  9
$CEPSNTYPE
380
0
  9
$PSTYLEMODE
290
1
  9
$FINGERPRINTGUID
  2
{34F1EDAA-1AA6-490B-BFCA-7FACA90272DF}
  9
$VERSIONGUID
  2
{6184B3FD-0927-4D90-8E5F-BEFDC0FF1E10}
  9
$EXTNAMES
290
1
  9
$PSVPSCALE
 40
0.0
  9
$OLESTARTUP
290
0
  9
$SORTENTS
280
127
  9
$INDEXCTL
280
0
  9
$HIDETEXT
280
1
  9
$XCLIPFRAME
280
1
  9
$HALOGAP
280
0
  9
$OBSCOLOR
 70
257
  9
$OBSLTYPE
280
0
  9
$INTERSECTIONDISPLAY
280
0
  9
$INTERSECTIONCOLOR
 70
257
  9
$DIMASSOC
280
2
  9
$PROJECTNAME
  1

  9
$CAMERADISPLAY
290
0
  9
$LENSLENGTH
 40
50.0
  9
$CAMERAHEIGHT
 40
0.0
  9
$STEPSPERSEC
 40
24.0
  9
$STEPSIZE
 40
100.0
  9
$3DDWFPREC
 40
2.0
  9
$PSOLWIDTH
 40
0.005
  9
$PSOLHEIGHT
 40
0.08
  9
$LOFTANG1
 40
1.570796326795
  9
$LOFTANG2
 40
1.570796326795
  9
$LOFTMAG1
 40
0.0
  9
$LOFTMAG2
 40
0.0
  9
$LOFTPARAM
 70
7
  9
$LOFTNORMALS
280
1
  9
$LATITUDE
 40
37.795
  9
$LONGITUDE
 40
-122.394
  9
$NORTHDIRECTION
 40
0.0
  9
$TIMEZONE
 70
-8000
  9
$LIGHTGLYPHDISPLAY
280
1
  9
$TILEMODELIGHTSYNCH
280
1
  9
$CMATERIAL
347
20
  9
$SOLIDHIST
280
0
  9
$SHOWHIST
280
1
  9
$DWFFRAME
280
2
  9
$DGNFRAME
280
2
  9
$REALWORLDSCALE
290
1
  9
$INTERFERECOLOR
 62
256
  9
$CSHADOW
280
0
  9
$SHADOWPLANELOCATION
 40
0.0
  0
ENDSEC
  0
SECTION
  2
CLASSES
  0
CLASS
  1
ACDBDICTIONARYWDFLT
  2
AcDbDictionaryWithDefault
  3
ObjectDBX Classes
 90
0
 91
0
280
0
281
0
  0
CLASS
  1
SUN
  2
AcDbSun
  3
SCENEOE
 90
1153
 91
0
280
0
281
0
  0
CLASS
  1
VISUALSTYLE
  2
AcDbVisualStyle
  3
ObjectDBX Classes
 90
4095
 91
0
280
0
281
0
  0
CLASS
  1
MATERIAL
  2
AcDbMaterial
  3
ObjectDBX Classes
 90
1153
 91
0
280
0
281
0
  0
CLASS
  1
SCALE
  2
AcDbScale
  3
ObjectDBX Classes
 90
1153
 91
0
280
0
281
0
  0
CLASS
  1
TABLESTYLE
  2
AcDbTableStyle
  3
ObjectDBX Classes
 90
4095
 91
0
280
0
281
0
  0
CLASS
  1
MLEADERSTYLE
  2
AcDbMLeaderStyle
  3
ACDB_MLEADERSTYLE_CLASS
 90
4095
 91
0
280
0
281
0
  0
CLASS
  1
DICTIONARYVAR
  2
AcDbDictionaryVar
  3
ObjectDBX Classes
 90
0
 91
0
280
0
281
0
  0
CLASS
  1
CELLSTYLEMAP
  2
AcDbCellStyleMap
  3
ObjectDBX Classes
 90
1152
 91
0
280
0
281
0
  0
CLASS
  1
MENTALRAYRENDERSETTINGS
  2
AcDbMentalRayRenderSettings
  3
SCENEOE
 90
1024
 91
0
280
0
281
0
  0
CLASS
  1
ACDBDETAILVIEWSTYLE
  2
AcDbDetailViewStyle
  3
ObjectDBX Classes
 90
1025
 91
0
280
0
281
0
  0
CLASS
  1
ACDBSECTIONVIEWSTYLE
  2
AcDbSectionViewStyle
  3
ObjectDBX Classes
 90
1025
 91
0
280
0
281
0
  0
CLASS
  1
RASTERVARIABLES
  2
AcDbRasterVariables
  3
ISM
 90
0
 91
0
280
0
281
0
  0
CLASS
  1
LAYOUT
  2
AcDbLayout
  3
ObjectDBX Classes
 90
0
 91
0
280
0
281
0
  0
CLASS
  1
ACDBPLACEHOLDER
  2
AcDbPlaceHolder
  3
ObjectDBX Classes
 90
0
 91
0
280
0
281
0
  0
ENDSEC
  0
SECTION
  2
TABLES
  0
TABLE
  2
VPORT
  5
8
330
0
100
AcDbSymbolTable
 70
1
  0
VPORT
  5
23
330
8
100
AcDbSymbolTableRecord
100
AcDbViewportTableRecord
  2
*Active
 70
0
 10
0.0
 20
0.0
 11
1.0
 21
1.0
 12
0.0
 22
0.0
 13
0.0
 23
0.0
 14
0.5
 24
0.5
 15
0.5
 25
0.5
 16
0.0
 26
0.0
 36
1.0
 17
0.0
 27
0.0
 37
0.0
 40
1000.0
 41
1.34
 42
50.0
 43
0.0
 44
0.0
 50
0.0
 51
0.0
 71
0
 72
1000
 73
1
 74
3
 75
0
 76
0
 77
0
 78
0
281
0
 65
0
146
0.0
  0
ENDTAB
  0
TABLE
  2
LTYPE
  5
2
330
0
100
AcDbSymbolTable
 70
22
  0
LTYPE
  5
24
330
2
100
AcDbSymbolTableRecord
100
AcDbLinetypeTableRecord
  2
ByBlock
 70
0
  3

 72
65
 73
0
 40
0.0
  0
LTYPE
  5
25
330
2
100
AcDbSymbolTableRecord
100
AcDbLinetypeTableRecord
  2
ByLayer
 70
0
  3

 72
65
 73
0
 40
0.0
  0
LTYPE
  5
26
330
2
100
AcDbSymbolTableRecord
100
AcDbLinetypeTableRecord
  2
Continuous
 70
0
  3

 72
65
 73
0
 40
0.0
  0
LTYPE
  5
2F
330
2
100
AcDbSymbolTableRecord
100
AcDbLinetypeTableRecord
  2
CENTER
 70
0
  3
Center ____ _ ____ _ ____ _ ____ _ ____ _ ____
 72
65
 73
4
 40
5.08
 49
3.175
 74
0
 49
-0.635
 74
0
 49
0.635
 74
0
 49
-0.635
 74
0
  0
LTYPE
  5
30
330
2
100
AcDbSymbolTableRecord
100
AcDbLinetypeTableRecord
  2
CENTERX2
 70
0
  3
Center (2x) ________  __  ________  __  ________
 72
65
 73
4
 40
8.89
 49
6.35
 74
0
 49
-0.635
 74
0
 49
1.27
 74
0
 49
-0.635
 74
0
  0
LTYPE
  5
31
330
2
100
AcDbSymbolTableRecord
100
AcDbLinetypeTableRecord
  2
CENTER2
 70
0
  3
Center (.5x) ____ _ ____ _ ____ _ ____ _ ____
 72
65
 73
4
 40
2.54
 49
1.587
 74
0
 49
-0.318
 74
0
 49
0.318
 74
0
 49
-0.318
 74
0
  0
LTYPE
  5
32
330
2
100
AcDbSymbolTableRecord
100
AcDbLinetypeTableRecord
  2
DASHED
 70
0
  3
Dashed __ __ __ __ __ __ __ __ __ __ __ __ __ _
 72
65
 73
2
 40
1.524
 49
1.27
 74
0
 49
-0.254
 74
0
  0
LTYPE
  5
33
330
2
100
AcDbSymbolTableRecord
100
AcDbLinetypeTableRecord
  2
DASHEDX2
 70
0
  3
Dashed (2x) ____  ____  ____  ____  ____  ____
 72
65
 73
2
 40
3.048
 49
2.54
 74
0
 49
-0.508
 74
0
  0
LTYPE
  5
34
330
2
100
AcDbSymbolTableRecord
100
AcDbLinetypeTableRecord
  2
DASHED2
 70
0
  3
Dashed (.5x) _ _ _ _ _ _ _ _ _ _ _ _ _ _
 72
65
 73
2
 40
0.762
 49
0.635
 74
0
 49
-0.127
 74
0
  0
LTYPE
  5
35
330
2
100
AcDbSymbolTableRecord
100
AcDbLinetypeTableRecord
  2
PHANTOM
 70
0
  3
Phantom ______  __  __  ______  __  __  ______
 72
65
 73
6
 40
6.35
 49
3.175
 74
0
 49
-0.635
 74
0
 49
0.635
 74
0
 49
-0.635
 74
0
 49
0.635
 74
0
 49
-0.635
 74
0
  0
LTYPE
  5
36
330
2
100
AcDbSymbolTableRecord
100
AcDbLinetypeTableRecord
  2
PHANTOMX2
 70
0
  3
Phantom (2x)____________    ____    ____    ____________
 72
65
 73
6
 40
10.795
 49
6.35
 74
0
 49
-0.635
 74
0
 49
1.27
 74
0
 49
-0.635
 74
0
 49
1.27
 74
0
 49
-0.635
 74
0
  0
LTYPE
  5
37
330
2
100
AcDbSymbolTableRecord
100
AcDbLinetypeTableRecord
  2
PHANTOM2
 70
0
  3
Phantom (.5x) ___ _ _ ___ _ _ ___ _ _ ___ _ _ ___
 72
65
 73
6
 40
3.175
 49
1.587
 74
0
 49
-0.318
 74
0
 49
0.318
 74
0
 49
-0.318
 74
0
 49
0.318
 74
0
 49
-0.318
 74
0
  0
LTYPE
  5
38
330
2
100
AcDbSymbolTableRecord
100
AcDbLinetypeTableRecord
  2
DASHDOT
 70
0
  3
Dash dot __ . __ . __ . __ . __ . __ . __ . __
 72
65
 73
4
 40
3.556
 49
2.54
 74
0
 49
-0.508
 74
0
 49
0.0
 74
0
 49
-0.508
 74
0
  0
LTYPE
  5
39
330
2
100
AcDbSymbolTableRecord
100
AcDbLinetypeTableRecord
  2
DASHDOTX2
 70
0
  3
Dash dot (2x) ____  .  ____  .  ____  .  ____
 72
65
 73
4
 40
6.096
 49
5.08
 74
0
 49
-0.508
 74
0
 49
0.0
 74
0
 49
-0.508
 74
0
  0
LTYPE
  5
3A
330
2
100
AcDbSymbolTableRecord
100
AcDbLinetypeTableRecord
  2
DASHDOT2
 70
0
  3
Dash dot (.5x) _ . _ . _ . _ . _ . _ . _ . _
 72
65
 73
4
 40
1.778
 49
1.27
 74
0
 49
-0.254
 74
0
 49
0.0
 74
0
 49
-0.254
 74
0
  0
LTYPE
  5
3B
330
2
100
AcDbSymbolTableRecord
100
AcDbLinetypeTableRecord
  2
DOT
 70
0
  3
Dot .  .  .  .  .  .  .  .  .  .  .  .  .  .  .  .
 72
65
 73
2
 40
0.508
 49
0.0
 74
0
 49
-0.508
 74
0
  0
LTYPE
  5
3C
330
2
100
AcDbSymbolTableRecord
100
AcDbLinetypeTableRecord
  2
DOTX2
 70
0
  3
Dot (2x) .    .    .    .    .    .    .    . 
 72
65
 73
2
 40
1.016
 49
0.0
 74
0
 49
-1.016
 74
0
  0
LTYPE
  5
3D
330
2
100
AcDbSymbolTableRecord
100
AcDbLinetypeTableRecord
  2
DOT2
 70
0
  3
Dot (.5) . . . . . . . . . . . . . . . . . . . 
 72
65
 73
2
 40
0.254
 49
0.0
 74
0
 49
-0.254
 74
0
  0
LTYPE
  5
3E
330
2
100
AcDbSymbolTableRecord
100
AcDbLinetypeTableRecord
  2
DIVIDE
 70
0
  3
Divide __ . . __ . . __ . . __ . . __ . . __
 72
65
 73
6
 40
4.064
 49
2.54
 74
0
 49
-0.508
 74
0
 49
0.0
 74
0
 49
-0.508
 74
0
 49
0.0
 74
0
 49
-0.508
 74
0
  0
LTYPE
  5
3F
330
2
100
AcDbSymbolTableRecord
100
AcDbLinetypeTableRecord
  2
DIVIDEX2
 70
0
  3
Divide (2x) ____  . .  ____  . .  ____  . .  ____
 72
65
 73
6
 40
6.604
 49
5.08
 74
0
 49
-0.508
 74
0
 49
0.0
 74
0
 49
-0.508
 74
0
 49
0.0
 74
0
 49
-0.508
 74
0
  0
LTYPE
  5
40
330
2
100
AcDbSymbolTableRecord
100
AcDbLinetypeTableRecord
  2
DIVIDE2
 70
0
  3
Divide(.5x) _ . _ . _ . _ . _ . _ . _ . _
 72
65
 73
6
 40
2.032
 49
1.27
 74
0
 49
-0.254
 74
0
 49
0.0
 74
0
 49
-0.254
 74
0
 49
0.0
 74
0
 49
-0.254
 74
0
  0
LTYPE
  5
90
330
2
100
AcDbSymbolTableRecord
100
AcDbLinetypeTableRecord
  2
KESIK
 70
0
  3

 72
65
 73
2
 40
3.0
 49
2.0
 74
0
 49
-1.0
 74
0
  0
ENDTAB
  0
TABLE
  2
LAYER
  5
1
330
0
100
AcDbSymbolTable
 70
8
  0
LAYER
  5
27
330
1
100
AcDbSymbolTableRecord
100
AcDbLayerTableRecord
  2
0
 70
0
 62
7
  6
Continuous
370
-3
390
13
347
21
  0
LAYER
  5
28
330
1
100
AcDbSymbolTableRecord
100
AcDbLayerTableRecord
  2
Defpoints
 70
0
 62
7
  6
Continuous
290
0
370
-3
390
13
347
21
  0
LAYER
  5
8A
330
1
100
AcDbSymbolTableRecord
100
AcDbLayerTableRecord
  2
GORUNEN
 70
0
 62
7
  6
Continuous
370
-3
390
13
347
21
  0
LAYER
  5
8B
330
1
100
AcDbSymbolTableRecord
100
AcDbLayerTableRecord
  2
GIZLI
 70
0
 62
8
  6
KESIK
370
-3
390
13
347
21
  0
LAYER
  5
8C
330
1
100
AcDbSymbolTableRecord
100
AcDbLayerTableRecord
  2
OLCU
 70
0
 62
4
  6
Continuous
370
-3
390
13
347
21
  0
LAYER
  5
8D
330
1
100
AcDbSymbolTableRecord
100
AcDbLayerTableRecord
  2
YAZI
 70
0
 62
3
  6
Continuous
370
-3
390
13
347
21
  0
LAYER
  5
8E
330
1
100
AcDbSymbolTableRecord
100
AcDbLayerTableRecord
  2
EKSEN
 70
0
 62
1
  6
Continuous
370
-3
390
13
347
21
  0
LAYER
  5
8F
330
1
100
AcDbSymbolTableRecord
100
AcDbLayerTableRecord
  2
CERCEVE
 70
0
 62
5
  6
Continuous
370
-3
390
13
347
21
  0
ENDTAB
  0
TABLE
  2
STYLE
  5
5
330
0
100
AcDbSymbolTable
 70
26
  0
STYLE
  5
29
330
5
100
AcDbSymbolTableRecord
100
AcDbTextStyleTableRecord
  2
Standard
 70
0
 40
0.0
 41
1.0
 50
0.0
 71
0
 42
2.5
  3
txt
  4

  0
STYLE
  5
41
330
5
100
AcDbSymbolTableRecord
100
AcDbTextStyleTableRecord
  2
OpenSans-Light
 70
0
 40
0.0
 41
1.0
 50
0.0
 71
0
 42
2.5
  3
OpenSans-Light.ttf
  4

  0
STYLE
  5
42
330
5
100
AcDbSymbolTableRecord
100
AcDbTextStyleTableRecord
  2
OpenSans-Light-Italic
 70
0
 40
0.0
 41
1.0
 50
0.0
 71
0
 42
2.5
  3
OpenSans-LightItalic.ttf
  4

  0
STYLE
  5
43
330
5
100
AcDbSymbolTableRecord
100
AcDbTextStyleTableRecord
  2
OpenSans
 70
0
 40
0.0
 41
1.0
 50
0.0
 71
0
 42
2.5
  3
OpenSans-Regular.ttf
  4

  0
STYLE
  5
44
330
5
100
AcDbSymbolTableRecord
100
AcDbTextStyleTableRecord
  2
OpenSans-Italic
 70
0
 40
0.0
 41
1.0
 50
0.0
 71
0
 42
2.5
  3
OpenSans-Italic.ttf
  4

  0
STYLE
  5
45
330
5
100
AcDbSymbolTableRecord
100
AcDbTextStyleTableRecord
  2
OpenSans-SemiBold
 70
0
 40
0.0
 41
1.0
 50
0.0
 71
0
 42
2.5
  3
OpenSans-SemiBold.ttf
  4

  0
STYLE
  5
46
330
5
100
AcDbSymbolTableRecord
100
AcDbTextStyleTableRecord
  2
OpenSans-SemiBoldItalic
 70
0
 40
0.0
 41
1.0
 50
0.0
 71
0
 42
2.5
  3
OpenSans-SemiBoldItalic.ttf
  4

  0
STYLE
  5
47
330
5
100
AcDbSymbolTableRecord
100
AcDbTextStyleTableRecord
  2
OpenSans-Bold
 70
0
 40
0.0
 41
1.0
 50
0.0
 71
0
 42
2.5
  3
OpenSans-Bold.ttf
  4

  0
STYLE
  5
48
330
5
100
AcDbSymbolTableRecord
100
AcDbTextStyleTableRecord
  2
OpenSans-BoldItalic
 70
0
 40
0.0
 41
1.0
 50
0.0
 71
0
 42
2.5
  3
OpenSans-BoldItalic.ttf
  4

  0
STYLE
  5
49
330
5
100
AcDbSymbolTableRecord
100
AcDbTextStyleTableRecord
  2
OpenSans-ExtraBold
 70
0
 40
0.0
 41
1.0
 50
0.0
 71
0
 42
2.5
  3
OpenSans-ExtraBold.ttf
  4

  0
STYLE
  5
4A
330
5
100
AcDbSymbolTableRecord
100
AcDbTextStyleTableRecord
  2
OpenSans-ExtraBoldItalic
 70
0
 40
0.0
 41
1.0
 50
0.0
 71
0
 42
2.5
  3
OpenSans-ExtraBoldItalic.ttf
  4

  0
STYLE
  5
4B
330
5
100
AcDbSymbolTableRecord
100
AcDbTextStyleTableRecord
  2
OpenSansCondensed-Bold
 70
0
 40
0.0
 41
1.0
 50
0.0
 71
0
 42
2.5
  3
OpenSansCondensed-Bold.ttf
  4

  0
STYLE
  5
4C
330
5
100
AcDbSymbolTableRecord
100
AcDbTextStyleTableRecord
  2
OpenSansCondensed-Light
 70
0
 40
0.0
 41
1.0
 50
0.0
 71
0
 42
2.5
  3
OpenSansCondensed-Light.ttf
  4

  0
STYLE
  5
4D
330
5
100
AcDbSymbolTableRecord
100
AcDbTextStyleTableRecord
  2
OpenSansCondensed-Italic
 70
0
 40
0.0
 41
1.0
 50
0.0
 71
0
 42
2.5
  3
OpenSansCondensed-LightItalic.ttf
  4

  0
STYLE
  5
4E
330
5
100
AcDbSymbolTableRecord
100
AcDbTextStyleTableRecord
  2
LiberationSans
 70
0
 40
0.0
 41
1.0
 50
0.0
 71
0
 42
2.5
  3
LiberationSans-Regular.ttf
  4

  0
STYLE
  5
4F
330
5
100
AcDbSymbolTableRecord
100
AcDbTextStyleTableRecord
  2
LiberationSans-Bold
 70
0
 40
0.0
 41
1.0
 50
0.0
 71
0
 42
2.5
  3
LiberationSans-Bold.ttf
  4

  0
STYLE
  5
50
330
5
100
AcDbSymbolTableRecord
100
AcDbTextStyleTableRecord
  2
LiberationSans-BoldItalic
 70
0
 40
0.0
 41
1.0
 50
0.0
 71
0
 42
2.5
  3
LiberationSans-BoldItalic.ttf
  4

  0
STYLE
  5
51
330
5
100
AcDbSymbolTableRecord
100
AcDbTextStyleTableRecord
  2
LiberationSans-Italic
 70
0
 40
0.0
 41
1.0
 50
0.0
 71
0
 42
2.5
  3
LiberationSans-Italic.ttf
  4

  0
STYLE
  5
52
330
5
100
AcDbSymbolTableRecord
100
AcDbTextStyleTableRecord
  2
LiberationSerif
 70
0
 40
0.0
 41
1.0
 50
0.0
 71
0
 42
2.5
  3
LiberationSerif-Regular.ttf
  4

  0
STYLE
  5
53
330
5
100
AcDbSymbolTableRecord
100
AcDbTextStyleTableRecord
  2
LiberationSerif-Bold
 70
0
 40
0.0
 41
1.0
 50
0.0
 71
0
 42
2.5
  3
LiberationSerif-Bold.ttf
  4

  0
STYLE
  5
54
330
5
100
AcDbSymbolTableRecord
100
AcDbTextStyleTableRecord
  2
LiberationSerif-BoldItalic
 70
0
 40
0.0
 41
1.0
 50
0.0
 71
0
 42
2.5
  3
LiberationSerif-BoldItalic.ttf
  4

  0
STYLE
  5
55
330
5
100
AcDbSymbolTableRecord
100
AcDbTextStyleTableRecord
  2
LiberationSerif-Italic
 70
0
 40
0.0
 41
1.0
 50
0.0
 71
0
 42
2.5
  3
LiberationSerif-Italic.ttf
  4

  0
STYLE
  5
56
330
5
100
AcDbSymbolTableRecord
100
AcDbTextStyleTableRecord
  2
LiberationMono
 70
0
 40
0.0
 41
1.0
 50
0.0
 71
0
 42
2.5
  3
LiberationMono-Regular.ttf
  4

  0
STYLE
  5
57
330
5
100
AcDbSymbolTableRecord
100
AcDbTextStyleTableRecord
  2
LiberationMono-Bold
 70
0
 40
0.0
 41
1.0
 50
0.0
 71
0
 42
2.5
  3
LiberationMono-Bold.ttf
  4

  0
STYLE
  5
58
330
5
100
AcDbSymbolTableRecord
100
AcDbTextStyleTableRecord
  2
LiberationMono-BoldItalic
 70
0
 40
0.0
 41
1.0
 50
0.0
 71
0
 42
2.5
  3
LiberationMono-BoldItalic.ttf
  4

  0
STYLE
  5
59
330
5
100
AcDbSymbolTableRecord
100
AcDbTextStyleTableRecord
  2
LiberationMono-Italic
 70
0
 40
0.0
 41
1.0
 50
0.0
 71
0
 42
2.5
  3
LiberationMono-Italic.ttf
  4

  0
ENDTAB
  0
TABLE
  2
VIEW
  5
7
330
0
100
AcDbSymbolTable
 70
0
  0
ENDTAB
  0
TABLE
  2
UCS
  5
6
330
0
100
AcDbSymbolTable
 70
0
  0
ENDTAB
  0
TABLE
  2
APPID
  5
3
330
0
100
AcDbSymbolTable
 70
3
  0
APPID
  5
2A
330
3
100
AcDbSymbolTableRecord
100
AcDbRegAppTableRecord
  2
ACAD
 70
0
  0
APPID
  5
1DA
330
3
100
AcDbSymbolTableRecord
100
AcDbRegAppTableRecord
  2
HATCHBACKGROUNDCOLOR
 70
0
  0
APPID
  5
1DB
330
3
100
AcDbSymbolTableRecord
100
AcDbRegAppTableRecord
  2
EZDXF
 70
0
  0
ENDTAB
  0
TABLE
  2
DIMSTYLE
  5
4
330
0
100
AcDbSymbolTable
 70
12
100
AcDbDimStyleTable
  0
DIMSTYLE
105
2B
330
4
100
AcDbSymbolTableRecord
100
AcDbDimStyleTableRecord
  2
Standard
 70
0
 40
1.0
 41
2.5
 42
0.625
 43
3.75
 44
1.25
 45
0.0
 46
0.0
 47
0.0
 48
0.0
 49
2.5
140
2.5
141
2.5
142
0.0
143
0.03937007874
144
1.0
145
0.0
146
1.0
147
0.625
148
0.0
 69
0
 70
0
 71
0
 72
0
 73
0
 74
0
 75
0
 76
0
 77
1
 78
8
 79
3
170
0
171
3
172
1
173
0
174
0
175
0
176
0
177
0
178
0
179
2
271
2
272
2
273
2
274
3
275
0
276
0
277
2
278
44
279
0
280
0
281
0
282
0
283
0
284
8
285
0
286
0
288
0
289
3
290
0
371
-2
372
-2
  0
DIMSTYLE
105
73
330
4
100
AcDbSymbolTableRecord
100
AcDbDimStyleTableRecord
  2
EZDXF
 70
0
 40
1.0
 41
0.175
 42
0.125
 43
3.75
 44
0.375
 45
0.0
 46
0.0
 47
0.0
 48
0.0
 49
2.5
140
0.25
141
2.5
142
0.0
143
0.03937007874
144
100.0
145
0.0
146
0.5
147
0.1
148
0.0
 69
0
 70
0
 71
0
 72
0
 73
0
 74
0
 75
0
 76
0
 77
1
 78
12
 79
3
170
0
171
3
172
1
173
0
174
0
175
0
176
0
177
0
178
0
179
2
271
2
272
2
273
2
274
3
275
0
276
0
277
2
278
46
279
2
280
0
281
0
282
0
283
0
284
8
285
0
286
0
288
1
289
3
290
0
340
4C
342
74
371
-2
372
-2
  0
DIMSTYLE
105
7C
330
4
100
AcDbSymbolTableRecord
100
AcDbDimStyleTableRecord
  2
EZ_M_100_H25_CM
 70
0
 40
1.0
 41
0.25
 42
0.125
 43
3.75
 44
0.375
 45
0.0
 46
0.0
 47
0.0
 48
0.0
 49
2.5
140
0.25
141
2.5
142
0.125
143
0.03937007874
144
100.0
145
0.0
146
0.5
147
0.1
148
0.0
 69
0
 70
0
 71
0
 72
0
 73
0
 74
0
 75
0
 76
0
 77
1
 78
12
 79
3
170
0
171
3
172
1
173
0
174
0
175
0
176
0
177
0
178
0
179
2
271
2
272
2
273
2
274
3
275
0
276
0
277
2
278
46
279
2
280
0
281
0
282
0
283
0
284
8
285
0
286
0
288
1
289
3
290
0
340
4C
371
-2
372
-2
  0
DIMSTYLE
105
7D
330
4
100
AcDbSymbolTableRecord
100
AcDbDimStyleTableRecord
  2
EZ_M_50_H25_CM
 70
0
 40
1.0
 41
0.125
 42
0.0625
 43
3.75
 44
0.1875
 45
0.0
 46
0.0
 47
0.0
 48
0.0
 49
2.5
140
0.125
141
2.5
142
0.0625
143
0.03937007874
144
100.0
145
0.0
146
0.5
147
0.05
148
0.0
 69
0
 70
0
 71
0
 72
0
 73
0
 74
0
 75
0
 76
0
 77
1
 78
12
 79
3
170
0
171
3
172
1
173
0
174
0
175
0
176
0
177
0
178
0
179
2
271
2
272
2
273
2
274
3
275
0
276
0
277
2
278
46
279
2
280
0
281
0
282
0
283
0
284
8
285
0
286
0
288
1
289
3
290
0
340
4C
371
-2
372
-2
  0
DIMSTYLE
105
7E
330
4
100
AcDbSymbolTableRecord
100
AcDbDimStyleTableRecord
  2
EZ_M_25_H25_CM
 70
0
 40
1.0
 41
0.0625
 42
0.03125
 43
3.75
 44
0.09375
 45
0.0
 46
0.0
 47
0.0
 48
0.0
 49
2.5
140
0.0625
141
2.5
142
0.03125
143
0.03937007874
144
100.0
145
0.0
146
0.5
147
0.025
148
0.0
 69
0
 70
0
 71
0
 72
0
 73
0
 74
0
 75
0
 76
0
 77
1
 78
12
 79
3
170
0
171
3
172
1
173
0
174
0
175
0
176
0
177
0
178
0
179
2
271
2
272
2
273
2
274
3
275
0
276
0
277
2
278
46
279
2
280
0
281
0
282
0
283
0
284
8
285
0
286
0
288
1
289
3
290
0
340
4C
371
-2
372
-2
  0
DIMSTYLE
105
7F
330
4
100
AcDbSymbolTableRecord
100
AcDbDimStyleTableRecord
  2
EZ_M_20_H25_CM
 70
0
 40
1.0
 41
0.05
 42
0.025
 43
3.75
 44
0.07500000000000001
 45
0.0
 46
0.0
 47
0.0
 48
0.0
 49
2.5
140
0.05
141
2.5
142
0.025
143
0.03937007874
144
100.0
145
0.0
146
0.5
147
0.020000000000000004
148
0.0
 69
0
 70
0
 71
0
 72
0
 73
0
 74
0
 75
0
 76
0
 77
1
 78
12
 79
3
170
0
171
3
172
1
173
0
174
0
175
0
176
0
177
0
178
0
179
2
271
2
272
2
273
2
274
3
275
0
276
0
277
2
278
46
279
2
280
0
281
0
282
0
283
0
284
8
285
0
286
0
288
1
289
3
290
0
340
4C
371
-2
372
-2
  0
DIMSTYLE
105
80
330
4
100
AcDbSymbolTableRecord
100
AcDbDimStyleTableRecord
  2
EZ_M_10_H25_CM
 70
0
 40
1.0
 41
0.025
 42
0.0125
 43
3.75
 44
0.037500000000000006
 45
0.0
 46
0.0
 47
0.0
 48
0.0
 49
2.5
140
0.025
141
2.5
142
0.0125
143
0.03937007874
144
100.0
145
0.0
146
0.5
147
0.010000000000000002
148
0.0
 69
0
 70
0
 71
0
 72
0
 73
0
 74
0
 75
0
 76
0
 77
1
 78
12
 79
3
170
0
171
3
172
1
173
0
174
0
175
0
176
0
177
0
178
0
179
2
271
2
272
2
273
2
274
3
275
0
276
0
277
2
278
46
279
2
280
0
281
0
282
0
283
0
284
8
285
0
286
0
288
1
289
3
290
0
340
4C
371
-2
372
-2
  0
DIMSTYLE
105
81
330
4
100
AcDbSymbolTableRecord
100
AcDbDimStyleTableRecord
  2
EZ_M_5_H25_CM
 70
0
 40
1.0
 41
0.0125
 42
0.00625
 43
3.75
 44
0.018750000000000003
 45
0.0
 46
0.0
 47
0.0
 48
0.0
 49
2.5
140
0.0125
141
2.5
142
0.00625
143
0.03937007874
144
100.0
145
0.0
146
0.5
147
0.005000000000000001
148
0.0
 69
0
 70
0
 71
0
 72
0
 73
0
 74
0
 75
0
 76
0
 77
1
 78
12
 79
3
170
0
171
3
172
1
173
0
174
0
175
0
176
0
177
0
178
0
179
2
271
2
272
2
273
2
274
3
275
0
276
0
277
2
278
46
279
2
280
0
281
0
282
0
283
0
284
8
285
0
286
0
288
1
289
3
290
0
340
4C
371
-2
372
-2
  0
DIMSTYLE
105
82
330
4
100
AcDbSymbolTableRecord
100
AcDbDimStyleTableRecord
  2
EZ_M_1_H25_CM
 70
0
 40
1.0
 41
0.0025
 42
0.00125
 43
3.75
 44
0.00375
 45
0.0
 46
0.0
 47
0.0
 48
0.0
 49
2.5
140
0.0025
141
2.5
142
0.00125
143
0.03937007874
144
100.0
145
0.0
146
0.5
147
0.001
148
0.0
 69
0
 70
0
 71
0
 72
0
 73
0
 74
0
 75
0
 76
0
 77
1
 78
12
 79
3
170
0
171
3
172
1
173
0
174
0
175
0
176
0
177
0
178
0
179
2
271
2
272
2
273
2
274
3
275
0
276
0
277
2
278
46
279
2
280
0
281
0
282
0
283
0
284
8
285
0
286
0
288
1
289
3
290
0
340
4C
371
-2
372
-2
  0
DIMSTYLE
105
83
330
4
100
AcDbSymbolTableRecord
100
AcDbDimStyleTableRecord
  2
EZ_RADIUS
 70
0
 40
1.0
 41
0.25
 42
0.125
 43
3.75
 44
0.375
 45
0.0
 46
0.0
 47
0.0
 48
0.0
 49
2.5
140
0.25
141
0.0
142
0.0
143
0.03937007874
144
100.0
145
0.0
146
0.5
147
0.1
148
0.0
 69
0
 70
0
 71
0
 72
0
 73
0
 74
0
 75
0
 76
0
 77
1
 78
12
 79
3
170
0
171
3
172
0
173
0
174
0
175
0
176
0
177
0
178
0
179
2
271
2
272
2
273
2
274
3
275
0
276
0
277
2
278
46
279
1
280
0
281
0
282
0
283
0
284
8
285
0
286
0
288
1
289
3
290
0
340
4C
342
84
371
-2
372
-2
  0
DIMSTYLE
105
88
330
4
100
AcDbSymbolTableRecord
100
AcDbDimStyleTableRecord
  2
EZ_RADIUS_INSIDE
 70
0
 40
1.0
 41
0.25
 42
0.125
 43
3.75
 44
0.375
 45
0.0
 46
0.0
 47
0.0
 48
0.0
 49
2.5
140
0.25
141
0.0
142
0.0
143
0.03937007874
144
100.0
145
0.0
146
0.5
147
0.1
148
0.0
 69
0
 70
0
 71
0
 72
0
 73
0
 74
0
 75
0
 76
0
 77
0
 78
12
 79
3
170
0
171
3
172
0
173
0
174
1
175
0
176
0
177
0
178
0
179
2
271
2
272
2
273
2
274
3
275
0
276
0
277
2
278
46
279
0
280
0
281
0
282
0
283
0
284
8
285
0
286
0
288
1
289
0
290
0
340
4C
342
84
371
-2
372
-2
  0
DIMSTYLE
105
89
330
4
100
AcDbSymbolTableRecord
100
AcDbDimStyleTableRecord
  2
EZ_CURVED
 70
0
 40
1.0
 41
0.25
 42
0.125
 43
3.75
 44
0.375
 45
0.0
 46
0.0
 47
0.0
 48
0.0
 49
2.5
140
0.25
141
2.5
142
0.0
143
0.03937007874
144
100.0
145
0.0
146
0.5
147
0.1
148
0.0
 69
0
 70
0
 71
0
 72
0
 73
0
 74
0
 75
0
 76
0
 77
1
 78
12
 79
2
 90
2
170
0
171
3
172
1
173
0
174
0
175
0
176
0
177
0
178
0
179
2
271
2
272
2
273
2
274
3
275
0
276
0
277
2
278
46
279
2
280
0
281
0
282
0
283
0
284
8
285
0
286
0
288
1
289
3
290
0
340
4C
371
-2
372
-2
  0
ENDTAB
  0
TABLE
  2
BLOCK_RECORD
  5
9
330
0
100
AcDbSymbolTable
 70
11
  0
BLOCK_RECORD
  5
17
330
9
100
AcDbSymbolTableRecord
100
AcDbBlockTableRecord
  2
*Model_Space
340
1A
 70
0
280
1
281
0
  0
BLOCK_RECORD
  5
1B
330
9
100
AcDbSymbolTableRecord
100
AcDbBlockTableRecord
  2
*Paper_Space
340
1E
 70
0
280
1
281
0
  0
BLOCK_RECORD
  5
74
330
9
100
AcDbSymbolTableRecord
100
AcDbBlockTableRecord
  2
_ARCHTICK
340
0
 70
0
280
1
281
0
  0
BLOCK_RECORD
  5
78
330
9
100
AcDbSymbolTableRecord
100
AcDbBlockTableRecord
  2
_CLOSEDFILLED
340
0
 70
0
280
1
281
0
  0
BLOCK_RECORD
  5
84
330
9
100
AcDbSymbolTableRecord
100
AcDbBlockTableRecord
  2
_CLOSEDBLANK
340
0
 70
0
280
1
281
0
  0
BLOCK_RECORD
  5
DB
330
9
100
AcDbSymbolTableRecord
100
AcDbBlockTableRecord
  2
*D1
340
0
 70
0
280
1
281
0
  0
BLOCK_RECORD
  5
EA
330
9
100
AcDbSymbolTableRecord
100
AcDbBlockTableRecord
  2
*D2
340
0
 70
0
280
1
281
0
  0
BLOCK_RECORD
  5
132
330
9
100
AcDbSymbolTableRecord
100
AcDbBlockTableRecord
  2
*D3
340
0
 70
0
280
1
281
0
  0
BLOCK_RECORD
  5
141
330
9
100
AcDbSymbolTableRecord
100
AcDbBlockTableRecord
  2
*D4
340
0
 70
0
280
1
281
0
  0
BLOCK_RECORD
  5
1B1
330
9
100
AcDbSymbolTableRecord
100
AcDbBlockTableRecord
  2
*D5
340
0
 70
0
280
1
281
0
  0
BLOCK_RECORD
  5
1C0
330
9
100
AcDbSymbolTableRecord
100
AcDbBlockTableRecord
  2
*D6
340
0
 70
0
280
1
281
0
  0
ENDTAB
  0
ENDSEC
  0
SECTION
  2
BLOCKS
  0
BLOCK
  5
18
330
17
100
AcDbEntity
  8
0
100
AcDbBlockBegin
  2
*Model_Space
 70
0
 10
0.0
 20
0.0
 30
0.0
  3
*Model_Space
  1

  0
ENDBLK
  5
19
330
17
100
AcDbEntity
  8
0
100
AcDbBlockEnd
  0
BLOCK
  5
1C
330
1B
100
AcDbEntity
  8
0
100
AcDbBlockBegin
  2
*Paper_Space
 70
0
 10
0.0
 20
0.0
 30
0.0
  3
*Paper_Space
  1

  0
ENDBLK
  5
1D
330
1B
100
AcDbEntity
  8
0
100
AcDbBlockEnd
  0
BLOCK
  5
75
330
74
100
AcDbEntity
  8
0
100
AcDbBlockBegin
  2
_ARCHTICK
 70
0
 10
0.0
 20
0.0
 30
0.0
  3
_ARCHTICK
  1

  0
LWPOLYLINE
  5
77
330
74
100
AcDbEntity
  8
0
  6
BYBLOCK
 62
0
100
AcDbPolyline
 90
2
 70
0
 43
0.15
 10
-0.5
 20
-0.5
 10
0.5
 20
0.5
  0
ENDBLK
  5
76
330
74
100
AcDbEntity
  8
0
100
AcDbBlockEnd
  0
BLOCK
  5
79
330
78
100
AcDbEntity
  8
0
100
AcDbBlockBegin
  2
_CLOSEDFILLED
 70
0
 10
0.0
 20
0.0
 30
0.0
  3
_CLOSEDFILLED
  1

  0
SOLID
  5
7B
330
78
100
AcDbEntity
  8
0
  6
BYBLOCK
 62
0
100
AcDbTrace
 10
-1.0
 20
0.16439898372402537
 30
0.0
 11
0.0
 21
0.0
 31
0.0
 12
-1.0
 22
-0.16439898372402537
 32
0.0
 13
-1.0
 23
-0.16439898372402537
 33
0.0
  0
ENDBLK
  5
7A
330
78
100
AcDbEntity
  8
0
100
AcDbBlockEnd
  0
BLOCK
  5
85
330
84
100
AcDbEntity
  8
0
100
AcDbBlockBegin
  2
_CLOSEDBLANK
 70
0
 10
0.0
 20
0.0
 30
0.0
  3
_CLOSEDBLANK
  1

  0
LWPOLYLINE
  5
87
330
84
100
AcDbEntity
  8
0
  6
BYBLOCK
 62
0
100
AcDbPolyline
 90
3
 70
1
 10
-1.0
 20
0.16439898372402537
 10
0.0
 20
0.0
 10
-1.0
 20
-0.16439898372402537
  0
ENDBLK
  5
86
330
84
100
AcDbEntity
  8
0
100
AcDbBlockEnd
  0
BLOCK
  5
DC
330
DB
100
AcDbEntity
  8
0
100
AcDbBlockBegin
  2
*D1
 70
1
 10
0.0
 20
0.0
 30
0.0
  3
*D1
  1

  0
LINE
  5
DE
330
DB
100
AcDbEntity
  8
0
100
AcDbLine
 10
0.0
 20
-0.125
 30
0.0
 11
0.0
 21
-22.375
 31
0.0
  0
LINE
  5
DF
330
DB
100
AcDbEntity
  8
0
100
AcDbLine
 10
175.00000000000006
 20
-0.125
 30
0.0
 11
175.00000000000006
 21
-22.375
 31
0.0
  0
INSERT
  5
E0
330
DB
100
AcDbEntity
  8
OLCU
100
AcDbBlockReference
  2
_ARCHTICK
 10
0.0
 20
-22.0
 30
0.0
 41
0.175
 42
0.175
 50
180.0
  0
INSERT
  5
E2
330
DB
100
AcDbEntity
  8
OLCU
100
AcDbBlockReference
  2
_ARCHTICK
 10
175.00000000000006
 20
-22.0
 30
0.0
 41
0.175
 42
0.175
  0
LINE
  5
E4
330
DB
100
AcDbEntity
  8
0
100
AcDbLine
 10
0.0
 20
-22.0
 30
0.0
 11
175.00000000000006
 21
-22.0
 31
0.0
  0
MTEXT
  5
E5
330
DB
100
AcDbEntity
  8
OLCU
100
AcDbMText
 10
87.50000000000003
 20
-21.775
 30
0.0
 40
0.25
 71
5
  1
17500
  7
OpenSansCondensed-Light
  0
POINT
  5
E6
330
DB
100
AcDbEntity
  8
Defpoints
100
AcDbPoint
 10
0.0
 20
-22.0
 30
0.0
  0
POINT
  5
E7
330
DB
100
AcDbEntity
  8
Defpoints
100
AcDbPoint
 10
0.0
 20
0.0
 30
0.0
  0
POINT
  5
E8
330
DB
100
AcDbEntity
  8
Defpoints
100
AcDbPoint
 10
175.00000000000006
 20
0.0
 30
0.0
  0
ENDBLK
  5
DD
330
DB
100
AcDbEntity
  8
0
100
AcDbBlockEnd
  0
BLOCK
  5
EB
330
EA
100
AcDbEntity
  8
0
100
AcDbBlockBegin
  2
*D2
 70
1
 10
0.0
 20
0.0
 30
0.0
  3
*D2
  1

  0
LINE
  5
ED
330
EA
100
AcDbEntity
  8
0
100
AcDbLine
 10
-0.125
 20
0.0
 30
0.0
 11
-22.375
 21
0.0
 31
0.0
  0
LINE
  5
EE
330
EA
100
AcDbEntity
  8
0
100
AcDbLine
 10
-0.125
 20
5.000000000000014
 30
0.0
 11
-22.375
 21
5.000000000000014
 31
0.0
  0
INSERT
  5
EF
330
EA
100
AcDbEntity
  8
OLCU
100
AcDbBlockReference
  2
_ARCHTICK
 10
-22.0
 20
0.0
 30
0.0
 41
0.175
 42
0.175
 50
270.0
  0
INSERT
  5
F1
330
EA
100
AcDbEntity
  8
OLCU
100
AcDbBlockReference
  2
_ARCHTICK
 10
-22.0
 20
5.000000000000014
 30
0.0
 41
0.175
 42
0.175
 50
90.0
  0
LINE
  5
F3
330
EA
100
AcDbEntity
  8
0
100
AcDbLine
 10
-22.0
 20
0.0
 30
0.0
 11
-22.0
 21
5.000000000000014
 31
0.0
  0
MTEXT
  5
F4
330
EA
100
AcDbEntity
  8
OLCU
100
AcDbMText
 10
-22.225
 20
2.500000000000007
 30
0.0
 40
0.25
 71
5
  1
500
  7
OpenSansCondensed-Light
 50
90.0
  0
POINT
  5
F5
330
EA
100
AcDbEntity
  8
Defpoints
100
AcDbPoint
 10
-22.0
 20
0.0
 30
0.0
  0
POINT
  5
F6
330
EA
100
AcDbEntity
  8
Defpoints
100
AcDbPoint
 10
0.0
 20
0.0
 30
0.0
  0
POINT
  5
F7
330
EA
100
AcDbEntity
  8
Defpoints
100
AcDbPoint
 10
0.0
 20
5.000000000000014
 30
0.0
  0
ENDBLK
  5
EC
330
EA
100
AcDbEntity
  8
0
100
AcDbBlockEnd
  0
BLOCK
  5
133
330
132
100
AcDbEntity
  8
0
100
AcDbBlockBegin
  2
*D3
 70
1
 10
0.0
 20
0.0
 30
0.0
  3
*D3
  1

  0
LINE
  5
135
330
132
100
AcDbEntity
  8
0
100
AcDbLine
 10
0.0
 20
-161.62583327643893
 30
0.0
 11
0.0
 21
-183.87583327643893
 31
0.0
  0
LINE
  5
136
330
132
100
AcDbEntity
  8
0
100
AcDbLine
 10
175.00000000000009
 20
-161.62583327643893
 30
0.0
 11
175.00000000000009
 21
-183.87583327643893
 31
0.0
  0
INSERT
  5
137
330
132
100
AcDbEntity
  8
OLCU
100
AcDbBlockReference
  2
_ARCHTICK
 10
0.0
 20
-183.50083327643893
 30
0.0
 41
0.175
 42
0.175
 50
180.0
  0
INSERT
  5
139
330
132
100
AcDbEntity
  8
OLCU
100
AcDbBlockReference
  2
_ARCHTICK
 10
175.00000000000009
 20
-183.50083327643893
 30
0.0
 41
0.175
 42
0.175
  0
LINE
  5
13B
330
132
100
AcDbEntity
  8
0
100
AcDbLine
 10
0.0
 20
-183.50083327643893
 30
0.0
 11
175.00000000000009
 21
-183.50083327643893
 31
0.0
  0
MTEXT
  5
13C
330
132
100
AcDbEntity
  8
OLCU
100
AcDbMText
 10
87.50000000000004
 20
-183.27583327643893
 30
0.0
 40
0.25
 71
5
  1
17500
  7
OpenSansCondensed-Light
  0
POINT
  5
13D
330
132
100
AcDbEntity
  8
Defpoints
100
AcDbPoint
 10
0.0
 20
-183.50083327643893
 30
0.0
  0
POINT
  5
13E
330
132
100
AcDbEntity
  8
Defpoints
100
AcDbPoint
 10
0.0
 20
-161.50083327643893
 30
0.0
  0
POINT
  5
13F
330
132
100
AcDbEntity
  8
Defpoints
100
AcDbPoint
 10
175.00000000000009
 20
-161.50083327643893
 30
0.0
  0
ENDBLK
  5
134
330
132
100
AcDbEntity
  8
0
100
AcDbBlockEnd
  0
BLOCK
  5
142
330
141
100
AcDbEntity
  8
0
100
AcDbBlockBegin
  2
*D4
 70
1
 10
0.0
 20
0.0
 30
0.0
  3
*D4
  1

  0
LINE
  5
144
330
141
100
AcDbEntity
  8
0
100
AcDbLine
 10
-0.125
 20
-161.50083327643893
 30
0.0
 11
-22.375
 21
-161.50083327643893
 31
0.0
  0
LINE
  5
145
330
141
100
AcDbEntity
  8
0
100
AcDbLine
 10
-0.125
 20
-61.50083327643878
 30
0.0
 11
-22.375
 21
-61.50083327643878
 31
0.0
  0
INSERT
  5
146
330
141
100
AcDbEntity
  8
OLCU
100
AcDbBlockReference
  2
_ARCHTICK
 10
-22.0
 20
-161.50083327643893
 30
0.0
 41
0.175
 42
0.175
 50
270.0
  0
INSERT
  5
148
330
141
100
AcDbEntity
  8
OLCU
100
AcDbBlockReference
  2
_ARCHTICK
 10
-22.0
 20
-61.50083327643878
 30
0.0
 41
0.175
 42
0.175
 50
90.0
  0
LINE
  5
14A
330
141
100
AcDbEntity
  8
0
100
AcDbLine
 10
-22.0
 20
-161.50083327643893
 30
0.0
 11
-22.0
 21
-61.50083327643878
 31
0.0
  0
MTEXT
  5
14B
330
141
100
AcDbEntity
  8
OLCU
100
AcDbMText
 10
-22.225
 20
-111.50083327643885
 30
0.0
 40
0.25
 71
5
  1
10000
  7
OpenSansCondensed-Light
 50
90.0
  0
POINT
  5
14C
330
141
100
AcDbEntity
  8
Defpoints
100
AcDbPoint
 10
-22.0
 20
-161.50083327643893
 30
0.0
  0
POINT
  5
14D
330
141
100
AcDbEntity
  8
Defpoints
100
AcDbPoint
 10
0.0
 20
-161.50083327643893
 30
0.0
  0
POINT
  5
14E
330
141
100
AcDbEntity
  8
Defpoints
100
AcDbPoint
 10
0.0
 20
-61.50083327643878
 30
0.0
  0
ENDBLK
  5
143
330
141
100
AcDbEntity
  8
0
100
AcDbBlockEnd
  0
BLOCK
  5
1B2
330
1B1
100
AcDbEntity
  8
0
100
AcDbBlockBegin
  2
*D5
 70
1
 10
0.0
 20
0.0
 30
0.0
  3
*D5
  1

  0
LINE
  5
1B4
330
1B1
100
AcDbEntity
  8
0
100
AcDbLine
 10
236.50083327643887
 20
-0.125
 30
0.0
 11
236.50083327643887
 21
-22.375
 31
0.0
  0
LINE
  5
1B5
330
1B1
100
AcDbEntity
  8
0
100
AcDbLine
 10
336.50083327643887
 20
-0.125
 30
0.0
 11
336.50083327643887
 21
-22.375
 31
0.0
  0
INSERT
  5
1B6
330
1B1
100
AcDbEntity
  8
OLCU
100
AcDbBlockReference
  2
_ARCHTICK
 10
236.50083327643887
 20
-22.0
 30
0.0
 41
0.175
 42
0.175
 50
180.0
  0
INSERT
  5
1B8
330
1B1
100
AcDbEntity
  8
OLCU
100
AcDbBlockReference
  2
_ARCHTICK
 10
336.50083327643887
 20
-22.0
 30
0.0
 41
0.175
 42
0.175
  0
LINE
  5
1BA
330
1B1
100
AcDbEntity
  8
0
100
AcDbLine
 10
236.50083327643887
 20
-22.0
 30
0.0
 11
336.50083327643887
 21
-22.0
 31
0.0
  0
MTEXT
  5
1BB
330
1B1
100
AcDbEntity
  8
OLCU
100
AcDbMText
 10
286.50083327643887
 20
-21.775
 30
0.0
 40
0.25
 71
5
  1
10000
  7
OpenSansCondensed-Light
  0
POINT
  5
1BC
330
1B1
100
AcDbEntity
  8
Defpoints
100
AcDbPoint
 10
236.50083327643887
 20
-22.0
 30
0.0
  0
POINT
  5
1BD
330
1B1
100
AcDbEntity
  8
Defpoints
100
AcDbPoint
 10
236.50083327643887
 20
0.0
 30
0.0
  0
POINT
  5
1BE
330
1B1
100
AcDbEntity
  8
Defpoints
100
AcDbPoint
 10
336.50083327643887
 20
0.0
 30
0.0
  0
ENDBLK
  5
1B3
330
1B1
100
AcDbEntity
  8
0
100
AcDbBlockEnd
  0
BLOCK
  5
1C1
330
1C0
100
AcDbEntity
  8
0
100
AcDbBlockBegin
  2
*D6
 70
1
 10
0.0
 20
0.0
 30
0.0
  3
*D6
  1

  0
LINE
  5
1C3
330
1C0
100
AcDbEntity
  8
0
100
AcDbLine
 10
236.37583327643887
 20
0.0
 30
0.0
 11
214.12583327643887
 21
0.0
 31
0.0
  0
LINE
  5
1C4
330
1C0
100
AcDbEntity
  8
0
100
AcDbLine
 10
236.37583327643887
 20
5.000000000000014
 30
0.0
 11
214.12583327643887
 21
5.000000000000014
 31
0.0
  0
INSERT
  5
1C5
330
1C0
100
AcDbEntity
  8
OLCU
100
AcDbBlockReference
  2
_ARCHTICK
 10
214.50083327643887
 20
0.0
 30
0.0
 41
0.175
 42
0.175
 50
270.0
  0
INSERT
  5
1C7
330
1C0
100
AcDbEntity
  8
OLCU
100
AcDbBlockReference
  2
_ARCHTICK
 10
214.50083327643887
 20
5.000000000000014
 30
0.0
 41
0.175
 42
0.175
 50
90.0
  0
LINE
  5
1C9
330
1C0
100
AcDbEntity
  8
0
100
AcDbLine
 10
214.50083327643887
 20
0.0
 30
0.0
 11
214.50083327643887
 21
5.000000000000014
 31
0.0
  0
MTEXT
  5
1CA
330
1C0
100
AcDbEntity
  8
OLCU
100
AcDbMText
 10
214.27583327643887
 20
2.500000000000007
 30
0.0
 40
0.25
 71
5
  1
500
  7
OpenSansCondensed-Light
 50
90.0
  0
POINT
  5
1CB
330
1C0
100
AcDbEntity
  8
Defpoints
100
AcDbPoint
 10
214.50083327643887
 20
0.0
 30
0.0
  0
POINT
  5
1CC
330
1C0
100
AcDbEntity
  8
Defpoints
100
AcDbPoint
 10
236.50083327643887
 20
0.0
 30
0.0
  0
POINT
  5
1CD
330
1C0
100
AcDbEntity
  8
Defpoints
100
AcDbPoint
 10
236.50083327643887
 20
5.000000000000014
 30
0.0
  0
ENDBLK
  5
1C2
330
1C0
100
AcDbEntity
  8
0
100
AcDbBlockEnd
  0
ENDSEC
  0
SECTION
  2
ENTITIES
  0
LWPOLYLINE
  5
91
330
17
100
AcDbEntity
  8
GORUNEN
100
AcDbPolyline
 90
2
 70
0
 10
148.5
 20
7.105427357601002e-15
 10
146.5
 20
1.4210854715202004e-14
  0
LWPOLYLINE
  5
92
330
17
100
AcDbEntity
  8
GORUNEN
100
AcDbPolyline
 90
2
 70
0
 10
28.5
 20
7.105427357601002e-15
 10
146.5
 20
7.105427357601002e-15
  0
LWPOLYLINE
  5
93
330
17
100
AcDbEntity
  8
GORUNEN
100
AcDbPolyline
 90
2
 70
0
 10
28.5
 20
7.105427357601002e-15
 10
26.5
 20
7.105427357601002e-15
  0
LWPOLYLINE
  5
94
330
17
100
AcDbEntity
  8
GORUNEN
100
AcDbPolyline
 90
2
 70
0
 10
26.50000000000007
 20
7.105427357601002e-15
 10
21.50000000000007
 20
0.0
  0
LWPOLYLINE
  5
95
330
17
100
AcDbEntity
  8
GORUNEN
100
AcDbPolyline
 90
2
 70
0
 10
5.000000000000071
 20
7.105427357601002e-15
 10
21.50000000000007
 20
7.105427357601002e-15
  0
LWPOLYLINE
  5
96
330
17
100
AcDbEntity
  8
GORUNEN
100
AcDbPolyline
 90
2
 70
0
 10
5.000000000000071
 20
7.105427357601002e-15
 10
7.105427357601002e-14
 20
1.4210854715202004e-14
  0
LWPOLYLINE
  5
97
330
17
100
AcDbEntity
  8
GORUNEN
100
AcDbPolyline
 90
2
 70
0
 10
175.00000000000006
 20
1.4210854715202004e-14
 10
170.00000000000006
 20
7.105427357601002e-15
  0
LWPOLYLINE
  5
98
330
17
100
AcDbEntity
  8
GORUNEN
100
AcDbPolyline
 90
2
 70
0
 10
153.50000000000006
 20
7.105427357601002e-15
 10
170.00000000000006
 20
7.105427357601002e-15
  0
LWPOLYLINE
  5
99
330
17
100
AcDbEntity
  8
GORUNEN
100
AcDbPolyline
 90
2
 70
0
 10
153.50000000000006
 20
7.105427357601002e-15
 10
148.50000000000006
 20
1.4210854715202004e-14
  0
LWPOLYLINE
  5
9A
330
17
100
AcDbEntity
  8
GORUNEN
100
AcDbPolyline
 90
2
 70
0
 10
153.50000000000006
 20
5.000000000000007
 10
148.50000000000006
 20
5.000000000000014
  0
LWPOLYLINE
  5
9B
330
17
100
AcDbEntity
  8
GORUNEN
100
AcDbPolyline
 90
2
 70
0
 10
153.50000000000006
 20
5.000000000000007
 10
170.00000000000006
 20
5.000000000000007
  0
LWPOLYLINE
  5
9C
330
17
100
AcDbEntity
  8
GORUNEN
100
AcDbPolyline
 90
2
 70
0
 10
175.00000000000006
 20
5.000000000000014
 10
170.00000000000006
 20
5.000000000000007
  0
LWPOLYLINE
  5
9D
330
17
100
AcDbEntity
  8
GORUNEN
100
AcDbPolyline
 90
2
 70
0
 10
5.000000000000071
 20
5.000000000000007
 10
7.105427357601002e-14
 20
5.000000000000014
  0
LWPOLYLINE
  5
9E
330
17
100
AcDbEntity
  8
GORUNEN
100
AcDbPolyline
 90
2
 70
0
 10
5.000000000000071
 20
5.000000000000007
 10
21.50000000000007
 20
5.000000000000007
  0
LWPOLYLINE
  5
9F
330
17
100
AcDbEntity
  8
GORUNEN
100
AcDbPolyline
 90
2
 70
0
 10
26.50000000000007
 20
5.000000000000007
 10
21.50000000000007
 20
5.0
  0
LWPOLYLINE
  5
A0
330
17
100
AcDbEntity
  8
GORUNEN
100
AcDbPolyline
 90
2
 70
0
 10
28.5
 20
5.000000000000007
 10
26.5
 20
5.000000000000007
  0
LWPOLYLINE
  5
A1
330
17
100
AcDbEntity
  8
GORUNEN
100
AcDbPolyline
 90
2
 70
0
 10
28.5
 20
5.000000000000007
 10
146.5
 20
5.000000000000007
  0
LWPOLYLINE
  5
A2
330
17
100
AcDbEntity
  8
GORUNEN
100
AcDbPolyline
 90
2
 70
0
 10
148.5
 20
5.000000000000007
 10
146.5
 20
5.000000000000014
  0
LWPOLYLINE
  5
A3
330
17
100
AcDbEntity
  8
GORUNEN
100
AcDbPolyline
 90
2
 70
0
 10
148.50000000000006
 20
5.000000000000014
 10
148.50000000000006
 20
1.4210854715202004e-14
  0
LWPOLYLINE
  5
A4
330
17
100
AcDbEntity
  8
GORUNEN
100
AcDbPolyline
 90
2
 70
0
 10
153.50000000000006
 20
5.000000000000007
 10
153.50000000000006
 20
7.105427357601002e-15
  0
LWPOLYLINE
  5
A5
330
17
100
AcDbEntity
  8
GORUNEN
100
AcDbPolyline
 90
2
 70
0
 10
170.00000000090006
 20
5.000000000000007
 10
170.00000000090006
 20
7.105427357601002e-15
  0
LWPOLYLINE
  5
A6
330
17
100
AcDbEntity
  8
GORUNEN
100
AcDbPolyline
 90
2
 70
0
 10
175.00000000000006
 20
5.000000000000014
 10
175.00000000000006
 20
1.4210854715202004e-14
  0
LWPOLYLINE
  5
A7
330
17
100
AcDbEntity
  8
GORUNEN
100
AcDbPolyline
 90
2
 70
0
 10
7.105427357601002e-14
 20
5.000000000000014
 10
7.105427357601002e-14
 20
1.4210854715202004e-14
  0
LWPOLYLINE
  5
A8
330
17
100
AcDbEntity
  8
GORUNEN
100
AcDbPolyline
 90
2
 70
0
 10
5.000000000000071
 20
5.000000000000007
 10
5.000000000000071
 20
7.105427357601002e-15
  0
LWPOLYLINE
  5
A9
330
17
100
AcDbEntity
  8
GORUNEN
100
AcDbPolyline
 90
2
 70
0
 10
21.500000000900073
 20
5.0
 10
21.500000000900073
 20
0.0
  0
LWPOLYLINE
  5
AA
330
17
100
AcDbEntity
  8
GORUNEN
100
AcDbPolyline
 90
2
 70
0
 10
26.50000000000007
 20
5.000000000000007
 10
26.50000000000007
 20
7.105427357601002e-15
  0
LWPOLYLINE
  5
AB
330
17
100
AcDbEntity
  8
GIZLI
100
AcDbPolyline
 90
2
 70
0
 10
5.950000000000003
 20
1.4210854715202004e-14
 10
5.950000000000003
 20
5.000000000000014
  0
LWPOLYLINE
  5
AC
330
17
100
AcDbEntity
  8
GIZLI
100
AcDbPolyline
 90
2
 70
0
 10
14.05
 20
5.000000000000007
 10
5.95
 20
5.000000000000007
  0
LWPOLYLINE
  5
AD
330
17
100
AcDbEntity
  8
GIZLI
100
AcDbPolyline
 90
2
 70
0
 10
14.049999999999997
 20
7.105427357601002e-15
 10
14.049999999999997
 20
5.000000000000007
  0
LWPOLYLINE
  5
AE
330
17
100
AcDbEntity
  8
GIZLI
100
AcDbPolyline
 90
2
 70
0
 10
14.05
 20
7.105427357601002e-15
 10
5.95
 20
7.105427357601002e-15
  0
LWPOLYLINE
  5
AF
330
17
100
AcDbEntity
  8
GIZLI
100
AcDbPolyline
 90
2
 70
0
 10
9.999999999999986
 20
7.105427357601002e-15
 10
0.0
 20
1.4210854715202004e-14
  0
LWPOLYLINE
  5
B0
330
17
100
AcDbEntity
  8
GIZLI
100
AcDbPolyline
 90
2
 70
0
 10
9.999999999999986
 20
7.105427357601002e-15
 10
165.0
 20
7.105427357601002e-15
  0
LWPOLYLINE
  5
B1
330
17
100
AcDbEntity
  8
GIZLI
100
AcDbPolyline
 90
2
 70
0
 10
175.0
 20
1.4210854715202004e-14
 10
165.0
 20
7.105427357601002e-15
  0
LWPOLYLINE
  5
B2
330
17
100
AcDbEntity
  8
GIZLI
100
AcDbPolyline
 90
2
 70
0
 10
156.65000000000003
 20
1.4210854715202004e-14
 10
166.85000000000002
 20
1.4210854715202004e-14
  0
LWPOLYLINE
  5
B3
330
17
100
AcDbEntity
  8
GIZLI
100
AcDbPolyline
 90
2
 70
0
 10
166.85000000000002
 20
1.4210854715202004e-14
 10
156.65000000000003
 20
1.4210854715202004e-14
  0
LWPOLYLINE
  5
B4
330
17
100
AcDbEntity
  8
GIZLI
100
AcDbPolyline
 90
2
 70
0
 10
156.65000000000003
 20
7.105427357601002e-15
 10
166.85000000000002
 20
7.105427357601002e-15
  0
LWPOLYLINE
  5
B5
330
17
100
AcDbEntity
  8
GIZLI
100
AcDbPolyline
 90
2
 70
0
 10
166.85000000000002
 20
7.105427357601002e-15
 10
156.65000000000003
 20
7.105427357601002e-15
  0
LWPOLYLINE
  5
B6
330
17
100
AcDbEntity
  8
GIZLI
100
AcDbPolyline
 90
2
 70
0
 10
8.150000000000034
 20
0.0
 10
18.350000000000023
 20
7.105427357601002e-15
  0
LWPOLYLINE
  5
B7
330
17
100
AcDbEntity
  8
GIZLI
100
AcDbPolyline
 90
2
 70
0
 10
18.350000000000023
 20
7.105427357601002e-15
 10
8.150000000000034
 20
0.0
  0
LWPOLYLINE
  5
B8
330
17
100
AcDbEntity
  8
GIZLI
100
AcDbPolyline
 90
2
 70
0
 10
8.150000000000063
 20
7.105427357601002e-15
 10
18.35000000000005
 20
7.105427357601002e-15
  0
LWPOLYLINE
  5
B9
330
17
100
AcDbEntity
  8
GIZLI
100
AcDbPolyline
 90
2
 70
0
 10
18.35000000000005
 20
7.105427357601002e-15
 10
8.150000000000063
 20
7.105427357601002e-15
  0
LWPOLYLINE
  5
BA
330
17
100
AcDbEntity
  8
GIZLI
100
AcDbPolyline
 90
2
 70
0
 10
160.95
 20
1.4210854715202004e-14
 10
169.05
 20
1.4210854715202004e-14
  0
LWPOLYLINE
  5
BB
330
17
100
AcDbEntity
  8
GIZLI
100
AcDbPolyline
 90
2
 70
0
 10
169.05
 20
1.4210854715202004e-14
 10
160.95
 20
1.4210854715202004e-14
  0
LWPOLYLINE
  5
BC
330
17
100
AcDbEntity
  8
GIZLI
100
AcDbPolyline
 90
2
 70
0
 10
5.950000000000003
 20
1.4210854715202004e-14
 10
14.049999999999997
 20
7.105427357601002e-15
  0
LWPOLYLINE
  5
BD
330
17
100
AcDbEntity
  8
GIZLI
100
AcDbPolyline
 90
2
 70
0
 10
5.95
 20
5.000000000000007
 10
14.05
 20
5.000000000000007
  0
LWPOLYLINE
  5
BE
330
17
100
AcDbEntity
  8
GIZLI
100
AcDbPolyline
 90
2
 70
0
 10
175.0
 20
5.000000000000014
 10
165.0
 20
5.000000000000007
  0
LWPOLYLINE
  5
BF
330
17
100
AcDbEntity
  8
GIZLI
100
AcDbPolyline
 90
2
 70
0
 10
9.999999999999986
 20
5.000000000000007
 10
165.0
 20
5.000000000000007
  0
LWPOLYLINE
  5
C0
330
17
100
AcDbEntity
  8
GIZLI
100
AcDbPolyline
 90
2
 70
0
 10
9.999999999999986
 20
5.000000000000007
 10
0.0
 20
5.000000000000014
  0
LWPOLYLINE
  5
C1
330
17
100
AcDbEntity
  8
GIZLI
100
AcDbPolyline
 90
2
 70
0
 10
166.85000000000002
 20
5.000000000000014
 10
156.65000000000003
 20
5.000000000000014
  0
LWPOLYLINE
  5
C2
330
17
100
AcDbEntity
  8
GIZLI
100
AcDbPolyline
 90
2
 70
0
 10
156.65000000000003
 20
5.000000000000014
 10
166.85000000000002
 20
5.000000000000014
  0
LWPOLYLINE
  5
C3
330
17
100
AcDbEntity
  8
GIZLI
100
AcDbPolyline
 90
2
 70
0
 10
166.85000000000002
 20
5.000000000000007
 10
156.65000000000003
 20
5.000000000000007
  0
LWPOLYLINE
  5
C4
330
17
100
AcDbEntity
  8
GIZLI
100
AcDbPolyline
 90
2
 70
0
 10
156.65000000000003
 20
5.000000000000007
 10
166.85000000000002
 20
5.000000000000007
  0
LWPOLYLINE
  5
C5
330
17
100
AcDbEntity
  8
GIZLI
100
AcDbPolyline
 90
2
 70
0
 10
18.350000000000023
 20
5.000000000000007
 10
8.150000000000034
 20
5.0
  0
LWPOLYLINE
  5
C6
330
17
100
AcDbEntity
  8
GIZLI
100
AcDbPolyline
 90
2
 70
0
 10
8.150000000000034
 20
5.0
 10
18.350000000000023
 20
5.000000000000007
  0
LWPOLYLINE
  5
C7
330
17
100
AcDbEntity
  8
GIZLI
100
AcDbPolyline
 90
2
 70
0
 10
18.35000000000005
 20
5.000000000000007
 10
8.150000000000063
 20
5.000000000000007
  0
LWPOLYLINE
  5
C8
330
17
100
AcDbEntity
  8
GIZLI
100
AcDbPolyline
 90
2
 70
0
 10
8.150000000000063
 20
5.000000000000007
 10
18.35000000000005
 20
5.000000000000007
  0
LWPOLYLINE
  5
C9
330
17
100
AcDbEntity
  8
GIZLI
100
AcDbPolyline
 90
2
 70
0
 10
169.05
 20
5.000000000000014
 10
160.95
 20
5.000000000000014
  0
LWPOLYLINE
  5
CA
330
17
100
AcDbEntity
  8
GIZLI
100
AcDbPolyline
 90
2
 70
0
 10
160.95
 20
5.000000000000014
 10
169.05
 20
5.000000000000014
  0
LWPOLYLINE
  5
CB
330
17
100
AcDbEntity
  8
GIZLI
100
AcDbPolyline
 90
2
 70
0
 10
148.5
 20
5.000000000000007
 10
148.5
 20
7.105427357601002e-15
  0
LWPOLYLINE
  5
CC
330
17
100
AcDbEntity
  8
GIZLI
100
AcDbPolyline
 90
2
 70
0
 10
175.0
 20
1.4210854715202004e-14
 10
175.0
 20
5.000000000000014
  0
LWPOLYLINE
  5
CD
330
17
100
AcDbEntity
  8
GIZLI
100
AcDbPolyline
 90
2
 70
0
 10
0.0
 20
1.4210854715202004e-14
 10
0.0
 20
5.000000000000014
  0
LWPOLYLINE
  5
CE
330
17
100
AcDbEntity
  8
GIZLI
100
AcDbPolyline
 90
2
 70
0
 10
26.5
 20
7.105427357601002e-15
 10
26.5
 20
5.000000000000007
  0
LWPOLYLINE
  5
CF
330
17
100
AcDbEntity
  8
GIZLI
100
AcDbPolyline
 90
2
 70
0
 10
156.65000000000003
 20
1.4210854715202004e-14
 10
156.65000000000003
 20
5.000000000000014
  0
LWPOLYLINE
  5
D0
330
17
100
AcDbEntity
  8
GIZLI
100
AcDbPolyline
 90
2
 70
0
 10
166.85000000000002
 20
1.4210854715202004e-14
 10
166.85000000000002
 20
5.000000000000014
  0
LWPOLYLINE
  5
D1
330
17
100
AcDbEntity
  8
GIZLI
100
AcDbPolyline
 90
2
 70
0
 10
156.65000000000003
 20
7.105427357601002e-15
 10
156.65000000000003
 20
5.000000000000007
  0
LWPOLYLINE
  5
D2
330
17
100
AcDbEntity
  8
GIZLI
100
AcDbPolyline
 90
2
 70
0
 10
166.85000000000002
 20
7.105427357601002e-15
 10
166.85000000000002
 20
5.000000000000007
  0
LWPOLYLINE
  5
D3
330
17
100
AcDbEntity
  8
GIZLI
100
AcDbPolyline
 90
2
 70
0
 10
8.150000000000034
 20
0.0
 10
8.150000000000034
 20
5.0
  0
LWPOLYLINE
  5
D4
330
17
100
AcDbEntity
  8
GIZLI
100
AcDbPolyline
 90
2
 70
0
 10
18.350000000000023
 20
7.105427357601002e-15
 10
18.350000000000023
 20
5.000000000000007
  0
LWPOLYLINE
  5
D5
330
17
100
AcDbEntity
  8
GIZLI
100
AcDbPolyline
 90
2
 70
0
 10
8.150000000000063
 20
7.105427357601002e-15
 10
8.150000000000063
 20
5.000000000000007
  0
LWPOLYLINE
  5
D6
330
17
100
AcDbEntity
  8
GIZLI
100
AcDbPolyline
 90
2
 70
0
 10
18.35000000000005
 20
7.105427357601002e-15
 10
18.35000000000005
 20
5.000000000000007
  0
LWPOLYLINE
  5
D7
330
17
100
AcDbEntity
  8
GIZLI
100
AcDbPolyline
 90
2
 70
0
 10
160.95
 20
1.4210854715202004e-14
 10
160.95
 20
5.000000000000014
  0
LWPOLYLINE
  5
D8
330
17
100
AcDbEntity
  8
GIZLI
100
AcDbPolyline
 90
2
 70
0
 10
169.05
 20
1.4210854715202004e-14
 10
169.05
 20
5.000000000000014
  0
TEXT
  5
D9
330
17
100
AcDbEntity
  8
YAZI
100
AcDbText
 10
0.0
 20
-10.0
 30
0.0
 40
5.0
  1
ON
 11
0.0
 21
-10.0
 31
0.0
100
AcDbText
  0
DIMENSION
  5
DA
330
17
100
AcDbEntity
  8
OLCU
100
AcDbDimension
280
0
  2
*D1
  3
EZDXF
 10
0.0
 20
-22.0
 30
0.0
 11
87.50000000000003
 21
-21.775
 31
0.0
 70
32
 71
5
  1
<>
100
AcDbAlignedDimension
 13
0.0
 23
0.0
 33
0.0
 14
175.00000000000006
 24
0.0
 34
0.0
 50
0.0
100
AcDbRotatedDimension
  0
DIMENSION
  5
E9
330
17
100
AcDbEntity
  8
OLCU
100
AcDbDimension
280
0
  2
*D2
  3
EZDXF
 10
-22.0
 20
0.0
 30
0.0
 11
-22.225
 21
2.500000000000007
 31
0.0
 70
32
 71
5
  1
<>
100
AcDbAlignedDimension
 13
0.0
 23
0.0
 33
0.0
 14
0.0
 24
5.000000000000014
 34
0.0
 50
90.0
100
AcDbRotatedDimension
  0
LWPOLYLINE
  5
F8
330
17
100
AcDbEntity
  8
GORUNEN
100
AcDbPolyline
 90
64
 70
0
 10
14.050000000000008
 20
-71.50083327643884
 10
14.044965530936643
 20
-71.29895743951302
 10
14.029874640229883
 20
-71.09758349772578
 10
14.004764846211778
 20
-70.89721209842533
 10
13.969698575786609
 20
-70.69834139648127
 10
13.924763009227771
 20
-70.50146581579314
 10
13.870069863433875
 20
-70.30707482007467
 10
13.805755114182933
 20
-70.11565169596987
 10
13.731978658075153
 20
-69.92767235152631
 10
13.6489239150048
 20
-69.74360413301272
 10
13.556797372149427
 20
-69.5639046630225
 10
13.455828070610231
 20
-69.38902070275186
 10
13.346267035979778
 20
-69.21938704128117
 10
13.228386654252835
 20
-69.05542541462064
 10
13.102479994631858
 20
-68.89754345720834
 10
12.968860080910794
 20
-68.7461336884666
 10
12.827859113248591
 20
-68.60157253693697
 10
12.679827642267275
 20
-68.46421940441951
 10
12.525133697527865
 20
-68.33441577244331
 10
12.364161872550891
 20
-68.21248435328961
 10
12.197312368656316
 20
-68.0987282876782
 10
12.02499999999999
 20
-67.99343039111186
 10
11.847653162280299
 20
-67.89685245075238
 10
11.665712767678965
 20
-67.80923457457655
 10
11.479631148683886
 20
-67.73079459442981
 10
11.289870933519307
 20
-67.66172752446195
 10
11.096903895979155
 20
-67.60220507629128
 10
10.901209782523058
 20
-67.55237523210245
 10
10.70327511955105
 20
-67.51236187673939
 10
10.503592003822297
 20
-67.48226448970814
 10
10.302656879025
 20
-67.46215789785506
 10
10.100969301539175
 20
-67.45209208933554
 10
9.899030698460784
 20
-67.45209208933554
 10
9.69734312097496
 20
-67.46215789785506
 10
9.496407996177663
 20
-67.48226448970814
 10
9.29672488044891
 20
-67.5123618767394
 10
9.098790217476903
 20
-67.55237523210246
 10
8.903096104020806
 20
-67.6022050762913
 10
8.710129066480654
 20
-67.66172752446197
 10
8.520368851316077
 20
-67.73079459442982
 10
8.334287232321
 20
-67.80923457457658
 10
8.152346837719666
 20
-67.8968524507524
 10
7.9749999999999766
 20
-67.99343039111189
 10
7.802687631343651
 20
-68.09872828767824
 10
7.635838127449078
 20
-68.21248435328964
 10
7.474866302472107
 20
-68.33441577244335
 10
7.320172357732698
 20
-68.46421940441954
 10
7.172140886751385
 20
-68.60157253693701
 10
7.031139919089184
 20
-68.74613368846664
 10
6.89752000536812
 20
-68.89754345720839
 10
6.771613345747146
 20
-69.05542541462069
 10
6.653732964020205
 20
-69.21938704128121
 10
6.544171929389755
 20
-69.3890207027519
 10
6.443202627850561
 20
-69.56390466302254
 10
6.351076084995191
 20
-69.74360413301277
 10
6.268021341924839
 20
-69.92767235152637
 10
6.194244885817063
 20
-70.11565169596993
 10
6.1299301365661245
 20
-70.30707482007472
 10
6.07523699077223
 20
-70.5014658157932
 10
6.030301424213396
 20
-70.69834139648133
 10
5.995235153788229
 20
-70.89721209842538
 10
5.970125359770128
 20
-71.09758349772584
 10
5.95503446906337
 20
-71.29895743951307
 10
5.950000000000008
 20
-71.50083327643884
  0
LWPOLYLINE
  5
F9
330
17
100
AcDbEntity
  8
GORUNEN
100
AcDbPolyline
 90
64
 70
0
 10
5.950000000000008
 20
-71.50083327643884
 10
5.9550344690633725
 20
-71.70270911336466
 10
5.970125359770132
 20
-71.9040830551519
 10
5.995235153788238
 20
-72.10445445445235
 10
6.030301424213406
 20
-72.3033251563964
 10
6.075236990772243
 20
-72.50020073708453
 10
6.129930136566139
 20
-72.694591732803
 10
6.19424488581708
 20
-72.8860148569078
 10
6.268021341924858
 20
-73.07399420135135
 10
6.351076084995213
 20
-73.25806241986496
 10
6.443202627850584
 20
-73.43776188985518
 10
6.544171929389781
 20
-73.61264585012582
 10
6.653732964020232
 20
-73.78227951159651
 10
6.771613345747176
 20
-73.94624113825702
 10
6.897520005368151
 20
-74.10412309566934
 10
7.031139919089218
 20
-74.25553286441107
 10
7.17214088675142
 20
-74.40009401594071
 10
7.3201723577327344
 20
-74.53744714845817
 10
7.474866302472145
 20
-74.66725078043437
 10
7.6358381274491185
 20
-74.78918219958807
 10
7.802687631343693
 20
-74.90293826519947
 10
7.975000000000019
 20
-75.00823616176582
 10
8.152346837719708
 20
-75.10481410212529
 10
8.334287232321044
 20
-75.19243197830112
 10
8.520368851316121
 20
-75.27087195844787
 10
8.7101290664807
 20
-75.33993902841573
 10
8.903096104020852
 20
-75.3994614765864
 10
9.098790217476951
 20
-75.44929132077523
 10
9.296724880448958
 20
-75.48930467613829
 10
9.49640799617771
 20
-75.51940206316954
 10
9.69734312097501
 20
-75.53950865502262
 10
9.899030698460832
 20
-75.54957446354214
 10
10.100969301539223
 20
-75.54957446354214
 10
10.302656879025047
 20
-75.53950865502262
 10
10.503592003822344
 20
-75.51940206316954
 10
10.703275119551098
 20
-75.48930467613827
 10
10.901209782523104
 20
-75.44929132077522
 10
11.096903895979203
 20
-75.39946147658638
 10
11.289870933519353
 20
-75.33993902841571
 10
11.479631148683932
 20
-75.27087195844786
 10
11.66571276767901
 20
-75.1924319783011
 10
11.847653162280343
 20
-75.10481410212527
 10
12.025000000000032
 20
-75.00823616176581
 10
12.197312368656359
 20
-74.90293826519945
 10
12.364161872550932
 20
-74.78918219958804
 10
12.525133697527902
 20
-74.66725078043434
 10
12.679827642267313
 20
-74.53744714845814
 10
12.827859113248625
 20
-74.40009401594068
 10
12.968860080910828
 20
-74.25553286441104
 10
13.10247999463189
 20
-74.1041230956693
 10
13.228386654252866
 20
-73.946241138257
 10
13.346267035979807
 20
-73.78227951159649
 10
13.455828070610258
 20
-73.61264585012577
 10
13.55679737214945
 20
-73.43776188985514
 10
13.648923915004822
 20
-73.25806241986491
 10
13.731978658075173
 20
-73.07399420135131
 10
13.80575511418295
 20
-72.88601485690776
 10
13.870069863433889
 20
-72.69459173280296
 10
13.924763009227783
 20
-72.50020073708448
 10
13.969698575786618
 20
-72.30332515639635
 10
14.004764846211785
 20
-72.10445445445231
 10
14.029874640229886
 20
-71.90408305515186
 10
14.044965530936643
 20
-71.70270911336462
 10
14.050000000000008
 20
-71.50083327643884
  0
LWPOLYLINE
  5
FA
330
17
100
AcDbEntity
  8
GORUNEN
100
AcDbPolyline
 90
2
 70
0
 10
148.50000000000006
 20
-156.50083327643884
 10
148.5
 20
-83.50083327643884
  0
LWPOLYLINE
  5
FB
330
17
100
AcDbEntity
  8
GORUNEN
100
AcDbPolyline
 90
2
 70
0
 10
153.50000000000009
 20
-161.50083327643884
 10
148.50000000000009
 20
-156.50083327643884
  0
LWPOLYLINE
  5
FC
330
17
100
AcDbEntity
  8
GORUNEN
100
AcDbPolyline
 90
2
 70
0
 10
153.50000000000009
 20
-161.50083327643878
 10
170.00000000000009
 20
-161.50083327643875
  0
LWPOLYLINE
  5
FD
330
17
100
AcDbEntity
  8
GORUNEN
100
AcDbPolyline
 90
2
 70
0
 10
175.00000000000009
 20
-156.50083327643884
 10
170.00000000000009
 20
-161.50083327643884
  0
LWPOLYLINE
  5
FE
330
17
100
AcDbEntity
  8
GORUNEN
100
AcDbPolyline
 90
2
 70
0
 10
175.00000000000006
 20
-156.50083327643884
 10
175.0
 20
-71.50083327643884
  0
LWPOLYLINE
  5
FF
330
17
100
AcDbEntity
  8
GORUNEN
100
AcDbPolyline
 90
35
 70
0
 10
175.00000000000003
 20
-71.50083327643884
 10
174.98923460202386
 20
-71.03637730171306
 10
174.95694210541052
 20
-70.57289630603908
 10
174.90316916807717
 20
-70.11140910068201
 10
174.82801607888794
 20
-69.65292502051835
 10
174.7316352764305
 20
-69.19844244281259
 10
174.61422986779274
 20
-68.74894730599382
 10
174.47605214733932
 20
-68.3054116284323
 10
174.31740211548825
 20
-67.86879202721602
 10
174.13862599748745
 20
-67.44002823692735
 10
173.9401147621914
 20
-67.02004162841956
 10
173.72230264083765
 20
-66.60973372759348
 10
173.4856656458235
 20
-66.20998473417401
 10
173.23072008948253
 20
-65.82165204048677
 10
172.95802110286115
 20
-65.44556875023464
 10
172.66816115449532
 20
-65.0825421972744
 10
172.36176856918698
 20
-64.73335246439326
 10
172.03950604678073
 20
-64.3987509020855
 10
171.7020691809404
 20
-64.07945864732899
 10
171.35018497792564
 20
-63.77616514236186
 10
170.9846103753685
 20
-63.48952665345905
 10
170.60613076105005
 20
-63.220164789708875
 10
170.21555849167686
 20
-62.96866502178963
 10
169.81373141165773
 20
-62.73557520074621
 10
169.40151137188022
 20
-62.521404076766615
 10
168.9797827484872
 20
-62.32661981795866
 10
168.54945096165346
 20
-62.15164852912642
 10
168.11144099436237
 20
-61.99687277054696
 10
167.6666959111823
 20
-61.8626300767468
 10
167.2161753770434
 20
-61.74921147527857
 10
166.76085417601408
 20
-61.65686000549759
 10
166.3017207300776
 20
-61.58576923733847
 10
165.83977561790869
 20
-61.536081790091615
 10
165.42024701692742
 20
-61.50964560204994
 10
165.0
 20
-61.50083327643884
  0
LWPOLYLINE
  5
100
330
17
100
AcDbEntity
  8
GORUNEN
100
AcDbPolyline
 90
2
 70
0
 10
9.999999999999993
 20
-61.50083327643891
 10
165.0
 20
-61.50083327643877
  0
LWPOLYLINE
  5
101
330
17
100
AcDbEntity
  8
GORUNEN
100
AcDbPolyline
 90
35
 70
0
 10
9.999999999999993
 20
-61.50083327643884
 10
9.535544025265649
 20
-61.51159867441504
 10
9.072063029583905
 20
-61.54389117102852
 10
8.610575824219797
 20
-61.59766410836227
 10
8.152091744049766
 20
-61.67281719755228
 10
7.697609166338257
 20
-61.769198000010945
 10
7.2481140295143005
 20
-61.88660340865046
 10
6.804578351948103
 20
-62.02478112910623
 10
6.367958750727636
 20
-62.18343116096034
 10
5.939194960435217
 20
-62.36220727896489
 10
5.519208351924105
 20
-62.56071851426543
 10
5.1089004510950815
 20
-62.77853063562442
 10
4.709151457673043
 20
-63.015167630644584
 10
4.320818763983583
 20
-63.27011318699236
 10
3.944735473729588
 20
-63.5428121736213
 10
3.581708920767817
 20
-63.832672121995444
 10
3.2325191878854906
 20
-64.13906470731281
 10
2.8979176255768837
 20
-64.46132722972877
 10
2.5786253708199047
 20
-64.79876409557941
 10
2.27533186585269
 20
-65.15064829860503
 10
1.9886933769501902
 20
-65.51622290117353
 10
1.7193315132007556
 20
-65.8947025155038
 10
1.4678317452827199
 20
-66.28527478488908
 10
1.234741924241002
 20
-66.68710186492055
 10
1.0205708002636755
 20
-67.09932190471054
 10
0.8257865414585699
 20
-67.52105052811605
 10
0.6508152526298496
 20
-67.95138231496216
 10
0.4960394940546071
 20
-68.38939228226543
 10
0.36179680025944494
 20
-68.8341373654573
 10
0.24837819879707235
 20
-69.28465789960748
 10
0.15602672902288228
 20
-69.73997910064746
 10
0.08493596087154077
 20
-70.1991125465938
 10
0.035248513633583396
 20
-70.6610576587716
 10
0.008812325606327063
 20
-71.08058625963278
 10
7.557810714070579e-15
 20
-71.50083327643884
  0
LWPOLYLINE
  5
102
330
17
100
AcDbEntity
  8
GORUNEN
100
AcDbPolyline
 90
2
 70
0
 10
7.645652774085354e-14
 20
-156.50083327643884
 10
0.0
 20
-71.50083327643884
  0
LWPOLYLINE
  5
103
330
17
100
AcDbEntity
  8
GORUNEN
100
AcDbPolyline
 90
2
 70
0
 10
5.000000000000079
 20
-161.50083327643884
 10
7.86120842900806e-14
 20
-156.50083327643884
  0
LWPOLYLINE
  5
104
330
17
100
AcDbEntity
  8
GORUNEN
100
AcDbPolyline
 90
2
 70
0
 10
5.000000000000079
 20
-161.50083327643893
 10
21.500000000000078
 20
-161.5008332764389
  0
LWPOLYLINE
  5
105
330
17
100
AcDbEntity
  8
GORUNEN
100
AcDbPolyline
 90
2
 70
0
 10
26.500000000000078
 20
-156.50083327643884
 10
21.500000000000078
 20
-161.50083327643884
  0
LWPOLYLINE
  5
106
330
17
100
AcDbEntity
  8
GORUNEN
100
AcDbPolyline
 90
2
 70
0
 10
26.500000000000075
 20
-156.50083327643884
 10
26.50000000000001
 20
-83.50083327643884
  0
LWPOLYLINE
  5
107
330
17
100
AcDbEntity
  8
GORUNEN
100
AcDbPolyline
 90
34
 70
0
 10
28.500000000000007
 20
-81.50083327643884
 10
28.404605853059284
 20
-81.50310404094498
 10
28.309423169876595
 20
-81.50991537236857
 10
28.21467256498668
 20
-81.52125668981736
 10
28.12057252704067
 20
-81.53710549945035
 10
28.02733908040868
 20
-81.55742773287514
 10
27.93518544678243
 20
-81.58217808554537
 10
27.84432170677787
 20
-81.61130035515804
 10
27.75495446153778
 20
-81.64472778005097
 10
27.667286494334387
 20
-81.68238337760012
 10
27.581516432171984
 20
-81.72418028261704
 10
27.497838407389537
 20
-81.77002208574618
 10
27.41644171926331
 20
-81.81980317186233
 10
27.33751049560946
 20
-81.87340905846803
 10
27.261223354386676
 20
-81.93071673409084
 10
27.187753065298768
 20
-81.99159499668089
 10
27.1172662113973
 20
-82.05590479200812
 10
27.049922850684194
 20
-82.12349955205977
 10
26.98587617771434
 20
-82.19422553343769
 10
26.925272185198228
 20
-82.26792215575577
 10
26.86824932560454
 20
-82.34442234003731
 10
26.814938172762783
 20
-82.42355284711245
 10
26.765461083465887
 20
-82.50513461601547
 10
26.719931859072826
 20
-82.58898310238222
 10
26.678455407111237
 20
-82.67490861684755
 10
26.641127402880027
 20
-82.76271666344263
 10
26.608033951051986
 20
-82.85220827799236
 10
26.57925124727641
 20
-82.94318036651276
 10
26.5548452397817
 20
-83.03542604360838
 10
26.53487129097799
 20
-83.12873497086962
 10
26.51937383905976
 20
-83.22289369527016
 10
26.508386059608434
 20
-83.31768598756436
 10
26.50209667506076
 20
-83.40916599999936
 10
26.500000000000007
 20
-83.50083327643884
  0
LWPOLYLINE
  5
108
330
17
100
AcDbEntity
  8
GORUNEN
100
AcDbPolyline
 90
2
 70
0
 10
28.500000000000007
 20
-81.5008332764389
 10
146.50000000000003
 20
-81.50083327643878
  0
LWPOLYLINE
  5
109
330
17
100
AcDbEntity
  8
GORUNEN
100
AcDbPolyline
 90
34
 70
0
 10
148.50000000000003
 20
-83.50083327643884
 10
148.4977292354939
 20
-83.40543912949809
 10
148.4909179040703
 20
-83.31025644631538
 10
148.4795765866215
 20
-83.21550584142544
 10
148.46372777698855
 20
-83.12140580347942
 10
148.44340554356376
 20
-83.02817235684742
 10
148.41865519089353
 20
-82.93601872322115
 10
148.38953292128087
 20
-82.84515498321659
 10
148.35610549638795
 20
-82.75578773797649
 10
148.3184498988388
 20
-82.66811977077309
 10
148.27665299382187
 20
-82.58234970861068
 10
148.23081119069275
 20
-82.49867168382823
 10
148.1810301045766
 20
-82.417274995702
 10
148.1274242179709
 20
-82.33834377204815
 10
148.07011654234807
 20
-82.26205663082537
 10
148.00923827975805
 20
-82.18858634173746
 10
147.94492848443082
 20
-82.11809948783599
 10
147.87733372437916
 20
-82.0507561271229
 10
147.80660774300125
 20
-81.98670945415304
 10
147.73291112068316
 20
-81.92610546163694
 10
147.6564109364016
 20
-81.86908260204325
 10
147.5772804293265
 20
-81.8157714492015
 10
147.49569866042347
 20
-81.7662943599046
 10
147.41185017405672
 20
-81.72076513551156
 10
147.3259246595914
 20
-81.67928868354998
 10
147.23811661299632
 20
-81.64196067931879
 10
147.1486249984466
 20
-81.60886722749076
 10
147.0576529099262
 20
-81.58008452371519
 10
146.96540723283056
 20
-81.5556785162205
 10
146.87209830556932
 20
-81.5357045674168
 10
146.77793958116877
 20
-81.52020711549858
 10
146.68314728887455
 20
-81.50921933604725
 10
146.59166727643955
 20
-81.5029299514996
 10
146.50000000000003
 20
-81.50083327643884
  0
LWPOLYLINE
  5
10A
330
17
100
AcDbEntity
  8
GORUNEN
100
AcDbPolyline
 90
65
 70
0
 10
166.85000000000005
 20
-146.50083327643884
 10
166.84375095689128
 20
-146.24844889500264
 10
166.82501834854125
 20
-145.99668350507784
 10
166.79384775825577
 20
-145.74615420707428
 10
166.75031604586775
 20
-145.49747477844227
 10
166.69453077366092
 20
-145.25125428772944
 10
166.6266296322931
 20
-145.0080957086376
 10
166.54677986671996
 20
-144.76859453407963
 10
166.4551777021184
 20
-144.5333373902361
 10
166.35204776981007
 20
-144.30290065061246
 10
166.2376425331849
 20
-144.07784905009555
 10
166.11224171362463
 20
-143.85873429901065
 10
165.97615171642633
 20
-143.64609369717815
 10
165.82970505672586
 20
-143.4404487479706
 10
165.67325978542144
 20
-143.24230377236935
 10
165.50719891509715
 20
-143.05214452302155
 10
165.33192984455812
 20
-142.87043679966308
 10
165.14788291822555
 20
-142.69762582175784
 10
164.9555088651307
 20
-142.53413601830607
 10
164.75527903767215
 20
-142.38036822577814
 10
164.54768436628464
 20
-142.23669873719075
 10
164.3332339734959
 20
-142.1034787280305
 10
164.11245378798358
 20
-141.98103368217744
 10
163.88588515863196
 20
-141.86966281782856
 10
163.65408346858908
 20
-141.76963851342117
 10
163.41761674932334
 20
-141.6812057335567
 10
163.17706429468055
 20
-141.6045814549239
 10
162.93301527494066
 20
-141.53995409222262
 10
162.68606735087482
 20
-141.48748292408712
 10
162.436825287802
 20
-141.4472975190097
 10
162.1858995696461
 20
-141.4194971612642
 10
161.9339050129926
 20
-141.40415027682945
 10
161.68145938089623
 20
-141.4012938749059
 10
161.4291818781651
 20
-141.41093452830026
 10
161.1776911405017
 20
-141.43304949800694
 10
160.92760350328697
 20
-141.46758465332874
 10
160.67953160270082
 20
-141.5144547428856
 10
160.4340829897789
 20
-141.57354396869093
 10
160.1918587444694
 20
-141.64470656022826
 10
159.95345208969024
 20
-141.72776734852755
 10
159.7194470053855
 20
-141.8225223402418
 10
159.49041684258256
 20
-141.92873929172347
 10
159.26692293744898
 20
-142.046158283101
 10
159.04951322534927
 20
-142.17449229235524
 10
158.83872085490182
 20
-142.31342776939604
 10
158.63506280203575
 20
-142.46262521013864
 10
158.43903848404776
 20
-142.62171973058017
 10
158.2511283736591
 20
-142.79032164087613
 10
158.07179264943397
 20
-142.9680170575643
 10
157.90147107239602
 20
-143.1543699859388
 10
157.740581878999
 20
-143.34892409826
 10
157.58951929968322
 20
-143.55120259023823
 10
157.44865286559104
 20
-143.76070945578886
 10
157.3183268344906
 20
-143.9769308729756
 10
157.198859616699
 20
-144.19933658995356
 10
157.09054320100626
 20
-144.42738131091238
 10
156.99364258059842
 20
-144.66050608201954
 10
156.90839517898132
 20
-144.89813967736333
 10
156.83501027590395
 20
-145.1396999848962
 10
156.77366843328213
 20
-145.38459539237778
 10
156.72452092112184
 20
-145.63222617331814
 10
156.68768914344284
 20
-145.88198587292086
 10
156.6632640642022
 20
-146.13326269402626
 10
156.65331700039073
 20
-146.31692826344118
 10
156.65000000000006
 20
-146.50083327643884
  0
LWPOLYLINE
  5
10B
330
17
100
AcDbEntity
  8
GORUNEN
100
AcDbPolyline
 90
65
 70
0
 10
156.65000000000006
 20
-146.50083327643884
 10
156.65624904310883
 20
-146.7532176578749
 10
156.67498165145884
 20
-147.0049830477996
 10
156.70615224174432
 20
-147.25551234580308
 10
156.74968395413225
 20
-147.504191774435
 10
156.80546922633894
 20
-147.75041226514762
 10
156.87337036770649
 20
-147.9935708442391
 10
156.95322013327922
 20
-148.23307201879658
 10
157.04482229788016
 20
-148.46832916263932
 10
157.14795223018768
 20
-148.69876590226198
 10
157.26235746681178
 20
-148.9238175027776
 10
157.38775828637068
 20
-149.142932253861
 10
157.52384828356733
 20
-149.35557285569172
 10
157.67029494326584
 20
-149.5612178048973
 10
157.82674021456796
 20
-149.75936278049642
 10
157.99280108488966
 20
-149.94952202984211
 10
158.16807015542582
 20
-150.1312297531985
 10
158.35211708175524
 20
-150.30404073110194
 10
158.54449113484657
 20
-150.46753053455214
 10
158.7447209623012
 20
-150.62129832707876
 10
158.95231563368435
 20
-150.76496781566513
 10
159.16676602646834
 20
-150.89818782482467
 10
159.38754621197563
 20
-151.0206328706774
 10
159.614114841322
 20
-151.1320037350264
 10
159.84591653135956
 20
-151.23202803943428
 10
160.08238325061998
 20
-151.3204608192998
 10
160.32293570525763
 20
-151.39708509793417
 10
160.5669847249926
 20
-151.46171246063759
 10
160.81393264905392
 20
-151.51418362877578
 10
161.0631747121226
 20
-151.55436903385643
 10
161.31410043027478
 20
-151.5821693916057
 10
161.56609498692498
 20
-151.59751627604467
 10
161.81854061901845
 20
-151.60037267797284
 10
162.07081812174695
 20
-151.59073202458333
 10
162.32230885940822
 20
-151.56861705488168
 10
162.57239649662137
 20
-151.53408189956497
 10
162.82046839720655
 20
-151.48721181001318
 10
163.06591701012815
 20
-151.42812258421282
 10
163.30814125543785
 20
-151.3569599926804
 10
163.5465479102178
 20
-151.27389920438588
 10
163.7805529945239
 20
-151.17914421267628
 10
164.00958315732856
 20
-151.0729272611991
 10
164.23307706246422
 20
-150.95550826982597
 10
164.45048677456631
 20
-150.82717426057593
 10
164.66127914501635
 20
-150.68823878353925
 10
164.86493719788518
 20
-150.53904134280066
 10
165.06096151587604
 20
-150.37994682236302
 10
165.24887162626771
 20
-150.21134491207084
 10
165.428207350496
 20
-150.03364949538636
 10
165.5985289275373
 20
-149.8472965670154
 10
165.75941812093777
 20
-149.6527424546977
 10
165.9104807002572
 20
-149.45046396272295
 10
166.05134713435314
 20
-149.24095709717577
 10
166.18167316545757
 20
-149.02473567999246
 10
166.30114038325323
 20
-148.80232996301797
 10
166.40945679895023
 20
-148.57428524206256
 10
166.5063574193625
 20
-148.34116047095876
 10
166.59160482098423
 20
-148.10352687561826
 10
166.66498972406637
 20
-147.86196656808858
 10
166.7263315666932
 20
-147.61707116061004
 10
166.7754790788587
 20
-147.3694403796726
 10
166.81231085654312
 20
-147.11968068007258
 10
166.83673593578936
 20
-146.86840385896966
 10
166.84668299960725
 20
-146.68473828949573
 10
166.85000000000005
 20
-146.50083327643884
  0
LWPOLYLINE
  5
10C
330
17
100
AcDbEntity
  8
GORUNEN
100
AcDbPolyline
 90
65
 70
0
 10
166.85000000000005
 20
-116.50083327643884
 10
166.84375095689128
 20
-116.24844889500267
 10
166.82501834854125
 20
-115.9966835050779
 10
166.79384775825577
 20
-115.74615420707434
 10
166.75031604586778
 20
-115.49747477844235
 10
166.69453077366092
 20
-115.25125428772954
 10
166.62662963229312
 20
-115.00809570863774
 10
166.54677986672
 20
-114.76859453407977
 10
166.45517770211845
 20
-114.53333739023628
 10
166.35204776981013
 20
-114.30290065061266
 10
166.23764253318498
 20
-114.07784905009576
 10
166.11224171362474
 20
-113.85873429901085
 10
165.97615171642644
 20
-113.64609369717837
 10
165.829705056726
 20
-113.44044874797083
 10
165.6732597854216
 20
-113.24230377236961
 10
165.50719891509735
 20
-113.05214452302178
 10
165.33192984455835
 20
-112.87043679966334
 10
165.1478829182258
 20
-112.6976258217581
 10
164.95550886513098
 20
-112.53413601830633
 10
164.75527903767247
 20
-112.38036822577838
 10
164.54768436628498
 20
-112.23669873719098
 10
164.33323397349628
 20
-112.10347872803074
 10
164.11245378798398
 20
-111.98103368217768
 10
163.88588515863242
 20
-111.86966281782875
 10
163.65408346858956
 20
-111.76963851342138
 10
163.41761674932386
 20
-111.68120573355688
 10
163.17706429468106
 20
-111.60458145492407
 10
162.93301527494123
 20
-111.53995409222276
 10
162.6860673508754
 20
-111.48748292408723
 10
162.4368252878026
 20
-111.4472975190098
 10
162.18589956964672
 20
-111.41949716126425
 10
161.93390501299325
 20
-111.40415027682948
 10
161.68145938089688
 20
-111.40129387490589
 10
161.42918187816582
 20
-111.41093452830022
 10
161.17769114050242
 20
-111.43304949800684
 10
160.9276035032877
 20
-111.4675846533286
 10
160.67953160270156
 20
-111.51445474288542
 10
160.43408298977965
 20
-111.57354396869073
 10
160.1918587444702
 20
-111.644706560228
 10
159.953452089691
 20
-111.72776734852725
 10
159.7194470053863
 20
-111.82252234024145
 10
159.49041684258336
 20
-111.92873929172308
 10
159.26692293744978
 20
-112.04615828310054
 10
159.04951322535007
 20
-112.17449229235474
 10
158.83872085490262
 20
-112.3134277693955
 10
158.63506280203651
 20
-112.46262521013804
 10
158.43903848404852
 20
-112.62171973057951
 10
158.2511283736598
 20
-112.79032164087542
 10
158.07179264943468
 20
-112.96801705756351
 10
157.9014710723967
 20
-113.15436998593798
 10
157.74058187899968
 20
-113.34892409825912
 10
157.58951929968384
 20
-113.5512025902373
 10
157.44865286559164
 20
-113.76070945578788
 10
157.31832683449113
 20
-113.97693087297458
 10
157.19885961669954
 20
-114.19933658995248
 10
157.09054320100674
 20
-114.42738131091124
 10
156.99364258059884
 20
-114.66050608201836
 10
156.9083951789817
 20
-114.89813967736211
 10
156.8350102759043
 20
-115.13969998489495
 10
156.7736684332824
 20
-115.3845953923765
 10
156.72452092112204
 20
-115.63222617331681
 10
156.68768914344298
 20
-115.8819858729195
 10
156.6632640642023
 20
-116.13326269402488
 10
156.65331700039076
 20
-116.31692826344047
 10
156.65000000000006
 20
-116.50083327643884
  0
LWPOLYLINE
  5
10D
330
17
100
AcDbEntity
  8
GORUNEN
100
AcDbPolyline
 90
65
 70
0
 10
156.65000000000006
 20
-116.50083327643884
 10
156.65624904310883
 20
-116.75321765787493
 10
156.67498165145884
 20
-117.00498304779966
 10
156.70615224174432
 20
-117.25551234580317
 10
156.74968395413225
 20
-117.5041917744351
 10
156.80546922633894
 20
-117.75041226514773
 10
156.8733703677065
 20
-117.99357084423924
 10
156.95322013327925
 20
-118.23307201879673
 10
157.04482229788022
 20
-118.4683291626395
 10
157.14795223018774
 20
-118.69876590226218
 10
157.26235746681186
 20
-118.92381750277784
 10
157.3877582863708
 20
-119.14293225386126
 10
157.52384828356747
 20
-119.35557285569197
 10
157.670294943266
 20
-119.56121780489757
 10
157.82674021456816
 20
-119.7593627804967
 10
157.9928010848899
 20
-119.94952202984237
 10
158.1680701554261
 20
-120.13122975319877
 10
158.35211708175555
 20
-120.30404073110222
 10
158.54449113484694
 20
-120.4675305345524
 10
158.74472096230159
 20
-120.62129832707903
 10
158.95231563368478
 20
-120.76496781566539
 10
159.1667660264688
 20
-120.89818782482493
 10
159.38754621197614
 20
-121.02063287067763
 10
159.61411484132253
 20
-121.13200373502661
 10
159.8459165313601
 20
-121.23202803943451
 10
160.08238325062058
 20
-121.32046081930001
 10
160.32293570525826
 20
-121.39708509793434
 10
160.56698472499326
 20
-121.46171246063774
 10
160.81393264905458
 20
-121.5141836287759
 10
161.06317471212327
 20
-121.55436903385655
 10
161.31410043027552
 20
-121.58216939160577
 10
161.56609498692575
 20
-121.5975162760447
 10
161.81854061901922
 20
-121.60037267797283
 10
162.07081812174772
 20
-121.59073202458329
 10
162.32230885940902
 20
-121.5686170548816
 10
162.5723964966222
 20
-121.53408189956482
 10
162.82046839720738
 20
-121.487211810013
 10
163.065917010129
 20
-121.42812258421259
 10
163.3081412554387
 20
-121.35695999268012
 10
163.5465479102187
 20
-121.27389920438554
 10
163.78055299452475
 20
-121.17914421267588
 10
164.00958315732942
 20
-121.07292726119866
 10
164.2330770624651
 20
-120.95550826982546
 10
164.45048677456717
 20
-120.82717426057538
 10
164.66127914501718
 20
-120.68823878353862
 10
164.864937197886
 20
-120.53904134279998
 10
165.06096151587687
 20
-120.37994682236229
 10
165.24887162626854
 20
-120.21134491207005
 10
165.42820735049682
 20
-120.0336494953855
 10
165.59852892753807
 20
-119.84729656701448
 10
165.75941812093853
 20
-119.65274245469672
 10
165.91048070025792
 20
-119.45046396272191
 10
166.05134713435385
 20
-119.24095709717467
 10
166.18167316545822
 20
-119.02473567999132
 10
166.30114038325382
 20
-118.80232996301676
 10
166.4094567989508
 20
-118.5742852420613
 10
166.506357419363
 20
-118.34116047095748
 10
166.59160482098468
 20
-118.10352687561692
 10
166.66498972406677
 20
-117.86196656808718
 10
166.72633156669355
 20
-117.61707116060862
 10
166.77547907885898
 20
-117.36944037967112
 10
166.81231085654332
 20
-117.11968068007107
 10
166.83673593578948
 20
-116.86840385896812
 10
166.84668299960728
 20
-116.68473828949496
 10
166.85000000000005
 20
-116.50083327643884
  0
LWPOLYLINE
  5
10E
330
17
100
AcDbEntity
  8
GORUNEN
100
AcDbPolyline
 90
65
 70
0
 10
18.35000000000003
 20
-116.50083327643884
 10
18.343750956891252
 20
-116.24844889500277
 10
18.32501834854124
 20
-115.99668350507804
 10
18.293847758255747
 20
-115.7461542070745
 10
18.25031604586774
 20
-115.49747477844248
 10
18.194530773660887
 20
-115.25125428772964
 10
18.12662963229308
 20
-115.0080957086378
 10
18.04677986671996
 20
-114.76859453407978
 10
17.9551777021184
 20
-114.53333739023627
 10
17.852047769810078
 20
-114.3029006506126
 10
17.737642533184918
 20
-114.0778490500957
 10
17.612241713624666
 20
-113.85873429901076
 10
17.47615171642637
 20
-113.64609369717827
 10
17.329705056725906
 20
-113.44044874797072
 10
17.173259785421497
 20
-113.24230377236948
 10
17.007198915097216
 20
-113.05214452302167
 10
16.83192984455819
 20
-112.87043679966322
 10
16.647882918225637
 20
-112.69762582175798
 10
16.4555088651308
 20
-112.53413601830621
 10
16.25527903767227
 20
-112.38036822577827
 10
16.047684366284784
 20
-112.23669873719086
 10
15.833233973496073
 20
-112.10347872803064
 10
15.612453787983751
 20
-111.98103368217758
 10
15.385885158632174
 20
-111.8696628178287
 10
15.154083468589304
 20
-111.76963851342134
 10
14.91761674932358
 20
-111.68120573355687
 10
14.67706429468079
 20
-111.6045814549241
 10
14.433015274940933
 20
-111.53995409222283
 10
14.186067350875092
 20
-111.48748292408735
 10
13.936825287802296
 20
-111.44729751900994
 10
13.685899569646397
 20
-111.41949716126443
 10
13.433905012992922
 20
-111.40415027682968
 10
13.181459380896552
 20
-111.40129387490612
 10
12.929181878165465
 20
-111.41093452830046
 10
12.677691140502064
 20
-111.43304949800708
 10
12.427603503287347
 20
-111.46758465332883
 10
12.179531602701198
 20
-111.51445474288562
 10
11.934082989779263
 20
-111.57354396869093
 10
11.691858744469815
 20
-111.6447065602282
 10
11.453452089690638
 20
-111.72776734852745
 10
11.219447005385884
 20
-111.82252234024165
 10
10.990416842582958
 20
-111.92873929172328
 10
10.766922937449385
 20
-112.04615828310075
 10
10.549513225349681
 20
-112.17449229235498
 10
10.338720854902228
 20
-112.31342776939576
 10
10.13506280203614
 20
-112.46262521013831
 10
9.939038484048147
 20
-112.6217197305798
 10
9.751128373659455
 20
-112.79032164087575
 10
9.571792649434332
 20
-112.96801705756388
 10
9.40147107239636
 20
-113.15436998593836
 10
9.24058187899934
 20
-113.34892409825953
 10
9.089519299683538
 20
-113.55120259023772
 10
8.94865286559136
 20
-113.76070945578834
 10
8.818326834490861
 20
-113.97693087297506
 10
8.69885961669927
 20
-114.19933658995299
 10
8.590543201006495
 20
-114.42738131091183
 10
8.493642580598635
 20
-114.66050608201897
 10
8.408395178981499
 20
-114.89813967736278
 10
8.335010275904116
 20
-115.13969998489566
 10
8.273668433282252
 20
-115.38459539237725
 10
8.22452092112192
 20
-115.6322261733176
 10
8.187689143442896
 20
-115.8819858729203
 10
8.163264064202227
 20
-116.13326269402566
 10
8.153317000390722
 20
-116.31692826344089
 10
8.150000000000041
 20
-116.50083327643884
  0
LWPOLYLINE
  5
10F
330
17
100
AcDbEntity
  8
GORUNEN
100
AcDbPolyline
 90
65
 70
0
 10
8.150000000000041
 20
-116.50083327643884
 10
8.156249043108822
 20
-116.75321765787504
 10
8.174981651458836
 20
-117.00498304779983
 10
8.206152241744302
 20
-117.25551234580335
 10
8.24968395413224
 20
-117.50419177443527
 10
8.305469226338952
 20
-117.7504122651479
 10
8.373370367706508
 20
-117.99357084423937
 10
8.453220133279236
 20
-118.23307201879683
 10
8.544822297880213
 20
-118.46832916263958
 10
8.647952230187745
 20
-118.69876590226222
 10
8.762357466811858
 20
-118.92381750277787
 10
8.887758286370788
 20
-119.14293225386126
 10
9.023848283567462
 20
-119.35557285569197
 10
9.17029494326599
 20
-119.56121780489757
 10
9.326740214568153
 20
-119.7593627804967
 10
9.492801084889884
 20
-119.94952202984237
 10
9.668070155426092
 20
-120.13122975319877
 10
9.852117081755543
 20
-120.30404073110222
 10
10.044491134846911
 20
-120.4675305345524
 10
10.244720962301557
 20
-120.62129832707903
 10
10.452315633684746
 20
-120.7649678156654
 10
10.666766026468778
 20
-120.89818782482493
 10
10.887546211976117
 20
-121.02063287067764
 10
11.114114841322506
 20
-121.13200373502664
 10
11.345916531360094
 20
-121.23202803943454
 10
11.582383250620563
 20
-121.32046081930008
 10
11.822935705258244
 20
-121.39708509793444
 10
12.066984724993246
 20
-121.46171246063787
 10
12.313932649054577
 20
-121.51418362877607
 10
12.56317471212327
 20
-121.55436903385672
 10
12.814100430275507
 20
-121.58216939160599
 10
13.066094986925737
 20
-121.59751627604493
 10
13.318540619019213
 20
-121.60037267797306
 10
13.570818121747742
 20
-121.5907320245835
 10
13.82230885940904
 20
-121.5686170548818
 10
14.072396496622204
 20
-121.534081899565
 10
14.320468397207403
 20
-121.48721181001312
 10
14.565917010129002
 20
-121.4281225842127
 10
14.808141255438711
 20
-121.3569599926802
 10
15.046547910218706
 20
-121.2738992043856
 10
15.280552994524776
 20
-121.17914421267592
 10
15.509583157329441
 20
-121.07292726119869
 10
15.733077062465107
 20
-120.95550826982546
 10
15.95048677456718
 20
-120.82717426057539
 10
16.16127914501721
 20
-120.68823878353862
 10
16.364937197886032
 20
-120.53904134279998
 10
16.560961515876883
 20
-120.37994682236229
 10
16.74887162626855
 20
-120.21134491207005
 10
16.92820735049679
 20
-120.0336494953855
 10
17.098528927538048
 20
-119.84729656701448
 10
17.25941812093851
 20
-119.65274245469672
 10
17.4104807002579
 20
-119.45046396272191
 10
17.55134713435381
 20
-119.24095709717469
 10
17.68167316545819
 20
-119.02473567999135
 10
17.80114038325381
 20
-118.8023299630168
 10
17.90945679895077
 20
-118.57428524206135
 10
18.00635741936298
 20
-118.34116047095756
 10
18.091604820984646
 20
-118.10352687561704
 10
18.16498972406674
 20
-117.86196656808733
 10
18.226331566693506
 20
-117.61707116060879
 10
18.275479078858943
 20
-117.3694403796713
 10
18.312310856543277
 20
-117.11968068007126
 10
18.336735935789456
 20
-116.86840385896826
 10
18.346682999607253
 20
-116.68473828949504
 10
18.35000000000003
 20
-116.50083327643884
  0
LWPOLYLINE
  5
110
330
17
100
AcDbEntity
  8
GORUNEN
100
AcDbPolyline
 90
65
 70
0
 10
18.35000000000006
 20
-146.50083327643884
 10
18.34375095689128
 20
-146.24844889500275
 10
18.325018348541267
 20
-145.99668350507804
 10
18.293847758255776
 20
-145.7461542070745
 10
18.25031604586777
 20
-145.4974747784425
 10
18.194530773660915
 20
-145.25125428772964
 10
18.12662963229311
 20
-145.0080957086378
 10
18.046779866719987
 20
-144.7685945340798
 10
17.95517770211843
 20
-144.53333739023628
 10
17.852047769810106
 20
-144.3029006506126
 10
17.737642533184946
 20
-144.0778490500957
 10
17.612241713624694
 20
-143.85873429901076
 10
17.476151716426397
 20
-143.6460936971783
 10
17.329705056725935
 20
-143.44044874797072
 10
17.173259785421525
 20
-143.2423037723695
 10
17.007198915097245
 20
-143.05214452302167
 10
16.831929844558218
 20
-142.87043679966322
 10
16.647882918225665
 20
-142.69762582175798
 10
16.455508865130827
 20
-142.5341360183062
 10
16.2552790376723
 20
-142.38036822577828
 10
16.047684366284813
 20
-142.23669873719086
 10
15.833233973496101
 20
-142.10347872803064
 10
15.61245378798378
 20
-141.98103368217758
 10
15.385885158632203
 20
-141.8696628178287
 10
15.154083468589333
 20
-141.76963851342134
 10
14.917616749323608
 20
-141.68120573355685
 10
14.677064294680818
 20
-141.6045814549241
 10
14.433015274940962
 20
-141.5399540922228
 10
14.18606735087512
 20
-141.48748292408735
 10
13.936825287802325
 20
-141.44729751900994
 10
13.685899569646425
 20
-141.41949716126442
 10
13.43390501299295
 20
-141.40415027682968
 10
13.18145938089658
 20
-141.40129387490612
 10
12.929181878165494
 20
-141.41093452830046
 10
12.677691140502093
 20
-141.43304949800708
 10
12.427603503287376
 20
-141.46758465332883
 10
12.179531602701227
 20
-141.51445474288562
 10
11.934082989779291
 20
-141.57354396869093
 10
11.691858744469844
 20
-141.6447065602282
 10
11.453452089690666
 20
-141.72776734852744
 10
11.219447005385913
 20
-141.82252234024165
 10
10.990416842582986
 20
-141.92873929172328
 10
10.766922937449413
 20
-142.04615828310077
 10
10.54951322534971
 20
-142.17449229235498
 10
10.338720854902256
 20
-142.31342776939576
 10
10.135062802036169
 20
-142.46262521013833
 10
9.939038484048176
 20
-142.6217197305798
 10
9.751128373659483
 20
-142.79032164087576
 10
9.57179264943436
 20
-142.96801705756388
 10
9.401471072396388
 20
-143.15436998593836
 10
9.240581878999368
 20
-143.34892409825954
 10
9.089519299683566
 20
-143.55120259023772
 10
8.948652865591388
 20
-143.76070945578834
 10
8.81832683449089
 20
-143.97693087297506
 10
8.698859616699298
 20
-144.199336589953
 10
8.590543201006524
 20
-144.4273813109118
 10
8.493642580598664
 20
-144.66050608201897
 10
8.408395178981527
 20
-144.8981396773628
 10
8.335010275904144
 20
-145.13969998489566
 10
8.27366843328228
 20
-145.38459539237726
 10
8.224520921121949
 20
-145.6322261733176
 10
8.187689143442924
 20
-145.8819858729203
 10
8.163264064202256
 20
-146.13326269402566
 10
8.15331700039075
 20
-146.3169282634409
 10
8.15000000000007
 20
-146.50083327643884
  0
LWPOLYLINE
  5
111
330
17
100
AcDbEntity
  8
GORUNEN
100
AcDbPolyline
 90
65
 70
0
 10
8.15000000000007
 20
-146.50083327643884
 10
8.156249043108847
 20
-146.753217657875
 10
8.174981651458854
 20
-147.00498304779978
 10
8.206152241744316
 20
-147.2555123458033
 10
8.24968395413225
 20
-147.5041917744352
 10
8.305469226338953
 20
-147.75041226514782
 10
8.373370367706501
 20
-147.9935708442393
 10
8.453220133279222
 20
-148.23307201879675
 10
8.544822297880192
 20
-148.46832916263946
 10
8.647952230187713
 20
-148.6987659022621
 10
8.762357466811816
 20
-148.92381750277775
 10
8.887758286370733
 20
-149.14293225386112
 10
9.023848283567393
 20
-149.35557285569183
 10
9.170294943265906
 20
-149.5612178048974
 10
9.326740214568053
 20
-149.75936278049653
 10
9.492801084889768
 20
-149.94952202984223
 10
9.668070155425958
 20
-150.13122975319862
 10
9.85211708175539
 20
-150.30404073110205
 10
10.04449113484674
 20
-150.46753053455225
 10
10.244720962301368
 20
-150.62129832707888
 10
10.452315633684536
 20
-150.76496781566524
 10
10.666766026468549
 20
-150.8981878248248
 10
10.887546211975868
 20
-151.0206328706775
 10
11.114114841322237
 20
-151.1320037350265
 10
11.345916531359807
 20
-151.23202803943443
 10
11.582383250620257
 20
-151.32046081929997
 10
11.822935705257917
 20
-151.39708509793434
 10
12.066984724992901
 20
-151.46171246063778
 10
12.313932649054214
 20
-151.51418362877598
 10
12.56317471212289
 20
-151.55436903385666
 10
12.814100430275111
 20
-151.58216939160596
 10
13.066094986925325
 20
-151.59751627604493
 10
13.318540619018787
 20
-151.60037267797307
 10
13.570818121747301
 20
-151.59073202458353
 10
13.822308859408588
 20
-151.56861705488186
 10
14.072396496621742
 20
-151.53408189956508
 10
14.32046839720693
 20
-151.48721181001324
 10
14.565917010128523
 20
-151.42812258421284
 10
14.808141255438224
 20
-151.35695999268034
 10
15.046547910218216
 20
-151.2738992043858
 10
15.280552994524282
 20
-151.17914421267614
 10
15.509583157328947
 20
-151.07292726119894
 10
15.733077062464615
 20
-150.95550826982577
 10
15.95048677456669
 20
-150.8271742605757
 10
16.161279145016728
 20
-150.688238783539
 10
16.364937197885553
 20
-150.53904134280037
 10
16.560961515876414
 20
-150.3799468223627
 10
16.74887162626809
 20
-150.2113449120705
 10
16.928207350496347
 20
-150.033649495386
 10
17.09852892753762
 20
-149.847296567015
 10
17.2594181209381
 20
-149.65274245469726
 10
17.41048070025751
 20
-149.4504639627225
 10
17.551347134353442
 20
-149.2409570971753
 10
17.68167316545784
 20
-149.024735679992
 10
17.801140383253486
 20
-148.80232996301748
 10
17.909456798950472
 20
-148.57428524206207
 10
18.006357419362715
 20
-148.3411604709583
 10
18.09160482098441
 20
-148.1035268756178
 10
18.164989724066537
 20
-147.86196656808812
 10
18.226331566693343
 20
-147.6170711606096
 10
18.27547907885882
 20
-147.36944037967214
 10
18.312310856543192
 20
-147.11968068007212
 10
18.336735935789417
 20
-146.86840385896915
 10
18.346682999607264
 20
-146.6847382894955
 10
18.35000000000006
 20
-146.50083327643884
  0
LWPOLYLINE
  5
112
330
17
100
AcDbEntity
  8
GORUNEN
100
AcDbPolyline
 90
79
 70
0
 10
169.05
 20
-71.50083327643884
 10
169.04493829371393
 20
-71.2984177342552
 10
169.03173663815684
 20
-71.11666228297102
 10
169.01287377525446
 20
-70.95373733660762
 10
168.98742891536506
 20
-70.79170996461482
 10
168.9554441348946
 20
-70.63084577841825
 10
168.9169723163167
 20
-70.47140844113301
 10
168.87207698114827
 20
-70.31365926433104
 10
168.8208321229249
 20
-70.15785680480839
 10
168.76332204017663
 20
-70.00425646135243
 10
168.6996411694033
 20
-69.85311007150911
 10
168.62989391805021
 20
-69.70466550835029
 10
168.5541944974837
 20
-69.55916627724095
 10
168.47266675596657
 20
-69.41685111260647
 10
168.38544401163375
 20
-69.27795357469991
 10
168.2926688854678
 20
-69.14270164636923
 10
168.1944931342744
 20
-69.0113173298246
 10
168.0910774836581
 20
-68.88401624340567
 10
167.98259146099758
 20
-68.76100721834877
 10
167.86921322842147
 20
-68.64249189555423
 10
167.7511291974239
 20
-68.52866452165075
 10
167.6285329460489
 20
-68.41971222074558
 10
167.5016254205541
 20
-68.315813955771
 10
167.37061479530627
 20
-68.21714007059066
 10
167.2357160695731
 20
-68.12385212295024
 10
167.09715066429044
 20
-68.03610271745318
 10
166.95514601882962
 20
-67.95403533853603
 10
166.8099351877646
 20
-67.87778418344416
 10
166.66175643763947
 20
-67.80747399520716
 10
166.5108528437354
 20
-67.74321989561443
 10
166.35747188683814
 20
-67.68512721819069
 10
166.20186505000513
 20
-67.63329134117153
 10
166.0442874153329
 20
-67.58779752047897
 10
165.88499726072422
 20
-67.54872072269693
 10
165.7242556566554
 20
-67.5161254580468
 10
165.56232606294355
 20
-67.490065613363
 10
165.39947392551386
 20
-67.47058428506845
 10
165.2359662731668
 20
-67.45771361215016
 10
165.07207131434555
 20
-67.45147460913472
 10
164.90805803229
 20
-67.45187705885787
 10
164.74419569299607
 20
-67.45892035893144
 10
164.58075320810045
 20
-67.47259338047296
 10
164.41799866457964
 20
-67.4928737521226
 10
164.25619892090816
 20
-67.51972799829832
 10
164.09561920382592
 20
-67.55311170622034
 10
163.9365227051054
 20
-67.59296969293558
 10
163.77917017831902
 20
-67.6392361723422
 10
163.6238195356062
 20
-67.691834922214
 10
163.47072544444094
 20
-67.75067945122493
 10
163.32013892439875
 20
-67.8156731659735
 10
163.17230694392413
 20
-67.88670953800731
 10
163.02747201709772
 20
-67.96367227084748
 10
162.88587180040363
 20
-68.04643546701314
 10
162.74773868949669
 20
-68.13486379504585
 10
162.61329941596966
 20
-68.22881265653412
 10
162.48277464412052
 20
-68.32812835313784
 10
162.35637856771982
 20
-68.43264825361277
 10
162.23431850677773
 20
-68.54220096083499
 10
162.1167945054385
 20
-68.65660647997069
 10
162.00399928737357
 20
-68.77567678702725
 10
161.89611832113508
 20
-68.89921675999535
 10
161.7933287314801
 20
-69.02702386525897
 10
161.69579898817784
 20
-69.15888842772539
 10
161.60368873898489
 20
-69.29459403405792
 10
161.51714864262098
 20
-69.43391793590867
 10
161.43632020174448
 20
-69.57663145315126
 10
161.3613355959279
 20
-69.72250037711356
 10
161.29231751463345
 20
-69.87128537381041
 10
161.22937899018868
 20
-70.02274238717642
 10
161.17262323076193
 20
-70.1766230422986
 10
161.12214345333786
 20
-70.33267504864921
 10
161.07802271669314
 20
-70.4906426033184
 10
161.04033375437183
 20
-70.65026679424703
 10
161.00913880766106
 20
-70.81128600345933
 10
160.9844894585665
 20
-70.97343631029567
 10
160.96642646278795
 20
-71.13645189464533
 10
160.95497958269488
 20
-71.30006544017917
 10
160.95124505854022
 20
-71.40041845632022
 10
160.95000000000002
 20
-71.50083327643884
  0
LWPOLYLINE
  5
113
330
17
100
AcDbEntity
  8
GORUNEN
100
AcDbPolyline
 90
79
 70
0
 10
160.95000000000002
 20
-71.50083327643884
 10
160.9550617062861
 20
-71.70324881863462
 10
160.96826336184319
 20
-71.88500426992455
 10
160.98712622474557
 20
-72.04792921629006
 10
161.01257108463497
 20
-72.20995658828284
 10
161.04455586510542
 20
-72.37082077447792
 10
161.08302768368333
 20
-72.53025811176069
 10
161.12792301885176
 20
-72.68800728855962
 10
161.17916787707512
 20
-72.84380974807897
 10
161.2366779598234
 20
-72.99741009153163
 10
161.30035883059674
 20
-73.14855648137178
 10
161.3701060819498
 20
-73.29700104452769
 10
161.44580550251632
 20
-73.44250027563447
 10
161.52733324403343
 20
-73.5848154402668
 10
161.61455598836625
 20
-73.72371297817165
 10
161.70733111453222
 20
-73.85896490650111
 10
161.8055068657256
 20
-73.9903492230451
 10
161.90892251634193
 20
-74.11765030946408
 10
162.01740853900242
 20
-74.24065933452187
 10
162.13078677157856
 20
-74.35917465731832
 10
162.24887080257608
 20
-74.47300203122487
 10
162.3714670539511
 20
-74.58195433213375
 10
162.4983745794459
 20
-74.68585259711207
 10
162.62938520469376
 20
-74.78452648229583
 10
162.76428393042704
 20
-74.87781442993901
 10
162.9028493357099
 20
-74.965563835438
 10
163.044853981171
 20
-75.04763121435619
 10
163.19006481223641
 20
-75.12388236944821
 10
163.33824356236212
 20
-75.1941925576846
 10
163.48914715626697
 20
-75.25844665727608
 10
163.6425281131652
 20
-75.31653933469809
 10
163.7981349499994
 20
-75.36837521171525
 10
163.95571258467305
 20
-75.41386903240571
 10
164.11500273928337
 20
-75.45294583018577
 10
164.2757443433541
 20
-75.48554109483416
 10
164.43767393706804
 20
-75.51160093951657
 10
164.6005260745
 20
-75.53108226781012
 10
164.76403372684948
 20
-75.54395294072775
 10
164.92792868567332
 20
-75.5501919437427
 10
165.09194196773143
 20
-75.54978949401904
 10
165.25580430702797
 20
-75.5427461939449
 10
165.41924679192624
 20
-75.52907317240289
 10
165.58200133544977
 20
-75.50879280075291
 10
165.743801079124
 20
-75.48193855457704
 10
165.90438079620907
 20
-75.44855484665497
 10
166.06347729493237
 20
-75.40869685993964
 10
166.2208298217215
 20
-75.36243038053276
 10
166.3761804644369
 20
-75.30983163066034
 10
166.52927455560464
 20
-75.25098710164828
 10
166.67986107564903
 20
-75.18599338689788
 10
166.82769305612555
 20
-75.11495701486142
 10
166.97252798295352
 20
-75.03799428201764
 10
167.11412819964875
 20
-74.95523108584742
 10
167.25226131055646
 20
-74.86680275780918
 10
167.3867005840838
 20
-74.77285389631454
 10
167.5172253559328
 20
-74.67353819970381
 10
167.64362143233296
 20
-74.56901829922157
 10
167.76568149327414
 20
-74.45946559199218
 10
167.8832054946122
 20
-74.34506007285007
 10
167.99600071267574
 20
-74.22598976578833
 10
168.10388167891261
 20
-74.10244979281622
 10
168.2066712685657
 20
-73.97464268754963
 10
168.3042010118659
 20
-73.84277812508124
 10
168.39631126105655
 20
-73.70707251874767
 10
168.48285135741793
 20
-73.56774861689675
 10
168.56367979829176
 20
-73.42503509965488
 10
168.6386644041055
 20
-73.27916617569412
 10
168.70768248539696
 20
-73.13038117899956
 10
168.77062100983864
 20
-72.97892416563651
 10
168.82737676926226
 20
-72.82504351051779
 10
168.87785654668315
 20
-72.66899150417095
 10
168.9219772833247
 20
-72.51102394950556
 10
168.9596662456429
 20
-72.3513997585804
 10
168.9908611923506
 20
-72.19038054937079
 10
169.01551054144218
 20
-72.02823024253578
 10
169.0335735372179
 20
-71.86521465818545
 10
169.04502041730825
 20
-71.70160111264808
 10
169.0487549414606
 20
-71.60124809653306
 10
169.05
 20
-71.50083327643884
  0
LWPOLYLINE
  5
114
330
17
100
AcDbEntity
  8
GIZLI
100
AcDbPolyline
 90
64
 70
0
 10
14.050000000000008
 20
-71.50083327643884
 10
14.044965530936643
 20
-71.29895743951302
 10
14.029874640229883
 20
-71.09758349772578
 10
14.004764846211778
 20
-70.89721209842533
 10
13.969698575786609
 20
-70.69834139648127
 10
13.924763009227771
 20
-70.50146581579314
 10
13.870069863433875
 20
-70.30707482007467
 10
13.805755114182933
 20
-70.11565169596987
 10
13.731978658075153
 20
-69.92767235152631
 10
13.6489239150048
 20
-69.74360413301272
 10
13.556797372149427
 20
-69.5639046630225
 10
13.455828070610231
 20
-69.38902070275186
 10
13.346267035979778
 20
-69.21938704128117
 10
13.228386654252835
 20
-69.05542541462064
 10
13.102479994631858
 20
-68.89754345720834
 10
12.968860080910794
 20
-68.7461336884666
 10
12.827859113248591
 20
-68.60157253693697
 10
12.679827642267275
 20
-68.46421940441951
 10
12.525133697527865
 20
-68.33441577244331
 10
12.364161872550891
 20
-68.21248435328961
 10
12.197312368656316
 20
-68.0987282876782
 10
12.02499999999999
 20
-67.99343039111186
 10
11.847653162280299
 20
-67.89685245075238
 10
11.665712767678965
 20
-67.80923457457655
 10
11.479631148683886
 20
-67.73079459442981
 10
11.289870933519307
 20
-67.66172752446195
 10
11.096903895979155
 20
-67.60220507629128
 10
10.901209782523058
 20
-67.55237523210245
 10
10.70327511955105
 20
-67.51236187673939
 10
10.503592003822297
 20
-67.48226448970814
 10
10.302656879025
 20
-67.46215789785506
 10
10.100969301539175
 20
-67.45209208933554
 10
9.899030698460784
 20
-67.45209208933554
 10
9.69734312097496
 20
-67.46215789785506
 10
9.496407996177663
 20
-67.48226448970814
 10
9.29672488044891
 20
-67.5123618767394
 10
9.098790217476903
 20
-67.55237523210246
 10
8.903096104020806
 20
-67.6022050762913
 10
8.710129066480654
 20
-67.66172752446197
 10
8.520368851316077
 20
-67.73079459442982
 10
8.334287232321
 20
-67.80923457457658
 10
8.152346837719666
 20
-67.8968524507524
 10
7.9749999999999766
 20
-67.99343039111189
 10
7.802687631343651
 20
-68.09872828767824
 10
7.635838127449078
 20
-68.21248435328964
 10
7.474866302472107
 20
-68.33441577244335
 10
7.320172357732698
 20
-68.46421940441954
 10
7.172140886751385
 20
-68.60157253693701
 10
7.031139919089184
 20
-68.74613368846664
 10
6.89752000536812
 20
-68.89754345720839
 10
6.771613345747146
 20
-69.05542541462069
 10
6.653732964020205
 20
-69.21938704128121
 10
6.544171929389755
 20
-69.3890207027519
 10
6.443202627850561
 20
-69.56390466302254
 10
6.351076084995191
 20
-69.74360413301277
 10
6.268021341924839
 20
-69.92767235152637
 10
6.194244885817063
 20
-70.11565169596993
 10
6.1299301365661245
 20
-70.30707482007472
 10
6.07523699077223
 20
-70.5014658157932
 10
6.030301424213396
 20
-70.69834139648133
 10
5.995235153788229
 20
-70.89721209842538
 10
5.970125359770128
 20
-71.09758349772584
 10
5.95503446906337
 20
-71.29895743951307
 10
5.950000000000008
 20
-71.50083327643884
  0
LWPOLYLINE
  5
115
330
17
100
AcDbEntity
  8
GIZLI
100
AcDbPolyline
 90
34
 70
0
 10
148.50000000000003
 20
-83.50083327643884
 10
148.4977292354939
 20
-83.40543912949809
 10
148.4909179040703
 20
-83.31025644631538
 10
148.4795765866215
 20
-83.21550584142544
 10
148.46372777698855
 20
-83.12140580347942
 10
148.44340554356376
 20
-83.02817235684742
 10
148.41865519089353
 20
-82.93601872322115
 10
148.38953292128087
 20
-82.84515498321659
 10
148.35610549638795
 20
-82.75578773797649
 10
148.3184498988388
 20
-82.66811977077309
 10
148.27665299382187
 20
-82.58234970861068
 10
148.23081119069275
 20
-82.49867168382823
 10
148.1810301045766
 20
-82.417274995702
 10
148.1274242179709
 20
-82.33834377204815
 10
148.07011654234807
 20
-82.26205663082537
 10
148.00923827975805
 20
-82.18858634173746
 10
147.94492848443082
 20
-82.11809948783599
 10
147.87733372437916
 20
-82.0507561271229
 10
147.80660774300125
 20
-81.98670945415304
 10
147.73291112068316
 20
-81.92610546163694
 10
147.6564109364016
 20
-81.86908260204325
 10
147.5772804293265
 20
-81.8157714492015
 10
147.49569866042347
 20
-81.7662943599046
 10
147.41185017405672
 20
-81.72076513551156
 10
147.3259246595914
 20
-81.67928868354998
 10
147.23811661299632
 20
-81.64196067931879
 10
147.1486249984466
 20
-81.60886722749076
 10
147.0576529099262
 20
-81.58008452371519
 10
146.96540723283056
 20
-81.5556785162205
 10
146.87209830556932
 20
-81.5357045674168
 10
146.77793958116877
 20
-81.52020711549858
 10
146.68314728887455
 20
-81.50921933604725
 10
146.59166727643955
 20
-81.5029299514996
 10
146.50000000000003
 20
-81.50083327643884
  0
LWPOLYLINE
  5
116
330
17
100
AcDbEntity
  8
GIZLI
100
AcDbPolyline
 90
2
 70
0
 10
28.500000000000007
 20
-81.5008332764389
 10
146.50000000000003
 20
-81.50083327643878
  0
LWPOLYLINE
  5
117
330
17
100
AcDbEntity
  8
GIZLI
100
AcDbPolyline
 90
34
 70
0
 10
28.500000000000007
 20
-81.50083327643884
 10
28.404605853059284
 20
-81.50310404094498
 10
28.309423169876595
 20
-81.50991537236857
 10
28.21467256498668
 20
-81.52125668981736
 10
28.12057252704067
 20
-81.53710549945035
 10
28.02733908040868
 20
-81.55742773287514
 10
27.93518544678243
 20
-81.58217808554537
 10
27.84432170677787
 20
-81.61130035515804
 10
27.75495446153778
 20
-81.64472778005097
 10
27.667286494334387
 20
-81.68238337760012
 10
27.581516432171984
 20
-81.72418028261704
 10
27.497838407389537
 20
-81.77002208574618
 10
27.41644171926331
 20
-81.81980317186233
 10
27.33751049560946
 20
-81.87340905846803
 10
27.261223354386676
 20
-81.93071673409084
 10
27.187753065298768
 20
-81.99159499668089
 10
27.1172662113973
 20
-82.05590479200812
 10
27.049922850684194
 20
-82.12349955205977
 10
26.98587617771434
 20
-82.19422553343769
 10
26.925272185198228
 20
-82.26792215575577
 10
26.86824932560454
 20
-82.34442234003731
 10
26.814938172762783
 20
-82.42355284711245
 10
26.765461083465887
 20
-82.50513461601547
 10
26.719931859072826
 20
-82.58898310238222
 10
26.678455407111237
 20
-82.67490861684755
 10
26.641127402880027
 20
-82.76271666344263
 10
26.608033951051986
 20
-82.85220827799236
 10
26.57925124727641
 20
-82.94318036651276
 10
26.5548452397817
 20
-83.03542604360838
 10
26.53487129097799
 20
-83.12873497086962
 10
26.51937383905976
 20
-83.22289369527016
 10
26.508386059608434
 20
-83.31768598756436
 10
26.50209667506076
 20
-83.40916599999936
 10
26.500000000000007
 20
-83.50083327643884
  0
LWPOLYLINE
  5
118
330
17
100
AcDbEntity
  8
GIZLI
100
AcDbPolyline
 90
2
 70
0
 10
26.500000000000075
 20
-156.50083327643884
 10
26.50000000000001
 20
-83.50083327643884
  0
LWPOLYLINE
  5
119
330
17
100
AcDbEntity
  8
GIZLI
100
AcDbPolyline
 90
2
 70
0
 10
26.500000000000078
 20
-156.50083327643884
 10
21.500000000000078
 20
-161.50083327643884
  0
LWPOLYLINE
  5
11A
330
17
100
AcDbEntity
  8
GIZLI
100
AcDbPolyline
 90
2
 70
0
 10
5.000000000000079
 20
-161.50083327643893
 10
21.500000000000078
 20
-161.5008332764389
  0
LWPOLYLINE
  5
11B
330
17
100
AcDbEntity
  8
GIZLI
100
AcDbPolyline
 90
2
 70
0
 10
5.000000000000079
 20
-161.50083327643884
 10
7.86120842900806e-14
 20
-156.50083327643884
  0
LWPOLYLINE
  5
11C
330
17
100
AcDbEntity
  8
GIZLI
100
AcDbPolyline
 90
2
 70
0
 10
7.645652774085354e-14
 20
-156.50083327643884
 10
0.0
 20
-71.50083327643884
  0
LWPOLYLINE
  5
11D
330
17
100
AcDbEntity
  8
GIZLI
100
AcDbPolyline
 90
35
 70
0
 10
9.999999999999993
 20
-61.50083327643884
 10
9.535544025265649
 20
-61.51159867441504
 10
9.072063029583905
 20
-61.54389117102852
 10
8.610575824219797
 20
-61.59766410836227
 10
8.152091744049766
 20
-61.67281719755228
 10
7.697609166338257
 20
-61.769198000010945
 10
7.2481140295143005
 20
-61.88660340865046
 10
6.804578351948103
 20
-62.02478112910623
 10
6.367958750727636
 20
-62.18343116096034
 10
5.939194960435217
 20
-62.36220727896489
 10
5.519208351924105
 20
-62.56071851426543
 10
5.1089004510950815
 20
-62.77853063562442
 10
4.709151457673043
 20
-63.015167630644584
 10
4.320818763983583
 20
-63.27011318699236
 10
3.944735473729588
 20
-63.5428121736213
 10
3.581708920767817
 20
-63.832672121995444
 10
3.2325191878854906
 20
-64.13906470731281
 10
2.8979176255768837
 20
-64.46132722972877
 10
2.5786253708199047
 20
-64.79876409557941
 10
2.27533186585269
 20
-65.15064829860503
 10
1.9886933769501902
 20
-65.51622290117353
 10
1.7193315132007556
 20
-65.8947025155038
 10
1.4678317452827199
 20
-66.28527478488908
 10
1.234741924241002
 20
-66.68710186492055
 10
1.0205708002636755
 20
-67.09932190471054
 10
0.8257865414585699
 20
-67.52105052811605
 10
0.6508152526298496
 20
-67.95138231496216
 10
0.4960394940546071
 20
-68.38939228226543
 10
0.36179680025944494
 20
-68.8341373654573
 10
0.24837819879707235
 20
-69.28465789960748
 10
0.15602672902288228
 20
-69.73997910064746
 10
0.08493596087154077
 20
-70.1991125465938
 10
0.035248513633583396
 20
-70.6610576587716
 10
0.008812325606327063
 20
-71.08058625963278
 10
7.557810714070579e-15
 20
-71.50083327643884
  0
LWPOLYLINE
  5
11E
330
17
100
AcDbEntity
  8
GIZLI
100
AcDbPolyline
 90
2
 70
0
 10
9.999999999999993
 20
-61.50083327643891
 10
165.0
 20
-61.50083327643877
  0
LWPOLYLINE
  5
11F
330
17
100
AcDbEntity
  8
GIZLI
100
AcDbPolyline
 90
35
 70
0
 10
175.00000000000003
 20
-71.50083327643884
 10
174.98923460202386
 20
-71.03637730171306
 10
174.95694210541052
 20
-70.57289630603908
 10
174.90316916807717
 20
-70.11140910068201
 10
174.82801607888794
 20
-69.65292502051835
 10
174.7316352764305
 20
-69.19844244281259
 10
174.61422986779274
 20
-68.74894730599382
 10
174.47605214733932
 20
-68.3054116284323
 10
174.31740211548825
 20
-67.86879202721602
 10
174.13862599748745
 20
-67.44002823692735
 10
173.9401147621914
 20
-67.02004162841956
 10
173.72230264083765
 20
-66.60973372759348
 10
173.4856656458235
 20
-66.20998473417401
 10
173.23072008948253
 20
-65.82165204048677
 10
172.95802110286115
 20
-65.44556875023464
 10
172.66816115449532
 20
-65.0825421972744
 10
172.36176856918698
 20
-64.73335246439326
 10
172.03950604678073
 20
-64.3987509020855
 10
171.7020691809404
 20
-64.07945864732899
 10
171.35018497792564
 20
-63.77616514236186
 10
170.9846103753685
 20
-63.48952665345905
 10
170.60613076105005
 20
-63.220164789708875
 10
170.21555849167686
 20
-62.96866502178963
 10
169.81373141165773
 20
-62.73557520074621
 10
169.40151137188022
 20
-62.521404076766615
 10
168.9797827484872
 20
-62.32661981795866
 10
168.54945096165346
 20
-62.15164852912642
 10
168.11144099436237
 20
-61.99687277054696
 10
167.6666959111823
 20
-61.8626300767468
 10
167.2161753770434
 20
-61.74921147527857
 10
166.76085417601408
 20
-61.65686000549759
 10
166.3017207300776
 20
-61.58576923733847
 10
165.83977561790869
 20
-61.536081790091615
 10
165.42024701692742
 20
-61.50964560204994
 10
165.0
 20
-61.50083327643884
  0
LWPOLYLINE
  5
120
330
17
100
AcDbEntity
  8
GIZLI
100
AcDbPolyline
 90
2
 70
0
 10
175.00000000000006
 20
-156.50083327643884
 10
175.0
 20
-71.50083327643884
  0
LWPOLYLINE
  5
121
330
17
100
AcDbEntity
  8
GIZLI
100
AcDbPolyline
 90
2
 70
0
 10
175.00000000000009
 20
-156.50083327643884
 10
170.00000000000009
 20
-161.50083327643884
  0
LWPOLYLINE
  5
122
330
17
100
AcDbEntity
  8
GIZLI
100
AcDbPolyline
 90
2
 70
0
 10
153.50000000000009
 20
-161.50083327643878
 10
170.00000000000009
 20
-161.50083327643875
  0
LWPOLYLINE
  5
123
330
17
100
AcDbEntity
  8
GIZLI
100
AcDbPolyline
 90
2
 70
0
 10
153.50000000000009
 20
-161.50083327643884
 10
148.50000000000009
 20
-156.50083327643884
  0
LWPOLYLINE
  5
124
330
17
100
AcDbEntity
  8
GIZLI
100
AcDbPolyline
 90
2
 70
0
 10
148.50000000000006
 20
-156.50083327643884
 10
148.5
 20
-83.50083327643884
  0
LWPOLYLINE
  5
125
330
17
100
AcDbEntity
  8
GIZLI
100
AcDbPolyline
 90
65
 70
0
 10
156.65000000000006
 20
-146.50083327643884
 10
156.65624904310883
 20
-146.7532176578749
 10
156.67498165145884
 20
-147.0049830477996
 10
156.70615224174432
 20
-147.25551234580308
 10
156.74968395413225
 20
-147.504191774435
 10
156.80546922633894
 20
-147.75041226514762
 10
156.87337036770649
 20
-147.9935708442391
 10
156.95322013327922
 20
-148.23307201879658
 10
157.04482229788016
 20
-148.46832916263932
 10
157.14795223018768
 20
-148.69876590226198
 10
157.26235746681178
 20
-148.9238175027776
 10
157.38775828637068
 20
-149.142932253861
 10
157.52384828356733
 20
-149.35557285569172
 10
157.67029494326584
 20
-149.5612178048973
 10
157.82674021456796
 20
-149.75936278049642
 10
157.99280108488966
 20
-149.94952202984211
 10
158.16807015542582
 20
-150.1312297531985
 10
158.35211708175524
 20
-150.30404073110194
 10
158.54449113484657
 20
-150.46753053455214
 10
158.7447209623012
 20
-150.62129832707876
 10
158.95231563368435
 20
-150.76496781566513
 10
159.16676602646834
 20
-150.89818782482467
 10
159.38754621197563
 20
-151.0206328706774
 10
159.614114841322
 20
-151.1320037350264
 10
159.84591653135956
 20
-151.23202803943428
 10
160.08238325061998
 20
-151.3204608192998
 10
160.32293570525763
 20
-151.39708509793417
 10
160.5669847249926
 20
-151.46171246063759
 10
160.81393264905392
 20
-151.51418362877578
 10
161.0631747121226
 20
-151.55436903385643
 10
161.31410043027478
 20
-151.5821693916057
 10
161.56609498692498
 20
-151.59751627604467
 10
161.81854061901845
 20
-151.60037267797284
 10
162.07081812174695
 20
-151.59073202458333
 10
162.32230885940822
 20
-151.56861705488168
 10
162.57239649662137
 20
-151.53408189956497
 10
162.82046839720655
 20
-151.48721181001318
 10
163.06591701012815
 20
-151.42812258421282
 10
163.30814125543785
 20
-151.3569599926804
 10
163.5465479102178
 20
-151.27389920438588
 10
163.7805529945239
 20
-151.17914421267628
 10
164.00958315732856
 20
-151.0729272611991
 10
164.23307706246422
 20
-150.95550826982597
 10
164.45048677456631
 20
-150.82717426057593
 10
164.66127914501635
 20
-150.68823878353925
 10
164.86493719788518
 20
-150.53904134280066
 10
165.06096151587604
 20
-150.37994682236302
 10
165.24887162626771
 20
-150.21134491207084
 10
165.428207350496
 20
-150.03364949538636
 10
165.5985289275373
 20
-149.8472965670154
 10
165.75941812093777
 20
-149.6527424546977
 10
165.9104807002572
 20
-149.45046396272295
 10
166.05134713435314
 20
-149.24095709717577
 10
166.18167316545757
 20
-149.02473567999246
 10
166.30114038325323
 20
-148.80232996301797
 10
166.40945679895023
 20
-148.57428524206256
 10
166.5063574193625
 20
-148.34116047095876
 10
166.59160482098423
 20
-148.10352687561826
 10
166.66498972406637
 20
-147.86196656808858
 10
166.7263315666932
 20
-147.61707116061004
 10
166.7754790788587
 20
-147.3694403796726
 10
166.81231085654312
 20
-147.11968068007258
 10
166.83673593578936
 20
-146.86840385896966
 10
166.84668299960725
 20
-146.68473828949573
 10
166.85000000000005
 20
-146.50083327643884
  0
LWPOLYLINE
  5
126
330
17
100
AcDbEntity
  8
GIZLI
100
AcDbPolyline
 90
65
 70
0
 10
166.85000000000005
 20
-146.50083327643884
 10
166.84375095689128
 20
-146.24844889500264
 10
166.82501834854125
 20
-145.99668350507784
 10
166.79384775825577
 20
-145.74615420707428
 10
166.75031604586775
 20
-145.49747477844227
 10
166.69453077366092
 20
-145.25125428772944
 10
166.6266296322931
 20
-145.0080957086376
 10
166.54677986671996
 20
-144.76859453407963
 10
166.4551777021184
 20
-144.5333373902361
 10
166.35204776981007
 20
-144.30290065061246
 10
166.2376425331849
 20
-144.07784905009555
 10
166.11224171362463
 20
-143.85873429901065
 10
165.97615171642633
 20
-143.64609369717815
 10
165.82970505672586
 20
-143.4404487479706
 10
165.67325978542144
 20
-143.24230377236935
 10
165.50719891509715
 20
-143.05214452302155
 10
165.33192984455812
 20
-142.87043679966308
 10
165.14788291822555
 20
-142.69762582175784
 10
164.9555088651307
 20
-142.53413601830607
 10
164.75527903767215
 20
-142.38036822577814
 10
164.54768436628464
 20
-142.23669873719075
 10
164.3332339734959
 20
-142.1034787280305
 10
164.11245378798358
 20
-141.98103368217744
 10
163.88588515863196
 20
-141.86966281782856
 10
163.65408346858908
 20
-141.76963851342117
 10
163.41761674932334
 20
-141.6812057335567
 10
163.17706429468055
 20
-141.6045814549239
 10
162.93301527494066
 20
-141.53995409222262
 10
162.68606735087482
 20
-141.48748292408712
 10
162.436825287802
 20
-141.4472975190097
 10
162.1858995696461
 20
-141.4194971612642
 10
161.9339050129926
 20
-141.40415027682945
 10
161.68145938089623
 20
-141.4012938749059
 10
161.4291818781651
 20
-141.41093452830026
 10
161.1776911405017
 20
-141.43304949800694
 10
160.92760350328697
 20
-141.46758465332874
 10
160.67953160270082
 20
-141.5144547428856
 10
160.4340829897789
 20
-141.57354396869093
 10
160.1918587444694
 20
-141.64470656022826
 10
159.95345208969024
 20
-141.72776734852755
 10
159.7194470053855
 20
-141.8225223402418
 10
159.49041684258256
 20
-141.92873929172347
 10
159.26692293744898
 20
-142.046158283101
 10
159.04951322534927
 20
-142.17449229235524
 10
158.83872085490182
 20
-142.31342776939604
 10
158.63506280203575
 20
-142.46262521013864
 10
158.43903848404776
 20
-142.62171973058017
 10
158.2511283736591
 20
-142.79032164087613
 10
158.07179264943397
 20
-142.9680170575643
 10
157.90147107239602
 20
-143.1543699859388
 10
157.740581878999
 20
-143.34892409826
 10
157.58951929968322
 20
-143.55120259023823
 10
157.44865286559104
 20
-143.76070945578886
 10
157.3183268344906
 20
-143.9769308729756
 10
157.198859616699
 20
-144.19933658995356
 10
157.09054320100626
 20
-144.42738131091238
 10
156.99364258059842
 20
-144.66050608201954
 10
156.90839517898132
 20
-144.89813967736333
 10
156.83501027590395
 20
-145.1396999848962
 10
156.77366843328213
 20
-145.38459539237778
 10
156.72452092112184
 20
-145.63222617331814
 10
156.68768914344284
 20
-145.88198587292086
 10
156.6632640642022
 20
-146.13326269402626
 10
156.65331700039073
 20
-146.31692826344118
 10
156.65000000000006
 20
-146.50083327643884
  0
LWPOLYLINE
  5
127
330
17
100
AcDbEntity
  8
GIZLI
100
AcDbPolyline
 90
65
 70
0
 10
156.65000000000006
 20
-116.50083327643884
 10
156.65624904310883
 20
-116.75321765787493
 10
156.67498165145884
 20
-117.00498304779966
 10
156.70615224174432
 20
-117.25551234580317
 10
156.74968395413225
 20
-117.5041917744351
 10
156.80546922633894
 20
-117.75041226514773
 10
156.8733703677065
 20
-117.99357084423924
 10
156.95322013327925
 20
-118.23307201879673
 10
157.04482229788022
 20
-118.4683291626395
 10
157.14795223018774
 20
-118.69876590226218
 10
157.26235746681186
 20
-118.92381750277784
 10
157.3877582863708
 20
-119.14293225386126
 10
157.52384828356747
 20
-119.35557285569197
 10
157.670294943266
 20
-119.56121780489757
 10
157.82674021456816
 20
-119.7593627804967
 10
157.9928010848899
 20
-119.94952202984237
 10
158.1680701554261
 20
-120.13122975319877
 10
158.35211708175555
 20
-120.30404073110222
 10
158.54449113484694
 20
-120.4675305345524
 10
158.74472096230159
 20
-120.62129832707903
 10
158.95231563368478
 20
-120.76496781566539
 10
159.1667660264688
 20
-120.89818782482493
 10
159.38754621197614
 20
-121.02063287067763
 10
159.61411484132253
 20
-121.13200373502661
 10
159.8459165313601
 20
-121.23202803943451
 10
160.08238325062058
 20
-121.32046081930001
 10
160.32293570525826
 20
-121.39708509793434
 10
160.56698472499326
 20
-121.46171246063774
 10
160.81393264905458
 20
-121.5141836287759
 10
161.06317471212327
 20
-121.55436903385655
 10
161.31410043027552
 20
-121.58216939160577
 10
161.56609498692575
 20
-121.5975162760447
 10
161.81854061901922
 20
-121.60037267797283
 10
162.07081812174772
 20
-121.59073202458329
 10
162.32230885940902
 20
-121.5686170548816
 10
162.5723964966222
 20
-121.53408189956482
 10
162.82046839720738
 20
-121.487211810013
 10
163.065917010129
 20
-121.42812258421259
 10
163.3081412554387
 20
-121.35695999268012
 10
163.5465479102187
 20
-121.27389920438554
 10
163.78055299452475
 20
-121.17914421267588
 10
164.00958315732942
 20
-121.07292726119866
 10
164.2330770624651
 20
-120.95550826982546
 10
164.45048677456717
 20
-120.82717426057538
 10
164.66127914501718
 20
-120.68823878353862
 10
164.864937197886
 20
-120.53904134279998
 10
165.06096151587687
 20
-120.37994682236229
 10
165.24887162626854
 20
-120.21134491207005
 10
165.42820735049682
 20
-120.0336494953855
 10
165.59852892753807
 20
-119.84729656701448
 10
165.75941812093853
 20
-119.65274245469672
 10
165.91048070025792
 20
-119.45046396272191
 10
166.05134713435385
 20
-119.24095709717467
 10
166.18167316545822
 20
-119.02473567999132
 10
166.30114038325382
 20
-118.80232996301676
 10
166.4094567989508
 20
-118.5742852420613
 10
166.506357419363
 20
-118.34116047095748
 10
166.59160482098468
 20
-118.10352687561692
 10
166.66498972406677
 20
-117.86196656808718
 10
166.72633156669355
 20
-117.61707116060862
 10
166.77547907885898
 20
-117.36944037967112
 10
166.81231085654332
 20
-117.11968068007107
 10
166.83673593578948
 20
-116.86840385896812
 10
166.84668299960728
 20
-116.68473828949496
 10
166.85000000000005
 20
-116.50083327643884
  0
LWPOLYLINE
  5
128
330
17
100
AcDbEntity
  8
GIZLI
100
AcDbPolyline
 90
65
 70
0
 10
166.85000000000005
 20
-116.50083327643884
 10
166.84375095689128
 20
-116.24844889500267
 10
166.82501834854125
 20
-115.9966835050779
 10
166.79384775825577
 20
-115.74615420707434
 10
166.75031604586778
 20
-115.49747477844235
 10
166.69453077366092
 20
-115.25125428772954
 10
166.62662963229312
 20
-115.00809570863774
 10
166.54677986672
 20
-114.76859453407977
 10
166.45517770211845
 20
-114.53333739023628
 10
166.35204776981013
 20
-114.30290065061266
 10
166.23764253318498
 20
-114.07784905009576
 10
166.11224171362474
 20
-113.85873429901085
 10
165.97615171642644
 20
-113.64609369717837
 10
165.829705056726
 20
-113.44044874797083
 10
165.6732597854216
 20
-113.24230377236961
 10
165.50719891509735
 20
-113.05214452302178
 10
165.33192984455835
 20
-112.87043679966334
 10
165.1478829182258
 20
-112.6976258217581
 10
164.95550886513098
 20
-112.53413601830633
 10
164.75527903767247
 20
-112.38036822577838
 10
164.54768436628498
 20
-112.23669873719098
 10
164.33323397349628
 20
-112.10347872803074
 10
164.11245378798398
 20
-111.98103368217768
 10
163.88588515863242
 20
-111.86966281782875
 10
163.65408346858956
 20
-111.76963851342138
 10
163.41761674932386
 20
-111.68120573355688
 10
163.17706429468106
 20
-111.60458145492407
 10
162.93301527494123
 20
-111.53995409222276
 10
162.6860673508754
 20
-111.48748292408723
 10
162.4368252878026
 20
-111.4472975190098
 10
162.18589956964672
 20
-111.41949716126425
 10
161.93390501299325
 20
-111.40415027682948
 10
161.68145938089688
 20
-111.40129387490589
 10
161.42918187816582
 20
-111.41093452830022
 10
161.17769114050242
 20
-111.43304949800684
 10
160.9276035032877
 20
-111.4675846533286
 10
160.67953160270156
 20
-111.51445474288542
 10
160.43408298977965
 20
-111.57354396869073
 10
160.1918587444702
 20
-111.644706560228
 10
159.953452089691
 20
-111.72776734852725
 10
159.7194470053863
 20
-111.82252234024145
 10
159.49041684258336
 20
-111.92873929172308
 10
159.26692293744978
 20
-112.04615828310054
 10
159.04951322535007
 20
-112.17449229235474
 10
158.83872085490262
 20
-112.3134277693955
 10
158.63506280203651
 20
-112.46262521013804
 10
158.43903848404852
 20
-112.62171973057951
 10
158.2511283736598
 20
-112.79032164087542
 10
158.07179264943468
 20
-112.96801705756351
 10
157.9014710723967
 20
-113.15436998593798
 10
157.74058187899968
 20
-113.34892409825912
 10
157.58951929968384
 20
-113.5512025902373
 10
157.44865286559164
 20
-113.76070945578788
 10
157.31832683449113
 20
-113.97693087297458
 10
157.19885961669954
 20
-114.19933658995248
 10
157.09054320100674
 20
-114.42738131091124
 10
156.99364258059884
 20
-114.66050608201836
 10
156.9083951789817
 20
-114.89813967736211
 10
156.8350102759043
 20
-115.13969998489495
 10
156.7736684332824
 20
-115.3845953923765
 10
156.72452092112204
 20
-115.63222617331681
 10
156.68768914344298
 20
-115.8819858729195
 10
156.6632640642023
 20
-116.13326269402488
 10
156.65331700039076
 20
-116.31692826344047
 10
156.65000000000006
 20
-116.50083327643884
  0
LWPOLYLINE
  5
129
330
17
100
AcDbEntity
  8
GIZLI
100
AcDbPolyline
 90
65
 70
0
 10
8.150000000000041
 20
-116.50083327643884
 10
8.156249043108822
 20
-116.75321765787504
 10
8.174981651458836
 20
-117.00498304779983
 10
8.206152241744302
 20
-117.25551234580335
 10
8.24968395413224
 20
-117.50419177443527
 10
8.305469226338952
 20
-117.7504122651479
 10
8.373370367706508
 20
-117.99357084423937
 10
8.453220133279236
 20
-118.23307201879683
 10
8.544822297880213
 20
-118.46832916263958
 10
8.647952230187745
 20
-118.69876590226222
 10
8.762357466811858
 20
-118.92381750277787
 10
8.887758286370788
 20
-119.14293225386126
 10
9.023848283567462
 20
-119.35557285569197
 10
9.17029494326599
 20
-119.56121780489757
 10
9.326740214568153
 20
-119.7593627804967
 10
9.492801084889884
 20
-119.94952202984237
 10
9.668070155426092
 20
-120.13122975319877
 10
9.852117081755543
 20
-120.30404073110222
 10
10.044491134846911
 20
-120.4675305345524
 10
10.244720962301557
 20
-120.62129832707903
 10
10.452315633684746
 20
-120.7649678156654
 10
10.666766026468778
 20
-120.89818782482493
 10
10.887546211976117
 20
-121.02063287067764
 10
11.114114841322506
 20
-121.13200373502664
 10
11.345916531360094
 20
-121.23202803943454
 10
11.582383250620563
 20
-121.32046081930008
 10
11.822935705258244
 20
-121.39708509793444
 10
12.066984724993246
 20
-121.46171246063787
 10
12.313932649054577
 20
-121.51418362877607
 10
12.56317471212327
 20
-121.55436903385672
 10
12.814100430275507
 20
-121.58216939160599
 10
13.066094986925737
 20
-121.59751627604493
 10
13.318540619019213
 20
-121.60037267797306
 10
13.570818121747742
 20
-121.5907320245835
 10
13.82230885940904
 20
-121.5686170548818
 10
14.072396496622204
 20
-121.534081899565
 10
14.320468397207403
 20
-121.48721181001312
 10
14.565917010129002
 20
-121.4281225842127
 10
14.808141255438711
 20
-121.3569599926802
 10
15.046547910218706
 20
-121.2738992043856
 10
15.280552994524776
 20
-121.17914421267592
 10
15.509583157329441
 20
-121.07292726119869
 10
15.733077062465107
 20
-120.95550826982546
 10
15.95048677456718
 20
-120.82717426057539
 10
16.16127914501721
 20
-120.68823878353862
 10
16.364937197886032
 20
-120.53904134279998
 10
16.560961515876883
 20
-120.37994682236229
 10
16.74887162626855
 20
-120.21134491207005
 10
16.92820735049679
 20
-120.0336494953855
 10
17.098528927538048
 20
-119.84729656701448
 10
17.25941812093851
 20
-119.65274245469672
 10
17.4104807002579
 20
-119.45046396272191
 10
17.55134713435381
 20
-119.24095709717469
 10
17.68167316545819
 20
-119.02473567999135
 10
17.80114038325381
 20
-118.8023299630168
 10
17.90945679895077
 20
-118.57428524206135
 10
18.00635741936298
 20
-118.34116047095756
 10
18.091604820984646
 20
-118.10352687561704
 10
18.16498972406674
 20
-117.86196656808733
 10
18.226331566693506
 20
-117.61707116060879
 10
18.275479078858943
 20
-117.3694403796713
 10
18.312310856543277
 20
-117.11968068007126
 10
18.336735935789456
 20
-116.86840385896826
 10
18.346682999607253
 20
-116.68473828949504
 10
18.35000000000003
 20
-116.50083327643884
  0
LWPOLYLINE
  5
12A
330
17
100
AcDbEntity
  8
GIZLI
100
AcDbPolyline
 90
65
 70
0
 10
18.35000000000003
 20
-116.50083327643884
 10
18.343750956891252
 20
-116.24844889500277
 10
18.32501834854124
 20
-115.99668350507804
 10
18.293847758255747
 20
-115.7461542070745
 10
18.25031604586774
 20
-115.49747477844248
 10
18.194530773660887
 20
-115.25125428772964
 10
18.12662963229308
 20
-115.0080957086378
 10
18.04677986671996
 20
-114.76859453407978
 10
17.9551777021184
 20
-114.53333739023627
 10
17.852047769810078
 20
-114.3029006506126
 10
17.737642533184918
 20
-114.0778490500957
 10
17.612241713624666
 20
-113.85873429901076
 10
17.47615171642637
 20
-113.64609369717827
 10
17.329705056725906
 20
-113.44044874797072
 10
17.173259785421497
 20
-113.24230377236948
 10
17.007198915097216
 20
-113.05214452302167
 10
16.83192984455819
 20
-112.87043679966322
 10
16.647882918225637
 20
-112.69762582175798
 10
16.4555088651308
 20
-112.53413601830621
 10
16.25527903767227
 20
-112.38036822577827
 10
16.047684366284784
 20
-112.23669873719086
 10
15.833233973496073
 20
-112.10347872803064
 10
15.612453787983751
 20
-111.98103368217758
 10
15.385885158632174
 20
-111.8696628178287
 10
15.154083468589304
 20
-111.76963851342134
 10
14.91761674932358
 20
-111.68120573355687
 10
14.67706429468079
 20
-111.6045814549241
 10
14.433015274940933
 20
-111.53995409222283
 10
14.186067350875092
 20
-111.48748292408735
 10
13.936825287802296
 20
-111.44729751900994
 10
13.685899569646397
 20
-111.41949716126443
 10
13.433905012992922
 20
-111.40415027682968
 10
13.181459380896552
 20
-111.40129387490612
 10
12.929181878165465
 20
-111.41093452830046
 10
12.677691140502064
 20
-111.43304949800708
 10
12.427603503287347
 20
-111.46758465332883
 10
12.179531602701198
 20
-111.51445474288562
 10
11.934082989779263
 20
-111.57354396869093
 10
11.691858744469815
 20
-111.6447065602282
 10
11.453452089690638
 20
-111.72776734852745
 10
11.219447005385884
 20
-111.82252234024165
 10
10.990416842582958
 20
-111.92873929172328
 10
10.766922937449385
 20
-112.04615828310075
 10
10.549513225349681
 20
-112.17449229235498
 10
10.338720854902228
 20
-112.31342776939576
 10
10.13506280203614
 20
-112.46262521013831
 10
9.939038484048147
 20
-112.6217197305798
 10
9.751128373659455
 20
-112.79032164087575
 10
9.571792649434332
 20
-112.96801705756388
 10
9.40147107239636
 20
-113.15436998593836
 10
9.24058187899934
 20
-113.34892409825953
 10
9.089519299683538
 20
-113.55120259023772
 10
8.94865286559136
 20
-113.76070945578834
 10
8.818326834490861
 20
-113.97693087297506
 10
8.69885961669927
 20
-114.19933658995299
 10
8.590543201006495
 20
-114.42738131091183
 10
8.493642580598635
 20
-114.66050608201897
 10
8.408395178981499
 20
-114.89813967736278
 10
8.335010275904116
 20
-115.13969998489566
 10
8.273668433282252
 20
-115.38459539237725
 10
8.22452092112192
 20
-115.6322261733176
 10
8.187689143442896
 20
-115.8819858729203
 10
8.163264064202227
 20
-116.13326269402566
 10
8.153317000390722
 20
-116.31692826344089
 10
8.150000000000041
 20
-116.50083327643884
  0
LWPOLYLINE
  5
12B
330
17
100
AcDbEntity
  8
GIZLI
100
AcDbPolyline
 90
65
 70
0
 10
8.15000000000007
 20
-146.50083327643884
 10
8.156249043108847
 20
-146.753217657875
 10
8.174981651458854
 20
-147.00498304779978
 10
8.206152241744316
 20
-147.2555123458033
 10
8.24968395413225
 20
-147.5041917744352
 10
8.305469226338953
 20
-147.75041226514782
 10
8.373370367706501
 20
-147.9935708442393
 10
8.453220133279222
 20
-148.23307201879675
 10
8.544822297880192
 20
-148.46832916263946
 10
8.647952230187713
 20
-148.6987659022621
 10
8.762357466811816
 20
-148.92381750277775
 10
8.887758286370733
 20
-149.14293225386112
 10
9.023848283567393
 20
-149.35557285569183
 10
9.170294943265906
 20
-149.5612178048974
 10
9.326740214568053
 20
-149.75936278049653
 10
9.492801084889768
 20
-149.94952202984223
 10
9.668070155425958
 20
-150.13122975319862
 10
9.85211708175539
 20
-150.30404073110205
 10
10.04449113484674
 20
-150.46753053455225
 10
10.244720962301368
 20
-150.62129832707888
 10
10.452315633684536
 20
-150.76496781566524
 10
10.666766026468549
 20
-150.8981878248248
 10
10.887546211975868
 20
-151.0206328706775
 10
11.114114841322237
 20
-151.1320037350265
 10
11.345916531359807
 20
-151.23202803943443
 10
11.582383250620257
 20
-151.32046081929997
 10
11.822935705257917
 20
-151.39708509793434
 10
12.066984724992901
 20
-151.46171246063778
 10
12.313932649054214
 20
-151.51418362877598
 10
12.56317471212289
 20
-151.55436903385666
 10
12.814100430275111
 20
-151.58216939160596
 10
13.066094986925325
 20
-151.59751627604493
 10
13.318540619018787
 20
-151.60037267797307
 10
13.570818121747301
 20
-151.59073202458353
 10
13.822308859408588
 20
-151.56861705488186
 10
14.072396496621742
 20
-151.53408189956508
 10
14.32046839720693
 20
-151.48721181001324
 10
14.565917010128523
 20
-151.42812258421284
 10
14.808141255438224
 20
-151.35695999268034
 10
15.046547910218216
 20
-151.2738992043858
 10
15.280552994524282
 20
-151.17914421267614
 10
15.509583157328947
 20
-151.07292726119894
 10
15.733077062464615
 20
-150.95550826982577
 10
15.95048677456669
 20
-150.8271742605757
 10
16.161279145016728
 20
-150.688238783539
 10
16.364937197885553
 20
-150.53904134280037
 10
16.560961515876414
 20
-150.3799468223627
 10
16.74887162626809
 20
-150.2113449120705
 10
16.928207350496347
 20
-150.033649495386
 10
17.09852892753762
 20
-149.847296567015
 10
17.2594181209381
 20
-149.65274245469726
 10
17.41048070025751
 20
-149.4504639627225
 10
17.551347134353442
 20
-149.2409570971753
 10
17.68167316545784
 20
-149.024735679992
 10
17.801140383253486
 20
-148.80232996301748
 10
17.909456798950472
 20
-148.57428524206207
 10
18.006357419362715
 20
-148.3411604709583
 10
18.09160482098441
 20
-148.1035268756178
 10
18.164989724066537
 20
-147.86196656808812
 10
18.226331566693343
 20
-147.6170711606096
 10
18.27547907885882
 20
-147.36944037967214
 10
18.312310856543192
 20
-147.11968068007212
 10
18.336735935789417
 20
-146.86840385896915
 10
18.346682999607264
 20
-146.6847382894955
 10
18.35000000000006
 20
-146.50083327643884
  0
LWPOLYLINE
  5
12C
330
17
100
AcDbEntity
  8
GIZLI
100
AcDbPolyline
 90
65
 70
0
 10
18.35000000000006
 20
-146.50083327643884
 10
18.34375095689128
 20
-146.24844889500275
 10
18.325018348541267
 20
-145.99668350507804
 10
18.293847758255776
 20
-145.7461542070745
 10
18.25031604586777
 20
-145.4974747784425
 10
18.194530773660915
 20
-145.25125428772964
 10
18.12662963229311
 20
-145.0080957086378
 10
18.046779866719987
 20
-144.7685945340798
 10
17.95517770211843
 20
-144.53333739023628
 10
17.852047769810106
 20
-144.3029006506126
 10
17.737642533184946
 20
-144.0778490500957
 10
17.612241713624694
 20
-143.85873429901076
 10
17.476151716426397
 20
-143.6460936971783
 10
17.329705056725935
 20
-143.44044874797072
 10
17.173259785421525
 20
-143.2423037723695
 10
17.007198915097245
 20
-143.05214452302167
 10
16.831929844558218
 20
-142.87043679966322
 10
16.647882918225665
 20
-142.69762582175798
 10
16.455508865130827
 20
-142.5341360183062
 10
16.2552790376723
 20
-142.38036822577828
 10
16.047684366284813
 20
-142.23669873719086
 10
15.833233973496101
 20
-142.10347872803064
 10
15.61245378798378
 20
-141.98103368217758
 10
15.385885158632203
 20
-141.8696628178287
 10
15.154083468589333
 20
-141.76963851342134
 10
14.917616749323608
 20
-141.68120573355685
 10
14.677064294680818
 20
-141.6045814549241
 10
14.433015274940962
 20
-141.5399540922228
 10
14.18606735087512
 20
-141.48748292408735
 10
13.936825287802325
 20
-141.44729751900994
 10
13.685899569646425
 20
-141.41949716126442
 10
13.43390501299295
 20
-141.40415027682968
 10
13.18145938089658
 20
-141.40129387490612
 10
12.929181878165494
 20
-141.41093452830046
 10
12.677691140502093
 20
-141.43304949800708
 10
12.427603503287376
 20
-141.46758465332883
 10
12.179531602701227
 20
-141.51445474288562
 10
11.934082989779291
 20
-141.57354396869093
 10
11.691858744469844
 20
-141.6447065602282
 10
11.453452089690666
 20
-141.72776734852744
 10
11.219447005385913
 20
-141.82252234024165
 10
10.990416842582986
 20
-141.92873929172328
 10
10.766922937449413
 20
-142.04615828310077
 10
10.54951322534971
 20
-142.17449229235498
 10
10.338720854902256
 20
-142.31342776939576
 10
10.135062802036169
 20
-142.46262521013833
 10
9.939038484048176
 20
-142.6217197305798
 10
9.751128373659483
 20
-142.79032164087576
 10
9.57179264943436
 20
-142.96801705756388
 10
9.401471072396388
 20
-143.15436998593836
 10
9.240581878999368
 20
-143.34892409825954
 10
9.089519299683566
 20
-143.55120259023772
 10
8.948652865591388
 20
-143.76070945578834
 10
8.81832683449089
 20
-143.97693087297506
 10
8.698859616699298
 20
-144.199336589953
 10
8.590543201006524
 20
-144.4273813109118
 10
8.493642580598664
 20
-144.66050608201897
 10
8.408395178981527
 20
-144.8981396773628
 10
8.335010275904144
 20
-145.13969998489566
 10
8.27366843328228
 20
-145.38459539237726
 10
8.224520921121949
 20
-145.6322261733176
 10
8.187689143442924
 20
-145.8819858729203
 10
8.163264064202256
 20
-146.13326269402566
 10
8.15331700039075
 20
-146.3169282634409
 10
8.15000000000007
 20
-146.50083327643884
  0
LWPOLYLINE
  5
12D
330
17
100
AcDbEntity
  8
GIZLI
100
AcDbPolyline
 90
79
 70
0
 10
160.95000000000002
 20
-71.50083327643884
 10
160.9550617062861
 20
-71.70324881863462
 10
160.96826336184319
 20
-71.88500426992455
 10
160.98712622474557
 20
-72.04792921629006
 10
161.01257108463497
 20
-72.20995658828284
 10
161.04455586510542
 20
-72.37082077447792
 10
161.08302768368333
 20
-72.53025811176069
 10
161.12792301885176
 20
-72.68800728855962
 10
161.17916787707512
 20
-72.84380974807897
 10
161.2366779598234
 20
-72.99741009153163
 10
161.30035883059674
 20
-73.14855648137178
 10
161.3701060819498
 20
-73.29700104452769
 10
161.44580550251632
 20
-73.44250027563447
 10
161.52733324403343
 20
-73.5848154402668
 10
161.61455598836625
 20
-73.72371297817165
 10
161.70733111453222
 20
-73.85896490650111
 10
161.8055068657256
 20
-73.9903492230451
 10
161.90892251634193
 20
-74.11765030946408
 10
162.01740853900242
 20
-74.24065933452187
 10
162.13078677157856
 20
-74.35917465731832
 10
162.24887080257608
 20
-74.47300203122487
 10
162.3714670539511
 20
-74.58195433213375
 10
162.4983745794459
 20
-74.68585259711207
 10
162.62938520469376
 20
-74.78452648229583
 10
162.76428393042704
 20
-74.87781442993901
 10
162.9028493357099
 20
-74.965563835438
 10
163.044853981171
 20
-75.04763121435619
 10
163.19006481223641
 20
-75.12388236944821
 10
163.33824356236212
 20
-75.1941925576846
 10
163.48914715626697
 20
-75.25844665727608
 10
163.6425281131652
 20
-75.31653933469809
 10
163.7981349499994
 20
-75.36837521171525
 10
163.95571258467305
 20
-75.41386903240571
 10
164.11500273928337
 20
-75.45294583018577
 10
164.2757443433541
 20
-75.48554109483416
 10
164.43767393706804
 20
-75.51160093951657
 10
164.6005260745
 20
-75.53108226781012
 10
164.76403372684948
 20
-75.54395294072775
 10
164.92792868567332
 20
-75.5501919437427
 10
165.09194196773143
 20
-75.54978949401904
 10
165.25580430702797
 20
-75.5427461939449
 10
165.41924679192624
 20
-75.52907317240289
 10
165.58200133544977
 20
-75.50879280075291
 10
165.743801079124
 20
-75.48193855457704
 10
165.90438079620907
 20
-75.44855484665497
 10
166.06347729493237
 20
-75.40869685993964
 10
166.2208298217215
 20
-75.36243038053276
 10
166.3761804644369
 20
-75.30983163066034
 10
166.52927455560464
 20
-75.25098710164828
 10
166.67986107564903
 20
-75.18599338689788
 10
166.82769305612555
 20
-75.11495701486142
 10
166.97252798295352
 20
-75.03799428201764
 10
167.11412819964875
 20
-74.95523108584742
 10
167.25226131055646
 20
-74.86680275780918
 10
167.3867005840838
 20
-74.77285389631454
 10
167.5172253559328
 20
-74.67353819970381
 10
167.64362143233296
 20
-74.56901829922157
 10
167.76568149327414
 20
-74.45946559199218
 10
167.8832054946122
 20
-74.34506007285007
 10
167.99600071267574
 20
-74.22598976578833
 10
168.10388167891261
 20
-74.10244979281622
 10
168.2066712685657
 20
-73.97464268754963
 10
168.3042010118659
 20
-73.84277812508124
 10
168.39631126105655
 20
-73.70707251874767
 10
168.48285135741793
 20
-73.56774861689675
 10
168.56367979829176
 20
-73.42503509965488
 10
168.6386644041055
 20
-73.27916617569412
 10
168.70768248539696
 20
-73.13038117899956
 10
168.77062100983864
 20
-72.97892416563651
 10
168.82737676926226
 20
-72.82504351051779
 10
168.87785654668315
 20
-72.66899150417095
 10
168.9219772833247
 20
-72.51102394950556
 10
168.9596662456429
 20
-72.3513997585804
 10
168.9908611923506
 20
-72.19038054937079
 10
169.01551054144218
 20
-72.02823024253578
 10
169.0335735372179
 20
-71.86521465818545
 10
169.04502041730825
 20
-71.70160111264808
 10
169.0487549414606
 20
-71.60124809653306
 10
169.05
 20
-71.50083327643884
  0
LWPOLYLINE
  5
12E
330
17
100
AcDbEntity
  8
GIZLI
100
AcDbPolyline
 90
79
 70
0
 10
169.05
 20
-71.50083327643884
 10
169.04493829371393
 20
-71.2984177342552
 10
169.03173663815684
 20
-71.11666228297102
 10
169.01287377525446
 20
-70.95373733660762
 10
168.98742891536506
 20
-70.79170996461482
 10
168.9554441348946
 20
-70.63084577841825
 10
168.9169723163167
 20
-70.47140844113301
 10
168.87207698114827
 20
-70.31365926433104
 10
168.8208321229249
 20
-70.15785680480839
 10
168.76332204017663
 20
-70.00425646135243
 10
168.6996411694033
 20
-69.85311007150911
 10
168.62989391805021
 20
-69.70466550835029
 10
168.5541944974837
 20
-69.55916627724095
 10
168.47266675596657
 20
-69.41685111260647
 10
168.38544401163375
 20
-69.27795357469991
 10
168.2926688854678
 20
-69.14270164636923
 10
168.1944931342744
 20
-69.0113173298246
 10
168.0910774836581
 20
-68.88401624340567
 10
167.98259146099758
 20
-68.76100721834877
 10
167.86921322842147
 20
-68.64249189555423
 10
167.7511291974239
 20
-68.52866452165075
 10
167.6285329460489
 20
-68.41971222074558
 10
167.5016254205541
 20
-68.315813955771
 10
167.37061479530627
 20
-68.21714007059066
 10
167.2357160695731
 20
-68.12385212295024
 10
167.09715066429044
 20
-68.03610271745318
 10
166.95514601882962
 20
-67.95403533853603
 10
166.8099351877646
 20
-67.87778418344416
 10
166.66175643763947
 20
-67.80747399520716
 10
166.5108528437354
 20
-67.74321989561443
 10
166.35747188683814
 20
-67.68512721819069
 10
166.20186505000513
 20
-67.63329134117153
 10
166.0442874153329
 20
-67.58779752047897
 10
165.88499726072422
 20
-67.54872072269693
 10
165.7242556566554
 20
-67.5161254580468
 10
165.56232606294355
 20
-67.490065613363
 10
165.39947392551386
 20
-67.47058428506845
 10
165.2359662731668
 20
-67.45771361215016
 10
165.07207131434555
 20
-67.45147460913472
 10
164.90805803229
 20
-67.45187705885787
 10
164.74419569299607
 20
-67.45892035893144
 10
164.58075320810045
 20
-67.47259338047296
 10
164.41799866457964
 20
-67.4928737521226
 10
164.25619892090816
 20
-67.51972799829832
 10
164.09561920382592
 20
-67.55311170622034
 10
163.9365227051054
 20
-67.59296969293558
 10
163.77917017831902
 20
-67.6392361723422
 10
163.6238195356062
 20
-67.691834922214
 10
163.47072544444094
 20
-67.75067945122493
 10
163.32013892439875
 20
-67.8156731659735
 10
163.17230694392413
 20
-67.88670953800731
 10
163.02747201709772
 20
-67.96367227084748
 10
162.88587180040363
 20
-68.04643546701314
 10
162.74773868949669
 20
-68.13486379504585
 10
162.61329941596966
 20
-68.22881265653412
 10
162.48277464412052
 20
-68.32812835313784
 10
162.35637856771982
 20
-68.43264825361277
 10
162.23431850677773
 20
-68.54220096083499
 10
162.1167945054385
 20
-68.65660647997069
 10
162.00399928737357
 20
-68.77567678702725
 10
161.89611832113508
 20
-68.89921675999535
 10
161.7933287314801
 20
-69.02702386525897
 10
161.69579898817784
 20
-69.15888842772539
 10
161.60368873898489
 20
-69.29459403405792
 10
161.51714864262098
 20
-69.43391793590867
 10
161.43632020174448
 20
-69.57663145315126
 10
161.3613355959279
 20
-69.72250037711356
 10
161.29231751463345
 20
-69.87128537381041
 10
161.22937899018868
 20
-70.02274238717642
 10
161.17262323076193
 20
-70.1766230422986
 10
161.12214345333786
 20
-70.33267504864921
 10
161.07802271669314
 20
-70.4906426033184
 10
161.04033375437183
 20
-70.65026679424703
 10
161.00913880766106
 20
-70.81128600345933
 10
160.9844894585665
 20
-70.97343631029567
 10
160.96642646278795
 20
-71.13645189464533
 10
160.95497958269488
 20
-71.30006544017917
 10
160.95124505854022
 20
-71.40041845632022
 10
160.95000000000002
 20
-71.50083327643884
  0
LWPOLYLINE
  5
12F
330
17
100
AcDbEntity
  8
GIZLI
100
AcDbPolyline
 90
79
 70
0
 10
5.950000000000011
 20
-71.50083327643884
 10
5.955061706286103
 20
-71.70324881863472
 10
5.96826336184317
 20
-71.8850042699247
 10
5.9871262247455705
 20
-72.04792921629024
 10
6.01257108463497
 20
-72.20995658828302
 10
6.0445558651054245
 20
-72.37082077447809
 10
6.083027683683309
 20
-72.53025811176084
 10
6.127923018851757
 20
-72.68800728855975
 10
6.179167877075115
 20
-72.84380974807908
 10
6.236677959823397
 20
-72.9974100915317
 10
6.3003588305967275
 20
-73.14855648137184
 10
6.370106081949796
 20
-73.29700104452773
 10
6.445805502516307
 20
-73.4425002756345
 10
6.52733324403343
 20
-73.58481544026681
 10
6.6145559883662495
 20
-73.72371297817165
 10
6.707331114532216
 20
-73.85896490650111
 10
6.805506865725592
 20
-73.9903492230451
 10
6.908922516341913
 20
-74.11765030946408
 10
7.017408539002424
 20
-74.24065933452187
 10
7.130786771578541
 20
-74.35917465731832
 10
7.248870802576091
 20
-74.47300203122487
 10
7.371467053951102
 20
-74.58195433213375
 10
7.498374579445908
 20
-74.68585259711209
 10
7.629385204693777
 20
-74.78452648229586
 10
7.764283930427051
 20
-74.87781442993905
 10
7.902849335709893
 20
-74.96556383543809
 10
8.044853981171013
 20
-75.0476312143563
 10
8.190064812236418
 20
-75.12388236944837
 10
8.33824356236214
 20
-75.1941925576848
 10
8.48914715626697
 20
-75.25844665727632
 10
8.642528113165211
 20
-75.31653933469838
 10
8.798134949999397
 20
-75.36837521171556
 10
8.955712584673044
 20
-75.41386903240608
 10
9.115002739283382
 20
-75.45294583018617
 10
9.27574434335409
 20
-75.48554109483457
 10
9.437673937068034
 20
-75.51160093951701
 10
9.600526074500014
 20
-75.53108226781056
 10
9.764033726849487
 20
-75.5439529407282
 10
9.927928685673312
 20
-75.55019194374316
 10
10.091941967731426
 20
-75.54978949401949
 10
10.255804307027963
 20
-75.54274619394535
 10
10.419246791926227
 20
-75.52907317240333
 10
10.582001335449766
 20
-75.50879280075335
 10
10.743801079124022
 20
-75.48193855457745
 10
10.904380796209075
 20
-75.44855484665536
 10
11.063477294932383
 20
-75.40869685994
 10
11.220829821721523
 20
-75.36243038053307
 10
11.376180464436928
 20
-75.30983163066061
 10
11.529274555604633
 20
-75.25098710164852
 10
11.67986107564902
 20
-75.18599338689808
 10
11.82769305612555
 20
-75.11495701486156
 10
11.972527982953512
 20
-75.03799428201775
 10
12.114128199648757
 20
-74.95523108584749
 10
12.252261310556447
 20
-74.86680275780922
 10
12.386700584083792
 20
-74.77285389631457
 10
12.51722535593279
 20
-74.67353819970383
 10
12.64362143233297
 20
-74.56901829922158
 10
12.765681493274139
 20
-74.45946559199218
 10
12.883205494612216
 20
-74.34506007285007
 10
12.996000712675729
 20
-74.22598976578833
 10
13.103881678912611
 20
-74.10244979281622
 10
13.206671268565708
 20
-73.97464268754963
 10
13.3042010118659
 20
-73.84277812508124
 10
13.396311261056544
 20
-73.70707251874767
 10
13.482851357417937
 20
-73.56774861689676
 10
13.563679798291751
 20
-73.4250350996549
 10
13.638664404105493
 20
-73.27916617569416
 10
13.70768248539695
 20
-73.13038117899961
 10
13.770621009838642
 20
-72.97892416563658
 10
13.827376769262267
 20
-72.82504351051789
 10
13.877856546683157
 20
-72.66899150417107
 10
13.92197728332472
 20
-72.51102394950571
 10
13.959666245642897
 20
-72.35139975858057
 10
13.990861192350605
 20
-72.19038054937099
 10
14.015510541442193
 20
-72.02823024253597
 10
14.03357353721789
 20
-71.86521465818561
 10
14.045020417308251
 20
-71.70160111264819
 10
14.048754941460585
 20
-71.60124809653313
 10
14.050000000000004
 20
-71.50083327643884
  0
TEXT
  5
130
330
17
100
AcDbEntity
  8
YAZI
100
AcDbText
 10
0.0
 20
-171.50083327643893
 30
0.0
 40
5.0
  1
UST
 11
0.0
 21
-171.50083327643893
 31
0.0
100
AcDbText
  0
DIMENSION
  5
131
330
17
100
AcDbEntity
  8
OLCU
100
AcDbDimension
280
0
  2
*D3
  3
EZDXF
 10
0.0
 20
-183.50083327643893
 30
0.0
 11
87.50000000000004
 21
-183.27583327643893
 31
0.0
 70
32
 71
5
  1
<>
100
AcDbAlignedDimension
 13
0.0
 23
-161.50083327643893
 33
0.0
 14
175.00000000000009
 24
-161.50083327643893
 34
0.0
 50
0.0
100
AcDbRotatedDimension
  0
DIMENSION
  5
140
330
17
100
AcDbEntity
  8
OLCU
100
AcDbDimension
280
0
  2
*D4
  3
EZDXF
 10
-22.0
 20
-161.50083327643893
 30
0.0
 11
-22.225
 21
-111.50083327643885
 31
0.0
 70
32
 71
5
  1
<>
100
AcDbAlignedDimension
 13
0.0
 23
-161.50083327643893
 33
0.0
 14
0.0
 24
-61.50083327643878
 34
0.0
 50
90.0
100
AcDbRotatedDimension
  0
LWPOLYLINE
  5
14F
330
17
100
AcDbEntity
  8
GORUNEN
100
AcDbPolyline
 90
2
 70
0
 10
326.50083327643887
 20
1.4211017345527877e-14
 10
336.50083327643887
 20
7.105589987926875e-15
  0
LWPOLYLINE
  5
150
330
17
100
AcDbEntity
  8
GORUNEN
100
AcDbPolyline
 90
2
 70
0
 10
241.50083327643887
 20
7.105589987926875e-15
 10
326.50083327643887
 20
7.105589987926875e-15
  0
LWPOLYLINE
  5
151
330
17
100
AcDbEntity
  8
GORUNEN
100
AcDbPolyline
 90
2
 70
0
 10
241.50083327643887
 20
1.4211017345527877e-14
 10
236.50083327643887
 20
7.105589987926875e-15
  0
LWPOLYLINE
  5
152
330
17
100
AcDbEntity
  8
GORUNEN
100
AcDbPolyline
 90
2
 70
0
 10
241.50083327643887
 20
5.000000000000014
 10
236.50083327643887
 20
5.000000000000007
  0
LWPOLYLINE
  5
153
330
17
100
AcDbEntity
  8
GORUNEN
100
AcDbPolyline
 90
2
 70
0
 10
241.50083327643887
 20
5.000000000000007
 10
326.50083327643887
 20
5.000000000000007
  0
LWPOLYLINE
  5
154
330
17
100
AcDbEntity
  8
GORUNEN
100
AcDbPolyline
 90
2
 70
0
 10
326.50083327643887
 20
5.000000000000014
 10
336.50083327643887
 20
5.000000000000007
  0
LWPOLYLINE
  5
155
330
17
100
AcDbEntity
  8
GORUNEN
100
AcDbPolyline
 90
2
 70
0
 10
236.50083327643887
 20
5.000000000000007
 10
236.50083327643887
 20
7.105589987926875e-15
  0
LWPOLYLINE
  5
156
330
17
100
AcDbEntity
  8
GORUNEN
100
AcDbPolyline
 90
2
 70
0
 10
241.50083327643887
 20
5.000000000000014
 10
241.50083327643887
 20
1.4211017345527877e-14
  0
LWPOLYLINE
  5
157
330
17
100
AcDbEntity
  8
GORUNEN
100
AcDbPolyline
 90
2
 70
0
 10
336.50083327643887
 20
7.105589987926875e-15
 10
336.50083327643887
 20
5.000000000000007
  0
LWPOLYLINE
  5
158
330
17
100
AcDbEntity
  8
GIZLI
100
AcDbPolyline
 90
2
 70
0
 10
326.50083327643887
 20
5.000000000000007
 10
330.5508332764389
 20
5.000000000000007
  0
LWPOLYLINE
  5
159
330
17
100
AcDbEntity
  8
GIZLI
100
AcDbPolyline
 90
2
 70
0
 10
330.5508332764389
 20
5.000000000000007
 10
326.50083327643887
 20
5.000000000000007
  0
LWPOLYLINE
  5
15A
330
17
100
AcDbEntity
  8
GIZLI
100
AcDbPolyline
 90
2
 70
0
 10
326.50083327643887
 20
7.105589987926875e-15
 10
330.5508332764389
 20
7.105589987926875e-15
  0
LWPOLYLINE
  5
15B
330
17
100
AcDbEntity
  8
GIZLI
100
AcDbPolyline
 90
2
 70
0
 10
330.5508332764389
 20
7.105589987926875e-15
 10
326.50083327643887
 20
7.105589987926875e-15
  0
LWPOLYLINE
  5
15C
330
17
100
AcDbEntity
  8
GIZLI
100
AcDbPolyline
 90
2
 70
0
 10
314.50083327643887
 20
7.105589987926875e-15
 10
316.50083327643887
 20
1.4211017345527877e-14
  0
LWPOLYLINE
  5
15D
330
17
100
AcDbEntity
  8
GIZLI
100
AcDbPolyline
 90
2
 70
0
 10
316.50083327643887
 20
7.105589987926875e-15
 10
314.50083327643887
 20
7.105589987926875e-15
  0
LWPOLYLINE
  5
15E
330
17
100
AcDbEntity
  8
GIZLI
100
AcDbPolyline
 90
2
 70
0
 10
241.50083327643887
 20
1.6263032587282567e-19
 10
314.50083327643887
 20
1.6263032587282567e-19
  0
LWPOLYLINE
  5
15F
330
17
100
AcDbEntity
  8
GIZLI
100
AcDbPolyline
 90
2
 70
0
 10
241.50083327643887
 20
7.105589987926875e-15
 10
236.50083327643887
 20
1.6263032587282567e-19
  0
LWPOLYLINE
  5
160
330
17
100
AcDbEntity
  8
GIZLI
100
AcDbPolyline
 90
2
 70
0
 10
236.50083327643887
 20
7.105589987926875e-15
 10
241.50083327643887
 20
1.4211017345527877e-14
  0
LWPOLYLINE
  5
161
330
17
100
AcDbEntity
  8
GIZLI
100
AcDbPolyline
 90
2
 70
0
 10
241.50083327643887
 20
7.105589987926875e-15
 10
326.50083327643887
 20
7.105589987926875e-15
  0
LWPOLYLINE
  5
162
330
17
100
AcDbEntity
  8
GIZLI
100
AcDbPolyline
 90
2
 70
0
 10
336.50083327643887
 20
7.105589987926875e-15
 10
326.50083327643887
 20
1.4211017345527877e-14
  0
LWPOLYLINE
  5
163
330
17
100
AcDbEntity
  8
GIZLI
100
AcDbPolyline
 90
2
 70
0
 10
236.50083327643887
 20
7.105589987926875e-15
 10
241.50083327643887
 20
1.4211017345527877e-14
  0
LWPOLYLINE
  5
164
330
17
100
AcDbEntity
  8
GIZLI
100
AcDbPolyline
 90
2
 70
0
 10
241.50083327643887
 20
7.105589987926875e-15
 10
314.50083327643887
 20
7.105589987926875e-15
  0
LWPOLYLINE
  5
165
330
17
100
AcDbEntity
  8
GIZLI
100
AcDbPolyline
 90
2
 70
0
 10
251.50083327643887
 20
1.4211017345527877e-14
 10
246.40083327643896
 20
7.105589987926875e-15
  0
LWPOLYLINE
  5
166
330
17
100
AcDbEntity
  8
GIZLI
100
AcDbPolyline
 90
2
 70
0
 10
246.40083327643896
 20
7.105589987926875e-15
 10
251.50083327643887
 20
1.4211017345527877e-14
  0
LWPOLYLINE
  5
167
330
17
100
AcDbEntity
  8
GIZLI
100
AcDbPolyline
 90
2
 70
0
 10
251.50083327643887
 20
1.4211017345527877e-14
 10
256.600833276439
 20
7.105589987926875e-15
  0
LWPOLYLINE
  5
168
330
17
100
AcDbEntity
  8
GIZLI
100
AcDbPolyline
 90
2
 70
0
 10
256.600833276439
 20
7.105589987926875e-15
 10
251.50083327643887
 20
1.4211017345527877e-14
  0
LWPOLYLINE
  5
169
330
17
100
AcDbEntity
  8
GIZLI
100
AcDbPolyline
 90
2
 70
0
 10
281.50083327643887
 20
7.105589987926875e-15
 10
276.40083327643896
 20
7.105589987926875e-15
  0
LWPOLYLINE
  5
16A
330
17
100
AcDbEntity
  8
GIZLI
100
AcDbPolyline
 90
2
 70
0
 10
276.40083327643896
 20
7.105589987926875e-15
 10
281.50083327643887
 20
7.105589987926875e-15
  0
LWPOLYLINE
  5
16B
330
17
100
AcDbEntity
  8
GIZLI
100
AcDbPolyline
 90
2
 70
0
 10
281.50083327643887
 20
7.105589987926875e-15
 10
286.600833276439
 20
7.105589987926875e-15
  0
LWPOLYLINE
  5
16C
330
17
100
AcDbEntity
  8
GIZLI
100
AcDbPolyline
 90
2
 70
0
 10
286.600833276439
 20
7.105589987926875e-15
 10
281.50083327643887
 20
7.105589987926875e-15
  0
LWPOLYLINE
  5
16D
330
17
100
AcDbEntity
  8
GIZLI
100
AcDbPolyline
 90
2
 70
0
 10
281.50083327643887
 20
1.6263032587282567e-19
 10
276.40083327643873
 20
1.6263032587282567e-19
  0
LWPOLYLINE
  5
16E
330
17
100
AcDbEntity
  8
GIZLI
100
AcDbPolyline
 90
2
 70
0
 10
276.40083327643873
 20
1.6263032587282567e-19
 10
281.50083327643887
 20
7.105589987926875e-15
  0
LWPOLYLINE
  5
16F
330
17
100
AcDbEntity
  8
GIZLI
100
AcDbPolyline
 90
2
 70
0
 10
281.50083327643887
 20
7.105589987926875e-15
 10
286.6008332764388
 20
1.6263032587282567e-19
  0
LWPOLYLINE
  5
170
330
17
100
AcDbEntity
  8
GIZLI
100
AcDbPolyline
 90
2
 70
0
 10
286.6008332764388
 20
1.6263032587282567e-19
 10
281.50083327643887
 20
1.6263032587282567e-19
  0
LWPOLYLINE
  5
171
330
17
100
AcDbEntity
  8
GIZLI
100
AcDbPolyline
 90
2
 70
0
 10
251.50083327643887
 20
7.105589987926875e-15
 10
246.40083327643873
 20
1.6263032587282567e-19
  0
LWPOLYLINE
  5
172
330
17
100
AcDbEntity
  8
GIZLI
100
AcDbPolyline
 90
2
 70
0
 10
246.40083327643873
 20
1.6263032587282567e-19
 10
251.50083327643887
 20
7.105589987926875e-15
  0
LWPOLYLINE
  5
173
330
17
100
AcDbEntity
  8
GIZLI
100
AcDbPolyline
 90
2
 70
0
 10
251.50083327643887
 20
7.105589987926875e-15
 10
256.6008332764388
 20
1.6263032587282567e-19
  0
LWPOLYLINE
  5
174
330
17
100
AcDbEntity
  8
GIZLI
100
AcDbPolyline
 90
2
 70
0
 10
256.6008332764388
 20
1.6263032587282567e-19
 10
251.50083327643887
 20
7.105589987926875e-15
  0
LWPOLYLINE
  5
175
330
17
100
AcDbEntity
  8
GIZLI
100
AcDbPolyline
 90
2
 70
0
 10
326.50083327643887
 20
1.4211017345527877e-14
 10
322.45083327643914
 20
7.105427357601002e-15
  0
LWPOLYLINE
  5
176
330
17
100
AcDbEntity
  8
GIZLI
100
AcDbPolyline
 90
2
 70
0
 10
322.45083327643914
 20
7.105589987926875e-15
 10
326.50083327643887
 20
1.4211017345527877e-14
  0
LWPOLYLINE
  5
177
330
17
100
AcDbEntity
  8
GIZLI
100
AcDbPolyline
 90
2
 70
0
 10
326.50083327643887
 20
1.4211017345527877e-14
 10
330.55083327643905
 20
7.105589987926875e-15
  0
LWPOLYLINE
  5
178
330
17
100
AcDbEntity
  8
GIZLI
100
AcDbPolyline
 90
2
 70
0
 10
330.55083327643905
 20
7.105589987926875e-15
 10
326.50083327643887
 20
1.4211017345527877e-14
  0
LWPOLYLINE
  5
179
330
17
100
AcDbEntity
  8
GIZLI
100
AcDbPolyline
 90
2
 70
0
 10
326.50083327643887
 20
1.4211017345527877e-14
 10
322.4508332764387
 20
0.0
  0
LWPOLYLINE
  5
17A
330
17
100
AcDbEntity
  8
GIZLI
100
AcDbPolyline
 90
2
 70
0
 10
322.4508332764387
 20
1.6263032587282567e-19
 10
326.50083327643887
 20
7.105589987926875e-15
  0
LWPOLYLINE
  5
17B
330
17
100
AcDbEntity
  8
GIZLI
100
AcDbPolyline
 90
2
 70
0
 10
326.50083327643887
 20
5.000000000000007
 10
322.45083327643886
 20
5.000000000000007
  0
LWPOLYLINE
  5
17C
330
17
100
AcDbEntity
  8
GIZLI
100
AcDbPolyline
 90
2
 70
0
 10
322.45083327643886
 20
5.000000000000007
 10
326.50083327643887
 20
5.000000000000007
  0
LWPOLYLINE
  5
17D
330
17
100
AcDbEntity
  8
GIZLI
100
AcDbPolyline
 90
2
 70
0
 10
241.50083327643887
 20
5.000000000000007
 10
314.50083327643887
 20
5.000000000000007
  0
LWPOLYLINE
  5
17E
330
17
100
AcDbEntity
  8
GIZLI
100
AcDbPolyline
 90
2
 70
0
 10
236.50083327643887
 20
5.000000000000007
 10
241.50083327643887
 20
5.000000000000014
  0
LWPOLYLINE
  5
17F
330
17
100
AcDbEntity
  8
GIZLI
100
AcDbPolyline
 90
2
 70
0
 10
336.50083327643887
 20
5.000000000000007
 10
326.50083327643887
 20
5.000000000000014
  0
LWPOLYLINE
  5
180
330
17
100
AcDbEntity
  8
GIZLI
100
AcDbPolyline
 90
2
 70
0
 10
241.50083327643887
 20
5.000000000000007
 10
326.50083327643887
 20
5.000000000000007
  0
LWPOLYLINE
  5
181
330
17
100
AcDbEntity
  8
GIZLI
100
AcDbPolyline
 90
2
 70
0
 10
236.50083327643887
 20
5.000000000000007
 10
241.50083327643887
 20
5.000000000000014
  0
LWPOLYLINE
  5
182
330
17
100
AcDbEntity
  8
GIZLI
100
AcDbPolyline
 90
2
 70
0
 10
241.50083327643887
 20
5.000000000000007
 10
236.50083327643887
 20
5.0
  0
LWPOLYLINE
  5
183
330
17
100
AcDbEntity
  8
GIZLI
100
AcDbPolyline
 90
2
 70
0
 10
241.50083327643887
 20
5.0
 10
314.50083327643887
 20
5.0
  0
LWPOLYLINE
  5
184
330
17
100
AcDbEntity
  8
GIZLI
100
AcDbPolyline
 90
2
 70
0
 10
316.50083327643887
 20
5.000000000000007
 10
314.50083327643887
 20
5.000000000000007
  0
LWPOLYLINE
  5
185
330
17
100
AcDbEntity
  8
GIZLI
100
AcDbPolyline
 90
2
 70
0
 10
314.50083327643887
 20
5.000000000000007
 10
316.50083327643887
 20
5.000000000000014
  0
LWPOLYLINE
  5
186
330
17
100
AcDbEntity
  8
GIZLI
100
AcDbPolyline
 90
2
 70
0
 10
251.50083327643887
 20
5.000000000000014
 10
256.600833276439
 20
5.000000000000004
  0
LWPOLYLINE
  5
187
330
17
100
AcDbEntity
  8
GIZLI
100
AcDbPolyline
 90
2
 70
0
 10
256.600833276439
 20
5.000000000000007
 10
251.50083327643887
 20
5.000000000000014
  0
LWPOLYLINE
  5
188
330
17
100
AcDbEntity
  8
GIZLI
100
AcDbPolyline
 90
2
 70
0
 10
251.50083327643887
 20
5.000000000000014
 10
246.40083327643896
 20
5.000000000000007
  0
LWPOLYLINE
  5
189
330
17
100
AcDbEntity
  8
GIZLI
100
AcDbPolyline
 90
2
 70
0
 10
246.40083327643896
 20
5.000000000000007
 10
251.50083327643887
 20
5.000000000000014
  0
LWPOLYLINE
  5
18A
330
17
100
AcDbEntity
  8
GIZLI
100
AcDbPolyline
 90
2
 70
0
 10
281.50083327643887
 20
5.000000000000007
 10
286.600833276439
 20
5.000000000000004
  0
LWPOLYLINE
  5
18B
330
17
100
AcDbEntity
  8
GIZLI
100
AcDbPolyline
 90
2
 70
0
 10
286.600833276439
 20
5.000000000000007
 10
281.50083327643887
 20
5.000000000000007
  0
LWPOLYLINE
  5
18C
330
17
100
AcDbEntity
  8
GIZLI
100
AcDbPolyline
 90
2
 70
0
 10
281.50083327643887
 20
5.000000000000007
 10
276.40083327643896
 20
5.000000000000007
  0
LWPOLYLINE
  5
18D
330
17
100
AcDbEntity
  8
GIZLI
100
AcDbPolyline
 90
2
 70
0
 10
276.40083327643896
 20
5.000000000000007
 10
281.50083327643887
 20
5.000000000000007
  0
LWPOLYLINE
  5
18E
330
17
100
AcDbEntity
  8
GIZLI
100
AcDbPolyline
 90
2
 70
0
 10
281.50083327643887
 20
5.000000000000007
 10
286.6008332764388
 20
4.999999999999997
  0
LWPOLYLINE
  5
18F
330
17
100
AcDbEntity
  8
GIZLI
100
AcDbPolyline
 90
2
 70
0
 10
286.6008332764388
 20
5.0
 10
281.50083327643887
 20
5.0
  0
LWPOLYLINE
  5
190
330
17
100
AcDbEntity
  8
GIZLI
100
AcDbPolyline
 90
2
 70
0
 10
281.50083327643887
 20
5.0
 10
276.40083327643873
 20
5.0
  0
LWPOLYLINE
  5
191
330
17
100
AcDbEntity
  8
GIZLI
100
AcDbPolyline
 90
2
 70
0
 10
276.40083327643873
 20
5.0
 10
281.50083327643887
 20
5.000000000000007
  0
LWPOLYLINE
  5
192
330
17
100
AcDbEntity
  8
GIZLI
100
AcDbPolyline
 90
2
 70
0
 10
251.50083327643887
 20
5.000000000000007
 10
256.6008332764388
 20
4.999999999999997
  0
LWPOLYLINE
  5
193
330
17
100
AcDbEntity
  8
GIZLI
100
AcDbPolyline
 90
2
 70
0
 10
256.6008332764388
 20
5.0
 10
251.50083327643887
 20
5.000000000000007
  0
LWPOLYLINE
  5
194
330
17
100
AcDbEntity
  8
GIZLI
100
AcDbPolyline
 90
2
 70
0
 10
251.50083327643887
 20
5.000000000000007
 10
246.40083327643873
 20
5.0
  0
LWPOLYLINE
  5
195
330
17
100
AcDbEntity
  8
GIZLI
100
AcDbPolyline
 90
2
 70
0
 10
246.40083327643873
 20
5.0
 10
251.50083327643887
 20
5.000000000000007
  0
LWPOLYLINE
  5
196
330
17
100
AcDbEntity
  8
GIZLI
100
AcDbPolyline
 90
2
 70
0
 10
326.50083327643887
 20
5.000000000000014
 10
330.55083327643905
 20
5.000000000000007
  0
LWPOLYLINE
  5
197
330
17
100
AcDbEntity
  8
GIZLI
100
AcDbPolyline
 90
2
 70
0
 10
330.55083327643905
 20
5.000000000000007
 10
326.50083327643887
 20
5.000000000000014
  0
LWPOLYLINE
  5
198
330
17
100
AcDbEntity
  8
GIZLI
100
AcDbPolyline
 90
2
 70
0
 10
326.50083327643887
 20
5.000000000000014
 10
322.45083327643914
 20
5.000000000000007
  0
LWPOLYLINE
  5
199
330
17
100
AcDbEntity
  8
GIZLI
100
AcDbPolyline
 90
2
 70
0
 10
322.45083327643914
 20
5.000000000000007
 10
326.50083327643887
 20
5.000000000000014
  0
LWPOLYLINE
  5
19A
330
17
100
AcDbEntity
  8
GIZLI
100
AcDbPolyline
 90
2
 70
0
 10
241.5008332773388
 20
5.000000000000014
 10
241.5008332773388
 20
1.4211017345527877e-14
  0
LWPOLYLINE
  5
19B
330
17
100
AcDbEntity
  8
GIZLI
100
AcDbPolyline
 90
2
 70
0
 10
236.50083327643887
 20
5.000000000000007
 10
236.50083327643887
 20
7.105589987926875e-15
  0
LWPOLYLINE
  5
19C
330
17
100
AcDbEntity
  8
GIZLI
100
AcDbPolyline
 90
2
 70
0
 10
336.50083327643887
 20
7.105589987926875e-15
 10
336.50083327643887
 20
5.000000000000007
  0
LWPOLYLINE
  5
19D
330
17
100
AcDbEntity
  8
GIZLI
100
AcDbPolyline
 90
2
 70
0
 10
241.50083327643887
 20
5.000000000000014
 10
241.50083327643887
 20
1.4211017345527877e-14
  0
LWPOLYLINE
  5
19E
330
17
100
AcDbEntity
  8
GIZLI
100
AcDbPolyline
 90
2
 70
0
 10
236.50083327643887
 20
5.000000000000007
 10
236.50083327643887
 20
7.105589987926875e-15
  0
LWPOLYLINE
  5
19F
330
17
100
AcDbEntity
  8
GIZLI
100
AcDbPolyline
 90
2
 70
0
 10
236.50083327643887
 20
5.0
 10
236.50083327643887
 20
1.6263032587282567e-19
  0
LWPOLYLINE
  5
1A0
330
17
100
AcDbEntity
  8
GIZLI
100
AcDbPolyline
 90
2
 70
0
 10
241.50083327643887
 20
5.000000000000007
 10
241.50083327643887
 20
7.105589987926875e-15
  0
LWPOLYLINE
  5
1A1
330
17
100
AcDbEntity
  8
GIZLI
100
AcDbPolyline
 90
2
 70
0
 10
316.50083327643887
 20
7.105589987926875e-15
 10
316.50083327643887
 20
5.000000000000007
  0
LWPOLYLINE
  5
1A2
330
17
100
AcDbEntity
  8
GIZLI
100
AcDbPolyline
 90
2
 70
0
 10
316.50083327643887
 20
1.4211017345527877e-14
 10
316.50083327643887
 20
5.000000000000014
  0
LWPOLYLINE
  5
1A3
330
17
100
AcDbEntity
  8
GIZLI
100
AcDbPolyline
 90
2
 70
0
 10
330.5508332764389
 20
7.105589987926875e-15
 10
330.5508332764389
 20
5.000000000000007
  0
LWPOLYLINE
  5
1A4
330
17
100
AcDbEntity
  8
GIZLI
100
AcDbPolyline
 90
2
 70
0
 10
322.45083327643886
 20
7.105589987926875e-15
 10
322.45083327643886
 20
5.000000000000007
  0
LWPOLYLINE
  5
1A5
330
17
100
AcDbEntity
  8
GIZLI
100
AcDbPolyline
 90
2
 70
0
 10
256.6008332764389
 20
1.4211017345527877e-14
 10
256.6008332764389
 20
5.000000000000014
  0
LWPOLYLINE
  5
1A6
330
17
100
AcDbEntity
  8
GIZLI
100
AcDbPolyline
 90
2
 70
0
 10
246.40083327643887
 20
1.4211017345527877e-14
 10
246.40083327643887
 20
5.000000000000014
  0
LWPOLYLINE
  5
1A7
330
17
100
AcDbEntity
  8
GIZLI
100
AcDbPolyline
 90
2
 70
0
 10
286.6008332764389
 20
7.105589987926875e-15
 10
286.6008332764389
 20
5.000000000000007
  0
LWPOLYLINE
  5
1A8
330
17
100
AcDbEntity
  8
GIZLI
100
AcDbPolyline
 90
2
 70
0
 10
276.40083327643885
 20
7.105589987926875e-15
 10
276.40083327643885
 20
5.000000000000007
  0
LWPOLYLINE
  5
1A9
330
17
100
AcDbEntity
  8
GIZLI
100
AcDbPolyline
 90
2
 70
0
 10
286.6008332764389
 20
1.6263032587282567e-19
 10
286.6008332764389
 20
5.0
  0
LWPOLYLINE
  5
1AA
330
17
100
AcDbEntity
  8
GIZLI
100
AcDbPolyline
 90
2
 70
0
 10
276.40083327643885
 20
1.6263032587282567e-19
 10
276.40083327643885
 20
5.0
  0
LWPOLYLINE
  5
1AB
330
17
100
AcDbEntity
  8
GIZLI
100
AcDbPolyline
 90
2
 70
0
 10
256.6008332764389
 20
7.105589987926875e-15
 10
256.6008332764389
 20
5.000000000000007
  0
LWPOLYLINE
  5
1AC
330
17
100
AcDbEntity
  8
GIZLI
100
AcDbPolyline
 90
2
 70
0
 10
246.40083327643887
 20
7.105589987926875e-15
 10
246.40083327643887
 20
5.000000000000007
  0
LWPOLYLINE
  5
1AD
330
17
100
AcDbEntity
  8
GIZLI
100
AcDbPolyline
 90
2
 70
0
 10
330.5508332764389
 20
1.4211017345527877e-14
 10
330.5508332764389
 20
5.000000000000014
  0
LWPOLYLINE
  5
1AE
330
17
100
AcDbEntity
  8
GIZLI
100
AcDbPolyline
 90
2
 70
0
 10
322.45083327643886
 20
1.4211017345527877e-14
 10
322.45083327643886
 20
5.000000000000014
  0
TEXT
  5
1AF
330
17
100
AcDbEntity
  8
YAZI
100
AcDbText
 10
236.50083327643887
 20
-10.0
 30
0.0
 40
5.0
  1
SAG
 11
236.50083327643887
 21
-10.0
 31
0.0
100
AcDbText
  0
DIMENSION
  5
1B0
330
17
100
AcDbEntity
  8
OLCU
100
AcDbDimension
280
0
  2
*D5
  3
EZDXF
 10
236.50083327643887
 20
-22.0
 30
0.0
 11
286.50083327643887
 21
-21.775
 31
0.0
 70
32
 71
5
  1
<>
100
AcDbAlignedDimension
 13
236.50083327643887
 23
0.0
 33
0.0
 14
336.50083327643887
 24
0.0
 34
0.0
 50
0.0
100
AcDbRotatedDimension
  0
DIMENSION
  5
1BF
330
17
100
AcDbEntity
  8
OLCU
100
AcDbDimension
280
0
  2
*D6
  3
EZDXF
 10
214.50083327643887
 20
0.0
 30
0.0
 11
214.27583327643887
 21
2.500000000000007
 31
0.0
 70
32
 71
5
  1
<>
100
AcDbAlignedDimension
 13
236.50083327643887
 23
0.0
 33
0.0
 14
236.50083327643887
 24
5.000000000000014
 34
0.0
 50
90.0
100
AcDbRotatedDimension
  0
TEXT
  5
1CE
330
17
100
AcDbEntity
  8
YAZI
100
AcDbText
 10
0.0
 20
98.75076972145618
 30
0.0
 40
6.0
  1
09.020.000.03   09.020.000.03 Rollenplatte
 11
0.0
 21
98.75076972145618
 31
0.0
100
AcDbText
  0
TEXT
  5
1CF
330
17
100
AcDbEntity
  8
YAZI
100
AcDbText
 10
0.0
 20
89.75076972145618
 30
0.0
 40
4.5
  1
adet: 1
 11
0.0
 21
89.75076972145618
 31
0.0
100
AcDbText
  0
TEXT
  5
1D0
330
17
100
AcDbEntity
  8
YAZI
100
AcDbText
 10
0.0
 20
80.75076972145618
 30
0.0
 40
4.5
  1
BOY x EN x KALINLIK : 175.0 x 100.0 x 5.0 mm
 11
0.0
 21
80.75076972145618
 31
0.0
100
AcDbText
  0
TEXT
  5
1D1
330
17
100
AcDbEntity
  8
YAZI
100
AcDbText
 10
0.0
 20
71.75076972145618
 30
0.0
 40
4.5
  1
hacim 36094.4 mm3   kutle 0.2833 kg   yuzey 18773.0 mm2
 11
0.0
 21
71.75076972145618
 31
0.0
100
AcDbText
  0
TEXT
  5
1D2
330
17
100
AcDbEntity
  8
YAZI
100
AcDbText
 10
0.0
 20
62.75076972145619
 30
0.0
 40
4.5
  1
sac kalinligi: 5.0 mm
 11
0.0
 21
62.75076972145619
 31
0.0
100
AcDbText
  0
TEXT
  5
1D3
330
17
100
AcDbEntity
  8
YAZI
100
AcDbText
 10
0.0
 20
53.75076972145619
 30
0.0
 40
4.5
  1
dis capler: O20.0
 11
0.0
 21
53.75076972145619
 31
0.0
100
AcDbText
  0
TEXT
  5
1D4
330
17
100
AcDbEntity
  8
YAZI
100
AcDbText
 10
0.0
 20
44.75076972145619
 30
0.0
 40
4.5
  1
toplam delik: 14
 11
0.0
 21
44.75076972145619
 31
0.0
100
AcDbText
  0
TEXT
  5
1D5
330
17
100
AcDbEntity
  8
YAZI
100
AcDbText
 10
398.0016665528778
 20
98.75076972145618
 30
0.0
 40
5.0
  1
DELIK TABLOSU
 11
398.0016665528778
 21
98.75076972145618
 31
0.0
100
AcDbText
  0
TEXT
  5
1D6
330
17
100
AcDbEntity
  8
YAZI
100
AcDbText
 10
398.0016665528778
 20
89.75076972145618
 30
0.0
 40
4.0
  1
     cap  adet  eksen  derinlik
 11
398.0016665528778
 21
89.75076972145618
 31
0.0
100
AcDbText
  0
TEXT
  5
1D7
330
17
100
AcDbEntity
  8
YAZI
100
AcDbText
 10
398.0016665528778
 20
80.75076972145618
 30
0.0
 40
4.0
  1
O  10.20     8      Z     10.20
 11
398.0016665528778
 21
80.75076972145618
 31
0.0
100
AcDbText
  0
TEXT
  5
1D8
330
17
100
AcDbEntity
  8
YAZI
100
AcDbText
 10
398.0016665528778
 20
71.75076972145618
 30
0.0
 40
4.0
  1
O   8.10     4      Z      8.10
 11
398.0016665528778
 21
71.75076972145618
 31
0.0
100
AcDbText
  0
TEXT
  5
1D9
330
17
100
AcDbEntity
  8
YAZI
100
AcDbText
 10
398.0016665528778
 20
62.75076972145619
 30
0.0
 40
4.0
  1
O   4.00     2      Z      5.00
 11
398.0016665528778
 21
62.75076972145619
 31
0.0
100
AcDbText
  0
ENDSEC
  0
SECTION
  2
OBJECTS
  0
DICTIONARY
  5
A
330
0
100
AcDbDictionary
281
1
  3
ACAD_COLOR
350
B
  3
ACAD_GROUP
350
C
  3
ACAD_LAYOUT
350
D
  3
ACAD_MATERIAL
350
E
  3
ACAD_MLEADERSTYLE
350
F
  3
ACAD_MLINESTYLE
350
10
  3
ACAD_PLOTSETTINGS
350
11
  3
ACAD_PLOTSTYLENAME
350
12
  3
ACAD_SCALELIST
350
14
  3
ACAD_TABLESTYLE
350
15
  3
ACAD_VISUALSTYLE
350
16
  3
EZDXF_META
350
2D
  0
DICTIONARY
  5
B
330
A
100
AcDbDictionary
281
1
  0
DICTIONARY
  5
C
330
A
100
AcDbDictionary
281
1
  0
DICTIONARY
  5
D
330
A
100
AcDbDictionary
281
1
  3
Model
350
1A
  3
Layout1
350
1E
  0
DICTIONARY
  5
E
330
A
100
AcDbDictionary
281
1
  3
ByBlock
350
1F
  3
ByLayer
350
20
  3
Global
350
21
  0
DICTIONARY
  5
F
330
A
100
AcDbDictionary
281
1
  3
Standard
350
2C
  0
DICTIONARY
  5
10
330
A
100
AcDbDictionary
281
1
  3
Standard
350
22
  0
DICTIONARY
  5
11
330
A
100
AcDbDictionary
281
1
  0
ACDBDICTIONARYWDFLT
  5
12
330
A
100
AcDbDictionary
281
1
  3
Normal
350
13
100
AcDbDictionaryWithDefault
340
13
  0
ACDBPLACEHOLDER
  5
13
330
12
  0
DICTIONARY
  5
14
330
A
100
AcDbDictionary
281
1
  0
DICTIONARY
  5
15
330
A
100
AcDbDictionary
281
1
  0
DICTIONARY
  5
16
330
A
100
AcDbDictionary
281
1
  3
2dWireframe
350
5A
  3
Basic
350
5B
  3
Brighten
350
5C
  3
ColorChange
350
5D
  3
Conceptual
350
5E
  3
Dim
350
5F
  3
EdgeColorOff
350
60
  3
Facepattern
350
61
  3
Flat
350
62
  3
FlatWithEdges
350
63
  3
Gouraud
350
64
  3
GouraudWithEdges
350
65
  3
Hidden
350
66
  3
JitterOff
350
67
  3
Linepattern
350
68
  3
Modeling
350
69
  3
OverhangOff
350
6A
  3
Realistic
350
6B
  3
Shaded
350
6C
  3
Shaded with edges
350
6D
  3
Shades of Gray
350
6E
  3
Sketchy
350
6F
  3
Thicken
350
70
  3
Wireframe
350
71
  3
X-Ray
350
72
  0
LAYOUT
  5
1A
330
D
100
AcDbPlotSettings
  1

  4
A3
  6

 40
7.5
 41
20.0
 42
7.5
 43
20.0
 44
420.0
 45
297.0
 46
0.0
 47
0.0
 48
0.0
 49
0.0
140
0.0
141
0.0
142
1.0
143
1.0
 70
1024
 72
1
 73
0
 74
5
  7

 75
16
 76
0
 77
2
 78
300
147
1.0
148
0.0
149
0.0
100
AcDbLayout
  1
Model
 70
1
 71
0
 10
0.0
 20
0.0
 11
420.0
 21
297.0
 12
0.0
 22
0.0
 32
0.0
 14
1e+20
 24
1e+20
 34
1e+20
 15
-1e+20
 25
-1e+20
 35
-1e+20
146
0.0
 13
0.0
 23
0.0
 33
0.0
 16
1.0
 26
0.0
 36
0.0
 17
0.0
 27
1.0
 37
0.0
 76
1
330
17
  0
LAYOUT
  5
1E
330
D
100
AcDbPlotSettings
  1

  4
A3
  6

 40
7.5
 41
20.0
 42
7.5
 43
20.0
 44
420.0
 45
297.0
 46
0.0
 47
0.0
 48
0.0
 49
0.0
140
0.0
141
0.0
142
1.0
143
1.0
 70
0
 72
1
 73
0
 74
5
  7

 75
16
 76
0
 77
2
 78
300
147
1.0
148
0.0
149
0.0
100
AcDbLayout
  1
Layout1
 70
1
 71
1
 10
0.0
 20
0.0
 11
420.0
 21
297.0
 12
0.0
 22
0.0
 32
0.0
 14
1e+20
 24
1e+20
 34
1e+20
 15
-1e+20
 25
-1e+20
 35
-1e+20
146
0.0
 13
0.0
 23
0.0
 33
0.0
 16
1.0
 26
0.0
 36
0.0
 17
0.0
 27
1.0
 37
0.0
 76
1
330
1B
  0
MATERIAL
  5
1F
102
{ACAD_REACTORS
330
E
102
}
330
E
100
AcDbMaterial
  1
ByBlock
  2

 70
0
 40
1.0
 71
1
 41
1.0
 91
-1023410177
 42
1.0
 72
1
  3

 73
1
 74
1
 75
1
 44
0.5
 73
0
 45
1.0
 46
1.0
 77
1
  4

 78
1
 79
1
170
1
 48
1.0
171
1
  6

172
1
173
1
174
1
140
1.0
141
1.0
175
1
  7

176
1
177
1
178
1
143
1.0
179
1
  8

270
1
271
1
272
1
145
1.0
146
1.0
273
1
  9

274
1
275
1
276
1
 42
1.0
 72
1
  3

 73
1
 74
1
 75
1
 94
63
  0
MATERIAL
  5
20
102
{ACAD_REACTORS
330
E
102
}
330
E
100
AcDbMaterial
  1
ByLayer
  2

 70
0
 40
1.0
 71
1
 41
1.0
 91
-1023410177
 42
1.0
 72
1
  3

 73
1
 74
1
 75
1
 44
0.5
 73
0
 45
1.0
 46
1.0
 77
1
  4

 78
1
 79
1
170
1
 48
1.0
171
1
  6

172
1
173
1
174
1
140
1.0
141
1.0
175
1
  7

176
1
177
1
178
1
143
1.0
179
1
  8

270
1
271
1
272
1
145
1.0
146
1.0
273
1
  9

274
1
275
1
276
1
 42
1.0
 72
1
  3

 73
1
 74
1
 75
1
 94
63
  0
MATERIAL
  5
21
102
{ACAD_REACTORS
330
E
102
}
330
E
100
AcDbMaterial
  1
Global
  2

 70
0
 40
1.0
 71
1
 41
1.0
 91
-1023410177
 42
1.0
 72
1
  3

 73
1
 74
1
 75
1
 44
0.5
 73
0
 45
1.0
 46
1.0
 77
1
  4

 78
1
 79
1
170
1
 48
1.0
171
1
  6

172
1
173
1
174
1
140
1.0
141
1.0
175
1
  7

176
1
177
1
178
1
143
1.0
179
1
  8

270
1
271
1
272
1
145
1.0
146
1.0
273
1
  9

274
1
275
1
276
1
 42
1.0
 72
1
  3

 73
1
 74
1
 75
1
 94
63
  0
MLINESTYLE
  5
22
102
{ACAD_REACTORS
330
10
102
}
330
10
100
AcDbMlineStyle
  2
Standard
 70
0
  3

 62
256
 51
90.0
 52
90.0
 71
2
 49
0.5
 62
256
  6
BYLAYER
 49
-0.5
 62
256
  6
BYLAYER
  0
MLEADERSTYLE
  5
2C
102
{ACAD_REACTORS
330
F
102
}
330
F
100
AcDbMLeaderStyle
179
2
170
2
171
1
172
0
 90
2
 40
0.0
 41
0.0
173
1
 91
-1056964608
 92
-2
290
1
 42
2.0
291
1
 43
8.0
  3
Standard
 44
4.0
300

342
29
174
1
175
1
176
0
178
1
 93
-1056964608
 45
4.0
292
0
297
0
 46
4.0
 94
-1056964608
 47
1.0
 49
1.0
140
1.0
294
1
141
0.0
177
0
142
1.0
295
0
296
0
143
3.75
271
0
272
9
273
9
  0
DICTIONARY
  5
2D
330
A
100
AcDbDictionary
280
1
281
1
  3
CREATED_BY_EZDXF
350
2E
  3
WRITTEN_BY_EZDXF
350
1DC
  0
DICTIONARYVAR
  5
2E
330
2D
100
DictionaryVariables
280
0
  1
1.4.4 @ 2026-09-21T14:52:54.225268+00:00
  0
VISUALSTYLE
  5
5A
102
{ACAD_REACTORS
330
16
102
}
330
16
100
AcDbVisualStyle
  2
2dWireframe
 70
4
 90
0
 40
0.6
 62
7
290
0
291
0
  0
VISUALSTYLE
  5
5B
102
{ACAD_REACTORS
330
16
102
}
330
16
100
AcDbVisualStyle
  2
Basic
 70
7
 90
1
 40
0.6
 62
7
290
0
291
1
  0
VISUALSTYLE
  5
5C
102
{ACAD_REACTORS
330
16
102
}
330
16
100
AcDbVisualStyle
  2
Brighten
 70
12
 90
2
 40
0.6
 62
7
290
0
291
1
  0
VISUALSTYLE
  5
5D
102
{ACAD_REACTORS
330
16
102
}
330
16
100
AcDbVisualStyle
  2
ColorChange
 70
16
 90
2
 40
0.6
 62
8
290
0
291
1
  0
VISUALSTYLE
  5
5E
102
{ACAD_REACTORS
330
16
102
}
330
16
100
AcDbVisualStyle
  2
Conceptual
 70
9
 90
3
 40
0.6
 62
7
290
0
291
0
  0
VISUALSTYLE
  5
5F
102
{ACAD_REACTORS
330
16
102
}
330
16
100
AcDbVisualStyle
  2
Dim
 70
11
 90
2
 40
0.6
 62
7
290
0
291
1
  0
VISUALSTYLE
  5
60
102
{ACAD_REACTORS
330
16
102
}
330
16
100
AcDbVisualStyle
  2
EdgeColorOff
 70
22
 90
2
 40
0.6
 62
7
290
0
291
1
  0
VISUALSTYLE
  5
61
102
{ACAD_REACTORS
330
16
102
}
330
16
100
AcDbVisualStyle
  2
Facepattern
 70
15
 90
2
 40
0.6
 62
7
290
0
291
1
  0
VISUALSTYLE
  5
62
102
{ACAD_REACTORS
330
16
102
}
330
16
100
AcDbVisualStyle
  2
Flat
 70
0
 90
2
 40
0.6
 62
7
290
0
291
1
  0
VISUALSTYLE
  5
63
102
{ACAD_REACTORS
330
16
102
}
330
16
100
AcDbVisualStyle
  2
FlatWithEdges
 70
1
 90
2
 40
0.6
 62
7
290
0
291
1
  0
VISUALSTYLE
  5
64
102
{ACAD_REACTORS
330
16
102
}
330
16
100
AcDbVisualStyle
  2
Gouraud
 70
2
 90
2
 40
0.6
 62
7
290
0
291
1
  0
VISUALSTYLE
  5
65
102
{ACAD_REACTORS
330
16
102
}
330
16
100
AcDbVisualStyle
  2
GouraudWithEdges
 70
3
 90
2
 40
0.6
 62
7
290
0
291
1
  0
VISUALSTYLE
  5
66
102
{ACAD_REACTORS
330
16
102
}
330
16
100
AcDbVisualStyle
  2
Hidden
 70
6
 90
1
 40
0.6
 62
7
290
0
291
0
  0
VISUALSTYLE
  5
67
102
{ACAD_REACTORS
330
16
102
}
330
16
100
AcDbVisualStyle
  2
JitterOff
 70
20
 90
2
 40
0.6
 62
7
290
0
291
1
  0
VISUALSTYLE
  5
68
102
{ACAD_REACTORS
330
16
102
}
330
16
100
AcDbVisualStyle
  2
Linepattern
 70
14
 90
2
 40
0.6
 62
7
290
0
291
1
  0
VISUALSTYLE
  5
69
102
{ACAD_REACTORS
330
16
102
}
330
16
100
AcDbVisualStyle
  2
Modeling
 70
10
 90
2
 40
0.6
 62
7
290
0
291
0
  0
VISUALSTYLE
  5
6A
102
{ACAD_REACTORS
330
16
102
}
330
16
100
AcDbVisualStyle
  2
OverhangOff
 70
21
 90
2
 40
0.6
 62
7
290
0
291
1
  0
VISUALSTYLE
  5
6B
102
{ACAD_REACTORS
330
16
102
}
330
16
100
AcDbVisualStyle
  2
Realistic
 70
8
 90
2
 40
0.6
 62
7
290
0
291
0
  0
VISUALSTYLE
  5
6C
102
{ACAD_REACTORS
330
16
102
}
330
16
100
AcDbVisualStyle
  2
Shaded
 70
27
 90
2
 40
0.6
 62
7
290
0
291
0
  0
VISUALSTYLE
  5
6D
102
{ACAD_REACTORS
330
16
102
}
330
16
100
AcDbVisualStyle
  2
Shaded with edges
 70
26
 90
2
 40
0.6
 62
7
290
0
291
0
  0
VISUALSTYLE
  5
6E
102
{ACAD_REACTORS
330
16
102
}
330
16
100
AcDbVisualStyle
  2
Shades of Gray
 70
23
 90
2
 40
0.6
 62
7
290
0
291
0
  0
VISUALSTYLE
  5
6F
102
{ACAD_REACTORS
330
16
102
}
330
16
100
AcDbVisualStyle
  2
Sketchy
 70
24
 90
1
 40
0.6
 62
7
290
0
291
0
  0
VISUALSTYLE
  5
70
102
{ACAD_REACTORS
330
16
102
}
330
16
100
AcDbVisualStyle
  2
Thicken
 70
13
 90
2
 40
0.6
 62
7
290
0
291
1
  0
VISUALSTYLE
  5
71
102
{ACAD_REACTORS
330
16
102
}
330
16
100
AcDbVisualStyle
  2
Wireframe
 70
5
 90
0
 40
0.6
 62
7
290
0
291
0
  0
VISUALSTYLE
  5
72
102
{ACAD_REACTORS
330
16
102
}
330
16
100
AcDbVisualStyle
  2
X-Ray
 70
25
 90
2
 40
0.5
 62
7
290
0
291
0
  0
DICTIONARYVAR
  5
1DC
330
2D
100
DictionaryVariables
280
0
  1
1.4.4 @ 2026-09-21T14:52:54.298958+00:00
  0
ENDSEC
  0
EOF
