  0
SECTION
  2
HEADER
  9
$ACADVER
  1
AC1024
  9
$ACADMAINTVER
 70
6
  9
$DWGCODEPAGE
  3
ANSI_1252
  9
$LASTSAVEDBY
  1
ezdxf
  9
$INSBASE
 10
0.0
 20
0.0
 30
0.0
  9
$EXTMIN
 10
1e+20
 20
1e+20
 30
1e+20
  9
$EXTMAX
 10
-1e+20
 20
-1e+20
 30
-1e+20
  9
$LIMMIN
 10
0.0
 20
0.0
  9
$LIMMAX
 10
420.0
 20
297.0
  9
$ORTHOMODE
 70
0
  9
$REGENMODE
 70
1
  9
$FILLMODE
 70
1
  9
$QTEXTMODE
 70
0
  9
$MIRRTEXT
 70
1
  9
$LTSCALE
 40
1.0
  9
$ATTMODE
 70
1
  9
$TEXTSIZE
 40
2.5
  9
$TRACEWID
 40
1.0
  9
$TEXTSTYLE
  7
Standard
  9
$CLAYER
  8
0
  9
$CELTYPE
  6
ByLayer
  9
$CECOLOR
 62
256
  9
$CELTSCALE
 40
1.0
  9
$DISPSILH
 70
0
  9
$DIMSCALE
 40
1.0
  9
$DIMASZ
 40
2.5
  9
$DIMEXO
 40
0.625
  9
$DIMDLI
 40
3.75
  9
$DIMRND
 40
0.0
  9
$DIMDLE
 40
0.0
  9
$DIMEXE
 40
1.25
  9
$DIMTP
 40
0.0
  9
$DIMTM
 40
0.0
  9
$DIMTXT
 40
4.3229999999999995
  9
$DIMCEN
 40
2.5
  9
$DIMTSZ
 40
0.0
  9
$DIMTOL
 70
0
  9
$DIMLIM
 70
0
  9
$DIMTIH
 70
0
  9
$DIMTOH
 70
0
  9
$DIMSE1
 70
0
  9
$DIMSE2
 70
0
  9
$DIMTAD
 70
1
  9
$DIMZIN
 70
8
  9
$DIMBLK
  1

  9
$DIMASO
 70
1
  9
$DIMSHO
 70
1
  9
$DIMPOST
  1

  9
$DIMAPOST
  1

  9
$DIMALT
 70
0
  9
$DIMALTD
 70
3
  9
$DIMALTF
 40
1.0
  9
$DIMLFAC
 40
1.0
  9
$DIMTOFL
 70
1
  9
$DIMTVP
 40
0.0
  9
$DIMTIX
 70
0
  9
$DIMSOXD
 70
0
  9
$DIMSAH
 70
0
  9
$DIMBLK1
  1

  9
$DIMBLK2
  1

  9
$DIMSTYLE
  2
PF_MM
  9
$DIMCLRD
 70
0
  9
$DIMCLRE
 70
0
  9
$DIMCLRT
 70
0
  9
$DIMTFAC
 40
1.0
  9
$DIMGAP
 40
0.625
  9
$DIMJUST
 70
0
  9
$DIMSD1
 70
0
  9
$DIMSD2
 70
0
  9
$DIMTOLJ
 70
0
  9
$DIMTZIN
 70
8
  9
$DIMALTZ
 70
0
  9
$DIMALTTZ
 70
0
  9
$DIMUPT
 70
0
  9
$DIMDEC
 70
2
  9
$DIMTDEC
 70
2
  9
$DIMALTU
 70
2
  9
$DIMALTTD
 70
3
  9
$DIMTXSTY
  7
Standard
  9
$DIMAUNIT
 70
0
  9
$DIMADEC
 70
0
  9
$DIMALTRND
 40
0.0
  9
$DIMAZIN
 70
0
  9
$DIMDSEP
 70
44
  9
$DIMATFIT
 70
3
  9
$DIMFRAC
 70
0
  9
$DIMLDRBLK
  1

  9
$DIMLUNIT
 70
2
  9
$DIMLWD
 70
-2
  9
$DIMLWE
 70
-2
  9
$DIMTMOVE
 70
0
  9
$DIMFXL
 40
1.0
  9
$DIMFXLON
 70
0
  9
$DIMJOGANG
 40
0.785398163397
  9
$DIMTFILL
 70
0
  9
$DIMTFILLCLR
 70
0
  9
$DIMARCSYM
 70
0
  9
$DIMLTYPE
  6

  9
$DIMLTEX1
  6

  9
$DIMLTEX2
  6

  9
$DIMTXTDIRECTION
 70
0
  9
$LUNITS
 70
2
  9
$LUPREC
 70
4
  9
$SKETCHINC
 40
1.0
  9
$FILLETRAD
 40
10.0
  9
$AUNITS
 70
0
  9
$AUPREC
 70
2
  9
$MENU
  1
.
  9
$ELEVATION
 40
0.0
  9
$PELEVATION
 40
0.0
  9
$THICKNESS
 40
0.0
  9
$LIMCHECK
 70
0
  9
$CHAMFERA
 40
0.0
  9
$CHAMFERB
 40
0.0
  9
$CHAMFERC
 40
0.0
  9
$CHAMFERD
 40
0.0
  9
$SKPOLY
 70
0
  9
$TDCREATE
 40
2461307.8756828704
  9
$TDUCREATE
 40
2458532.153996898
  9
$TDUPDATE
 40
2461307.8756828704
  9
$TDUUPDATE
 40
2458532.1544311
  9
$TDINDWG
 40
0.0
  9
$TDUSRTIMER
 40
0.0
  9
$USRTIMER
 70
1
  9
$ANGBASE
 50
0.0
  9
$ANGDIR
 70
0
  9
$PDMODE
 70
0
  9
$PDSIZE
 40
0.0
  9
$PLINEWID
 40
0.0
  9
$SPLFRAME
 70
0
  9
$SPLINETYPE
 70
6
  9
$SPLINESEGS
 70
8
  9
$HANDSEED
  5
98
  9
$SURFTAB1
 70
6
  9
$SURFTAB2
 70
6
  9
$SURFTYPE
 70
6
  9
$SURFU
 70
6
  9
$SURFV
 70
6
  9
$UCSBASE
  2

  9
$UCSNAME
  2

  9
$UCSORG
 10
0.0
 20
0.0
 30
0.0
  9
$UCSXDIR
 10
1.0
 20
0.0
 30
0.0
  9
$UCSYDIR
 10
0.0
 20
1.0
 30
0.0
  9
$UCSORTHOREF
  2

  9
$UCSORTHOVIEW
 70
0
  9
$UCSORGTOP
 10
0.0
 20
0.0
 30
0.0
  9
$UCSORGBOTTOM
 10
0.0
 20
0.0
 30
0.0
  9
$UCSORGLEFT
 10
0.0
 20
0.0
 30
0.0
  9
$UCSORGRIGHT
 10
0.0
 20
0.0
 30
0.0
  9
$UCSORGFRONT
 10
0.0
 20
0.0
 30
0.0
  9
$UCSORGBACK
 10
0.0
 20
0.0
 30
0.0
  9
$PUCSBASE
  2

  9
$PUCSNAME
  2

  9
$PUCSORG
 10
0.0
 20
0.0
 30
0.0
  9
$PUCSXDIR
 10
1.0
 20
0.0
 30
0.0
  9
$PUCSYDIR
 10
0.0
 20
1.0
 30
0.0
  9
$PUCSORTHOREF
  2

  9
$PUCSORTHOVIEW
 70
0
  9
$PUCSORGTOP
 10
0.0
 20
0.0
 30
0.0
  9
$PUCSORGBOTTOM
 10
0.0
 20
0.0
 30
0.0
  9
$PUCSORGLEFT
 10
0.0
 20
0.0
 30
0.0
  9
$PUCSORGRIGHT
 10
0.0
 20
0.0
 30
0.0
  9
$PUCSORGFRONT
 10
0.0
 20
0.0
 30
0.0
  9
$PUCSORGBACK
 10
0.0
 20
0.0
 30
0.0
  9
$USERI1
 70
0
  9
$USERI2
 70
0
  9
$USERI3
 70
0
  9
$USERI4
 70
0
  9
$USERI5
 70
0
  9
$USERR1
 40
0.0
  9
$USERR2
 40
0.0
  9
$USERR3
 40
0.0
  9
$USERR4
 40
0.0
  9
$USERR5
 40
0.0
  9
$WORLDVIEW
 70
1
  9
$SHADEDGE
 70
3
  9
$SHADEDIF
 70
70
  9
$TILEMODE
 70
1
  9
$MAXACTVP
 70
64
  9
$PINSBASE
 10
0.0
 20
0.0
 30
0.0
  9
$PLIMCHECK
 70
0
  9
$PEXTMIN
 10
1e+20
 20
1e+20
 30
1e+20
  9
$PEXTMAX
 10
-1e+20
 20
-1e+20
 30
-1e+20
  9
$PLIMMIN
 10
0.0
 20
0.0
  9
$PLIMMAX
 10
420.0
 20
297.0
  9
$UNITMODE
 70
0
  9
$VISRETAIN
 70
1
  9
$PLINEGEN
 70
0
  9
$PSLTSCALE
 70
1
  9
$TREEDEPTH
 70
3020
  9
$CMLSTYLE
  2
Standard
  9
$CMLJUST
 70
0
  9
$CMLSCALE
 40
20.0
  9
$PROXYGRAPHICS
 70
1
  9
$MEASUREMENT
 70
1
  9
$CELWEIGHT
370
-1
  9
$ENDCAPS
280
0
  9
$JOINSTYLE
280
0
  9
$LWDISPLAY
290
1
  9
$INSUNITS
 70
4
  9
$HYPERLINKBASE
  1

  9
$STYLESHEET
  1

  9
$XEDIT
290
1
  9
$CEPSNTYPE
380
0
  9
$PSTYLEMODE
290
1
  9
$FINGERPRINTGUID
  2
{11626EAE-E0F1-40E5-B19A-6714E4BADF75}
  9
$VERSIONGUID
  2
{252018D6-9EC7-4F95-ADCC-EEC43A703985}
  9
$EXTNAMES
290
1
  9
$PSVPSCALE
 40
0.0
  9
$OLESTARTUP
290
0
  9
$SORTENTS
280
127
  9
$INDEXCTL
280
0
  9
$HIDETEXT
280
1
  9
$XCLIPFRAME
280
1
  9
$HALOGAP
280
0
  9
$OBSCOLOR
 70
257
  9
$OBSLTYPE
280
0
  9
$INTERSECTIONDISPLAY
280
0
  9
$INTERSECTIONCOLOR
 70
257
  9
$DIMASSOC
280
2
  9
$PROJECTNAME
  1

  9
$CAMERADISPLAY
290
0
  9
$LENSLENGTH
 40
50.0
  9
$CAMERAHEIGHT
 40
0.0
  9
$STEPSPERSEC
 40
24.0
  9
$STEPSIZE
 40
100.0
  9
$3DDWFPREC
 40
2.0
  9
$PSOLWIDTH
 40
0.005
  9
$PSOLHEIGHT
 40
0.08
  9
$LOFTANG1
 40
1.570796326795
  9
$LOFTANG2
 40
1.570796326795
  9
$LOFTMAG1
 40
0.0
  9
$LOFTMAG2
 40
0.0
  9
$LOFTPARAM
 70
7
  9
$LOFTNORMALS
280
1
  9
$LATITUDE
 40
37.795
  9
$LONGITUDE
 40
-122.394
  9
$NORTHDIRECTION
 40
0.0
  9
$TIMEZONE
 70
-8000
  9
$LIGHTGLYPHDISPLAY
280
1
  9
$TILEMODELIGHTSYNCH
280
1
  9
$CMATERIAL
347
20
  9
$SOLIDHIST
280
0
  9
$SHOWHIST
280
1
  9
$DWFFRAME
280
2
  9
$DGNFRAME
280
2
  9
$REALWORLDSCALE
290
1
  9
$INTERFERECOLOR
 62
256
  9
$CSHADOW
280
0
  9
$SHADOWPLANELOCATION
 40
0.0
  0
ENDSEC
  0
SECTION
  2
CLASSES
  0
CLASS
  1
ACDBDICTIONARYWDFLT
  2
AcDbDictionaryWithDefault
  3
ObjectDBX Classes
 90
0
 91
0
280
0
281
0
  0
CLASS
  1
SUN
  2
AcDbSun
  3
SCENEOE
 90
1153
 91
0
280
0
281
0
  0
CLASS
  1
VISUALSTYLE
  2
AcDbVisualStyle
  3
ObjectDBX Classes
 90
4095
 91
0
280
0
281
0
  0
CLASS
  1
MATERIAL
  2
AcDbMaterial
  3
ObjectDBX Classes
 90
1153
 91
0
280
0
281
0
  0
CLASS
  1
SCALE
  2
AcDbScale
  3
ObjectDBX Classes
 90
1153
 91
0
280
0
281
0
  0
CLASS
  1
TABLESTYLE
  2
AcDbTableStyle
  3
ObjectDBX Classes
 90
4095
 91
0
280
0
281
0
  0
CLASS
  1
MLEADERSTYLE
  2
AcDbMLeaderStyle
  3
ACDB_MLEADERSTYLE_CLASS
 90
4095
 91
0
280
0
281
0
  0
CLASS
  1
DICTIONARYVAR
  2
AcDbDictionaryVar
  3
ObjectDBX Classes
 90
0
 91
0
280
0
281
0
  0
CLASS
  1
CELLSTYLEMAP
  2
AcDbCellStyleMap
  3
ObjectDBX Classes
 90
1152
 91
0
280
0
281
0
  0
CLASS
  1
MENTALRAYRENDERSETTINGS
  2
AcDbMentalRayRenderSettings
  3
SCENEOE
 90
1024
 91
0
280
0
281
0
  0
CLASS
  1
ACDBDETAILVIEWSTYLE
  2
AcDbDetailViewStyle
  3
ObjectDBX Classes
 90
1025
 91
0
280
0
281
0
  0
CLASS
  1
ACDBSECTIONVIEWSTYLE
  2
AcDbSectionViewStyle
  3
ObjectDBX Classes
 90
1025
 91
0
280
0
281
0
  0
CLASS
  1
RASTERVARIABLES
  2
AcDbRasterVariables
  3
ISM
 90
0
 91
0
280
0
281
0
  0
CLASS
  1
LAYOUT
  2
AcDbLayout
  3
ObjectDBX Classes
 90
0
 91
0
280
0
281
0
  0
CLASS
  1
ACDBPLACEHOLDER
  2
AcDbPlaceHolder
  3
ObjectDBX Classes
 90
0
 91
0
280
0
281
0
  0
ENDSEC
  0
SECTION
  2
TABLES
  0
TABLE
  2
VPORT
  5
8
330
0
100
AcDbSymbolTable
 70
1
  0
VPORT
  5
23
330
8
100
AcDbSymbolTableRecord
100
AcDbViewportTableRecord
  2
*Active
 70
0
 10
0.0
 20
0.0
 11
1.0
 21
1.0
 12
0.0
 22
0.0
 13
0.0
 23
0.0
 14
0.5
 24
0.5
 15
0.5
 25
0.5
 16
0.0
 26
0.0
 36
1.0
 17
0.0
 27
0.0
 37
0.0
 40
1000.0
 41
1.34
 42
50.0
 43
0.0
 44
0.0
 50
0.0
 51
0.0
 71
0
 72
1000
 73
1
 74
3
 75
0
 76
0
 77
0
 78
0
281
0
 65
0
146
0.0
  0
ENDTAB
  0
TABLE
  2
LTYPE
  5
2
330
0
100
AcDbSymbolTable
 70
5
  0
LTYPE
  5
24
330
2
100
AcDbSymbolTableRecord
100
AcDbLinetypeTableRecord
  2
ByBlock
 70
0
  3

 72
65
 73
0
 40
0.0
  0
LTYPE
  5
25
330
2
100
AcDbSymbolTableRecord
100
AcDbLinetypeTableRecord
  2
ByLayer
 70
0
  3

 72
65
 73
0
 40
0.0
  0
LTYPE
  5
26
330
2
100
AcDbSymbolTableRecord
100
AcDbLinetypeTableRecord
  2
Continuous
 70
0
  3

 72
65
 73
0
 40
0.0
  0
LTYPE
  5
36
330
2
100
AcDbSymbolTableRecord
100
AcDbLinetypeTableRecord
  2
KESIK
 70
0
  3

 72
65
 73
2
 40
3.0
 49
2.0
 74
0
 49
-1.0
 74
0
  0
LTYPE
  5
37
330
2
100
AcDbSymbolTableRecord
100
AcDbLinetypeTableRecord
  2
EKSENCIZGI
 70
0
  3

 72
65
 73
4
 40
12.0
 49
8.0
 74
0
 49
-2.0
 74
0
 49
0.0
 74
0
 49
-2.0
 74
0
  0
ENDTAB
  0
TABLE
  2
LAYER
  5
1
330
0
100
AcDbSymbolTable
 70
9
  0
LAYER
  5
27
330
1
100
AcDbSymbolTableRecord
100
AcDbLayerTableRecord
  2
0
 70
0
 62
7
  6
Continuous
370
-3
390
13
347
21
  0
LAYER
  5
28
330
1
100
AcDbSymbolTableRecord
100
AcDbLayerTableRecord
  2
Defpoints
 70
0
 62
7
  6
Continuous
290
0
370
-3
390
13
347
21
  0
LAYER
  5
2F
330
1
100
AcDbSymbolTableRecord
100
AcDbLayerTableRecord
  2
GORUNEN
 70
0
 62
7
  6
Continuous
370
9
390
13
347
21
  0
LAYER
  5
30
330
1
100
AcDbSymbolTableRecord
100
AcDbLayerTableRecord
  2
GIZLI
 70
0
 62
8
  6
KESIK
370
9
390
13
347
21
  0
LAYER
  5
31
330
1
100
AcDbSymbolTableRecord
100
AcDbLayerTableRecord
  2
EKSEN
 70
0
 62
1
  6
EKSENCIZGI
370
9
390
13
347
21
  0
LAYER
  5
32
330
1
100
AcDbSymbolTableRecord
100
AcDbLayerTableRecord
  2
OLCU
 70
0
 62
4
  6
Continuous
370
9
390
13
347
21
  0
LAYER
  5
33
330
1
100
AcDbSymbolTableRecord
100
AcDbLayerTableRecord
  2
YAZI
 70
0
 62
3
  6
Continuous
370
9
390
13
347
21
  0
LAYER
  5
34
330
1
100
AcDbSymbolTableRecord
100
AcDbLayerTableRecord
  2
CERCEVE
 70
0
 62
5
  6
Continuous
370
9
390
13
347
21
  0
LAYER
  5
35
330
1
100
AcDbSymbolTableRecord
100
AcDbLayerTableRecord
  2
TARAMA
 70
0
 62
5
  6
Continuous
370
9
390
13
347
21
  0
ENDTAB
  0
TABLE
  2
STYLE
  5
5
330
0
100
AcDbSymbolTable
 70
1
  0
STYLE
  5
29
330
5
100
AcDbSymbolTableRecord
100
AcDbTextStyleTableRecord
  2
Standard
 70
0
 40
0.0
 41
1.0
 50
0.0
 71
0
 42
2.5
  3
txt
  4

  0
ENDTAB
  0
TABLE
  2
VIEW
  5
7
330
0
100
AcDbSymbolTable
 70
0
  0
ENDTAB
  0
TABLE
  2
UCS
  5
6
330
0
100
AcDbSymbolTable
 70
0
  0
ENDTAB
  0
TABLE
  2
APPID
  5
3
330
0
100
AcDbSymbolTable
 70
3
  0
APPID
  5
2A
330
3
100
AcDbSymbolTableRecord
100
AcDbRegAppTableRecord
  2
ACAD
 70
0
  0
APPID
  5
95
330
3
100
AcDbSymbolTableRecord
100
AcDbRegAppTableRecord
  2
HATCHBACKGROUNDCOLOR
 70
0
  0
APPID
  5
96
330
3
100
AcDbSymbolTableRecord
100
AcDbRegAppTableRecord
  2
EZDXF
 70
0
  0
ENDTAB
  0
TABLE
  2
DIMSTYLE
  5
4
330
0
100
AcDbSymbolTable
 70
2
100
AcDbDimStyleTable
  0
DIMSTYLE
105
2B
330
4
100
AcDbSymbolTableRecord
100
AcDbDimStyleTableRecord
  2
Standard
 70
0
 40
1.0
 41
2.5
 42
0.625
 43
3.75
 44
1.25
 45
0.0
 46
0.0
 47
0.0
 48
0.0
 49
2.5
140
2.5
141
2.5
142
0.0
143
0.03937007874
144
1.0
145
0.0
146
1.0
147
0.625
148
0.0
 69
0
 70
0
 71
0
 72
0
 73
0
 74
0
 75
0
 76
0
 77
1
 78
8
 79
3
170
0
171
3
172
1
173
0
174
0
175
0
176
0
177
0
178
0
179
2
271
2
272
2
273
2
274
3
275
0
276
0
277
2
278
44
279
0
280
0
281
0
282
0
283
0
284
8
285
0
286
0
288
0
289
3
290
0
371
-2
372
-2
  0
DIMSTYLE
105
38
330
4
100
AcDbSymbolTableRecord
100
AcDbDimStyleTableRecord
  2
PF_MM
 70
0
 40
1.0
 41
3.4583999999999997
 42
2.1614999999999998
 43
3.75
 44
2.5937999999999994
 45
0.0
 46
0.0
 47
0.0
 48
0.0
 49
2.5
140
4.3229999999999995
141
2.5
142
0.0
143
0.03937007874
144
1.0
145
0.0
146
1.0
147
1.5130499999999998
148
0.0
 69
0
 70
0
 71
0
 72
0
 73
0
 74
0
 75
0
 76
0
 77
1
 78
8
 79
3
170
0
171
3
172
1
173
0
174
0
175
0
176
4
177
4
178
3
179
2
271
1
272
2
273
2
274
3
275
0
276
0
277
2
278
44
279
0
280
0
281
0
282
0
283
0
284
8
285
0
286
0
288
0
289
3
290
0
371
-2
372
-2
  0
ENDTAB
  0
TABLE
  2
BLOCK_RECORD
  5
9
330
0
100
AcDbSymbolTable
 70
5
  0
BLOCK_RECORD
  5
17
330
9
100
AcDbSymbolTableRecord
100
AcDbBlockTableRecord
  2
*Model_Space
340
1A
 70
0
280
1
281
0
  0
BLOCK_RECORD
  5
1B
330
9
100
AcDbSymbolTableRecord
100
AcDbBlockTableRecord
  2
*Paper_Space
340
1E
 70
0
280
1
281
0
  0
BLOCK_RECORD
  5
5F
330
9
100
AcDbSymbolTableRecord
100
AcDbBlockTableRecord
  2
*D1
340
0
 70
0
280
1
281
0
  0
BLOCK_RECORD
  5
64
330
9
100
AcDbSymbolTableRecord
100
AcDbBlockTableRecord
  2
_CLOSEDFILLED
340
0
 70
0
280
1
281
0
  0
BLOCK_RECORD
  5
72
330
9
100
AcDbSymbolTableRecord
100
AcDbBlockTableRecord
  2
*D2
340
0
 70
0
280
1
281
0
  0
ENDTAB
  0
ENDSEC
  0
SECTION
  2
BLOCKS
  0
BLOCK
  5
18
330
17
100
AcDbEntity
  8
0
100
AcDbBlockBegin
  2
*Model_Space
 70
0
 10
0.0
 20
0.0
 30
0.0
  3
*Model_Space
  1

  0
ENDBLK
  5
19
330
17
100
AcDbEntity
  8
0
100
AcDbBlockEnd
  0
BLOCK
  5
1C
330
1B
100
AcDbEntity
  8
0
100
AcDbBlockBegin
  2
*Paper_Space
 70
0
 10
0.0
 20
0.0
 30
0.0
  3
*Paper_Space
  1

  0
ENDBLK
  5
1D
330
1B
100
AcDbEntity
  8
0
100
AcDbBlockEnd
  0
BLOCK
  5
60
330
5F
100
AcDbEntity
  8
0
100
AcDbBlockBegin
  2
*D1
 70
1
 10
0.0
 20
0.0
 30
0.0
  3
*D1
  1

  0
LINE
  5
62
330
5F
100
AcDbEntity
  8
0
 62
4
100
AcDbLine
 10
0.0
 20
-2.1614999999999998
 30
0.0
 11
0.0
 21
-19.885799999999996
 31
0.0
  0
LINE
  5
63
330
5F
100
AcDbEntity
  8
0
 62
4
100
AcDbLine
 10
483.02
 20
-2.1614999999999998
 30
0.0
 11
483.02
 21
-19.885799999999996
 31
0.0
  0
INSERT
  5
68
330
5F
100
AcDbEntity
  8
OLCU
 62
4
100
AcDbBlockReference
  2
_CLOSEDFILLED
 10
0.0
 20
-17.291999999999998
 30
0.0
 41
3.4583999999999997
 42
3.4583999999999997
 50
180.0
  0
INSERT
  5
6A
330
5F
100
AcDbEntity
  8
OLCU
 62
4
100
AcDbBlockReference
  2
_CLOSEDFILLED
 10
483.02
 20
-17.291999999999998
 30
0.0
 41
3.4583999999999997
 42
3.4583999999999997
  0
LINE
  5
6C
330
5F
100
AcDbEntity
  8
0
 62
4
100
AcDbLine
 10
3.4583999999999997
 20
-17.291999999999998
 30
0.0
 11
479.5616
 21
-17.291999999999998
 31
0.0
  0
MTEXT
  5
6D
330
5F
100
AcDbEntity
  8
OLCU
 62
3
100
AcDbMText
 10
241.51
 20
-13.617449999999998
 30
0.0
 40
4.3229999999999995
 71
5
  1
483
  0
POINT
  5
6E
330
5F
100
AcDbEntity
  8
Defpoints
100
AcDbPoint
 10
0.0
 20
-17.291999999999998
 30
0.0
  0
POINT
  5
6F
330
5F
100
AcDbEntity
  8
Defpoints
100
AcDbPoint
 10
0.0
 20
0.0
 30
0.0
  0
POINT
  5
70
330
5F
100
AcDbEntity
  8
Defpoints
100
AcDbPoint
 10
483.02
 20
0.0
 30
0.0
  0
ENDBLK
  5
61
330
5F
100
AcDbEntity
  8
0
100
AcDbBlockEnd
  0
BLOCK
  5
65
330
64
100
AcDbEntity
  8
0
100
AcDbBlockBegin
  2
_CLOSEDFILLED
 70
0
 10
0.0
 20
0.0
 30
0.0
  3
_CLOSEDFILLED
  1

  0
SOLID
  5
67
330
64
100
AcDbEntity
  8
0
  6
BYBLOCK
 62
0
100
AcDbTrace
 10
-1.0
 20
0.16439898372402537
 30
0.0
 11
0.0
 21
0.0
 31
0.0
 12
-1.0
 22
-0.16439898372402537
 32
0.0
 13
-1.0
 23
-0.16439898372402537
 33
0.0
  0
ENDBLK
  5
66
330
64
100
AcDbEntity
  8
0
100
AcDbBlockEnd
  0
BLOCK
  5
73
330
72
100
AcDbEntity
  8
0
100
AcDbBlockBegin
  2
*D2
 70
1
 10
0.0
 20
0.0
 30
0.0
  3
*D2
  1

  0
LINE
  5
75
330
72
100
AcDbEntity
  8
0
 62
4
100
AcDbLine
 10
-2.1614999999999998
 20
0.0
 30
0.0
 11
-19.885799999999996
 21
0.0
 31
0.0
  0
LINE
  5
76
330
72
100
AcDbEntity
  8
0
 62
4
100
AcDbLine
 10
-2.1614999999999998
 20
129.69
 30
0.0
 11
-19.885799999999996
 21
129.69
 31
0.0
  0
INSERT
  5
77
330
72
100
AcDbEntity
  8
OLCU
 62
4
100
AcDbBlockReference
  2
_CLOSEDFILLED
 10
-17.291999999999998
 20
0.0
 30
0.0
 41
3.4583999999999997
 42
3.4583999999999997
 50
270.0
  0
INSERT
  5
79
330
72
100
AcDbEntity
  8
OLCU
 62
4
100
AcDbBlockReference
  2
_CLOSEDFILLED
 10
-17.291999999999998
 20
129.69
 30
0.0
 41
3.4583999999999997
 42
3.4583999999999997
 50
90.0
  0
LINE
  5
7B
330
72
100
AcDbEntity
  8
0
 62
4
100
AcDbLine
 10
-17.291999999999998
 20
3.4583999999999997
 30
0.0
 11
-17.291999999999998
 21
126.2316
 31
0.0
  0
MTEXT
  5
7C
330
72
100
AcDbEntity
  8
OLCU
 62
3
100
AcDbMText
 10
-20.966549999999998
 20
64.845
 30
0.0
 40
4.3229999999999995
 71
5
  1
129,7
 50
90.0
  0
POINT
  5
7D
330
72
100
AcDbEntity
  8
Defpoints
100
AcDbPoint
 10
-17.291999999999998
 20
0.0
 30
0.0
  0
POINT
  5
7E
330
72
100
AcDbEntity
  8
Defpoints
100
AcDbPoint
 10
0.0
 20
0.0
 30
0.0
  0
POINT
  5
7F
330
72
100
AcDbEntity
  8
Defpoints
100
AcDbPoint
 10
0.0
 20
129.69
 30
0.0
  0
ENDBLK
  5
74
330
72
100
AcDbEntity
  8
0
100
AcDbBlockEnd
  0
ENDSEC
  0
SECTION
  2
ENTITIES
  0
LWPOLYLINE
  5
39
330
17
100
AcDbEntity
  8
GORUNEN
100
AcDbPolyline
 90
496
 70
1
 10
0.0
 20
26.90627414469315
 10
68.0
 20
26.90627414469315
 10
68.0
 20
40.83038916934129
 10
71.0
 20
40.83038916934129
 10
71.09166727643952
 20
40.82829249428053
 10
71.18314728887454
 20
40.82200310973286
 10
71.27793958116877
 20
40.811015330281535
 10
71.37209830556932
 20
40.795517878363306
 10
71.46540723283056
 20
40.775543929559596
 10
71.55765290992618
 20
40.751137922064885
 10
71.64862499844659
 20
40.72235521828931
 10
71.73811661299632
 20
40.68926176646127
 10
71.8259246595914
 20
40.65193376223006
 10
71.91185017405672
 20
40.61045731026847
 10
71.99569866042347
 20
40.56492808587541
 10
72.07728042932648
 20
40.515450996578515
 10
72.15641093640161
 20
40.46213984373676
 10
72.23291112068316
 20
40.40511698414307
 10
72.30660774300125
 20
40.34451299162696
 10
72.37733372437916
 20
40.280466318657105
 10
72.44492848443079
 20
40.213122957943995
 10
72.50923827975802
 20
40.14263610404253
 10
72.57011654234807
 20
40.06916581495462
 10
72.6274242179709
 20
39.99287867373184
 10
72.68103010457658
 20
39.913947450077984
 10
72.73081119069273
 20
39.83255076195176
 10
72.77665299382187
 20
39.748872737169314
 10
72.81844989883878
 20
39.66310267500691
 10
72.85610549638793
 20
39.57543470780352
 10
72.88953292128085
 20
39.486067462563426
 10
72.91865519089352
 20
39.39520372255886
 10
72.94340554356373
 20
39.30305008893262
 10
72.96372777698852
 20
39.20981664230062
 10
72.97957658662149
 20
39.11571660435462
 10
72.99091790407027
 20
39.0209659994647
 10
72.99772923549386
 20
38.92578331628201
 10
73.0
 20
38.83038916934129
 10
73.0
 20
21.000000000000014
 10
72.99638636861553
 20
20.852796977017768
 10
72.9855541800166
 20
20.70594857901134
 10
72.96752952989435
 20
20.55980857663394
 10
72.94235584120969
 20
20.414729033951637
 10
72.91009375958365
 20
20.271059460290232
 10
72.87082100719664
 20
20.129145968236635
 10
72.82463219554907
 20
19.989330439823362
 10
72.77163859753387
 20
19.851949702904754
 10
72.71196787937035
 20
19.71733471970918
 10
72.64576379304508
 20
19.58580978952203
 10
72.57318583000082
 20
19.457691767420364
 10
72.49440883690764
 20
19.333289300941217
 10
72.40962259444194
 20
19.212902086522725
 10
72.31903136008822
 20
19.096820147509092
 10
72.22285337606489
 20
18.98532313545897
 10
72.12132034355966
 20
18.878679656440383
 10
72.01467686454106
 20
18.777146623935153
 10
71.90317985249095
 20
18.680968639911818
 10
71.78709791347731
 20
18.590377405558094
 10
71.66671069905883
 20
18.50559116309239
 10
71.54230823257967
 20
18.42681416999921
 10
71.41419021047801
 20
18.35423620695496
 10
71.28266528029087
 20
18.288032120629694
 10
71.1480502970953
 20
18.228361402466163
 10
71.01066956017668
 20
18.175367804450964
 10
70.8708540317634
 20
18.129178992803396
 10
70.72894053970981
 20
18.08990624041639
 10
70.5852709660484
 20
18.057644158790332
 10
70.44019142336612
 20
18.03247047010568
 10
70.2940514209887
 20
18.01444581998343
 10
70.14720302298227
 20
18.003613631384503
 10
70.0
 20
18.00000000000002
 10
68.0
 20
18.00000000000002
 10
68.0
 20
18.050767487100025
 10
7.105427357601002e-15
 20
18.050767487100025
 10
3.552713678800501e-15
 20
1.4210854715202004e-14
 10
220.00000000000003
 20
0.0
 10
220.0
 20
42.84734457254128
 10
220.00106895079645
 20
42.89319882402941
 10
220.00426579064455
 20
42.93899097782504
 10
220.0098335931539
 20
42.98646103676137
 10
220.01766433759119
 20
43.03362241744673
 10
220.02773161623674
 20
43.08035718532918
 10
220.04000551166277
 20
43.126550915564884
 10
220.05445259673346
 20
43.172092693018094
 10
220.07103593460485
 20
43.216875112261164
 10
220.08971507872494
 20
43.26079427757456
 10
220.11044607283358
 20
43.30374980294684
 10
220.13318145096258
 20
43.345644812074646
 10
220.1578702374357
 20
43.38638593836275
 10
220.1844579468685
 20
43.42588332492401
 10
220.2128865841685
 20
43.464050624579386
 10
220.2430946445352
 20
43.50080499985792
 10
220.27501711345997
 20
43.5360671229968
 10
220.30858546672602
 20
43.56976117594127
 10
220.34372767040855
 20
43.60181485034468
 10
220.38036818087468
 20
43.6321593475685
 10
220.4184279447834
 20
43.6607293786823
 10
220.4578243990856
 20
43.68746316446372
 10
220.49847147102417
 20
43.71230243539854
 10
220.54027957813383
 20
43.735192431680616
 10
220.5831556282412
 20
43.75608190321189
 10
220.62700301946487
 20
43.774923109602454
 10
220.67172164021534
 20
43.79167182017045
 10
220.71720786919494
 20
43.80628731394215
 10
220.76335457539804
 20
43.818732379651905
 10
220.81005111811083
 20
43.82897331574218
 10
220.85718334691143
 20
43.83697993036354
 10
220.90463360166984
 20
43.84272554137466
 10
220.9522807125481
 20
43.84618697634228
 10
221.0
 20
43.84734457254128
 10
225.0
 20
43.84734457254128
 10
225.0
 20
42.37219746811165
 10
225.00205532524018
 20
42.17128109913736
 10
225.0
 20
42.17128109913736
 10
225.00281476962306
 20
42.09737349596577
 10
225.0041056990218
 20
41.97174283771693
 10
225.0061461818149
 20
41.77353958296227
 10
225.00817185791766
 20
41.57662711262817
 10
225.0101778472989
 20
41.38096031061773
 10
225.01215931735456
 20
41.18649337015053
 10
225.01411149454967
 20
40.99317997386969
 10
225.01602967591836
 20
40.80097345226461
 10
225.01790924039375
 20
40.60982692184289
 10
225.01974565994038
 20
40.41969340450582
 10
225.0215345104627
 20
40.230525929574576
 10
225.0232714824631
 20
40.04227761988409
 10
225.02495239142388
 20
39.85490176331429
 10
225.02657318788818
 20
39.66835187106858
 10
225.0281299672153
 20
39.48258172394115
 10
225.02961897898754
 20
39.29754540774002
 10
225.03103663604506
 20
39.113197338956326
 10
225.03237952312784
 20
38.92949228169247
 10
225.03364440510333
 20
38.74638535678433
 10
225.03482823476
 20
38.56383204397888
 10
225.03592816014856
 20
38.38178817795621
 10
225.03694153145236
 20
38.200209938917986
 10
225.0378659073712
 20
38.01905383840059
 10
225.03869906100255
 20
37.83827670091314
 10
225.0394389852063
 20
37.657835641946996
 10
225.0400838974402
 20
37.477688042854574
 10
225.04063224405428
 20
37.29779152305272
 10
225.04108270403344
 20
37.118103909966855
 10
225.04143419218016
 20
36.93858320709959
 10
225.04168586172875
 20
36.759187560578816
 10
225.04183710638515
 20
36.57987522451725
 10
225.04188756200023
 20
36.40060452520517
 10
225.0209437810002
 20
36.40060452520517
 10
225.02094378099954
 20
10.400604525502047
 10
478.056092922
 20
10.40060452549804
 10
478.283177935121
 20
10.407339360549045
 10
478.509734862868
 20
10.424367684112838
 10
478.7444360672825
 20
10.452992265234116
 10
478.9775179544171
 20
10.492682277425118
 10
479.20845485273696
 20
10.543353953991911
 10
479.4367278856625
 20
10.604896431618172
 10
479.66182578107805
 20
10.677172559893407
 10
479.8832456808402
 20
10.760019710841156
 10
480.1004939502866
 20
10.853250588447125
 10
480.3130869877438
 20
10.95665403818741
 10
480.5205520340365
 20
11.069995856556638
 10
480.72242798199534
 20
11.193019600596202
 10
480.91826618596593
 20
11.325447397422401
 10
481.10763127131696
 20
11.466980753754626
 10
481.29010194394874
 20
11.61730136544358
 10
481.46527179980177
 20
11.776071926999379
 10
481.63275013436527
 20
11.94293694111984
 10
481.7921627521854
 20
12.117523528218591
 10
481.94315277637395
 20
12.299442235953265
 10
482.08538145811684
 20
12.488287848753679
 10
482.21852898618243
 20
12.683640197350051
 10
482.34229529643005
 20
12.885064968301151
 10
482.45640088131864
 20
13.09211451352246
 10
482.560587599415
 20
13.30432865981443
 10
482.65461948490235
 20
13.521235518390569
 10
482.73828355708883
 20
13.742352294405705
 10
482.81139062991593
 20
13.967186096484113
 10
482.87377612146713
 20
14.19523474624772
 10
482.9253008634761
 20
14.425987587844304
 10
482.96585191083534
 20
14.658926297475631
 10
482.9953433511046
 20
14.893525692925692
 10
483.0137171140196
 20
15.129254543088834
 10
483.020943781
 20
15.365576377497959
 10
483.02094378100014
 20
32.45171061073796
 10
482.9784739715672
 20
32.632727126429046
 10
482.92930902663863
 20
32.81204502938322
 10
482.8599153596417
 20
33.02942589255479
 10
482.78067527137785
 20
33.243412192109986
 10
482.69175121797997
 20
33.45355534504587
 10
482.59332729747405
 20
33.65941625026582
 10
482.48560850010284
 20
33.86056589826346
 10
482.36881995864906
 20
34.056585980806624
 10
482.2432061987592
 20
34.24706950062134
 10
482.1090303892669
 20
34.43162138107581
 10
481.9665735925163
 20
34.60985907586432
 10
481.8161340146858
 20
34.78141317869125
 10
481.6580262561116
 20
34.94592803295503
 10
481.49258056161074
 20
35.10306234143212
 10
481.3201420708052
 20
35.25248977596092
 10
481.141070068445
 20
35.3938995871258
 10
480.9557372347318
 20
35.526997213941044
 10
480.7645288956426
 20
35.651504893534785
 10
480.5678422732529
 20
35.767162270833026
 10
480.36608573606037
 20
35.87372700824355
 10
480.1596780493085
 20
35.97097539533992
 10
479.94904762530996
 20
36.05870295854544
 10
479.73463177377
 20
36.136725070817114
 10
479.51687595211007
 20
36.204877561329596
 10
479.2962330157915
 20
36.26301732515919
 10
479.0731624686386
 20
36.31102293296778
 10
478.84812971316245
 20
36.34879524068684
 10
478.6216053008844
 20
36.376257999201336
 10
478.3940641826595
 20
36.39335846403376
 10
478.165984959
 20
36.40060452520517
 10
478.0891850113897
 20
36.40075653814074
 10
462.991881022
 20
36.510340686897166
 10
462.99330854197166
 20
36.736460790671025
 10
462.9946438186522
 20
36.96245227514386
 10
462.9958871638416
 20
37.18821326152387
 10
462.99703912300004
 20
37.41364756987948
 10
462.99810046858033
 20
37.63866425664044
 10
462.9990721933599
 20
37.86317722209174
 10
462.99995550377247
 20
38.08710489934164
 10
463.0007518132406
 20
38.31037003096226
 10
463.00146273550735
 20
38.5328995343569
 10
463.0020900779686
 20
38.75462445211794
 10
463.00263583500487
 20
38.975479979382
 10
463.00310218131364
 20
39.19540555660258
 10
463.00349146524104
 20
39.41434501334203
 10
463.0038062021142
 20
39.63224674668684
 10
463.0040490675733
 20
39.849063916725314
 10
463.0042228909033
 20
40.064754641166054
 10
463.0043306483664
 20
40.279282171559174
 10
463.00437545653386
 20
40.492615034618424
 10
463.0043605656179
 20
40.70472712372111
 10
463.00428935280416
 20
40.91559772766098
 10
463.0041653155834
 20
41.12521148601833
 10
463.00399206508365
 20
41.333558262968005
 10
463.00377331940246
 20
41.540632933855065
 10
463.00351289693845
 20
41.746435081332095
 10
463.003214709724
 20
41.95096860019248
 10
463.0028827567567
 20
42.15424121219303
 10
463.00252111733187
 20
42.356263894102376
 10
463.00213394437435
 20
42.557050223921394
 10
463.00172545777053
 20
42.756615651701495
 10
463.00129993770054
 20
42.954976702649304
 10
463.0008617179703
 20
43.152150121276286
 10
463.0004327387069
 20
43.34051116433882
 10
463.00000000000057
 20
43.527803303786925
 10
354.2851227350428
 20
42.999939662636905
 10
463.0
 20
43.75892501504127
 10
463.0
 20
85.93576413004128
 10
354.2851227472598
 20
86.69474948236196
 10
463.0
 20
86.16688584124344
 10
463.0004327387069
 20
86.35417798074373
 10
463.0008617179703
 20
86.54253902380627
 10
463.00129993770054
 20
86.73971244243324
 10
463.00172545777053
 20
86.93807349338105
 10
463.00213394437435
 20
87.13763892116116
 10
463.00252111733187
 20
87.33842525098018
 10
463.0028827567567
 20
87.54044793288952
 10
463.003214709724
 20
87.74372054489007
 10
463.00351289693845
 20
87.94825406375045
 10
463.00377331940246
 20
88.1540562112275
 10
463.00399206508365
 20
88.36113088211454
 10
463.0041653155834
 20
88.56947765906422
 10
463.00428935280416
 20
88.77909141742157
 10
463.0043605656179
 20
88.98996202136144
 10
463.00437545653386
 20
89.20207411046412
 10
463.0043306483664
 20
89.41540697352337
 10
463.0042228909033
 20
89.6299345039165
 10
463.0040490675733
 20
89.84562522835724
 10
463.0038062021142
 20
90.06244239839572
 10
463.00349146524104
 20
90.28034413174052
 10
463.00310218131364
 20
90.49928358847997
 10
463.00263583500487
 20
90.71920916570055
 10
463.0020900779686
 20
90.94006469296461
 10
463.00146273550735
 20
91.16178961072565
 10
463.0007518132406
 20
91.38431911412029
 10
462.99995550377247
 20
91.60758424574091
 10
462.9990721933599
 20
91.83151192299081
 10
462.99810046858033
 20
92.05602488844211
 10
462.99703912300004
 20
92.28104157520308
 10
462.9958871638416
 20
92.50647588355868
 10
462.9946438186522
 20
92.7322368699387
 10
462.99330854197166
 20
92.95822835441153
 10
462.991881022
 20
93.1843484581854
 10
478.0891839080001
 20
93.29408461920517
 10
478.16598495800025
 20
93.29408461920517
 10
482.9644803359922
 20
97.00821705750269
 10
482.8967493743973
 20
96.77645528267612
 10
482.8179088484461
 20
96.54823368963349
 10
482.7281426181147
 20
96.32408450233115
 10
482.62766002265806
 20
96.1045304476753
 10
482.5166953924205
 20
95.89008353649737
 10
482.39550750236606
 20
95.68124386951949
 10
482.2643789686024
 20
95.47849847109512
 10
482.12361558930604
 20
95.28232015344429
 10
481.97354563158643
 20
95.09316641403245
 10
481.81451906595055
 20
94.91147836866372
 10
481.6469067501546
 20
94.73767972277733
 10
481.4710995643456
 20
94.57217578334573
 10
481.2875074995096
 20
94.41535251367876
 10
481.0965587013528
 20
94.26757563333831
 10
480.8986984718444
 20
94.12918976526238
 10
480.6943882307508
 20
94.00051763208744
 10
480.4841044395819
 20
93.88185930354342
 10
480.2683374904598
 20
93.77349149667633
 10
480.0475905624998
 20
93.67566693053061
 10
479.8223784483724
 20
93.58861373679582
 10
479.5932263537814
 20
93.51253492779244
 10
479.36066867265833
 20
93.44760792303704
 10
479.12524774092986
 20
93.39398413549142
 10
478.88751257176335
 20
93.35178861846006
 10
478.6480175752417
 20
93.32111977395965
 10
478.4073212654513
 20
93.30204912324083
 10
478.1659849580003
 20
93.29408461920517
 10
483.02094378100014
 20
97.2429785343446
 10
478.2924089974369
 20
119.28685777644336
 10
478.52813210306414
 20
119.26848356572177
 10
478.76272578149144
 20
119.23899140671693
 10
478.995658814562
 20
119.19843937110835
 10
479.22640603286067
 20
119.14691337342956
 10
479.4544491252226
 20
119.08452636154006
 10
479.67927744824186
 20
119.01141750709706
 10
479.90038883577967
 20
118.92775139602735
 10
480.11729040847285
 20
118.83371721899903
 10
480.3294993832426
 20
118.72952796189342
 10
480.53654388280273
 20
118.61541959627685
 10
480.73796374516814
 20
118.49165026987245
 10
480.9333113331634
 20
118.358499497032
 10
481.12215234393113
 20
118.21626734920774
 10
481.30406661844063
 20
118.06527364542417
 10
481.47864895099616
 20
117.90585714274991
 10
481.6455098987455
 20
117.73837472676944
 10
481.8042765911884
 20
117.56320060205502
 10
481.9545935396852
 20
117.38072548263844
 10
482.0961234469652
 20
117.19135578248284
 10
482.2285480166349
 20
116.99551280595456
 10
482.3515687626869
 20
116.79363193829494
 10
482.46490781900815
 20
116.58616183609212
 10
482.56830874888846
 20
116.37356361775288
 10
482.66153735452895
 20
116.15631005397448
 10
482.74438248655053
 20
115.93488475821643
 10
482.8166568535024
 20
115.7097813771723
 10
482.8781978313705
 20
115.48150278124166
 10
482.92886827308615
 20
115.2505602550017
 10
482.9685573180341
 20
115.01747268767923
 10
482.99718120156155
 20
114.78276576362235
 10
483.01420911011814
 20
114.55620331471847
 10
483.020943781
 20
114.3291127675846
 10
478.0560929219996
 20
119.29408461958452
 10
225.02094378099954
 20
119.29408461958052
 10
225.0209437810002
 20
93.29408461920517
 10
225.04188756178777
 20
93.29408461920517
 10
225.04183710638515
 20
93.1148139205653
 10
225.04168586172875
 20
92.93550158450374
 10
225.0414341921802
 20
92.75610593798297
 10
225.04108270403344
 20
92.5765852351157
 10
225.04063224405428
 20
92.39689762202984
 10
225.0400838974402
 20
92.21700110222798
 10
225.0394389852063
 20
92.03685350313556
 10
225.03869906100255
 20
91.85641244416941
 10
225.0378659073712
 20
91.67563530668198
 10
225.03694153145238
 20
91.49447920616457
 10
225.03592816014856
 20
91.31290096712635
 10
225.03482823476
 20
91.13085710110369
 10
225.03364440510333
 20
90.94830378829823
 10
225.03237952312787
 20
90.76519686339009
 10
225.03103663604506
 20
90.58149180612622
 10
225.02961897898754
 20
90.39714373734255
 10
225.0281299672153
 20
90.2121074211414
 10
225.02657318788818
 20
90.02633727401398
 10
225.02495239142388
 20
89.83978738176828
 10
225.0232714824631
 20
89.65241152519847
 10
225.0215345104627
 20
89.46416321550798
 10
225.01974565994038
 20
89.27499574057674
 10
225.01790924039378
 20
89.08486222323967
 10
225.0160296759184
 20
88.89371569281795
 10
225.01411149454967
 20
88.70150917121288
 10
225.01215931735456
 20
88.50819577493203
 10
225.01017784729893
 20
88.31372883446483
 10
225.00817185791766
 20
88.11806203245439
 10
225.00614618181493
 20
87.92114956212029
 10
225.00410569902184
 20
87.72294630736563
 10
225.0
 20
87.59734457254129
 10
225.00205532524018
 20
87.5234080459452
 10
225.0
 20
87.32249167699432
 10
225.0
 20
85.84734457254129
 10
221.0
 20
85.84734457254129
 10
220.95414574847933
 20
85.84841352333825
 10
220.90835359465595
 20
85.85161036318787
 10
220.8608835356954
 20
85.85717816569988
 10
220.81372215499022
 20
85.86500891014086
 10
220.76698738709203
 20
85.87507618879113
 10
220.72079365684425
 20
85.88735008422283
 10
220.67525187938236
 20
85.9017971693001
 10
220.63046946013364
 20
85.91838050717887
 10
220.5865502948173
 20
85.93705965130704
 10
220.54359476944452
 20
85.95779064542441
 10
220.50169976031833
 20
85.98052602356265
 10
220.46095863403372
 20
86.00521481004535
 10
220.42146124747754
 20
86.03180251948797
 10
220.3832939478286
 20
86.06023115679791
 10
220.3465395725576
 20
86.09043921717445
 10
220.31127744942714
 20
86.12236168610877
 10
220.27758339649176
 20
86.15593003938395
 10
220.2455297220979
 20
86.19107224307496
 10
220.2151852248839
 20
86.2277127535487
 10
220.18661519378
 20
86.26577251746394
 10
220.15988140800843
 20
86.30516897177137
 10
220.13504213708322
 20
86.34581604371354
 10
220.11215214081042
 20
86.38762415082498
 10
220.0912626692879
 20
86.43050020093202
 10
220.07242146290548
 20
86.47434759215295
 10
220.05567275234492
 20
86.51906621289798
 10
220.04105725857985
 20
86.56455244186915
 10
220.02861219287587
 20
86.61069914806046
 10
220.01837125679037
 20
86.6573956907578
 10
220.0103646421728
 20
86.70452791953892
 10
220.00461903116442
 20
86.75197817427349
 10
220.00115759619845
 20
86.79962528512313
 10
220.0
 20
86.84734457254129
 10
220.0
 20
129.69468914508258
 10
7.105427357601002e-15
 20
129.69468914508255
 10
3.552713678800501e-15
 20
111.64392165798256
 10
68.0
 20
111.64392165798256
 10
68.0
 20
111.69468914508256
 10
70.0
 20
111.69468914508256
 10
70.14720302298227
 20
111.69107551369808
 10
70.2940514209887
 20
111.68024332509916
 10
70.44019142336609
 20
111.66221867497691
 10
70.5852709660484
 20
111.63704498629225
 10
70.7289405397098
 20
111.6047829046662
 10
70.8708540317634
 20
111.56551015227919
 10
71.01066956017667
 20
111.51932134063162
 10
71.14805029709527
 20
111.46632774261643
 10
71.28266528029084
 20
111.4066570244529
 10
71.414190210478
 20
111.34045293812764
 10
71.54230823257967
 20
111.26787497508337
 10
71.66671069905881
 20
111.1890979819902
 10
71.78709791347731
 20
111.1043117395245
 10
71.90317985249094
 20
111.01372050517078
 10
72.01467686454106
 20
110.91754252114745
 10
72.12132034355965
 20
110.81600948864221
 10
72.22285337606488
 20
110.70936600962362
 10
72.31903136008822
 20
110.5978689975735
 10
72.40962259444194
 20
110.48178705855987
 10
72.49440883690764
 20
110.36139984414137
 10
72.57318583000082
 20
110.23699737766223
 10
72.64576379304506
 20
110.10887935556056
 10
72.71196787937033
 20
109.97735442537342
 10
72.77163859753387
 20
109.84273944217784
 10
72.82463219554907
 20
109.70535870525924
 10
72.87082100719664
 20
109.56554317684596
 10
72.91009375958365
 20
109.42362968479236
 10
72.94235584120969
 20
109.27996011113096
 10
72.96752952989435
 20
109.13488056844866
 10
72.9855541800166
 20
108.98874056607126
 10
72.99638636861553
 20
108.84189216806483
 10
73.0
 20
108.69468914508256
 10
73.0
 20
90.86429997574129
 10
72.99790332493924
 20
90.77263269930177
 10
72.99161394039157
 20
90.68115268686675
 10
72.98062616094026
 20
90.58636039457252
 10
72.96512870902203
 20
90.49220167017198
 10
72.94515476021832
 20
90.39889274291073
 10
72.9207487527236
 20
90.30664706581513
 10
72.89196604894803
 20
90.21567497729471
 10
72.85887259711998
 20
90.12618336274498
 10
72.82154459288878
 20
90.03837531614991
 10
72.7800681409272
 20
89.95244980168457
 10
72.73453891653412
 20
89.86860131531782
 10
72.68506182723723
 20
89.78701954641481
 10
72.63175067439548
 20
89.70788903933968
 10
72.57472781480179
 20
89.63138885505813
 10
72.51412382228568
 20
89.55769223274005
 10
72.45007714931583
 20
89.48696625136213
 10
72.3827337886027
 20
89.4193714913105
 10
72.31224693470125
 20
89.35506169598327
 10
72.23877664561334
 20
89.29418343339321
 10
72.16248950439055
 20
89.2368757577704
 10
72.0835582807367
 20
89.18326987116471
 10
72.00216159261048
 20
89.13348878504857
 10
71.91848356782803
 20
89.08764698191942
 10
71.83271350566562
 20
89.04585007690252
 10
71.74504553846224
 20
89.00819447935336
 10
71.65567829322214
 20
88.97476705446044
 10
71.56481455321759
 20
88.94564478484779
 10
71.47266091959133
 20
88.92089443217756
 10
71.37942747295935
 20
88.90057219875278
 10
71.28532743501333
 20
88.8847233891198
 10
71.19057683012342
 20
88.87338207167102
 10
71.09539414694072
 20
88.86657074024743
 10
71.0
 20
88.86429997574129
 10
68.0
 20
88.86429997574129
 10
68.0
 20
102.78841500038942
 10
7.105427357601002e-15
 20
102.78841500038942
  0
LWPOLYLINE
  5
3A
330
17
100
AcDbEntity
  8
GORUNEN
100
AcDbPolyline
 90
133
 70
1
 10
463.861416876
 20
16.400604525498267
 10
439.8620017389999
 20
16.400604525498636
 10
439.642032269418
 20
16.405984565794867
 10
439.4225892007743
 20
16.422112503342078
 10
439.20419735974923
 20
16.44895006342906
 10
438.9873788101149
 20
16.48643268616369
 10
438.77265170273984
 20
16.534470002828712
 10
438.56052912559295
 20
16.592946312237466
 10
438.3515179537476
 20
16.661721057089594
 10
438.1461176993856
 20
16.740629300326802
 10
437.9448193618019
 20
16.829482201488524
 10
437.74810427740795
 20
16.928067493067743
 10
437.5564429697364
 20
17.03614995686663
 10
437.37029399944515
 20
17.15347190035233
 10
437.1901028143212
 20
17.27975363301266
 10
437.01630059928516
 20
17.414693942711857
 10
436.849303126395
 20
17.557970572046294
 10
436.68950960485057
 20
17.709240694700206
 10
436.53730190228777
 20
17.86814180562442
 10
436.3930447232151
 20
18.03429408538517
 10
436.25708333751936
 20
18.207300393314576
 10
436.1297425043101
 20
18.3867468866828
 10
436.0113259954726
 20
18.572204170619685
 10
435.90211611932443
 20
18.763228448139238
 10
435.8023732442719
 20
18.95936267016409
 10
435.7123353224666
 20
19.16013768554992
 10
435.6322174134616
 20
19.365073391109966
 10
435.5622112078684
 20
19.5736798816394
 10
435.5024845510131
 20
19.78545859993985
 10
435.45318096659275
 20
19.999903486843834
 10
435.41441918033223
 20
20.216502131239196
 10
435.3862926436404
 20
20.434736920093584
 10
435.3688690572667
 20
20.654086188478885
 10
435.3621898949576
 20
20.874025369595707
 10
435.36627038135845
 20
21.094028167850148
 10
435.38110132515976
 20
21.31356807471736
 10
435.4066476583085
 20
21.532119994879977
 10
435.4428479718495
 20
21.749161457082316
 10
435.4896149911022
 20
21.96417376416302
 10
435.5468360520037
 20
22.176643143079517
 10
435.6143735774526
 20
22.38606189493246
 10
435.6920655536527
 20
22.5919295449902
 10
435.779726006456
 20
22.79375399271325
 10
435.87714547770656
 20
22.991052661778667
 10
435.9840915015841
 20
23.18335365010458
 10
436.1003090809472
 20
23.370196879874598
 10
436.22552116367723
 20
23.551135247562307
 10
436.3594291190214
 20
23.725735773955662
 10
436.50171321393674
 20
23.893580754181464
 10
436.6520330894332
 20
24.054268907729835
 10
436.81002850832243
 20
24.207416281592664
 10
436.9753217022564
 20
24.352656003972022
 10
437.1475176326745
 20
24.48964035414614
 10
437.32620442311986
 20
24.61804206242123
 10
437.5109545064783
 20
24.737554789302195
 10
437.70132577497475
 20
24.84789360184846
 10
437.8968627301688
 20
24.948795450029586
 10
438.0970976329507
 20
25.04001964308111
 10
438.3015516535372
 20
25.12134832586017
 10
438.50973602146746
 20
25.192586955201293
 10
438.7211531755987
 20
25.25356477627215
 10
438.9352979141024
 20
25.304135298929204
 10
439.15165854445996
 20
25.344176774073496
 10
439.3697180334585
 20
25.37359267000636
 10
439.5889551571871
 20
25.39231214878516
 10
439.7254154494245
 20
25.398531007460214
 10
439.862001739
 20
25.400604525498643
 10
463.86141687600025
 20
25.40060452549826
 10
464.081386345582
 20
25.39522448520205
 10
464.30082941422563
 20
25.37909654765489
 10
464.5192212552507
 20
25.352258987568142
 10
464.73603980488497
 20
25.314776364834117
 10
464.95076691225984
 20
25.266739048170265
 10
465.1628894894064
 20
25.2082627387635
 10
465.37190066125135
 20
25.139487993914393
 10
465.57730091561257
 20
25.060579750681462
 10
465.77859925319547
 20
24.971726849525403
 10
465.9753143375883
 20
24.873141557953325
 10
466.1669756452585
 20
24.76505909416305
 10
466.35312461554815
 20
24.647737150687313
 10
466.5333158006704
 20
24.521455418038045
 10
466.70711801570457
 20
24.3865151083506
 10
466.87411548859274
 20
24.243238479028015
 10
467.0339090101353
 20
24.09196835638528
 10
467.1861167126965
 20
23.933067245470625
 10
467.3303738917677
 20
23.766914965717028
 10
467.4663352774622
 20
23.593908657792
 10
467.59367611067046
 20
23.41446216442536
 10
467.71209261950725
 20
23.22900488048748
 10
467.82130249565495
 20
23.03798060296483
 10
467.92104537070736
 20
22.84184638093538
 10
468.01108329251304
 20
22.64107136554415
 10
468.0912012015187
 20
22.436135659978653
 10
468.161207407113
 20
22.227529169444416
 10
468.22093406397
 20
22.015750451140455
 10
468.27023764839254
 20
21.80130556423473
 10
468.3089994346558
 20
21.584706919839668
 10
468.33712597135093
 20
21.366472130987646
 10
468.35454955772843
 20
21.147122862606444
 10
468.36122872004194
 20
20.927183681494768
 10
468.3571482336459
 20
20.707180883245528
 10
468.34231728985
 20
20.48764097638322
 10
468.3167709567071
 20
20.26908905622515
 10
468.2805706431724
 20
20.052047594026952
 10
468.23380362392635
 20
19.837035286949963
 10
468.17658256303196
 20
19.624565908036715
 10
468.10904503759036
 20
19.415147156186542
 10
468.031353061398
 20
19.209279506131075
 10
467.9436926086028
 20
19.007455058409803
 10
467.8462731373605
 20
18.810156389345643
 10
467.7393271134916
 20
18.61785540102047
 10
467.62310953413726
 20
18.431012171250664
 10
467.4978974514163
 20
18.25007380356263
 10
467.36398949608133
 20
18.075473277168413
 10
467.22170540117537
 20
17.90762829694117
 10
467.07138552568836
 20
17.746940143390773
 10
466.9133901068086
 20
17.593792769525287
 10
466.74809691288425
 20
17.44855304714264
 10
466.5759009824757
 20
17.311568696964578
 10
466.39721419203994
 20
17.18316698868491
 10
466.21246410869105
 20
17.063654261798703
 10
466.0220928402041
 20
16.95331544924654
 10
465.8265558850194
 20
16.85241360105885
 10
465.6263209822467
 20
16.7611894080001
 10
465.42186696166914
 20
16.679860725213146
 10
465.21368259374765
 20
16.60862209586346
 10
465.0022654396248
 20
16.547644274783387
 10
464.7881207011292
 20
16.49707375211647
 10
464.57176007077925
 20
16.457032276961662
 10
464.3537005817878
 20
16.42761638101767
 10
464.1344634580659
 20
16.408896902227134
 10
463.9980031657022
 20
16.40267804354054
 10
463.861416876
 20
16.400604525498267
  0
LWPOLYLINE
  5
3B
330
17
100
AcDbEntity
  8
GORUNEN
100
AcDbPolyline
 90
131
 70
1
 10
464.08571789528236
 20
104.29967847409915
 10
463.8614168760001
 20
104.29408461958431
 10
439.8620017390006
 20
104.29408461958391
 10
439.642032269418
 20
104.29946465988013
 10
439.4225892007743
 20
104.31559259742734
 10
439.20419735974923
 20
104.34243015751429
 10
438.987378810115
 20
104.37991278024884
 10
438.7726517027402
 20
104.42795009691372
 10
438.5605291255936
 20
104.48642640632224
 10
438.35151795374867
 20
104.55520115117402
 10
438.1461176993874
 20
104.6341093944107
 10
437.9448193618045
 20
104.72296229557172
 10
437.74810427741164
 20
104.82154758715001
 10
437.55644296974145
 20
104.92963005094774
 10
437.37029399945175
 20
105.04695199443199
 10
437.1901028143296
 20
105.1732337270906
 10
437.0163005992954
 20
105.30817403678782
 10
436.84930312640716
 20
105.45145066612
 10
436.6895096048646
 20
105.60272078877139
 10
436.53730190230345
 20
105.76162189969286
 10
436.39304472323226
 20
105.92777417945054
 10
436.2570833375378
 20
106.1007804873765
 10
436.1297425043295
 20
106.28022698074082
 10
436.0113259954927
 20
106.4656842646734
 10
435.90211611934495
 20
106.6567085421882
 10
435.80237324429254
 20
106.8528427642079
 10
435.7123353224869
 20
107.05361777958828
 10
435.63221741348127
 20
107.2585534851426
 10
435.56221120788695
 20
107.46715997566614
 10
435.50248455102997
 20
107.67893869396057
 10
435.4531809666075
 20
107.89338358085853
 10
435.4144191803442
 20
108.10998222524792
 10
435.3862926436491
 20
108.32821701409647
 10
435.3688690572716
 20
108.54756628247611
 10
435.36218989495814
 20
108.7675054635875
 10
435.3662703813541
 20
108.98750826183672
 10
435.38110132515004
 20
109.20704816869903
 10
435.4066476582929
 20
109.42560008885712
 10
435.4428479718277
 20
109.64264155105532
 10
435.4896149910737
 20
109.85765385813232
 10
435.54683605196817
 20
110.07012323704556
 10
435.6143735774097
 20
110.27954198889574
 10
435.69206555360205
 20
110.48540963895121
 10
435.7797260063973
 20
110.6872340866725
 10
435.8771454776396
 20
110.88453275573666
 10
435.98409150150854
 20
111.07683374406183
 10
436.10030908086287
 20
111.26367697383165
 10
436.2255211635839
 20
111.44461534151968
 10
436.35942911891885
 20
111.6192158679139
 10
436.5017132138248
 20
111.78706084814114
 10
436.6520330893119
 20
111.94774900169153
 10
436.81002850819164
 20
112.10089637555703
 10
436.975321702116
 20
112.24613609793967
 10
437.14751763252457
 20
112.38312044811772
 10
437.3262044229603
 20
112.51152215639739
 10
437.51095450630925
 20
112.6310348832836
 10
437.7013257747962
 20
112.74137369583576
 10
437.8968627299809
 20
112.84227554402344
 10
438.0970976327536
 20
112.93349973708217
 10
438.30155165333116
 20
113.01482841986912
 10
438.5097360212527
 20
113.0860670492188
 10
438.72115317537555
 20
113.14704487029886
 10
438.9352979138712
 20
113.19761539296577
 10
439.1516585442211
 20
113.23765686812055
 10
439.36971803321256
 20
113.26707276406455
 10
439.5889551569345
 20
113.28579224285507
 10
439.725415449298
 20
113.29201110154165
 10
439.862001739
 20
113.29408461958391
 10
463.86141687599957
 20
113.2940846195843
 10
464.0857178952823
 20
113.28849076506945
 10
464.3094612668893
 20
113.27172310872862
 10
464.53209072954576
 20
113.24382333759739
 10
464.7530527913294
 20
113.20486081490276
 10
464.97179810573954
 20
113.15493240761516
 10
465.1877828374585
 20
113.09416224562196
 10
465.4004700144121
 20
113.0227014131209
 10
465.60933086276714
 20
112.94072757300117
 10
465.813846121546
 20
112.84844452514521
 10
466.01350733359146
 20
112.74608169975036
 10
466.20781810967134
 20
112.63389358692903
 10
466.39629536258025
 20
112.51215910400632
 10
466.5784705081706
 20
112.3811809020875
 10
466.75389063032657
 20
112.24128461361974
 10
466.9221196069849
 20
112.09281804281855
 10
467.0827391944031
 20
111.93615030097166
 10
467.2353500669792
 20
111.7716708887702
 10
467.3795728100383
 20
111.59978872794863
 10
467.5150488631173
 20
111.42093114464089
 10
467.64144141140207
 20
111.23554280698025
 10
467.75843622310305
 20
111.04408461958434
 10
467.8657424306844
 20
110.84703257767359
 10
467.9630932540066
 20
110.6448765836721
 10
468.0502466635841
 20
110.43811922923312
 10
468.12698598230867
 20
110.22727454571692
 10
468.19312042414265
 20
110.01286672622787
 10
468.2484855684434
 20
109.79542882238776
 10
468.2929437687388
 20
109.57550141908553
 10
468.3263844949378
 20
109.35363129049803
 10
468.3487246081263
 20
109.13037004072325
 10
468.35990856726283
 20
108.90627273240567
 10
468.35990856726283
 20
108.68189650676301
 10
468.3487246081263
 20
108.45779919844543
 10
468.3263844949378
 20
108.23453794867066
 10
468.2929437687388
 20
108.01266782008315
 10
468.2484855684434
 20
107.79274041678093
 10
468.1931204241427
 20
107.57530251294082
 10
468.12698598230867
 20
107.36089469345174
 10
468.0502466635842
 20
107.15005000993555
 10
467.96309325400665
 20
106.94329265549658
 10
467.8657424306844
 20
106.74113666149509
 10
467.7584362231031
 20
106.54408461958434
 10
467.6414414114021
 20
106.3526264321884
 10
467.51504886311733
 20
106.16723809452776
 10
467.3795728100384
 20
105.98838051122002
 10
467.2353500669792
 20
105.81649835039846
 10
467.08273919440313
 20
105.65201893819699
 10
466.92211960698495
 20
105.4953511963501
 10
466.7538906303266
 20
105.34688462554891
 10
466.57847050817065
 20
105.20698833708116
 10
466.3962953625803
 20
105.07601013516233
 10
466.2078181096714
 20
104.95427565223962
 10
466.0135073335915
 20
104.84208753941829
 10
465.8138461215461
 20
104.73972471402342
 10
465.60933086276725
 20
104.64744166616748
 10
465.4004700144122
 20
104.56546782604772
 10
465.18778283745854
 20
104.49400699354668
 10
464.9717981057396
 20
104.43323683155344
 10
464.7530527913295
 20
104.38330842426586
 10
464.5320907295458
 20
104.34434590157122
 10
464.30946126688934
 20
104.31644613044
 10
464.08571789528236
 20
104.29967847409915
  0
LWPOLYLINE
  5
3C
330
17
100
AcDbEntity
  8
GORUNEN
100
AcDbPolyline
 90
133
 70
1
 10
105.99879545620519
 20
11.049067674427434
 10
106.0
 20
11.000000000100009
 10
106.0
 20
7.000000000100009
 10
105.99879545620519
 20
6.950932325772591
 10
105.99518472667219
 20
6.901982859770449
 10
105.98917650996478
 20
6.853269525644649
 10
105.98078528040324
 20
6.804909678083881
 10
105.97003125319455
 20
6.757019820196746
 10
105.95694033573221
 20
6.709715322845547
 10
105.94154406518302
 20
6.663110146707787
 10
105.92387953251131
 20
6.6173165677349175
 10
105.90398929312346
 20
6.57244490666973
 10
105.88192126434836
 20
6.5286032632740145
 10
105.8577286100003
 20
6.485897255906792
 10
105.83146961230256
 20
6.444429767080408
 10
105.80320753148067
 20
6.404300695607574
 10
105.77301045336276
 20
6.365606715936366
 10
105.74095112535497
 20
6.328441045252994
 10
105.70710678118655
 20
6.292893218913463
 10
105.67155895484703
 20
6.259048874745055
 10
105.63439328416365
 20
6.226989546737272
 10
105.59569930449246
 20
6.196792468619364
 10
105.55557023301961
 20
6.1685303877974675
 10
105.51410274419322
 20
6.1422713900997365
 10
105.471396736826
 20
6.118078735751659
 10
105.4275550934303
 20
6.096010706976564
 10
105.3826834323651
 20
6.076120467588723
 10
105.33688985339222
 20
6.058455934916992
 10
105.29028467725448
 20
6.043059664367803
 10
105.24298017990327
 20
6.0299687469054675
 10
105.19509032201614
 20
6.019214719696777
 10
105.14673047445538
 20
6.01082349013523
 10
105.09801714032957
 20
6.004815273427809
 10
105.04906767432743
 20
6.001204543894836
 10
105.0
 20
6.000000000100009
 10
82.0
 20
6.000000000100009
 10
81.9509323256726
 20
6.001204543894843
 10
81.90198285967045
 20
6.004815273427816
 10
81.85326952554465
 20
6.0108234901352375
 10
81.80490967798389
 20
6.019214719696784
 10
81.75701982009674
 20
6.029968746905475
 10
81.70971532274555
 20
6.04305966436781
 10
81.66311014660778
 20
6.058455934916992
 10
81.61731656763492
 20
6.07612046758873
 10
81.57244490656973
 20
6.096010706976571
 10
81.528603263174
 20
6.118078735751659
 10
81.48589725580678
 20
6.142271390099744
 10
81.4444297669804
 20
6.1685303877974675
 10
81.40430069550757
 20
6.196792468619371
 10
81.36560671583636
 20
6.226989546737279
 10
81.32844104515299
 20
6.259048874745055
 10
81.29289321881346
 20
6.29289321891347
 10
81.25904887464505
 20
6.328441045253001
 10
81.22698954663727
 20
6.365606715936373
 10
81.19679246851936
 20
6.404300695607581
 10
81.16853038769746
 20
6.444429767080415
 10
81.14227138999973
 20
6.485897255906792
 10
81.11807873565165
 20
6.528603263274022
 10
81.09601070687657
 20
6.5724449066697375
 10
81.07612046748872
 20
6.617316567734925
 10
81.05845593481698
 20
6.663110146707794
 10
81.0430596642678
 20
6.709715322845554
 10
81.02996874680547
 20
6.757019820196753
 10
81.01921471959677
 20
6.804909678083888
 10
81.01082349003522
 20
6.853269525644656
 10
81.00481527332781
 20
6.901982859770456
 10
81.00120454379484
 20
6.950932325772598
 10
81.0
 20
7.000000000100016
 10
81.0
 20
11.000000000100016
 10
81.00120454379484
 20
11.049067674427434
 10
81.00481527332781
 20
11.098017140429576
 10
81.01082349003522
 20
11.146730474555376
 10
81.01921471959677
 20
11.195090322116144
 10
81.02996874680547
 20
11.24298018000328
 10
81.0430596642678
 20
11.290284677354478
 10
81.05845593481698
 20
11.336889853492238
 10
81.07612046748872
 20
11.382683432465107
 10
81.09601070687657
 20
11.427555093530302
 10
81.11807873565165
 20
11.47139673692601
 10
81.14227138999973
 20
11.51410274429324
 10
81.16853038769746
 20
11.555570233119617
 10
81.19679246851936
 20
11.59569930459245
 10
81.22698954663727
 20
11.634393284263659
 10
81.25904887464505
 20
11.67155895494703
 10
81.29289321881346
 20
11.707106781286562
 10
81.32844104515299
 20
11.740951125454977
 10
81.36560671583636
 20
11.773010453462753
 10
81.40430069550757
 20
11.80320753158066
 10
81.4444297669804
 20
11.831469612402557
 10
81.48589725580678
 20
11.857728610100288
 10
81.528603263174
 20
11.881921264448373
 10
81.57244490656973
 20
11.90398929322346
 10
81.61731656763492
 20
11.923879532611302
 10
81.66311014660778
 20
11.941544065283033
 10
81.70971532274555
 20
11.956940335832222
 10
81.75701982009674
 20
11.970031253294557
 10
81.80490967798389
 20
11.980785280503248
 10
81.85326952554465
 20
11.989176510064794
 10
81.90198285967044
 20
11.995184726772216
 10
81.95093232567258
 20
11.998795456305189
 10
82.0
 20
12.000000000100016
 10
105.0
 20
12.000000000100009
 10
105.04906767432743
 20
11.998795456305182
 10
105.09801714032957
 20
11.995184726772209
 10
105.14673047445538
 20
11.989176510064787
 10
105.19509032201614
 20
11.980785280503241
 10
105.24298017990327
 20
11.97003125329455
 10
105.29028467725448
 20
11.956940335832215
 10
105.33688985339222
 20
11.941544065283033
 10
105.3826834323651
 20
11.923879532611295
 10
105.4275550934303
 20
11.903989293223454
 10
105.471396736826
 20
11.881921264448366
 10
105.51410274419322
 20
11.857728610100281
 10
105.55557023301961
 20
11.831469612402557
 10
105.59569930449243
 20
11.803207531580654
 10
105.63439328416365
 20
11.773010453462746
 10
105.67155895484703
 20
11.74095112545497
 10
105.70710678118655
 20
11.707106781286555
 10
105.74095112535497
 20
11.67155895494703
 10
105.77301045336273
 20
11.634393284263659
 10
105.80320753148064
 20
11.595699304592443
 10
105.83146961230256
 20
11.555570233119617
 10
105.85772861000027
 20
11.514102744293233
 10
105.88192126434836
 20
11.47139673692601
 10
105.90398929312346
 20
11.427555093530295
 10
105.92387953251128
 20
11.3826834324651
 10
105.94154406518302
 20
11.33688985349223
 10
105.95694033573221
 20
11.290284677354478
 10
105.97003125319455
 20
11.24298018000328
 10
105.98078528040324
 20
11.195090322116144
 10
105.98917650996478
 20
11.146730474555376
 10
105.99518472667219
 20
11.098017140429576
 10
105.99879545620519
 20
11.049067674427434
  0
LWPOLYLINE
  5
3D
330
17
100
AcDbEntity
  8
GORUNEN
100
AcDbPolyline
 90
133
 70
1
 10
81.95093232567258
 20
123.69348460118773
 10
82.0
 20
123.69468914498256
 10
105.0
 20
123.69468914498256
 10
105.04906767432743
 20
123.69348460118773
 10
105.09801714032957
 20
123.68987387165475
 10
105.14673047445538
 20
123.68386565494734
 10
105.19509032201614
 20
123.6754744253858
 10
105.24298017990327
 20
123.66472039817711
 10
105.29028467725448
 20
123.65162948071477
 10
105.33688985339222
 20
123.63623321016559
 10
105.3826834323651
 20
123.61856867749384
 10
105.4275550934303
 20
123.598678438106
 10
105.471396736826
 20
123.57661040933093
 10
105.51410274419322
 20
123.55241775498283
 10
105.55557023301961
 20
123.52615875728512
 10
105.59569930449243
 20
123.4978966764632
 10
105.63439328416365
 20
123.46769959834529
 10
105.67155895484703
 20
123.43564027033753
 10
105.70710678118655
 20
123.40179592616911
 10
105.74095112535497
 20
123.36624809982959
 10
105.77301045336273
 20
123.32908242914621
 10
105.80320753148064
 20
123.29038844947499
 10
105.83146961230256
 20
123.25025937800217
 10
105.85772861000027
 20
123.20879188917579
 10
105.88192126434836
 20
123.16608588180856
 10
105.90398929312346
 20
123.12224423841285
 10
105.92387953251128
 20
123.07737257734766
 10
105.94154406518302
 20
123.03157899837478
 10
105.95694033573221
 20
122.98497382223704
 10
105.97003125319455
 20
122.93766932488583
 10
105.98078528040324
 20
122.8897794669987
 10
105.98917650996478
 20
122.84141961943793
 10
105.99518472667219
 20
122.79270628531214
 10
105.99879545620519
 20
122.74375681931
 10
106.0
 20
122.69468914498256
 10
106.0
 20
118.69468914498256
 10
105.99879545620519
 20
118.64562147065514
 10
105.99518472667219
 20
118.596672004653
 10
105.98917650996478
 20
118.54795867052721
 10
105.98078528040324
 20
118.49959882296643
 10
105.97003125319455
 20
118.45170896507929
 10
105.95694033573221
 20
118.4044044677281
 10
105.94154406518302
 20
118.35779929159034
 10
105.92387953251131
 20
118.31200571261746
 10
105.90398929312346
 20
118.26713405155229
 10
105.88192126434836
 20
118.22329240815657
 10
105.8577286100003
 20
118.18058640078934
 10
105.83146961230256
 20
118.13911891196295
 10
105.80320753148067
 20
118.09898984049013
 10
105.77301045336276
 20
118.06029586081891
 10
105.74095112535497
 20
118.02313019013555
 10
105.70710678118655
 20
117.98758236379601
 10
105.67155895484703
 20
117.95373801962761
 10
105.63439328416365
 20
117.92167869161983
 10
105.59569930449246
 20
117.89148161350192
 10
105.55557023301961
 20
117.86321953268002
 10
105.51410274419322
 20
117.8369605349823
 10
105.471396736826
 20
117.81276788063421
 10
105.4275550934303
 20
117.79069985185912
 10
105.3826834323651
 20
117.77080961247128
 10
105.33688985339222
 20
117.75314507979954
 10
105.29028467725448
 20
117.73774880925035
 10
105.24298017990327
 20
117.72465789178801
 10
105.19509032201614
 20
117.71390386457932
 10
105.14673047445538
 20
117.70551263501778
 10
105.09801714032957
 20
117.69950441831037
 10
105.04906767432743
 20
117.69589368877739
 10
105.0
 20
117.69468914498256
 10
82.0
 20
117.69468914498256
 10
81.9509323256726
 20
117.69589368877739
 10
81.90198285967045
 20
117.69950441831037
 10
81.85326952554465
 20
117.70551263501778
 10
81.80490967798389
 20
117.71390386457932
 10
81.75701982009674
 20
117.72465789178801
 10
81.70971532274555
 20
117.73774880925035
 10
81.66311014660778
 20
117.75314507979954
 10
81.61731656763492
 20
117.77080961247128
 10
81.57244490656973
 20
117.79069985185912
 10
81.528603263174
 20
117.8127678806342
 10
81.48589725580678
 20
117.8369605349823
 10
81.4444297669804
 20
117.86321953268
 10
81.40430069550757
 20
117.89148161350192
 10
81.36560671583636
 20
117.92167869161983
 10
81.32844104515299
 20
117.9537380196276
 10
81.29289321881346
 20
117.98758236379601
 10
81.25904887464505
 20
118.02313019013555
 10
81.22698954663727
 20
118.06029586081891
 10
81.19679246851936
 20
118.09898984049013
 10
81.16853038769746
 20
118.13911891196295
 10
81.14227138999973
 20
118.18058640078934
 10
81.11807873565165
 20
118.22329240815657
 10
81.09601070687657
 20
118.26713405155229
 10
81.07612046748872
 20
118.31200571261746
 10
81.05845593481698
 20
118.35779929159034
 10
81.0430596642678
 20
118.4044044677281
 10
81.02996874680547
 20
118.45170896507929
 10
81.01921471959677
 20
118.49959882296643
 10
81.01082349003522
 20
118.54795867052721
 10
81.00481527332781
 20
118.596672004653
 10
81.00120454379484
 20
118.64562147065514
 10
81.0
 20
118.69468914498256
 10
81.0
 20
122.69468914498256
 10
81.00120454379484
 20
122.74375681930998
 10
81.00481527332781
 20
122.79270628531212
 10
81.01082349003522
 20
122.84141961943791
 10
81.01921471959677
 20
122.88977946699869
 10
81.02996874680547
 20
122.93766932488583
 10
81.0430596642678
 20
122.98497382223702
 10
81.05845593481698
 20
123.03157899837478
 10
81.07612046748872
 20
123.07737257734766
 10
81.09601070687657
 20
123.12224423841285
 10
81.11807873565165
 20
123.16608588180856
 10
81.14227138999973
 20
123.20879188917579
 10
81.16853038769746
 20
123.25025937800217
 10
81.19679246851936
 20
123.29038844947499
 10
81.22698954663727
 20
123.32908242914621
 10
81.25904887464505
 20
123.36624809982958
 10
81.29289321881346
 20
123.40179592616911
 10
81.32844104515299
 20
123.43564027033753
 10
81.36560671583636
 20
123.46769959834529
 10
81.40430069550757
 20
123.4978966764632
 10
81.4444297669804
 20
123.5261587572851
 10
81.48589725580678
 20
123.55241775498283
 10
81.528603263174
 20
123.57661040933093
 10
81.57244490656973
 20
123.598678438106
 10
81.61731656763492
 20
123.61856867749384
 10
81.66311014660778
 20
123.63623321016559
 10
81.70971532274555
 20
123.65162948071477
 10
81.75701982009673
 20
123.66472039817711
 10
81.80490967798389
 20
123.6754744253858
 10
81.85326952554465
 20
123.68386565494734
 10
81.90198285967044
 20
123.68987387165475
 10
81.95093232567258
 20
123.69348460118773
  0
LWPOLYLINE
  5
3E
330
17
100
AcDbEntity
  8
GORUNEN
100
AcDbPolyline
 90
129
 70
1
 10
173.75632385492284
 20
113.93708385476364
 10
173.75
 20
114.19468914498258
 10
173.75632385492284
 20
114.45229443520152
 10
173.77528018497097
 20
114.70927913171278
 10
173.8068233226849
 20
114.96502413587322
 10
173.85087727788303
 20
115.21891333556725
 10
173.90733592072866
 20
115.4703350894747
 10
173.9760632374059
 20
115.7186837005685
 10
174.05689365778915
 20
115.96336087529173
 10
174.14963245431574
 20
116.2037771648993
 10
174.25405621110193
 20
116.43935338549156
 10
174.36991336217113
 20
116.66952201331907
 10
174.49692479749856
 20
116.89372855199699
 10
174.63478453541163
 20
117.11143286833548
 10
174.78316045972662
 20
117.32211049356785
 10
174.94169511984563
 20
117.52525388684171
 10
175.11000659188647
 20
117.72037365792943
 10
175.28768939877062
 20
117.90699974621194
 10
175.47431548705316
 20
118.08468255309612
 10
175.66943525814085
 20
118.25299402513694
 10
175.87257865141473
 20
118.41152868525596
 10
176.0832562766471
 20
118.55990460957094
 10
176.30096059298558
 20
118.697764347484
 10
176.5251671316635
 20
118.82477578281143
 10
176.755335759491
 20
118.94063293388065
 10
176.99091198008327
 20
119.04505669066683
 10
177.23132826969083
 20
119.13779548719343
 10
177.47600544441406
 20
119.21862590757667
 10
177.72435405550786
 20
119.28735322425393
 10
177.97577580941532
 20
119.34381186709953
 10
178.22966500910934
 20
119.38786582229767
 10
178.48541001326979
 20
119.41940896001161
 10
178.74239470978102
 20
119.43836529005972
 10
179.0
 20
119.44468914498258
 10
179.25760529021895
 20
119.43836529005972
 10
179.5145899867302
 20
119.41940896001161
 10
179.77033499089063
 20
119.38786582229767
 10
180.02422419058468
 20
119.34381186709953
 10
180.27564594449214
 20
119.28735322425393
 10
180.52399455558592
 20
119.21862590757667
 10
180.76867173030914
 20
119.13779548719344
 10
181.0090880199167
 20
119.04505669066683
 10
181.24466424050897
 20
118.94063293388066
 10
181.47483286833648
 20
118.82477578281144
 10
181.6990394070144
 20
118.69776434748401
 10
181.9167437233529
 20
118.55990460957094
 10
182.12742134858527
 20
118.41152868525597
 10
182.33056474185912
 20
118.25299402513696
 10
182.52568451294684
 20
118.08468255309612
 10
182.71231060122938
 20
117.90699974621197
 10
182.88999340811353
 20
117.72037365792943
 10
183.05830488015437
 20
117.52525388684172
 10
183.21683954027338
 20
117.32211049356786
 10
183.36521546458835
 20
117.1114328683355
 10
183.5030752025014
 20
116.89372855199701
 10
183.63008663782887
 20
116.66952201331908
 10
183.74594378889807
 20
116.43935338549159
 10
183.85036754568424
 20
116.20377716489932
 10
183.94310634221085
 20
115.96336087529176
 10
184.0239367625941
 20
115.71868370056853
 10
184.09266407927134
 20
115.47033508947473
 10
184.14912272211694
 20
115.21891333556727
 10
184.1931766773151
 20
114.96502413587325
 10
184.22471981502903
 20
114.7092791317128
 10
184.24367614507716
 20
114.45229443520155
 10
184.25
 20
114.19468914498258
 10
184.24367614507716
 20
113.93708385476364
 10
184.22471981502903
 20
113.68009915825237
 10
184.1931766773151
 20
113.42435415409193
 10
184.14912272211697
 20
113.17046495439791
 10
184.09266407927134
 20
112.91904320049045
 10
184.0239367625941
 20
112.67069458939665
 10
183.94310634221085
 20
112.42601741467342
 10
183.85036754568426
 20
112.18560112506586
 10
183.74594378889807
 20
111.9500249044736
 10
183.63008663782887
 20
111.7198562766461
 10
183.50307520250144
 20
111.49564973796817
 10
183.36521546458837
 20
111.27794542162968
 10
183.21683954027338
 20
111.06726779639732
 10
183.05830488015437
 20
110.86412440312344
 10
182.88999340811355
 20
110.66900463203574
 10
182.71231060122938
 20
110.48237854375321
 10
182.52568451294687
 20
110.30469573686905
 10
182.33056474185915
 20
110.13638426482822
 10
182.1274213485853
 20
109.9778496047092
 10
181.91674372335294
 20
109.82947368039422
 10
181.69903940701442
 20
109.69161394248115
 10
181.4748328683365
 20
109.56460250715372
 10
181.244664240509
 20
109.44874535608452
 10
181.00908801991673
 20
109.34432159929833
 10
180.76867173030917
 20
109.25158280277172
 10
180.52399455558594
 20
109.17075238238849
 10
180.27564594449217
 20
109.10202506571122
 10
180.0242241905847
 20
109.04556642286562
 10
179.7703349908907
 20
109.00151246766748
 10
179.51458998673021
 20
108.96996932995354
 10
179.25760529021898
 20
108.95101299990543
 10
179.0
 20
108.94468914498258
 10
178.74239470978105
 20
108.95101299990543
 10
178.4854100132698
 20
108.96996932995354
 10
178.22966500910934
 20
109.00151246766748
 10
177.97577580941532
 20
109.04556642286562
 10
177.72435405550786
 20
109.10202506571122
 10
177.47600544441408
 20
109.17075238238849
 10
177.23132826969083
 20
109.25158280277171
 10
176.99091198008327
 20
109.34432159929833
 10
176.75533575949103
 20
109.4487453560845
 10
176.52516713166352
 20
109.56460250715371
 10
176.30096059298558
 20
109.69161394248115
 10
176.0832562766471
 20
109.82947368039422
 10
175.87257865141473
 20
109.97784960470919
 10
175.66943525814085
 20
110.13638426482821
 10
175.47431548705316
 20
110.30469573686904
 10
175.28768939877062
 20
110.4823785437532
 10
175.11000659188647
 20
110.66900463203572
 10
174.94169511984563
 20
110.86412440312344
 10
174.78316045972662
 20
111.0672677963973
 10
174.63478453541163
 20
111.27794542162967
 10
174.49692479749856
 20
111.49564973796817
 10
174.36991336217113
 20
111.71985627664608
 10
174.25405621110193
 20
111.9500249044736
 10
174.14963245431574
 20
112.18560112506586
 10
174.05689365778915
 20
112.42601741467342
 10
173.9760632374059
 20
112.67069458939665
 10
173.90733592072866
 20
112.91904320049045
 10
173.85087727788303
 20
113.17046495439791
 10
173.8068233226849
 20
113.42435415409193
 10
173.77528018497097
 20
113.68009915825239
 10
173.75632385492284
 20
113.93708385476364
  0
LWPOLYLINE
  5
3F
330
17
100
AcDbEntity
  8
GORUNEN
100
AcDbPolyline
 90
129
 70
1
 10
178.74239470978102
 20
20.74367614517716
 10
179.0
 20
20.75000000010001
 10
179.25760529021895
 20
20.74367614517716
 10
179.5145899867302
 20
20.724719815129042
 10
179.77033499089066
 20
20.69317667741511
 10
180.02422419058468
 20
20.649122722216973
 10
180.27564594449214
 20
20.592664079371367
 10
180.52399455558592
 20
20.523936762694106
 10
180.76867173030914
 20
20.44310634231087
 10
181.0090880199167
 20
20.350367545784266
 10
181.24466424050897
 20
20.24594378899809
 10
181.47483286833648
 20
20.130086637928876
 10
181.6990394070144
 20
20.003075202601444
 10
181.9167437233529
 20
19.865215464688376
 10
182.12742134858527
 20
19.7168395403734
 10
182.33056474185912
 20
19.55830488025439
 10
182.52568451294684
 20
19.389993408213556
 10
182.71231060122938
 20
19.212310601329392
 10
182.88999340811353
 20
19.02568451304687
 10
183.05830488015437
 20
18.830564741959158
 10
183.21683954027338
 20
18.627421348685296
 10
183.36521546458835
 20
18.41674372345294
 10
183.5030752025014
 20
18.19903940711444
 10
183.63008663782887
 20
17.974832868436515
 10
183.74594378889807
 20
17.744664240609005
 10
183.85036754568424
 20
17.509088020016748
 10
183.94310634221085
 20
17.26867173040919
 10
184.0239367625941
 20
17.02399455568596
 10
184.09266407927134
 20
16.77564594459217
 10
184.14912272211694
 20
16.524224190684706
 10
184.1931766773151
 20
16.270334990990683
 10
184.22471981502903
 20
16.01458998683023
 10
184.24367614507716
 20
15.757605290318985
 10
184.25
 20
15.500000000100009
 10
184.24367614507716
 20
15.242394709881069
 10
184.22471981502903
 20
14.985410013369815
 10
184.1931766773151
 20
14.729665009209363
 10
184.14912272211697
 20
14.47577580951534
 10
184.09266407927134
 20
14.224354055607876
 10
184.0239367625941
 20
13.976005444514087
 10
183.94310634221085
 20
13.731328269790858
 10
183.85036754568426
 20
13.490911980183292
 10
183.74594378889807
 20
13.255335759591034
 10
183.63008663782887
 20
13.025167131763531
 10
183.50307520250144
 20
12.800960593085605
 10
183.36521546458837
 20
12.583256276747107
 10
183.21683954027338
 20
12.372578651514743
 10
183.05830488015437
 20
12.169435258240881
 10
182.88999340811355
 20
11.97431548715317
 10
182.71231060122938
 20
11.787689398870647
 10
182.52568451294687
 20
11.610006591986483
 10
182.33056474185915
 20
11.44169511994565
 10
182.1274213485853
 20
11.283160459826632
 10
181.91674372335294
 20
11.134784535511656
 10
181.69903940701442
 20
10.996924797598588
 10
181.4748328683365
 20
10.869913362271156
 10
181.244664240509
 20
10.754056211201942
 10
181.00908801991673
 20
10.649632454415759
 10
180.76867173030917
 20
10.556893657889155
 10
180.52399455558594
 20
10.476063237505919
 10
180.27564594449217
 20
10.407335920828658
 10
180.0242241905847
 20
10.350877277983052
 10
179.7703349908907
 20
10.306823322784915
 10
179.51458998673021
 20
10.275280185070976
 10
179.25760529021898
 20
10.256323855022856
 10
179.0
 20
10.250000000100009
 10
178.74239470978105
 20
10.256323855022856
 10
178.4854100132698
 20
10.275280185070976
 10
178.22966500910934
 20
10.306823322784908
 10
177.97577580941532
 20
10.350877277983052
 10
177.72435405550786
 20
10.40733592082865
 10
177.47600544441408
 20
10.476063237505912
 10
177.23132826969083
 20
10.556893657889148
 10
176.99091198008327
 20
10.649632454415752
 10
176.75533575949103
 20
10.754056211201934
 10
176.52516713166352
 20
10.869913362271141
 10
176.30096059298558
 20
10.99692479759858
 10
176.0832562766471
 20
11.134784535511649
 10
175.87257865141473
 20
11.283160459826625
 10
175.66943525814085
 20
11.441695119945642
 10
175.47431548705316
 20
11.610006591986476
 10
175.28768939877062
 20
11.787689398870633
 10
175.11000659188647
 20
11.974315487153163
 10
174.94169511984563
 20
12.169435258240874
 10
174.78316045972662
 20
12.372578651514736
 10
174.63478453541163
 20
12.5832562767471
 10
174.49692479749856
 20
12.800960593085598
 10
174.36991336217113
 20
13.025167131763524
 10
174.25405621110193
 20
13.255335759591034
 10
174.14963245431574
 20
13.490911980183292
 10
174.05689365778915
 20
13.731328269790858
 10
173.9760632374059
 20
13.976005444514087
 10
173.90733592072866
 20
14.224354055607876
 10
173.85087727788303
 20
14.47577580951534
 10
173.8068233226849
 20
14.729665009209363
 10
173.77528018497097
 20
14.985410013369822
 10
173.75632385492284
 20
15.242394709881069
 10
173.75
 20
15.500000000100009
 10
173.75632385492284
 20
15.757605290318956
 10
173.77528018497097
 20
16.014589986830202
 10
173.8068233226849
 20
16.270334990990662
 10
173.85087727788303
 20
16.524224190684684
 10
173.90733592072866
 20
16.775645944592142
 10
173.9760632374059
 20
17.023994555685938
 10
174.05689365778915
 20
17.268671730409167
 10
174.14963245431574
 20
17.509088020016733
 10
174.25405621110193
 20
17.74466424060899
 10
174.36991336217113
 20
17.9748328684365
 10
174.49692479749856
 20
18.19903940711442
 10
174.63478453541163
 20
18.416743723452917
 10
174.78316045972662
 20
18.62742134868528
 10
174.94169511984563
 20
18.830564741959144
 10
175.11000659188647
 20
19.025684513046855
 10
175.28768939877062
 20
19.212310601329378
 10
175.47431548705316
 20
19.38999340821354
 10
175.66943525814085
 20
19.558304880254376
 10
175.87257865141473
 20
19.716839540373392
 10
176.0832562766471
 20
19.86521546468837
 10
176.30096059298558
 20
20.00307520260143
 10
176.5251671316635
 20
20.13008663792887
 10
176.755335759491
 20
20.245943788998083
 10
176.99091198008327
 20
20.35036754578426
 10
177.23132826969083
 20
20.443106342310863
 10
177.47600544441406
 20
20.5239367626941
 10
177.72435405550786
 20
20.59266407937136
 10
177.97577580941532
 20
20.649122722216966
 10
178.22966500910934
 20
20.693176677415103
 10
178.48541001326979
 20
20.724719815129042
 10
178.74239470978102
 20
20.74367614517716
  0
LWPOLYLINE
  5
40
330
17
100
AcDbEntity
  8
GORUNEN
100
AcDbPolyline
 90
133
 70
1
 10
473.90765773424
 20
27.064985961585634
 10
473.90583694
 20
27.179585561598103
 10
473.90950770116734
 20
27.29880552341946
 10
473.91885204906504
 20
27.417721538384406
 10
473.9338548330571
 20
27.536057937379837
 10
473.95448603059896
 20
27.65354181254166
 10
473.98070117316644
 20
27.769903437288157
 10
474.01244177218484
 20
27.8848766863534
 10
474.0496357449582
 20
27.99819945582056
 10
474.09219784059815
 20
28.10961408315533
 10
474.1400300659531
 20
28.218867767239274
 10
474.1930221115373
 20
28.325712988403218
 10
474.25105177745974
 20
28.429907928460608
 10
474.31398539935367
 20
28.531216890740907
 10
474.38167827430505
 20
28.629410720122934
 10
474.4539750867822
 20
28.724267223068274
 10
474.53071033456445
 20
28.815571587654638
 10
474.61170875467155
 20
28.90311680360923
 10
474.69678574929236
 20
28.98670408234213
 10
474.78574781171443
 20
29.06614327697966
 10
474.87839295225245
 20
29.141253302397757
 10
474.974511124178
 20
29.211862555255387
 10
475.0738846496479
 20
29.277809334027857
 10
475.176288645634
 20
29.338942259040216
 10
475.2814914498517
 20
29.395120692500647
 10
475.38925504668936
 20
29.446215158533803
 10
475.4993354931372
 20
29.492107763214243
 10
475.6114833447163
 20
29.532692614599725
 10
475.72544408140806
 20
29.56787624276464
 10
475.8409585335827
 20
29.597578019833364
 10
475.9577633079289
 20
29.621730580013647
 10
476.0755912133824
 20
29.640280239629966
 10
476.1941716870554
 20
29.653187417156914
 10
476.3085710127884
 20
29.66025064903505
 10
476.42316782
 20
29.662071487598062
 10
476.5423848765674
 20
29.658400636925563
 10
476.6612979936876
 20
29.649056061273626
 10
476.77963150896363
 20
29.634052911644673
 10
476.89711252118036
 20
29.613421211312513
 10
477.0134713103278
 20
29.587205429882808
 10
477.1284417576241
 20
29.55546405735366
 10
477.2417617655389
 20
29.51826917817612
 10
477.35317367781613
 20
29.47570604531468
 10
477.46242469949743
 20
29.427872654307862
 10
477.5692673169451
 20
29.374879317328684
 10
477.6734597178654
 20
29.316848237245217
 10
477.7747662113315
 20
29.25391308168114
 10
477.8729576478067
 20
29.186218557076195
 10
477.96781183916755
 20
29.113919982746786
 10
478.0591139787269
 20
29.037182864946438
 10
478.1466570612572
 20
28.9561824709264
 10
478.2302423030135
 20
28.87110340299612
 10
478.3096795617566
 20
28.782139172583754
 10
478.3847877567761
 20
28.689491774296762
 10
478.4553952889138
 20
28.593371259982376
 10
478.5213404605865
 20
28.49399531278813
 10
478.58247189580925
 20
28.39158882122245
 10
478.6386489602186
 20
28.28638345321508
 10
478.68974218109554
 20
28.178617230177693
 10
478.7356336673888
 20
28.06853410106438
 10
478.77621752973783
 20
27.956383516432176
 10
478.81140030049596
 20
27.842420002501605
 10
478.84110135375374
 20
27.726902735217188
 10
478.8652533253616
 20
27.61009511430798
 10
478.88380253295355
 20
27.492264337348097
 10
478.8967093959699
 20
27.373680973817237
 10
478.90377245575996
 20
27.259278860110484
 10
478.90559325
 20
27.14467926009803
 10
478.90192248883267
 20
27.025459298276672
 10
478.8925781409349
 20
26.906543283311727
 10
478.8775753569428
 20
26.788206884316295
 10
478.856944159401
 20
26.67072300915447
 10
478.8307290168336
 20
26.55436138440797
 10
478.79898841781517
 20
26.439388135342725
 10
478.7617944450418
 20
26.326065365875557
 10
478.71923234940186
 20
26.21465073854079
 10
478.6714001240469
 20
26.105397054456844
 10
478.6184080784627
 20
26.00000000020517
 10
478.5603784125402
 20
25.89435689323551
 10
478.49744479064634
 20
25.79304793095521
 10
478.42975191569496
 20
25.694854101573192
 10
478.35745510321783
 20
25.599997598627844
 10
478.28071985543556
 20
25.50869323404148
 10
478.19972143532846
 20
25.42114801808689
 10
478.1146444407076
 20
25.33756073935399
 10
478.0256823782856
 20
25.258121544716467
 10
477.9330372377475
 20
25.18301151929836
 10
477.83691906582203
 20
25.112402266440732
 10
477.7375455403521
 20
25.04645548766826
 10
477.635141544366
 20
24.985322562655902
 10
477.5299387401483
 20
24.92914412919548
 10
477.4221751433106
 20
24.878049663162315
 10
477.3120946968628
 20
24.832157058481876
 10
477.19994684528365
 20
24.791572207096394
 10
477.08598610859195
 20
24.756388578931485
 10
476.97047165641726
 20
24.726686801862755
 10
476.8536668820711
 20
24.70253424168247
 10
476.7358389766176
 20
24.683984582066152
 10
476.61725850294454
 20
24.67107740453922
 10
476.50285917721163
 20
24.664014172661076
 10
476.38826237
 20
24.662193334098063
 10
476.2690453134326
 20
24.665864184770562
 10
476.1501321963124
 20
24.675208760422507
 10
476.0317986810364
 20
24.690211910051453
 10
475.91431766881965
 20
24.710843610383613
 10
475.7979588796722
 20
24.737059391813318
 10
475.6829884323759
 20
24.768800764342465
 10
475.5696684244611
 20
24.805995643520006
 10
475.4582565121839
 20
24.848558776381445
 10
475.34900549050263
 20
24.896392167388264
 10
475.2421628730549
 20
24.94938550436745
 10
475.1379704721346
 20
25.007416584450908
 10
475.0366639786685
 20
25.070351740014985
 10
474.9384725421933
 20
25.138046264619923
 10
474.84361835083246
 20
25.210344838949347
 10
474.7523162112731
 20
25.287081956749688
 10
474.6647731287428
 20
25.36808235076972
 10
474.5811878869865
 20
25.453161418700006
 10
474.5017506282434
 20
25.542125649112364
 10
474.4266424332239
 20
25.634773047399356
 10
474.3560349010862
 20
25.73089356171375
 10
474.2900897294135
 20
25.830269508907982
 10
474.22895829419076
 20
25.932676000473663
 10
474.17278122978144
 20
26.03788136848103
 10
474.12168800890447
 20
26.14564759151841
 10
474.0757965226112
 20
26.255730720631725
 10
474.0352126602622
 20
26.36788130526393
 10
474.000029889504
 20
26.4818448191945
 10
473.97032883624627
 20
26.59736208647891
 10
473.94617686463835
 20
26.714169707388123
 10
473.9276276570464
 20
26.832000484348008
 10
473.91472079403013
 20
26.95058384787886
 10
473.90765773424
 20
27.064985961585634
  0
LWPOLYLINE
  5
41
330
17
100
AcDbEntity
  8
GORUNEN
100
AcDbPolyline
 90
130
 70
1
 10
478.9017256726481
 20
102.67265505834546
 10
478.905593250012
 20
102.55000988498462
 10
478.903438401937
 20
102.42732266543138
 10
478.8952663196398
 20
102.30488896396744
 10
478.8810966903824
 20
102.18300373410366
 10
478.86096365004266
 20
102.06196060803472
 10
478.83491570087835
 20
101.94205118925348
 10
478.80301559468046
 20
101.82356435005266
 10
478.7653401815991
 20
101.7067855356062
 10
478.7219802250042
 20
101.59199607630674
 10
478.67304018282914
 20
101.47947251001617
 10
478.6186379559223
 20
101.36948591586165
 10
478.55890460401326
 20
101.2623012611822
 10
478.49398402997895
 20
101.1581767631993
 10
478.42403263316845
 20
101.05736326694885
 10
478.3492189326239
 20
100.96010364097359
 10
478.2697231611028
 20
100.86663219223146
 10
478.1857368308817
 20
100.77717410162968
 10
478.09746227238657
 20
100.69194488154413
 10
478.0051121467608
 20
100.61114985663124
 10
477.9089089335459
 20
100.5349836691829
 10
477.8090843947091
 20
100.46362981021605
 10
477.7058790163079
 20
100.39726017742683
 10
477.59954142913887
 20
100.33603466107395
 10
477.4903278097634
 20
100.27954211820517
 10
477.3785012633568
 20
100.22959322024208
 10
477.26433118986415
 20
100.18463372251725
 10
477.1480926349926
 20
100.14533057698262
 10
477.03006562760237
 20
100.11177846835837
 10
476.91053450509213
 20
100.084058226613
 10
476.78978722840577
 20
100.06223663223687
 10
476.6681146883092
 20
100.04636625536222
 10
476.5458100046086
 20
100.036485329117
 10
476.4231678199999
 20
100.03261765751805
 10
476.3004835902748
 20
100.03477255812385
 10
476.17805287246165
 20
100.04294483958861
 10
476.05617061288336
 20
100.05711481417049
 10
475.9351304365788
 20
100.07724834515956
 10
475.81522393993436
 20
100.1032969291162
 10
475.6967399882031
 20
100.1351978127201
 10
475.5799640196026
 20
100.17287414394848
 10
475.46517735766946
 20
100.21623515721937
 10
475.3526565335264
 20
100.26517639205386
 10
475.2426726196943
 20
100.31957994473052
 10
475.13549057705507
 20
100.37931475232577
 10
475.03136861653735
 20
100.44423690845603
 10
474.93055757706395
 20
100.51419000996069
 10
474.83330032125895
 20
100.58900553369111
 10
474.7398311503702
 20
100.6685032424976
 10
474.6503752398173
 20
100.75249161943651
 10
474.5651480967241
 20
100.84076832915133
 10
474.4843550407433
 20
100.93312070531627
 10
474.40819070942337
 20
101.02932626296811
 10
474.3368385893096
 20
101.12915323449192
 10
474.27047057390894
 20
101.23236112796954
 10
474.2092465495837
 20
101.33870130654567
 10
474.153314010371
 20
101.44791758741593
 10
474.1028077026569
 20
101.5597468589935
 10
474.05784930056046
 20
101.67391971476818
 10
474.01854711281015
 20
101.79016110233007
 10
473.9849958218188
 20
101.90819098599509
 10
473.9572762555851
 20
102.02772502143534
 10
473.935455192972
 20
102.1484752406896
 10
473.9195852028306
 20
102.27015074590327
 10
473.9097045173573
 20
102.39245841012684
 10
473.9058369399888
 20
102.51510358348438
 10
473.9078428134188
 20
102.63436317730174
 10
473.9155259641585
 20
102.75339807146268
 10
473.9288750919118
 20
102.871932412184
 10
473.94786398736005
 20
102.98969289901295
 10
473.97245195219654
 20
103.10640921076684
 10
474.0025842191494
 20
103.22181443147244
 10
474.0381923720047
 20
103.3356454763055
 10
474.0791947656296
 20
103.44764351753025
 10
474.12549694599574
 20
103.55755441043874
 10
474.176992070202
 20
103.6651291192905
 10
474.2335613264978
 20
103.77012414325188
 10
474.29507435430634
 20
103.87230194233555
 10
474.36138966424744
 20
103.97143136334006
 10
474.43235505816097
 20
104.06728806578913
 10
474.5078080491297
 20
104.15965494787133
 10
474.58757628150283
 20
104.2483225723794
 10
474.67147795091853
 20
104.3330895926498
 10
474.75932222432766
 20
104.41376317850217
 10
474.8509096600165
 20
104.49015944217876
 10
474.94603262763013
 20
104.56210386428401
 10
475.04447572819527
 20
104.62943171972391
 10
475.1460162141438
 20
104.69198850364549
 10
475.2504244093355
 20
104.74963035737638
 10
475.3574641290814
 20
104.80222449436415
 10
475.4668931001669
 20
104.84964962611596
 10
475.57846338087484
 20
104.8917963881378
 10
475.69192178100866
 20
104.9285677658742
 10
475.80701028191544
 20
104.95987952064755
 10
475.9234664565092
 20
104.98566061559764
 10
476.0410238892938
 20
105.00585364162106
 10
476.1594125963864
 20
105.0204152433108
 10
476.27370215534347
 20
105.02907508963193
 10
476.38826237
 20
105.0324958109845
 10
476.5109465997277
 20
105.03034091044503
 10
476.63337731754393
 20
105.02216862897987
 10
476.7552595771253
 20
105.00799865439728
 10
476.87629975343293
 20
104.9878651234072
 10
476.99620625008026
 20
104.96181653944925
 10
477.1146902018143
 20
104.92991565584373
 10
477.23146617041755
 20
104.89223932461347
 10
477.34625283235323
 20
104.84887831134041
 10
477.4587736564987
 20
104.7999370765035
 10
477.56875757033293
 20
104.74553352382416
 10
477.67593961297416
 20
104.68579871622599
 10
477.78006157349364
 20
104.62087656009258
 10
477.8808726129685
 20
104.55092345858458
 10
477.9781298687748
 20
104.4761079348506
 10
478.0715990396645
 20
104.3966102260404
 10
478.16105495021804
 20
104.31262184909764
 10
478.2462820933116
 20
104.2243451393788
 10
478.32707514929245
 20
104.13199276320972
 10
478.40323948061217
 20
104.03578720555365
 10
478.4745916007254
 20
103.93596023402557
 10
478.54095961612506
 20
103.8327523405436
 10
478.602183640449
 20
103.72641216196311
 10
478.6581161796601
 20
103.61719588108849
 10
478.7086224873722
 20
103.50536660950657
 10
478.7535808894663
 20
103.3911937537276
 10
478.79288307721396
 20
103.27495236616147
 10
478.82643436820223
 20
103.15692248249232
 10
478.8541539344326
 20
103.03738844704804
 10
478.87597499704196
 20
102.91663822778992
 10
478.89184498717924
 20
102.79496272257254
 10
478.9017256726481
 20
102.67265505834546
  0
LINE
  5
42
330
17
100
AcDbEntity
  8
EKSEN
100
AcDbLine
 10
0.0
 20
26.0
 30
0.0
 11
483.02
 21
26.0
 31
0.0
  0
LINE
  5
43
330
17
100
AcDbEntity
  8
EKSEN
100
AcDbLine
 10
0.0
 20
32.6
 30
0.0
 11
483.02
 21
32.6
 31
0.0
  0
TEXT
  5
44
330
17
100
AcDbEntity
  8
YAZI
100
AcDbText
 10
485.61379999999997
 20
27.549185
 30
0.0
 40
3.8907
  1
B1
 11
485.61379999999997
 21
27.549185
 31
0.0
100
AcDbText
  0
LINE
  5
45
330
17
100
AcDbEntity
  8
EKSEN
100
AcDbLine
 10
0.0
 20
29.42
 30
0.0
 11
483.02
 21
29.42
 31
0.0
  0
LINE
  5
46
330
17
100
AcDbEntity
  8
EKSEN
100
AcDbLine
 10
0.0
 20
31.94
 30
0.0
 11
483.02
 21
31.94
 31
0.0
  0
TEXT
  5
48
330
17
100
AcDbEntity
  8
YAZI
100
AcDbText
 10
494.6160927997321
 20
28.929185
 30
0.0
 40
3.8907
  1
B2
 11
494.6160927997321
 21
28.929185
 31
0.0
100
AcDbText
  0
LINE
  5
49
330
17
100
AcDbEntity
  8
EKSEN
100
AcDbLine
 10
0.0
 20
35.93
 30
0.0
 11
483.02
 21
35.93
 31
0.0
  0
LINE
  5
4A
330
17
100
AcDbEntity
  8
EKSEN
100
AcDbLine
 10
0.0
 20
40.68
 30
0.0
 11
483.02
 21
40.68
 31
0.0
  0
TEXT
  5
4B
330
17
100
AcDbEntity
  8
YAZI
100
AcDbText
 10
485.61379999999997
 20
36.554185
 30
0.0
 40
3.8907
  1
B3
 11
485.61379999999997
 21
36.554185
 31
0.0
100
AcDbText
  0
LINE
  5
4C
330
17
100
AcDbEntity
  8
EKSEN
100
AcDbLine
 10
0.0
 20
36.4
 30
0.0
 11
483.02
 21
36.4
 31
0.0
  0
LINE
  5
4D
330
17
100
AcDbEntity
  8
EKSEN
100
AcDbLine
 10
0.0
 20
43.0
 30
0.0
 11
483.02
 21
43.0
 31
0.0
  0
TEXT
  5
4F
330
17
100
AcDbEntity
  8
YAZI
100
AcDbText
 10
494.6160927997321
 20
37.949185
 30
0.0
 40
3.8907
  1
B4
 11
494.6160927997321
 21
37.949185
 31
0.0
100
AcDbText
  0
LINE
  5
50
330
17
100
AcDbEntity
  8
EKSEN
100
AcDbLine
 10
0.0
 20
86.7
 30
0.0
 11
483.02
 21
86.7
 31
0.0
  0
LINE
  5
51
330
17
100
AcDbEntity
  8
EKSEN
100
AcDbLine
 10
0.0
 20
93.29
 30
0.0
 11
483.02
 21
93.29
 31
0.0
  0
TEXT
  5
52
330
17
100
AcDbEntity
  8
YAZI
100
AcDbText
 10
485.61379999999997
 20
88.244185
 30
0.0
 40
3.8907
  1
B5
 11
485.61379999999997
 21
88.244185
 31
0.0
100
AcDbText
  0
LINE
  5
53
330
17
100
AcDbEntity
  8
EKSEN
100
AcDbLine
 10
0.0
 20
89.02
 30
0.0
 11
483.02
 21
89.02
 31
0.0
  0
LINE
  5
54
330
17
100
AcDbEntity
  8
EKSEN
100
AcDbLine
 10
0.0
 20
93.76
 30
0.0
 11
483.02
 21
93.76
 31
0.0
  0
TEXT
  5
56
330
17
100
AcDbEntity
  8
YAZI
100
AcDbText
 10
494.6160927997321
 20
89.639185
 30
0.0
 40
3.8907
  1
B6
 11
494.6160927997321
 21
89.639185
 31
0.0
100
AcDbText
  0
LINE
  5
57
330
17
100
AcDbEntity
  8
EKSEN
100
AcDbLine
 10
0.0
 20
97.1
 30
0.0
 11
483.02
 21
97.1
 31
0.0
  0
LINE
  5
58
330
17
100
AcDbEntity
  8
EKSEN
100
AcDbLine
 10
0.0
 20
103.69
 30
0.0
 11
483.02
 21
103.69
 31
0.0
  0
TEXT
  5
59
330
17
100
AcDbEntity
  8
YAZI
100
AcDbText
 10
485.61379999999997
 20
98.644185
 30
0.0
 40
3.8907
  1
B7
 11
485.61379999999997
 21
98.644185
 31
0.0
100
AcDbText
  0
LINE
  5
5A
330
17
100
AcDbEntity
  8
EKSEN
100
AcDbLine
 10
0.0
 20
97.76
 30
0.0
 11
483.02
 21
97.76
 31
0.0
  0
LINE
  5
5B
330
17
100
AcDbEntity
  8
EKSEN
100
AcDbLine
 10
0.0
 20
100.28
 30
0.0
 11
483.02
 21
100.28
 31
0.0
  0
TEXT
  5
5D
330
17
100
AcDbEntity
  8
YAZI
100
AcDbText
 10
494.6160927997321
 20
97.26918500000001
 30
0.0
 40
3.8907
  1
B8
 11
494.6160927997321
 21
97.26918500000001
 31
0.0
100
AcDbText
  0
DIMENSION
  5
5E
330
17
100
AcDbEntity
  8
OLCU
100
AcDbDimension
280
0
  2
*D1
  3
PF_MM
 10
0.0
 20
-17.291999999999998
 30
0.0
 11
241.51
 21
-13.617449999999998
 31
0.0
 70
32
 71
5
  1
<>
100
AcDbAlignedDimension
 13
0.0
 23
0.0
 33
0.0
 14
483.02
 24
0.0
 34
0.0
 50
0.0
100
AcDbRotatedDimension
  0
DIMENSION
  5
71
330
17
100
AcDbEntity
  8
OLCU
100
AcDbDimension
280
0
  2
*D2
  3
PF_MM
 10
-17.291999999999998
 20
0.0
 30
0.0
 11
-20.966549999999998
 21
64.845
 31
0.0
 70
32
 71
5
  1
<>
100
AcDbAlignedDimension
 13
0.0
 23
0.0
 33
0.0
 14
0.0
 24
129.69
 34
0.0
 50
90.0
100
AcDbRotatedDimension
  0
TEXT
  5
80
330
17
100
AcDbEntity
  8
YAZI
100
AcDbText
 10
510.3190355994642
 20
129.69
 30
0.0
 40
4.3229999999999995
  1
BUKUM  ACI      IC R   PAY      ALT KENARDAN
 11
510.3190355994642
 21
129.69
 31
0.0
100
AcDbText
  0
TEXT
  5
81
330
17
100
AcDbEntity
  8
YAZI
100
AcDbText
 10
510.3190355994642
 20
121.044
 30
0.0
 40
4.3229999999999995
  1
B1       90.0    3.00   6.60     26.00 - 32.60
 11
510.3190355994642
 21
121.044
 31
0.0
100
AcDbText
  0
TEXT
  5
82
330
17
100
AcDbEntity
  8
YAZI
100
AcDbText
 10
510.3190355994642
 20
113.26259999999999
 30
0.0
 40
4.3229999999999995
  1
B2       85.0    0.50   2.52     29.42 - 31.94
 11
510.3190355994642
 21
113.26259999999999
 31
0.0
100
AcDbText
  0
TEXT
  5
83
330
17
100
AcDbEntity
  8
YAZI
100
AcDbText
 10
510.3190355994642
 20
105.48119999999999
 30
0.0
 40
4.3229999999999995
  1
B3       85.0    2.00   4.75     35.93 - 40.68
 11
510.3190355994642
 21
105.48119999999999
 31
0.0
100
AcDbText
  0
TEXT
  5
84
330
17
100
AcDbEntity
  8
YAZI
100
AcDbText
 10
510.3190355994642
 20
97.69979999999998
 30
0.0
 40
4.3229999999999995
  1
B4       90.0    3.00   6.60     36.40 - 43.00
 11
510.3190355994642
 21
97.69979999999998
 31
0.0
100
AcDbText
  0
TEXT
  5
85
330
17
100
AcDbEntity
  8
YAZI
100
AcDbText
 10
510.3190355994642
 20
89.91839999999998
 30
0.0
 40
4.3229999999999995
  1
B5       90.0    3.00   6.60     86.70 - 93.29
 11
510.3190355994642
 21
89.91839999999998
 31
0.0
100
AcDbText
  0
TEXT
  5
86
330
17
100
AcDbEntity
  8
YAZI
100
AcDbText
 10
510.3190355994642
 20
82.13699999999997
 30
0.0
 40
4.3229999999999995
  1
B6       85.0    2.00   4.75     89.02 - 93.76
 11
510.3190355994642
 21
82.13699999999997
 31
0.0
100
AcDbText
  0
TEXT
  5
87
330
17
100
AcDbEntity
  8
YAZI
100
AcDbText
 10
510.3190355994642
 20
74.35559999999997
 30
0.0
 40
4.3229999999999995
  1
B7       90.0    3.00   6.60     97.10 - 103.69
 11
510.3190355994642
 21
74.35559999999997
 31
0.0
100
AcDbText
  0
TEXT
  5
88
330
17
100
AcDbEntity
  8
YAZI
100
AcDbText
 10
510.3190355994642
 20
66.57419999999996
 30
0.0
 40
4.3229999999999995
  1
B8       85.0    0.50   2.52     97.76 - 100.28
 11
510.3190355994642
 21
66.57419999999996
 31
0.0
100
AcDbText
  0
TEXT
  5
89
330
17
100
AcDbEntity
  8
YAZI
100
AcDbText
 10
0.0
 20
261.1092
 30
0.0
 40
6.484499999999999
  1
POZ 5   01.050.000.01   01.050.000.01 U-Blech-Mechanismus   AÇINIM
 11
0.0
 21
261.1092
 31
0.0
100
AcDbText
  0
TEXT
  5
8A
330
17
100
AcDbEntity
  8
YAZI
100
AcDbText
 10
0.0
 20
251.59859999999998
 30
0.0
 40
4.7553
  1
adet: 1
 11
0.0
 21
251.59859999999998
 31
0.0
100
AcDbText
  0
TEXT
  5
8B
330
17
100
AcDbEntity
  8
YAZI
100
AcDbText
 10
0.0
 20
242.08799999999997
 30
0.0
 40
4.7553
  1
ACINIM : 129.69 x 483.02 mm   sac kalinlik 3.0 mm
 11
0.0
 21
242.08799999999997
 31
0.0
100
AcDbText
  0
TEXT
  5
8C
330
17
100
AcDbEntity
  8
YAZI
100
AcDbText
 10
0.0
 20
232.57739999999995
 30
0.0
 40
4.7553
  1
8 bukum   K-faktoru 0.4   8 delik
 11
0.0
 21
232.57739999999995
 31
0.0
100
AcDbText
  0
TEXT
  5
8D
330
17
100
AcDbEntity
  8
YAZI
100
AcDbText
 10
0.0
 20
223.06679999999994
 30
0.0
 40
4.7553
  1
olcek 1:1   birim: mm
 11
0.0
 21
223.06679999999994
 31
0.0
100
AcDbText
  0
TEXT
  5
8E
330
17
100
AcDbEntity
  8
YAZI
100
AcDbText
 10
0.0
 20
213.55619999999993
 30
0.0
 40
5.187599999999999
  1
BUKUM YONTEMI: ROLLFORM  (olası)
 11
0.0
 21
213.55619999999993
 31
0.0
100
AcDbText
  0
TEXT
  5
8F
330
17
100
AcDbEntity
  8
YAZI
100
AcDbText
 10
0.0
 20
204.04559999999992
 30
0.0
 40
4.3229999999999995
  1
Abkantta yapılamaz: en kısa kanat 2.5 mm = kalınlığın 0.8 katı; abkant için en az 4 kat gerekir, daha kısa
 11
0.0
 21
204.04559999999992
 31
0.0
100
AcDbText
  0
TEXT
  5
90
330
17
100
AcDbEntity
  8
YAZI
100
AcDbText
 10
0.0
 20
194.5349999999999
 30
0.0
 40
4.3229999999999995
  1
kanat V kalıbın ağzını tutmaz, parça kalıbın içine düşer. Rollform ya da başka bir yöntemle üretilmiş
 11
0.0
 21
194.5349999999999
 31
0.0
100
AcDbText
  0
TEXT
  5
91
330
17
100
AcDbEntity
  8
YAZI
100
AcDbText
 10
0.0
 20
185.0243999999999
 30
0.0
 40
4.3229999999999995
  1
olmalı.
 11
0.0
 21
185.0243999999999
 31
0.0
100
AcDbText
  0
TEXT
  5
92
330
17
100
AcDbEntity
  8
YAZI
100
AcDbText
 10
0.0
 20
175.5137999999999
 30
0.0
 40
4.3229999999999995
  1
DIKKAT: En küçük iç yarıçap 0.50 mm = kalınlığın 0.17 katı (0.6 katın altında). Bükülebilir ama çatlama
 11
0.0
 21
175.5137999999999
 31
0.0
100
AcDbText
  0
TEXT
  5
93
330
17
100
AcDbEntity
  8
YAZI
100
AcDbText
 10
0.0
 20
166.00319999999988
 30
0.0
 40
4.3229999999999995
  1
riski var: malzeme kalitesine, hadde yönüne ve kalıbın keskinliğine bakın.
 11
0.0
 21
166.00319999999988
 31
0.0
100
AcDbText
  0
TEXT
  5
94
330
17
100
AcDbEntity
  8
YAZI
100
AcDbText
 10
0.0
 20
156.49259999999987
 30
0.0
 40
4.7553
  1
KESIM KONTURUDUR: dis kontur ve delikler gercek yerlerinde.
 11
0.0
 21
156.49259999999987
 31
0.0
100
AcDbText
  0
ENDSEC
  0
SECTION
  2
OBJECTS
  0
DICTIONARY
  5
A
330
0
100
AcDbDictionary
281
1
  3
ACAD_COLOR
350
B
  3
ACAD_GROUP
350
C
  3
ACAD_LAYOUT
350
D
  3
ACAD_MATERIAL
350
E
  3
ACAD_MLEADERSTYLE
350
F
  3
ACAD_MLINESTYLE
350
10
  3
ACAD_PLOTSETTINGS
350
11
  3
ACAD_PLOTSTYLENAME
350
12
  3
ACAD_SCALELIST
350
14
  3
ACAD_TABLESTYLE
350
15
  3
ACAD_VISUALSTYLE
350
16
  3
EZDXF_META
350
2D
  0
DICTIONARY
  5
B
330
A
100
AcDbDictionary
281
1
  0
DICTIONARY
  5
C
330
A
100
AcDbDictionary
281
1
  0
DICTIONARY
  5
D
330
A
100
AcDbDictionary
281
1
  3
Model
350
1A
  3
Layout1
350
1E
  0
DICTIONARY
  5
E
330
A
100
AcDbDictionary
281
1
  3
ByBlock
350
1F
  3
ByLayer
350
20
  3
Global
350
21
  0
DICTIONARY
  5
F
330
A
100
AcDbDictionary
281
1
  3
Standard
350
2C
  0
DICTIONARY
  5
10
330
A
100
AcDbDictionary
281
1
  3
Standard
350
22
  0
DICTIONARY
  5
11
330
A
100
AcDbDictionary
281
1
  0
ACDBDICTIONARYWDFLT
  5
12
330
A
100
AcDbDictionary
281
1
  3
Normal
350
13
100
AcDbDictionaryWithDefault
340
13
  0
ACDBPLACEHOLDER
  5
13
330
12
  0
DICTIONARY
  5
14
330
A
100
AcDbDictionary
281
1
  0
DICTIONARY
  5
15
330
A
100
AcDbDictionary
281
1
  0
DICTIONARY
  5
16
330
A
100
AcDbDictionary
281
1
  0
LAYOUT
  5
1A
330
D
100
AcDbPlotSettings
  1

  4
A3
  6

 40
7.5
 41
20.0
 42
7.5
 43
20.0
 44
420.0
 45
297.0
 46
0.0
 47
0.0
 48
0.0
 49
0.0
140
0.0
141
0.0
142
1.0
143
1.0
 70
1024
 72
1
 73
0
 74
5
  7

 75
16
 76
0
 77
2
 78
300
147
1.0
148
0.0
149
0.0
100
AcDbLayout
  1
Model
 70
1
 71
0
 10
0.0
 20
0.0
 11
420.0
 21
297.0
 12
0.0
 22
0.0
 32
0.0
 14
1e+20
 24
1e+20
 34
1e+20
 15
-1e+20
 25
-1e+20
 35
-1e+20
146
0.0
 13
0.0
 23
0.0
 33
0.0
 16
1.0
 26
0.0
 36
0.0
 17
0.0
 27
1.0
 37
0.0
 76
1
330
17
  0
LAYOUT
  5
1E
330
D
100
AcDbPlotSettings
  1

  4
A3
  6

 40
7.5
 41
20.0
 42
7.5
 43
20.0
 44
420.0
 45
297.0
 46
0.0
 47
0.0
 48
0.0
 49
0.0
140
0.0
141
0.0
142
1.0
143
1.0
 70
0
 72
1
 73
0
 74
5
  7

 75
16
 76
0
 77
2
 78
300
147
1.0
148
0.0
149
0.0
100
AcDbLayout
  1
Layout1
 70
1
 71
1
 10
0.0
 20
0.0
 11
420.0
 21
297.0
 12
0.0
 22
0.0
 32
0.0
 14
1e+20
 24
1e+20
 34
1e+20
 15
-1e+20
 25
-1e+20
 35
-1e+20
146
0.0
 13
0.0
 23
0.0
 33
0.0
 16
1.0
 26
0.0
 36
0.0
 17
0.0
 27
1.0
 37
0.0
 76
1
330
1B
  0
MATERIAL
  5
1F
102
{ACAD_REACTORS
330
E
102
}
330
E
100
AcDbMaterial
  1
ByBlock
  2

 70
0
 40
1.0
 71
1
 41
1.0
 91
-1023410177
 42
1.0
 72
1
  3

 73
1
 74
1
 75
1
 44
0.5
 73
0
 45
1.0
 46
1.0
 77
1
  4

 78
1
 79
1
170
1
 48
1.0
171
1
  6

172
1
173
1
174
1
140
1.0
141
1.0
175
1
  7

176
1
177
1
178
1
143
1.0
179
1
  8

270
1
271
1
272
1
145
1.0
146
1.0
273
1
  9

274
1
275
1
276
1
 42
1.0
 72
1
  3

 73
1
 74
1
 75
1
 94
63
  0
MATERIAL
  5
20
102
{ACAD_REACTORS
330
E
102
}
330
E
100
AcDbMaterial
  1
ByLayer
  2

 70
0
 40
1.0
 71
1
 41
1.0
 91
-1023410177
 42
1.0
 72
1
  3

 73
1
 74
1
 75
1
 44
0.5
 73
0
 45
1.0
 46
1.0
 77
1
  4

 78
1
 79
1
170
1
 48
1.0
171
1
  6

172
1
173
1
174
1
140
1.0
141
1.0
175
1
  7

176
1
177
1
178
1
143
1.0
179
1
  8

270
1
271
1
272
1
145
1.0
146
1.0
273
1
  9

274
1
275
1
276
1
 42
1.0
 72
1
  3

 73
1
 74
1
 75
1
 94
63
  0
MATERIAL
  5
21
102
{ACAD_REACTORS
330
E
102
}
330
E
100
AcDbMaterial
  1
Global
  2

 70
0
 40
1.0
 71
1
 41
1.0
 91
-1023410177
 42
1.0
 72
1
  3

 73
1
 74
1
 75
1
 44
0.5
 73
0
 45
1.0
 46
1.0
 77
1
  4

 78
1
 79
1
170
1
 48
1.0
171
1
  6

172
1
173
1
174
1
140
1.0
141
1.0
175
1
  7

176
1
177
1
178
1
143
1.0
179
1
  8

270
1
271
1
272
1
145
1.0
146
1.0
273
1
  9

274
1
275
1
276
1
 42
1.0
 72
1
  3

 73
1
 74
1
 75
1
 94
63
  0
MLINESTYLE
  5
22
102
{ACAD_REACTORS
330
10
102
}
330
10
100
AcDbMlineStyle
  2
Standard
 70
0
  3

 62
256
 51
90.0
 52
90.0
 71
2
 49
0.5
 62
256
  6
BYLAYER
 49
-0.5
 62
256
  6
BYLAYER
  0
MLEADERSTYLE
  5
2C
102
{ACAD_REACTORS
330
F
102
}
330
F
100
AcDbMLeaderStyle
179
2
170
2
171
1
172
0
 90
2
 40
0.0
 41
0.0
173
1
 91
-1056964608
 92
-2
290
1
 42
2.0
291
1
 43
8.0
  3
Standard
 44
4.0
300

342
29
174
1
175
1
176
0
178
1
 93
-1056964608
 45
4.0
292
0
297
0
 46
4.0
 94
-1056964608
 47
1.0
 49
1.0
140
1.0
294
1
141
0.0
177
0
142
1.0
295
0
296
0
143
3.75
271
0
272
9
273
9
  0
DICTIONARY
  5
2D
330
A
100
AcDbDictionary
280
1
281
1
  3
CREATED_BY_EZDXF
350
2E
  3
WRITTEN_BY_EZDXF
350
97
  0
DICTIONARYVAR
  5
2E
330
2D
100
DictionaryVariables
280
0
  1
1.4.4 @ 2026-09-23T21:00:59.701144+00:00
  0
DICTIONARYVAR
  5
97
330
2D
100
DictionaryVariables
280
0
  1
1.4.4 @ 2026-09-23T21:00:59.713053+00:00
  0
ENDSEC
  0
EOF
