  0
SECTION
  2
HEADER
  9
$ACADVER
  1
AC1024
  9
$ACADMAINTVER
 70
6
  9
$DWGCODEPAGE
  3
ANSI_1252
  9
$LASTSAVEDBY
  1
ezdxf
  9
$INSBASE
 10
0.0
 20
0.0
 30
0.0
  9
$EXTMIN
 10
1e+20
 20
1e+20
 30
1e+20
  9
$EXTMAX
 10
-1e+20
 20
-1e+20
 30
-1e+20
  9
$LIMMIN
 10
0.0
 20
0.0
  9
$LIMMAX
 10
420.0
 20
297.0
  9
$ORTHOMODE
 70
0
  9
$REGENMODE
 70
1
  9
$FILLMODE
 70
1
  9
$QTEXTMODE
 70
0
  9
$MIRRTEXT
 70
1
  9
$LTSCALE
 40
1.0
  9
$ATTMODE
 70
1
  9
$TEXTSIZE
 40
2.5
  9
$TRACEWID
 40
1.0
  9
$TEXTSTYLE
  7
PI3D
  9
$CLAYER
  8
0
  9
$CELTYPE
  6
ByLayer
  9
$CECOLOR
 62
256
  9
$CELTSCALE
 40
1.0
  9
$DISPSILH
 70
0
  9
$DIMSCALE
 40
1.0
  9
$DIMASZ
 40
2.5
  9
$DIMEXO
 40
0.625
  9
$DIMDLI
 40
3.75
  9
$DIMRND
 40
0.0
  9
$DIMDLE
 40
0.0
  9
$DIMEXE
 40
1.25
  9
$DIMTP
 40
0.0
  9
$DIMTM
 40
0.0
  9
$DIMTXT
 40
4.333364007292454
  9
$DIMCEN
 40
2.5
  9
$DIMTSZ
 40
0.0
  9
$DIMTOL
 70
0
  9
$DIMLIM
 70
0
  9
$DIMTIH
 70
0
  9
$DIMTOH
 70
0
  9
$DIMSE1
 70
0
  9
$DIMSE2
 70
0
  9
$DIMTAD
 70
1
  9
$DIMZIN
 70
8
  9
$DIMBLK
  1

  9
$DIMASO
 70
1
  9
$DIMSHO
 70
1
  9
$DIMPOST
  1

  9
$DIMAPOST
  1

  9
$DIMALT
 70
0
  9
$DIMALTD
 70
3
  9
$DIMALTF
 40
1.0
  9
$DIMLFAC
 40
1.0
  9
$DIMTOFL
 70
1
  9
$DIMTVP
 40
0.0
  9
$DIMTIX
 70
0
  9
$DIMSOXD
 70
0
  9
$DIMSAH
 70
0
  9
$DIMBLK1
  1

  9
$DIMBLK2
  1

  9
$DIMSTYLE
  2
PF_MM
  9
$DIMCLRD
 70
0
  9
$DIMCLRE
 70
0
  9
$DIMCLRT
 70
0
  9
$DIMTFAC
 40
1.0
  9
$DIMGAP
 40
0.625
  9
$DIMJUST
 70
0
  9
$DIMSD1
 70
0
  9
$DIMSD2
 70
0
  9
$DIMTOLJ
 70
0
  9
$DIMTZIN
 70
8
  9
$DIMALTZ
 70
0
  9
$DIMALTTZ
 70
0
  9
$DIMUPT
 70
0
  9
$DIMDEC
 70
2
  9
$DIMTDEC
 70
2
  9
$DIMALTU
 70
2
  9
$DIMALTTD
 70
3
  9
$DIMTXSTY
  7
Standard
  9
$DIMAUNIT
 70
0
  9
$DIMADEC
 70
0
  9
$DIMALTRND
 40
0.0
  9
$DIMAZIN
 70
0
  9
$DIMDSEP
 70
44
  9
$DIMATFIT
 70
3
  9
$DIMFRAC
 70
0
  9
$DIMLDRBLK
  1

  9
$DIMLUNIT
 70
2
  9
$DIMLWD
 70
-2
  9
$DIMLWE
 70
-2
  9
$DIMTMOVE
 70
0
  9
$DIMFXL
 40
1.0
  9
$DIMFXLON
 70
0
  9
$DIMJOGANG
 40
0.785398163397
  9
$DIMTFILL
 70
0
  9
$DIMTFILLCLR
 70
0
  9
$DIMARCSYM
 70
0
  9
$DIMLTYPE
  6

  9
$DIMLTEX1
  6

  9
$DIMLTEX2
  6

  9
$DIMTXTDIRECTION
 70
0
  9
$LUNITS
 70
2
  9
$LUPREC
 70
4
  9
$SKETCHINC
 40
1.0
  9
$FILLETRAD
 40
10.0
  9
$AUNITS
 70
0
  9
$AUPREC
 70
2
  9
$MENU
  1
.
  9
$ELEVATION
 40
0.0
  9
$PELEVATION
 40
0.0
  9
$THICKNESS
 40
0.0
  9
$LIMCHECK
 70
0
  9
$CHAMFERA
 40
0.0
  9
$CHAMFERB
 40
0.0
  9
$CHAMFERC
 40
0.0
  9
$CHAMFERD
 40
0.0
  9
$SKPOLY
 70
0
  9
$TDCREATE
 40
2461308.936736111
  9
$TDUCREATE
 40
2458532.153996898
  9
$TDUPDATE
 40
2461308.936747685
  9
$TDUUPDATE
 40
2458532.1544311
  9
$TDINDWG
 40
0.0
  9
$TDUSRTIMER
 40
0.0
  9
$USRTIMER
 70
1
  9
$ANGBASE
 50
0.0
  9
$ANGDIR
 70
0
  9
$PDMODE
 70
0
  9
$PDSIZE
 40
0.0
  9
$PLINEWID
 40
0.0
  9
$SPLFRAME
 70
0
  9
$SPLINETYPE
 70
6
  9
$SPLINESEGS
 70
8
  9
$HANDSEED
  5
38E
  9
$SURFTAB1
 70
6
  9
$SURFTAB2
 70
6
  9
$SURFTYPE
 70
6
  9
$SURFU
 70
6
  9
$SURFV
 70
6
  9
$UCSBASE
  2

  9
$UCSNAME
  2

  9
$UCSORG
 10
0.0
 20
0.0
 30
0.0
  9
$UCSXDIR
 10
1.0
 20
0.0
 30
0.0
  9
$UCSYDIR
 10
0.0
 20
1.0
 30
0.0
  9
$UCSORTHOREF
  2

  9
$UCSORTHOVIEW
 70
0
  9
$UCSORGTOP
 10
0.0
 20
0.0
 30
0.0
  9
$UCSORGBOTTOM
 10
0.0
 20
0.0
 30
0.0
  9
$UCSORGLEFT
 10
0.0
 20
0.0
 30
0.0
  9
$UCSORGRIGHT
 10
0.0
 20
0.0
 30
0.0
  9
$UCSORGFRONT
 10
0.0
 20
0.0
 30
0.0
  9
$UCSORGBACK
 10
0.0
 20
0.0
 30
0.0
  9
$PUCSBASE
  2

  9
$PUCSNAME
  2

  9
$PUCSORG
 10
0.0
 20
0.0
 30
0.0
  9
$PUCSXDIR
 10
1.0
 20
0.0
 30
0.0
  9
$PUCSYDIR
 10
0.0
 20
1.0
 30
0.0
  9
$PUCSORTHOREF
  2

  9
$PUCSORTHOVIEW
 70
0
  9
$PUCSORGTOP
 10
0.0
 20
0.0
 30
0.0
  9
$PUCSORGBOTTOM
 10
0.0
 20
0.0
 30
0.0
  9
$PUCSORGLEFT
 10
0.0
 20
0.0
 30
0.0
  9
$PUCSORGRIGHT
 10
0.0
 20
0.0
 30
0.0
  9
$PUCSORGFRONT
 10
0.0
 20
0.0
 30
0.0
  9
$PUCSORGBACK
 10
0.0
 20
0.0
 30
0.0
  9
$USERI1
 70
0
  9
$USERI2
 70
0
  9
$USERI3
 70
0
  9
$USERI4
 70
0
  9
$USERI5
 70
0
  9
$USERR1
 40
0.0
  9
$USERR2
 40
0.0
  9
$USERR3
 40
0.0
  9
$USERR4
 40
0.0
  9
$USERR5
 40
0.0
  9
$WORLDVIEW
 70
1
  9
$SHADEDGE
 70
3
  9
$SHADEDIF
 70
70
  9
$TILEMODE
 70
1
  9
$MAXACTVP
 70
64
  9
$PINSBASE
 10
0.0
 20
0.0
 30
0.0
  9
$PLIMCHECK
 70
0
  9
$PEXTMIN
 10
1e+20
 20
1e+20
 30
1e+20
  9
$PEXTMAX
 10
-1e+20
 20
-1e+20
 30
-1e+20
  9
$PLIMMIN
 10
-0.0
 20
-0.0
  9
$PLIMMAX
 10
420.0
 20
297.0
  9
$UNITMODE
 70
0
  9
$VISRETAIN
 70
1
  9
$PLINEGEN
 70
0
  9
$PSLTSCALE
 70
1
  9
$TREEDEPTH
 70
3020
  9
$CMLSTYLE
  2
Standard
  9
$CMLJUST
 70
0
  9
$CMLSCALE
 40
20.0
  9
$PROXYGRAPHICS
 70
1
  9
$MEASUREMENT
 70
1
  9
$CELWEIGHT
370
-1
  9
$ENDCAPS
280
0
  9
$JOINSTYLE
280
0
  9
$LWDISPLAY
290
1
  9
$INSUNITS
 70
4
  9
$HYPERLINKBASE
  1

  9
$STYLESHEET
  1

  9
$XEDIT
290
1
  9
$CEPSNTYPE
380
0
  9
$PSTYLEMODE
290
1
  9
$FINGERPRINTGUID
  2
{C6C5DA28-881E-484D-A194-9C0631621596}
  9
$VERSIONGUID
  2
{7C86F986-58AC-4528-9BF1-57A1C9FB845F}
  9
$EXTNAMES
290
1
  9
$PSVPSCALE
 40
0.0
  9
$OLESTARTUP
290
0
  9
$SORTENTS
280
127
  9
$INDEXCTL
280
0
  9
$HIDETEXT
280
1
  9
$XCLIPFRAME
280
1
  9
$HALOGAP
280
0
  9
$OBSCOLOR
 70
257
  9
$OBSLTYPE
280
0
  9
$INTERSECTIONDISPLAY
280
0
  9
$INTERSECTIONCOLOR
 70
257
  9
$DIMASSOC
280
2
  9
$PROJECTNAME
  1

  9
$CAMERADISPLAY
290
0
  9
$LENSLENGTH
 40
50.0
  9
$CAMERAHEIGHT
 40
0.0
  9
$STEPSPERSEC
 40
24.0
  9
$STEPSIZE
 40
100.0
  9
$3DDWFPREC
 40
2.0
  9
$PSOLWIDTH
 40
0.005
  9
$PSOLHEIGHT
 40
0.08
  9
$LOFTANG1
 40
1.570796326795
  9
$LOFTANG2
 40
1.570796326795
  9
$LOFTMAG1
 40
0.0
  9
$LOFTMAG2
 40
0.0
  9
$LOFTPARAM
 70
7
  9
$LOFTNORMALS
280
1
  9
$LATITUDE
 40
37.795
  9
$LONGITUDE
 40
-122.394
  9
$NORTHDIRECTION
 40
0.0
  9
$TIMEZONE
 70
-8000
  9
$LIGHTGLYPHDISPLAY
280
1
  9
$TILEMODELIGHTSYNCH
280
1
  9
$CMATERIAL
347
20
  9
$SOLIDHIST
280
0
  9
$SHOWHIST
280
1
  9
$DWFFRAME
280
2
  9
$DGNFRAME
280
2
  9
$REALWORLDSCALE
290
1
  9
$INTERFERECOLOR
 62
256
  9
$CSHADOW
280
0
  9
$SHADOWPLANELOCATION
 40
0.0
  0
ENDSEC
  0
SECTION
  2
CLASSES
  0
CLASS
  1
ACDBDICTIONARYWDFLT
  2
AcDbDictionaryWithDefault
  3
ObjectDBX Classes
 90
0
 91
0
280
0
281
0
  0
CLASS
  1
SUN
  2
AcDbSun
  3
SCENEOE
 90
1153
 91
0
280
0
281
0
  0
CLASS
  1
VISUALSTYLE
  2
AcDbVisualStyle
  3
ObjectDBX Classes
 90
4095
 91
0
280
0
281
0
  0
CLASS
  1
MATERIAL
  2
AcDbMaterial
  3
ObjectDBX Classes
 90
1153
 91
0
280
0
281
0
  0
CLASS
  1
SCALE
  2
AcDbScale
  3
ObjectDBX Classes
 90
1153
 91
0
280
0
281
0
  0
CLASS
  1
TABLESTYLE
  2
AcDbTableStyle
  3
ObjectDBX Classes
 90
4095
 91
0
280
0
281
0
  0
CLASS
  1
MLEADERSTYLE
  2
AcDbMLeaderStyle
  3
ACDB_MLEADERSTYLE_CLASS
 90
4095
 91
0
280
0
281
0
  0
CLASS
  1
DICTIONARYVAR
  2
AcDbDictionaryVar
  3
ObjectDBX Classes
 90
0
 91
0
280
0
281
0
  0
CLASS
  1
CELLSTYLEMAP
  2
AcDbCellStyleMap
  3
ObjectDBX Classes
 90
1152
 91
0
280
0
281
0
  0
CLASS
  1
MENTALRAYRENDERSETTINGS
  2
AcDbMentalRayRenderSettings
  3
SCENEOE
 90
1024
 91
0
280
0
281
0
  0
CLASS
  1
ACDBDETAILVIEWSTYLE
  2
AcDbDetailViewStyle
  3
ObjectDBX Classes
 90
1025
 91
0
280
0
281
0
  0
CLASS
  1
ACDBSECTIONVIEWSTYLE
  2
AcDbSectionViewStyle
  3
ObjectDBX Classes
 90
1025
 91
0
280
0
281
0
  0
CLASS
  1
RASTERVARIABLES
  2
AcDbRasterVariables
  3
ISM
 90
0
 91
0
280
0
281
0
  0
CLASS
  1
ACDBPLACEHOLDER
  2
AcDbPlaceHolder
  3
ObjectDBX Classes
 90
0
 91
0
280
0
281
0
  0
CLASS
  1
LAYOUT
  2
AcDbLayout
  3
ObjectDBX Classes
 90
0
 91
0
280
0
281
0
  0
ENDSEC
  0
SECTION
  2
TABLES
  0
TABLE
  2
VPORT
  5
8
330
0
100
AcDbSymbolTable
 70
1
  0
VPORT
  5
38D
330
8
100
AcDbSymbolTableRecord
100
AcDbViewportTableRecord
  2
*Active
 70
0
 10
0.0
 20
0.0
 11
1.0
 21
1.0
 12
223.40011534817532
 22
-43.08495536494226
 13
0.0
 23
0.0
 14
0.5
 24
0.5
 15
0.5
 25
0.5
 16
0.0
 26
0.0
 36
1.0
 17
0.0
 27
0.0
 37
0.0
 40
829.2616498715263
 41
1.34
 42
50.0
 43
0.0
 44
0.0
 50
0.0
 51
0.0
 71
0
 72
1000
 73
1
 74
3
 75
0
 76
0
 77
0
 78
0
281
0
 65
1
110
0.0
120
0.0
130
0.0
111
1.0
121
0.0
131
0.0
112
0.0
122
1.0
132
0.0
 79
0
146
0.0
  0
ENDTAB
  0
TABLE
  2
LTYPE
  5
2
330
0
100
AcDbSymbolTable
 70
5
  0
LTYPE
  5
24
330
2
100
AcDbSymbolTableRecord
100
AcDbLinetypeTableRecord
  2
ByBlock
 70
0
  3

 72
65
 73
0
 40
0.0
  0
LTYPE
  5
25
330
2
100
AcDbSymbolTableRecord
100
AcDbLinetypeTableRecord
  2
ByLayer
 70
0
  3

 72
65
 73
0
 40
0.0
  0
LTYPE
  5
26
330
2
100
AcDbSymbolTableRecord
100
AcDbLinetypeTableRecord
  2
Continuous
 70
0
  3

 72
65
 73
0
 40
0.0
  0
LTYPE
  5
36
330
2
100
AcDbSymbolTableRecord
100
AcDbLinetypeTableRecord
  2
KESIK
 70
0
  3

 72
65
 73
2
 40
3.0
 49
2.0
 74
0
 49
-1.0
 74
0
  0
LTYPE
  5
37
330
2
100
AcDbSymbolTableRecord
100
AcDbLinetypeTableRecord
  2
EKSENCIZGI
 70
0
  3

 72
65
 73
4
 40
12.0
 49
8.0
 74
0
 49
-2.0
 74
0
 49
0.0
 74
0
 49
-2.0
 74
0
  0
ENDTAB
  0
TABLE
  2
LAYER
  5
1
330
0
100
AcDbSymbolTable
 70
13
  0
LAYER
  5
27
330
1
100
AcDbSymbolTableRecord
100
AcDbLayerTableRecord
  2
0
 70
0
 62
7
  6
Continuous
370
-3
390
13
347
21
  0
LAYER
  5
28
330
1
100
AcDbSymbolTableRecord
100
AcDbLayerTableRecord
  2
Defpoints
 70
0
 62
7
  6
Continuous
290
0
370
-3
390
13
347
21
  0
LAYER
  5
2F
330
1
100
AcDbSymbolTableRecord
100
AcDbLayerTableRecord
  2
GORUNEN
 70
0
 62
7
  6
Continuous
370
9
390
13
347
21
  0
LAYER
  5
30
330
1
100
AcDbSymbolTableRecord
100
AcDbLayerTableRecord
  2
GIZLI
 70
0
 62
8
  6
KESIK
370
9
390
13
347
21
  0
LAYER
  5
31
330
1
100
AcDbSymbolTableRecord
100
AcDbLayerTableRecord
  2
EKSEN
 70
0
 62
1
  6
EKSENCIZGI
370
9
390
13
347
21
  0
LAYER
  5
32
330
1
100
AcDbSymbolTableRecord
100
AcDbLayerTableRecord
  2
OLCU
 70
0
 62
4
  6
Continuous
370
9
390
13
347
21
  0
LAYER
  5
33
330
1
100
AcDbSymbolTableRecord
100
AcDbLayerTableRecord
  2
YAZI
 70
0
 62
3
  6
Continuous
370
9
390
13
347
21
  0
LAYER
  5
34
330
1
100
AcDbSymbolTableRecord
100
AcDbLayerTableRecord
  2
CERCEVE
 70
0
 62
5
  6
Continuous
370
9
390
13
347
21
  0
LAYER
  5
35
330
1
100
AcDbSymbolTableRecord
100
AcDbLayerTableRecord
  2
TARAMA
 70
0
 62
5
  6
Continuous
370
9
390
13
347
21
  0
LAYER
  5
31C
330
1
100
AcDbSymbolTableRecord
100
AcDbLayerTableRecord
  2
PI3D_GORUNUS_ALANI
 70
0
 62
-8
  6
Continuous
290
0
370
-3
390
13
347
21
  0
LAYER
  5
350
330
1
100
AcDbSymbolTableRecord
100
AcDbLayerTableRecord
  2
PAFTA_CERCEVE
 70
0
 62
7
  6
Continuous
370
-3
390
13
347
21
  0
LAYER
  5
351
330
1
100
AcDbSymbolTableRecord
100
AcDbLayerTableRecord
  2
PAFTA_BOLGE
 70
0
 62
7
  6
Continuous
370
-3
390
13
347
21
  0
LAYER
  5
352
330
1
100
AcDbSymbolTableRecord
100
AcDbLayerTableRecord
  2
PAFTA_BILGI
 70
0
 62
7
  6
Continuous
370
-3
390
13
347
21
  0
ENDTAB
  0
TABLE
  2
STYLE
  5
5
330
0
100
AcDbSymbolTable
 70
2
  0
STYLE
  5
29
330
5
100
AcDbSymbolTableRecord
100
AcDbTextStyleTableRecord
  2
Standard
 70
0
 40
0.0
 41
1.0
 50
0.0
 71
0
 42
2.5
  3
txt
  4

  0
STYLE
  5
38
330
5
100
AcDbSymbolTableRecord
100
AcDbTextStyleTableRecord
  2
PI3D
 70
0
 40
0.0
 41
1.0
 50
0.0
 71
0
 42
2.5
  3
arial.ttf
  4

1001
ACAD
1000
Arial
1071
34
  0
ENDTAB
  0
TABLE
  2
VIEW
  5
7
330
0
100
AcDbSymbolTable
 70
0
  0
ENDTAB
  0
TABLE
  2
UCS
  5
6
330
0
100
AcDbSymbolTable
 70
0
  0
ENDTAB
  0
TABLE
  2
APPID
  5
3
330
0
100
AcDbSymbolTable
 70
4
  0
APPID
  5
2A
330
3
100
AcDbSymbolTableRecord
100
AcDbRegAppTableRecord
  2
ACAD
 70
0
  0
APPID
  5
31D
330
3
100
AcDbSymbolTableRecord
100
AcDbRegAppTableRecord
  2
PI3D
 70
0
  0
APPID
  5
324
330
3
100
AcDbSymbolTableRecord
100
AcDbRegAppTableRecord
  2
HATCHBACKGROUNDCOLOR
 70
0
  0
APPID
  5
325
330
3
100
AcDbSymbolTableRecord
100
AcDbRegAppTableRecord
  2
EZDXF
 70
0
  0
ENDTAB
  0
TABLE
  2
DIMSTYLE
  5
4
330
0
100
AcDbSymbolTable
 70
2
100
AcDbDimStyleTable
  0
DIMSTYLE
105
2B
330
4
100
AcDbSymbolTableRecord
100
AcDbDimStyleTableRecord
  2
Standard
 70
0
 40
1.0
 41
2.5
 42
0.625
 43
3.75
 44
1.25
 45
0.0
 46
0.0
 47
0.0
 48
0.0
 49
2.5
140
2.5
141
2.5
142
0.0
143
0.03937007874
144
1.0
145
0.0
146
1.0
147
0.625
148
0.0
 69
0
 70
0
 71
0
 72
0
 73
0
 74
0
 75
0
 76
0
 77
1
 78
8
 79
3
170
0
171
3
172
1
173
0
174
0
175
0
176
0
177
0
178
0
179
2
271
2
272
2
273
2
274
3
275
0
276
0
277
2
278
44
279
0
280
0
281
0
282
0
283
0
284
8
285
0
286
0
288
0
289
3
290
0
340
38
371
-2
372
-2
  0
DIMSTYLE
105
39
330
4
100
AcDbSymbolTableRecord
100
AcDbDimStyleTableRecord
  2
PF_MM
 70
0
 40
1.0
 41
3.4666912058339636
 42
2.166682003646227
 43
3.75
 44
2.6000184043754726
 45
0.0
 46
0.0
 47
0.0
 48
0.0
 49
2.5
140
4.333364007292454
141
2.5
142
0.0
143
0.03937007874
144
1.0
145
0.0
146
1.0
147
1.5166774025523588
148
0.0
 69
0
 70
0
 71
0
 72
0
 73
0
 74
0
 75
0
 76
0
 77
1
 78
8
 79
3
170
0
171
3
172
1
173
0
174
0
175
0
176
4
177
4
178
3
179
2
271
1
272
2
273
2
274
3
275
0
276
0
277
2
278
44
279
0
280
0
281
0
282
0
283
0
284
8
285
0
286
0
288
0
289
3
290
0
340
38
371
-2
372
-2
  0
ENDTAB
  0
TABLE
  2
BLOCK_RECORD
  5
9
330
0
100
AcDbSymbolTable
 70
23
  0
BLOCK_RECORD
  5
17
330
9
100
AcDbSymbolTableRecord
100
AcDbBlockTableRecord
  2
*Model_Space
340
1A
 70
0
280
1
281
0
  0
BLOCK_RECORD
  5
FC
330
9
100
AcDbSymbolTableRecord
100
AcDbBlockTableRecord
  2
*D1
340
0
 70
0
280
1
281
0
  0
BLOCK_RECORD
  5
101
330
9
100
AcDbSymbolTableRecord
100
AcDbBlockTableRecord
  2
_CLOSEDFILLED
340
0
 70
0
280
1
281
0
  0
BLOCK_RECORD
  5
10F
330
9
100
AcDbSymbolTableRecord
100
AcDbBlockTableRecord
  2
*D2
340
0
 70
0
280
1
281
0
  0
BLOCK_RECORD
  5
151
330
9
100
AcDbSymbolTableRecord
100
AcDbBlockTableRecord
  2
*D6
340
0
 70
0
280
1
281
0
  0
BLOCK_RECORD
  5
162
330
9
100
AcDbSymbolTableRecord
100
AcDbBlockTableRecord
  2
*D7
340
0
 70
0
280
1
281
0
  0
BLOCK_RECORD
  5
1A2
330
9
100
AcDbSymbolTableRecord
100
AcDbBlockTableRecord
  2
*D11
340
0
 70
0
280
1
281
0
  0
BLOCK_RECORD
  5
1B2
330
9
100
AcDbSymbolTableRecord
100
AcDbBlockTableRecord
  2
*D12
340
0
 70
0
280
1
281
0
  0
BLOCK_RECORD
  5
1F2
330
9
100
AcDbSymbolTableRecord
100
AcDbBlockTableRecord
  2
*D16
340
0
 70
0
280
1
281
0
  0
BLOCK_RECORD
  5
215
330
9
100
AcDbSymbolTableRecord
100
AcDbBlockTableRecord
  2
*D17
340
0
 70
0
280
1
281
0
  0
BLOCK_RECORD
  5
235
330
9
100
AcDbSymbolTableRecord
100
AcDbBlockTableRecord
  2
*D19
340
0
 70
0
280
1
281
0
  0
BLOCK_RECORD
  5
246
330
9
100
AcDbSymbolTableRecord
100
AcDbBlockTableRecord
  2
*D20
340
0
 70
0
280
1
281
0
  0
BLOCK_RECORD
  5
266
330
9
100
AcDbSymbolTableRecord
100
AcDbBlockTableRecord
  2
*D22
340
0
 70
0
280
1
281
0
  0
BLOCK_RECORD
  5
277
330
9
100
AcDbSymbolTableRecord
100
AcDbBlockTableRecord
  2
*D23
340
0
 70
0
280
1
281
0
  0
BLOCK_RECORD
  5
286
330
9
100
AcDbSymbolTableRecord
100
AcDbBlockTableRecord
  2
*D24
340
0
 70
0
280
1
281
0
  0
BLOCK_RECORD
  5
297
330
9
100
AcDbSymbolTableRecord
100
AcDbBlockTableRecord
  2
*D25
340
0
 70
0
280
1
281
0
  0
BLOCK_RECORD
  5
2A6
330
9
100
AcDbSymbolTableRecord
100
AcDbBlockTableRecord
  2
*D26
340
0
 70
0
280
1
281
0
  0
BLOCK_RECORD
  5
2C1
330
9
100
AcDbSymbolTableRecord
100
AcDbBlockTableRecord
  2
*D28
340
0
 70
0
280
1
281
0
  0
BLOCK_RECORD
  5
2CD
330
9
100
AcDbSymbolTableRecord
100
AcDbBlockTableRecord
  2
*D29
340
0
 70
0
280
1
281
0
  0
BLOCK_RECORD
  5
2F2
330
9
100
AcDbSymbolTableRecord
100
AcDbBlockTableRecord
  2
*D30
340
0
 70
0
280
1
281
0
  0
BLOCK_RECORD
  5
301
330
9
100
AcDbSymbolTableRecord
100
AcDbBlockTableRecord
  2
*D31
340
0
 70
0
280
1
281
0
  0
BLOCK_RECORD
  5
34B
330
9
100
AcDbSymbolTableRecord
100
AcDbBlockTableRecord
  2
*Paper_Space
340
34E
 70
0
280
1
281
0
  0
BLOCK_RECORD
  5
1B
330
9
100
AcDbSymbolTableRecord
100
AcDbBlockTableRecord
  2
*Paper_Space0
340
1E
 70
0
280
1
281
0
  0
ENDTAB
  0
ENDSEC
  0
SECTION
  2
BLOCKS
  0
BLOCK
  5
18
330
17
100
AcDbEntity
  8
0
100
AcDbBlockBegin
  2
*Model_Space
 70
0
 10
0.0
 20
0.0
 30
0.0
  3
*Model_Space
  1

  0
ENDBLK
  5
19
330
17
100
AcDbEntity
  8
0
100
AcDbBlockEnd
  0
BLOCK
  5
FD
330
FC
100
AcDbEntity
  8
0
100
AcDbBlockBegin
  2
*D1
 70
1
 10
0.0
 20
0.0
 30
0.0
  3
*D1
  1

  0
LINE
  5
FF
330
FC
100
AcDbEntity
  8
0
 62
4
100
AcDbLine
 10
-1.6408021083112127e-07
 20
-132.33529646671707
 30
0.0
 11
-1.6408021083112127e-07
 21
-155.30212570536708
 31
0.0
  0
LINE
  5
100
330
FC
100
AcDbEntity
  8
0
 62
4
100
AcDbLine
 10
61.500309835919786
 20
-132.33529646671707
 30
0.0
 11
61.500309835919786
 21
-155.30212570536708
 31
0.0
  0
INSERT
  5
105
330
FC
100
AcDbEntity
  8
OLCU
 62
4
100
AcDbBlockReference
  2
_CLOSEDFILLED
 10
-1.6408021083112127e-07
 20
-152.7021073009916
 30
0.0
 41
3.4666912058339636
 42
3.4666912058339636
 50
180.0
  0
INSERT
  5
107
330
FC
100
AcDbEntity
  8
OLCU
 62
4
100
AcDbBlockReference
  2
_CLOSEDFILLED
 10
61.500309835919786
 20
-152.7021073009916
 30
0.0
 41
3.4666912058339636
 42
3.4666912058339636
  0
LINE
  5
109
330
FC
100
AcDbEntity
  8
0
 62
4
100
AcDbLine
 10
3.466691041753753
 20
-152.7021073009916
 30
0.0
 11
58.033618630085826
 21
-152.7021073009916
 31
0.0
  0
MTEXT
  5
10A
330
FC
100
AcDbEntity
  8
OLCU
 62
3
100
AcDbMText
 10
30.750154835919787
 20
-149.01874789479302
 30
0.0
 40
4.333364007292454
 71
5
  1
61,5
  7
PI3D
  0
POINT
  5
10B
330
FC
100
AcDbEntity
  8
Defpoints
100
AcDbPoint
 10
-1.6408021083112127e-07
 20
-152.7021073009916
 30
0.0
  0
POINT
  5
10C
330
FC
100
AcDbEntity
  8
Defpoints
100
AcDbPoint
 10
-1.6408021083112127e-07
 20
-130.16861446307084
 30
0.0
  0
POINT
  5
10D
330
FC
100
AcDbEntity
  8
Defpoints
100
AcDbPoint
 10
61.500309835919786
 20
-130.16861446307084
 30
0.0
  0
ENDBLK
  5
FE
330
FC
100
AcDbEntity
  8
0
100
AcDbBlockEnd
  0
BLOCK
  5
102
330
101
100
AcDbEntity
  8
0
100
AcDbBlockBegin
  2
_CLOSEDFILLED
 70
0
 10
0.0
 20
0.0
 30
0.0
  3
_CLOSEDFILLED
  1

  0
SOLID
  5
104
330
101
100
AcDbEntity
  8
0
  6
BYBLOCK
 62
0
100
AcDbTrace
 10
-1.0
 20
0.16439898372402537
 30
0.0
 11
0.0
 21
0.0
 31
0.0
 12
-1.0
 22
-0.16439898372402537
 32
0.0
 13
-1.0
 23
-0.16439898372402537
 33
0.0
  0
ENDBLK
  5
103
330
101
100
AcDbEntity
  8
0
100
AcDbBlockEnd
  0
BLOCK
  5
110
330
10F
100
AcDbEntity
  8
0
100
AcDbBlockBegin
  2
*D2
 70
1
 10
0.0
 20
0.0
 30
0.0
  3
*D2
  1

  0
LINE
  5
112
330
10F
100
AcDbEntity
  8
0
 62
4
100
AcDbLine
 10
-1.6408021083112127e-07
 20
-132.33529646671707
 30
0.0
 11
-1.6408021083112127e-07
 21
-147.9354068929699
 31
0.0
  0
LINE
  5
113
330
10F
100
AcDbEntity
  8
0
 62
4
100
AcDbLine
 10
20.05390983591979
 20
-132.33529646671707
 30
0.0
 11
20.05390983591979
 21
-147.9354068929699
 31
0.0
  0
INSERT
  5
114
330
10F
100
AcDbEntity
  8
OLCU
 62
4
100
AcDbBlockReference
  2
_CLOSEDFILLED
 10
-1.6408021083112127e-07
 20
-145.33538848859442
 30
0.0
 41
3.4666912058339636
 42
3.4666912058339636
 50
180.0
  0
INSERT
  5
116
330
10F
100
AcDbEntity
  8
OLCU
 62
4
100
AcDbBlockReference
  2
_CLOSEDFILLED
 10
20.05390983591979
 20
-145.33538848859442
 30
0.0
 41
3.4666912058339636
 42
3.4666912058339636
  0
LINE
  5
118
330
10F
100
AcDbEntity
  8
0
 62
4
100
AcDbLine
 10
3.466691041753753
 20
-145.33538848859442
 30
0.0
 11
16.587218630085825
 21
-145.33538848859442
 31
0.0
  0
MTEXT
  5
119
330
10F
100
AcDbEntity
  8
OLCU
 62
3
100
AcDbMText
 10
10.02695483591979
 20
-141.65202908239584
 30
0.0
 40
4.333364007292454
 71
5
  1
20,1
  7
PI3D
  0
POINT
  5
11A
330
10F
100
AcDbEntity
  8
Defpoints
100
AcDbPoint
 10
-1.6408021083112127e-07
 20
-145.33538848859442
 30
0.0
  0
POINT
  5
11B
330
10F
100
AcDbEntity
  8
Defpoints
100
AcDbPoint
 10
-1.6408021083112127e-07
 20
-130.16861446307084
 30
0.0
  0
POINT
  5
11C
330
10F
100
AcDbEntity
  8
Defpoints
100
AcDbPoint
 10
20.05390983591979
 20
-130.16861446307084
 30
0.0
  0
ENDBLK
  5
111
330
10F
100
AcDbEntity
  8
0
100
AcDbBlockEnd
  0
BLOCK
  5
152
330
151
100
AcDbEntity
  8
0
100
AcDbBlockBegin
  2
*D6
 70
1
 10
0.0
 20
0.0
 30
0.0
  3
*D6
  1

  0
LINE
  5
154
330
151
100
AcDbEntity
  8
0
 62
4
100
AcDbLine
 10
-1.6408021083112127e-07
 20
-132.33529646671707
 30
0.0
 11
-1.6408021083112127e-07
 21
-162.66884451776426
 31
0.0
  0
LINE
  5
155
330
151
100
AcDbEntity
  8
0
 62
4
100
AcDbLine
 10
7.500009835919789
 20
-132.33529646671707
 30
0.0
 11
7.500009835919789
 21
-162.66884451776426
 31
0.0
  0
INSERT
  5
156
330
151
100
AcDbEntity
  8
OLCU
 62
4
100
AcDbBlockReference
  2
_CLOSEDFILLED
 10
-1.6408021083112127e-07
 20
-160.06882611338878
 30
0.0
 41
3.4666912058339636
 42
3.4666912058339636
  0
INSERT
  5
158
330
151
100
AcDbEntity
  8
OLCU
 62
4
100
AcDbBlockReference
  2
_CLOSEDFILLED
 10
7.500009835919789
 20
-160.06882611338878
 30
0.0
 41
3.4666912058339636
 42
3.4666912058339636
 50
180.0
  0
LINE
  5
15A
330
151
100
AcDbEntity
  8
0
 62
4
100
AcDbLine
 10
-3.466691369914174
 20
-160.06882611338878
 30
0.0
 11
-6.933382575748137
 21
-160.06882611338878
 31
0.0
  0
LINE
  5
15B
330
151
100
AcDbEntity
  8
0
 62
4
100
AcDbLine
 10
10.966701041753751
 20
-160.06882611338878
 30
0.0
 11
14.433392247587715
 21
-160.06882611338878
 31
0.0
  0
LINE
  5
15C
330
151
100
AcDbEntity
  8
0
 62
4
100
AcDbLine
 10
-1.6408021083112127e-07
 20
-160.06882611338878
 30
0.0
 11
7.500009835919789
 21
-160.06882611338878
 31
0.0
  0
MTEXT
  5
15D
330
151
100
AcDbEntity
  8
OLCU
 62
3
100
AcDbMText
 10
3.750004835919789
 20
-153.78544830281473
 30
0.0
 40
4.333364007292454
 71
5
  1
7,5
  7
PI3D
  0
POINT
  5
15E
330
151
100
AcDbEntity
  8
Defpoints
100
AcDbPoint
 10
-1.6408021083112127e-07
 20
-160.06882611338878
 30
0.0
  0
POINT
  5
15F
330
151
100
AcDbEntity
  8
Defpoints
100
AcDbPoint
 10
-1.6408021083112127e-07
 20
-130.16861446307084
 30
0.0
  0
POINT
  5
160
330
151
100
AcDbEntity
  8
Defpoints
100
AcDbPoint
 10
7.500009835919789
 20
-130.16861446307084
 30
0.0
  0
ENDBLK
  5
153
330
151
100
AcDbEntity
  8
0
100
AcDbBlockEnd
  0
BLOCK
  5
163
330
162
100
AcDbEntity
  8
0
100
AcDbBlockBegin
  2
*D7
 70
1
 10
0.0
 20
0.0
 30
0.0
  3
*D7
  1

  0
LINE
  5
165
330
162
100
AcDbEntity
  8
0
 62
4
100
AcDbLine
 10
-2.166682003646227
 20
-130.16861462715104
 30
0.0
 11
-32.500230054693404
 21
-130.16861462715104
 31
0.0
  0
LINE
  5
166
330
162
100
AcDbEntity
  8
0
 62
4
100
AcDbLine
 10
-2.166682003646227
 20
-85.16860462715104
 30
0.0
 11
-32.500230054693404
 21
-85.16860462715104
 31
0.0
  0
INSERT
  5
167
330
162
100
AcDbEntity
  8
OLCU
 62
4
100
AcDbBlockReference
  2
_CLOSEDFILLED
 10
-29.90021165031793
 20
-130.16861462715104
 30
0.0
 41
3.4666912058339636
 42
3.4666912058339636
 50
270.0
  0
INSERT
  5
169
330
162
100
AcDbEntity
  8
OLCU
 62
4
100
AcDbBlockReference
  2
_CLOSEDFILLED
 10
-29.90021165031793
 20
-85.16860462715104
 30
0.0
 41
3.4666912058339636
 42
3.4666912058339636
 50
90.0
  0
LINE
  5
16B
330
162
100
AcDbEntity
  8
0
 62
4
100
AcDbLine
 10
-29.90021165031793
 20
-126.70192342131708
 30
0.0
 11
-29.90021165031793
 21
-110.97279968271154
 31
0.0
  0
LINE
  5
16C
330
162
100
AcDbEntity
  8
0
 62
4
100
AcDbLine
 10
-29.90021165031793
 20
-104.36441957159055
 30
0.0
 11
-29.90021165031793
 21
-88.63529583298501
 31
0.0
  0
MTEXT
  5
16D
330
162
100
AcDbEntity
  8
OLCU
 62
3
100
AcDbMText
 10
-33.58357105651652
 20
-107.66860962715104
 30
0.0
 40
4.333364007292454
 71
5
  1
45
  7
PI3D
  0
POINT
  5
16E
330
162
100
AcDbEntity
  8
Defpoints
100
AcDbPoint
 10
-29.90021165031793
 20
-130.16861462715104
 30
0.0
  0
POINT
  5
16F
330
162
100
AcDbEntity
  8
Defpoints
100
AcDbPoint
 10
0.0
 20
-130.16861462715104
 30
0.0
  0
POINT
  5
170
330
162
100
AcDbEntity
  8
Defpoints
100
AcDbPoint
 10
0.0
 20
-85.16860462715104
 30
0.0
  0
ENDBLK
  5
164
330
162
100
AcDbEntity
  8
0
100
AcDbBlockEnd
  0
BLOCK
  5
1A3
330
1A2
100
AcDbEntity
  8
0
100
AcDbBlockBegin
  2
*D11
 70
1
 10
0.0
 20
0.0
 30
0.0
  3
*D11
  1

  0
LINE
  5
1A5
330
1A2
100
AcDbEntity
  8
0
 62
4
100
AcDbLine
 10
-2.166682003646227
 20
-130.16861462715104
 30
0.0
 11
-47.23366767948776
 21
-130.16861462715104
 31
0.0
  0
LINE
  5
1A6
330
1A2
100
AcDbEntity
  8
0
 62
4
100
AcDbLine
 10
-2.166682003646227
 20
-92.16860462715104
 30
0.0
 11
-47.23366767948776
 21
-92.16860462715104
 31
0.0
  0
INSERT
  5
1A7
330
1A2
100
AcDbEntity
  8
OLCU
 62
4
100
AcDbBlockReference
  2
_CLOSEDFILLED
 10
-44.63364927511228
 20
-130.16861462715104
 30
0.0
 41
3.4666912058339636
 42
3.4666912058339636
 50
270.0
  0
INSERT
  5
1A9
330
1A2
100
AcDbEntity
  8
OLCU
 62
4
100
AcDbBlockReference
  2
_CLOSEDFILLED
 10
-44.63364927511228
 20
-92.16860462715104
 30
0.0
 41
3.4666912058339636
 42
3.4666912058339636
 50
90.0
  0
LINE
  5
1AB
330
1A2
100
AcDbEntity
  8
0
 62
4
100
AcDbLine
 10
-44.63364927511228
 20
-126.70192342131708
 30
0.0
 11
-44.63364927511228
 21
-114.47279968271154
 31
0.0
  0
LINE
  5
1AC
330
1A2
100
AcDbEntity
  8
0
 62
4
100
AcDbLine
 10
-44.63364927511228
 20
-107.86441957159055
 30
0.0
 11
-44.63364927511228
 21
-95.63529583298501
 31
0.0
  0
MTEXT
  5
1AD
330
1A2
100
AcDbEntity
  8
OLCU
 62
3
100
AcDbMText
 10
-48.31700868131087
 20
-111.16860962715104
 30
0.0
 40
4.333364007292454
 71
5
  1
38
  7
PI3D
  0
POINT
  5
1AE
330
1A2
100
AcDbEntity
  8
Defpoints
100
AcDbPoint
 10
-44.63364927511228
 20
-130.16861462715104
 30
0.0
  0
POINT
  5
1AF
330
1A2
100
AcDbEntity
  8
Defpoints
100
AcDbPoint
 10
0.0
 20
-130.16861462715104
 30
0.0
  0
POINT
  5
1B0
330
1A2
100
AcDbEntity
  8
Defpoints
100
AcDbPoint
 10
0.0
 20
-92.16860462715104
 30
0.0
  0
ENDBLK
  5
1A4
330
1A2
100
AcDbEntity
  8
0
100
AcDbBlockEnd
  0
BLOCK
  5
1B3
330
1B2
100
AcDbEntity
  8
0
100
AcDbBlockBegin
  2
*D12
 70
1
 10
0.0
 20
0.0
 30
0.0
  3
*D12
  1

  0
LINE
  5
1B5
330
1B2
100
AcDbEntity
  8
0
 62
4
100
AcDbLine
 10
-2.166682003646227
 20
-130.16861462715104
 30
0.0
 11
-17.766792429899063
 21
-130.16861462715104
 31
0.0
  0
LINE
  5
1B6
330
1B2
100
AcDbEntity
  8
0
 62
4
100
AcDbLine
 10
-2.166682003646227
 20
-99.16860462715104
 30
0.0
 11
-17.766792429899063
 21
-99.16860462715104
 31
0.0
  0
INSERT
  5
1B7
330
1B2
100
AcDbEntity
  8
OLCU
 62
4
100
AcDbBlockReference
  2
_CLOSEDFILLED
 10
-15.16677402552359
 20
-130.16861462715104
 30
0.0
 41
3.4666912058339636
 42
3.4666912058339636
 50
270.0
  0
INSERT
  5
1B9
330
1B2
100
AcDbEntity
  8
OLCU
 62
4
100
AcDbBlockReference
  2
_CLOSEDFILLED
 10
-15.16677402552359
 20
-99.16860462715104
 30
0.0
 41
3.4666912058339636
 42
3.4666912058339636
 50
90.0
  0
LINE
  5
1BB
330
1B2
100
AcDbEntity
  8
0
 62
4
100
AcDbLine
 10
-15.16677402552359
 20
-126.70192342131708
 30
0.0
 11
-15.16677402552359
 21
-117.97279968271154
 31
0.0
  0
LINE
  5
1BC
330
1B2
100
AcDbEntity
  8
0
 62
4
100
AcDbLine
 10
-15.16677402552359
 20
-111.36441957159055
 30
0.0
 11
-15.16677402552359
 21
-102.63529583298501
 31
0.0
  0
MTEXT
  5
1BD
330
1B2
100
AcDbEntity
  8
OLCU
 62
3
100
AcDbMText
 10
-18.850133431722178
 20
-114.66860962715104
 30
0.0
 40
4.333364007292454
 71
5
  1
31
  7
PI3D
  0
POINT
  5
1BE
330
1B2
100
AcDbEntity
  8
Defpoints
100
AcDbPoint
 10
-15.16677402552359
 20
-130.16861462715104
 30
0.0
  0
POINT
  5
1BF
330
1B2
100
AcDbEntity
  8
Defpoints
100
AcDbPoint
 10
0.0
 20
-130.16861462715104
 30
0.0
  0
POINT
  5
1C0
330
1B2
100
AcDbEntity
  8
Defpoints
100
AcDbPoint
 10
0.0
 20
-99.16860462715104
 30
0.0
  0
ENDBLK
  5
1B4
330
1B2
100
AcDbEntity
  8
0
100
AcDbBlockEnd
  0
BLOCK
  5
1F3
330
1F2
100
AcDbEntity
  8
0
100
AcDbBlockBegin
  2
*D16
 70
1
 10
0.0
 20
0.0
 30
0.0
  3
*D16
  1

  0
LINE
  5
1F5
330
1F2
100
AcDbEntity
  8
0
 62
4
100
AcDbLine
 10
-2.166682003646227
 20
-130.16861462715104
 30
0.0
 11
-32.500230054693404
 21
-130.16861462715104
 31
0.0
  0
LINE
  5
1F6
330
1F2
100
AcDbEntity
  8
0
 62
4
100
AcDbLine
 10
-2.166682003646227
 20
-101.16830462715103
 30
0.0
 11
-32.500230054693404
 21
-101.16830462715103
 31
0.0
  0
INSERT
  5
1F7
330
1F2
100
AcDbEntity
  8
OLCU
 62
4
100
AcDbBlockReference
  2
_CLOSEDFILLED
 10
-29.90021165031793
 20
-130.16861462715104
 30
0.0
 41
3.4666912058339636
 42
3.4666912058339636
 50
270.0
  0
INSERT
  5
1F9
330
1F2
100
AcDbEntity
  8
OLCU
 62
4
100
AcDbBlockReference
  2
_CLOSEDFILLED
 10
-29.90021165031793
 20
-101.16830462715103
 30
0.0
 41
3.4666912058339636
 42
3.4666912058339636
 50
90.0
  0
LINE
  5
1FB
330
1F2
100
AcDbEntity
  8
0
 62
4
100
AcDbLine
 10
-29.90021165031793
 20
-126.70192342131708
 30
0.0
 11
-29.90021165031793
 21
-118.97264968271153
 31
0.0
  0
LINE
  5
1FC
330
1F2
100
AcDbEntity
  8
0
 62
4
100
AcDbLine
 10
-29.90021165031793
 20
-112.36426957159054
 30
0.0
 11
-29.90021165031793
 21
-104.634995832985
 31
0.0
  0
MTEXT
  5
1FD
330
1F2
100
AcDbEntity
  8
OLCU
 62
3
100
AcDbMText
 10
-33.58357105651652
 20
-115.66845962715104
 30
0.0
 40
4.333364007292454
 71
5
  1
29
  7
PI3D
  0
POINT
  5
1FE
330
1F2
100
AcDbEntity
  8
Defpoints
100
AcDbPoint
 10
-29.90021165031793
 20
-130.16861462715104
 30
0.0
  0
POINT
  5
1FF
330
1F2
100
AcDbEntity
  8
Defpoints
100
AcDbPoint
 10
0.0
 20
-130.16861462715104
 30
0.0
  0
POINT
  5
200
330
1F2
100
AcDbEntity
  8
Defpoints
100
AcDbPoint
 10
0.0
 20
-101.16830462715103
 30
0.0
  0
ENDBLK
  5
1F4
330
1F2
100
AcDbEntity
  8
0
100
AcDbBlockEnd
  0
BLOCK
  5
216
330
215
100
AcDbEntity
  8
0
100
AcDbBlockBegin
  2
*D17
 70
1
 10
0.0
 20
0.0
 30
0.0
  3
*D17
  1

  0
LINE
  5
218
330
215
100
AcDbEntity
  8
0
 62
4
100
AcDbLine
 10
0.0
 20
-2.166682003646227
 30
0.0
 11
0.0
 21
-12.133419220418872
 31
0.0
  0
LINE
  5
219
330
215
100
AcDbEntity
  8
0
 62
4
100
AcDbLine
 10
195.0
 20
-2.166682003646227
 30
0.0
 11
195.0
 21
-12.133419220418872
 31
0.0
  0
INSERT
  5
21A
330
215
100
AcDbEntity
  8
OLCU
 62
4
100
AcDbBlockReference
  2
_CLOSEDFILLED
 10
0.0
 20
-9.5334008160434
 30
0.0
 41
3.4666912058339636
 42
3.4666912058339636
 50
180.0
  0
INSERT
  5
21C
330
215
100
AcDbEntity
  8
OLCU
 62
4
100
AcDbBlockReference
  2
_CLOSEDFILLED
 10
195.0
 20
-9.5334008160434
 30
0.0
 41
3.4666912058339636
 42
3.4666912058339636
  0
LINE
  5
21E
330
215
100
AcDbEntity
  8
0
 62
4
100
AcDbLine
 10
3.4666912058339636
 20
-9.5334008160434
 30
0.0
 11
191.53330879416603
 21
-9.5334008160434
 31
0.0
  0
MTEXT
  5
21F
330
215
100
AcDbEntity
  8
OLCU
 62
3
100
AcDbMText
 10
97.5
 20
-5.850041409844814
 30
0.0
 40
4.333364007292454
 71
5
  1
195
  7
PI3D
  0
POINT
  5
220
330
215
100
AcDbEntity
  8
Defpoints
100
AcDbPoint
 10
0.0
 20
-9.5334008160434
 30
0.0
  0
POINT
  5
221
330
215
100
AcDbEntity
  8
Defpoints
100
AcDbPoint
 10
0.0
 20
0.0
 30
0.0
  0
POINT
  5
222
330
215
100
AcDbEntity
  8
Defpoints
100
AcDbPoint
 10
195.0
 20
0.0
 30
0.0
  0
ENDBLK
  5
217
330
215
100
AcDbEntity
  8
0
100
AcDbBlockEnd
  0
BLOCK
  5
236
330
235
100
AcDbEntity
  8
0
100
AcDbBlockBegin
  2
*D19
 70
1
 10
0.0
 20
0.0
 30
0.0
  3
*D19
  1

  0
LINE
  5
238
330
235
100
AcDbEntity
  8
0
 62
4
100
AcDbLine
 10
-2.166682003646227
 20
0.0
 30
0.0
 11
-19.500138032816047
 21
0.0
 31
0.0
  0
LINE
  5
239
330
235
100
AcDbEntity
  8
0
 62
4
100
AcDbLine
 10
-2.166682003646227
 20
8.0
 30
0.0
 11
-19.500138032816047
 21
8.0
 31
0.0
  0
INSERT
  5
23A
330
235
100
AcDbEntity
  8
OLCU
 62
4
100
AcDbBlockReference
  2
_CLOSEDFILLED
 10
-16.900119628440574
 20
0.0
 30
0.0
 41
3.4666912058339636
 42
3.4666912058339636
 50
90.0
  0
INSERT
  5
23C
330
235
100
AcDbEntity
  8
OLCU
 62
4
100
AcDbBlockReference
  2
_CLOSEDFILLED
 10
-16.900119628440574
 20
8.0
 30
0.0
 41
3.4666912058339636
 42
3.4666912058339636
 50
270.0
  0
LINE
  5
23E
330
235
100
AcDbEntity
  8
0
 62
4
100
AcDbLine
 10
-16.900119628440574
 20
-3.4666912058339636
 30
0.0
 11
-16.900119628440574
 21
-6.933382411667927
 31
0.0
  0
LINE
  5
23F
330
235
100
AcDbEntity
  8
0
 62
4
100
AcDbLine
 10
-16.900119628440574
 20
11.466691205833964
 30
0.0
 11
-16.900119628440574
 21
14.933382411667928
 31
0.0
  0
LINE
  5
240
330
235
100
AcDbEntity
  8
0
 62
4
100
AcDbLine
 10
-16.900119628440574
 20
0.0
 30
0.0
 11
-16.900119628440574
 21
8.0
 31
0.0
  0
MTEXT
  5
241
330
235
100
AcDbEntity
  8
OLCU
 62
3
100
AcDbMText
 10
-20.58347903463916
 20
4.0
 30
0.0
 40
4.333364007292454
 71
5
  1
8
  7
PI3D
 50
90.0
  0
POINT
  5
242
330
235
100
AcDbEntity
  8
Defpoints
100
AcDbPoint
 10
-16.900119628440574
 20
0.0
 30
0.0
  0
POINT
  5
243
330
235
100
AcDbEntity
  8
Defpoints
100
AcDbPoint
 10
0.0
 20
0.0
 30
0.0
  0
POINT
  5
244
330
235
100
AcDbEntity
  8
Defpoints
100
AcDbPoint
 10
0.0
 20
8.0
 30
0.0
  0
ENDBLK
  5
237
330
235
100
AcDbEntity
  8
0
100
AcDbBlockEnd
  0
BLOCK
  5
247
330
246
100
AcDbEntity
  8
0
100
AcDbBlockBegin
  2
*D20
 70
1
 10
0.0
 20
0.0
 30
0.0
  3
*D20
  1

  0
LINE
  5
249
330
246
100
AcDbEntity
  8
0
 62
4
100
AcDbLine
 10
-130.16861446307084
 20
-2.166682003646227
 30
0.0
 11
-130.16861446307084
 21
-12.133419220418872
 31
0.0
  0
LINE
  5
24A
330
246
100
AcDbEntity
  8
0
 62
4
100
AcDbLine
 10
-80.16861446307084
 20
-2.166682003646227
 30
0.0
 11
-80.16861446307084
 21
-12.133419220418872
 31
0.0
  0
INSERT
  5
24B
330
246
100
AcDbEntity
  8
OLCU
 62
4
100
AcDbBlockReference
  2
_CLOSEDFILLED
 10
-130.16861446307084
 20
-9.5334008160434
 30
0.0
 41
3.4666912058339636
 42
3.4666912058339636
 50
180.0
  0
INSERT
  5
24D
330
246
100
AcDbEntity
  8
OLCU
 62
4
100
AcDbBlockReference
  2
_CLOSEDFILLED
 10
-80.16861446307084
 20
-9.5334008160434
 30
0.0
 41
3.4666912058339636
 42
3.4666912058339636
  0
LINE
  5
24F
330
246
100
AcDbEntity
  8
0
 62
4
100
AcDbLine
 10
-126.70192325723687
 20
-9.5334008160434
 30
0.0
 11
-83.6353056689048
 21
-9.5334008160434
 31
0.0
  0
MTEXT
  5
250
330
246
100
AcDbEntity
  8
OLCU
 62
3
100
AcDbMText
 10
-105.16861446307084
 20
-5.850041409844814
 30
0.0
 40
4.333364007292454
 71
5
  1
50
  7
PI3D
  0
POINT
  5
251
330
246
100
AcDbEntity
  8
Defpoints
100
AcDbPoint
 10
-130.16861446307084
 20
-9.5334008160434
 30
0.0
  0
POINT
  5
252
330
246
100
AcDbEntity
  8
Defpoints
100
AcDbPoint
 10
-130.16861446307084
 20
0.0
 30
0.0
  0
POINT
  5
253
330
246
100
AcDbEntity
  8
Defpoints
100
AcDbPoint
 10
-80.16861446307084
 20
0.0
 30
0.0
  0
ENDBLK
  5
248
330
246
100
AcDbEntity
  8
0
100
AcDbBlockEnd
  0
BLOCK
  5
267
330
266
100
AcDbEntity
  8
0
100
AcDbBlockBegin
  2
*D22
 70
1
 10
0.0
 20
0.0
 30
0.0
  3
*D22
  1

  0
LINE
  5
269
330
266
100
AcDbEntity
  8
0
 62
4
100
AcDbLine
 10
-132.33529646671707
 20
0.0
 30
0.0
 11
-149.66875249588688
 21
0.0
 31
0.0
  0
LINE
  5
26A
330
266
100
AcDbEntity
  8
0
 62
4
100
AcDbLine
 10
-132.33529646671707
 20
8.0
 30
0.0
 11
-149.66875249588688
 21
8.0
 31
0.0
  0
INSERT
  5
26B
330
266
100
AcDbEntity
  8
OLCU
 62
4
100
AcDbBlockReference
  2
_CLOSEDFILLED
 10
-147.0687340915114
 20
0.0
 30
0.0
 41
3.4666912058339636
 42
3.4666912058339636
 50
90.0
  0
INSERT
  5
26D
330
266
100
AcDbEntity
  8
OLCU
 62
4
100
AcDbBlockReference
  2
_CLOSEDFILLED
 10
-147.0687340915114
 20
8.0
 30
0.0
 41
3.4666912058339636
 42
3.4666912058339636
 50
270.0
  0
LINE
  5
26F
330
266
100
AcDbEntity
  8
0
 62
4
100
AcDbLine
 10
-147.0687340915114
 20
-3.4666912058339636
 30
0.0
 11
-147.0687340915114
 21
-6.933382411667927
 31
0.0
  0
LINE
  5
270
330
266
100
AcDbEntity
  8
0
 62
4
100
AcDbLine
 10
-147.0687340915114
 20
11.466691205833964
 30
0.0
 11
-147.0687340915114
 21
14.933382411667928
 31
0.0
  0
LINE
  5
271
330
266
100
AcDbEntity
  8
0
 62
4
100
AcDbLine
 10
-147.0687340915114
 20
0.0
 30
0.0
 11
-147.0687340915114
 21
8.0
 31
0.0
  0
MTEXT
  5
272
330
266
100
AcDbEntity
  8
OLCU
 62
3
100
AcDbMText
 10
-150.75209349770998
 20
4.0
 30
0.0
 40
4.333364007292454
 71
5
  1
8
  7
PI3D
 50
90.0
  0
POINT
  5
273
330
266
100
AcDbEntity
  8
Defpoints
100
AcDbPoint
 10
-147.0687340915114
 20
0.0
 30
0.0
  0
POINT
  5
274
330
266
100
AcDbEntity
  8
Defpoints
100
AcDbPoint
 10
-130.16861446307084
 20
0.0
 30
0.0
  0
POINT
  5
275
330
266
100
AcDbEntity
  8
Defpoints
100
AcDbPoint
 10
-130.16861446307084
 20
8.0
 30
0.0
  0
ENDBLK
  5
268
330
266
100
AcDbEntity
  8
0
100
AcDbBlockEnd
  0
BLOCK
  5
278
330
277
100
AcDbEntity
  8
0
100
AcDbBlockBegin
  2
*D23
 70
1
 10
0.0
 20
0.0
 30
0.0
  3
*D23
  1

  0
LINE
  5
27A
330
277
100
AcDbEntity
  8
0
 62
4
100
AcDbLine
 10
275.1686144630708
 20
-2.166682003646227
 30
0.0
 11
275.1686144630708
 21
-12.133419220418872
 31
0.0
  0
LINE
  5
27B
330
277
100
AcDbEntity
  8
0
 62
4
100
AcDbLine
 10
325.1686144630708
 20
-2.166682003646227
 30
0.0
 11
325.1686144630708
 21
-12.133419220418872
 31
0.0
  0
INSERT
  5
27C
330
277
100
AcDbEntity
  8
OLCU
 62
4
100
AcDbBlockReference
  2
_CLOSEDFILLED
 10
275.1686144630708
 20
-9.5334008160434
 30
0.0
 41
3.4666912058339636
 42
3.4666912058339636
 50
180.0
  0
INSERT
  5
27E
330
277
100
AcDbEntity
  8
OLCU
 62
4
100
AcDbBlockReference
  2
_CLOSEDFILLED
 10
325.1686144630708
 20
-9.5334008160434
 30
0.0
 41
3.4666912058339636
 42
3.4666912058339636
  0
LINE
  5
280
330
277
100
AcDbEntity
  8
0
 62
4
100
AcDbLine
 10
278.6353056689048
 20
-9.5334008160434
 30
0.0
 11
321.70192325723684
 21
-9.5334008160434
 31
0.0
  0
MTEXT
  5
281
330
277
100
AcDbEntity
  8
OLCU
 62
3
100
AcDbMText
 10
300.1686144630708
 20
-5.850041409844814
 30
0.0
 40
4.333364007292454
 71
5
  1
50
  7
PI3D
  0
POINT
  5
282
330
277
100
AcDbEntity
  8
Defpoints
100
AcDbPoint
 10
275.1686144630708
 20
-9.5334008160434
 30
0.0
  0
POINT
  5
283
330
277
100
AcDbEntity
  8
Defpoints
100
AcDbPoint
 10
275.1686144630708
 20
0.0
 30
0.0
  0
POINT
  5
284
330
277
100
AcDbEntity
  8
Defpoints
100
AcDbPoint
 10
325.1686144630708
 20
0.0
 30
0.0
  0
ENDBLK
  5
279
330
277
100
AcDbEntity
  8
0
100
AcDbBlockEnd
  0
BLOCK
  5
287
330
286
100
AcDbEntity
  8
0
100
AcDbBlockBegin
  2
*D24
 70
1
 10
0.0
 20
0.0
 30
0.0
  3
*D24
  1

  0
LINE
  5
289
330
286
100
AcDbEntity
  8
0
 62
4
100
AcDbLine
 10
273.0019324594246
 20
0.0
 30
0.0
 11
263.0351952426519
 21
0.0
 31
0.0
  0
LINE
  5
28A
330
286
100
AcDbEntity
  8
0
 62
4
100
AcDbLine
 10
273.0019324594246
 20
8.0
 30
0.0
 11
263.0351952426519
 21
8.0
 31
0.0
  0
INSERT
  5
28B
330
286
100
AcDbEntity
  8
OLCU
 62
4
100
AcDbBlockReference
  2
_CLOSEDFILLED
 10
265.6352136470274
 20
0.0
 30
0.0
 41
3.4666912058339636
 42
3.4666912058339636
 50
90.0
  0
INSERT
  5
28D
330
286
100
AcDbEntity
  8
OLCU
 62
4
100
AcDbBlockReference
  2
_CLOSEDFILLED
 10
265.6352136470274
 20
8.0
 30
0.0
 41
3.4666912058339636
 42
3.4666912058339636
 50
270.0
  0
LINE
  5
28F
330
286
100
AcDbEntity
  8
0
 62
4
100
AcDbLine
 10
265.6352136470274
 20
-3.4666912058339636
 30
0.0
 11
265.6352136470274
 21
-6.933382411667927
 31
0.0
  0
LINE
  5
290
330
286
100
AcDbEntity
  8
0
 62
4
100
AcDbLine
 10
265.6352136470274
 20
11.466691205833964
 30
0.0
 11
265.6352136470274
 21
14.933382411667928
 31
0.0
  0
LINE
  5
291
330
286
100
AcDbEntity
  8
0
 62
4
100
AcDbLine
 10
265.6352136470274
 20
0.0
 30
0.0
 11
265.6352136470274
 21
8.0
 31
0.0
  0
MTEXT
  5
292
330
286
100
AcDbEntity
  8
OLCU
 62
3
100
AcDbMText
 10
261.9518542408288
 20
4.0
 30
0.0
 40
4.333364007292454
 71
5
  1
8
  7
PI3D
 50
90.0
  0
POINT
  5
293
330
286
100
AcDbEntity
  8
Defpoints
100
AcDbPoint
 10
265.6352136470274
 20
0.0
 30
0.0
  0
POINT
  5
294
330
286
100
AcDbEntity
  8
Defpoints
100
AcDbPoint
 10
275.1686144630708
 20
0.0
 30
0.0
  0
POINT
  5
295
330
286
100
AcDbEntity
  8
Defpoints
100
AcDbPoint
 10
275.1686144630708
 20
8.0
 30
0.0
  0
ENDBLK
  5
288
330
286
100
AcDbEntity
  8
0
100
AcDbBlockEnd
  0
BLOCK
  5
298
330
297
100
AcDbEntity
  8
0
100
AcDbBlockBegin
  2
*D25
 70
1
 10
0.0
 20
0.0
 30
0.0
  3
*D25
  1

  0
LINE
  5
29A
330
297
100
AcDbEntity
  8
0
 62
4
100
AcDbLine
 10
0.0
 20
-132.33529646671707
 30
0.0
 11
0.0
 21
-168.70377225531473
 31
0.0
  0
LINE
  5
29B
330
297
100
AcDbEntity
  8
0
 62
4
100
AcDbLine
 10
195.0
 20
-132.33529646671707
 30
0.0
 11
195.0
 21
-168.70377225531473
 31
0.0
  0
INSERT
  5
29C
330
297
100
AcDbEntity
  8
OLCU
 62
4
100
AcDbBlockReference
  2
_CLOSEDFILLED
 10
0.0
 20
-166.10375385093926
 30
0.0
 41
3.4666912058339636
 42
3.4666912058339636
 50
180.0
  0
INSERT
  5
29E
330
297
100
AcDbEntity
  8
OLCU
 62
4
100
AcDbBlockReference
  2
_CLOSEDFILLED
 10
195.0
 20
-166.10375385093926
 30
0.0
 41
3.4666912058339636
 42
3.4666912058339636
  0
LINE
  5
2A0
330
297
100
AcDbEntity
  8
0
 62
4
100
AcDbLine
 10
3.4666912058339636
 20
-166.10375385093926
 30
0.0
 11
191.53330879416603
 21
-166.10375385093926
 31
0.0
  0
MTEXT
  5
2A1
330
297
100
AcDbEntity
  8
OLCU
 62
3
100
AcDbMText
 10
97.5
 20
-162.42039444474068
 30
0.0
 40
4.333364007292454
 71
5
  1
195
  7
PI3D
  0
POINT
  5
2A2
330
297
100
AcDbEntity
  8
Defpoints
100
AcDbPoint
 10
0.0
 20
-166.10375385093926
 30
0.0
  0
POINT
  5
2A3
330
297
100
AcDbEntity
  8
Defpoints
100
AcDbPoint
 10
0.0
 20
-130.16861446307084
 30
0.0
  0
POINT
  5
2A4
330
297
100
AcDbEntity
  8
Defpoints
100
AcDbPoint
 10
195.0
 20
-130.16861446307084
 30
0.0
  0
ENDBLK
  5
299
330
297
100
AcDbEntity
  8
0
100
AcDbBlockEnd
  0
BLOCK
  5
2A7
330
2A6
100
AcDbEntity
  8
0
100
AcDbBlockBegin
  2
*D26
 70
1
 10
0.0
 20
0.0
 30
0.0
  3
*D26
  1

  0
LINE
  5
2A9
330
2A6
100
AcDbEntity
  8
0
 62
4
100
AcDbLine
 10
-2.166682003646227
 20
-130.16861446307084
 30
0.0
 11
-64.23232562544177
 21
-130.16861446307084
 31
0.0
  0
LINE
  5
2AA
330
2A6
100
AcDbEntity
  8
0
 62
4
100
AcDbLine
 10
-2.166682003646227
 20
-80.16861446307084
 30
0.0
 11
-64.23232562544177
 21
-80.16861446307084
 31
0.0
  0
INSERT
  5
2AB
330
2A6
100
AcDbEntity
  8
OLCU
 62
4
100
AcDbBlockReference
  2
_CLOSEDFILLED
 10
-61.6323072210663
 20
-130.16861446307084
 30
0.0
 41
3.4666912058339636
 42
3.4666912058339636
 50
270.0
  0
INSERT
  5
2AD
330
2A6
100
AcDbEntity
  8
OLCU
 62
4
100
AcDbBlockReference
  2
_CLOSEDFILLED
 10
-61.6323072210663
 20
-80.16861446307084
 30
0.0
 41
3.4666912058339636
 42
3.4666912058339636
 50
90.0
  0
LINE
  5
2AF
330
2A6
100
AcDbEntity
  8
0
 62
4
100
AcDbLine
 10
-61.6323072210663
 20
-126.70192325723687
 30
0.0
 11
-61.6323072210663
 21
-83.6353056689048
 31
0.0
  0
MTEXT
  5
2B0
330
2A6
100
AcDbEntity
  8
OLCU
 62
3
100
AcDbMText
 10
-65.31566662726489
 20
-105.16861446307084
 30
0.0
 40
4.333364007292454
 71
5
  1
50
  7
PI3D
 50
90.0
  0
POINT
  5
2B1
330
2A6
100
AcDbEntity
  8
Defpoints
100
AcDbPoint
 10
-61.6323072210663
 20
-130.16861446307084
 30
0.0
  0
POINT
  5
2B2
330
2A6
100
AcDbEntity
  8
Defpoints
100
AcDbPoint
 10
0.0
 20
-130.16861446307084
 30
0.0
  0
POINT
  5
2B3
330
2A6
100
AcDbEntity
  8
Defpoints
100
AcDbPoint
 10
0.0
 20
-80.16861446307084
 30
0.0
  0
ENDBLK
  5
2A8
330
2A6
100
AcDbEntity
  8
0
100
AcDbBlockEnd
  0
BLOCK
  5
2C2
330
2C1
100
AcDbEntity
  8
0
100
AcDbBlockBegin
  2
*D28
 70
1
 10
0.0
 20
0.0
 30
0.0
  3
*D28
  1

  0
INSERT
  5
2C4
330
2C1
100
AcDbEntity
  8
OLCU
 62
4
100
AcDbBlockReference
  2
_CLOSEDFILLED
 10
133.5000098359198
 20
-97.16860462715104
 30
0.0
 41
3.4666912058339636
 42
3.4666912058339636
 50
270.0
  0
LINE
  5
2C6
330
2C1
100
AcDbEntity
  8
0
 62
4
100
AcDbLine
 10
133.5000098359198
 20
-101.16860462715104
 30
0.0
 11
133.5000098359198
 21
-97.16860462715104
 31
0.0
  0
LINE
  5
2C7
330
2C1
100
AcDbEntity
  8
0
 62
4
100
AcDbLine
 10
133.5000098359198
 20
-93.70191342131707
 30
0.0
 11
133.5000098359198
 21
-66.83505657610385
 31
0.0
  0
LINE
  5
2C8
330
2C1
100
AcDbEntity
  8
0
 62
4
100
AcDbLine
 10
133.5000098359198
 20
-66.83505657610385
 30
0.0
 11
130.03331863008583
 21
-66.83505657610385
 31
0.0
  0
MTEXT
  5
2C9
330
2C1
100
AcDbEntity
  8
OLCU
 62
3
100
AcDbMText
 10
114.86654460456225
 20
-66.83505657610385
 30
0.0
 40
4.333364007292454
 71
5
  1
2x %%c8
  7
PI3D
  0
POINT
  5
2CA
330
2C1
100
AcDbEntity
  8
Defpoints
100
AcDbPoint
 10
133.5000098359198
 20
-101.16860462715104
 30
0.0
  0
POINT
  5
2CB
330
2C1
100
AcDbEntity
  8
Defpoints
100
AcDbPoint
 10
133.5000098359198
 20
-97.16860462715104
 30
0.0
  0
ENDBLK
  5
2C3
330
2C1
100
AcDbEntity
  8
0
100
AcDbBlockEnd
  0
BLOCK
  5
2CE
330
2CD
100
AcDbEntity
  8
0
100
AcDbBlockBegin
  2
*D29
 70
1
 10
0.0
 20
0.0
 30
0.0
  3
*D29
  1

  0
INSERT
  5
2D0
330
2CD
100
AcDbEntity
  8
OLCU
 62
4
100
AcDbBlockReference
  2
_CLOSEDFILLED
 10
8.499309835919789
 20
-92.16930462715104
 30
0.0
 41
3.4666912058339636
 42
3.4666912058339636
 50
270.0
  0
LINE
  5
2D2
330
2CD
100
AcDbEntity
  8
0
 62
4
100
AcDbLine
 10
8.499309835919789
 20
-93.16930462715104
 30
0.0
 11
8.499309835919789
 21
-92.16930462715104
 31
0.0
  0
LINE
  5
2D3
330
2CD
100
AcDbEntity
  8
0
 62
4
100
AcDbLine
 10
8.499309835919789
 20
-88.70261342131707
 30
0.0
 11
8.49930983591979
 21
-61.835756576103854
 31
0.0
  0
LINE
  5
2D4
330
2CD
100
AcDbEntity
  8
0
 62
4
100
AcDbLine
 10
8.49930983591979
 20
-61.835756576103854
 30
0.0
 11
11.966001041753755
 21
-61.835756576103854
 31
0.0
  0
MTEXT
  5
2D5
330
2CD
100
AcDbEntity
  8
OLCU
 62
3
100
AcDbMText
 10
22.79941105998489
 20
-61.835756576103854
 30
0.0
 40
4.333364007292454
 71
5
  1
8x R1
  7
PI3D
  0
POINT
  5
2D6
330
2CD
100
AcDbEntity
  8
Defpoints
100
AcDbPoint
 10
8.499309835919789
 20
-93.16930462715104
 30
0.0
  0
POINT
  5
2D7
330
2CD
100
AcDbEntity
  8
Defpoints
100
AcDbPoint
 10
8.499309835919789
 20
-92.16930462715104
 30
0.0
  0
ENDBLK
  5
2CF
330
2CD
100
AcDbEntity
  8
0
100
AcDbBlockEnd
  0
BLOCK
  5
2F3
330
2F2
100
AcDbEntity
  8
0
100
AcDbBlockBegin
  2
*D30
 70
1
 10
0.0
 20
0.0
 30
0.0
  3
*D30
  1

  0
LINE
  5
2F5
330
2F2
100
AcDbEntity
  8
0
 62
4
100
AcDbLine
 10
405.3372289261417
 20
-2.166682003646227
 30
0.0
 11
405.3372289261417
 21
-19.93347443354529
 31
0.0
  0
LINE
  5
2F6
330
2F2
100
AcDbEntity
  8
0
 62
4
100
AcDbLine
 10
600.3372289261417
 20
-2.166682003646227
 30
0.0
 11
600.3372289261417
 21
-19.93347443354529
 31
0.0
  0
INSERT
  5
2F7
330
2F2
100
AcDbEntity
  8
OLCU
 62
4
100
AcDbBlockReference
  2
_CLOSEDFILLED
 10
405.3372289261417
 20
-17.333456029169817
 30
0.0
 41
3.4666912058339636
 42
3.4666912058339636
 50
180.0
  0
INSERT
  5
2F9
330
2F2
100
AcDbEntity
  8
OLCU
 62
4
100
AcDbBlockReference
  2
_CLOSEDFILLED
 10
600.3372289261417
 20
-17.333456029169817
 30
0.0
 41
3.4666912058339636
 42
3.4666912058339636
  0
LINE
  5
2FB
330
2F2
100
AcDbEntity
  8
0
 62
4
100
AcDbLine
 10
408.80392013197564
 20
-17.333456029169817
 30
0.0
 11
596.8705377203078
 21
-17.333456029169817
 31
0.0
  0
MTEXT
  5
2FC
330
2F2
100
AcDbEntity
  8
OLCU
 62
3
100
AcDbMText
 10
502.83722892614173
 20
-13.65009662297123
 30
0.0
 40
4.333364007292454
 71
5
  1
195
  7
PI3D
  0
POINT
  5
2FD
330
2F2
100
AcDbEntity
  8
Defpoints
100
AcDbPoint
 10
405.3372289261417
 20
-17.333456029169817
 30
0.0
  0
POINT
  5
2FE
330
2F2
100
AcDbEntity
  8
Defpoints
100
AcDbPoint
 10
405.3372289261417
 20
0.0
 30
0.0
  0
POINT
  5
2FF
330
2F2
100
AcDbEntity
  8
Defpoints
100
AcDbPoint
 10
600.3372289261417
 20
0.0
 30
0.0
  0
ENDBLK
  5
2F4
330
2F2
100
AcDbEntity
  8
0
100
AcDbBlockEnd
  0
BLOCK
  5
302
330
301
100
AcDbEntity
  8
0
100
AcDbBlockBegin
  2
*D31
 70
1
 10
0.0
 20
0.0
 30
0.0
  3
*D31
  1

  0
LINE
  5
304
330
301
100
AcDbEntity
  8
0
 62
4
100
AcDbLine
 10
403.1705469224955
 20
0.0
 30
0.0
 11
385.40375449259636
 21
0.0
 31
0.0
  0
LINE
  5
305
330
301
100
AcDbEntity
  8
0
 62
4
100
AcDbLine
 10
403.1705469224955
 20
8.0000006
 30
0.0
 11
385.40375449259636
 21
8.0000006
 31
0.0
  0
INSERT
  5
306
330
301
100
AcDbEntity
  8
OLCU
 62
4
100
AcDbBlockReference
  2
_CLOSEDFILLED
 10
388.00377289697184
 20
0.0
 30
0.0
 41
3.4666912058339636
 42
3.4666912058339636
 50
90.0
  0
INSERT
  5
308
330
301
100
AcDbEntity
  8
OLCU
 62
4
100
AcDbBlockReference
  2
_CLOSEDFILLED
 10
388.00377289697184
 20
8.0000006
 30
0.0
 41
3.4666912058339636
 42
3.4666912058339636
 50
270.0
  0
LINE
  5
30A
330
301
100
AcDbEntity
  8
0
 62
4
100
AcDbLine
 10
388.00377289697184
 20
-3.4666912058339636
 30
0.0
 11
388.00377289697184
 21
-6.933382411667927
 31
0.0
  0
LINE
  5
30B
330
301
100
AcDbEntity
  8
0
 62
4
100
AcDbLine
 10
388.00377289697184
 20
11.466691805833964
 30
0.0
 11
388.00377289697184
 21
14.933383011667928
 31
0.0
  0
LINE
  5
30C
330
301
100
AcDbEntity
  8
0
 62
4
100
AcDbLine
 10
388.00377289697184
 20
0.0
 30
0.0
 11
388.00377289697184
 21
8.0000006
 31
0.0
  0
MTEXT
  5
30D
330
301
100
AcDbEntity
  8
OLCU
 62
3
100
AcDbMText
 10
384.32041349077326
 20
4.0000003
 30
0.0
 40
4.333364007292454
 71
5
  1
8
  7
PI3D
 50
90.0
  0
POINT
  5
30E
330
301
100
AcDbEntity
  8
Defpoints
100
AcDbPoint
 10
388.00377289697184
 20
0.0
 30
0.0
  0
POINT
  5
30F
330
301
100
AcDbEntity
  8
Defpoints
100
AcDbPoint
 10
405.3372289261417
 20
0.0
 30
0.0
  0
POINT
  5
310
330
301
100
AcDbEntity
  8
Defpoints
100
AcDbPoint
 10
405.3372289261417
 20
8.0000006
 30
0.0
  0
ENDBLK
  5
303
330
301
100
AcDbEntity
  8
0
100
AcDbBlockEnd
  0
BLOCK
  5
34C
330
34B
100
AcDbEntity
  8
0
100
AcDbBlockBegin
  2
*Paper_Space
 70
0
 10
0.0
 20
0.0
 30
0.0
  3
*Paper_Space
  1

  0
ENDBLK
  5
34D
330
34B
100
AcDbEntity
  8
0
100
AcDbBlockEnd
  0
BLOCK
  5
1C
330
1B
100
AcDbEntity
  8
0
100
AcDbBlockBegin
  2
*Paper_Space0
 70
0
 10
0.0
 20
0.0
 30
0.0
  3
*Paper_Space0
  1

  0
ENDBLK
  5
1D
330
1B
100
AcDbEntity
  8
0
100
AcDbBlockEnd
  0
ENDSEC
  0
SECTION
  2
ENTITIES
  0
LWPOLYLINE
  5
3A
330
17
100
AcDbEntity
  8
GORUNEN
100
AcDbPolyline
 90
2
 70
0
 10
195.0
 20
0.0
 10
190.0
 20
0.0
  0
LWPOLYLINE
  5
3B
330
17
100
AcDbEntity
  8
GORUNEN
100
AcDbPolyline
 90
2
 70
0
 10
190.0
 20
0.0
 10
4.999999999999986
 20
0.0
  0
LWPOLYLINE
  5
3C
330
17
100
AcDbEntity
  8
GORUNEN
100
AcDbPolyline
 90
2
 70
0
 10
0.0
 20
0.0
 10
5.0
 20
0.0
  0
LWPOLYLINE
  5
3D
330
17
100
AcDbEntity
  8
GORUNEN
100
AcDbPolyline
 90
2
 70
0
 10
4.440892098500626e-16
 20
8.0
 10
5.0
 20
8.0
  0
LWPOLYLINE
  5
3E
330
17
100
AcDbEntity
  8
GORUNEN
100
AcDbPolyline
 90
2
 70
0
 10
5.0
 20
8.0
 10
190.0
 20
8.0
  0
LWPOLYLINE
  5
3F
330
17
100
AcDbEntity
  8
GORUNEN
100
AcDbPolyline
 90
2
 70
0
 10
195.0
 20
8.0
 10
190.0
 20
8.0
  0
LWPOLYLINE
  5
40
330
17
100
AcDbEntity
  8
GORUNEN
100
AcDbPolyline
 90
2
 70
0
 10
4.440892098500626e-16
 20
8.0
 10
4.440892098500626e-16
 20
0.0
  0
LWPOLYLINE
  5
41
330
17
100
AcDbEntity
  8
GORUNEN
100
AcDbPolyline
 90
2
 70
0
 10
5.0
 20
8.0
 10
5.0
 20
0.0
  0
LWPOLYLINE
  5
42
330
17
100
AcDbEntity
  8
GORUNEN
100
AcDbPolyline
 90
2
 70
0
 10
190.0
 20
8.0
 10
190.0
 20
0.0
  0
LWPOLYLINE
  5
43
330
17
100
AcDbEntity
  8
GORUNEN
100
AcDbPolyline
 90
2
 70
0
 10
195.0
 20
8.0
 10
195.0
 20
0.0
  0
LWPOLYLINE
  5
44
330
17
100
AcDbEntity
  8
GIZLI
100
AcDbPolyline
 90
2
 70
0
 10
57.49999999999999
 20
0.0
 10
57.49999999999999
 20
8.0
  0
LWPOLYLINE
  5
45
330
17
100
AcDbEntity
  8
GIZLI
100
AcDbPolyline
 90
2
 70
0
 10
65.49999999999999
 20
0.0
 10
65.49999999999999
 20
8.0
  0
LWPOLYLINE
  5
46
330
17
100
AcDbEntity
  8
GIZLI
100
AcDbPolyline
 90
2
 70
0
 10
137.5
 20
0.0
 10
137.5
 20
8.0
  0
LWPOLYLINE
  5
47
330
17
100
AcDbEntity
  8
GIZLI
100
AcDbPolyline
 90
2
 70
0
 10
129.5
 20
0.0
 10
129.5
 20
8.0
  0
LWPOLYLINE
  5
48
330
17
100
AcDbEntity
  8
GIZLI
100
AcDbPolyline
 90
2
 70
0
 10
7.5
 20
0.0
 10
7.5
 20
8.0
  0
LWPOLYLINE
  5
49
330
17
100
AcDbEntity
  8
GIZLI
100
AcDbPolyline
 90
2
 70
0
 10
7.499999999999986
 20
0.0
 10
7.499999999999986
 20
8.0
  0
LWPOLYLINE
  5
4A
330
17
100
AcDbEntity
  8
GIZLI
100
AcDbPolyline
 90
2
 70
0
 10
42.49999999999999
 20
0.0
 10
42.49999999999999
 20
8.0
  0
LWPOLYLINE
  5
4B
330
17
100
AcDbEntity
  8
GIZLI
100
AcDbPolyline
 90
2
 70
0
 10
42.49999999999999
 20
0.0
 10
42.49999999999999
 20
8.0
  0
LWPOLYLINE
  5
4C
330
17
100
AcDbEntity
  8
GIZLI
100
AcDbPolyline
 90
2
 70
0
 10
152.5
 20
0.0
 10
152.5
 20
8.0
  0
LWPOLYLINE
  5
4D
330
17
100
AcDbEntity
  8
GIZLI
100
AcDbPolyline
 90
2
 70
0
 10
152.5
 20
0.0
 10
152.5
 20
8.0
  0
LWPOLYLINE
  5
4E
330
17
100
AcDbEntity
  8
GIZLI
100
AcDbPolyline
 90
2
 70
0
 10
187.5
 20
0.0
 10
187.5
 20
8.0
  0
LWPOLYLINE
  5
4F
330
17
100
AcDbEntity
  8
GIZLI
100
AcDbPolyline
 90
2
 70
0
 10
187.5
 20
0.0
 10
187.5
 20
8.0
  0
TEXT
  5
50
330
17
100
AcDbEntity
  8
YAZI
100
AcDbText
 10
0.0
 20
11.033354805104718
 30
0.0
 40
5.63337320948019
  1
ÖN
  7
PI3D
 11
0.0
 21
11.033354805104718
 31
0.0
100
AcDbText
  0
LWPOLYLINE
  5
51
330
17
100
AcDbEntity
  8
GORUNEN
100
AcDbPolyline
 90
2
 70
0
 10
-89.07504259560082
 20
0.0
 10
-125.16861446307082
 20
0.0
  0
LWPOLYLINE
  5
52
330
17
100
AcDbEntity
  8
GORUNEN
100
AcDbPolyline
 90
2
 70
0
 10
-125.16861446307082
 20
0.0
 10
-130.16861446307084
 20
0.0
  0
LWPOLYLINE
  5
53
330
17
100
AcDbEntity
  8
GORUNEN
100
AcDbPolyline
 90
2
 70
0
 10
-80.76271024596365
 20
0.0
 10
-80.16861446307081
 20
0.0
  0
LWPOLYLINE
  5
54
330
17
100
AcDbEntity
  8
GORUNEN
100
AcDbPolyline
 90
2
 70
0
 10
-84.22356911842701
 20
0.0
 10
-80.76271024591449
 20
0.0
  0
LWPOLYLINE
  5
55
330
17
100
AcDbEntity
  8
GORUNEN
100
AcDbPolyline
 90
2
 70
0
 10
-89.07504259560082
 20
0.0
 10
-84.22356911847709
 20
0.0
  0
LWPOLYLINE
  5
56
330
17
100
AcDbEntity
  8
GORUNEN
100
AcDbPolyline
 90
2
 70
0
 10
-125.16861446307082
 20
8.0
 10
-130.1686144630708
 20
8.0
  0
LWPOLYLINE
  5
57
330
17
100
AcDbEntity
  8
GORUNEN
100
AcDbPolyline
 90
2
 70
0
 10
-125.16861446307082
 20
8.0
 10
-89.07504259560082
 20
8.0
  0
LWPOLYLINE
  5
58
330
17
100
AcDbEntity
  8
GORUNEN
100
AcDbPolyline
 90
2
 70
0
 10
-89.07504259560082
 20
8.0
 10
-84.22356911849081
 20
8.0
  0
LWPOLYLINE
  5
59
330
17
100
AcDbEntity
  8
GORUNEN
100
AcDbPolyline
 90
2
 70
0
 10
-84.22356911844082
 20
8.0
 10
-80.76271024592782
 20
8.0
  0
LWPOLYLINE
  5
5A
330
17
100
AcDbEntity
  8
GORUNEN
100
AcDbPolyline
 90
2
 70
0
 10
-80.76271024597182
 20
8.0
 10
-80.16861446307084
 20
8.0
  0
LWPOLYLINE
  5
5B
330
17
100
AcDbEntity
  8
GORUNEN
100
AcDbPolyline
 90
2
 70
0
 10
-80.16861446307081
 20
0.0
 10
-80.16861446307081
 20
8.0
  0
LWPOLYLINE
  5
5C
330
17
100
AcDbEntity
  8
GORUNEN
100
AcDbPolyline
 90
2
 70
0
 10
-130.1686144630708
 20
8.0
 10
-130.1686144630708
 20
0.0
  0
LWPOLYLINE
  5
5D
330
17
100
AcDbEntity
  8
GORUNEN
100
AcDbPolyline
 90
2
 70
0
 10
-125.16861446307081
 20
8.0
 10
-125.16861446307081
 20
0.0
  0
LWPOLYLINE
  5
5E
330
17
100
AcDbEntity
  8
GIZLI
100
AcDbPolyline
 90
2
 70
0
 10
-99.16861446307082
 20
0.0
 10
-99.16861446307082
 20
8.0
  0
LWPOLYLINE
  5
5F
330
17
100
AcDbEntity
  8
GIZLI
100
AcDbPolyline
 90
2
 70
0
 10
-99.16861446307082
 20
8.0
 10
-99.16861446307082
 20
0.0
  0
LWPOLYLINE
  5
60
330
17
100
AcDbEntity
  8
GIZLI
100
AcDbPolyline
 90
2
 70
0
 10
-92.16861446307082
 20
0.0
 10
-92.16861446307082
 20
8.0
  0
LWPOLYLINE
  5
61
330
17
100
AcDbEntity
  8
GIZLI
100
AcDbPolyline
 90
2
 70
0
 10
-92.16861446307082
 20
0.0
 10
-92.16861446307082
 20
8.0
  0
LWPOLYLINE
  5
62
330
17
100
AcDbEntity
  8
GIZLI
100
AcDbPolyline
 90
2
 70
0
 10
-99.16861446307084
 20
0.0
 10
-99.16861446307084
 20
8.0
  0
LWPOLYLINE
  5
63
330
17
100
AcDbEntity
  8
GIZLI
100
AcDbPolyline
 90
2
 70
0
 10
-92.16861446307082
 20
0.0
 10
-92.16861446307082
 20
8.0
  0
LWPOLYLINE
  5
64
330
17
100
AcDbEntity
  8
GIZLI
100
AcDbPolyline
 90
2
 70
0
 10
-92.16861446307082
 20
0.0
 10
-92.16861446307082
 20
8.0
  0
LWPOLYLINE
  5
65
330
17
100
AcDbEntity
  8
GIZLI
100
AcDbPolyline
 90
2
 70
0
 10
-99.16861446307082
 20
0.0
 10
-99.16861446307082
 20
8.0
  0
LWPOLYLINE
  5
66
330
17
100
AcDbEntity
  8
GIZLI
100
AcDbPolyline
 90
2
 70
0
 10
-97.16861446307082
 20
0.0
 10
-97.16861446307082
 20
8.0
  0
LWPOLYLINE
  5
67
330
17
100
AcDbEntity
  8
GIZLI
100
AcDbPolyline
 90
2
 70
0
 10
-105.16861446307082
 20
0.0
 10
-105.16861446307082
 20
8.0
  0
LWPOLYLINE
  5
68
330
17
100
AcDbEntity
  8
GIZLI
100
AcDbPolyline
 90
2
 70
0
 10
-105.16861446307081
 20
0.0
 10
-105.16861446307081
 20
8.0
  0
LWPOLYLINE
  5
69
330
17
100
AcDbEntity
  8
GIZLI
100
AcDbPolyline
 90
2
 70
0
 10
-97.16861446307081
 20
0.0
 10
-97.16861446307081
 20
8.0
  0
TEXT
  5
6A
330
17
100
AcDbEntity
  8
YAZI
100
AcDbText
 10
-130.16861446307084
 20
11.033354805104718
 30
0.0
 40
5.63337320948019
  1
SAĞ
  7
PI3D
 11
-130.16861446307084
 21
11.033354805104718
 31
0.0
100
AcDbText
  0
LWPOLYLINE
  5
6B
330
17
100
AcDbEntity
  8
GORUNEN
100
AcDbPolyline
 90
2
 70
0
 10
320.1686144630708
 20
0.0
 10
325.1686144630708
 20
0.0
  0
LWPOLYLINE
  5
6C
330
17
100
AcDbEntity
  8
GORUNEN
100
AcDbPolyline
 90
2
 70
0
 10
284.0750425956008
 20
0.0
 10
320.1686144630708
 20
0.0
  0
LWPOLYLINE
  5
6D
330
17
100
AcDbEntity
  8
GORUNEN
100
AcDbPolyline
 90
2
 70
0
 10
279.22356911825
 20
0.0
 10
284.0750425956008
 20
0.0
  0
LWPOLYLINE
  5
6E
330
17
100
AcDbEntity
  8
GORUNEN
100
AcDbPolyline
 90
2
 70
0
 10
279.2235691182126
 20
0.0
 10
275.76271024500795
 20
0.0
  0
LWPOLYLINE
  5
6F
330
17
100
AcDbEntity
  8
GORUNEN
100
AcDbPolyline
 90
2
 70
0
 10
275.1686144630708
 20
0.0
 10
275.7627102450444
 20
0.0
  0
LWPOLYLINE
  5
70
330
17
100
AcDbEntity
  8
GORUNEN
100
AcDbPolyline
 90
2
 70
0
 10
279.2235691182208
 20
8.0
 10
275.7627102450178
 20
8.0
  0
LWPOLYLINE
  5
71
330
17
100
AcDbEntity
  8
GORUNEN
100
AcDbPolyline
 90
2
 70
0
 10
279.2235691182608
 20
8.0
 10
284.0750425956008
 20
8.0
  0
LWPOLYLINE
  5
72
330
17
100
AcDbEntity
  8
GORUNEN
100
AcDbPolyline
 90
2
 70
0
 10
320.1686144630708
 20
8.0
 10
284.0750425956008
 20
8.0
  0
LWPOLYLINE
  5
73
330
17
100
AcDbEntity
  8
GORUNEN
100
AcDbPolyline
 90
2
 70
0
 10
320.1686144630708
 20
8.0
 10
325.1686144630708
 20
8.0
  0
LWPOLYLINE
  5
74
330
17
100
AcDbEntity
  8
GORUNEN
100
AcDbPolyline
 90
2
 70
0
 10
275.1686144630708
 20
8.0
 10
275.7627102450618
 20
8.0
  0
LWPOLYLINE
  5
75
330
17
100
AcDbEntity
  8
GORUNEN
100
AcDbPolyline
 90
2
 70
0
 10
275.1686144630708
 20
0.0
 10
275.1686144630708
 20
8.0
  0
LWPOLYLINE
  5
76
330
17
100
AcDbEntity
  8
GORUNEN
100
AcDbPolyline
 90
2
 70
0
 10
275.1686144630708
 20
0.0
 10
275.1686144630708
 20
8.0
  0
LWPOLYLINE
  5
77
330
17
100
AcDbEntity
  8
GORUNEN
100
AcDbPolyline
 90
2
 70
0
 10
320.1686144624708
 20
8.0
 10
320.1686144624708
 20
0.0
  0
LWPOLYLINE
  5
78
330
17
100
AcDbEntity
  8
GORUNEN
100
AcDbPolyline
 90
2
 70
0
 10
325.1686144630708
 20
8.0
 10
325.1686144630708
 20
0.0
  0
LWPOLYLINE
  5
79
330
17
100
AcDbEntity
  8
GIZLI
100
AcDbPolyline
 90
2
 70
0
 10
294.1686144630708
 20
0.0
 10
294.1686144630708
 20
8.0
  0
LWPOLYLINE
  5
7A
330
17
100
AcDbEntity
  8
GIZLI
100
AcDbPolyline
 90
2
 70
0
 10
294.1686144630708
 20
8.0
 10
294.1686144630708
 20
0.0
  0
LWPOLYLINE
  5
7B
330
17
100
AcDbEntity
  8
GIZLI
100
AcDbPolyline
 90
2
 70
0
 10
287.1686144630708
 20
0.0
 10
287.1686144630708
 20
8.0
  0
LWPOLYLINE
  5
7C
330
17
100
AcDbEntity
  8
GIZLI
100
AcDbPolyline
 90
2
 70
0
 10
287.1686144630708
 20
0.0
 10
287.1686144630708
 20
8.0
  0
LWPOLYLINE
  5
7D
330
17
100
AcDbEntity
  8
GIZLI
100
AcDbPolyline
 90
2
 70
0
 10
294.1686144630708
 20
0.0
 10
294.1686144630708
 20
8.0
  0
LWPOLYLINE
  5
7E
330
17
100
AcDbEntity
  8
GIZLI
100
AcDbPolyline
 90
2
 70
0
 10
287.1686144630708
 20
0.0
 10
287.1686144630708
 20
8.0
  0
LWPOLYLINE
  5
7F
330
17
100
AcDbEntity
  8
GIZLI
100
AcDbPolyline
 90
2
 70
0
 10
287.1686144630708
 20
0.0
 10
287.1686144630708
 20
8.0
  0
LWPOLYLINE
  5
80
330
17
100
AcDbEntity
  8
GIZLI
100
AcDbPolyline
 90
2
 70
0
 10
294.1686144630708
 20
0.0
 10
294.1686144630708
 20
8.0
  0
LWPOLYLINE
  5
81
330
17
100
AcDbEntity
  8
GIZLI
100
AcDbPolyline
 90
2
 70
0
 10
292.1686144630708
 20
0.0
 10
292.1686144630708
 20
8.0
  0
LWPOLYLINE
  5
82
330
17
100
AcDbEntity
  8
GIZLI
100
AcDbPolyline
 90
2
 70
0
 10
300.1686144630708
 20
0.0
 10
300.1686144630708
 20
8.0
  0
LWPOLYLINE
  5
83
330
17
100
AcDbEntity
  8
GIZLI
100
AcDbPolyline
 90
2
 70
0
 10
300.1686144630708
 20
0.0
 10
300.1686144630708
 20
8.0
  0
LWPOLYLINE
  5
84
330
17
100
AcDbEntity
  8
GIZLI
100
AcDbPolyline
 90
2
 70
0
 10
292.1686144630708
 20
0.0
 10
292.1686144630708
 20
8.0
  0
TEXT
  5
85
330
17
100
AcDbEntity
  8
YAZI
100
AcDbText
 10
275.1686144630708
 20
11.033354805104718
 30
0.0
 40
5.63337320948019
  1
SOL
  7
PI3D
 11
275.1686144630708
 21
11.033354805104718
 31
0.0
100
AcDbText
  0
LWPOLYLINE
  5
86
330
17
100
AcDbEntity
  8
GORUNEN
100
AcDbPolyline
 90
64
 70
0
 10
65.49999999999999
 20
-101.16861446307082
 10
65.49502768487568
 20
-100.96923092042803
 10
65.4801231014616
 20
-100.77034307668755
 10
65.4553233049005
 20
-100.57244539836613
 10
65.42068995139417
 20
-100.37602989027323
 10
65.3763091449163
 20
-100.18158487230966
 10
65.32229122314456
 20
-99.9895937654272
 10
65.25877048314362
 20
-99.80053388976815
 10
65.18590484748162
 20
-99.61487527797205
 10
65.10387547160967
 20
-99.43307950660059
 10
65.0128862934809
 20
-99.25559854858555
 10
64.91316352652862
 20
-99.08287364955282
 10
64.80495509726397
 20
-98.91533423081634
 10
64.68853002889168
 20
-98.75339682176892
 10
64.5641777724759
 20
-98.59746402432467
 10
64.4322074873193
 20
-98.44792351198714
 10
64.29294727234428
 20
-98.30514706603195
 10
64.14674335038742
 20
-98.16948965119988
 10
63.993959207434926
 20
-98.0412885331987
 10
63.834974688939155
 20
-97.9208624402074
 10
63.67018505546303
 20
-97.80851077046773
 10
63.49999999999999
 20
-97.70451284793307
 10
63.32484262941264
 20
-97.60912722782496
 10
63.14514841252244
 20
-97.52259105382413
 10
62.96136409746558
 20
-97.445119468494
 10
62.773946601006735
 20
-97.3769050784023
 10
62.58336187257201
 20
-97.31811747527078
 10
62.39008373582525
 20
-97.26890281434353
 10
62.19459271066771
 20
-97.22938345102199
 10
61.99737481858993
 20
-97.19965763667014
 10
61.79892037434569
 20
-97.1797992743461
 10
61.59972276695229
 20
-97.16985773506755
 10
61.4002772330477
 20
-97.16985773506755
 10
61.2010796256543
 20
-97.1797992743461
 10
61.00262518141005
 20
-97.19965763667014
 10
60.80540728933227
 20
-97.22938345102199
 10
60.609916264174736
 20
-97.26890281434353
 10
60.41663812742797
 20
-97.31811747527078
 10
60.22605339899326
 20
-97.3769050784023
 10
60.038635902534416
 20
-97.445119468494
 10
59.85485158747755
 20
-97.52259105382413
 10
59.67515737058734
 20
-97.60912722782496
 10
59.49999999999999
 20
-97.70451284793307
 10
59.329814944536956
 20
-97.80851077046773
 10
59.16502531106084
 20
-97.9208624402074
 10
59.00604079256506
 20
-98.0412885331987
 10
58.853256649612554
 20
-98.16948965119988
 10
58.7070527276557
 20
-98.30514706603195
 10
58.56779251268068
 20
-98.44792351198714
 10
58.43582222752408
 20
-98.59746402432467
 10
58.3114699711083
 20
-98.75339682176892
 10
58.19504490273601
 20
-98.91533423081634
 10
58.086836473471365
 20
-99.08287364955284
 10
57.987113706519075
 20
-99.25559854858555
 10
57.89612452839032
 20
-99.43307950660059
 10
57.81409515251836
 20
-99.61487527797206
 10
57.74122951685636
 20
-99.80053388976816
 10
57.677708776855425
 20
-99.98959376542722
 10
57.62369085508368
 20
-100.18158487230966
 10
57.57931004860581
 20
-100.37602989027324
 10
57.544676695099476
 20
-100.57244539836614
 10
57.519876898538385
 20
-100.77034307668757
 10
57.504972315124306
 20
-100.96923092042805
 10
57.49999999999999
 20
-101.16861446307082
  0
LWPOLYLINE
  5
87
330
17
100
AcDbEntity
  8
GORUNEN
100
AcDbPolyline
 90
64
 70
0
 10
57.49999999999999
 20
-101.16861446307082
 10
57.504972315124306
 20
-101.36799800571362
 10
57.519876898538385
 20
-101.5668858494541
 10
57.544676695099476
 20
-101.76478352777552
 10
57.57931004860582
 20
-101.96119903586842
 10
57.62369085508368
 20
-102.155644053832
 10
57.67770877685543
 20
-102.34763516071445
 10
57.741229516856365
 20
-102.5366950363735
 10
57.81409515251836
 20
-102.72235364816962
 10
57.89612452839032
 20
-102.90414941954106
 10
57.98711370651908
 20
-103.08163037755611
 10
58.08683647347137
 20
-103.25435527658883
 10
58.195044902736015
 20
-103.42189469532532
 10
58.31146997110831
 20
-103.58383210437275
 10
58.435822227524085
 20
-103.73976490181698
 10
58.5677925126807
 20
-103.8893054141545
 10
58.70705272765571
 20
-104.03208186010971
 10
58.85325664961256
 20
-104.16773927494177
 10
59.00604079256507
 20
-104.29594039294295
 10
59.165025311060845
 20
-104.41636648593426
 10
59.32981494453697
 20
-104.52871815567391
 10
59.50000000000001
 20
-104.63271607820859
 10
59.67515737058736
 20
-104.7281016983167
 10
59.85485158747756
 20
-104.81463787231752
 10
60.03863590253443
 20
-104.89210945764765
 10
60.22605339899327
 20
-104.96032384773936
 10
60.416638127427994
 20
-105.01911145087088
 10
60.60991626417476
 20
-105.06832611179811
 10
60.805407289332294
 20
-105.10784547511966
 10
61.002625181410075
 20
-105.13757128947151
 10
61.201079625654316
 20
-105.15742965179555
 10
61.400277233047724
 20
-105.1673711910741
 10
61.59972276695231
 20
-105.1673711910741
 10
61.79892037434571
 20
-105.15742965179554
 10
61.99737481858996
 20
-105.13757128947151
 10
62.19459271066774
 20
-105.10784547511966
 10
62.39008373582528
 20
-105.06832611179811
 10
62.58336187257204
 20
-105.01911145087087
 10
62.773946601006756
 20
-104.96032384773935
 10
62.9613640974656
 20
-104.89210945764763
 10
63.14514841252247
 20
-104.8146378723175
 10
63.32484262941267
 20
-104.72810169831669
 10
63.50000000000002
 20
-104.63271607820856
 10
63.67018505546306
 20
-104.52871815567389
 10
63.83497468893918
 20
-104.41636648593423
 10
63.993959207434955
 20
-104.29594039294292
 10
64.14674335038745
 20
-104.16773927494174
 10
64.2929472723443
 20
-104.03208186010967
 10
64.43220748731932
 20
-103.88930541415448
 10
64.56417777247593
 20
-103.73976490181695
 10
64.6885300288917
 20
-103.5838321043727
 10
64.804955097264
 20
-103.42189469532528
 10
64.91316352652863
 20
-103.25435527658878
 10
65.01288629348093
 20
-103.08163037755605
 10
65.10387547160968
 20
-102.90414941954103
 10
65.18590484748164
 20
-102.72235364816956
 10
65.25877048314364
 20
-102.53669503637346
 10
65.32229122314457
 20
-102.3476351607144
 10
65.37630914491632
 20
-102.15564405383196
 10
65.42068995139418
 20
-101.96119903586836
 10
65.45532330490052
 20
-101.76478352777548
 10
65.4801231014616
 20
-101.56688584945404
 10
65.49502768487568
 20
-101.36799800571356
 10
65.49999999999999
 20
-101.16861446307082
  0
LWPOLYLINE
  5
88
330
17
100
AcDbEntity
  8
GORUNEN
100
AcDbPolyline
 90
2
 70
0
 10
3.7903698505
 20
-84.22356911822084
 10
17.671116632799993
 20
-80.76271024501784
  0
LWPOLYLINE
  5
89
330
17
100
AcDbEntity
  8
GORUNEN
100
AcDbPolyline
 90
34
 70
0
 10
3.7903698505
 20
-84.22356911826083
 10
3.549210678239515
 20
-84.29014026990245
 10
3.335249191023529
 20
-84.36029597280489
 10
3.145557410729928
 20
-84.43161500361651
 10
2.9589139641908786
 20
-84.51056375393742
 10
2.7756270334498963
 20
-84.59701382958667
 10
2.595998441561865
 20
-84.69082371964097
 10
2.420323323623665
 20
-84.79183921749808
 10
2.2488897978048024
 20
-84.89989384194027
 10
2.08197863637804
 20
-85.01480925819774
 10
1.919862936750025
 20
-85.13639569901214
 10
1.7628077924919214
 20
-85.26445238569988
 10
1.6110699643700377
 20
-85.39876794921568
 10
1.4648975513764562
 20
-85.53912085121601
 10
1.324529661759664
 20
-85.68527980512249
 10
1.1901960840551817
 20
-85.83700419718531
 10
1.0621169581161936
 20
-85.99404450754679
 10
0.940502446144178
 20
-86.15614273130468
 10
0.8255524037195343
 20
-86.32303279957571
 10
0.7174560508322148
 20
-86.494441000559
 10
0.6163916429123533
 20
-86.67008640059947
 10
0.5225261418608973
 20
-86.84968126525132
 10
0.43601488708023384
 20
-87.0329314803415
 10
0.3570012665048212
 20
-87.21953697303309
 10
0.28561638763181874
 20
-87.40919213288876
 10
0.22197874855171396
 20
-87.6015862329343
 10
0.16619390897895725
 20
-87.79640385072189
 10
0.11835416128258736
 20
-87.99332528939371
 10
0.07853820151685964
 20
-88.19202699874532
 10
0.046810800451882795
 20
-88.3921819962891
 10
0.023222474604240873
 20
-88.59346028831766
 10
0.0078091572676251
 20
-88.79552929096735
 10
0.0019523005454100684
 20
-88.93523262455552
 10
4.440892098500626e-16
 20
-89.07504259560082
  0
LWPOLYLINE
  5
8A
330
17
100
AcDbEntity
  8
GORUNEN
100
AcDbPolyline
 90
2
 70
0
 10
5.708324438136181e-16
 20
-125.16861446307081
 10
3.4206578541917665e-16
 20
-89.07504259560082
  0
LWPOLYLINE
  5
8B
330
17
100
AcDbEntity
  8
GORUNEN
100
AcDbPolyline
 90
2
 70
0
 10
4.440892098500626e-16
 20
-125.16861446307082
 10
5.0
 20
-130.1686144630708
  0
LWPOLYLINE
  5
8C
330
17
100
AcDbEntity
  8
GORUNEN
100
AcDbPolyline
 90
2
 70
0
 10
5.0
 20
-130.16861446307084
 10
190.0
 20
-130.1686144630708
  0
LWPOLYLINE
  5
8D
330
17
100
AcDbEntity
  8
GORUNEN
100
AcDbPolyline
 90
2
 70
0
 10
195.0
 20
-125.16861446307082
 10
190.0
 20
-130.1686144630708
  0
LWPOLYLINE
  5
8E
330
17
100
AcDbEntity
  8
GORUNEN
100
AcDbPolyline
 90
2
 70
0
 10
195.0
 20
-125.16861446307082
 10
195.0
 20
-89.07504259560082
  0
LWPOLYLINE
  5
8F
330
17
100
AcDbEntity
  8
GORUNEN
100
AcDbPolyline
 90
34
 70
0
 10
195.0
 20
-89.07504259560082
 10
194.9937490458082
 20
-88.82494183559207
 10
194.97744019257755
 20
-88.60036364885175
 10
194.95413109460551
 20
-88.39905279069313
 10
194.9226814489832
 20
-88.19885388685518
 10
194.88314127864518
 20
-88.00009702663439
 10
194.83557487203635
 20
-87.8031093025158
 10
194.78006045414264
 20
-87.60821438910936
 10
194.7166898575217
 20
-87.41573212208678
 10
194.64556819333342
 20
-87.22597807711782
 10
194.56681352237067
 20
-87.03926314880695
 10
194.4805565260898
 20
-86.85589312962996
 10
194.38694017764143
 20
-86.67616828887043
 10
194.28611941290094
 20
-86.50038295155628
 10
194.17826080149914
 20
-86.32882507739644
 10
194.0635422178529
 20
-86.16177583971728
 10
193.9421525121959
 20
-85.99950920439923
 10
193.81429118160895
 20
-85.84229150881332
 10
193.68016804105105
 20
-85.69038104075774
 10
193.54000289438957
 20
-85.5440276173944
 10
193.39402520543126
 20
-85.4034721641855
 10
193.2424737689526
 20
-85.26894629383001
 10
193.08559638173065
 20
-85.14067188520036
 10
192.92364951357345
 20
-85.01886066227885
 10
192.7568979783509
 20
-84.90371377309435
 10
192.58561460502514
 20
-84.79542136865871
 10
192.41007990868138
 20
-84.69416218190344
 10
192.23058176155845
 20
-84.60010310661622
 10
192.0474150640794
 20
-84.51339877637739
 10
191.86088141588215
 20
-84.43419114349666
 10
191.67128878685014
 20
-84.3626090579495
 10
191.478951188143
 20
-84.29876784631381
 10
191.34481471103598
 20
-84.25928709652635
 10
191.20963015040002
 20
-84.22356911849081
  0
LWPOLYLINE
  5
90
330
17
100
AcDbEntity
  8
GORUNEN
100
AcDbPolyline
 90
2
 70
0
 10
191.20963015040002
 20
-84.22356911844082
 10
177.32888337090003
 20
-80.76271024592782
  0
LWPOLYLINE
  5
91
330
17
100
AcDbEntity
  8
GORUNEN
100
AcDbPolyline
 90
7
 70
0
 10
177.32888337090003
 20
-80.76271024597182
 10
176.53478243496437
 20
-80.58186590303588
 10
175.73397156251485
 20
-80.43353373604786
 10
174.92778952388753
 20
-80.31787812678257
 10
174.11757508941855
 20
-80.2350634570148
 10
173.304667029444
 20
-80.18525410851929
 10
172.49040411430002
 20
-80.16861446307084
  0
LWPOLYLINE
  5
92
330
17
100
AcDbEntity
  8
GORUNEN
100
AcDbPolyline
 90
2
 70
0
 10
22.509595885699994
 20
-80.16861446307081
 10
172.49040411430002
 20
-80.16861446307081
  0
LWPOLYLINE
  5
93
330
17
100
AcDbEntity
  8
GORUNEN
100
AcDbPolyline
 90
7
 70
0
 10
22.509595885699994
 20
-80.16861446307081
 10
21.69533297116342
 20
-80.18525410849354
 10
20.8824249118074
 20
-80.2350634569122
 10
20.072210477962493
 20
-80.31787812655259
 10
19.266028439959253
 20
-80.43353373564047
 10
18.46521756812824
 20
-80.58186590240163
 10
17.671116632799993
 20
-80.76271024506184
  0
LWPOLYLINE
  5
94
330
17
100
AcDbEntity
  8
GORUNEN
100
AcDbPolyline
 90
2
 70
0
 10
153.5
 20
-92.16861446307081
 10
186.5
 20
-92.16861446307081
  0
LWPOLYLINE
  5
95
330
17
100
AcDbEntity
  8
GORUNEN
100
AcDbPolyline
 90
34
 70
0
 10
187.5
 20
-93.16861446307082
 10
187.498842403801
 20
-93.12089517565266
 10
187.4953809688334
 20
-93.07324806480304
 10
187.48963535782227
 20
-93.02579781006845
 10
187.4816287432009
 20
-92.97866558128734
 10
187.47138780711063
 20
-92.93196903859001
 10
187.45894274140088
 20
-92.8858223323987
 10
187.44432724762916
 20
-92.84033610342752
 10
187.42757853706118
 20
-92.7956174826825
 10
187.40873733067062
 20
-92.75177009146155
 10
187.38784785913933
 20
-92.70889404135451
 10
187.36495786285727
 20
-92.66708593424309
 10
187.34011859192245
 20
-92.6264388623009
 10
187.31338480614102
 20
-92.58704240799348
 10
187.28481477502723
 20
-92.54898264407825
 10
187.2544702778034
 20
-92.5123421336045
 10
187.22241660339998
 20
-92.47719992991348
 10
187.1887225504555
 20
-92.4436315766383
 10
187.15346042731665
 20
-92.41170910770398
 10
187.1167060520381
 20
-92.38150104732745
 10
187.07853875238274
 20
-92.3530724100175
 10
187.03904136582148
 20
-92.32648470057488
 10
186.99830023953336
 20
-92.3017959140922
 10
186.95640523040555
 20
-92.27906053595395
 10
186.9134497050333
 20
-92.25832954183659
 10
186.8695305397199
 20
-92.2396503977084
 10
186.8247481204768
 20
-92.22306705982962
 10
186.77920634302362
 20
-92.20861997475237
 10
186.73301261278792
 20
-92.19634607932065
 10
186.68627784490545
 20
-92.1862788006704
 10
186.63911646422008
 20
-92.1784480562294
 10
186.59164640528377
 20
-92.17288025371741
 10
186.54585425148812
 20
-92.16968341386779
 10
186.5
 20
-92.16861446307081
  0
LWPOLYLINE
  5
96
330
17
100
AcDbEntity
  8
GORUNEN
100
AcDbPolyline
 90
2
 70
0
 10
187.5
 20
-98.16861446307081
 10
187.5
 20
-93.16861446307081
  0
LWPOLYLINE
  5
97
330
17
100
AcDbEntity
  8
GORUNEN
100
AcDbPolyline
 90
34
 70
0
 10
186.5
 20
-99.16861446307081
 10
186.54771928741815
 20
-99.16745686687182
 10
186.5953663982678
 20
-99.1639954319042
 10
186.64281665300237
 20
-99.15824982089308
 10
186.6899488817835
 20
-99.15024320627171
 10
186.73664542448083
 20
-99.14000227018144
 10
186.78279213067214
 20
-99.12755720447169
 10
186.82827835964332
 20
-99.11294171069999
 10
186.87299698038834
 20
-99.09619300013199
 10
186.91684437160927
 20
-99.07735179374143
 10
186.95972042171633
 20
-99.05646232221015
 10
187.00152852882775
 20
-99.03357232592808
 10
187.04217560076992
 20
-99.00873305499327
 10
187.08157205507734
 20
-98.98199926921184
 10
187.1196318189926
 20
-98.95342923809804
 10
187.15627232946633
 20
-98.92308474087423
 10
187.19141453315734
 20
-98.89103106647082
 10
187.2249828864325
 20
-98.85733701352635
 10
187.25690535536685
 20
-98.82207489038747
 10
187.2871134157434
 20
-98.78532051510894
 10
187.31554205305332
 20
-98.74715321545355
 10
187.34212976249594
 20
-98.7076558288923
 10
187.36681854897864
 20
-98.66691470260419
 10
187.38955392711688
 20
-98.62501969347639
 10
187.41028492123425
 20
-98.58206416810411
 10
187.42896406536244
 20
-98.53814500279071
 10
187.4455474032412
 20
-98.49336258354764
 10
187.45999448831844
 20
-98.44782080609443
 10
187.47226838375016
 20
-98.40162707585873
 10
187.48233566240043
 20
-98.35489230797627
 10
187.4901664068414
 20
-98.3077309272909
 10
187.4957342093534
 20
-98.26026086835458
 10
187.49893104920304
 20
-98.21446871455896
 10
187.5
 20
-98.16861446307081
  0
LWPOLYLINE
  5
98
330
17
100
AcDbEntity
  8
GORUNEN
100
AcDbPolyline
 90
2
 70
0
 10
153.5
 20
-99.16861446307081
 10
186.5
 20
-99.16861446307081
  0
LWPOLYLINE
  5
99
330
17
100
AcDbEntity
  8
GORUNEN
100
AcDbPolyline
 90
34
 70
0
 10
152.5
 20
-98.16861446307082
 10
152.50115759619953
 20
-98.21633375048899
 10
152.50461903116857
 20
-98.26398086133861
 10
152.51036464218186
 20
-98.3114311160732
 10
152.51837125680595
 20
-98.3585633448543
 10
152.52861219289935
 20
-98.40525988755164
 10
152.54105725861245
 20
-98.45140659374295
 10
152.55567275238764
 20
-98.49689282271413
 10
152.5724214629591
 20
-98.54161144345915
 10
152.59126266935306
 20
-98.58545883468008
 10
152.6121521408875
 20
-98.62833488478714
 10
152.63504213717243
 20
-98.67014299189856
 10
152.65988140810975
 20
-98.71079006384073
 10
152.68661519389323
 20
-98.75018651814815
 10
152.7151852250086
 20
-98.7882462820634
 10
152.74552972223353
 20
-98.82488679253714
 10
152.77758339663745
 20
-98.86002899622817
 10
152.8112774495819
 20
-98.89359734950334
 10
152.84653957272022
 20
-98.92551981843766
 10
152.88329394799763
 20
-98.9557278788142
 10
152.9214612476514
 20
-98.98415651612413
 10
152.96095863421056
 20
-99.01074422556677
 10
153.00169976049614
 20
-99.03543301204945
 10
153.04359476962105
 20
-99.05816839018769
 10
153.08655029499013
 20
-99.07889938430506
 10
153.13046946030016
 20
-99.09757852843325
 10
153.17525187953973
 20
-99.11416186631202
 10
153.22079365698946
 20
-99.12860895138928
 10
153.2669873872218
 20
-99.14088284682099
 10
153.31372215510117
 20
-99.15095012547124
 10
153.36088353578384
 20
-99.15878086991223
 10
153.40835359471805
 20
-99.16434867242424
 10
153.45414574851236
 20
-99.16754551227385
 10
153.5
 20
-99.16861446307082
  0
LWPOLYLINE
  5
9A
330
17
100
AcDbEntity
  8
GORUNEN
100
AcDbPolyline
 90
2
 70
0
 10
152.5
 20
-98.16861446307082
 10
152.5
 20
-93.16861446307082
  0
LWPOLYLINE
  5
9B
330
17
100
AcDbEntity
  8
GORUNEN
100
AcDbPolyline
 90
34
 70
0
 10
153.5
 20
-92.16861446307082
 10
153.45228071258236
 20
-92.16977205926983
 10
153.40463360173416
 20
-92.17323349423745
 10
153.35718334700175
 20
-92.17897910524856
 10
153.31005111822336
 20
-92.18698571986992
 10
153.26335457552915
 20
-92.19722665596021
 10
153.2172078693412
 20
-92.20967172166996
 10
153.17172164037353
 20
-92.22428721544165
 10
153.12700301963199
 20
-92.24103592600966
 10
153.0831556284144
 20
-92.2598771324002
 10
153.04027957831053
 20
-92.28076660393148
 10
152.99847147120198
 20
-92.30365660021357
 10
152.95782439926228
 20
-92.32849587114838
 10
152.91842794495693
 20
-92.35522965692981
 10
152.88036818104328
 20
-92.38379968804361
 10
152.8437276705706
 20
-92.41414418526742
 10
152.80858546688012
 20
-92.44619785967083
 10
152.77501711360492
 20
-92.4798919126153
 10
152.74309464467
 20
-92.51515403575418
 10
152.71288658429236
 20
-92.55190841103273
 10
152.6844579469808
 20
-92.5900757106881
 10
152.6578702375361
 20
-92.62957309724936
 10
152.63318145105086
 20
-92.67031422353746
 10
152.61044607290972
 20
-92.71220923266527
 10
152.58971507878917
 20
-92.75516475803755
 10
152.5710359346576
 20
-92.79908392335093
 10
152.55445259677535
 20
-92.84386634259401
 10
152.5400055116946
 20
-92.88940812004722
 10
152.52773161625953
 20
-92.93560185028292
 10
152.5176643376062
 20
-92.98233661816539
 10
152.5098335931625
 20
-93.02949799885074
 10
152.5042657906484
 20
-93.07696805778707
 10
152.50106895079745
 20
-93.12276021158269
 10
152.5
 20
-93.16861446307082
  0
LWPOLYLINE
  5
9C
330
17
100
AcDbEntity
  8
GORUNEN
100
AcDbPolyline
 90
34
 70
0
 10
8.499999999999986
 20
-92.16861446307082
 10
8.452280712581832
 20
-92.16977205926983
 10
8.4046336017322
 20
-92.17323349423745
 10
8.357183346997614
 20
-92.17897910524856
 10
8.310051118216498
 20
-92.18698571986992
 10
8.263354575519172
 20
-92.19722665596021
 10
8.21720786932786
 20
-92.20967172166996
 10
8.171721640356681
 20
-92.22428721544165
 10
8.127003019611662
 20
-92.24103592600964
 10
8.083155628390719
 20
-92.2598771324002
 10
8.040279578283673
 20
-92.28076660393148
 10
7.99847147117225
 20
-92.30365660021356
 10
7.957824399230068
 20
-92.32849587114838
 10
7.918427944922646
 20
-92.3552296569298
 10
7.880368181007405
 20
-92.3837996880436
 10
7.843727670533665
 20
-92.41414418526742
 10
7.808585466842647
 20
-92.44619785967083
 10
7.775017113567468
 20
-92.4798919126153
 10
7.7430946446331514
 20
-92.51515403575416
 10
7.712886584256612
 20
-92.55190841103271
 10
7.6844579469466705
 20
-92.5900757106881
 10
7.657870237504044
 20
-92.62957309724935
 10
7.633181451021352
 20
-92.67031422353745
 10
7.610446072883114
 20
-92.71220923266526
 10
7.589715078765746
 20
-92.75516475803754
 10
7.571035934637564
 20
-92.79908392335093
 10
7.554452596758788
 20
-92.843866342594
 10
7.540005511681535
 20
-92.88940812004722
 10
7.52773161624982
 20
-92.93560185028292
 10
7.517664337599561
 20
-92.98233661816538
 10
7.509833593158575
 20
-93.02949799885073
 10
7.504265790646576
 20
-93.07696805778707
 10
7.501068950796954
 20
-93.12276021158269
 10
7.499999999999986
 20
-93.16861446307081
  0
LWPOLYLINE
  5
9D
330
17
100
AcDbEntity
  8
GORUNEN
100
AcDbPolyline
 90
2
 70
0
 10
8.5
 20
-92.16861446307081
 10
41.5
 20
-92.16861446307081
  0
LWPOLYLINE
  5
9E
330
17
100
AcDbEntity
  8
GORUNEN
100
AcDbPolyline
 90
34
 70
0
 10
42.49999999999999
 20
-93.16861446307081
 10
42.498842403800474
 20
-93.12089517565266
 10
42.49538096883141
 20
-93.07324806480304
 10
42.48963535781814
 20
-93.02579781006844
 10
42.48162874319406
 20
-92.97866558128733
 10
42.47138780710066
 20
-92.93196903859001
 10
42.45894274138753
 20
-92.88582233239869
 10
42.44432724761235
 20
-92.84033610342752
 10
42.427578537040866
 20
-92.79561748268249
 10
42.408737330646936
 20
-92.75177009146154
 10
42.38784785911249
 20
-92.70889404135451
 10
42.36495786282756
 20
-92.66708593424308
 10
42.340118591890246
 20
-92.62643886230089
 10
42.313384806106754
 20
-92.58704240799347
 10
42.284814774991375
 20
-92.54898264407824
 10
42.25447027776648
 20
-92.51234213360449
 10
42.22241660336254
 20
-92.47719992991347
 10
42.18872255041809
 20
-92.4436315766383
 10
42.15346042727979
 20
-92.41170910770398
 10
42.11670605200236
 20
-92.38150104732745
 10
42.078538752348614
 20
-92.35307241001749
 10
42.03904136578945
 20
-92.32648470057487
 10
41.99830023950387
 20
-92.30179591409218
 10
41.95640523037895
 20
-92.27906053595395
 10
41.91344970500986
 20
-92.25832954183657
 10
41.869530539699845
 20
-92.2396503977084
 10
41.824748120460264
 20
-92.22306705982962
 10
41.77920634301054
 20
-92.20861997475237
 10
41.7330126127782
 20
-92.19634607932065
 10
41.68627784489883
 20
-92.1862788006704
 10
41.63911646421615
 20
-92.1784480562294
 10
41.591646405281935
 20
-92.17288025371741
 10
41.54585425148764
 20
-92.16968341386779
 10
41.49999999999999
 20
-92.16861446307081
  0
LWPOLYLINE
  5
9F
330
17
100
AcDbEntity
  8
GORUNEN
100
AcDbPolyline
 90
2
 70
0
 10
42.5
 20
-98.16861446307081
 10
42.5
 20
-93.16861446307081
  0
LWPOLYLINE
  5
A0
330
17
100
AcDbEntity
  8
GORUNEN
100
AcDbPolyline
 90
34
 70
0
 10
41.49999999999999
 20
-99.16861446307081
 10
41.54771928741763
 20
-99.16745686687182
 10
41.595366398265824
 20
-99.1639954319042
 10
41.64281665299825
 20
-99.15824982089308
 10
41.689948881776644
 20
-99.15024320627171
 10
41.73664542447085
 20
-99.14000227018144
 10
41.78279213065879
 20
-99.12755720447169
 10
41.828278359626474
 20
-99.11294171069999
 10
41.87299698036801
 20
-99.09619300013199
 10
41.91684437158558
 20
-99.07735179374143
 10
41.95972042168946
 20
-99.05646232221015
 10
42.001528528798026
 20
-99.03357232592808
 10
42.042175600737714
 20
-99.00873305499327
 10
42.08157205504307
 20
-98.98199926921184
 10
42.11963181895673
 20
-98.95342923809804
 10
42.1562723294294
 20
-98.92308474087423
 10
42.19141453311988
 20
-98.89103106647082
 10
42.22498288639508
 20
-98.85733701352635
 10
42.25690535532998
 20
-98.82207489038747
 10
42.28711341570762
 20
-98.78532051510894
 10
42.31554205301919
 20
-98.74715321545355
 10
42.34212976246391
 20
-98.7076558288923
 10
42.366818548949134
 20
-98.66691470260419
 10
42.38955392709026
 20
-98.62501969347639
 10
42.41028492121081
 20
-98.58206416810411
 10
42.42896406534238
 20
-98.53814500279071
 10
42.445547403224644
 20
-98.49336258354764
 10
42.459994488305384
 20
-98.44782080609443
 10
42.472268383740456
 20
-98.40162707585873
 10
42.48233566239381
 20
-98.35489230797627
 10
42.49016640683748
 20
-98.3077309272909
 10
42.49573420935159
 20
-98.26026086835458
 10
42.49893104920254
 20
-98.21446871455896
 10
42.49999999999999
 20
-98.16861446307081
  0
LWPOLYLINE
  5
A1
330
17
100
AcDbEntity
  8
GORUNEN
100
AcDbPolyline
 90
2
 70
0
 10
8.5
 20
-99.16861446307081
 10
41.5
 20
-99.16861446307081
  0
LWPOLYLINE
  5
A2
330
17
100
AcDbEntity
  8
GORUNEN
100
AcDbPolyline
 90
34
 70
0
 10
7.5
 20
-98.16861446307082
 10
7.5011575961990005
 20
-98.21633375048899
 10
7.504619031166625
 20
-98.26398086133861
 10
7.510364642177738
 20
-98.3114311160732
 10
7.518371256799101
 20
-98.3585633448543
 10
7.52861219288938
 20
-98.40525988755164
 10
7.541057258599135
 20
-98.45140659374295
 10
7.55567275237083
 20
-98.49689282271413
 10
7.572421462938827
 20
-98.54161144345915
 10
7.591262669329385
 20
-98.58545883468008
 10
7.612152140860669
 20
-98.62833488478714
 10
7.63504213714274
 20
-98.67014299189856
 10
7.659881408077558
 20
-98.71079006384073
 10
7.686615193858984
 20
-98.75018651814815
 10
7.71518522497278
 20
-98.7882462820634
 10
7.745529722196604
 20
-98.82488679253714
 10
7.77758339660002
 20
-98.86002899622817
 10
7.811277449544484
 20
-98.89359734950334
 10
7.846539572683358
 20
-98.92551981843766
 10
7.883293947961903
 20
-98.9557278788142
 10
7.921461247617273
 20
-98.98415651612413
 10
7.960958634178532
 20
-99.01074422556677
 10
8.001699760466638
 20
-99.03543301204945
 10
8.043594769594446
 20
-99.05816839018769
 10
8.086550294966719
 20
-99.07889938430506
 10
8.130469460280112
 20
-99.09757852843325
 10
8.175251879523186
 20
-99.11416186631202
 10
8.220793656976396
 20
-99.12860895138928
 10
8.2669873872121
 20
-99.14088284682099
 10
8.313722155094553
 20
-99.15095012547124
 10
8.360883535779916
 20
-99.15878086991223
 10
8.408353594716242
 20
-99.16434867242424
 10
8.454145748511868
 20
-99.16754551227385
 10
8.5
 20
-99.16861446307082
  0
LWPOLYLINE
  5
A3
330
17
100
AcDbEntity
  8
GORUNEN
100
AcDbPolyline
 90
2
 70
0
 10
7.5
 20
-98.16861446307082
 10
7.5
 20
-93.16861446307082
  0
LWPOLYLINE
  5
A4
330
17
100
AcDbEntity
  8
GORUNEN
100
AcDbPolyline
 90
71
 70
0
 10
137.5
 20
-101.16861446307081
 10
137.49589988046117
 20
-100.98755491283794
 10
137.48360741810245
 20
-100.80686685833898
 10
137.4631475450601
 20
-100.6269208223361
 10
137.43456241326112
 20
-100.44808563369307
 10
137.3979111062458
 20
-100.27072773165308
 10
137.3532693509902
 20
-100.09521047011683
 10
137.3007292297285
 20
-99.9218934219203
 10
137.24039889177573
 20
-99.75113168311273
 10
137.17240226535012
 20
-99.58327517723451
 10
137.0968787693955
 20
-99.4186679595951
 10
137.01398302540397
 20
-99.25764752155092
 10
136.9238845692383
 20
-99.1005440947833
 10
136.82676756295444
 20
-98.94767995557636
 10
136.72283050662392
 20
-98.79936872909494
 10
136.61228595015646
 20
-98.65591469366247
 10
136.4953602051224
 20
-98.51761208503898
 10
136.37229305657522
 20
-98.38474440069888
 10
136.2433373784311
 20
-98.25758379399987
 10
136.10875765450078
 20
-98.13639133473964
 10
135.96882957543366
 20
-98.02141592860714
 10
135.82384003716328
 20
-97.91289322064264
 10
135.6740864585431
 20
-97.81104529319597
 10
135.5198760856245
 20
-97.71608037774902
 10
135.36152529593477
 20
-97.62819256673815
 10
135.1993589027548
 20
-97.5475615253768
 10
135.03370945939713
 20
-97.47435220347788
 10
134.86491656348397
 20
-97.40871454727628
 10
134.69332616122483
 20
-97.3507832112514
 10
134.51928985169468
 20
-97.30067726994957
 10
134.34316419111178
 20
-97.25849992980665
 10
134.16530999711557
 20
-97.22433824097033
 10
133.98609165304453
 20
-97.19826280912284
 10
133.80587641221427
 20
-97.18032750730325
 10
133.62503370219528
 20
-97.17056918773008
 10
133.44393442885942
 20
-97.16900740749873
 10
133.2629502076882
 20
-97.17564513896498
 10
133.08245231924874
 20
-97.19046935289498
 10
132.9028108362941
 20
-97.21344975585134
 10
132.7243939223134
 20
-97.2445389238133
 10
132.5475671358097
 20
-97.28367259035413
 10
132.37269273457784
 20
-97.3307699348187
 10
132.20012897998257
 20
-97.38573387050099
 10
132.0302294412362
 20
-97.44845133282155
 10
131.8633422996767
 20
-97.51879356750507
 10
131.69980965304546
 20
-97.59661641875792
 10
131.5399668197654
 20
-97.68176061744555
 10
131.38414164321867
 20
-97.77405206927008
 10
131.23265379602464
 20
-97.87330214294784
 10
131.0858140843179
 20
-97.97930795838683
 10
130.943923752026
 20
-98.09185267486421
 10
130.80727378514757
 20
-98.2107057792039
 10
130.67614421603002
 20
-98.33562337395401
 10
130.55080371138183
 20
-98.46634878012378
 10
130.43150979632188
 20
-98.60261412171516
 10
130.31850731196775
 20
-98.74414017426498
 10
130.21202773573188
 20
-98.89063671004855
 10
130.11228889312878
 20
-99.04180319378675
 10
130.01949466959772
 20
-99.19732947836812
 10
129.93383472232517
 20
-99.35689650057098
 10
129.85548419206728
 20
-99.52017697678548
 10
129.78460341497234
 20
-99.68683609873568
 10
129.72133763440337
 20
-99.8565322292017
 10
129.66581671276046
 20
-100.02891759774174
 10
129.61815484330336
 20
-100.20363899641418
 10
129.57845026197393
 20
-100.38033847549974
 10
129.54678495921868
 20
-100.55865403922343
 10
129.5232243918112
 20
-100.73822034147678
 10
129.50781719467466
 20
-100.91866938153981
 10
129.50195472465987
 20
-101.04358076085715
 10
129.5
 20
-101.16861446307082
  0
LWPOLYLINE
  5
A5
330
17
100
AcDbEntity
  8
GORUNEN
100
AcDbPolyline
 90
71
 70
0
 10
129.5
 20
-101.16861446307082
 10
129.50410011953883
 20
-101.34967401330371
 10
129.51639258189755
 20
-101.53036206780266
 10
129.5368524549399
 20
-101.7103081038055
 10
129.5654375867388
 20
-101.88914329244848
 10
129.60208889375403
 20
-102.06650119448832
 10
129.64673064900947
 20
-102.24201845602434
 10
129.6992707702709
 20
-102.41533550422052
 10
129.75960110822328
 20
-102.58609724302758
 10
129.82759773464838
 20
-102.75395374890512
 10
129.9031212306023
 20
-102.91856096654367
 10
129.9860169745929
 20
-103.07958140458678
 10
130.07611543075743
 20
-103.23668483135312
 10
130.17323243703999
 20
-103.38954897055861
 10
130.27716949336892
 20
-103.53786019703841
 10
130.38771404983456
 20
-103.68131423246913
 10
130.50463979486656
 20
-103.81961684109085
 10
130.62770694341148
 20
-103.9524845254292
 10
130.75666262155315
 20
-104.0796451321266
 10
130.89124234548075
 20
-104.20083759138541
 10
131.03117042454483
 20
-104.31581299751667
 10
131.17615996281182
 20
-104.42433570548012
 10
131.3259135414282
 20
-104.52618363292595
 10
131.48012391434258
 20
-104.6211485483723
 10
131.63847470402774
 20
-104.70903635938282
 10
131.80064109720274
 20
-104.78966740074412
 10
131.96629054055506
 20
-104.8628767226433
 10
132.13508343646262
 20
-104.92851437884553
 10
132.3066738387159
 20
-104.98644571487142
 10
132.48071014824004
 20
-105.03655165617468
 10
132.6568358088168
 20
-105.0787289963195
 10
132.83469000280684
 20
-105.11289068515816
 10
133.0139083468717
 20
-105.13896611700852
 10
133.19412358769583
 20
-105.1569014188315
 10
133.37496629770885
 20
-105.16665973840855
 10
133.5560655710389
 20
-105.16822151864434
 10
133.73704979220454
 20
-105.16158378718302
 10
133.91754768063868
 20
-105.14675957325848
 10
134.0971891635883
 20
-105.12377917030804
 10
134.2756060775643
 20
-105.09269000235248
 10
134.45243286406372
 20
-105.05355633581848
 10
134.62730726529168
 20
-105.00645899136117
 10
134.79987101988354
 20
-104.95149505568651
 10
134.969770558627
 20
-104.88877759337393
 10
135.13665770018414
 20
-104.81843535869868
 10
135.3001903468136
 20
-104.7406125074544
 10
135.46003318009247
 20
-104.65546830877558
 10
135.61585835663868
 20
-104.56317685696004
 10
135.7673462038328
 20
-104.46392678329144
 10
135.9141859155403
 20
-104.35792096786176
 10
136.05607624783357
 20
-104.24537625139376
 10
136.19272621471404
 20
-104.12652314706354
 10
136.32385578383426
 20
-104.00160555232293
 10
136.44919628848572
 20
-103.87088014616263
 10
136.56849020354954
 20
-103.73461480458067
 10
136.6814926879081
 20
-103.59308875204013
 10
136.78797226414903
 20
-103.44659221626566
 10
136.8877111067578
 20
-103.29542573253633
 10
136.9805053302951
 20
-103.13989944796353
 10
137.0661652775745
 20
-102.98033242576892
 10
137.14451580783978
 20
-102.81705194956234
 10
137.21539658494265
 20
-102.65039282761967
 10
137.27866236552012
 20
-102.4806966971608
 10
137.334183287172
 20
-102.30831132862748
 10
137.38184515663858
 20
-102.13358992996132
 10
137.42154973797793
 20
-101.95689045088162
 10
137.45321504074352
 20
-101.7785748871633
 10
137.47677560816174
 20
-101.59900858491488
 10
137.49218280530943
 20
-101.41855954485627
 10
137.49804527533618
 20
-101.2936481654119
 10
137.5
 20
-101.16861446307081
  0
LWPOLYLINE
  5
A6
330
17
100
AcDbEntity
  8
GIZLI
100
AcDbPolyline
 90
2
 70
0
 10
3.1459655397121336
 20
-84.43267615292558
 10
3.091045328634605
 20
-84.45379903323881
  0
LWPOLYLINE
  5
A7
330
17
100
AcDbEntity
  8
GIZLI
100
AcDbPolyline
 90
3
 70
0
 10
2.959526284126798
 20
-84.5119486593662
 10
2.866409095054924
 20
-84.5531193487582
 10
2.776308195156845
 20
-84.59837012204993
  0
LWPOLYLINE
  5
A8
330
17
100
AcDbEntity
  8
GIZLI
100
AcDbPolyline
 90
2
 70
0
 10
2.646921298473127
 20
-84.66335123916838
 10
2.5965625794588103
 20
-84.69182157447926
  0
LWPOLYLINE
  5
A9
330
17
100
AcDbEntity
  8
GIZLI
100
AcDbPolyline
 90
2
 70
0
 10
2.0827119927980395
 20
-85.01585228199718
 10
2.024575103787197
 20
-85.056728684643
  0
LWPOLYLINE
  5
AA
330
17
100
AcDbEntity
  8
GIZLI
100
AcDbPolyline
 90
3
 70
0
 10
1.9207966293747631
 20
-85.13759395380276
 10
1.8308341774872021
 20
-85.20769363417817
 10
1.763716509676879
 20
-85.26550734272794
  0
LWPOLYLINE
  5
AB
330
17
100
AcDbEntity
  8
GIZLI
100
AcDbPolyline
 90
3
 70
0
 10
1.1911815866645845
 20
-85.83785530105857
 10
1.136735453416665
 20
-85.90089908228698
 10
1.0632630279105009
 20
-85.99493991147204
  0
LWPOLYLINE
  5
AC
330
17
100
AcDbEntity
  8
GIZLI
100
AcDbPolyline
 90
2
 70
0
 10
0.9855211321678783
 20
-86.0944454373573
 10
0.9415178305326574
 20
-86.15685861007793
  0
LWPOLYLINE
  5
AD
330
17
100
AcDbEntity
  8
GIZLI
100
AcDbPolyline
 90
2
 70
0
 10
0.6172600418860734
 20
-86.67057882736236
 10
0.5913425640329613
 20
-86.71628452994581
  0
LWPOLYLINE
  5
AE
330
17
100
AcDbEntity
  8
GIZLI
100
AcDbPolyline
 90
3
 70
0
 10
0.5238071668113854
 20
-86.85032669298036
 10
0.4808281116689117
 20
-86.93563018942055
 10
0.437387404787969
 20
-87.03354043742867
  0
LWPOLYLINE
  5
AF
330
17
100
AcDbEntity
  8
GIZLI
100
AcDbPolyline
 90
2
 70
0
 10
0.3812185950616427
 20
-87.16013833339979
 10
0.35811882457545047
 20
-87.21996845029365
  0
LWPOLYLINE
  5
B0
330
17
100
AcDbEntity
  8
GIZLI
100
AcDbPolyline
 90
2
 70
0
 10
0.1673807640894219
 20
-87.79673258059728
 10
0.15008829050284822
 20
-87.85916578848489
  0
LWPOLYLINE
  5
B1
330
17
100
AcDbEntity
  8
GIZLI
100
AcDbPolyline
 90
3
 70
0
 10
0.11986017429487472
 20
-87.9936637624206
 10
0.09623068320441108
 20
-88.09880159684378
 10
0.0799970193247156
 20
-88.1922803393159
  0
LWPOLYLINE
  5
B2
330
17
100
AcDbEntity
  8
GIZLI
100
AcDbPolyline
 90
2
 70
0
 10
0.05420606006482176
 20
-88.34079311231842
 10
0.04784681066115711
 20
-88.39230988177908
  0
LWPOLYLINE
  5
B3
330
17
100
AcDbEntity
  8
GIZLI
100
AcDbPolyline
 90
2
 70
0
 10
21.695412613716375
 20
-80.18851284719119
 10
21.532591978657557
 20
-80.19249213250767
  0
LWPOLYLINE
  5
B4
330
17
100
AcDbEntity
  8
GIZLI
100
AcDbPolyline
 90
4
 70
0
 10
20.8828028594991
 20
-80.2402100801402
 10
20.55792092924821
 20
-80.26406812650845
 10
19.58791002478469
 20
-80.38317153828069
 10
19.266906810609008
 20
-80.43861891411083
  0
LWPOLYLINE
  5
B5
330
17
100
AcDbEntity
  8
GIZLI
100
AcDbPolyline
 90
2
 70
0
 10
18.6248754252397
 20
-80.54951797663493
 10
18.465928658317587
 20
-80.58504710838704
  0
LWPOLYLINE
  5
B6
330
17
100
AcDbEntity
  8
GIZLI
100
AcDbPolyline
 90
2
 70
0
 10
176.53407134477246
 20
-80.58504710903019
 10
176.3751245777421
 20
-80.54951797722534
  0
LWPOLYLINE
  5
B7
330
17
100
AcDbEntity
  8
GIZLI
100
AcDbPolyline
 90
4
 70
0
 10
175.7330931918632
 20
-80.43861891452528
 10
175.41208997747063
 20
-80.38317153861374
 10
174.4420790722644
 20
-80.26406812665675
 10
174.1171971417261
 20
-80.24021008024877
  0
LWPOLYLINE
  5
B8
330
17
100
AcDbEntity
  8
GIZLI
100
AcDbPolyline
 90
2
 70
0
 10
173.46740802210147
 20
-80.19249213254479
 10
173.3045873868909
 20
-80.18851284722152
  0
LWPOLYLINE
  5
B9
330
17
100
AcDbEntity
  8
GIZLI
100
AcDbPolyline
 90
2
 70
0
 10
194.95300273003852
 20
-88.39919207643979
 10
194.9457939399505
 20
-88.34079311242158
  0
LWPOLYLINE
  5
BA
330
17
100
AcDbEntity
  8
GIZLI
100
AcDbPolyline
 90
3
 70
0
 10
194.9211895464684
 20
-88.19911297296741
 10
194.90376931682275
 20
-88.09880159698017
 10
194.88166048452692
 20
-88.00042983177168
  0
LWPOLYLINE
  5
BB
330
17
100
AcDbEntity
  8
GIZLI
100
AcDbPolyline
 90
2
 70
0
 10
194.8499117095394
 20
-87.85916578865348
 10
194.83447017915367
 20
-87.80341527546094
  0
LWPOLYLINE
  5
BC
330
17
100
AcDbEntity
  8
GIZLI
100
AcDbPolyline
 90
2
 70
0
 10
194.64437873489507
 20
-87.226437314344
 10
194.61878140504487
 20
-87.16013833365669
  0
LWPOLYLINE
  5
BD
330
17
100
AcDbEntity
  8
GIZLI
100
AcDbPolyline
 90
3
 70
0
 10
194.56542497758332
 20
-87.03987921677037
 10
194.51917188846497
 20
-86.93563018970333
 10
194.47931306457014
 20
-86.85651963151375
  0
LWPOLYLINE
  5
BE
330
17
100
AcDbEntity
  8
GIZLI
100
AcDbPolyline
 90
3
 70
0
 10
194.06247797757652
 20
-86.16252616346856
 10
194.01447886810152
 20
-86.09444543772014
 10
193.9410064424285
 20
-86.0004046083033
  0
LWPOLYLINE
  5
BF
330
17
100
AcDbEntity
  8
GIZLI
100
AcDbPolyline
 90
2
 70
0
 10
193.86326454689228
 20
-85.90089908266302
 10
193.81335092034115
 20
-85.84310354117031
  0
LWPOLYLINE
  5
C0
330
17
100
AcDbEntity
  8
GIZLI
100
AcDbPolyline
 90
2
 70
0
 10
193.39333731806093
 20
-85.40419563622851
 10
193.35525943010686
 20
-85.36799064604857
  0
LWPOLYLINE
  5
C1
330
17
100
AcDbEntity
  8
GIZLI
100
AcDbPolyline
 90
3
 70
0
 10
193.24153760058726
 20
-85.27003311975625
 10
193.16916582299677
 20
-85.20769363457478
 10
193.08467346615154
 20
-85.141856309265
  0
LWPOLYLINE
  5
C2
330
17
100
AcDbEntity
  8
GIZLI
100
AcDbPolyline
 90
2
 70
0
 10
192.97542489674362
 20
-85.05672868503605
 10
192.92296048709716
 20
-85.01984063735428
  0
LWPOLYLINE
  5
C3
330
17
100
AcDbEntity
  8
GIZLI
100
AcDbPolyline
 90
2
 70
0
 10
192.40947381269248
 20
-84.69523425278905
 10
192.35307870220166
 20
-84.6633512395283
  0
LWPOLYLINE
  5
C4
330
17
100
AcDbEntity
  8
GIZLI
100
AcDbPolyline
 90
3
 70
0
 10
192.22988899923405
 20
-84.60148249760293
 10
192.13359090566817
 20
-84.55311934909938
 10
192.0468163230714
 20
-84.51475296986908
  0
LWPOLYLINE
  5
C5
330
17
100
AcDbEntity
  8
GIZLI
100
AcDbPolyline
 90
2
 70
0
 10
191.9089546721365
 20
-84.45379903355735
 10
191.86050669143472
 20
-84.43516543987255
  0
LWPOLYLINE
  5
C6
330
17
100
AcDbEntity
  8
GIZLI
100
AcDbPolyline
 90
2
 70
0
 10
137.46216538519843
 20
-100.62704390293497
 10
137.4553233049005
 20
-100.57244539836611
  0
LWPOLYLINE
  5
C7
330
17
100
AcDbEntity
  8
GIZLI
100
AcDbPolyline
 90
5
 70
0
 10
137.43343051514933
 20
-100.44828521786958
 10
137.42068995139417
 20
-100.37602989027323
 10
137.37630914491632
 20
-100.18158487230964
 10
137.32229122314456
 20
-99.9895937654272
 10
137.29966522637775
 20
-99.92225090803399
  0
LWPOLYLINE
  5
C8
330
17
100
AcDbEntity
  8
GIZLI
100
AcDbPolyline
 90
2
 70
0
 10
137.25877048314362
 20
-99.80053388976815
 10
137.23951733510367
 20
-99.75147766861085
  0
LWPOLYLINE
  5
C9
330
17
100
AcDbEntity
  8
GIZLI
100
AcDbPolyline
 90
2
 70
0
 10
136.7220071596852
 20
-98.79996067523139
 10
136.68853002889168
 20
-98.75339682176892
  0
LWPOLYLINE
  5
CA
330
17
100
AcDbEntity
  8
GIZLI
100
AcDbPolyline
 90
4
 70
0
 10
136.61137191751354
 20
-98.65664361037176
 10
136.56417777247592
 20
-98.59746402432467
 10
136.43220748731932
 20
-98.44792351198714
 10
136.37141738900738
 20
-98.3855985027388
  0
LWPOLYLINE
  5
CB
330
17
100
AcDbEntity
  8
GIZLI
100
AcDbPolyline
 90
2
 70
0
 10
136.2929472723443
 20
-98.30514706603194
 10
136.24257351164187
 20
-98.25840704660703
  0
LWPOLYLINE
  5
CC
330
17
100
AcDbEntity
  8
GIZLI
100
AcDbPolyline
 90
2
 70
0
 10
136.14674335038742
 20
-98.16948965119988
 10
136.1081546896792
 20
-98.13710992023198
  0
LWPOLYLINE
  5
CD
330
17
100
AcDbEntity
  8
GIZLI
100
AcDbPolyline
 90
2
 70
0
 10
135.19891485194142
 20
-97.54848360639195
 10
135.14514841252245
 20
-97.52259105382413
  0
LWPOLYLINE
  5
CE
330
17
100
AcDbEntity
  8
GIZLI
100
AcDbPolyline
 90
4
 70
0
 10
135.03325724903462
 20
-97.47542497320865
 10
134.96136409746558
 20
-97.445119468494
 10
134.77394660100674
 20
-97.37690507840229
 10
134.69297302858058
 20
-97.35192803916611
  0
LWPOLYLINE
  5
CF
330
17
100
AcDbEntity
  8
GIZLI
100
AcDbPolyline
 90
2
 70
0
 10
134.58336187257203
 20
-97.31811747527077
 10
134.51902072284997
 20
-97.30173420543726
  0
LWPOLYLINE
  5
D0
330
17
100
AcDbEntity
  8
GIZLI
100
AcDbPolyline
 90
2
 70
0
 10
133.26300329243517
 20
-97.17670879261979
 10
133.2010796256543
 20
-97.1797992743461
  0
LWPOLYLINE
  5
D1
330
17
100
AcDbEntity
  8
GIZLI
100
AcDbPolyline
 90
4
 70
0
 10
133.08257124397232
 20
-97.19165782652334
 10
133.00262518141005
 20
-97.19965763667012
 10
132.8054072893323
 20
-97.22938345102199
 10
132.72463120405405
 20
-97.24571268894599
  0
LWPOLYLINE
  5
D2
330
17
100
AcDbEntity
  8
GIZLI
100
AcDbPolyline
 90
2
 70
0
 10
132.60991626417476
 20
-97.26890281434352
 10
132.5478316731165
 20
-97.28471149373772
  0
LWPOLYLINE
  5
D3
330
17
100
AcDbEntity
  8
GIZLI
100
AcDbPolyline
 90
2
 70
0
 10
131.38470241671854
 20
-97.77496973442004
 10
131.32981494453696
 20
-97.80851077046773
  0
LWPOLYLINE
  5
D4
330
17
100
AcDbEntity
  8
GIZLI
100
AcDbPolyline
 90
4
 70
0
 10
131.23332959962755
 20
-97.87429336478093
 10
131.16502531106084
 20
-97.9208624402074
 10
131.00604079256507
 20
-98.0412885331987
 10
130.9446910374814
 20
-98.09276709006224
  0
LWPOLYLINE
  5
D5
330
17
100
AcDbEntity
  8
GIZLI
100
AcDbPolyline
 90
2
 70
0
 10
130.85325664961258
 20
-98.16948965119988
 10
130.80799662582228
 20
-98.21148481617527
  0
LWPOLYLINE
  5
D6
330
17
100
AcDbEntity
  8
GIZLI
100
AcDbPolyline
 90
2
 70
0
 10
130.02044019482034
 20
-99.19787537760993
 10
129.9871137065191
 20
-99.25559854858555
  0
LWPOLYLINE
  5
D7
330
17
100
AcDbEntity
  8
GIZLI
100
AcDbPolyline
 90
4
 70
0
 10
129.9349010208062
 20
-99.35744315990567
 10
129.89612452839032
 20
-99.43307950660059
 10
129.81409515251838
 20
-99.61487527797205
 10
129.78568587621564
 20
-99.68726093346761
  0
LWPOLYLINE
  5
D8
330
17
100
AcDbEntity
  8
GIZLI
100
AcDbPolyline
 90
2
 70
0
 10
129.74122951685635
 20
-99.80053388976815
 10
129.722305786536
 20
-99.85685751101882
  0
LWPOLYLINE
  5
D9
330
17
100
AcDbEntity
  8
GIZLI
100
AcDbPolyline
 90
3
 70
0
 10
129.50875610576998
 20
-100.9187397431993
 10
129.50497231512432
 20
-100.96923092042805
 10
129.5031174227505
 20
-101.04360975673728
  0
LWPOLYLINE
  5
DA
330
17
100
AcDbEntity
  8
GIZLI
100
AcDbPolyline
 90
2
 70
0
 10
129.53783461480157
 20
-101.71018502320663
 10
129.5446766950995
 20
-101.76478352777552
  0
LWPOLYLINE
  5
DB
330
17
100
AcDbEntity
  8
GIZLI
100
AcDbPolyline
 90
5
 70
0
 10
129.56656948485065
 20
-101.88894370827194
 10
129.57931004860583
 20
-101.96119903586842
 10
129.62369085508368
 20
-102.15564405383199
 10
129.67770877685544
 20
-102.34763516071445
 10
129.70033477362193
 20
-102.41497801810674
  0
LWPOLYLINE
  5
DC
330
17
100
AcDbEntity
  8
GIZLI
100
AcDbPolyline
 90
2
 70
0
 10
129.74122951685638
 20
-102.5366950363735
 10
129.76048266489573
 20
-102.58575125752931
  0
LWPOLYLINE
  5
DD
330
17
100
AcDbEntity
  8
GIZLI
100
AcDbPolyline
 90
2
 70
0
 10
130.2779928403084
 20
-103.53726825090139
 10
130.31146997110832
 20
-103.58383210437273
  0
LWPOLYLINE
  5
DE
330
17
100
AcDbEntity
  8
GIZLI
100
AcDbPolyline
 90
4
 70
0
 10
130.38862808247808
 20
-103.68058531575937
 10
130.43582222752408
 20
-103.73976490181698
 10
130.5677925126807
 20
-103.8893054141545
 10
130.62858261097935
 20
-103.95163042338923
  0
LWPOLYLINE
  5
DF
330
17
100
AcDbEntity
  8
GIZLI
100
AcDbPolyline
 90
2
 70
0
 10
130.7070527276557
 20
-104.0320818601097
 10
130.75742648834213
 20
-104.07882187951974
  0
LWPOLYLINE
  5
E0
330
17
100
AcDbEntity
  8
GIZLI
100
AcDbPolyline
 90
2
 70
0
 10
130.85325664961258
 20
-104.16773927494177
 10
130.8918453103018
 20
-104.20011900589371
  0
LWPOLYLINE
  5
E1
330
17
100
AcDbEntity
  8
GIZLI
100
AcDbPolyline
 90
2
 70
0
 10
131.80108514801603
 20
-104.78874531972917
 10
131.85485158747758
 20
-104.81463787231752
  0
LWPOLYLINE
  5
E2
330
17
100
AcDbEntity
  8
GIZLI
100
AcDbPolyline
 90
4
 70
0
 10
131.96674275091746
 20
-104.8618039529128
 10
132.03863590253442
 20
-104.89210945764765
 10
132.2260533989933
 20
-104.96032384773935
 10
132.30702697136
 20
-104.98530088695719
  0
LWPOLYLINE
  5
E3
330
17
100
AcDbEntity
  8
GIZLI
100
AcDbPolyline
 90
2
 70
0
 10
132.416638127428
 20
-105.01911145087087
 10
132.48097927708454
 20
-105.0354947206877
  0
LWPOLYLINE
  5
E4
330
17
100
AcDbEntity
  8
GIZLI
100
AcDbPolyline
 90
2
 70
0
 10
133.7369967074575
 20
-105.1605201335272
 10
133.79892037434573
 20
-105.15742965179554
  0
LWPOLYLINE
  5
E5
330
17
100
AcDbEntity
  8
GIZLI
100
AcDbPolyline
 90
4
 70
0
 10
133.91742875591504
 20
-105.14557109962956
 10
133.99737481858998
 20
-105.13757128947151
 10
134.19459271066773
 20
-105.10784547511965
 10
134.27536879582377
 20
-105.09151623722036
  0
LWPOLYLINE
  5
E6
330
17
100
AcDbEntity
  8
GIZLI
100
AcDbPolyline
 90
2
 70
0
 10
134.39008373582527
 20
-105.0683261117981
 10
134.4521683267572
 20
-105.05251743243606
  0
LWPOLYLINE
  5
E7
330
17
100
AcDbEntity
  8
GIZLI
100
AcDbPolyline
 90
2
 70
0
 10
135.61529758313822
 20
-104.56225919180912
 10
135.67018505546307
 20
-104.52871815567389
  0
LWPOLYLINE
  5
E8
330
17
100
AcDbEntity
  8
GIZLI
100
AcDbPolyline
 90
4
 70
0
 10
135.76667040022966
 20
-104.46293556145807
 10
135.83497468893918
 20
-104.41636648593422
 10
135.99395920743495
 20
-104.29594039294291
 10
136.05530896237892
 20
-104.24446183619662
  0
LWPOLYLINE
  5
E9
330
17
100
AcDbEntity
  8
GIZLI
100
AcDbPolyline
 90
2
 70
0
 10
136.14674335038745
 20
-104.16773927494174
 10
136.1920033740406
 20
-104.12574411009356
  0
LWPOLYLINE
  5
EA
330
17
100
AcDbEntity
  8
GIZLI
100
AcDbPolyline
 90
2
 70
0
 10
136.97955980507058
 20
-103.13935354872063
 10
137.01288629348093
 20
-103.08163037755605
  0
LWPOLYLINE
  5
EB
330
17
100
AcDbEntity
  8
GIZLI
100
AcDbPolyline
 90
4
 70
0
 10
137.06509897909243
 20
-102.9797857664337
 10
137.10387547160968
 20
-102.90414941954101
 10
137.18590484748165
 20
-102.72235364816956
 10
137.21431412370032
 20
-102.64996799288812
  0
LWPOLYLINE
  5
EC
330
17
100
AcDbEntity
  8
GIZLI
100
AcDbPolyline
 90
2
 70
0
 10
137.25877048314365
 20
-102.53669503637346
 10
137.27769421338957
 20
-102.48037141534438
  0
LWPOLYLINE
  5
ED
330
17
100
AcDbEntity
  8
GIZLI
100
AcDbPolyline
 90
3
 70
0
 10
137.49124389421095
 20
-101.41848918319654
 10
137.49502768487568
 20
-101.36799800571356
 10
137.4968825772463
 20
-101.2936191695318
  0
LWPOLYLINE
  5
EE
330
17
100
AcDbEntity
  8
GIZLI
100
AcDbPolyline
 90
7
 70
0
 10
42.134393284163636
 20
-98.94162491643355
 10
42.17155895484701
 20
-98.90956558842578
 10
42.20710678118654
 20
-98.87572124425736
 10
42.24095112535495
 20
-98.84017341791784
 10
42.27301045336273
 20
-98.80300774723446
 10
42.30320753148064
 20
-98.76431376756325
 10
42.331469612302534
 20
-98.72418469609042
  0
LWPOLYLINE
  5
EF
330
17
100
AcDbEntity
  8
GIZLI
100
AcDbPolyline
 90
7
 70
0
 10
42.27301045336273
 20
-92.53422117890717
 10
42.240951125354954
 20
-92.4970555082238
 10
42.20710678118654
 20
-92.46150768188427
 10
42.17155895484701
 20
-92.42766333771586
 10
42.134393284163636
 20
-92.39560400970808
 10
42.09569930449243
 20
-92.36540693159017
 10
42.055570233019594
 20
-92.33714485076827
  0
LWPOLYLINE
  5
F0
330
17
100
AcDbEntity
  8
GIZLI
100
AcDbPolyline
 90
7
 70
0
 10
7.865606715836341
 20
-92.39560400970808
 10
7.828441045152969
 20
-92.42766333771586
 10
7.79289321881344
 20
-92.46150768188427
 10
7.759048874645028
 20
-92.4970555082238
 10
7.726989546637251
 20
-92.53422117890717
 10
7.696792468519343
 20
-92.57291515857838
 10
7.668530387697443
 20
-92.61304423005122
  0
LWPOLYLINE
  5
F1
330
17
100
AcDbEntity
  8
GIZLI
100
AcDbPolyline
 90
7
 70
0
 10
7.726989546637261
 20
-98.80300774723446
 10
7.759048874645039
 20
-98.84017341791784
 10
7.79289321881345
 20
-98.87572124425736
 10
7.82844104515298
 20
-98.90956558842578
 10
7.865606715836352
 20
-98.94162491643355
 10
7.904300695507564
 20
-98.97182199455146
 10
7.944429766980395
 20
-99.00008407537337
  0
LWPOLYLINE
  5
F2
330
17
100
AcDbEntity
  8
GIZLI
100
AcDbPolyline
 90
7
 70
0
 10
187.13439328416365
 20
-98.94162491643357
 10
187.17155895484703
 20
-98.90956558842578
 10
187.20710678118655
 20
-98.87572124425738
 10
187.24095112535497
 20
-98.84017341791784
 10
187.27301045336273
 20
-98.80300774723447
 10
187.30320753148064
 20
-98.76431376756327
 10
187.33146961230256
 20
-98.72418469609043
  0
LWPOLYLINE
  5
F3
330
17
100
AcDbEntity
  8
GIZLI
100
AcDbPolyline
 90
7
 70
0
 10
187.27301045336273
 20
-92.53422117890719
 10
187.24095112535497
 20
-92.49705550822381
 10
187.20710678118655
 20
-92.46150768188429
 10
187.17155895484703
 20
-92.42766333771587
 10
187.13439328416365
 20
-92.39560400970808
 10
187.09569930449243
 20
-92.36540693159017
 10
187.0555702330196
 20
-92.33714485076828
  0
LWPOLYLINE
  5
F4
330
17
100
AcDbEntity
  8
GIZLI
100
AcDbPolyline
 90
7
 70
0
 10
152.86560671583635
 20
-92.39560400970808
 10
152.82844104515297
 20
-92.42766333771587
 10
152.79289321881345
 20
-92.46150768188429
 10
152.75904887464503
 20
-92.49705550822381
 10
152.72698954663727
 20
-92.53422117890719
 10
152.69679246851936
 20
-92.57291515857838
 10
152.66853038769744
 20
-92.61304423005123
  0
LWPOLYLINE
  5
F5
330
17
100
AcDbEntity
  8
GIZLI
100
AcDbPolyline
 90
7
 70
0
 10
152.72698954663727
 20
-98.80300774723446
 10
152.75904887464503
 20
-98.84017341791784
 10
152.79289321881345
 20
-98.87572124425736
 10
152.82844104515297
 20
-98.90956558842578
 10
152.86560671583635
 20
-98.94162491643355
 10
152.90430069550757
 20
-98.97182199455146
 10
152.9444297669804
 20
-99.00008407537337
  0
TEXT
  5
F6
330
17
100
AcDbEntity
  8
YAZI
100
AcDbText
 10
0.0
 20
-77.13525965796612
 30
0.0
 40
5.63337320948019
  1
ÜST
  7
PI3D
 11
0.0
 21
-77.13525965796612
 31
0.0
100
AcDbText
  0
LINE
  5
F7
330
17
100
AcDbEntity
  8
EKSEN
100
AcDbLine
 10
56.00000983591979
 20
-101.16860462715104
 30
0.0
 11
67.0000098359198
 21
-101.16860462715104
 31
0.0
  0
LINE
  5
F8
330
17
100
AcDbEntity
  8
EKSEN
100
AcDbLine
 10
61.50000983591979
 20
-106.66860462715104
 30
0.0
 11
61.50000983591979
 21
-95.66860462715104
 31
0.0
  0
LINE
  5
F9
330
17
100
AcDbEntity
  8
EKSEN
100
AcDbLine
 10
128.0000098359198
 20
-101.16860462715104
 30
0.0
 11
139.0000098359198
 21
-101.16860462715104
 31
0.0
  0
LINE
  5
FA
330
17
100
AcDbEntity
  8
EKSEN
100
AcDbLine
 10
133.5000098359198
 20
-106.66860462715104
 30
0.0
 11
133.5000098359198
 21
-95.66860462715104
 31
0.0
  0
DIMENSION
  5
FB
330
17
100
AcDbEntity
  8
OLCU
100
AcDbDimension
280
0
  2
*D1
  3
PF_MM
 10
-1.6408021083112127e-07
 20
-152.7021073009916
 30
0.0
 11
30.750154835919787
 21
-149.01874789479302
 31
0.0
 70
32
 71
5
  1
<>
100
AcDbAlignedDimension
 13
-1.6408021083112127e-07
 23
-130.16861446307084
 33
0.0
 14
61.500309835919786
 24
-130.16861446307084
 34
0.0
 50
0.0
100
AcDbRotatedDimension
1001
ACAD
1000
DSTYLE
1002
{
1070
74
1070
1
1070
73
1070
1
1070
279
1070
1
1070
289
1070
3
1002
}
  0
DIMENSION
  5
10E
330
17
100
AcDbEntity
  8
OLCU
100
AcDbDimension
280
0
  2
*D2
  3
PF_MM
 10
-1.6408021083112127e-07
 20
-145.33538848859442
 30
0.0
 11
10.02695483591979
 21
-141.65202908239584
 31
0.0
 70
32
 71
5
  1
<>
100
AcDbAlignedDimension
 13
-1.6408021083112127e-07
 23
-130.16861446307084
 33
0.0
 14
20.05390983591979
 24
-130.16861446307084
 34
0.0
 50
0.0
100
AcDbRotatedDimension
1001
ACAD
1000
DSTYLE
1002
{
1070
74
1070
1
1070
73
1070
1
1070
279
1070
1
1070
289
1070
3
1002
}
  0
DIMENSION
  5
150
330
17
100
AcDbEntity
  8
OLCU
100
AcDbDimension
280
0
  2
*D6
  3
PF_MM
 10
-1.6408021083112127e-07
 20
-160.06882611338878
 30
0.0
 11
3.750004835919789
 21
-153.78544830281473
 31
0.0
 70
32
 71
5
  1
<>
100
AcDbAlignedDimension
 13
-1.6408021083112127e-07
 23
-130.16861446307084
 33
0.0
 14
7.500009835919789
 24
-130.16861446307084
 34
0.0
 50
0.0
100
AcDbRotatedDimension
1001
ACAD
1000
DSTYLE
1002
{
1070
74
1070
1
1070
73
1070
1
1070
279
1070
1
1070
289
1070
3
1002
}
  0
DIMENSION
  5
161
330
17
100
AcDbEntity
  8
OLCU
100
AcDbDimension
280
0
  2
*D7
  3
PF_MM
 10
-29.90021165031793
 20
-130.16861462715104
 30
0.0
 11
-33.58357105651652
 21
-107.66860962715104
 31
0.0
 70
32
 71
5
  1
<>
100
AcDbAlignedDimension
 13
0.0
 23
-130.16861462715104
 33
0.0
 14
0.0
 24
-85.16860462715104
 34
0.0
 50
90.0
100
AcDbRotatedDimension
1001
ACAD
1000
DSTYLE
1002
{
1070
74
1070
1
1070
73
1070
1
1070
279
1070
1
1070
289
1070
3
1002
}
  0
DIMENSION
  5
1A1
330
17
100
AcDbEntity
  8
OLCU
100
AcDbDimension
280
0
  2
*D11
  3
PF_MM
 10
-44.63364927511228
 20
-130.16861462715104
 30
0.0
 11
-48.31700868131087
 21
-111.16860962715104
 31
0.0
 70
32
 71
5
  1
<>
100
AcDbAlignedDimension
 13
0.0
 23
-130.16861462715104
 33
0.0
 14
0.0
 24
-92.16860462715104
 34
0.0
 50
90.0
100
AcDbRotatedDimension
1001
ACAD
1000
DSTYLE
1002
{
1070
74
1070
1
1070
73
1070
1
1070
279
1070
1
1070
289
1070
3
1002
}
  0
DIMENSION
  5
1B1
330
17
100
AcDbEntity
  8
OLCU
100
AcDbDimension
280
0
  2
*D12
  3
PF_MM
 10
-15.16677402552359
 20
-130.16861462715104
 30
0.0
 11
-18.850133431722178
 21
-114.66860962715104
 31
0.0
 70
32
 71
5
  1
<>
100
AcDbAlignedDimension
 13
0.0
 23
-130.16861462715104
 33
0.0
 14
0.0
 24
-99.16860462715104
 34
0.0
 50
90.0
100
AcDbRotatedDimension
1001
ACAD
1000
DSTYLE
1002
{
1070
74
1070
1
1070
73
1070
1
1070
279
1070
1
1070
289
1070
3
1002
}
  0
DIMENSION
  5
1F1
330
17
100
AcDbEntity
  8
OLCU
100
AcDbDimension
280
0
  2
*D16
  3
PF_MM
 10
-29.90021165031793
 20
-130.16861462715104
 30
0.0
 11
-33.58357105651652
 21
-115.66845962715104
 31
0.0
 70
32
 71
5
  1
<>
100
AcDbAlignedDimension
 13
0.0
 23
-130.16861462715104
 33
0.0
 14
0.0
 24
-101.16830462715103
 34
0.0
 50
90.0
100
AcDbRotatedDimension
1001
ACAD
1000
DSTYLE
1002
{
1070
74
1070
1
1070
73
1070
1
1070
279
1070
1
1070
289
1070
3
1002
}
  0
LINE
  5
201
330
17
100
AcDbEntity
  8
EKSEN
100
AcDbLine
 10
97.5
 20
-137.10199687473877
 30
0.0
 11
97.5
 21
-73.23523205140292
 31
0.0
  0
LINE
  5
202
330
17
100
AcDbEntity
  8
EKSEN
100
AcDbLine
 10
93.59997239343679
 20
-137.10199687473877
 30
0.0
 11
101.40002760656321
 21
-137.10199687473877
 31
0.0
  0
LINE
  5
203
330
17
100
AcDbEntity
  8
EKSEN
100
AcDbLine
 10
93.59997239343679
 20
-135.15198307145718
 30
0.0
 11
101.40002760656321
 21
-135.15198307145718
 31
0.0
  0
LINE
  5
204
330
17
100
AcDbEntity
  8
EKSEN
100
AcDbLine
 10
93.59997239343679
 20
-73.23523205140292
 30
0.0
 11
101.40002760656321
 21
-73.23523205140292
 31
0.0
  0
LINE
  5
205
330
17
100
AcDbEntity
  8
EKSEN
100
AcDbLine
 10
93.59997239343679
 20
-75.18524585468452
 30
0.0
 11
101.40002760656321
 21
-75.18524585468452
 31
0.0
  0
SOLID
  5
206
330
17
100
AcDbEntity
  8
OLCU
100
AcDbTrace
 10
0.0
 20
-1.4800184043754725
 30
0.0
 11
0.0
 21
3.7200184043754727
 31
0.0
 12
-3.640025766125661
 22
1.12
 32
0.0
 13
-3.640025766125661
 23
1.12
 33
0.0
  0
LINE
  5
207
330
17
100
AcDbEntity
  8
OLCU
100
AcDbLine
 10
-3.640025766125661
 20
1.12
 30
0.0
 11
-8.580060734439058
 21
1.12
 31
0.0
  0
LWPOLYLINE
  5
208
330
17
100
AcDbEntity
  8
OLCU
100
AcDbPolyline
 90
4
 70
1
 10
-11.18007913881453
 20
-1.4800184043754725
 10
-5.980042330063586
 20
-1.4800184043754725
 10
-5.980042330063586
 20
3.7200184043754727
 10
-11.18007913881453
 20
3.7200184043754727
  0
TEXT
  5
209
330
17
100
AcDbEntity
  8
OLCU
100
AcDbText
 10
-10.074244117529584
 20
-0.8851314070984051
 30
0.0
 40
3.120022085250567
  1
C
  7
PI3D
 11
-10.074244117529584
 21
-0.8851314070984051
 31
0.0
100
AcDbText
  0
SOLID
  5
20A
330
17
100
AcDbEntity
  8
OLCU
100
AcDbTrace
 10
165.0999815956245
 20
0.0
 30
0.0
 11
170.30001840437546
 21
0.0
 31
0.0
 12
167.7
 22
-3.640025766125661
 32
0.0
 13
167.7
 23
-3.640025766125661
 33
0.0
  0
LINE
  5
20B
330
17
100
AcDbEntity
  8
OLCU
100
AcDbLine
 10
167.7
 20
-3.640025766125661
 30
0.0
 11
167.7
 21
-8.580060734439058
 31
0.0
  0
LWPOLYLINE
  5
20C
330
17
100
AcDbEntity
  8
OLCU
100
AcDbPolyline
 90
4
 70
1
 10
165.0999815956245
 20
-11.18007913881453
 10
170.30001840437546
 20
-11.18007913881453
 10
170.30001840437546
 20
-5.980042330063586
 10
165.0999815956245
 20
-5.980042330063586
  0
TEXT
  5
20D
330
17
100
AcDbEntity
  8
OLCU
100
AcDbText
 10
166.23611823796514
 20
-10.585192141537464
 30
0.0
 40
3.120022085250567
  1
A
  7
PI3D
 11
166.23611823796514
 21
-10.585192141537464
 31
0.0
100
AcDbText
  0
SOLID
  5
20E
330
17
100
AcDbEntity
  8
OLCU
100
AcDbTrace
 10
-130.16861446307084
 20
-1.4800184043754725
 30
0.0
 11
-130.16861446307084
 21
3.7200184043754727
 31
0.0
 12
-133.8086402291965
 22
1.12
 32
0.0
 13
-133.8086402291965
 23
1.12
 33
0.0
  0
LINE
  5
20F
330
17
100
AcDbEntity
  8
OLCU
100
AcDbLine
 10
-133.8086402291965
 20
1.12
 30
0.0
 11
-138.7486751975099
 21
1.12
 31
0.0
  0
LWPOLYLINE
  5
210
330
17
100
AcDbEntity
  8
OLCU
100
AcDbPolyline
 90
4
 70
1
 10
-141.34869360188537
 20
-1.4800184043754725
 10
-136.14865679313442
 20
-1.4800184043754725
 10
-136.14865679313442
 20
3.7200184043754727
 10
-141.34869360188537
 20
3.7200184043754727
  0
TEXT
  5
211
330
17
100
AcDbEntity
  8
OLCU
100
AcDbText
 10
-140.21673649348344
 20
-0.8851314070984051
 30
0.0
 40
3.120022085250567
  1
B
  7
PI3D
 11
-140.21673649348344
 21
-0.8851314070984051
 31
0.0
100
AcDbText
  0
TEXT
  5
212
330
17
100
AcDbEntity
  8
YAZI
100
AcDbText
 10
204.76345804662674
 20
-132.21523457161427
 30
0.0
 40
3.9000276065632087
  1
2x 5 x 5
  7
PI3D
 11
204.76345804662674
 21
-132.21523457161427
 31
0.0
100
AcDbText
  0
LINE
  5
213
330
17
100
AcDbEntity
  8
OLCU
100
AcDbLine
 10
192.5
 20
-127.66861446307082
 30
0.0
 11
203.463448844439
 21
-130.26522076833268
 31
0.0
  0
DIMENSION
  5
214
330
17
100
AcDbEntity
  8
OLCU
100
AcDbDimension
280
0
  2
*D17
  3
PF_MM
 10
0.0
 20
-9.5334008160434
 30
0.0
 11
97.5
 21
-5.850041409844814
 31
0.0
 70
32
 71
5
  1
<>
100
AcDbAlignedDimension
 13
0.0
 23
0.0
 33
0.0
 14
195.0
 24
0.0
 34
0.0
 50
0.0
100
AcDbRotatedDimension
  0
DIMENSION
  5
234
330
17
100
AcDbEntity
  8
OLCU
100
AcDbDimension
280
0
  2
*D19
  3
PF_MM
 10
-16.900119628440574
 20
0.0
 30
0.0
 11
-20.58347903463916
 21
4.0
 31
0.0
 70
32
 71
5
  1
<>
100
AcDbAlignedDimension
 13
0.0
 23
0.0
 33
0.0
 14
0.0
 24
8.0
 34
0.0
 50
90.0
100
AcDbRotatedDimension
  0
DIMENSION
  5
245
330
17
100
AcDbEntity
  8
OLCU
100
AcDbDimension
280
0
  2
*D20
  3
PF_MM
 10
-130.16861446307084
 20
-9.5334008160434
 30
0.0
 11
-105.16861446307084
 21
-5.850041409844814
 31
0.0
 70
32
 71
5
  1
<>
100
AcDbAlignedDimension
 13
-130.16861446307084
 23
0.0
 33
0.0
 14
-80.16861446307084
 24
0.0
 34
0.0
 50
0.0
100
AcDbRotatedDimension
  0
DIMENSION
  5
265
330
17
100
AcDbEntity
  8
OLCU
100
AcDbDimension
280
0
  2
*D22
  3
PF_MM
 10
-147.0687340915114
 20
0.0
 30
0.0
 11
-150.75209349770998
 21
4.0
 31
0.0
 70
32
 71
5
  1
<>
100
AcDbAlignedDimension
 13
-130.16861446307084
 23
0.0
 33
0.0
 14
-130.16861446307084
 24
8.0
 34
0.0
 50
90.0
100
AcDbRotatedDimension
  0
DIMENSION
  5
276
330
17
100
AcDbEntity
  8
OLCU
100
AcDbDimension
280
0
  2
*D23
  3
PF_MM
 10
275.1686144630708
 20
-9.5334008160434
 30
0.0
 11
300.1686144630708
 21
-5.850041409844814
 31
0.0
 70
32
 71
5
  1
<>
100
AcDbAlignedDimension
 13
275.1686144630708
 23
0.0
 33
0.0
 14
325.1686144630708
 24
0.0
 34
0.0
 50
0.0
100
AcDbRotatedDimension
  0
DIMENSION
  5
285
330
17
100
AcDbEntity
  8
OLCU
100
AcDbDimension
280
0
  2
*D24
  3
PF_MM
 10
265.6352136470274
 20
0.0
 30
0.0
 11
261.9518542408288
 21
4.0
 31
0.0
 70
32
 71
5
  1
<>
100
AcDbAlignedDimension
 13
275.1686144630708
 23
0.0
 33
0.0
 14
275.1686144630708
 24
8.0
 34
0.0
 50
90.0
100
AcDbRotatedDimension
  0
DIMENSION
  5
296
330
17
100
AcDbEntity
  8
OLCU
100
AcDbDimension
280
0
  2
*D25
  3
PF_MM
 10
0.0
 20
-166.10375385093926
 30
0.0
 11
97.5
 21
-162.42039444474068
 31
0.0
 70
32
 71
5
  1
<>
100
AcDbAlignedDimension
 13
0.0
 23
-130.16861446307084
 33
0.0
 14
195.0
 24
-130.16861446307084
 34
0.0
 50
0.0
100
AcDbRotatedDimension
  0
DIMENSION
  5
2A5
330
17
100
AcDbEntity
  8
OLCU
100
AcDbDimension
280
0
  2
*D26
  3
PF_MM
 10
-61.6323072210663
 20
-130.16861446307084
 30
0.0
 11
-65.31566662726489
 21
-105.16861446307084
 31
0.0
 70
32
 71
5
  1
<>
100
AcDbAlignedDimension
 13
0.0
 23
-130.16861446307084
 33
0.0
 14
0.0
 24
-80.16861446307084
 34
0.0
 50
90.0
100
AcDbRotatedDimension
  0
DIMENSION
  5
2C0
330
17
100
AcDbEntity
  8
OLCU
100
AcDbDimension
280
0
  2
*D28
  3
PF_MM
 10
133.5000098359198
 20
-105.16860462715104
 30
0.0
 11
133.5000098359198
 21
-66.83505657610385
 31
0.0
 70
163
 71
5
  1
2x %%c8
100
AcDbDiametricDimension
 15
133.5000098359198
 25
-97.16860462715104
 35
0.0
1001
ACAD
1000
DSTYLE
1002
{
1070
172
1070
1
1070
77
1070
0
1070
174
1070
0
1070
279
1070
1
1070
289
1070
3
1070
147
1040
1.3000092021877363
1070
74
1070
1
1070
73
1070
1
1002
}
  0
DIMENSION
  5
2CC
330
17
100
AcDbEntity
  8
OLCU
100
AcDbDimension
280
0
  2
*D29
  3
PF_MM
 10
8.499309835919789
 20
-93.16930462715104
 30
0.0
 11
8.49930983591979
 21
-61.835756576103854
 31
0.0
 70
164
 71
5
  1
8x R1
100
AcDbRadialDimension
 15
8.499309835919789
 25
-92.16930462715104
 35
0.0
1001
ACAD
1000
DSTYLE
1002
{
1070
172
1070
1
1070
77
1070
0
1070
174
1070
0
1070
279
1070
1
1070
289
1070
3
1070
147
1040
1.3000092021877363
1070
74
1070
1
1070
73
1070
1
1002
}
  0
LWPOLYLINE
  5
2D8
330
17
100
AcDbEntity
  8
GORUNEN
100
AcDbPolyline
 90
2
 70
0
 10
470.8372289261417
 20
8.0
 10
462.8372289261417
 20
8.0
  0
LWPOLYLINE
  5
2D9
330
17
100
AcDbEntity
  8
GORUNEN
100
AcDbPolyline
 90
2
 70
0
 10
470.8372289261417
 20
0.0
 10
462.8372289261417
 20
0.0
  0
LWPOLYLINE
  5
2DA
330
17
100
AcDbEntity
  8
GORUNEN
100
AcDbPolyline
 90
2
 70
0
 10
462.8372289856825
 20
0.0
 10
462.8372289856825
 20
8.0
  0
LWPOLYLINE
  5
2DB
330
17
100
AcDbEntity
  8
GORUNEN
100
AcDbPolyline
 90
2
 70
0
 10
600.3372289261417
 20
7.999999999999998
 10
542.8372288666009
 20
7.999999999999998
  0
LWPOLYLINE
  5
2DC
330
17
100
AcDbEntity
  8
GORUNEN
100
AcDbPolyline
 90
2
 70
0
 10
542.8372289261417
 20
8.0
 10
534.8372289261417
 20
8.0
  0
LWPOLYLINE
  5
2DD
330
17
100
AcDbEntity
  8
GORUNEN
100
AcDbPolyline
 90
2
 70
0
 10
534.8372289856825
 20
7.999999999999998
 10
470.83722886660087
 20
7.999999999999998
  0
LWPOLYLINE
  5
2DE
330
17
100
AcDbEntity
  8
GORUNEN
100
AcDbPolyline
 90
2
 70
0
 10
462.8372289856825
 20
7.999999999999998
 10
405.3372289261417
 20
7.999999999999998
  0
LWPOLYLINE
  5
2DF
330
17
100
AcDbEntity
  8
GORUNEN
100
AcDbPolyline
 90
2
 70
0
 10
470.83722886660087
 20
0.0
 10
470.83722886660087
 20
8.0
  0
LWPOLYLINE
  5
2E0
330
17
100
AcDbEntity
  8
GORUNEN
100
AcDbPolyline
 90
2
 70
0
 10
600.3372289261417
 20
0.0
 10
542.8372288666009
 20
0.0
  0
LWPOLYLINE
  5
2E1
330
17
100
AcDbEntity
  8
GORUNEN
100
AcDbPolyline
 90
2
 70
0
 10
542.8372289261417
 20
0.0
 10
534.8372289261417
 20
0.0
  0
LWPOLYLINE
  5
2E2
330
17
100
AcDbEntity
  8
GORUNEN
100
AcDbPolyline
 90
2
 70
0
 10
534.8372289856825
 20
0.0
 10
470.83722886660087
 20
0.0
  0
LWPOLYLINE
  5
2E3
330
17
100
AcDbEntity
  8
GORUNEN
100
AcDbPolyline
 90
2
 70
0
 10
462.8372289856825
 20
0.0
 10
405.3372289261417
 20
0.0
  0
LWPOLYLINE
  5
2E4
330
17
100
AcDbEntity
  8
GORUNEN
100
AcDbPolyline
 90
2
 70
0
 10
405.3372289261417
 20
7.999999999999998
 10
405.3372289261417
 20
0.0
  0
LWPOLYLINE
  5
2E5
330
17
100
AcDbEntity
  8
GORUNEN
100
AcDbPolyline
 90
2
 70
0
 10
600.3372289261417
 20
0.0
 10
600.3372289261417
 20
7.999999999999998
  0
LWPOLYLINE
  5
2E6
330
17
100
AcDbEntity
  8
GORUNEN
100
AcDbPolyline
 90
2
 70
0
 10
542.8372288666009
 20
0.0
 10
542.8372288666009
 20
8.0000006
  0
LWPOLYLINE
  5
2E7
330
17
100
AcDbEntity
  8
GORUNEN
100
AcDbPolyline
 90
2
 70
0
 10
534.8372289856825
 20
0.0
 10
534.8372289856825
 20
8.0000006
  0
LWPOLYLINE
  5
2E8
330
17
100
AcDbEntity
  8
GIZLI
100
AcDbPolyline
 90
2
 70
0
 10
412.8372289261417
 20
0.0
 10
412.8372289261417
 20
8.0
  0
LWPOLYLINE
  5
2E9
330
17
100
AcDbEntity
  8
GIZLI
100
AcDbPolyline
 90
2
 70
0
 10
412.8372289261417
 20
0.0
 10
412.8372289261417
 20
8.0
  0
LWPOLYLINE
  5
2EA
330
17
100
AcDbEntity
  8
GIZLI
100
AcDbPolyline
 90
2
 70
0
 10
447.8372289261417
 20
0.0
 10
447.8372289261417
 20
8.0
  0
LWPOLYLINE
  5
2EB
330
17
100
AcDbEntity
  8
GIZLI
100
AcDbPolyline
 90
2
 70
0
 10
447.8372289261417
 20
0.0
 10
447.8372289261417
 20
8.0
  0
LWPOLYLINE
  5
2EC
330
17
100
AcDbEntity
  8
GIZLI
100
AcDbPolyline
 90
2
 70
0
 10
557.8372289261417
 20
0.0
 10
557.8372289261417
 20
8.0
  0
LWPOLYLINE
  5
2ED
330
17
100
AcDbEntity
  8
GIZLI
100
AcDbPolyline
 90
2
 70
0
 10
592.8372289261417
 20
0.0
 10
592.8372289261417
 20
8.0
  0
LWPOLYLINE
  5
2EE
330
17
100
AcDbEntity
  8
GIZLI
100
AcDbPolyline
 90
2
 70
0
 10
557.8372289261417
 20
0.0
 10
557.8372289261417
 20
8.0
  0
LWPOLYLINE
  5
2EF
330
17
100
AcDbEntity
  8
GIZLI
100
AcDbPolyline
 90
2
 70
0
 10
592.8372289261417
 20
0.0
 10
592.8372289261417
 20
8.0
  0
TEXT
  5
2F0
330
17
100
AcDbEntity
  8
YAZI
100
AcDbText
 10
405.3372289261417
 20
11.033355405104718
 30
0.0
 40
5.63337320948019
  1
A-A KESIT
  7
PI3D
 11
405.3372289261417
 21
11.033355405104718
 31
0.0
100
AcDbText
  0
DIMENSION
  5
2F1
330
17
100
AcDbEntity
  8
OLCU
100
AcDbDimension
280
0
  2
*D30
  3
PF_MM
 10
405.3372289261417
 20
-17.333456029169817
 30
0.0
 11
502.83722892614173
 21
-13.65009662297123
 31
0.0
 70
32
 71
5
  1
<>
100
AcDbAlignedDimension
 13
405.3372289261417
 23
0.0
 33
0.0
 14
600.3372289261417
 24
0.0
 34
0.0
 50
0.0
100
AcDbRotatedDimension
  0
DIMENSION
  5
300
330
17
100
AcDbEntity
  8
OLCU
100
AcDbDimension
280
0
  2
*D31
  3
PF_MM
 10
388.00377289697184
 20
0.0
 30
0.0
 11
384.32041349077326
 21
4.0000003
 31
0.0
 70
32
 71
5
  1
<>
100
AcDbAlignedDimension
 13
405.3372289261417
 23
0.0
 33
0.0
 14
405.3372289261417
 24
8.0000006
 34
0.0
 50
90.0
100
AcDbRotatedDimension
  0
HATCH
  5
311
330
17
100
AcDbEntity
  8
TARAMA
 62
7
100
AcDbHatch
 10
0.0
 20
0.0
 30
0.0
210
0.0
220
0.0
230
1.0
  2
ANSI31
 70
0
 71
0
 91
1
 92
3
 72
0
 73
1
 93
8
 10
462.8372289856825
 20
0.0
 10
462.8372289856825
 20
8.0
 10
462.8372289856825
 20
7.999999999999998
 10
405.3372289261417
 20
7.999999999999998
 10
405.3372289261417
 20
7.999999999999998
 10
405.3372289261417
 20
0.0
 10
405.3372289261417
 20
0.0
 10
462.8372289856825
 20
0.0
 97
0
 75
1
 76
1
 52
0.0
 41
1.0
 77
0
 78
1
 53
45.0
 43
0.0
 44
0.0
 45
-2.2450640303
 46
2.2450640303
 79
0
 98
0
  0
HATCH
  5
312
330
17
100
AcDbEntity
  8
TARAMA
 62
7
100
AcDbHatch
 10
0.0
 20
0.0
 30
0.0
210
0.0
220
0.0
230
1.0
  2
ANSI31
 70
0
 71
0
 91
1
 92
3
 72
0
 73
1
 93
8
 10
600.3372289261417
 20
0.0
 10
600.3372289261417
 20
7.999999999999998
 10
600.3372289261417
 20
7.999999999999998
 10
542.8372288666009
 20
7.999999999999998
 10
542.8372288666009
 20
8.0000006
 10
542.8372288666009
 20
0.0
 10
542.8372288666009
 20
0.0
 10
600.3372289261417
 20
0.0
 97
0
 75
1
 76
1
 52
0.0
 41
1.0
 77
0
 78
1
 53
45.0
 43
0.0
 44
0.0
 45
-2.2450640303
 46
2.2450640303
 79
0
 98
0
  0
HATCH
  5
313
330
17
100
AcDbEntity
  8
TARAMA
 62
7
100
AcDbHatch
 10
0.0
 20
0.0
 30
0.0
210
0.0
220
0.0
230
1.0
  2
ANSI31
 70
0
 71
0
 91
1
 92
3
 72
0
 73
1
 93
8
 10
534.8372289856825
 20
0.0
 10
534.8372289856825
 20
8.0000006
 10
534.8372289856825
 20
7.999999999999998
 10
470.83722886660087
 20
7.999999999999998
 10
470.83722886660087
 20
8.0
 10
470.83722886660087
 20
0.0
 10
470.83722886660087
 20
0.0
 10
534.8372289856825
 20
0.0
 97
0
 75
1
 76
1
 52
0.0
 41
1.0
 77
0
 78
1
 53
45.0
 43
0.0
 44
0.0
 45
-2.2450640303
 46
2.2450640303
 79
0
 98
0
  0
LINE
  5
314
330
17
100
AcDbEntity
  8
EKSEN
100
AcDbLine
 10
-8.666728014584908
 20
-101.16930462715104
 30
0.0
 11
203.66810834274534
 21
-101.16930462715104
 31
0.0
  0
TEXT
  5
315
330
17
100
AcDbEntity
  8
YAZI
100
AcDbText
 10
-9.966737216772644
 20
-99.43595902423405
 30
0.0
 40
5.200036808750945
  1
A
  7
PI3D
 11
-9.966737216772644
 21
-99.43595902423405
 31
0.0
100
AcDbText
  0
TEXT
  5
316
330
17
100
AcDbEntity
  8
YAZI
100
AcDbText
 10
202.3680991405576
 20
-99.43595902423405
 30
0.0
 40
5.200036808750945
  1
A
  7
PI3D
 11
202.3680991405576
 21
-99.43595902423405
 31
0.0
100
AcDbText
  0
TEXT
  5
317
330
17
100
AcDbEntity
  8
YAZI
100
AcDbText
 10
-151.8354344995331
 20
76.03381551449154
 30
0.0
 40
6.500046010938681
  1
POZ 10   09.020.000.01   09.020.000.01 Dachplatte 45x195mm
  7
PI3D
 11
-151.8354344995331
 21
76.03381551449154
 31
0.0
100
AcDbText
  0
TEXT
  5
318
330
17
100
AcDbEntity
  8
YAZI
100
AcDbText
 10
-151.8354344995331
 20
66.50041469844814
 30
0.0
 40
4.7667004080217
  1
adet: 1
  7
PI3D
 11
-151.8354344995331
 21
66.50041469844814
 31
0.0
100
AcDbText
  0
TEXT
  5
319
330
17
100
AcDbEntity
  8
YAZI
100
AcDbText
 10
-151.8354344995331
 20
56.967013882404736
 30
0.0
 40
4.7667004080217
  1
BOY x EN x KALINLIK : 195.0 x 50.0 x 8.0 mm
  7
PI3D
 11
-151.8354344995331
 21
56.967013882404736
 31
0.0
100
AcDbText
  0
TEXT
  5
31A
330
17
100
AcDbEntity
  8
YAZI
100
AcDbText
 10
-151.8354344995331
 20
47.43361306636133
 30
0.0
 40
4.7667004080217
  1
kutle 0.5671 kg   malzeme: Celik (S235JR / St37)
  7
PI3D
 11
-151.8354344995331
 21
47.43361306636133
 31
0.0
100
AcDbText
  0
TEXT
  5
31B
330
17
100
AcDbEntity
  8
YAZI
100
AcDbText
 10
-151.8354344995331
 20
37.900212250317935
 30
0.0
 40
4.7667004080217
  1
olcek 1:1   birim: mm
  7
PI3D
 11
-151.8354344995331
 21
37.900212250317935
 31
0.0
100
AcDbText
  0
LWPOLYLINE
  5
31E
330
17
100
AcDbEntity
  8
PI3D_GORUNUS_ALANI
100
AcDbPolyline
 90
4
 70
1
 10
-151.8354344995331
 20
36.540122247761175
 10
133.9576132848331
 20
36.540122247761175
 10
133.9576132848331
 20
82.53386152543021
 10
-151.8354344995331
 20
82.53386152543021
1001
PI3D
1000
BASLIK
  0
LWPOLYLINE
  5
31F
330
17
100
AcDbEntity
  8
PI3D_GORUNUS_ALANI
100
AcDbPolyline
 90
4
 70
1
 10
0.0
 20
0.0
 10
195.0
 20
0.0
 10
195.0
 20
8.0
 10
0.0
 20
8.0
1001
PI3D
1000
ON
  0
LWPOLYLINE
  5
320
330
17
100
AcDbEntity
  8
PI3D_GORUNUS_ALANI
100
AcDbPolyline
 90
4
 70
1
 10
-130.16861446307084
 20
0.0
 10
-80.16861446307084
 20
0.0
 10
-80.16861446307084
 20
8.0
 10
-130.16861446307084
 20
8.0
1001
PI3D
1000
SAG
  0
LWPOLYLINE
  5
321
330
17
100
AcDbEntity
  8
PI3D_GORUNUS_ALANI
100
AcDbPolyline
 90
4
 70
1
 10
275.1686144630708
 20
0.0
 10
325.1686144630708
 20
0.0
 10
325.1686144630708
 20
8.0
 10
275.1686144630708
 20
8.0
1001
PI3D
1000
SOL
  0
LWPOLYLINE
  5
322
330
17
100
AcDbEntity
  8
PI3D_GORUNUS_ALANI
100
AcDbPolyline
 90
4
 70
1
 10
0.0
 20
-130.16861446307084
 10
195.0
 20
-130.16861446307084
 10
195.0
 20
-80.16861446307084
 10
0.0
 20
-80.16861446307084
1001
PI3D
1000
UST
  0
LWPOLYLINE
  5
323
330
17
100
AcDbEntity
  8
PI3D_GORUNUS_ALANI
100
AcDbPolyline
 90
4
 70
1
 10
405.3372289261417
 20
0.0
 10
600.3372289261417
 20
0.0
 10
600.3372289261417
 20
17.5334014160434
 10
405.3372289261417
 20
17.5334014160434
1001
PI3D
1000
A-A KESIT
  0
VIEWPORT
  5
34F
330
34B
100
AcDbEntity
 67
1
  8
VIEWPORTS
100
AcDbViewport
 10
210.0
 20
148.5
 30
0.0
 40
462.00000000000006
 41
326.70000000000005
 68
1
 69
1
 12
210.0
 22
148.5
 13
0.0
 23
0.0
 14
10.0
 24
10.0
 15
10.0
 25
10.0
 16
0.0
 26
0.0
 36
1.0
 17
0.0
 27
0.0
 37
0.0
 42
50.0
 43
0.0
 44
0.0
 45
326.70000000000005
 50
0.0
 51
0.0
 72
100
 90
557088
  1

281
0
 71
0
 74
0
110
0.0
120
0.0
130
0.0
111
1.0
121
0.0
131
0.0
112
0.0
122
1.0
132
0.0
 79
0
146
0.0
282
0
  0
LWPOLYLINE
  5
353
330
34B
100
AcDbEntity
 67
1
  8
PAFTA_CERCEVE
370
13
100
AcDbPolyline
 90
4
 70
1
 10
5.0
 20
5.0
 10
415.0
 20
5.0
 10
415.0
 20
292.0
 10
5.0
 20
292.0
  0
LWPOLYLINE
  5
354
330
34B
100
AcDbEntity
 67
1
  8
PAFTA_CERCEVE
370
50
100
AcDbPolyline
 90
4
 70
1
 10
15.0
 20
15.0
 10
405.0
 20
15.0
 10
405.0
 20
282.0
 10
15.0
 20
282.0
  0
TEXT
  5
355
330
34B
100
AcDbEntity
 67
1
  8
PAFTA_BOLGE
370
13
100
AcDbText
 10
39.375
 20
10.0
 30
0.0
 40
3.5
  1
1
  7
PI3D
 72
1
 11
39.375
 21
10.0
 31
0.0
100
AcDbText
 73
2
  0
TEXT
  5
356
330
34B
100
AcDbEntity
 67
1
  8
PAFTA_BOLGE
370
13
100
AcDbText
 10
39.375
 20
287.0
 30
0.0
 40
3.5
  1
1
  7
PI3D
 72
1
 11
39.375
 21
287.0
 31
0.0
100
AcDbText
 73
2
  0
LINE
  5
357
330
34B
100
AcDbEntity
 67
1
  8
PAFTA_BOLGE
370
13
100
AcDbLine
 10
63.75
 20
5.0
 30
0.0
 11
63.75
 21
15.0
 31
0.0
  0
LINE
  5
358
330
34B
100
AcDbEntity
 67
1
  8
PAFTA_BOLGE
370
13
100
AcDbLine
 10
63.75
 20
282.0
 30
0.0
 11
63.75
 21
292.0
 31
0.0
  0
TEXT
  5
359
330
34B
100
AcDbEntity
 67
1
  8
PAFTA_BOLGE
370
13
100
AcDbText
 10
88.125
 20
10.0
 30
0.0
 40
3.5
  1
2
  7
PI3D
 72
1
 11
88.125
 21
10.0
 31
0.0
100
AcDbText
 73
2
  0
TEXT
  5
35A
330
34B
100
AcDbEntity
 67
1
  8
PAFTA_BOLGE
370
13
100
AcDbText
 10
88.125
 20
287.0
 30
0.0
 40
3.5
  1
2
  7
PI3D
 72
1
 11
88.125
 21
287.0
 31
0.0
100
AcDbText
 73
2
  0
LINE
  5
35B
330
34B
100
AcDbEntity
 67
1
  8
PAFTA_BOLGE
370
13
100
AcDbLine
 10
112.5
 20
5.0
 30
0.0
 11
112.5
 21
15.0
 31
0.0
  0
LINE
  5
35C
330
34B
100
AcDbEntity
 67
1
  8
PAFTA_BOLGE
370
13
100
AcDbLine
 10
112.5
 20
282.0
 30
0.0
 11
112.5
 21
292.0
 31
0.0
  0
TEXT
  5
35D
330
34B
100
AcDbEntity
 67
1
  8
PAFTA_BOLGE
370
13
100
AcDbText
 10
136.875
 20
10.0
 30
0.0
 40
3.5
  1
3
  7
PI3D
 72
1
 11
136.875
 21
10.0
 31
0.0
100
AcDbText
 73
2
  0
TEXT
  5
35E
330
34B
100
AcDbEntity
 67
1
  8
PAFTA_BOLGE
370
13
100
AcDbText
 10
136.875
 20
287.0
 30
0.0
 40
3.5
  1
3
  7
PI3D
 72
1
 11
136.875
 21
287.0
 31
0.0
100
AcDbText
 73
2
  0
LINE
  5
35F
330
34B
100
AcDbEntity
 67
1
  8
PAFTA_BOLGE
370
13
100
AcDbLine
 10
161.25
 20
5.0
 30
0.0
 11
161.25
 21
15.0
 31
0.0
  0
LINE
  5
360
330
34B
100
AcDbEntity
 67
1
  8
PAFTA_BOLGE
370
13
100
AcDbLine
 10
161.25
 20
282.0
 30
0.0
 11
161.25
 21
292.0
 31
0.0
  0
TEXT
  5
361
330
34B
100
AcDbEntity
 67
1
  8
PAFTA_BOLGE
370
13
100
AcDbText
 10
185.625
 20
10.0
 30
0.0
 40
3.5
  1
4
  7
PI3D
 72
1
 11
185.625
 21
10.0
 31
0.0
100
AcDbText
 73
2
  0
TEXT
  5
362
330
34B
100
AcDbEntity
 67
1
  8
PAFTA_BOLGE
370
13
100
AcDbText
 10
185.625
 20
287.0
 30
0.0
 40
3.5
  1
4
  7
PI3D
 72
1
 11
185.625
 21
287.0
 31
0.0
100
AcDbText
 73
2
  0
LINE
  5
363
330
34B
100
AcDbEntity
 67
1
  8
PAFTA_BOLGE
370
13
100
AcDbLine
 10
210.0
 20
5.0
 30
0.0
 11
210.0
 21
15.0
 31
0.0
  0
LINE
  5
364
330
34B
100
AcDbEntity
 67
1
  8
PAFTA_BOLGE
370
13
100
AcDbLine
 10
210.0
 20
282.0
 30
0.0
 11
210.0
 21
292.0
 31
0.0
  0
TEXT
  5
365
330
34B
100
AcDbEntity
 67
1
  8
PAFTA_BOLGE
370
13
100
AcDbText
 10
234.375
 20
10.0
 30
0.0
 40
3.5
  1
5
  7
PI3D
 72
1
 11
234.375
 21
10.0
 31
0.0
100
AcDbText
 73
2
  0
TEXT
  5
366
330
34B
100
AcDbEntity
 67
1
  8
PAFTA_BOLGE
370
13
100
AcDbText
 10
234.375
 20
287.0
 30
0.0
 40
3.5
  1
5
  7
PI3D
 72
1
 11
234.375
 21
287.0
 31
0.0
100
AcDbText
 73
2
  0
LINE
  5
367
330
34B
100
AcDbEntity
 67
1
  8
PAFTA_BOLGE
370
13
100
AcDbLine
 10
258.75
 20
5.0
 30
0.0
 11
258.75
 21
15.0
 31
0.0
  0
LINE
  5
368
330
34B
100
AcDbEntity
 67
1
  8
PAFTA_BOLGE
370
13
100
AcDbLine
 10
258.75
 20
282.0
 30
0.0
 11
258.75
 21
292.0
 31
0.0
  0
TEXT
  5
369
330
34B
100
AcDbEntity
 67
1
  8
PAFTA_BOLGE
370
13
100
AcDbText
 10
283.125
 20
10.0
 30
0.0
 40
3.5
  1
6
  7
PI3D
 72
1
 11
283.125
 21
10.0
 31
0.0
100
AcDbText
 73
2
  0
TEXT
  5
36A
330
34B
100
AcDbEntity
 67
1
  8
PAFTA_BOLGE
370
13
100
AcDbText
 10
283.125
 20
287.0
 30
0.0
 40
3.5
  1
6
  7
PI3D
 72
1
 11
283.125
 21
287.0
 31
0.0
100
AcDbText
 73
2
  0
LINE
  5
36B
330
34B
100
AcDbEntity
 67
1
  8
PAFTA_BOLGE
370
13
100
AcDbLine
 10
307.5
 20
5.0
 30
0.0
 11
307.5
 21
15.0
 31
0.0
  0
LINE
  5
36C
330
34B
100
AcDbEntity
 67
1
  8
PAFTA_BOLGE
370
13
100
AcDbLine
 10
307.5
 20
282.0
 30
0.0
 11
307.5
 21
292.0
 31
0.0
  0
TEXT
  5
36D
330
34B
100
AcDbEntity
 67
1
  8
PAFTA_BOLGE
370
13
100
AcDbText
 10
331.875
 20
10.0
 30
0.0
 40
3.5
  1
7
  7
PI3D
 72
1
 11
331.875
 21
10.0
 31
0.0
100
AcDbText
 73
2
  0
TEXT
  5
36E
330
34B
100
AcDbEntity
 67
1
  8
PAFTA_BOLGE
370
13
100
AcDbText
 10
331.875
 20
287.0
 30
0.0
 40
3.5
  1
7
  7
PI3D
 72
1
 11
331.875
 21
287.0
 31
0.0
100
AcDbText
 73
2
  0
LINE
  5
36F
330
34B
100
AcDbEntity
 67
1
  8
PAFTA_BOLGE
370
13
100
AcDbLine
 10
356.25
 20
5.0
 30
0.0
 11
356.25
 21
15.0
 31
0.0
  0
LINE
  5
370
330
34B
100
AcDbEntity
 67
1
  8
PAFTA_BOLGE
370
13
100
AcDbLine
 10
356.25
 20
282.0
 30
0.0
 11
356.25
 21
292.0
 31
0.0
  0
TEXT
  5
371
330
34B
100
AcDbEntity
 67
1
  8
PAFTA_BOLGE
370
13
100
AcDbText
 10
380.625
 20
10.0
 30
0.0
 40
3.5
  1
8
  7
PI3D
 72
1
 11
380.625
 21
10.0
 31
0.0
100
AcDbText
 73
2
  0
TEXT
  5
372
330
34B
100
AcDbEntity
 67
1
  8
PAFTA_BOLGE
370
13
100
AcDbText
 10
380.625
 20
287.0
 30
0.0
 40
3.5
  1
8
  7
PI3D
 72
1
 11
380.625
 21
287.0
 31
0.0
100
AcDbText
 73
2
  0
TEXT
  5
373
330
34B
100
AcDbEntity
 67
1
  8
PAFTA_BOLGE
370
13
100
AcDbText
 10
10.0
 20
248.625
 30
0.0
 40
3.5
  1
A
  7
PI3D
 72
1
 11
10.0
 21
248.625
 31
0.0
100
AcDbText
 73
2
  0
TEXT
  5
374
330
34B
100
AcDbEntity
 67
1
  8
PAFTA_BOLGE
370
13
100
AcDbText
 10
410.0
 20
248.625
 30
0.0
 40
3.5
  1
A
  7
PI3D
 72
1
 11
410.0
 21
248.625
 31
0.0
100
AcDbText
 73
2
  0
LINE
  5
375
330
34B
100
AcDbEntity
 67
1
  8
PAFTA_BOLGE
370
13
100
AcDbLine
 10
5.0
 20
215.25
 30
0.0
 11
15.0
 21
215.25
 31
0.0
  0
LINE
  5
376
330
34B
100
AcDbEntity
 67
1
  8
PAFTA_BOLGE
370
13
100
AcDbLine
 10
405.0
 20
215.25
 30
0.0
 11
415.0
 21
215.25
 31
0.0
  0
TEXT
  5
377
330
34B
100
AcDbEntity
 67
1
  8
PAFTA_BOLGE
370
13
100
AcDbText
 10
10.0
 20
181.875
 30
0.0
 40
3.5
  1
B
  7
PI3D
 72
1
 11
10.0
 21
181.875
 31
0.0
100
AcDbText
 73
2
  0
TEXT
  5
378
330
34B
100
AcDbEntity
 67
1
  8
PAFTA_BOLGE
370
13
100
AcDbText
 10
410.0
 20
181.875
 30
0.0
 40
3.5
  1
B
  7
PI3D
 72
1
 11
410.0
 21
181.875
 31
0.0
100
AcDbText
 73
2
  0
LINE
  5
379
330
34B
100
AcDbEntity
 67
1
  8
PAFTA_BOLGE
370
13
100
AcDbLine
 10
5.0
 20
148.5
 30
0.0
 11
15.0
 21
148.5
 31
0.0
  0
LINE
  5
37A
330
34B
100
AcDbEntity
 67
1
  8
PAFTA_BOLGE
370
13
100
AcDbLine
 10
405.0
 20
148.5
 30
0.0
 11
415.0
 21
148.5
 31
0.0
  0
TEXT
  5
37B
330
34B
100
AcDbEntity
 67
1
  8
PAFTA_BOLGE
370
13
100
AcDbText
 10
10.0
 20
115.125
 30
0.0
 40
3.5
  1
C
  7
PI3D
 72
1
 11
10.0
 21
115.125
 31
0.0
100
AcDbText
 73
2
  0
TEXT
  5
37C
330
34B
100
AcDbEntity
 67
1
  8
PAFTA_BOLGE
370
13
100
AcDbText
 10
410.0
 20
115.125
 30
0.0
 40
3.5
  1
C
  7
PI3D
 72
1
 11
410.0
 21
115.125
 31
0.0
100
AcDbText
 73
2
  0
LINE
  5
37D
330
34B
100
AcDbEntity
 67
1
  8
PAFTA_BOLGE
370
13
100
AcDbLine
 10
5.0
 20
81.75
 30
0.0
 11
15.0
 21
81.75
 31
0.0
  0
LINE
  5
37E
330
34B
100
AcDbEntity
 67
1
  8
PAFTA_BOLGE
370
13
100
AcDbLine
 10
405.0
 20
81.75
 30
0.0
 11
415.0
 21
81.75
 31
0.0
  0
TEXT
  5
37F
330
34B
100
AcDbEntity
 67
1
  8
PAFTA_BOLGE
370
13
100
AcDbText
 10
10.0
 20
48.375
 30
0.0
 40
3.5
  1
D
  7
PI3D
 72
1
 11
10.0
 21
48.375
 31
0.0
100
AcDbText
 73
2
  0
TEXT
  5
380
330
34B
100
AcDbEntity
 67
1
  8
PAFTA_BOLGE
370
13
100
AcDbText
 10
410.0
 20
48.375
 30
0.0
 40
3.5
  1
D
  7
PI3D
 72
1
 11
410.0
 21
48.375
 31
0.0
100
AcDbText
 73
2
  0
LINE
  5
381
330
34B
100
AcDbEntity
 67
1
  8
PAFTA_CERCEVE
370
50
100
AcDbLine
 10
210.0
 20
15.0
 30
0.0
 11
210.0
 21
5.0
 31
0.0
  0
LINE
  5
382
330
34B
100
AcDbEntity
 67
1
  8
PAFTA_CERCEVE
370
50
100
AcDbLine
 10
210.0
 20
282.0
 30
0.0
 11
210.0
 21
292.0
 31
0.0
  0
LINE
  5
383
330
34B
100
AcDbEntity
 67
1
  8
PAFTA_CERCEVE
370
50
100
AcDbLine
 10
15.0
 20
148.5
 30
0.0
 11
5.0
 21
148.5
 31
0.0
  0
LINE
  5
384
330
34B
100
AcDbEntity
 67
1
  8
PAFTA_CERCEVE
370
50
100
AcDbLine
 10
405.0
 20
148.5
 30
0.0
 11
415.0
 21
148.5
 31
0.0
  0
TEXT
  5
385
330
34B
100
AcDbEntity
 67
1
  8
PAFTA_BILGI
370
35
100
AcDbText
 10
403.0
 20
275.41600803750833
 30
0.0
 40
4.5
  1
ORNEK_GIRINTI_09_020_000_01
  7
PI3D
 72
2
 11
403.0
 21
275.41600803750833
 31
0.0
100
AcDbText
 73
1
  0
TEXT
  5
386
330
34B
100
AcDbEntity
 67
1
  8
PAFTA_BILGI
370
13
100
AcDbText
 10
403.0
 20
269.9600133958472
 30
0.0
 40
3.0
  1
A3 yatay  ÖLÇEK 1:2  (model 1:1)
  7
PI3D
 72
2
 11
403.0
 21
269.9600133958472
 31
0.0
100
AcDbText
 73
1
  0
VIEWPORT
  5
387
330
34B
100
AcDbEntity
 67
1
  8
VIEWPORTS
100
AcDbViewport
 10
103.27812202619535
 20
235.17886334212906
 30
0.0
 40
142.8965238921831
 41
22.996869638834518
 68
2
 69
3
 12
-8.93891060735001
 22
59.53699188659569
 13
0.0
 23
0.0
 14
10.0
 24
10.0
 15
10.0
 25
10.0
 16
0.0
 26
0.0
 36
1.0
 17
0.0
 27
0.0
 37
0.0
 42
50.0
 43
0.0
 44
0.0
 45
45.993739277669036
 50
0.0
 51
0.0
 72
100
 90
0
  1

281
0
 71
0
 74
0
110
0.0
120
0.0
130
0.0
111
1.0
121
0.0
131
0.0
112
0.0
122
1.0
132
0.0
 79
0
146
0.0
282
0
  0
VIEWPORT
  5
388
330
34B
100
AcDbEntity
 67
1
  8
VIEWPORTS
100
AcDbViewport
 10
50.17195602178387
 20
204.31370956031463
 30
0.0
 40
36.68419188336014
 41
18.733437924794345
 68
2
 69
4
 12
-116.85280634643095
 22
-1.2000365087509444
 13
0.0
 23
0.0
 14
10.0
 24
10.0
 15
10.0
 25
10.0
 16
0.0
 26
0.0
 36
1.0
 17
0.0
 27
0.0
 37
0.0
 42
50.0
 43
0.0
 44
0.0
 45
37.46687584958869
 50
0.0
 51
0.0
 72
100
 90
0
  1

281
0
 71
0
 74
0
110
0.0
120
0.0
130
0.0
111
1.0
121
0.0
131
0.0
112
0.0
122
1.0
132
0.0
 79
0
146
0.0
282
0
  0
VIEWPORT
  5
389
330
34B
100
AcDbEntity
 67
1
  8
VIEWPORTS
100
AcDbViewport
 10
152.14124966123688
 20
155.3178198393453
 30
0.0
 40
147.2543953955459
 41
56.635639678690595
 68
2
 69
5
 12
79.1538240361999
 22
-112.06813257662414
 13
0.0
 23
0.0
 14
10.0
 24
10.0
 15
10.0
 25
10.0
 16
0.0
 26
0.0
 36
1.0
 17
0.0
 27
0.0
 37
0.0
 42
50.0
 43
0.0
 44
0.0
 45
113.27127935738119
 50
0.0
 51
0.0
 72
100
 90
0
  1

281
0
 71
0
 74
0
110
0.0
120
0.0
130
0.0
111
1.0
121
0.0
131
0.0
112
0.0
122
1.0
132
0.0
 79
0
146
0.0
282
0
  0
VIEWPORT
  5
38A
330
34B
100
AcDbEntity
 67
1
  8
VIEWPORTS
100
AcDbViewport
 10
152.14124966123688
 20
204.31370956031463
 30
0.0
 40
147.2543953955459
 41
18.733437924794345
 68
2
 69
6
 12
79.1538240361999
 22
-1.2000365087509444
 13
0.0
 23
0.0
 14
10.0
 24
10.0
 15
10.0
 25
10.0
 16
0.0
 26
0.0
 36
1.0
 17
0.0
 27
0.0
 37
0.0
 42
50.0
 43
0.0
 44
0.0
 45
37.46687584958869
 50
0.0
 51
0.0
 72
100
 90
0
  1

281
0
 71
0
 74
0
110
0.0
120
0.0
130
0.0
111
1.0
121
0.0
131
0.0
112
0.0
122
1.0
132
0.0
 79
0
146
0.0
282
0
  0
VIEWPORT
  5
38B
330
34B
100
AcDbEntity
 67
1
  8
VIEWPORTS
100
AcDbViewport
 10
252.26886359759064
 20
204.31370956031463
 30
0.0
 40
33.000832477161566
 41
18.733437924794345
 68
2
 69
7
 12
292.16778198590924
 22
-1.2000365087509444
 13
0.0
 23
0.0
 14
10.0
 24
10.0
 15
10.0
 25
10.0
 16
0.0
 26
0.0
 36
1.0
 17
0.0
 27
0.0
 37
0.0
 42
50.0
 43
0.0
 44
0.0
 45
37.46687584958869
 50
0.0
 51
0.0
 72
100
 90
0
  1

281
0
 71
0
 74
0
110
0.0
120
0.0
130
0.0
111
1.0
121
0.0
131
0.0
112
0.0
122
1.0
132
0.0
 79
0
146
0.0
282
0
  0
VIEWPORT
  5
38C
330
34B
100
AcDbEntity
 67
1
  8
VIEWPORTS
100
AcDbViewport
 10
333.4697098780339
 20
204.31370956031463
 30
0.0
 40
109.40086008372481
 41
18.733437924794345
 68
2
 69
8
 12
490.9363688424169
 22
-1.2000365087509444
 13
0.0
 23
0.0
 14
10.0
 24
10.0
 15
10.0
 25
10.0
 16
0.0
 26
0.0
 36
1.0
 17
0.0
 27
0.0
 37
0.0
 42
50.0
 43
0.0
 44
0.0
 45
37.46687584958869
 50
0.0
 51
0.0
 72
100
 90
0
  1

281
0
 71
0
 74
0
110
0.0
120
0.0
130
0.0
111
1.0
121
0.0
131
0.0
112
0.0
122
1.0
132
0.0
 79
0
146
0.0
282
0
  0
ENDSEC
  0
SECTION
  2
OBJECTS
  0
DICTIONARY
  5
A
330
0
100
AcDbDictionary
281
1
  3
ACAD_COLOR
350
B
  3
ACAD_GROUP
350
C
  3
ACAD_LAYOUT
350
D
  3
ACAD_MATERIAL
350
E
  3
ACAD_MLEADERSTYLE
350
F
  3
ACAD_MLINESTYLE
350
10
  3
ACAD_PLOTSETTINGS
350
11
  3
ACAD_PLOTSTYLENAME
350
12
  3
ACAD_SCALELIST
350
14
  3
ACAD_TABLESTYLE
350
15
  3
ACAD_VISUALSTYLE
350
16
  3
EZDXF_META
350
2D
  0
DICTIONARY
  5
B
330
A
100
AcDbDictionary
281
1
  0
DICTIONARY
  5
C
330
A
100
AcDbDictionary
281
1
  0
DICTIONARY
  5
D
330
A
100
AcDbDictionary
281
1
  3
Model
350
1A
  3
Layout1
350
1E
  3
PAFTA
350
34E
  0
DICTIONARY
  5
E
330
A
100
AcDbDictionary
281
1
  3
ByBlock
350
1F
  3
ByLayer
350
20
  3
Global
350
21
  0
DICTIONARY
  5
F
330
A
100
AcDbDictionary
281
1
  3
Standard
350
2C
  0
DICTIONARY
  5
10
330
A
100
AcDbDictionary
281
1
  3
Standard
350
22
  0
DICTIONARY
  5
11
330
A
100
AcDbDictionary
281
1
  0
ACDBDICTIONARYWDFLT
  5
12
330
A
100
AcDbDictionary
281
1
  3
Normal
350
13
100
AcDbDictionaryWithDefault
340
13
  0
ACDBPLACEHOLDER
  5
13
330
12
  0
DICTIONARY
  5
14
330
A
100
AcDbDictionary
281
1
  0
DICTIONARY
  5
15
330
A
100
AcDbDictionary
281
1
  0
DICTIONARY
  5
16
330
A
100
AcDbDictionary
281
1
  0
LAYOUT
  5
1A
330
D
100
AcDbPlotSettings
  1

  4
A3
  6

 40
7.5
 41
20.0
 42
7.5
 43
20.0
 44
420.0
 45
297.0
 46
0.0
 47
0.0
 48
0.0
 49
0.0
140
0.0
141
0.0
142
1.0
143
1.0
 70
1024
 72
1
 73
0
 74
5
  7

 75
16
 76
0
 77
2
 78
300
147
1.0
148
0.0
149
0.0
100
AcDbLayout
  1
Model
 70
1
 71
0
 10
0.0
 20
0.0
 11
420.0
 21
297.0
 12
0.0
 22
0.0
 32
0.0
 14
1e+20
 24
1e+20
 34
1e+20
 15
-1e+20
 25
-1e+20
 35
-1e+20
146
0.0
 13
0.0
 23
0.0
 33
0.0
 16
1.0
 26
0.0
 36
0.0
 17
0.0
 27
1.0
 37
0.0
 76
1
330
17
  0
LAYOUT
  5
1E
330
D
100
AcDbPlotSettings
  1

  4
A3
  6

 40
7.5
 41
20.0
 42
7.5
 43
20.0
 44
420.0
 45
297.0
 46
0.0
 47
0.0
 48
0.0
 49
0.0
140
0.0
141
0.0
142
1.0
143
1.0
 70
0
 72
1
 73
0
 74
5
  7

 75
16
 76
0
 77
2
 78
300
147
1.0
148
0.0
149
0.0
100
AcDbLayout
  1
Layout1
 70
1
 71
1
 10
0.0
 20
0.0
 11
420.0
 21
297.0
 12
0.0
 22
0.0
 32
0.0
 14
1e+20
 24
1e+20
 34
1e+20
 15
-1e+20
 25
-1e+20
 35
-1e+20
146
0.0
 13
0.0
 23
0.0
 33
0.0
 16
1.0
 26
0.0
 36
0.0
 17
0.0
 27
1.0
 37
0.0
 76
1
330
1B
  0
MATERIAL
  5
1F
102
{ACAD_REACTORS
330
E
102
}
330
E
100
AcDbMaterial
  1
ByBlock
  2

 70
0
 40
1.0
 71
1
 41
1.0
 91
-1023410177
 42
1.0
 72
1
  3

 73
1
 74
1
 75
1
 44
0.5
 73
0
 45
1.0
 46
1.0
 77
1
  4

 78
1
 79
1
170
1
 48
1.0
171
1
  6

172
1
173
1
174
1
140
1.0
141
1.0
175
1
  7

176
1
177
1
178
1
143
1.0
179
1
  8

270
1
271
1
272
1
145
1.0
146
1.0
273
1
  9

274
1
275
1
276
1
 42
1.0
 72
1
  3

 73
1
 74
1
 75
1
 94
63
  0
MATERIAL
  5
20
102
{ACAD_REACTORS
330
E
102
}
330
E
100
AcDbMaterial
  1
ByLayer
  2

 70
0
 40
1.0
 71
1
 41
1.0
 91
-1023410177
 42
1.0
 72
1
  3

 73
1
 74
1
 75
1
 44
0.5
 73
0
 45
1.0
 46
1.0
 77
1
  4

 78
1
 79
1
170
1
 48
1.0
171
1
  6

172
1
173
1
174
1
140
1.0
141
1.0
175
1
  7

176
1
177
1
178
1
143
1.0
179
1
  8

270
1
271
1
272
1
145
1.0
146
1.0
273
1
  9

274
1
275
1
276
1
 42
1.0
 72
1
  3

 73
1
 74
1
 75
1
 94
63
  0
MATERIAL
  5
21
102
{ACAD_REACTORS
330
E
102
}
330
E
100
AcDbMaterial
  1
Global
  2

 70
0
 40
1.0
 71
1
 41
1.0
 91
-1023410177
 42
1.0
 72
1
  3

 73
1
 74
1
 75
1
 44
0.5
 73
0
 45
1.0
 46
1.0
 77
1
  4

 78
1
 79
1
170
1
 48
1.0
171
1
  6

172
1
173
1
174
1
140
1.0
141
1.0
175
1
  7

176
1
177
1
178
1
143
1.0
179
1
  8

270
1
271
1
272
1
145
1.0
146
1.0
273
1
  9

274
1
275
1
276
1
 42
1.0
 72
1
  3

 73
1
 74
1
 75
1
 94
63
  0
MLINESTYLE
  5
22
102
{ACAD_REACTORS
330
10
102
}
330
10
100
AcDbMlineStyle
  2
Standard
 70
0
  3

 62
256
 51
90.0
 52
90.0
 71
2
 49
0.5
 62
256
  6
BYLAYER
 49
-0.5
 62
256
  6
BYLAYER
  0
MLEADERSTYLE
  5
2C
102
{ACAD_REACTORS
330
F
102
}
330
F
100
AcDbMLeaderStyle
179
2
170
2
171
1
172
0
 90
2
 40
0.0
 41
0.0
173
1
 91
-1056964608
 92
-2
290
1
 42
2.0
291
1
 43
8.0
  3
Standard
 44
4.0
300

342
29
174
1
175
1
176
0
178
1
 93
-1056964608
 45
4.0
292
0
297
0
 46
4.0
 94
-1056964608
 47
1.0
 49
1.0
140
1.0
294
1
141
0.0
177
0
142
1.0
295
0
296
0
143
3.75
271
0
272
9
273
9
  0
DICTIONARY
  5
2D
330
A
100
AcDbDictionary
280
1
281
1
  3
CREATED_BY_EZDXF
350
2E
  3
WRITTEN_BY_EZDXF
350
326
  0
DICTIONARYVAR
  5
2E
330
2D
100
DictionaryVariables
280
0
  1
1.4.4 @ 2026-09-24T22:25:35.523658+00:00
  0
DICTIONARYVAR
  5
326
330
2D
100
DictionaryVariables
280
0
  1
1.4.4 @ 2026-09-24T22:28:55.106202+00:00
  0
LAYOUT
  5
34E
330
D
100
AcDbPlotSettings
  1

  2
DWG to PDF.pc3
  4
ezdxf_(420.00_x_297.00_MM)
  6

 40
0.0
 41
0.0
 42
0.0
 43
0.0
 44
420.0
 45
297.0
 46
0.0
 47
0.0
 48
0.0
 49
0.0
140
0.0
141
0.0
142
1.0
143
1.0
 70
672
 72
1
 73
0
 74
5
  7

 75
16
 76
0
 77
2
 78
300
147
1.0
148
0.0
149
0.0
100
AcDbLayout
  1
PAFTA
 70
1
 71
3
 10
-0.0
 20
-0.0
 11
420.0
 21
297.0
 12
0.0
 22
0.0
 32
0.0
 14
1e+20
 24
1e+20
 34
1e+20
 15
-1e+20
 25
-1e+20
 35
-1e+20
146
0.0
 13
0.0
 23
0.0
 33
0.0
 16
1.0
 26
0.0
 36
0.0
 17
0.0
 27
1.0
 37
0.0
 76
1
330
34B
331
34F
  0
ENDSEC
  0
EOF
