  0
SECTION
  2
HEADER
  9
$ACADVER
  1
AC1024
  9
$ACADMAINTVER
 70
6
  9
$DWGCODEPAGE
  3
ANSI_1252
  9
$LASTSAVEDBY
  1
ezdxf
  9
$INSBASE
 10
0.0
 20
0.0
 30
0.0
  9
$EXTMIN
 10
1e+20
 20
1e+20
 30
1e+20
  9
$EXTMAX
 10
-1e+20
 20
-1e+20
 30
-1e+20
  9
$LIMMIN
 10
0.0
 20
0.0
  9
$LIMMAX
 10
420.0
 20
297.0
  9
$ORTHOMODE
 70
0
  9
$REGENMODE
 70
1
  9
$FILLMODE
 70
1
  9
$QTEXTMODE
 70
0
  9
$MIRRTEXT
 70
1
  9
$LTSCALE
 40
1.0
  9
$ATTMODE
 70
1
  9
$TEXTSIZE
 40
2.5
  9
$TRACEWID
 40
1.0
  9
$TEXTSTYLE
  7
Standard
  9
$CLAYER
  8
0
  9
$CELTYPE
  6
ByLayer
  9
$CECOLOR
 62
256
  9
$CELTSCALE
 40
1.0
  9
$DISPSILH
 70
0
  9
$DIMSCALE
 40
1.0
  9
$DIMASZ
 40
2.5
  9
$DIMEXO
 40
0.625
  9
$DIMDLI
 40
3.75
  9
$DIMRND
 40
0.0
  9
$DIMDLE
 40
0.0
  9
$DIMEXE
 40
1.25
  9
$DIMTP
 40
0.0
  9
$DIMTM
 40
0.0
  9
$DIMTXT
 40
4.3229999999999995
  9
$DIMCEN
 40
2.5
  9
$DIMTSZ
 40
0.0
  9
$DIMTOL
 70
0
  9
$DIMLIM
 70
0
  9
$DIMTIH
 70
0
  9
$DIMTOH
 70
0
  9
$DIMSE1
 70
0
  9
$DIMSE2
 70
0
  9
$DIMTAD
 70
1
  9
$DIMZIN
 70
8
  9
$DIMBLK
  1

  9
$DIMASO
 70
1
  9
$DIMSHO
 70
1
  9
$DIMPOST
  1

  9
$DIMAPOST
  1

  9
$DIMALT
 70
0
  9
$DIMALTD
 70
3
  9
$DIMALTF
 40
1.0
  9
$DIMLFAC
 40
1.0
  9
$DIMTOFL
 70
1
  9
$DIMTVP
 40
0.0
  9
$DIMTIX
 70
0
  9
$DIMSOXD
 70
0
  9
$DIMSAH
 70
0
  9
$DIMBLK1
  1

  9
$DIMBLK2
  1

  9
$DIMSTYLE
  2
PF_MM
  9
$DIMCLRD
 70
0
  9
$DIMCLRE
 70
0
  9
$DIMCLRT
 70
0
  9
$DIMTFAC
 40
1.0
  9
$DIMGAP
 40
0.625
  9
$DIMJUST
 70
0
  9
$DIMSD1
 70
0
  9
$DIMSD2
 70
0
  9
$DIMTOLJ
 70
0
  9
$DIMTZIN
 70
8
  9
$DIMALTZ
 70
0
  9
$DIMALTTZ
 70
0
  9
$DIMUPT
 70
0
  9
$DIMDEC
 70
2
  9
$DIMTDEC
 70
2
  9
$DIMALTU
 70
2
  9
$DIMALTTD
 70
3
  9
$DIMTXSTY
  7
Standard
  9
$DIMAUNIT
 70
0
  9
$DIMADEC
 70
0
  9
$DIMALTRND
 40
0.0
  9
$DIMAZIN
 70
0
  9
$DIMDSEP
 70
44
  9
$DIMATFIT
 70
3
  9
$DIMFRAC
 70
0
  9
$DIMLDRBLK
  1

  9
$DIMLUNIT
 70
2
  9
$DIMLWD
 70
-2
  9
$DIMLWE
 70
-2
  9
$DIMTMOVE
 70
0
  9
$DIMFXL
 40
1.0
  9
$DIMFXLON
 70
0
  9
$DIMJOGANG
 40
0.785398163397
  9
$DIMTFILL
 70
0
  9
$DIMTFILLCLR
 70
0
  9
$DIMARCSYM
 70
0
  9
$DIMLTYPE
  6

  9
$DIMLTEX1
  6

  9
$DIMLTEX2
  6

  9
$DIMTXTDIRECTION
 70
0
  9
$LUNITS
 70
2
  9
$LUPREC
 70
4
  9
$SKETCHINC
 40
1.0
  9
$FILLETRAD
 40
10.0
  9
$AUNITS
 70
0
  9
$AUPREC
 70
2
  9
$MENU
  1
.
  9
$ELEVATION
 40
0.0
  9
$PELEVATION
 40
0.0
  9
$THICKNESS
 40
0.0
  9
$LIMCHECK
 70
0
  9
$CHAMFERA
 40
0.0
  9
$CHAMFERB
 40
0.0
  9
$CHAMFERC
 40
0.0
  9
$CHAMFERD
 40
0.0
  9
$SKPOLY
 70
0
  9
$TDCREATE
 40
2461306.7146643517
  9
$TDUCREATE
 40
2458532.153996898
  9
$TDUPDATE
 40
2461306.714675926
  9
$TDUUPDATE
 40
2458532.1544311
  9
$TDINDWG
 40
0.0
  9
$TDUSRTIMER
 40
0.0
  9
$USRTIMER
 70
1
  9
$ANGBASE
 50
0.0
  9
$ANGDIR
 70
0
  9
$PDMODE
 70
0
  9
$PDSIZE
 40
0.0
  9
$PLINEWID
 40
0.0
  9
$SPLFRAME
 70
0
  9
$SPLINETYPE
 70
6
  9
$SPLINESEGS
 70
8
  9
$HANDSEED
  5
8E
  9
$SURFTAB1
 70
6
  9
$SURFTAB2
 70
6
  9
$SURFTYPE
 70
6
  9
$SURFU
 70
6
  9
$SURFV
 70
6
  9
$UCSBASE
  2

  9
$UCSNAME
  2

  9
$UCSORG
 10
0.0
 20
0.0
 30
0.0
  9
$UCSXDIR
 10
1.0
 20
0.0
 30
0.0
  9
$UCSYDIR
 10
0.0
 20
1.0
 30
0.0
  9
$UCSORTHOREF
  2

  9
$UCSORTHOVIEW
 70
0
  9
$UCSORGTOP
 10
0.0
 20
0.0
 30
0.0
  9
$UCSORGBOTTOM
 10
0.0
 20
0.0
 30
0.0
  9
$UCSORGLEFT
 10
0.0
 20
0.0
 30
0.0
  9
$UCSORGRIGHT
 10
0.0
 20
0.0
 30
0.0
  9
$UCSORGFRONT
 10
0.0
 20
0.0
 30
0.0
  9
$UCSORGBACK
 10
0.0
 20
0.0
 30
0.0
  9
$PUCSBASE
  2

  9
$PUCSNAME
  2

  9
$PUCSORG
 10
0.0
 20
0.0
 30
0.0
  9
$PUCSXDIR
 10
1.0
 20
0.0
 30
0.0
  9
$PUCSYDIR
 10
0.0
 20
1.0
 30
0.0
  9
$PUCSORTHOREF
  2

  9
$PUCSORTHOVIEW
 70
0
  9
$PUCSORGTOP
 10
0.0
 20
0.0
 30
0.0
  9
$PUCSORGBOTTOM
 10
0.0
 20
0.0
 30
0.0
  9
$PUCSORGLEFT
 10
0.0
 20
0.0
 30
0.0
  9
$PUCSORGRIGHT
 10
0.0
 20
0.0
 30
0.0
  9
$PUCSORGFRONT
 10
0.0
 20
0.0
 30
0.0
  9
$PUCSORGBACK
 10
0.0
 20
0.0
 30
0.0
  9
$USERI1
 70
0
  9
$USERI2
 70
0
  9
$USERI3
 70
0
  9
$USERI4
 70
0
  9
$USERI5
 70
0
  9
$USERR1
 40
0.0
  9
$USERR2
 40
0.0
  9
$USERR3
 40
0.0
  9
$USERR4
 40
0.0
  9
$USERR5
 40
0.0
  9
$WORLDVIEW
 70
1
  9
$SHADEDGE
 70
3
  9
$SHADEDIF
 70
70
  9
$TILEMODE
 70
1
  9
$MAXACTVP
 70
64
  9
$PINSBASE
 10
0.0
 20
0.0
 30
0.0
  9
$PLIMCHECK
 70
0
  9
$PEXTMIN
 10
1e+20
 20
1e+20
 30
1e+20
  9
$PEXTMAX
 10
-1e+20
 20
-1e+20
 30
-1e+20
  9
$PLIMMIN
 10
0.0
 20
0.0
  9
$PLIMMAX
 10
420.0
 20
297.0
  9
$UNITMODE
 70
0
  9
$VISRETAIN
 70
1
  9
$PLINEGEN
 70
0
  9
$PSLTSCALE
 70
1
  9
$TREEDEPTH
 70
3020
  9
$CMLSTYLE
  2
Standard
  9
$CMLJUST
 70
0
  9
$CMLSCALE
 40
20.0
  9
$PROXYGRAPHICS
 70
1
  9
$MEASUREMENT
 70
1
  9
$CELWEIGHT
370
-1
  9
$ENDCAPS
280
0
  9
$JOINSTYLE
280
0
  9
$LWDISPLAY
290
1
  9
$INSUNITS
 70
4
  9
$HYPERLINKBASE
  1

  9
$STYLESHEET
  1

  9
$XEDIT
290
1
  9
$CEPSNTYPE
380
0
  9
$PSTYLEMODE
290
1
  9
$FINGERPRINTGUID
  2
{C4587C14-DA4E-4107-9F57-E6FFEEC191F6}
  9
$VERSIONGUID
  2
{D5EB8937-A838-42C8-927F-A5350555EFDB}
  9
$EXTNAMES
290
1
  9
$PSVPSCALE
 40
0.0
  9
$OLESTARTUP
290
0
  9
$SORTENTS
280
127
  9
$INDEXCTL
280
0
  9
$HIDETEXT
280
1
  9
$XCLIPFRAME
280
1
  9
$HALOGAP
280
0
  9
$OBSCOLOR
 70
257
  9
$OBSLTYPE
280
0
  9
$INTERSECTIONDISPLAY
280
0
  9
$INTERSECTIONCOLOR
 70
257
  9
$DIMASSOC
280
2
  9
$PROJECTNAME
  1

  9
$CAMERADISPLAY
290
0
  9
$LENSLENGTH
 40
50.0
  9
$CAMERAHEIGHT
 40
0.0
  9
$STEPSPERSEC
 40
24.0
  9
$STEPSIZE
 40
100.0
  9
$3DDWFPREC
 40
2.0
  9
$PSOLWIDTH
 40
0.005
  9
$PSOLHEIGHT
 40
0.08
  9
$LOFTANG1
 40
1.570796326795
  9
$LOFTANG2
 40
1.570796326795
  9
$LOFTMAG1
 40
0.0
  9
$LOFTMAG2
 40
0.0
  9
$LOFTPARAM
 70
7
  9
$LOFTNORMALS
280
1
  9
$LATITUDE
 40
37.795
  9
$LONGITUDE
 40
-122.394
  9
$NORTHDIRECTION
 40
0.0
  9
$TIMEZONE
 70
-8000
  9
$LIGHTGLYPHDISPLAY
280
1
  9
$TILEMODELIGHTSYNCH
280
1
  9
$CMATERIAL
347
20
  9
$SOLIDHIST
280
0
  9
$SHOWHIST
280
1
  9
$DWFFRAME
280
2
  9
$DGNFRAME
280
2
  9
$REALWORLDSCALE
290
1
  9
$INTERFERECOLOR
 62
256
  9
$CSHADOW
280
0
  9
$SHADOWPLANELOCATION
 40
0.0
  0
ENDSEC
  0
SECTION
  2
CLASSES
  0
CLASS
  1
ACDBDICTIONARYWDFLT
  2
AcDbDictionaryWithDefault
  3
ObjectDBX Classes
 90
0
 91
0
280
0
281
0
  0
CLASS
  1
SUN
  2
AcDbSun
  3
SCENEOE
 90
1153
 91
0
280
0
281
0
  0
CLASS
  1
VISUALSTYLE
  2
AcDbVisualStyle
  3
ObjectDBX Classes
 90
4095
 91
0
280
0
281
0
  0
CLASS
  1
MATERIAL
  2
AcDbMaterial
  3
ObjectDBX Classes
 90
1153
 91
0
280
0
281
0
  0
CLASS
  1
SCALE
  2
AcDbScale
  3
ObjectDBX Classes
 90
1153
 91
0
280
0
281
0
  0
CLASS
  1
TABLESTYLE
  2
AcDbTableStyle
  3
ObjectDBX Classes
 90
4095
 91
0
280
0
281
0
  0
CLASS
  1
MLEADERSTYLE
  2
AcDbMLeaderStyle
  3
ACDB_MLEADERSTYLE_CLASS
 90
4095
 91
0
280
0
281
0
  0
CLASS
  1
DICTIONARYVAR
  2
AcDbDictionaryVar
  3
ObjectDBX Classes
 90
0
 91
0
280
0
281
0
  0
CLASS
  1
CELLSTYLEMAP
  2
AcDbCellStyleMap
  3
ObjectDBX Classes
 90
1152
 91
0
280
0
281
0
  0
CLASS
  1
MENTALRAYRENDERSETTINGS
  2
AcDbMentalRayRenderSettings
  3
SCENEOE
 90
1024
 91
0
280
0
281
0
  0
CLASS
  1
ACDBDETAILVIEWSTYLE
  2
AcDbDetailViewStyle
  3
ObjectDBX Classes
 90
1025
 91
0
280
0
281
0
  0
CLASS
  1
ACDBSECTIONVIEWSTYLE
  2
AcDbSectionViewStyle
  3
ObjectDBX Classes
 90
1025
 91
0
280
0
281
0
  0
CLASS
  1
RASTERVARIABLES
  2
AcDbRasterVariables
  3
ISM
 90
0
 91
0
280
0
281
0
  0
CLASS
  1
ACDBPLACEHOLDER
  2
AcDbPlaceHolder
  3
ObjectDBX Classes
 90
0
 91
0
280
0
281
0
  0
CLASS
  1
LAYOUT
  2
AcDbLayout
  3
ObjectDBX Classes
 90
0
 91
0
280
0
281
0
  0
ENDSEC
  0
SECTION
  2
TABLES
  0
TABLE
  2
VPORT
  5
8
330
0
100
AcDbSymbolTable
 70
1
  0
VPORT
  5
23
330
8
100
AcDbSymbolTableRecord
100
AcDbViewportTableRecord
  2
*Active
 70
0
 10
0.0
 20
0.0
 11
1.0
 21
1.0
 12
0.0
 22
0.0
 13
0.0
 23
0.0
 14
0.5
 24
0.5
 15
0.5
 25
0.5
 16
0.0
 26
0.0
 36
1.0
 17
0.0
 27
0.0
 37
0.0
 40
1000.0
 41
1.34
 42
50.0
 43
0.0
 44
0.0
 50
0.0
 51
0.0
 71
0
 72
1000
 73
1
 74
3
 75
0
 76
0
 77
0
 78
0
281
0
 65
0
146
0.0
  0
ENDTAB
  0
TABLE
  2
LTYPE
  5
2
330
0
100
AcDbSymbolTable
 70
5
  0
LTYPE
  5
24
330
2
100
AcDbSymbolTableRecord
100
AcDbLinetypeTableRecord
  2
ByBlock
 70
0
  3

 72
65
 73
0
 40
0.0
  0
LTYPE
  5
25
330
2
100
AcDbSymbolTableRecord
100
AcDbLinetypeTableRecord
  2
ByLayer
 70
0
  3

 72
65
 73
0
 40
0.0
  0
LTYPE
  5
26
330
2
100
AcDbSymbolTableRecord
100
AcDbLinetypeTableRecord
  2
Continuous
 70
0
  3

 72
65
 73
0
 40
0.0
  0
LTYPE
  5
36
330
2
100
AcDbSymbolTableRecord
100
AcDbLinetypeTableRecord
  2
KESIK
 70
0
  3

 72
65
 73
2
 40
3.0
 49
2.0
 74
0
 49
-1.0
 74
0
  0
LTYPE
  5
37
330
2
100
AcDbSymbolTableRecord
100
AcDbLinetypeTableRecord
  2
EKSENCIZGI
 70
0
  3

 72
65
 73
4
 40
12.0
 49
8.0
 74
0
 49
-2.0
 74
0
 49
0.0
 74
0
 49
-2.0
 74
0
  0
ENDTAB
  0
TABLE
  2
LAYER
  5
1
330
0
100
AcDbSymbolTable
 70
9
  0
LAYER
  5
27
330
1
100
AcDbSymbolTableRecord
100
AcDbLayerTableRecord
  2
0
 70
0
 62
7
  6
Continuous
370
-3
390
13
347
21
  0
LAYER
  5
28
330
1
100
AcDbSymbolTableRecord
100
AcDbLayerTableRecord
  2
Defpoints
 70
0
 62
7
  6
Continuous
290
0
370
-3
390
13
347
21
  0
LAYER
  5
2F
330
1
100
AcDbSymbolTableRecord
100
AcDbLayerTableRecord
  2
GORUNEN
 70
0
 62
7
  6
Continuous
370
9
390
13
347
21
  0
LAYER
  5
30
330
1
100
AcDbSymbolTableRecord
100
AcDbLayerTableRecord
  2
GIZLI
 70
0
 62
8
  6
KESIK
370
9
390
13
347
21
  0
LAYER
  5
31
330
1
100
AcDbSymbolTableRecord
100
AcDbLayerTableRecord
  2
EKSEN
 70
0
 62
1
  6
EKSENCIZGI
370
9
390
13
347
21
  0
LAYER
  5
32
330
1
100
AcDbSymbolTableRecord
100
AcDbLayerTableRecord
  2
OLCU
 70
0
 62
4
  6
Continuous
370
9
390
13
347
21
  0
LAYER
  5
33
330
1
100
AcDbSymbolTableRecord
100
AcDbLayerTableRecord
  2
YAZI
 70
0
 62
3
  6
Continuous
370
9
390
13
347
21
  0
LAYER
  5
34
330
1
100
AcDbSymbolTableRecord
100
AcDbLayerTableRecord
  2
CERCEVE
 70
0
 62
5
  6
Continuous
370
9
390
13
347
21
  0
LAYER
  5
35
330
1
100
AcDbSymbolTableRecord
100
AcDbLayerTableRecord
  2
TARAMA
 70
0
 62
5
  6
Continuous
370
9
390
13
347
21
  0
ENDTAB
  0
TABLE
  2
STYLE
  5
5
330
0
100
AcDbSymbolTable
 70
1
  0
STYLE
  5
29
330
5
100
AcDbSymbolTableRecord
100
AcDbTextStyleTableRecord
  2
Standard
 70
0
 40
0.0
 41
1.0
 50
0.0
 71
0
 42
2.5
  3
txt
  4

  0
ENDTAB
  0
TABLE
  2
VIEW
  5
7
330
0
100
AcDbSymbolTable
 70
0
  0
ENDTAB
  0
TABLE
  2
UCS
  5
6
330
0
100
AcDbSymbolTable
 70
0
  0
ENDTAB
  0
TABLE
  2
APPID
  5
3
330
0
100
AcDbSymbolTable
 70
3
  0
APPID
  5
2A
330
3
100
AcDbSymbolTableRecord
100
AcDbRegAppTableRecord
  2
ACAD
 70
0
  0
APPID
  5
8B
330
3
100
AcDbSymbolTableRecord
100
AcDbRegAppTableRecord
  2
HATCHBACKGROUNDCOLOR
 70
0
  0
APPID
  5
8C
330
3
100
AcDbSymbolTableRecord
100
AcDbRegAppTableRecord
  2
EZDXF
 70
0
  0
ENDTAB
  0
TABLE
  2
DIMSTYLE
  5
4
330
0
100
AcDbSymbolTable
 70
2
100
AcDbDimStyleTable
  0
DIMSTYLE
105
2B
330
4
100
AcDbSymbolTableRecord
100
AcDbDimStyleTableRecord
  2
Standard
 70
0
 40
1.0
 41
2.5
 42
0.625
 43
3.75
 44
1.25
 45
0.0
 46
0.0
 47
0.0
 48
0.0
 49
2.5
140
2.5
141
2.5
142
0.0
143
0.03937007874
144
1.0
145
0.0
146
1.0
147
0.625
148
0.0
 69
0
 70
0
 71
0
 72
0
 73
0
 74
0
 75
0
 76
0
 77
1
 78
8
 79
3
170
0
171
3
172
1
173
0
174
0
175
0
176
0
177
0
178
0
179
2
271
2
272
2
273
2
274
3
275
0
276
0
277
2
278
44
279
0
280
0
281
0
282
0
283
0
284
8
285
0
286
0
288
0
289
3
290
0
371
-2
372
-2
  0
DIMSTYLE
105
38
330
4
100
AcDbSymbolTableRecord
100
AcDbDimStyleTableRecord
  2
PF_MM
 70
0
 40
1.0
 41
3.4583999999999997
 42
2.1614999999999998
 43
3.75
 44
2.5937999999999994
 45
0.0
 46
0.0
 47
0.0
 48
0.0
 49
2.5
140
4.3229999999999995
141
2.5
142
0.0
143
0.03937007874
144
1.0
145
0.0
146
1.0
147
1.5130499999999998
148
0.0
 69
0
 70
0
 71
0
 72
0
 73
0
 74
0
 75
0
 76
0
 77
1
 78
8
 79
3
170
0
171
3
172
1
173
0
174
0
175
0
176
4
177
4
178
3
179
2
271
1
272
2
273
2
274
3
275
0
276
0
277
2
278
44
279
0
280
0
281
0
282
0
283
0
284
8
285
0
286
0
288
0
289
3
290
0
371
-2
372
-2
  0
ENDTAB
  0
TABLE
  2
BLOCK_RECORD
  5
9
330
0
100
AcDbSymbolTable
 70
5
  0
BLOCK_RECORD
  5
17
330
9
100
AcDbSymbolTableRecord
100
AcDbBlockTableRecord
  2
*Model_Space
340
1A
 70
0
280
1
281
0
  0
BLOCK_RECORD
  5
1B
330
9
100
AcDbSymbolTableRecord
100
AcDbBlockTableRecord
  2
*Paper_Space
340
1E
 70
0
280
1
281
0
  0
BLOCK_RECORD
  5
5B
330
9
100
AcDbSymbolTableRecord
100
AcDbBlockTableRecord
  2
*D1
340
0
 70
0
280
1
281
0
  0
BLOCK_RECORD
  5
60
330
9
100
AcDbSymbolTableRecord
100
AcDbBlockTableRecord
  2
_CLOSEDFILLED
340
0
 70
0
280
1
281
0
  0
BLOCK_RECORD
  5
6E
330
9
100
AcDbSymbolTableRecord
100
AcDbBlockTableRecord
  2
*D2
340
0
 70
0
280
1
281
0
  0
ENDTAB
  0
ENDSEC
  0
SECTION
  2
BLOCKS
  0
BLOCK
  5
18
330
17
100
AcDbEntity
  8
0
100
AcDbBlockBegin
  2
*Model_Space
 70
0
 10
0.0
 20
0.0
 30
0.0
  3
*Model_Space
  1

  0
ENDBLK
  5
19
330
17
100
AcDbEntity
  8
0
100
AcDbBlockEnd
  0
BLOCK
  5
1C
330
1B
100
AcDbEntity
  8
0
100
AcDbBlockBegin
  2
*Paper_Space
 70
0
 10
0.0
 20
0.0
 30
0.0
  3
*Paper_Space
  1

  0
ENDBLK
  5
1D
330
1B
100
AcDbEntity
  8
0
100
AcDbBlockEnd
  0
BLOCK
  5
5C
330
5B
100
AcDbEntity
  8
0
100
AcDbBlockBegin
  2
*D1
 70
1
 10
0.0
 20
0.0
 30
0.0
  3
*D1
  1

  0
LINE
  5
5E
330
5B
100
AcDbEntity
  8
0
 62
4
100
AcDbLine
 10
0.0
 20
-2.1614999999999998
 30
0.0
 11
0.0
 21
-19.885799999999996
 31
0.0
  0
LINE
  5
5F
330
5B
100
AcDbEntity
  8
0
 62
4
100
AcDbLine
 10
483.02
 20
-2.1614999999999998
 30
0.0
 11
483.02
 21
-19.885799999999996
 31
0.0
  0
INSERT
  5
64
330
5B
100
AcDbEntity
  8
OLCU
 62
4
100
AcDbBlockReference
  2
_CLOSEDFILLED
 10
0.0
 20
-17.291999999999998
 30
0.0
 41
3.4583999999999997
 42
3.4583999999999997
 50
180.0
  0
INSERT
  5
66
330
5B
100
AcDbEntity
  8
OLCU
 62
4
100
AcDbBlockReference
  2
_CLOSEDFILLED
 10
483.02
 20
-17.291999999999998
 30
0.0
 41
3.4583999999999997
 42
3.4583999999999997
  0
LINE
  5
68
330
5B
100
AcDbEntity
  8
0
 62
4
100
AcDbLine
 10
3.4583999999999997
 20
-17.291999999999998
 30
0.0
 11
479.5616
 21
-17.291999999999998
 31
0.0
  0
MTEXT
  5
69
330
5B
100
AcDbEntity
  8
OLCU
 62
3
100
AcDbMText
 10
241.51
 20
-13.617449999999998
 30
0.0
 40
4.3229999999999995
 71
5
  1
483
  0
POINT
  5
6A
330
5B
100
AcDbEntity
  8
Defpoints
100
AcDbPoint
 10
0.0
 20
-17.291999999999998
 30
0.0
  0
POINT
  5
6B
330
5B
100
AcDbEntity
  8
Defpoints
100
AcDbPoint
 10
0.0
 20
0.0
 30
0.0
  0
POINT
  5
6C
330
5B
100
AcDbEntity
  8
Defpoints
100
AcDbPoint
 10
483.02
 20
0.0
 30
0.0
  0
ENDBLK
  5
5D
330
5B
100
AcDbEntity
  8
0
100
AcDbBlockEnd
  0
BLOCK
  5
61
330
60
100
AcDbEntity
  8
0
100
AcDbBlockBegin
  2
_CLOSEDFILLED
 70
0
 10
0.0
 20
0.0
 30
0.0
  3
_CLOSEDFILLED
  1

  0
SOLID
  5
63
330
60
100
AcDbEntity
  8
0
  6
BYBLOCK
 62
0
100
AcDbTrace
 10
-1.0
 20
0.16439898372402537
 30
0.0
 11
0.0
 21
0.0
 31
0.0
 12
-1.0
 22
-0.16439898372402537
 32
0.0
 13
-1.0
 23
-0.16439898372402537
 33
0.0
  0
ENDBLK
  5
62
330
60
100
AcDbEntity
  8
0
100
AcDbBlockEnd
  0
BLOCK
  5
6F
330
6E
100
AcDbEntity
  8
0
100
AcDbBlockBegin
  2
*D2
 70
1
 10
0.0
 20
0.0
 30
0.0
  3
*D2
  1

  0
LINE
  5
71
330
6E
100
AcDbEntity
  8
0
 62
4
100
AcDbLine
 10
-2.1614999999999998
 20
0.0
 30
0.0
 11
-19.885799999999996
 21
0.0
 31
0.0
  0
LINE
  5
72
330
6E
100
AcDbEntity
  8
0
 62
4
100
AcDbLine
 10
-2.1614999999999998
 20
129.69
 30
0.0
 11
-19.885799999999996
 21
129.69
 31
0.0
  0
INSERT
  5
73
330
6E
100
AcDbEntity
  8
OLCU
 62
4
100
AcDbBlockReference
  2
_CLOSEDFILLED
 10
-17.291999999999998
 20
0.0
 30
0.0
 41
3.4583999999999997
 42
3.4583999999999997
 50
270.0
  0
INSERT
  5
75
330
6E
100
AcDbEntity
  8
OLCU
 62
4
100
AcDbBlockReference
  2
_CLOSEDFILLED
 10
-17.291999999999998
 20
129.69
 30
0.0
 41
3.4583999999999997
 42
3.4583999999999997
 50
90.0
  0
LINE
  5
77
330
6E
100
AcDbEntity
  8
0
 62
4
100
AcDbLine
 10
-17.291999999999998
 20
3.4583999999999997
 30
0.0
 11
-17.291999999999998
 21
126.2316
 31
0.0
  0
MTEXT
  5
78
330
6E
100
AcDbEntity
  8
OLCU
 62
3
100
AcDbMText
 10
-20.966549999999998
 20
64.845
 30
0.0
 40
4.3229999999999995
 71
5
  1
129,7
 50
90.0
  0
POINT
  5
79
330
6E
100
AcDbEntity
  8
Defpoints
100
AcDbPoint
 10
-17.291999999999998
 20
0.0
 30
0.0
  0
POINT
  5
7A
330
6E
100
AcDbEntity
  8
Defpoints
100
AcDbPoint
 10
0.0
 20
0.0
 30
0.0
  0
POINT
  5
7B
330
6E
100
AcDbEntity
  8
Defpoints
100
AcDbPoint
 10
0.0
 20
129.69
 30
0.0
  0
ENDBLK
  5
70
330
6E
100
AcDbEntity
  8
0
100
AcDbBlockEnd
  0
ENDSEC
  0
SECTION
  2
ENTITIES
  0
LWPOLYLINE
  5
39
330
17
100
AcDbEntity
  8
GORUNEN
100
AcDbPolyline
 90
497
 70
1
 10
415.02094378100014
 20
26.906274144693135
 10
483.02094378100014
 20
26.906274144693135
 10
483.02094378100014
 20
102.78841500038942
 10
415.02094378100014
 20
102.78841500038943
 10
415.02094378100014
 20
88.86429997574129
 10
412.02094378100014
 20
88.86429997574129
 10
411.9292765045606
 20
88.86639665080205
 10
411.8377964921256
 20
88.87268603534972
 10
411.7430041998314
 20
88.88367381480104
 10
411.64884547543085
 20
88.89917126671926
 10
411.5555365481696
 20
88.91914521552297
 10
411.463290871074
 20
88.94355122301769
 10
411.3723187825536
 20
88.97233392679327
 10
411.28282716800385
 20
89.0054273786213
 10
411.1950191214088
 20
89.04275538285252
 10
411.1090936069434
 20
89.0842318348141
 10
411.0252451205767
 20
89.12976105920717
 10
410.9436633516737
 20
89.17923814850406
 10
410.86453284459856
 20
89.23254930134581
 10
410.788032660317
 20
89.28957216093951
 10
410.7143360379989
 20
89.35017615345562
 10
410.643610056621
 20
89.41422282642547
 10
410.5760152965694
 20
89.48156618713858
 10
410.51170550124215
 20
89.55205304104004
 10
410.4508272386521
 20
89.62552333012795
 10
410.39351956302926
 20
89.70181047135074
 10
410.3399136764236
 20
89.7807416950046
 10
410.29013259030745
 20
89.86213838313083
 10
410.2442907871783
 20
89.94581640791327
 10
410.2024938821614
 20
90.03158647007567
 10
410.16483828461224
 20
90.11925443727907
 10
410.1314108597193
 20
90.20862168251915
 10
410.10228859010664
 20
90.29948542252372
 10
410.07753823743644
 20
90.39163905614996
 10
410.05721600401165
 20
90.48487250278195
 10
410.04136719437867
 20
90.57897254072796
 10
410.03002587692987
 20
90.67372314561788
 10
410.0232145455063
 20
90.76890582880057
 10
410.02094378100014
 20
90.86429997574129
 10
410.02094378100014
 20
108.69468914508258
 10
410.02455741238464
 20
108.84189216806482
 10
410.03538960098354
 20
108.98874056607124
 10
410.05341425110583
 20
109.13488056844865
 10
410.07858793979045
 20
109.27996011113095
 10
410.1108500214165
 20
109.42362968479236
 10
410.15012277380356
 20
109.56554317684595
 10
410.1963115854511
 20
109.70535870525923
 10
410.2493051834663
 20
109.84273944217784
 10
410.3089759016298
 20
109.97735442537342
 10
410.3751799879551
 20
110.10887935556056
 10
410.44775795099935
 20
110.23699737766222
 10
410.52653494409253
 20
110.36139984414137
 10
410.6113211865582
 20
110.48178705855986
 10
410.7019124209119
 20
110.5978689975735
 10
410.7980904049353
 20
110.70936600962362
 10
410.8996234374405
 20
110.81600948864221
 10
411.0062669164591
 20
110.91754252114744
 10
411.1177639285092
 20
111.01372050517077
 10
411.23384586752286
 20
111.10431173952449
 10
411.35423308194135
 20
111.1890979819902
 10
411.47863554842047
 20
111.26787497508337
 10
411.60675357052213
 20
111.34045293812764
 10
411.73827850070927
 20
111.4066570244529
 10
411.8728934839049
 20
111.46632774261643
 10
412.0102742208235
 20
111.51932134063162
 10
412.15008974923677
 20
111.56551015227919
 10
412.29200324129033
 20
111.6047829046662
 10
412.4356728149518
 20
111.63704498629227
 10
412.5807523576341
 20
111.66221867497691
 10
412.72689236001145
 20
111.68024332509916
 10
412.8737407580179
 20
111.69107551369808
 10
413.02094378100014
 20
111.69468914508258
 10
415.02094378100014
 20
111.69468914508258
 10
415.02094378100014
 20
111.64392165798256
 10
483.02094378100014
 20
111.64392165798256
 10
483.02094378100014
 20
129.69468914508258
 10
263.02094378100014
 20
129.69468914508258
 10
263.02094378100014
 20
86.84734457254129
 10
263.0198748302037
 20
86.80149032105317
 10
263.0166779903556
 20
86.75569816725753
 10
263.01111018784627
 20
86.70822810832121
 10
263.003279443409
 20
86.66106672763584
 10
262.99321216476346
 20
86.61433195975339
 10
262.9809382693374
 20
86.56813822951769
 10
262.9664911842667
 20
86.52259645206448
 10
262.9499078463953
 20
86.4778140328214
 10
262.93122870227523
 20
86.433894867508
 10
262.9104977081666
 20
86.39093934213574
 10
262.8877623300376
 20
86.34904433300792
 10
262.8630735435645
 20
86.30830320671981
 10
262.8364858341317
 20
86.26880582015856
 10
262.80805719683167
 20
86.23063852050319
 10
262.77784913646497
 20
86.19388414522464
 10
262.7459266675402
 20
86.15862202208578
 10
262.7123583142742
 20
86.12492796914131
 10
262.67721611059164
 20
86.0928742947379
 10
262.6405756001255
 20
86.06252979751406
 10
262.60251583621675
 20
86.03395976640027
 10
262.5631193819146
 20
86.00722598061884
 10
262.522472309976
 20
85.98238670968402
 10
262.48066420286636
 20
85.95949671340196
 10
262.43778815275897
 20
85.93860724187067
 10
262.3939407615353
 20
85.91976603548011
 10
262.34922214078483
 20
85.90301732491211
 10
262.30373591180523
 20
85.88840183114043
 10
262.25758920560213
 20
85.87595676543067
 10
262.21089266288936
 20
85.86571582934039
 10
262.1637604340888
 20
85.85770921471902
 10
262.1163101793303
 20
85.85196360370792
 10
262.0686630684521
 20
85.84850216874028
 10
262.02094378100014
 20
85.84734457254129
 10
258.02094378100014
 20
85.84734457254129
 10
258.02094378100014
 20
87.32249167697091
 10
258.01888845576
 20
87.52340804594522
 10
258.02094378100014
 20
87.52340804594522
 10
258.01812901137714
 20
87.59731564911681
 10
258.01683808197834
 20
87.72294630736565
 10
258.0147975991853
 20
87.92114956212029
 10
258.0127719230825
 20
88.1180620324544
 10
258.01076593370124
 20
88.31372883446484
 10
258.0087844636456
 20
88.50819577493203
 10
258.0068322864505
 20
88.70150917121288
 10
258.0049141050818
 20
88.89371569281796
 10
258.00303454060645
 20
89.08486222323968
 10
258.0011981210598
 20
89.27499574057674
 10
257.9994092705375
 20
89.464163215508
 10
257.99767229853705
 20
89.65241152519849
 10
257.99599138957626
 20
89.83978738176829
 10
257.99437059311197
 20
90.026337274014
 10
257.9928138137849
 20
90.21210742114141
 10
257.9913248020126
 20
90.39714373734256
 10
257.9899071449551
 20
90.58149180612624
 10
257.9885642578723
 20
90.7651968633901
 10
257.98729937589684
 20
90.94830378829823
 10
257.98611554624017
 20
91.13085710110369
 10
257.98501562085164
 20
91.31290096712635
 10
257.9840022495478
 20
91.49447920616458
 10
257.983077873629
 20
91.67563530668198
 10
257.98224471999765
 20
91.85641244416942
 10
257.98150479579385
 20
92.03685350313557
 10
257.98085988355996
 20
92.217001102228
 10
257.9803115369459
 20
92.39689762202985
 10
257.9798610769667
 20
92.57658523511572
 10
257.97950958882
 20
92.75610593798298
 10
257.9792579192714
 20
92.93550158450375
 10
257.979106674615
 20
93.11481392056533
 10
257.979056219
 20
93.29408461959054
 10
258.0
 20
93.29408461959054
 10
258.0000000000006
 20
119.29408461958053
 10
4.964850859000137
 20
119.29408461958452
 10
4.737765845879153
 20
119.28734978453352
 10
4.511208918132127
 20
119.27032146096973
 10
4.276507713717649
 20
119.24169687984845
 10
4.043425826583018
 20
119.20200686765745
 10
3.8124889282631784
 20
119.15133519109065
 10
3.5842158953376497
 20
119.08979271346439
 10
3.3591179999220913
 20
119.01751658518916
 10
3.1376981001599233
 20
118.9346694342414
 10
2.920449830713551
 20
118.84143855663544
 10
2.707856793256326
 20
118.73803510689515
 10
2.5003917469636576
 20
118.62469328852593
 10
2.2985157990048037
 20
118.50166954448636
 10
2.1026775950342085
 20
118.36924174766015
 10
1.9133125096831805
 20
118.22770839132794
 10
1.7308418370514005
 20
118.07738777963898
 10
1.5556719811983726
 20
117.91861721808318
 10
1.3881936466348748
 20
117.75175220396272
 10
1.2287810288147512
 20
117.57716561686397
 10
1.0777910046261923
 20
117.3952469091293
 10
0.9355623228832997
 20
117.20640129632889
 10
0.8024147948177074
 20
117.01104894773252
 10
0.6786484845700897
 20
116.80962417678141
 10
0.5645428996814985
 20
116.6025746315601
 10
0.4603561815851549
 20
116.39036048526813
 10
0.36632429609778683
 20
116.173453626692
 10
0.2826602239113072
 20
115.95233685067686
 10
0.2095531510842079
 20
115.72750304859845
 10
0.14716765953301092
 20
115.49945439883484
 10
0.09564291752406007
 20
115.26870155723826
 10
0.05509187016480155
 20
115.03576284760693
 10
0.025600429895519028
 20
114.80116345215687
 10
0.007226666980557184
 20
114.56543460199373
 10
1.1368683772161603e-13
 20
114.3291127675846
 10
0.0
 20
97.2429785343446
 10
0.042469809432930106
 20
97.06196201865352
 10
0.09163475436150748
 20
96.88264411569935
 10
0.16102842135842366
 20
96.66526325252778
 10
0.24026850962229673
 20
96.45127695297258
 10
0.32919256302017175
 20
96.24113380003669
 10
0.42761648352609427
 20
96.03527289481674
 10
0.5353352808973
 20
95.8341232468191
 10
0.6521238223510863
 20
95.63810316427595
 10
0.7777375822409454
 20
95.44761964446121
 10
0.9119133917332647
 20
95.26306776400676
 10
1.0543701884838583
 20
95.08483006921824
 10
1.2048097663143267
 20
94.91327596639131
 10
1.3629175248885304
 20
94.74876111212754
 10
1.528363219389405
 20
94.59162680365044
 10
1.7008017101949235
 20
94.44219936912165
 10
1.8798737125551384
 20
94.30078955795676
 10
2.065206546268314
 20
94.16769193114152
 10
2.2564148853575148
 20
94.04318425154779
 10
2.453101507747249
 20
93.92752687424954
 10
2.654858044939772
 20
93.82096213683901
 10
2.861265731691617
 20
93.72371374974264
 10
3.071896155690183
 20
93.63598618653712
 10
3.2863120072301513
 20
93.55796407426544
 10
3.504067828890072
 20
93.48981158375297
 10
3.7247107652086697
 20
93.43167181992337
 10
3.947781312361542
 20
93.38366621211478
 10
4.172814067837692
 20
93.34589390439572
 10
4.399338480115716
 20
93.31843114588122
 10
4.626879598340622
 20
93.3013306810488
 10
4.854958822000128
 20
93.29462114005453
 10
4.854958821999958
 20
93.29408461959453
 10
4.93175876961044
 20
93.29393260666103
 10
20.02906275900017
 20
93.1843484581854
 10
20.027635239028484
 20
92.95822835441153
 10
20.026299962347935
 20
92.7322368699387
 10
20.025056617158555
 20
92.50647588355869
 10
20.023904658000106
 20
92.28104157520309
 10
20.02284331241981
 20
92.05602488844212
 10
20.02187158764025
 20
91.83151192299081
 10
20.020988277227673
 20
91.60758424574092
 10
20.02019196775956
 20
91.3843191141203
 10
20.019481045492796
 20
91.16178961072566
 10
20.01885370303154
 20
90.94006469296463
 10
20.018307945995275
 20
90.71920916570056
 10
20.017841599686506
 20
90.49928358847998
 10
20.0174523157591
 20
90.28034413174053
 10
20.017137578885922
 20
90.06244239839572
 10
20.016894713426836
 20
89.84562522835725
 10
20.01672089009685
 20
89.6299345039165
 10
20.016613132633722
 20
89.41540697352337
 10
20.016568324466277
 20
89.20207411046414
 10
20.01658321538224
 20
88.98996202136145
 10
20.016654428195977
 20
88.77909141742158
 10
20.016778465416735
 20
88.56947765906423
 10
20.01695171591649
 20
88.36113088211457
 10
20.017170461597686
 20
88.1540562112275
 10
20.017430884061696
 20
87.94825406375045
 10
20.017729071276165
 20
87.74372054489008
 10
20.018061024243423
 20
87.54044793288953
 10
20.018422663668275
 20
87.33842525098018
 10
20.018809836625792
 20
87.13763892116117
 10
20.01921832322961
 20
86.93807349338107
 10
20.019643843299605
 20
86.73971244243326
 10
20.02008206302986
 20
86.54253902380628
 10
20.020511042293265
 20
86.35417798074374
 10
20.020943780999573
 20
86.16688584129564
 10
128.73582104595573
 20
86.69474948244564
 10
20.020943781000142
 20
85.93576413004129
 10
20.020943781000142
 20
43.758925015041285
 10
128.73582103373377
 20
42.99993966272064
 10
20.020943781000142
 20
43.52780330383912
 10
20.020511042293265
 20
43.34051116433884
 10
20.02008206302986
 20
43.1521501212763
 10
20.019643843299605
 20
42.95497670264932
 10
20.01921832322961
 20
42.75661565170151
 10
20.018809836625792
 20
42.55705022392141
 10
20.018422663668275
 20
42.35626389410239
 10
20.018061024243423
 20
42.15424121219304
 10
20.017729071276165
 20
41.950968600192496
 10
20.017430884061696
 20
41.74643508133211
 10
20.017170461597686
 20
41.54063293385508
 10
20.01695171591649
 20
41.33355826296802
 10
20.016778465416735
 20
41.125211486018344
 10
20.016654428195977
 20
40.915597727660995
 10
20.01658321538224
 20
40.70472712372113
 10
20.016568324466277
 20
40.492615034618446
 10
20.016613132633722
 20
40.27928217155919
 10
20.01672089009685
 20
40.06475464116607
 10
20.016894713426836
 20
39.849063916725335
 10
20.017137578885922
 20
39.63224674668685
 10
20.0174523157591
 20
39.41434501334204
 10
20.017841599686506
 20
39.195405556602594
 10
20.018307945995275
 20
38.975479979382015
 10
20.01885370303154
 20
38.75462445211796
 10
20.019481045492796
 20
38.532899534356915
 10
20.02019196775956
 20
38.310370030962275
 10
20.020988277227673
 20
38.087104899341654
 10
20.02187158764025
 20
37.86317722209176
 10
20.02284331241981
 20
37.63866425664046
 10
20.023904658000106
 20
37.4136475698795
 10
20.025056617158555
 20
37.18821326152389
 10
20.026299962347935
 20
36.962452275143875
 10
20.027635239028484
 20
36.736460790671046
 10
20.02906275900017
 20
36.51034068689718
 10
4.931759873000033
 20
36.400604525488056
 10
4.85495882299989
 20
36.40060452548805
 10
0.05646344500792111
 20
32.686472087579894
 10
0.12419440660283954
 20
32.91823386240646
 10
0.20303493255403282
 20
33.146455455449086
 10
0.2928011628854392
 20
33.37060464275144
 10
0.3932837583420792
 20
33.590158697407276
 10
0.50424838857964
 20
33.804605608585206
 10
0.6254362786340835
 20
34.013445275563086
 10
0.7565648123977553
 20
34.21619067398746
 10
0.8973281916941005
 20
34.41236899163828
 10
1.0473981494137092
 20
34.60152273105013
 10
1.206424715049593
 20
34.783210776418855
 10
1.3740370308455567
 20
34.95700942230524
 10
1.5498442166545487
 20
35.12251336173684
 10
1.7334362814905262
 20
35.279336631403815
 10
1.9243850796473225
 20
35.427113511744274
 10
2.122245309155744
 20
35.565499379820196
 10
2.3265555502493385
 20
35.69417151299514
 10
2.536839341418215
 20
35.81282984153916
 10
2.7526062905403137
 20
35.92119764840625
 10
2.9733532185003355
 20
36.01902221455197
 10
3.1985653326277657
 20
36.10607540828675
 10
3.427717427218738
 20
36.18215421729014
 10
3.660275108341807
 20
36.24708122204554
 10
3.895696040070277
 20
36.30070500959115
 10
4.1334312092367895
 20
36.342900526622515
 10
4.372926205758461
 20
36.373569371122926
 10
4.613622515548855
 20
36.39264002184175
 10
4.8549588229998335
 20
36.40006800508549
 10
0.0
 20
32.451710610737976
 10
4.728534783563248
 20
10.407831368639215
 10
4.492811677936004
 20
10.426205579360811
 10
4.258217999508702
 20
10.455697738365643
 10
4.025284966438164
 20
10.496249773974235
 10
3.7945377481394758
 20
10.547775771653022
 10
3.5664946557775465
 20
10.61016278354252
 10
3.3416663327582796
 20
10.683271637985513
 10
3.1205549452204764
 20
10.76693774905523
 10
2.9036533725272875
 20
10.86097192608355
 10
2.69144439775755
 20
10.965161183189153
 10
2.4843998981974096
 20
11.079269548805726
 10
2.282980035831997
 20
11.203038875210126
 10
2.087632447836768
 20
11.33618964805057
 10
1.8987914370690078
 20
11.478421795874837
 10
1.7168771625595127
 20
11.629415499658407
 10
1.542294830003982
 20
11.788832002332676
 10
1.3754338822546401
 20
11.956314418313141
 10
1.2166671898117443
 20
12.131488543027558
 10
1.0663502413149217
 20
12.313963662444138
 10
0.9248203340349619
 20
12.503333362599733
 10
0.792395764365267
 20
12.699176339128016
 10
0.6693750183132465
 20
12.901057206787641
 10
0.556035961991995
 20
13.108527308990467
 10
0.45263503211168654
 20
13.321125527329698
 10
0.359406426471196
 20
13.538379091108098
 10
0.276561294449607
 20
13.75980438686615
 10
0.20428692749771926
 20
13.984907767910265
 10
0.14274594962961373
 20
14.213186363840919
 10
0.09207550791398944
 20
14.444128890080876
 10
0.0523864629660693
 20
14.677216457403354
 10
0.023762579438596276
 20
14.911923381460227
 10
0.006734670881996863
 20
15.138485830364104
 10
1.1368683772161603e-13
 20
15.365576377497973
 10
4.964850859000535
 20
10.400604525498053
 10
258.0000000000006
 20
10.400604525502047
 10
258.0
 20
36.40060452549205
 10
257.9790562192124
 20
36.40060452549664
 10
257.979106674615
 20
36.57987522451725
 10
257.9792579192714
 20
36.75918756057882
 10
257.97950958881995
 20
36.93858320709959
 10
257.9798610769667
 20
37.11810390996686
 10
257.9803115369459
 20
37.29779152305272
 10
257.98085988355996
 20
37.47768804285458
 10
257.98150479579385
 20
37.657835641947
 10
257.98224471999765
 20
37.838276700913156
 10
257.983077873629
 20
38.01905383840059
 10
257.98400224954776
 20
38.20020993891799
 10
257.98501562085164
 20
38.38178817795622
 10
257.98611554624017
 20
38.56383204397888
 10
257.98729937589684
 20
38.74638535678434
 10
257.9885642578723
 20
38.929492281692475
 10
257.9899071449551
 20
39.11319733895633
 10
257.9913248020126
 20
39.29754540774002
 10
257.9928138137849
 20
39.482581723941166
 10
257.99437059311197
 20
39.66835187106859
 10
257.99599138957626
 20
39.85490176331429
 10
257.99767229853705
 20
40.042277619884096
 10
257.9994092705375
 20
40.23052592957458
 10
258.0011981210598
 20
40.41969340450582
 10
258.0030345406064
 20
40.609826921842895
 10
258.0049141050818
 20
40.800973452264614
 10
258.0068322864505
 20
40.99317997386969
 10
258.0087844636456
 20
41.186493370150544
 10
258.01076593370124
 20
41.38096031061774
 10
258.0127719230825
 20
41.576627112628174
 10
258.0147975991853
 20
41.77353958296228
 10
258.01683808197834
 20
41.97174283771693
 10
258.02094378100014
 20
42.09734457254129
 10
258.01888845576
 20
42.17128109913737
 10
258.02094378100014
 20
42.372197468088245
 10
258.02094378100014
 20
43.84734457254129
 10
262.02094378100014
 20
43.84734457254129
 10
262.06679803252086
 20
43.846275621744326
 10
262.1125901863442
 20
43.8430787818947
 10
262.16006024530475
 20
43.8375109793827
 10
262.20722162601
 20
43.82968023494171
 10
262.25395639390814
 20
43.81961295629145
 10
262.30015012415595
 20
43.80733906085974
 10
262.3456919016178
 20
43.79289197578248
 10
262.39047432086653
 20
43.77630863790371
 10
262.4343934861829
 20
43.757629493775525
 10
262.47734901155565
 20
43.73689849965816
 10
262.51924402068187
 20
43.71416312151992
 10
262.5599851469665
 20
43.68947433503723
 10
262.59948253352263
 20
43.6628866255946
 10
262.63764983317157
 20
43.634457988284666
 10
262.6744042084426
 20
43.60424992790812
 10
262.70966633157303
 20
43.5723274589738
 10
262.7433603845084
 20
43.538759105698624
 10
262.77541405890224
 20
43.50361690200761
 10
262.8057585561163
 20
43.46697639153387
 10
262.83432858722017
 20
43.42891662761863
 10
262.86106237299174
 20
43.389520173311205
 10
262.88590164391695
 20
43.34887310136902
 10
262.90879164018975
 20
43.3070649942576
 10
262.9296811117123
 20
43.264188944150554
 10
262.94852231809466
 20
43.22034155292961
 10
262.96527102865525
 20
43.17562293218459
 10
262.9798865224203
 20
43.13013670321341
 10
262.99233158812433
 20
43.0839899970221
 10
263.00257252420977
 20
43.037293454324775
 10
263.0105791388274
 20
42.99016122554366
 10
263.01632474983575
 20
42.942710970809074
 10
263.0197861848017
 20
42.89506385995944
 10
263.02094378100014
 20
42.84734457254129
 10
263.02094378100014
 20
0.0
 10
483.02094378100014
 20
1.4210854715202004e-14
 10
483.02094378100014
 20
18.050767487100003
 10
415.02094378100014
 20
18.050767487100003
 10
415.02094378100014
 20
18.0
 10
413.02094378100014
 20
18.0
 10
412.8737407580179
 20
18.003613631384482
 10
412.7268923600115
 20
18.014445819983408
 10
412.5807523576341
 20
18.032470470105658
 10
412.4356728149518
 20
18.05764415879031
 10
412.2920032412904
 20
18.08990624041637
 10
412.15008974923677
 20
18.129178992803375
 10
412.0102742208235
 20
18.175367804450936
 10
411.8728934839049
 20
18.228361402466135
 10
411.7382785007093
 20
18.288032120629666
 10
411.6067535705222
 20
18.35423620695493
 10
411.4786355484205
 20
18.426814169999183
 10
411.35423308194135
 20
18.50559116309236
 10
411.23384586752286
 20
18.59037740555806
 10
411.11776392850925
 20
18.680968639911782
 10
411.00626691645914
 20
18.777146623935117
 10
410.89962343744054
 20
18.878679656440355
 10
410.7980904049353
 20
18.98532313545894
 10
410.701912420912
 20
19.096820147509057
 10
410.61132118655826
 20
19.21290208652269
 10
410.52653494409253
 20
19.333289300941182
 10
410.44775795099935
 20
19.45769176742033
 10
410.3751799879551
 20
19.585809789521996
 10
410.3089759016298
 20
19.717334719709143
 10
410.2493051834663
 20
19.85194970290472
 10
410.1963115854511
 20
19.989330439823327
 10
410.15012277380356
 20
20.1291459682366
 10
410.1108500214165
 20
20.271059460290196
 10
410.07858793979045
 20
20.414729033951602
 10
410.05341425110583
 20
20.5598085766339
 10
410.0353896009836
 20
20.705948579011306
 10
410.02455741238464
 20
20.852796977017732
 10
410.02094378100014
 20
21.0
 10
410.02094378100014
 20
38.83038916934129
 10
410.0230404560609
 20
38.922056445780804
 10
410.02932984060857
 20
39.013536458215825
 10
410.0403176200599
 20
39.10832875051005
 10
410.05581507197815
 20
39.2024874749106
 10
410.0757890207818
 20
39.295796402171845
 10
410.1001950282766
 20
39.38804207926746
 10
410.12897773205214
 20
39.47901416778787
 10
410.1620711838802
 20
39.568505782337596
 10
410.1993991881114
 20
39.656313828932674
 10
410.240875640073
 20
39.742239343398005
 10
410.286404864466
 20
39.82608782976476
 10
410.33588195376296
 20
39.907669598667766
 10
410.3891931066047
 20
39.986800105742894
 10
410.4462159661984
 20
40.06330029002444
 10
410.5068199587145
 20
40.136996912342525
 10
410.57086663168434
 20
40.207722893720444
 10
410.63820999239744
 20
40.275317653772085
 10
410.70869684629895
 20
40.33962744909932
 10
410.7821671353868
 20
40.40050571168936
 10
410.8584542766096
 20
40.45781338731218
 10
410.9373855002635
 20
40.511419273917866
 10
411.0187821883897
 20
40.561200360034015
 10
411.10246021317215
 20
40.60704216316315
 10
411.18823027533455
 20
40.64883906818006
 10
411.27589824253795
 20
40.686494665729214
 10
411.365265487778
 20
40.719922090622134
 10
411.4561292277826
 20
40.7490443602348
 10
411.54828286140884
 20
40.773794712905016
 10
411.6415163080408
 20
40.794116946329794
 10
411.73561634598684
 20
40.80996575596278
 10
411.83036695087674
 20
40.82130707341156
 10
411.92554963405945
 20
40.82811840483515
 10
412.02094378100014
 20
40.83038916934129
 10
415.02094378100014
 20
40.83038916934129
  0
LWPOLYLINE
  5
3A
330
17
100
AcDbEntity
  8
GORUNEN
100
AcDbPolyline
 90
130
 70
1
 10
4.119218108352015
 20
27.022034086737122
 10
4.115350530988167
 20
27.14467926009796
 10
4.117505379063118
 20
27.26736647965121
 10
4.12567746136034
 20
27.389800181115127
 10
4.139847090617764
 20
27.511685410978906
 10
4.159980130957479
 20
27.632728537047853
 10
4.186028080121787
 20
27.7526379558291
 10
4.217928186319682
 20
27.871124795029914
 10
4.25560359940107
 20
27.987903609476383
 10
4.298963555995954
 20
28.102693068775835
 10
4.347903598171001
 20
28.215216635066405
 10
4.40230582507786
 20
28.325203229220932
 10
4.4620391769868775
 20
28.432387883900375
 10
4.526959751021195
 20
28.536512381883277
 10
4.59691114783169
 20
28.637325878133723
 10
4.671724848376243
 20
28.734585504108992
 10
4.751220619897367
 20
28.828056952851114
 10
4.835206950118447
 20
28.917515043452894
 10
4.923481508613577
 20
29.002744263538446
 10
5.015831634239362
 20
29.083539288451327
 10
5.112034847454254
 20
29.159705475899678
 10
5.211859386291053
 20
29.231059334866536
 10
5.315064764692238
 20
29.297428967655755
 10
5.421402351861275
 20
29.358654484008625
 10
5.5306159712367275
 20
29.414588386293488
 10
5.64244251764336
 20
29.465095924840497
 10
5.75661259113599
 20
29.510055422565323
 10
5.87285114600752
 20
29.549358568099954
 10
5.990878153397773
 20
29.58291067672421
 10
6.110409275908012
 20
29.61063091846959
 10
6.231156552594371
 20
29.63245251284571
 10
6.352829092690968
 20
29.64832288972036
 10
6.475133776391544
 20
29.65820381596557
 10
6.597775961000252
 20
29.662071487564525
 10
6.720460190725362
 20
29.65991658695873
 10
6.842890908538493
 20
29.651744305493963
 10
6.964773168116778
 20
29.637574330912095
 10
7.085813344421354
 20
29.617440799923017
 10
7.205719841065786
 20
29.59139221596638
 10
7.32420379279705
 20
29.559491332362477
 10
7.440979761397557
 20
29.5218150011341
 10
7.555766423330681
 20
29.478453987863205
 10
7.6682872474737565
 20
29.429512753028717
 10
7.778271161305838
 20
29.375109200352064
 10
7.885453203945076
 20
29.3153743927568
 10
7.989575164462792
 20
29.250452236626543
 10
8.090386203936191
 20
29.180499135121885
 10
8.187643459741196
 20
29.105683611391463
 10
8.281112630629934
 20
29.026185902584977
 10
8.37056854118282
 20
28.942197525646073
 10
8.45579568427604
 20
28.853920815931247
 10
8.536588740256832
 20
28.7615684397663
 10
8.612753071576776
 20
28.665362882114458
 10
8.684105191690549
 20
28.565535910590654
 10
8.750473207091204
 20
28.462328017113045
 10
8.811697231416417
 20
28.355987838536905
 10
8.86762977062915
 20
28.246771557666655
 10
8.918136078343252
 20
28.13494228608907
 10
8.963094480439679
 20
28.020769430314402
 10
9.002396668189988
 20
27.90452804275251
 10
9.035947959181328
 20
27.786498159087486
 10
9.063667525415042
 20
27.666964123647226
 10
9.08548858802817
 20
27.54621390439297
 10
9.101358578169538
 20
27.424538399179305
 10
9.111239263642858
 20
27.302230734955735
 10
9.115106841011368
 20
27.179585561598202
 10
9.113100967581317
 20
27.060325967780834
 10
9.105417816841623
 20
26.941291073619894
 10
9.092068689088364
 20
26.822756732898583
 10
9.07307979364009
 20
26.704996246069626
 10
9.048491828803606
 20
26.588279934315736
 10
9.01835956185073
 20
26.47287471361014
 10
8.982751408995455
 20
26.35904366877707
 10
8.941749015370533
 20
26.247045627552332
 10
8.895446835004407
 20
26.137134734643837
 10
8.843951710798137
 20
26.02956002579208
 10
8.787382454502335
 20
25.9245650018307
 10
8.725869426693805
 20
25.822387202747016
 10
8.659554116752702
 20
25.723257781742518
 10
8.588588722839177
 20
25.62740107929345
 10
8.51313573187042
 20
25.535034197211246
 10
8.433367499497308
 20
25.446366572703184
 10
8.349465830081613
 20
25.361599552432786
 10
8.26162155667248
 20
25.28092596658042
 10
8.170034120983644
 20
25.204529702903812
 10
8.07491115337001
 20
25.13258528079856
 10
7.976468052804876
 20
25.065257425358666
 10
7.874927566856343
 20
25.00270064143708
 10
7.770519371664648
 20
24.945058787706202
 10
7.663479651918749
 20
24.892464650718424
 10
7.554050680833257
 20
24.845039518966622
 10
7.442480400125305
 20
24.80289275694477
 10
7.3290219999914825
 20
24.76612137920837
 10
7.213933499084703
 20
24.734809624435023
 10
7.097477324490967
 20
24.70902852948494
 10
6.979919891706345
 20
24.68883550346151
 10
6.861531184613739
 20
24.674273901771777
 10
6.74724162565667
 20
24.665614055450654
 10
6.632681411000135
 20
24.662193334098077
 10
6.5099971812724675
 20
24.664348234637544
 10
6.38756646345621
 20
24.672520516102715
 10
6.265684203874855
 20
24.686690490685294
 10
6.14464402756721
 20
24.70682402167538
 10
6.024737530919879
 20
24.73287260563334
 10
5.9062535791858295
 20
24.76477348923884
 10
5.789477610582594
 20
24.802449820469107
 10
5.674690948646912
 20
24.845810833742163
 10
5.562170124501449
 20
24.89475206857908
 10
5.452186210667207
 20
24.949155621258413
 10
5.34500416802598
 20
25.00889042885659
 10
5.240882207506502
 20
25.073812584989994
 10
5.140071168031625
 20
25.143765686498007
 10
5.04281391222537
 20
25.218581210231974
 10
4.949344741335665
 20
25.298078919042176
 10
4.859888830782097
 20
25.382067295984946
 10
4.7746616876885355
 20
25.47034400570378
 10
4.693868631707687
 20
25.562696381872854
 10
4.61770430038797
 20
25.658901939528924
 10
4.546352180274766
 20
25.758728911057013
 10
4.479984164875077
 20
25.861936804538963
 10
4.4187601405511145
 20
25.968276983119466
 10
4.36282760134003
 20
26.07749326399408
 10
4.312321293627917
 20
26.18932253557601
 10
4.267362891533821
 20
26.30349539135498
 10
4.228060703786184
 20
26.419736778921113
 10
4.194509412797913
 20
26.537766662590265
 10
4.1667898465675535
 20
26.65730069803454
 10
4.144968783958177
 20
26.778050917292667
 10
4.129098793820901
 20
26.899726422510035
 10
4.119218108352015
 20
27.022034086737122
  0
LWPOLYLINE
  5
3B
330
17
100
AcDbEntity
  8
GORUNEN
100
AcDbPolyline
 90
131
 70
1
 10
18.935225885717784
 20
25.395010670983424
 10
19.159526905000064
 20
25.400604525498274
 10
43.158942041999524
 20
25.400604525498657
 10
43.378911511582146
 20
25.395224485202448
 10
43.598354580225816
 20
25.379096547655237
 10
43.81674642125091
 20
25.352258987568298
 10
44.03356497088515
 20
25.31477636483374
 10
44.248292078259965
 20
25.26673904816886
 10
44.46041465540657
 20
25.208262738760332
 10
44.66942582725147
 20
25.13948799390856
 10
44.87482608161275
 20
25.06057975067187
 10
45.07612441919565
 20
24.97172684951086
 10
45.2728395035885
 20
24.873141557932563
 10
45.46450081125869
 20
24.76505909413485
 10
45.650649781548395
 20
24.647737150650592
 10
45.830840966670564
 20
24.521455417991966
 10
46.00464318170475
 20
24.386515108294766
 10
46.17164065459298
 20
24.24323847896258
 10
46.33143417613553
 20
24.091968356311178
 10
46.48364187869669
 20
23.933067245389722
 10
46.62789905776788
 20
23.76691496563204
 10
46.76386044346236
 20
23.59390865770608
 10
46.89120127667064
 20
23.41446216434175
 10
47.00961778550743
 20
23.229004880409185
 10
47.11882766165519
 20
23.03798060289438
 10
47.2185705367076
 20
22.841846380874664
 10
47.30860845851322
 20
22.641071365494298
 10
47.38872636751887
 20
22.43613565993998
 10
47.458732573113195
 20
22.22752916941645
 10
47.518459229970176
 20
22.015750451122003
 10
47.567762814392665
 20
21.80130556422405
 10
47.606524600655916
 20
21.58470691983466
 10
47.63465113735106
 20
21.36647213098611
 10
47.65207472372856
 20
21.147122862606466
 10
47.65875388604201
 20
20.927183681495087
 10
47.654673399646015
 20
20.707180883245847
 10
47.6398424558501
 20
20.48764097638354
 10
47.61429612270723
 20
20.26908905622546
 10
47.57809580917245
 20
20.052047594027258
 10
47.53132878992642
 20
19.83703528695026
 10
47.47410772903197
 20
19.624565908037013
 10
47.406570203590434
 20
19.415147156186833
 10
47.32887822739809
 20
19.20927950613136
 10
47.24121777460283
 20
19.00745505841008
 10
47.14379830336054
 20
18.81015638934592
 10
47.0368522794916
 20
18.617855401020748
 10
46.92063470013727
 20
18.431012171250934
 10
46.79542261741625
 20
18.2500738035629
 10
46.66151466208129
 20
18.075473277168683
 10
46.51923056717533
 20
17.90762829694144
 10
46.36891069168826
 20
17.746940143391043
 10
46.210915272808506
 20
17.59379276952555
 10
46.04562207888415
 20
17.44855304714291
 10
45.87342614847557
 20
17.311568696964848
 10
45.69473935803984
 20
17.183166988685187
 10
45.509989274690895
 20
17.06365426179898
 10
45.31961800620394
 20
16.953315449246823
 10
45.12408105101923
 20
16.852413601059133
 10
44.923846148246525
 20
16.761189408000398
 10
44.71939212766898
 20
16.67986072521346
 10
44.511207759747435
 20
16.608622095863772
 10
44.299790605624594
 20
16.547644274783714
 10
44.08564586712896
 20
16.497073752116805
 10
43.869285236779035
 20
16.457032276962018
 10
43.65122574778758
 20
16.427616381018026
 10
43.43198862406564
 20
16.40889690222751
 10
43.295528331702144
 20
16.40267804354093
 10
43.15894204200015
 20
16.400604525498657
 10
19.159526905000575
 20
16.40060452549828
 10
18.93522588571784
 20
16.406198380013123
 10
18.711482514110855
 20
16.422966036353962
 10
18.488853051454385
 20
16.450865807485187
 10
18.26789098967072
 20
16.48982833017981
 10
18.049145675260604
 20
16.539756737467414
 10
17.833160943541657
 20
16.600526899460625
 10
17.62047376658802
 20
16.67198773196167
 10
17.411612918233004
 20
16.753961572081415
 10
17.20709765945412
 20
16.846244619937366
 10
17.00743644740868
 20
16.948607445332215
 10
16.813125671328805
 20
17.060795558153544
 10
16.624648418419895
 20
17.182530041076262
 10
16.442473272829545
 20
17.31350824299509
 10
16.267053150673576
 20
17.453404531462844
 10
16.09882417401525
 20
17.60187110226402
 10
15.938204586597067
 20
17.75853884411091
 10
15.785593714020933
 20
17.923018256312375
 10
15.641370970961816
 20
18.094900417133935
 10
15.50589491788287
 20
18.27375800044168
 10
15.379502369598072
 20
18.45914633810232
 10
15.262507557897095
 20
18.65060452549823
 10
15.155201350315735
 20
18.847656567408997
 10
15.057850526993548
 20
19.049812561410484
 10
14.970697117416023
 20
19.256569915849454
 10
14.893957798691474
 20
19.467414599365654
 10
14.827823356857493
 20
19.681822418854708
 10
14.772458212556728
 20
19.899260322694815
 10
14.728000012261361
 20
20.119187725997044
 10
14.694559286062315
 20
20.341057854584548
 10
14.672219172873838
 20
20.564319104359328
 10
14.661035213737307
 20
20.78841641267691
 10
14.661035213737307
 20
21.012792638319567
 10
14.672219172873838
 20
21.23688994663715
 10
14.694559286062315
 20
21.46015119641192
 10
14.728000012261361
 20
21.682021324999425
 10
14.772458212556728
 20
21.901948728301655
 10
14.827823356857436
 20
22.11938663214176
 10
14.893957798691474
 20
22.33379445163083
 10
14.970697117415966
 20
22.544639135147023
 10
15.05785052699349
 20
22.751396489586
 10
15.155201350315735
 20
22.95355248358748
 10
15.262507557897038
 20
23.150604525498245
 10
15.379502369598015
 20
23.34206271289417
 10
15.505894917882813
 20
23.52745105055481
 10
15.64137097096176
 20
23.706308633862555
 10
15.785593714020933
 20
23.878190794684123
 10
15.93820458659701
 20
24.04267020688559
 10
16.098824174015192
 20
24.199337948732477
 10
16.26705315067352
 20
24.34780451953366
 10
16.44247327282949
 20
24.487700808001414
 10
16.624648418419838
 20
24.618679009920236
 10
16.81312567132875
 20
24.74041349284296
 10
17.007436447408622
 20
24.85260160566429
 10
17.207097659454064
 20
24.954964431059153
 10
17.41161291823289
 20
25.047247478915104
 10
17.620473766587963
 20
25.129221319034855
 10
17.8331609435416
 20
25.2006821515359
 10
18.049145675260547
 20
25.261452313529126
 10
18.26789098967066
 20
25.31138072081672
 10
18.488853051454328
 20
25.350343243511354
 10
18.7114825141108
 20
25.378243014642578
 10
18.935225885717784
 20
25.395010670983424
  0
LWPOLYLINE
  5
3C
330
17
100
AcDbEntity
  8
GORUNEN
100
AcDbPolyline
 90
129
 70
1
 10
309.26461992607733
 20
15.757605290318935
 10
309.27094378100014
 20
15.500000000099995
 10
309.26461992607733
 20
15.242394709881047
 10
309.2456635960292
 20
14.985410013369801
 10
309.2141204583153
 20
14.729665009209342
 10
309.17006650311714
 20
14.47577580951532
 10
309.1136078602715
 20
14.224354055607861
 10
309.0448805435943
 20
13.976005444514065
 10
308.964050123211
 20
13.731328269790836
 10
308.87131132668446
 20
13.49091198018327
 10
308.76688756989824
 20
13.255335759591013
 10
308.651030418829
 20
13.02516713176351
 10
308.5240189835016
 20
12.800960593085584
 10
308.38615924558854
 20
12.583256276747086
 10
308.2377833212736
 20
12.372578651514722
 10
308.07924866115457
 20
12.16943525824086
 10
307.9109371891137
 20
11.974315487153149
 10
307.7332543822296
 20
11.787689398870626
 10
307.54662829394704
 20
11.610006591986462
 10
307.3515085228593
 20
11.441695119945628
 10
307.14836512958544
 20
11.283160459826611
 10
306.9376875043531
 20
11.134784535511635
 10
306.71998318801457
 20
10.996924797598574
 10
306.4957766493367
 20
10.869913362271134
 10
306.26560802150914
 20
10.75405621120192
 10
306.0300318009169
 20
10.649632454415745
 10
305.7896155113093
 20
10.556893657889141
 10
305.54493833658614
 20
10.476063237505905
 10
305.2965897254923
 20
10.407335920828643
 10
305.0451679715849
 20
10.350877277983038
 10
304.7912787718908
 20
10.306823322784894
 10
304.5355337677304
 20
10.275280185070962
 10
304.2785490712191
 20
10.256323855022842
 10
304.02094378100014
 20
10.250000000099995
 10
303.7633384907812
 20
10.256323855022842
 10
303.50635379427
 20
10.275280185070962
 10
303.25060879010954
 20
10.306823322784894
 10
302.9967195904155
 20
10.350877277983031
 10
302.74529783650803
 20
10.407335920828636
 10
302.49694922541426
 20
10.476063237505898
 10
302.25227205069103
 20
10.556893657889134
 10
302.01185576108344
 20
10.649632454415737
 10
301.7762795404912
 20
10.754056211201913
 10
301.5461109126637
 20
10.869913362271127
 10
301.3219043739858
 20
10.99692479759856
 10
301.1042000576473
 20
11.134784535511628
 10
300.8935224324149
 20
11.283160459826604
 10
300.690379039141
 20
11.44169511994562
 10
300.49525926805336
 20
11.610006591986448
 10
300.3086331797708
 20
11.787689398870612
 10
300.1309503728867
 20
11.974315487153135
 10
299.96263890084583
 20
12.169435258240846
 10
299.8041042407268
 20
12.372578651514708
 10
299.6557283164118
 20
12.583256276747065
 10
299.5178685784988
 20
12.800960593085563
 10
299.3908571431713
 20
13.025167131763489
 10
299.2749999921021
 20
13.255335759590992
 10
299.17057623531593
 20
13.490911980183256
 10
299.0778374387893
 20
13.731328269790815
 10
298.99700701840607
 20
13.976005444514044
 10
298.9282797017288
 20
14.224354055607833
 10
298.87182105888326
 20
14.475775809515298
 10
298.82776710368506
 20
14.72966500920932
 10
298.79622396597114
 20
14.985410013369773
 10
298.777267635923
 20
15.242394709881019
 10
298.77094378100014
 20
15.500000000099995
 10
298.777267635923
 20
15.757605290318935
 10
298.79622396597114
 20
16.014589986830188
 10
298.82776710368506
 20
16.27033499099064
 10
298.8718210588832
 20
16.524224190684663
 10
298.9282797017288
 20
16.775645944592128
 10
298.99700701840607
 20
17.023994555685917
 10
299.0778374387893
 20
17.268671730409146
 10
299.17057623531593
 20
17.509088020016705
 10
299.2749999921021
 20
17.74466424060897
 10
299.3908571431713
 20
17.974832868436472
 10
299.51786857849874
 20
18.199039407114398
 10
299.6557283164118
 20
18.416743723452896
 10
299.8041042407268
 20
18.62742134868526
 10
299.96263890084583
 20
18.830564741959122
 10
300.1309503728866
 20
19.025684513046834
 10
300.3086331797708
 20
19.212310601329357
 10
300.4952592680533
 20
19.38999340821352
 10
300.690379039141
 20
19.558304880254354
 10
300.8935224324149
 20
19.71683954037337
 10
301.10420005764723
 20
19.865215464688347
 10
301.3219043739857
 20
20.003075202601416
 10
301.54611091266366
 20
20.130086637928848
 10
301.77627954049115
 20
20.245943788998062
 10
302.01185576108344
 20
20.350367545784245
 10
302.252272050691
 20
20.44310634231085
 10
302.49694922541426
 20
20.523936762694085
 10
302.74529783650803
 20
20.592664079371346
 10
302.99671959041547
 20
20.64912272221695
 10
303.2506087901095
 20
20.69317667741509
 10
303.50635379426996
 20
20.724719815129028
 10
303.76333849078117
 20
20.743676145177147
 10
304.02094378100014
 20
20.750000000099995
 10
304.2785490712191
 20
20.743676145177147
 10
304.5355337677304
 20
20.724719815129028
 10
304.7912787718908
 20
20.693176677415096
 10
305.0451679715849
 20
20.64912272221696
 10
305.2965897254923
 20
20.592664079371353
 10
305.5449383365861
 20
20.523936762694092
 10
305.7896155113093
 20
20.443106342310855
 10
306.0300318009169
 20
20.350367545784252
 10
306.26560802150914
 20
20.24594378899807
 10
306.4957766493367
 20
20.130086637928855
 10
306.71998318801457
 20
20.003075202601423
 10
306.9376875043531
 20
19.865215464688355
 10
307.14836512958544
 20
19.71683954037338
 10
307.3515085228593
 20
19.55830488025436
 10
307.54662829394704
 20
19.389993408213527
 10
307.7332543822296
 20
19.21231060132937
 10
307.9109371891137
 20
19.02568451304684
 10
308.07924866115457
 20
18.83056474195913
 10
308.2377833212736
 20
18.627421348685267
 10
308.38615924558854
 20
18.416743723452903
 10
308.5240189835016
 20
18.199039407114405
 10
308.651030418829
 20
17.97483286843648
 10
308.76688756989824
 20
17.74466424060897
 10
308.87131132668446
 20
17.509088020016712
 10
308.964050123211
 20
17.268671730409146
 10
309.0448805435943
 20
17.023994555685917
 10
309.1136078602715
 20
16.775645944592128
 10
309.17006650311714
 20
16.524224190684663
 10
309.2141204583153
 20
16.27033499099064
 10
309.2456635960292
 20
16.01458998683018
 10
309.26461992607733
 20
15.757605290318935
  0
LWPOLYLINE
  5
3D
330
17
100
AcDbEntity
  8
GORUNEN
100
AcDbPolyline
 90
133
 70
1
 10
401.0700114553276
 20
6.001204543894836
 10
401.02094378100014
 20
6.000000000100009
 10
378.02094378100014
 20
6.000000000100009
 10
377.97187610667277
 20
6.001204543894836
 10
377.9229266406706
 20
6.004815273427809
 10
377.8742133065448
 20
6.01082349013523
 10
377.82585345898406
 20
6.019214719696777
 10
377.77796360109687
 20
6.0299687469054675
 10
377.73065910374567
 20
6.043059664367803
 10
377.6840539276079
 20
6.058455934916985
 10
377.6382603486351
 20
6.076120467588723
 10
377.59338868756987
 20
6.096010706976564
 10
377.5495470441742
 20
6.118078735751652
 10
377.5068410368069
 20
6.1422713900997365
 10
377.46537354798056
 20
6.16853038779746
 10
377.4252444765077
 20
6.196792468619364
 10
377.3865504968365
 20
6.226989546737272
 10
377.34938482615314
 20
6.259048874745048
 10
377.3138369998136
 20
6.292893218913463
 10
377.2799926556452
 20
6.328441045252987
 10
377.24793332763744
 20
6.365606715936359
 10
377.21773624951953
 20
6.404300695607574
 10
377.18947416869764
 20
6.4444297670804005
 10
377.1632151709999
 20
6.485897255906785
 10
377.13902251665183
 20
6.528603263274007
 10
377.1169544878767
 20
6.572444906669723
 10
377.0970642484889
 20
6.6173165677349175
 10
377.07939971581715
 20
6.663110146707787
 10
377.06400344526793
 20
6.70971532284554
 10
377.0509125278056
 20
6.757019820196739
 10
377.04015850059693
 20
6.804909678083874
 10
377.0317672710354
 20
6.853269525644642
 10
377.025759054328
 20
6.901982859770442
 10
377.022148324795
 20
6.950932325772584
 10
377.02094378100014
 20
7.000000000100009
 10
377.02094378100014
 20
11.000000000100009
 10
377.022148324795
 20
11.049067674427427
 10
377.025759054328
 20
11.098017140429569
 10
377.0317672710354
 20
11.146730474555369
 10
377.04015850059693
 20
11.195090322116137
 10
377.0509125278056
 20
11.242980180003272
 10
377.06400344526793
 20
11.290284677354471
 10
377.07939971581715
 20
11.33688985349223
 10
377.0970642484889
 20
11.3826834324651
 10
377.1169544878767
 20
11.427555093530287
 10
377.13902251665183
 20
11.471396736926003
 10
377.1632151709999
 20
11.514102744293226
 10
377.18947416869764
 20
11.55557023311961
 10
377.2177362495195
 20
11.595699304592443
 10
377.2479333276374
 20
11.634393284263652
 10
377.2799926556452
 20
11.671558954947024
 10
377.3138369998136
 20
11.707106781286555
 10
377.34938482615314
 20
11.740951125454963
 10
377.3865504968365
 20
11.773010453462746
 10
377.4252444765077
 20
11.803207531580654
 10
377.46537354798056
 20
11.83146961240255
 10
377.5068410368069
 20
11.857728610100281
 10
377.5495470441742
 20
11.881921264448366
 10
377.59338868756987
 20
11.903989293223454
 10
377.6382603486351
 20
11.923879532611295
 10
377.6840539276079
 20
11.941544065283026
 10
377.73065910374567
 20
11.956940335832215
 10
377.77796360109687
 20
11.97003125329455
 10
377.82585345898406
 20
11.980785280503241
 10
377.8742133065448
 20
11.989176510064787
 10
377.9229266406706
 20
11.995184726772209
 10
377.97187610667277
 20
11.998795456305182
 10
378.02094378100014
 20
12.000000000100009
 10
401.02094378100014
 20
12.000000000100009
 10
401.0700114553276
 20
11.998795456305182
 10
401.11896092132974
 20
11.995184726772209
 10
401.1676742554555
 20
11.989176510064787
 10
401.2160341030163
 20
11.980785280503241
 10
401.2639239609034
 20
11.97003125329455
 10
401.3112284582546
 20
11.956940335832215
 10
401.35783363439236
 20
11.941544065283033
 10
401.40362721336527
 20
11.923879532611295
 10
401.44849887443047
 20
11.903989293223454
 10
401.49234051782616
 20
11.881921264448366
 10
401.53504652519337
 20
11.857728610100281
 10
401.5765140140198
 20
11.831469612402557
 10
401.61664308549257
 20
11.803207531580654
 10
401.6553370651638
 20
11.773010453462746
 10
401.6925027358472
 20
11.74095112545497
 10
401.7280505621867
 20
11.707106781286555
 10
401.7618949063551
 20
11.671558954947024
 10
401.7939542343629
 20
11.634393284263652
 10
401.8241513124808
 20
11.595699304592443
 10
401.8524133933027
 20
11.55557023311961
 10
401.8786723910004
 20
11.514102744293233
 10
401.9028650453485
 20
11.471396736926003
 10
401.9249330741236
 20
11.427555093530287
 10
401.94482331351145
 20
11.3826834324651
 10
401.9624878461832
 20
11.33688985349223
 10
401.97788411673235
 20
11.290284677354471
 10
401.9909750341947
 20
11.242980180003272
 10
402.0017290614034
 20
11.195090322116137
 10
402.01012029096495
 20
11.146730474555369
 10
402.01612850767236
 20
11.098017140429569
 10
402.01973923720533
 20
11.049067674427427
 10
402.02094378100014
 20
11.000000000100009
 10
402.02094378100014
 20
7.000000000100009
 10
402.01973923720533
 20
6.950932325772591
 10
402.01612850767236
 20
6.901982859770449
 10
402.01012029096495
 20
6.853269525644649
 10
402.0017290614034
 20
6.804909678083881
 10
401.9909750341947
 20
6.757019820196746
 10
401.97788411673235
 20
6.709715322845547
 10
401.9624878461832
 20
6.663110146707787
 10
401.94482331351145
 20
6.6173165677349175
 10
401.9249330741236
 20
6.572444906669723
 10
401.9028650453485
 20
6.5286032632740145
 10
401.8786723910004
 20
6.485897255906785
 10
401.8524133933027
 20
6.444429767080408
 10
401.8241513124808
 20
6.404300695607574
 10
401.7939542343629
 20
6.365606715936366
 10
401.7618949063551
 20
6.328441045252994
 10
401.7280505621867
 20
6.292893218913463
 10
401.6925027358472
 20
6.259048874745048
 10
401.6553370651638
 20
6.226989546737272
 10
401.61664308549257
 20
6.196792468619364
 10
401.5765140140198
 20
6.1685303877974675
 10
401.53504652519337
 20
6.1422713900997365
 10
401.49234051782616
 20
6.118078735751652
 10
401.44849887443047
 20
6.096010706976564
 10
401.40362721336527
 20
6.076120467588723
 10
401.35783363439236
 20
6.058455934916992
 10
401.3112284582546
 20
6.043059664367803
 10
401.2639239609034
 20
6.0299687469054675
 10
401.2160341030163
 20
6.019214719696777
 10
401.1676742554555
 20
6.01082349013523
 10
401.11896092132974
 20
6.004815273427809
 10
401.0700114553276
 20
6.001204543894836
  0
LWPOLYLINE
  5
3E
330
17
100
AcDbEntity
  8
GORUNEN
100
AcDbPolyline
 90
133
 70
1
 10
9.113286046760152
 20
102.62970318349693
 10
9.11510684100017
 20
102.51510358348446
 10
9.1114360798328
 20
102.3958836216631
 10
9.102091731935104
 20
102.27696760669815
 10
9.087088947943016
 20
102.15863120770273
 10
9.066457750401185
 20
102.0411473325409
 10
9.040242607833704
 20
101.9247857077944
 10
9.008502008815299
 20
101.80981245872917
 10
8.971308036041933
 20
101.696489689262
 10
8.928745940401996
 20
101.58507506192723
 10
8.88091371504703
 20
101.47582137784329
 10
8.827921669462853
 20
101.36897615667934
 10
8.769892003540406
 20
101.26478121662196
 10
8.706958381646473
 20
101.16347225434166
 10
8.639265506695097
 20
101.06527842495963
 10
8.566968694217962
 20
100.97042192201428
 10
8.490233446435695
 20
100.87911755742792
 10
8.409235026328588
 20
100.79157234147334
 10
8.324158031707782
 20
100.70798506274043
 10
8.235195969285712
 20
100.6285458681029
 10
8.142550828747687
 20
100.5534358426848
 10
8.046432656822162
 20
100.48282658982717
 10
7.947059131352262
 20
100.41687981105471
 10
7.8446551353661675
 20
100.35574688604234
 10
7.739452331148414
 20
100.29956845258192
 10
7.631688734310785
 20
100.24847398654876
 10
7.521608287862932
 20
100.20258138186833
 10
7.409460436283837
 20
100.16199653048284
 10
7.295499699592085
 20
100.12681290231792
 10
7.179985247417449
 20
100.0971111252492
 10
7.06318047307127
 20
100.07295856506892
 10
6.9453525676177605
 20
100.05440890545259
 10
6.826772093944726
 20
100.04150172792565
 10
6.712372768211765
 20
100.03443849604751
 10
6.5977759610001385
 20
100.03261765748451
 10
6.478558904432759
 20
100.036288508157
 10
6.359645787312559
 20
100.04563308380894
 10
6.2413122720365095
 20
100.06063623343789
 10
6.123831259819781
 20
100.08126793377005
 10
6.007472470672326
 20
100.10748371519975
 10
5.892502023376039
 20
100.1392250877289
 10
5.779182015461231
 20
100.17641996690645
 10
5.6677701031840115
 20
100.21898309976788
 10
5.558519081502709
 20
100.2668164907747
 10
5.451676464055026
 20
100.31980982775389
 10
5.347484063134743
 20
100.37784090783734
 10
5.246177569668646
 20
100.44077606340142
 10
5.147986133193456
 20
100.50847058800636
 10
5.053131941832589
 20
100.58076916233577
 10
4.961829802273257
 20
100.65750628013612
 10
4.8742867197429405
 20
100.73850667415616
 10
4.790701477986659
 20
100.82358574208644
 10
4.71126421924356
 20
100.91254997249881
 10
4.636156024224022
 20
101.0051973707858
 10
4.56554849208635
 20
101.10131788510019
 10
4.499603320413655
 20
101.20069383229443
 10
4.438471885190893
 20
101.30310032386012
 10
4.382294820781567
 20
101.40830569186748
 10
4.3312015999046025
 20
101.51607191490487
 10
4.285310113611331
 20
101.62615504401819
 10
4.244726251262307
 20
101.73830562865038
 10
4.2095434805041805
 20
101.85226914258095
 10
4.179842427246399
 20
101.96778640986537
 10
4.155690455638535
 20
102.08459403077458
 10
4.137141248046589
 20
102.20242480773447
 10
4.124234385030263
 20
102.32100817126533
 10
4.117171325240179
 20
102.43541028497208
 10
4.115350531000161
 20
102.55000988498453
 10
4.119021292167474
 20
102.66922984680589
 10
4.128365640065226
 20
102.78814586177083
 10
4.143368424057314
 20
102.90648226076627
 10
4.163999621599146
 20
103.02396613592809
 10
4.190214764166569
 20
103.1403277606746
 10
4.221955363184975
 20
103.25530100973984
 10
4.259149335958341
 20
103.36862377920701
 10
4.301711431598278
 20
103.48003840654178
 10
4.349543656953244
 20
103.58929209062572
 10
4.4025357025374205
 20
103.69613731178967
 10
4.460565368459925
 20
103.80033225184705
 10
4.523498990353801
 20
103.90164121412735
 10
4.591191865305177
 20
103.99983504350936
 10
4.663488677782311
 20
104.09469154645473
 10
4.740223925564578
 20
104.18599591104109
 10
4.821222345671686
 20
104.27354112699567
 10
4.9062993402925485
 20
104.35712840572857
 10
4.995261402714561
 20
104.43656760036609
 10
5.087906543252643
 20
104.5116776257842
 10
5.184024715178111
 20
104.58228687864184
 10
5.283398240648069
 20
104.6482336574143
 10
5.385802236634163
 20
104.70936658242667
 10
5.49100504085186
 20
104.76554501588708
 10
5.598768637689545
 20
104.81663948192025
 10
5.708849084137341
 20
104.86253208660068
 10
5.820996935716494
 20
104.90311693798617
 10
5.9349576724081885
 20
104.93830056615107
 10
6.050472124582882
 20
104.96800234321981
 10
6.16727689892906
 20
104.99215490340009
 10
6.28510480438257
 20
105.01070456301642
 10
6.403685278055605
 20
105.02361174054334
 10
6.518084603788509
 20
105.03067497242148
 10
6.632681411000135
 20
105.0324958109845
 10
6.751898467567514
 20
105.028824960312
 10
6.870811584687715
 20
105.01948038466006
 10
6.989145099963764
 20
105.00447723503112
 10
7.106626112180493
 20
104.98384553469896
 10
7.222984901327948
 20
104.95762975326925
 10
7.337955348624234
 20
104.9258883807401
 10
7.451275356539043
 20
104.88869350156256
 10
7.562687268816262
 20
104.84613036870113
 10
7.671938290497508
 20
104.79829697769429
 10
7.778780907945247
 20
104.74530364071512
 10
7.88297330886553
 20
104.68727256063165
 10
7.984279802331628
 20
104.62433740506758
 10
8.082471238806818
 20
104.55664288046265
 10
8.177325430167684
 20
104.48434430613321
 10
8.268627569727016
 20
104.40760718833288
 10
8.356170652257333
 20
104.32660679431285
 10
8.439755894013615
 20
104.24152772638256
 10
8.519193152756714
 20
104.1525634959702
 10
8.594301347776252
 20
104.05991609768321
 10
8.664908879913924
 20
103.9637955833688
 10
8.730854051586618
 20
103.86441963617457
 10
8.79198548680938
 20
103.7620131446089
 10
8.848162551218707
 20
103.65680777660154
 10
8.899255772095671
 20
103.54904155356415
 10
8.945147258388943
 20
103.43895842445085
 10
8.985731120737967
 20
103.32680783981863
 10
9.02091389149615
 20
103.21284432588806
 10
9.050614944753875
 20
103.09732705860365
 10
9.074766916361796
 20
102.98051943769444
 10
9.093316123953741
 20
102.86268866073456
 10
9.10622298697001
 20
102.7441052972037
 10
9.113286046760152
 20
102.62970318349693
  0
LWPOLYLINE
  5
3F
330
17
100
AcDbEntity
  8
GORUNEN
100
AcDbPolyline
 90
133
 70
1
 10
19.15952690500012
 20
113.2940846195843
 10
43.15894204200026
 20
113.29408461958393
 10
43.378911511582146
 20
113.2887045792877
 10
43.598354580225816
 20
113.27257664174049
 10
43.81674642125091
 20
113.24573908165351
 10
44.033564970885266
 20
113.20825645891887
 10
44.248292078260306
 20
113.16021914225385
 10
44.46041465540719
 20
113.1017428328451
 10
44.66942582725255
 20
113.03296808799297
 10
44.874826081614515
 20
112.95405984475576
 10
45.076124419198266
 20
112.86520694359405
 10
45.272839503592195
 20
112.76662165201482
 10
45.46450081126375
 20
112.65853918821594
 10
45.65064978155499
 20
112.54121724473023
 10
45.83084096667892
 20
112.4149355120699
 10
46.00464318171498
 20
112.27999520237071
 10
46.17164065460514
 20
112.13671857303626
 10
46.33143417614957
 20
111.98544845038236
 10
46.483641878712376
 20
111.82654733945814
 10
46.627899057785044
 20
111.6603950596974
 10
46.76386044348078
 20
111.48738875176798
 10
46.891201276690026
 20
111.30794225839976
 10
47.00961778552755
 20
111.12248497446288
 10
47.11882766167571
 20
110.93146069694333
 10
47.21857053672824
 20
110.73532647491848
 10
47.30860845853357
 20
110.53455145953265
 10
47.38872636753854
 20
110.3296157539726
 10
47.458732573131726
 20
110.12100926344317
 10
47.51845922998706
 20
109.90923054514272
 10
47.56776281440739
 20
109.69478565823873
 10
47.60652460066791
 20
109.47818701384337
 10
47.634651137359754
 20
109.25995222498898
 10
47.65207472373345
 20
109.04060295660368
 10
47.65875388604252
 20
108.82066377548685
 10
47.654673399641695
 20
108.60066097723242
 10
47.63984245584038
 20
108.3811210703652
 10
47.614296122691655
 20
108.16256915020259
 10
47.578095809150625
 20
107.94552768800025
 10
47.53132878989794
 20
107.73051538091954
 10
47.474107728996444
 20
107.51804600200305
 10
47.40657020354752
 20
107.3086272501501
 10
47.328878227347445
 20
107.10275960009236
 10
47.24121777454417
 20
106.90093515236931
 10
47.14379830329358
 20
106.7036364833039
 10
47.03685227941605
 20
106.51133549497798
 10
46.920634700052915
 20
106.32449226520797
 10
46.79542261732291
 20
106.14355389752026
 10
46.66151466197874
 20
105.9689533711269
 10
46.5192305670634
 20
105.8011083909011
 10
46.36891069156695
 20
105.64042023735273
 10
46.21091527267771
 20
105.48727286348989
 10
46.04562207874375
 20
105.34203314111053
 10
45.87342614832562
 20
105.20504879093642
 10
45.69473935788028
 20
105.07664708266134
 10
45.50998927452184
 20
104.95713435578037
 10
45.319618006025394
 20
104.8467955432341
 10
45.124081050831364
 20
104.74589369505298
 10
44.92384614804945
 20
104.65466950200145
 10
44.719392127462925
 20
104.5733408192224
 10
44.51120775953268
 20
104.50210218988127
 10
44.29979060540143
 20
104.44112436881042
 10
44.08564586689772
 20
104.39055384615335
 10
43.86928523654018
 20
104.35051237100907
 10
43.651225747541616
 20
104.3210964750762
 10
43.43198862381303
 20
104.3023769962974
 10
43.29552833157567
 20
104.29615813762234
 10
43.15894204200015
 20
104.29408461958391
 10
19.159526904999893
 20
104.29408461958431
 10
18.939557435418124
 20
104.29946465988051
 10
18.72011436677451
 20
104.31559259742767
 10
18.501722525749415
 20
104.34243015751443
 10
18.284903976115174
 20
104.37991278024845
 10
18.070176868740305
 20
104.4279500969123
 10
17.85805429159376
 20
104.48642640631905
 10
17.649043119748796
 20
104.55520115116818
 10
17.443642865387574
 20
104.6341093944011
 10
17.242344527804676
 20
104.72296229555715
 10
17.045629443411826
 20
104.82154758712923
 10
16.85396813574164
 20
104.92963005091951
 10
16.667819165451988
 20
105.04695199439524
 10
16.487627980329762
 20
105.17323372704452
 10
16.313825765295576
 20
105.30817403673197
 10
16.146828292407406
 20
105.45145066605454
 10
15.987034770864852
 20
105.60272078869728
 10
15.834827068303639
 20
105.76162189961194
 10
15.69056988923245
 20
105.92777417936554
 10
15.554608503537963
 20
106.10078048729056
 10
15.427267670329684
 20
106.2802269806572
 10
15.308851161492896
 20
106.46568426459508
 10
15.199641285345194
 20
106.65670854211774
 10
15.09989841029278
 20
106.85284276414718
 10
15.009860488487107
 20
107.05361777953841
 10
14.929742579481456
 20
107.2585534851039
 10
14.85973637388713
 20
107.46715997563814
 10
14.80000971703015
 20
107.67893869394211
 10
14.750706132607604
 20
107.89338358084782
 10
14.711944346344353
 20
108.1099822252429
 10
14.683817809649213
 20
108.32821701409492
 10
14.666394223271709
 20
108.54756628247611
 10
14.659715060958206
 20
108.7675054635878
 10
14.663795547354255
 20
108.98750826183704
 10
14.678626491150169
 20
109.20704816869934
 10
14.704172824293039
 20
109.42560008885741
 10
14.74037313782776
 20
109.64264155105562
 10
14.787140157073793
 20
109.85765385813261
 10
14.844361217968185
 20
110.07012323704585
 10
14.911898743409779
 20
110.27954198889603
 10
14.98959071960212
 20
110.4854096389515
 10
15.077251172397325
 20
110.68723408667276
 10
15.174670643639615
 20
110.88453275573693
 10
15.281616667508558
 20
111.0768337440621
 10
15.397834246862885
 20
111.2636769738319
 10
15.523046329583849
 20
111.44461534151993
 10
15.656954284918811
 20
111.61921586791415
 10
15.799238379824772
 20
111.7870608481414
 10
15.949558255311786
 20
111.94774900169179
 10
16.107553674191536
 20
112.10089637555728
 10
16.27284686811589
 20
112.24613609793992
 10
16.44504279852447
 20
112.38312044811798
 10
16.623729588960202
 20
112.51152215639766
 10
16.80847967230909
 20
112.63103488328386
 10
16.998850940796046
 20
112.74137369583602
 10
17.194387895980753
 20
112.84227554402372
 10
17.39462279875346
 20
112.93349973708246
 10
17.599076819331003
 20
113.01482841986942
 10
17.807261187252493
 20
113.08606704921911
 10
18.018678341375335
 20
113.14704487029917
 10
18.23282307987097
 20
113.1976153929661
 10
18.449183710220893
 20
113.2376568681209
 10
18.66724319921235
 20
113.26707276406489
 10
18.886480322934233
 20
113.28579224285542
 10
19.022940615297955
 20
113.29201110154202
 10
19.15952690500012
 20
113.2940846195843
  0
LWPOLYLINE
  5
40
330
17
100
AcDbEntity
  8
GORUNEN
100
AcDbPolyline
 90
129
 70
1
 10
304.2785490712191
 20
108.95101299990543
 10
304.02094378100014
 20
108.94468914498258
 10
303.7633384907812
 20
108.95101299990543
 10
303.50635379427
 20
108.96996932995354
 10
303.25060879010954
 20
109.00151246766748
 10
302.9967195904155
 20
109.04556642286562
 10
302.74529783650803
 20
109.10202506571122
 10
302.49694922541426
 20
109.17075238238849
 10
302.25227205069103
 20
109.25158280277171
 10
302.01185576108344
 20
109.34432159929833
 10
301.7762795404912
 20
109.44874535608449
 10
301.5461109126637
 20
109.56460250715371
 10
301.3219043739858
 20
109.69161394248114
 10
301.1042000576473
 20
109.82947368039422
 10
300.8935224324149
 20
109.97784960470918
 10
300.690379039141
 20
110.1363842648282
 10
300.49525926805336
 20
110.30469573686904
 10
300.3086331797708
 20
110.48237854375319
 10
300.1309503728867
 20
110.66900463203572
 10
299.96263890084583
 20
110.86412440312343
 10
299.8041042407268
 20
111.06726779639729
 10
299.6557283164118
 20
111.27794542162965
 10
299.5178685784988
 20
111.49564973796814
 10
299.3908571431713
 20
111.71985627664607
 10
299.2749999921021
 20
111.95002490447357
 10
299.17057623531593
 20
112.18560112506583
 10
299.0778374387893
 20
112.4260174146734
 10
298.99700701840607
 20
112.67069458939662
 10
298.9282797017288
 20
112.91904320049042
 10
298.87182105888326
 20
113.17046495439789
 10
298.82776710368506
 20
113.4243541540919
 10
298.79622396597114
 20
113.68009915825235
 10
298.777267635923
 20
113.9370838547636
 10
298.77094378100014
 20
114.19468914498258
 10
298.777267635923
 20
114.45229443520151
 10
298.79622396597114
 20
114.70927913171278
 10
298.82776710368506
 20
114.96502413587322
 10
298.8718210588832
 20
115.21891333556724
 10
298.9282797017288
 20
115.4703350894747
 10
298.99700701840607
 20
115.7186837005685
 10
299.0778374387893
 20
115.96336087529173
 10
299.17057623531593
 20
116.2037771648993
 10
299.2749999921021
 20
116.43935338549156
 10
299.3908571431713
 20
116.66952201331905
 10
299.51786857849874
 20
116.89372855199699
 10
299.6557283164118
 20
117.11143286833547
 10
299.8041042407268
 20
117.32211049356783
 10
299.96263890084583
 20
117.52525388684171
 10
300.1309503728866
 20
117.72037365792941
 10
300.3086331797708
 20
117.90699974621194
 10
300.4952592680533
 20
118.0846825530961
 10
300.690379039141
 20
118.25299402513694
 10
300.8935224324149
 20
118.41152868525596
 10
301.10420005764723
 20
118.55990460957092
 10
301.3219043739857
 20
118.697764347484
 10
301.54611091266366
 20
118.82477578281143
 10
301.77627954049115
 20
118.94063293388065
 10
302.01185576108344
 20
119.04505669066683
 10
302.252272050691
 20
119.13779548719343
 10
302.49694922541426
 20
119.21862590757667
 10
302.74529783650803
 20
119.28735322425392
 10
302.99671959041547
 20
119.34381186709953
 10
303.2506087901095
 20
119.38786582229767
 10
303.50635379426996
 20
119.41940896001161
 10
303.76333849078117
 20
119.43836529005974
 10
304.02094378100014
 20
119.44468914498258
 10
304.2785490712191
 20
119.43836529005974
 10
304.5355337677304
 20
119.41940896001161
 10
304.7912787718908
 20
119.38786582229768
 10
305.0451679715849
 20
119.34381186709955
 10
305.2965897254923
 20
119.28735322425393
 10
305.5449383365861
 20
119.21862590757668
 10
305.7896155113093
 20
119.13779548719343
 10
306.0300318009169
 20
119.04505669066684
 10
306.26560802150914
 20
118.94063293388065
 10
306.4957766493367
 20
118.82477578281144
 10
306.71998318801457
 20
118.69776434748401
 10
306.9376875043531
 20
118.55990460957094
 10
307.14836512958544
 20
118.41152868525596
 10
307.3515085228593
 20
118.25299402513694
 10
307.54662829394704
 20
118.0846825530961
 10
307.7332543822296
 20
117.90699974621195
 10
307.9109371891137
 20
117.72037365792943
 10
308.07924866115457
 20
117.52525388684171
 10
308.2377833212736
 20
117.32211049356785
 10
308.38615924558854
 20
117.11143286833548
 10
308.5240189835016
 20
116.89372855199699
 10
308.651030418829
 20
116.66952201331907
 10
308.76688756989824
 20
116.43935338549156
 10
308.87131132668446
 20
116.2037771648993
 10
308.964050123211
 20
115.96336087529173
 10
309.0448805435943
 20
115.7186837005685
 10
309.1136078602715
 20
115.4703350894747
 10
309.17006650311714
 20
115.21891333556724
 10
309.2141204583153
 20
114.96502413587322
 10
309.2456635960292
 20
114.70927913171276
 10
309.26461992607733
 20
114.45229443520151
 10
309.27094378100014
 20
114.19468914498258
 10
309.26461992607733
 20
113.93708385476363
 10
309.2456635960292
 20
113.68009915825237
 10
309.2141204583153
 20
113.42435415409193
 10
309.17006650311714
 20
113.1704649543979
 10
309.1136078602715
 20
112.91904320049045
 10
309.0448805435943
 20
112.67069458939665
 10
308.964050123211
 20
112.42601741467342
 10
308.87131132668446
 20
112.18560112506586
 10
308.76688756989824
 20
111.9500249044736
 10
308.651030418829
 20
111.71985627664608
 10
308.5240189835016
 20
111.49564973796817
 10
308.38615924558854
 20
111.27794542162967
 10
308.2377833212736
 20
111.0672677963973
 10
308.07924866115457
 20
110.86412440312344
 10
307.9109371891137
 20
110.66900463203572
 10
307.7332543822296
 20
110.48237854375321
 10
307.54662829394704
 20
110.30469573686904
 10
307.3515085228593
 20
110.13638426482821
 10
307.14836512958544
 20
109.97784960470919
 10
306.9376875043531
 20
109.82947368039422
 10
306.71998318801457
 20
109.69161394248115
 10
306.4957766493367
 20
109.56460250715372
 10
306.26560802150914
 20
109.4487453560845
 10
306.0300318009169
 20
109.34432159929833
 10
305.7896155113093
 20
109.25158280277172
 10
305.54493833658614
 20
109.17075238238849
 10
305.2965897254923
 20
109.10202506571122
 10
305.0451679715849
 20
109.04556642286562
 10
304.7912787718908
 20
109.00151246766748
 10
304.5355337677304
 20
108.96996932995354
 10
304.2785490712191
 20
108.95101299990543
  0
LWPOLYLINE
  5
41
330
17
100
AcDbEntity
  8
GORUNEN
100
AcDbPolyline
 90
133
 70
1
 10
377.022148324795
 20
118.64562147065514
 10
377.02094378100014
 20
118.69468914498258
 10
377.02094378100014
 20
122.69468914498258
 10
377.022148324795
 20
122.74375681931
 10
377.025759054328
 20
122.79270628531214
 10
377.0317672710354
 20
122.84141961943793
 10
377.04015850059693
 20
122.8897794669987
 10
377.0509125278056
 20
122.93766932488585
 10
377.06400344526793
 20
122.98497382223704
 10
377.07939971581715
 20
123.0315789983748
 10
377.0970642484889
 20
123.07737257734767
 10
377.1169544878767
 20
123.12224423841285
 10
377.13902251665183
 20
123.16608588180857
 10
377.1632151709999
 20
123.2087918891758
 10
377.18947416869764
 20
123.25025937800218
 10
377.2177362495195
 20
123.290388449475
 10
377.2479333276374
 20
123.32908242914623
 10
377.2799926556452
 20
123.36624809982959
 10
377.3138369998136
 20
123.40179592616913
 10
377.34938482615314
 20
123.43564027033753
 10
377.3865504968365
 20
123.4676995983453
 10
377.4252444765077
 20
123.49789667646321
 10
377.46537354798056
 20
123.52615875728512
 10
377.5068410368069
 20
123.55241775498284
 10
377.5495470441742
 20
123.57661040933094
 10
377.59338868756987
 20
123.59867843810602
 10
377.6382603486351
 20
123.61856867749385
 10
377.6840539276079
 20
123.6362332101656
 10
377.73065910374567
 20
123.65162948071479
 10
377.77796360109687
 20
123.66472039817712
 10
377.82585345898406
 20
123.67547442538581
 10
377.8742133065448
 20
123.68386565494735
 10
377.9229266406706
 20
123.68987387165477
 10
377.97187610667277
 20
123.69348460118775
 10
378.02094378100014
 20
123.69468914498258
 10
401.02094378100014
 20
123.69468914498258
 10
401.0700114553276
 20
123.69348460118773
 10
401.11896092132974
 20
123.68987387165477
 10
401.1676742554555
 20
123.68386565494735
 10
401.2160341030163
 20
123.6754744253858
 10
401.2639239609034
 20
123.66472039817711
 10
401.3112284582546
 20
123.65162948071477
 10
401.35783363439236
 20
123.6362332101656
 10
401.40362721336527
 20
123.61856867749385
 10
401.44849887443047
 20
123.598678438106
 10
401.49234051782616
 20
123.57661040933093
 10
401.53504652519337
 20
123.55241775498284
 10
401.5765140140198
 20
123.52615875728512
 10
401.61664308549257
 20
123.49789667646321
 10
401.6553370651638
 20
123.4676995983453
 10
401.6925027358472
 20
123.43564027033753
 10
401.7280505621867
 20
123.40179592616911
 10
401.7618949063551
 20
123.36624809982958
 10
401.7939542343629
 20
123.32908242914621
 10
401.8241513124808
 20
123.290388449475
 10
401.8524133933027
 20
123.25025937800217
 10
401.8786723910004
 20
123.2087918891758
 10
401.9028650453485
 20
123.16608588180857
 10
401.9249330741236
 20
123.12224423841285
 10
401.94482331351145
 20
123.07737257734766
 10
401.9624878461832
 20
123.0315789983748
 10
401.97788411673235
 20
122.98497382223702
 10
401.9909750341947
 20
122.93766932488583
 10
402.0017290614034
 20
122.88977946699869
 10
402.01012029096495
 20
122.84141961943793
 10
402.01612850767236
 20
122.79270628531212
 10
402.01973923720533
 20
122.74375681930998
 10
402.02094378100014
 20
122.69468914498258
 10
402.02094378100014
 20
118.69468914498258
 10
402.01973923720533
 20
118.64562147065514
 10
402.01612850767236
 20
118.596672004653
 10
402.01012029096495
 20
118.54795867052721
 10
402.0017290614034
 20
118.49959882296643
 10
401.9909750341947
 20
118.4517089650793
 10
401.97788411673235
 20
118.4044044677281
 10
401.9624878461832
 20
118.35779929159035
 10
401.94482331351145
 20
118.31200571261748
 10
401.9249330741236
 20
118.26713405155228
 10
401.9028650453485
 20
118.22329240815658
 10
401.8786723910004
 20
118.18058640078935
 10
401.8524133933027
 20
118.13911891196297
 10
401.8241513124808
 20
118.09898984049013
 10
401.7939542343629
 20
118.06029586081893
 10
401.7618949063551
 20
118.02313019013555
 10
401.7280505621867
 20
117.98758236379602
 10
401.6925027358472
 20
117.95373801962761
 10
401.6553370651638
 20
117.92167869161983
 10
401.61664308549257
 20
117.89148161350192
 10
401.5765140140198
 20
117.86321953268002
 10
401.53504652519337
 20
117.8369605349823
 10
401.49234051782616
 20
117.81276788063421
 10
401.44849887443047
 20
117.79069985185912
 10
401.40362721336527
 20
117.77080961247128
 10
401.35783363439236
 20
117.75314507979955
 10
401.3112284582546
 20
117.73774880925036
 10
401.2639239609034
 20
117.72465789178803
 10
401.2160341030163
 20
117.71390386457934
 10
401.1676742554555
 20
117.70551263501778
 10
401.11896092132974
 20
117.69950441831037
 10
401.0700114553276
 20
117.6958936887774
 10
401.02094378100014
 20
117.69468914498256
 10
378.02094378100014
 20
117.69468914498258
 10
377.97187610667277
 20
117.6958936887774
 10
377.9229266406706
 20
117.69950441831037
 10
377.8742133065448
 20
117.7055126350178
 10
377.82585345898406
 20
117.71390386457935
 10
377.77796360109687
 20
117.72465789178804
 10
377.73065910374567
 20
117.73774880925036
 10
377.6840539276079
 20
117.75314507979955
 10
377.6382603486351
 20
117.7708096124713
 10
377.59338868756987
 20
117.79069985185913
 10
377.5495470441742
 20
117.81276788063421
 10
377.5068410368069
 20
117.83696053498231
 10
377.46537354798056
 20
117.86321953268002
 10
377.4252444765077
 20
117.89148161350194
 10
377.3865504968365
 20
117.92167869161985
 10
377.34938482615314
 20
117.95373801962761
 10
377.3138369998136
 20
117.98758236379602
 10
377.2799926556452
 20
118.02313019013555
 10
377.24793332763744
 20
118.06029586081893
 10
377.21773624951953
 20
118.09898984049015
 10
377.18947416869764
 20
118.13911891196297
 10
377.1632151709999
 20
118.18058640078935
 10
377.13902251665183
 20
118.22329240815658
 10
377.1169544878767
 20
118.26713405155229
 10
377.0970642484889
 20
118.31200571261748
 10
377.07939971581715
 20
118.35779929159035
 10
377.06400344526793
 20
118.4044044677281
 10
377.0509125278056
 20
118.4517089650793
 10
377.04015850059693
 20
118.49959882296643
 10
377.0317672710354
 20
118.54795867052721
 10
377.025759054328
 20
118.596672004653
 10
377.022148324795
 20
118.64562147065514
  0
LINE
  5
42
330
17
100
AcDbEntity
  8
EKSEN
100
AcDbLine
 10
0.0
 20
26.0
 30
0.0
 11
483.02
 21
26.0
 31
0.0
  0
LINE
  5
43
330
17
100
AcDbEntity
  8
EKSEN
100
AcDbLine
 10
0.0
 20
32.6
 30
0.0
 11
483.02
 21
32.6
 31
0.0
  0
TEXT
  5
44
330
17
100
AcDbEntity
  8
YAZI
100
AcDbText
 10
485.61379999999997
 20
27.35465
 30
0.0
 40
3.8907
  1
B1
 11
485.61379999999997
 21
27.35465
 31
0.0
100
AcDbText
  0
LINE
  5
45
330
17
100
AcDbEntity
  8
EKSEN
100
AcDbLine
 10
0.0
 20
29.42
 30
0.0
 11
483.02
 21
29.42
 31
0.0
  0
LINE
  5
46
330
17
100
AcDbEntity
  8
EKSEN
100
AcDbLine
 10
0.0
 20
31.94
 30
0.0
 11
483.02
 21
31.94
 31
0.0
  0
TEXT
  5
47
330
17
100
AcDbEntity
  8
YAZI
100
AcDbText
 10
485.61379999999997
 20
28.73465
 30
0.0
 40
3.8907
  1
B2
 11
485.61379999999997
 21
28.73465
 31
0.0
100
AcDbText
  0
LINE
  5
48
330
17
100
AcDbEntity
  8
EKSEN
100
AcDbLine
 10
0.0
 20
35.93
 30
0.0
 11
483.02
 21
35.93
 31
0.0
  0
LINE
  5
49
330
17
100
AcDbEntity
  8
EKSEN
100
AcDbLine
 10
0.0
 20
40.68
 30
0.0
 11
483.02
 21
40.68
 31
0.0
  0
TEXT
  5
4A
330
17
100
AcDbEntity
  8
YAZI
100
AcDbText
 10
485.61379999999997
 20
36.35965
 30
0.0
 40
3.8907
  1
B3
 11
485.61379999999997
 21
36.35965
 31
0.0
100
AcDbText
  0
LINE
  5
4B
330
17
100
AcDbEntity
  8
EKSEN
100
AcDbLine
 10
0.0
 20
36.4
 30
0.0
 11
483.02
 21
36.4
 31
0.0
  0
LINE
  5
4C
330
17
100
AcDbEntity
  8
EKSEN
100
AcDbLine
 10
0.0
 20
43.0
 30
0.0
 11
483.02
 21
43.0
 31
0.0
  0
TEXT
  5
4D
330
17
100
AcDbEntity
  8
YAZI
100
AcDbText
 10
485.61379999999997
 20
37.754650000000005
 30
0.0
 40
3.8907
  1
B4
 11
485.61379999999997
 21
37.754650000000005
 31
0.0
100
AcDbText
  0
LINE
  5
4E
330
17
100
AcDbEntity
  8
EKSEN
100
AcDbLine
 10
0.0
 20
86.7
 30
0.0
 11
483.02
 21
86.7
 31
0.0
  0
LINE
  5
4F
330
17
100
AcDbEntity
  8
EKSEN
100
AcDbLine
 10
0.0
 20
93.29
 30
0.0
 11
483.02
 21
93.29
 31
0.0
  0
TEXT
  5
50
330
17
100
AcDbEntity
  8
YAZI
100
AcDbText
 10
485.61379999999997
 20
88.04965
 30
0.0
 40
3.8907
  1
B5
 11
485.61379999999997
 21
88.04965
 31
0.0
100
AcDbText
  0
LINE
  5
51
330
17
100
AcDbEntity
  8
EKSEN
100
AcDbLine
 10
0.0
 20
89.02
 30
0.0
 11
483.02
 21
89.02
 31
0.0
  0
LINE
  5
52
330
17
100
AcDbEntity
  8
EKSEN
100
AcDbLine
 10
0.0
 20
93.76
 30
0.0
 11
483.02
 21
93.76
 31
0.0
  0
TEXT
  5
53
330
17
100
AcDbEntity
  8
YAZI
100
AcDbText
 10
485.61379999999997
 20
89.44465
 30
0.0
 40
3.8907
  1
B6
 11
485.61379999999997
 21
89.44465
 31
0.0
100
AcDbText
  0
LINE
  5
54
330
17
100
AcDbEntity
  8
EKSEN
100
AcDbLine
 10
0.0
 20
97.1
 30
0.0
 11
483.02
 21
97.1
 31
0.0
  0
LINE
  5
55
330
17
100
AcDbEntity
  8
EKSEN
100
AcDbLine
 10
0.0
 20
103.69
 30
0.0
 11
483.02
 21
103.69
 31
0.0
  0
TEXT
  5
56
330
17
100
AcDbEntity
  8
YAZI
100
AcDbText
 10
485.61379999999997
 20
98.44964999999999
 30
0.0
 40
3.8907
  1
B7
 11
485.61379999999997
 21
98.44964999999999
 31
0.0
100
AcDbText
  0
LINE
  5
57
330
17
100
AcDbEntity
  8
EKSEN
100
AcDbLine
 10
0.0
 20
97.76
 30
0.0
 11
483.02
 21
97.76
 31
0.0
  0
LINE
  5
58
330
17
100
AcDbEntity
  8
EKSEN
100
AcDbLine
 10
0.0
 20
100.28
 30
0.0
 11
483.02
 21
100.28
 31
0.0
  0
TEXT
  5
59
330
17
100
AcDbEntity
  8
YAZI
100
AcDbText
 10
485.61379999999997
 20
97.07465
 30
0.0
 40
3.8907
  1
B8
 11
485.61379999999997
 21
97.07465
 31
0.0
100
AcDbText
  0
DIMENSION
  5
5A
330
17
100
AcDbEntity
  8
OLCU
100
AcDbDimension
280
0
  2
*D1
  3
PF_MM
 10
0.0
 20
-17.291999999999998
 30
0.0
 11
241.51
 21
-13.617449999999998
 31
0.0
 70
32
 71
5
  1
<>
100
AcDbAlignedDimension
 13
0.0
 23
0.0
 33
0.0
 14
483.02
 24
0.0
 34
0.0
 50
0.0
100
AcDbRotatedDimension
  0
DIMENSION
  5
6D
330
17
100
AcDbEntity
  8
OLCU
100
AcDbDimension
280
0
  2
*D2
  3
PF_MM
 10
-17.291999999999998
 20
0.0
 30
0.0
 11
-20.966549999999998
 21
64.845
 31
0.0
 70
32
 71
5
  1
<>
100
AcDbAlignedDimension
 13
0.0
 23
0.0
 33
0.0
 14
0.0
 24
129.69
 34
0.0
 50
90.0
100
AcDbRotatedDimension
  0
TEXT
  5
7C
330
17
100
AcDbEntity
  8
YAZI
100
AcDbText
 10
500.31199999999995
 20
129.69
 30
0.0
 40
4.3229999999999995
  1
BUKUM  ACI      IC R   PAY      ALT KENARDAN
 11
500.31199999999995
 21
129.69
 31
0.0
100
AcDbText
  0
TEXT
  5
7D
330
17
100
AcDbEntity
  8
YAZI
100
AcDbText
 10
500.31199999999995
 20
121.044
 30
0.0
 40
4.3229999999999995
  1
B1       90.0    3.00   6.60     26.00 - 32.60
 11
500.31199999999995
 21
121.044
 31
0.0
100
AcDbText
  0
TEXT
  5
7E
330
17
100
AcDbEntity
  8
YAZI
100
AcDbText
 10
500.31199999999995
 20
113.26259999999999
 30
0.0
 40
4.3229999999999995
  1
B2       85.0    0.50   2.52     29.42 - 31.94
 11
500.31199999999995
 21
113.26259999999999
 31
0.0
100
AcDbText
  0
TEXT
  5
7F
330
17
100
AcDbEntity
  8
YAZI
100
AcDbText
 10
500.31199999999995
 20
105.48119999999999
 30
0.0
 40
4.3229999999999995
  1
B3       85.0    2.00   4.75     35.93 - 40.68
 11
500.31199999999995
 21
105.48119999999999
 31
0.0
100
AcDbText
  0
TEXT
  5
80
330
17
100
AcDbEntity
  8
YAZI
100
AcDbText
 10
500.31199999999995
 20
97.69979999999998
 30
0.0
 40
4.3229999999999995
  1
B4       90.0    3.00   6.60     36.40 - 43.00
 11
500.31199999999995
 21
97.69979999999998
 31
0.0
100
AcDbText
  0
TEXT
  5
81
330
17
100
AcDbEntity
  8
YAZI
100
AcDbText
 10
500.31199999999995
 20
89.91839999999998
 30
0.0
 40
4.3229999999999995
  1
B5       90.0    3.00   6.60     86.70 - 93.29
 11
500.31199999999995
 21
89.91839999999998
 31
0.0
100
AcDbText
  0
TEXT
  5
82
330
17
100
AcDbEntity
  8
YAZI
100
AcDbText
 10
500.31199999999995
 20
82.13699999999997
 30
0.0
 40
4.3229999999999995
  1
B6       85.0    2.00   4.75     89.02 - 93.76
 11
500.31199999999995
 21
82.13699999999997
 31
0.0
100
AcDbText
  0
TEXT
  5
83
330
17
100
AcDbEntity
  8
YAZI
100
AcDbText
 10
500.31199999999995
 20
74.35559999999997
 30
0.0
 40
4.3229999999999995
  1
B7       90.0    3.00   6.60     97.10 - 103.69
 11
500.31199999999995
 21
74.35559999999997
 31
0.0
100
AcDbText
  0
TEXT
  5
84
330
17
100
AcDbEntity
  8
YAZI
100
AcDbText
 10
500.31199999999995
 20
66.57419999999996
 30
0.0
 40
4.3229999999999995
  1
B8       85.0    0.50   2.52     97.76 - 100.28
 11
500.31199999999995
 21
66.57419999999996
 31
0.0
100
AcDbText
  0
TEXT
  5
85
330
17
100
AcDbEntity
  8
YAZI
100
AcDbText
 10
0.0
 20
204.0456
 30
0.0
 40
6.484499999999999
  1
POZ 5   01.050.000.01   01.050.000.01 U-Blech-Mechanismus   AÇINIM
 11
0.0
 21
204.0456
 31
0.0
100
AcDbText
  0
TEXT
  5
86
330
17
100
AcDbEntity
  8
YAZI
100
AcDbText
 10
0.0
 20
194.535
 30
0.0
 40
4.7553
  1
adet: 1
 11
0.0
 21
194.535
 31
0.0
100
AcDbText
  0
TEXT
  5
87
330
17
100
AcDbEntity
  8
YAZI
100
AcDbText
 10
0.0
 20
185.02439999999999
 30
0.0
 40
4.7553
  1
ACINIM : 129.69 x 483.02 mm   sac kalinlik 3.0 mm
 11
0.0
 21
185.02439999999999
 31
0.0
100
AcDbText
  0
TEXT
  5
88
330
17
100
AcDbEntity
  8
YAZI
100
AcDbText
 10
0.0
 20
175.51379999999997
 30
0.0
 40
4.7553
  1
8 bukum   K-faktoru 0.4   8 delik
 11
0.0
 21
175.51379999999997
 31
0.0
100
AcDbText
  0
TEXT
  5
89
330
17
100
AcDbEntity
  8
YAZI
100
AcDbText
 10
0.0
 20
166.00319999999996
 30
0.0
 40
4.7553
  1
olcek 1:1   birim: mm
 11
0.0
 21
166.00319999999996
 31
0.0
100
AcDbText
  0
TEXT
  5
8A
330
17
100
AcDbEntity
  8
YAZI
100
AcDbText
 10
0.0
 20
156.49259999999995
 30
0.0
 40
4.7553
  1
KESIM KONTURUDUR: dis kontur ve delikler gercek yerlerinde.
 11
0.0
 21
156.49259999999995
 31
0.0
100
AcDbText
  0
ENDSEC
  0
SECTION
  2
OBJECTS
  0
DICTIONARY
  5
A
330
0
100
AcDbDictionary
281
1
  3
ACAD_COLOR
350
B
  3
ACAD_GROUP
350
C
  3
ACAD_LAYOUT
350
D
  3
ACAD_MATERIAL
350
E
  3
ACAD_MLEADERSTYLE
350
F
  3
ACAD_MLINESTYLE
350
10
  3
ACAD_PLOTSETTINGS
350
11
  3
ACAD_PLOTSTYLENAME
350
12
  3
ACAD_SCALELIST
350
14
  3
ACAD_TABLESTYLE
350
15
  3
ACAD_VISUALSTYLE
350
16
  3
EZDXF_META
350
2D
  0
DICTIONARY
  5
B
330
A
100
AcDbDictionary
281
1
  0
DICTIONARY
  5
C
330
A
100
AcDbDictionary
281
1
  0
DICTIONARY
  5
D
330
A
100
AcDbDictionary
281
1
  3
Model
350
1A
  3
Layout1
350
1E
  0
DICTIONARY
  5
E
330
A
100
AcDbDictionary
281
1
  3
ByBlock
350
1F
  3
ByLayer
350
20
  3
Global
350
21
  0
DICTIONARY
  5
F
330
A
100
AcDbDictionary
281
1
  3
Standard
350
2C
  0
DICTIONARY
  5
10
330
A
100
AcDbDictionary
281
1
  3
Standard
350
22
  0
DICTIONARY
  5
11
330
A
100
AcDbDictionary
281
1
  0
ACDBDICTIONARYWDFLT
  5
12
330
A
100
AcDbDictionary
281
1
  3
Normal
350
13
100
AcDbDictionaryWithDefault
340
13
  0
ACDBPLACEHOLDER
  5
13
330
12
  0
DICTIONARY
  5
14
330
A
100
AcDbDictionary
281
1
  0
DICTIONARY
  5
15
330
A
100
AcDbDictionary
281
1
  0
DICTIONARY
  5
16
330
A
100
AcDbDictionary
281
1
  0
LAYOUT
  5
1A
330
D
100
AcDbPlotSettings
  1

  4
A3
  6

 40
7.5
 41
20.0
 42
7.5
 43
20.0
 44
420.0
 45
297.0
 46
0.0
 47
0.0
 48
0.0
 49
0.0
140
0.0
141
0.0
142
1.0
143
1.0
 70
1024
 72
1
 73
0
 74
5
  7

 75
16
 76
0
 77
2
 78
300
147
1.0
148
0.0
149
0.0
100
AcDbLayout
  1
Model
 70
1
 71
0
 10
0.0
 20
0.0
 11
420.0
 21
297.0
 12
0.0
 22
0.0
 32
0.0
 14
1e+20
 24
1e+20
 34
1e+20
 15
-1e+20
 25
-1e+20
 35
-1e+20
146
0.0
 13
0.0
 23
0.0
 33
0.0
 16
1.0
 26
0.0
 36
0.0
 17
0.0
 27
1.0
 37
0.0
 76
1
330
17
  0
LAYOUT
  5
1E
330
D
100
AcDbPlotSettings
  1

  4
A3
  6

 40
7.5
 41
20.0
 42
7.5
 43
20.0
 44
420.0
 45
297.0
 46
0.0
 47
0.0
 48
0.0
 49
0.0
140
0.0
141
0.0
142
1.0
143
1.0
 70
0
 72
1
 73
0
 74
5
  7

 75
16
 76
0
 77
2
 78
300
147
1.0
148
0.0
149
0.0
100
AcDbLayout
  1
Layout1
 70
1
 71
1
 10
0.0
 20
0.0
 11
420.0
 21
297.0
 12
0.0
 22
0.0
 32
0.0
 14
1e+20
 24
1e+20
 34
1e+20
 15
-1e+20
 25
-1e+20
 35
-1e+20
146
0.0
 13
0.0
 23
0.0
 33
0.0
 16
1.0
 26
0.0
 36
0.0
 17
0.0
 27
1.0
 37
0.0
 76
1
330
1B
  0
MATERIAL
  5
1F
102
{ACAD_REACTORS
330
E
102
}
330
E
100
AcDbMaterial
  1
ByBlock
  2

 70
0
 40
1.0
 71
1
 41
1.0
 91
-1023410177
 42
1.0
 72
1
  3

 73
1
 74
1
 75
1
 44
0.5
 73
0
 45
1.0
 46
1.0
 77
1
  4

 78
1
 79
1
170
1
 48
1.0
171
1
  6

172
1
173
1
174
1
140
1.0
141
1.0
175
1
  7

176
1
177
1
178
1
143
1.0
179
1
  8

270
1
271
1
272
1
145
1.0
146
1.0
273
1
  9

274
1
275
1
276
1
 42
1.0
 72
1
  3

 73
1
 74
1
 75
1
 94
63
  0
MATERIAL
  5
20
102
{ACAD_REACTORS
330
E
102
}
330
E
100
AcDbMaterial
  1
ByLayer
  2

 70
0
 40
1.0
 71
1
 41
1.0
 91
-1023410177
 42
1.0
 72
1
  3

 73
1
 74
1
 75
1
 44
0.5
 73
0
 45
1.0
 46
1.0
 77
1
  4

 78
1
 79
1
170
1
 48
1.0
171
1
  6

172
1
173
1
174
1
140
1.0
141
1.0
175
1
  7

176
1
177
1
178
1
143
1.0
179
1
  8

270
1
271
1
272
1
145
1.0
146
1.0
273
1
  9

274
1
275
1
276
1
 42
1.0
 72
1
  3

 73
1
 74
1
 75
1
 94
63
  0
MATERIAL
  5
21
102
{ACAD_REACTORS
330
E
102
}
330
E
100
AcDbMaterial
  1
Global
  2

 70
0
 40
1.0
 71
1
 41
1.0
 91
-1023410177
 42
1.0
 72
1
  3

 73
1
 74
1
 75
1
 44
0.5
 73
0
 45
1.0
 46
1.0
 77
1
  4

 78
1
 79
1
170
1
 48
1.0
171
1
  6

172
1
173
1
174
1
140
1.0
141
1.0
175
1
  7

176
1
177
1
178
1
143
1.0
179
1
  8

270
1
271
1
272
1
145
1.0
146
1.0
273
1
  9

274
1
275
1
276
1
 42
1.0
 72
1
  3

 73
1
 74
1
 75
1
 94
63
  0
MLINESTYLE
  5
22
102
{ACAD_REACTORS
330
10
102
}
330
10
100
AcDbMlineStyle
  2
Standard
 70
0
  3

 62
256
 51
90.0
 52
90.0
 71
2
 49
0.5
 62
256
  6
BYLAYER
 49
-0.5
 62
256
  6
BYLAYER
  0
MLEADERSTYLE
  5
2C
102
{ACAD_REACTORS
330
F
102
}
330
F
100
AcDbMLeaderStyle
179
2
170
2
171
1
172
0
 90
2
 40
0.0
 41
0.0
173
1
 91
-1056964608
 92
-2
290
1
 42
2.0
291
1
 43
8.0
  3
Standard
 44
4.0
300

342
29
174
1
175
1
176
0
178
1
 93
-1056964608
 45
4.0
292
0
297
0
 46
4.0
 94
-1056964608
 47
1.0
 49
1.0
140
1.0
294
1
141
0.0
177
0
142
1.0
295
0
296
0
143
3.75
271
0
272
9
273
9
  0
DICTIONARY
  5
2D
330
A
100
AcDbDictionary
280
1
281
1
  3
CREATED_BY_EZDXF
350
2E
  3
WRITTEN_BY_EZDXF
350
8D
  0
DICTIONARYVAR
  5
2E
330
2D
100
DictionaryVariables
280
0
  1
1.4.4 @ 2026-09-22T17:09:07.990857+00:00
  0
DICTIONARYVAR
  5
8D
330
2D
100
DictionaryVariables
280
0
  1
1.4.4 @ 2026-09-22T17:09:08.005688+00:00
  0
ENDSEC
  0
EOF
